  0
SECTION
  2
HEADER
  9
$ACADVER
  1
AC1032
  9
$ACADMAINTVER
 90
       73
  9
$DWGCODEPAGE
  3
ANSI_1252
  9
$LASTSAVEDBY
  1
Eton
  9
$REQUIREDVERSIONS
160
                 0
  9
$INSBASE
 10
0.0
 20
0.0
 30
0.0
  9
$EXTMIN
 10
-85.10833333333334
 20
42.63021063423383
 30
0.0
  9
$EXTMAX
 10
-76.23333333333333
 20
48.89595968934187
 30
0.0
  9
$LIMMIN
 10
0.0
 20
0.0
  9
$LIMMAX
 10
12.0
 20
9.0
  9
$ORTHOMODE
 70
     0
  9
$REGENMODE
 70
     1
  9
$FILLMODE
 70
     1
  9
$QTEXTMODE
 70
     0
  9
$MIRRTEXT
 70
     0
  9
$LTSCALE
 40
1.0
  9
$ATTMODE
 70
     1
  9
$TEXTSIZE
 40
0.006
  9
$TRACEWID
 40
0.05
  9
$TEXTSTYLE
  7
STANDARD
  9
$CLAYER
  8
0
  9
$CELTYPE
  6
ByLayer
  9
$CECOLOR
 62
   256
  9
$CELTSCALE
 40
1.0
  9
$DISPSILH
 70
     0
  9
$DIMSCALE
 40
1.0
  9
$DIMASZ
 40
0.18
  9
$DIMEXO
 40
0.0625
  9
$DIMDLI
 40
0.38
  9
$DIMRND
 40
0.0
  9
$DIMDLE
 40
0.0
  9
$DIMEXE
 40
0.18
  9
$DIMTP
 40
0.0
  9
$DIMTM
 40
0.0
  9
$DIMTXT
 40
0.18
  9
$DIMCEN
 40
0.09
  9
$DIMTSZ
 40
0.0
  9
$DIMTOL
 70
     0
  9
$DIMLIM
 70
     0
  9
$DIMTIH
 70
     1
  9
$DIMTOH
 70
     1
  9
$DIMSE1
 70
     0
  9
$DIMSE2
 70
     0
  9
$DIMTAD
 70
     0
  9
$DIMZIN
 70
     0
  9
$DIMBLK
  1

  9
$DIMASO
 70
     1
  9
$DIMSHO
 70
     1
  9
$DIMPOST
  1

  9
$DIMAPOST
  1

  9
$DIMALT
 70
     0
  9
$DIMALTD
 70
     2
  9
$DIMALTF
 40
25.4
  9
$DIMLFAC
 40
1.0
  9
$DIMTOFL
 70
     0
  9
$DIMTVP
 40
0.0
  9
$DIMTIX
 70
     0
  9
$DIMSOXD
 70
     0
  9
$DIMSAH
 70
     0
  9
$DIMBLK1
  1

  9
$DIMBLK2
  1

  9
$DIMSTYLE
  2
Standard
  9
$DIMCLRD
 70
     0
  9
$DIMCLRE
 70
     0
  9
$DIMCLRT
 70
     0
  9
$DIMTFAC
 40
1.0
  9
$DIMGAP
 40
0.09
  9
$DIMJUST
 70
     0
  9
$DIMSD1
 70
     0
  9
$DIMSD2
 70
     0
  9
$DIMTOLJ
 70
     1
  9
$DIMTZIN
 70
     0
  9
$DIMALTZ
 70
     0
  9
$DIMALTTZ
 70
     0
  9
$DIMUPT
 70
     0
  9
$DIMDEC
 70
     4
  9
$DIMTDEC
 70
     4
  9
$DIMALTU
 70
     2
  9
$DIMALTTD
 70
     2
  9
$DIMTXSTY
  7
STANDARD
  9
$DIMAUNIT
 70
     0
  9
$DIMADEC
 70
     0
  9
$DIMALTRND
 40
0.0
  9
$DIMAZIN
 70
     0
  9
$DIMDSEP
 70
    46
  9
$DIMATFIT
 70
     3
  9
$DIMFRAC
 70
     0
  9
$DIMLDRBLK
  1

  9
$DIMLUNIT
 70
     2
  9
$DIMLWD
 70
    -2
  9
$DIMLWE
 70
    -2
  9
$DIMTMOVE
 70
     0
  9
$DIMFXL
 40
1.0
  9
$DIMFXLON
 70
     0
  9
$DIMJOGANG
 40
0.7853981633974483
  9
$DIMTFILL
 70
     0
  9
$DIMTFILLCLR
 70
     0
  9
$DIMARCSYM
 70
     0
  9
$DIMLTYPE
  6

  9
$DIMLTEX1
  6

  9
$DIMLTEX2
  6

  9
$DIMTXTDIRECTION
 70
     0
  9
$LUNITS
 70
     2
  9
$LUPREC
 70
     4
  9
$SKETCHINC
 40
0.1
  9
$FILLETRAD
 40
0.0
  9
$AUNITS
 70
     0
  9
$AUPREC
 70
     0
  9
$MENU
  1
.
  9
$ELEVATION
 40
0.0
  9
$PELEVATION
 40
0.0
  9
$THICKNESS
 40
0.0
  9
$LIMCHECK
 70
     0
  9
$CHAMFERA
 40
0.0
  9
$CHAMFERB
 40
0.0
  9
$CHAMFERC
 40
0.0
  9
$CHAMFERD
 40
0.0
  9
$SKPOLY
 70
     0
  9
$TDCREATE
 40
2458928.657268519
  9
$TDUCREATE
 40
2458928.823935185
  9
$TDUPDATE
 40
2459185.780706019
  9
$TDUUPDATE
 40
2459185.989039352
  9
$TDINDWG
 40
0.0133101852
  9
$TDUSRTIMER
 40
0.0133101852
  9
$USRTIMER
 70
     1
  9
$ANGBASE
 50
0.0
  9
$ANGDIR
 70
     0
  9
$PDMODE
 70
     0
  9
$PDSIZE
 40
0.0
  9
$PLINEWID
 40
0.0
  9
$SPLFRAME
 70
     0
  9
$SPLINETYPE
 70
     6
  9
$SPLINESEGS
 70
     8
  9
$HANDSEED
  5
1AED
  9
$SURFTAB1
 70
     6
  9
$SURFTAB2
 70
     6
  9
$SURFTYPE
 70
     6
  9
$SURFU
 70
     6
  9
$SURFV
 70
     6
  9
$UCSBASE
  2

  9
$UCSNAME
  2

  9
$UCSORG
 10
0.0
 20
0.0
 30
0.0
  9
$UCSXDIR
 10
1.0
 20
0.0
 30
0.0
  9
$UCSYDIR
 10
0.0
 20
1.0
 30
0.0
  9
$UCSORTHOREF
  2

  9
$UCSORTHOVIEW
 70
     0
  9
$UCSORGTOP
 10
0.0
 20
0.0
 30
0.0
  9
$UCSORGBOTTOM
 10
0.0
 20
0.0
 30
0.0
  9
$UCSORGLEFT
 10
0.0
 20
0.0
 30
0.0
  9
$UCSORGRIGHT
 10
0.0
 20
0.0
 30
0.0
  9
$UCSORGFRONT
 10
0.0
 20
0.0
 30
0.0
  9
$UCSORGBACK
 10
0.0
 20
0.0
 30
0.0
  9
$PUCSBASE
  2

  9
$PUCSNAME
  2

  9
$PUCSORG
 10
0.0
 20
0.0
 30
0.0
  9
$PUCSXDIR
 10
1.0
 20
0.0
 30
0.0
  9
$PUCSYDIR
 10
0.0
 20
1.0
 30
0.0
  9
$PUCSORTHOREF
  2

  9
$PUCSORTHOVIEW
 70
     0
  9
$PUCSORGTOP
 10
0.0
 20
0.0
 30
0.0
  9
$PUCSORGBOTTOM
 10
0.0
 20
0.0
 30
0.0
  9
$PUCSORGLEFT
 10
0.0
 20
0.0
 30
0.0
  9
$PUCSORGRIGHT
 10
0.0
 20
0.0
 30
0.0
  9
$PUCSORGFRONT
 10
0.0
 20
0.0
 30
0.0
  9
$PUCSORGBACK
 10
0.0
 20
0.0
 30
0.0
  9
$USERI1
 70
     0
  9
$USERI2
 70
     0
  9
$USERI3
 70
     0
  9
$USERI4
 70
     0
  9
$USERI5
 70
     0
  9
$USERR1
 40
0.0
  9
$USERR2
 40
0.0
  9
$USERR3
 40
0.0
  9
$USERR4
 40
0.0
  9
$USERR5
 40
0.0
  9
$WORLDVIEW
 70
     1
  9
$SHADEDGE
 70
     3
  9
$SHADEDIF
 70
    70
  9
$TILEMODE
 70
     1
  9
$MAXACTVP
 70
    64
  9
$PINSBASE
 10
0.0
 20
0.0
 30
0.0
  9
$PLIMCHECK
 70
     0
  9
$PEXTMIN
 10
1.000000000000000E+20
 20
1.000000000000000E+20
 30
1.000000000000000E+20
  9
$PEXTMAX
 10
-1.000000000000000E+20
 20
-1.000000000000000E+20
 30
-1.000000000000000E+20
  9
$PLIMMIN
 10
0.0
 20
0.0
  9
$PLIMMAX
 10
12.0
 20
9.0
  9
$UNITMODE
 70
     0
  9
$VISRETAIN
 70
     1
  9
$PLINEGEN
 70
     0
  9
$PSLTSCALE
 70
     1
  9
$TREEDEPTH
 70
  3020
  9
$CMLSTYLE
  2
Standard
  9
$CMLJUST
 70
     0
  9
$CMLSCALE
 40
1.0
  9
$PROXYGRAPHICS
 70
     1
  9
$MEASUREMENT
 70
     0
  9
$CELWEIGHT
370
    -1
  9
$ENDCAPS
280
     0
  9
$JOINSTYLE
280
     0
  9
$LWDISPLAY
290
     0
  9
$INSUNITS
 70
     0
  9
$HYPERLINKBASE
  1

  9
$STYLESHEET
  1

  9
$XEDIT
290
     1
  9
$CEPSNTYPE
380
     0
  9
$PSTYLEMODE
290
     1
  9
$FINGERPRINTGUID
  2
{A087A190-52ED-7B49-BEE2-C79CD84C2D94}
  9
$VERSIONGUID
  2
{85BDE177-9A29-634A-BA27-7C1D1AC0926A}
  9
$EXTNAMES
290
     1
  9
$PSVPSCALE
 40
0.0
  9
$OLESTARTUP
290
     0
  9
$SORTENTS
280
   127
  9
$INDEXCTL
280
     0
  9
$HIDETEXT
280
     0
  9
$XCLIPFRAME
280
     2
  9
$HALOGAP
280
     0
  9
$OBSCOLOR
 70
   257
  9
$OBSLTYPE
280
     0
  9
$INTERSECTIONDISPLAY
280
     0
  9
$INTERSECTIONCOLOR
 70
   257
  9
$DIMASSOC
280
     1
  9
$PROJECTNAME
  1

  9
$CAMERADISPLAY
290
     0
  9
$LENSLENGTH
 40
50.0
  9
$CAMERAHEIGHT
 40
0.0
  9
$STEPSPERSEC
 40
2.0
  9
$STEPSIZE
 40
6.0
  9
$3DDWFPREC
 40
2.0
  9
$PSOLWIDTH
 40
0.25
  9
$PSOLHEIGHT
 40
4.0
  9
$LOFTANG1
 40
1.570796326794896
  9
$LOFTANG2
 40
1.570796326794896
  9
$LOFTMAG1
 40
0.0
  9
$LOFTMAG2
 40
0.0
  9
$LOFTPARAM
 70
     7
  9
$LOFTNORMALS
280
     1
  9
$LATITUDE
 40
37.795
  9
$LONGITUDE
 40
-122.394
  9
$NORTHDIRECTION
 40
0.0
  9
$TIMEZONE
 70
 -8000
  9
$LIGHTGLYPHDISPLAY
280
     1
  9
$TILEMODELIGHTSYNCH
280
     1
  9
$CMATERIAL
347
11
  9
$SOLIDHIST
280
     0
  9
$SHOWHIST
280
     1
  9
$DWFFRAME
280
     2
  9
$DGNFRAME
280
     0
  9
$REALWORLDSCALE
290
     1
  9
$INTERFERECOLOR
 62
     1
  9
$INTERFEREOBJVS
345
33
  9
$INTERFEREVPVS
346
30
  9
$CSHADOW
280
     0
  9
$SHADOWPLANELOCATION
 40
0.0
  0
ENDSEC
  0
SECTION
  2
CLASSES
  0
CLASS
  1
ACDBDICTIONARYWDFLT
  2
AcDbDictionaryWithDefault
  3
ObjectDBX Classes
 90
        0
 91
        1
280
     0
281
     0
  0
CLASS
  1
MATERIAL
  2
AcDbMaterial
  3
ObjectDBX Classes
 90
     1153
 91
        3
280
     0
281
     0
  0
CLASS
  1
VISUALSTYLE
  2
AcDbVisualStyle
  3
ObjectDBX Classes
 90
     4095
 91
       24
280
     0
281
     0
  0
CLASS
  1
SCALE
  2
AcDbScale
  3
ObjectDBX Classes
 90
     1153
 91
       17
280
     0
281
     0
  0
CLASS
  1
TABLESTYLE
  2
AcDbTableStyle
  3
ObjectDBX Classes
 90
     4095
 91
        1
280
     0
281
     0
  0
CLASS
  1
MLEADERSTYLE
  2
AcDbMLeaderStyle
  3
ACDB_MLEADERSTYLE_CLASS
 90
     4095
 91
        1
280
     0
281
     0
  0
CLASS
  1
ACDBSECTIONVIEWSTYLE
  2
AcDbSectionViewStyle
  3
ObjectDBX Classes
 90
     1025
 91
        1
280
     0
281
     0
  0
CLASS
  1
ACDBDETAILVIEWSTYLE
  2
AcDbDetailViewStyle
  3
ObjectDBX Classes
 90
     1025
 91
        1
280
     0
281
     0
  0
CLASS
  1
SOLID_BACKGROUND
  2
AcDbSolidBackground
  3
SCENEOE
 90
     4095
 91
        0
280
     0
281
     0
  0
CLASS
  1
NPOCOLLECTION
  2
AcDbImpNonPersistentObjectsCollection
  3
ObjectDBX Classes
 90
     1153
 91
        0
280
     0
281
     0
  0
CLASS
  1
DICTIONARYVAR
  2
AcDbDictionaryVar
  3
ObjectDBX Classes
 90
        0
 91
        9
280
     0
281
     0
  0
CLASS
  1
CELLSTYLEMAP
  2
AcDbCellStyleMap
  3
ObjectDBX Classes
 90
     1152
 91
        2
280
     0
281
     0
  0
ENDSEC
  0
SECTION
  2
TABLES
  0
TABLE
  2
VPORT
  5
8
330
0
100
AcDbSymbolTable
 70
     1
  0
VPORT
  5
7B
330
8
100
AcDbSymbolTableRecord
100
AcDbViewportTableRecord
  2
*Active
 70
     0
 10
0.0
 20
0.0
 11
1.0
 21
1.0
 12
-4.089152107791058
 22
2.004022425916081
 13
0.0
 23
0.0
 14
1.0
 24
1.0
 15
0.0
 25
0.0
 16
0.0
 26
-0.072385339653934
 36
4.146953331403261
 17
-79.91742304329069
 27
44.10082163383402
 37
-0.0044656081124234
 40
3.571367378961001
 41
1.886499402628435
 42
50.0
 43
0.0
 44
0.0
 50
0.0
 51
0.0
 71
     0
 72
   100
 73
     1
 74
     0
 75
     1
 76
     0
 77
     0
 78
     0
281
     0
 65
     1
110
0.0
120
0.0
130
0.0
111
1.0
121
0.0
131
0.0
112
0.0
122
1.0
132
0.0
 79
     0
146
0.0
348
2F
 60
     3
 61
     5
292
     1
282
     1
141
0.0
142
0.0
 63
   250
421
  3355443
1001
ACAD_NAV_VCDISPLAY
1070
     3
  0
ENDTAB
  0
TABLE
  2
LTYPE
  5
5
330
0
100
AcDbSymbolTable
 70
     1
  0
LTYPE
  5
5A
330
5
100
AcDbSymbolTableRecord
100
AcDbLinetypeTableRecord
  2
ByBlock
 70
     0
  3

 72
    65
 73
     0
 40
0.0
  0
LTYPE
  5
5B
330
5
100
AcDbSymbolTableRecord
100
AcDbLinetypeTableRecord
  2
ByLayer
 70
     0
  3

 72
    65
 73
     0
 40
0.0
  0
LTYPE
  5
5C
330
5
100
AcDbSymbolTableRecord
100
AcDbLinetypeTableRecord
  2
Continuous
 70
     0
  3
Solid line
 72
    65
 73
     0
 40
0.0
  0
ENDTAB
  0
TABLE
  2
LAYER
  5
2
330
0
100
AcDbSymbolTable
 70
     8
  0
LAYER
  5
54
102
{ACAD_XDICTIONARY
360
1ACD
102
}
330
2
100
AcDbSymbolTableRecord
100
AcDbLayerTableRecord
  2
0
 70
     0
 62
     7
  6
Continuous
370
    -3
390
F
347
21
348
0
  0
LAYER
  5
73
102
{ACAD_XDICTIONARY
360
1ACF
102
}
330
2
100
AcDbSymbolTableRecord
100
AcDbLayerTableRecord
  2
RED
 70
     4
 62
     1
  6
Continuous
370
    -3
390
F
347
21
348
0
  0
LAYER
  5
74
102
{ACAD_XDICTIONARY
360
1AD1
102
}
330
2
100
AcDbSymbolTableRecord
100
AcDbLayerTableRecord
  2
YELLOW
 70
     4
 62
     2
  6
Continuous
370
    -3
390
F
347
21
348
0
  0
LAYER
  5
75
102
{ACAD_XDICTIONARY
360
1AD3
102
}
330
2
100
AcDbSymbolTableRecord
100
AcDbLayerTableRecord
  2
GREEN
 70
     4
 62
    92
  6
Continuous
370
    -3
390
F
347
21
348
0
  0
LAYER
  5
76
102
{ACAD_XDICTIONARY
360
1AD5
102
}
330
2
100
AcDbSymbolTableRecord
100
AcDbLayerTableRecord
  2
BLUE
 70
     4
 62
     5
  6
Continuous
370
    -3
390
F
347
21
348
0
  0
LAYER
  5
77
102
{ACAD_XDICTIONARY
360
1AD7
102
}
330
2
100
AcDbSymbolTableRecord
100
AcDbLayerTableRecord
  2
WHITE
 70
     4
 62
     7
  6
Continuous
370
    -3
390
F
347
21
348
0
  0
LAYER
  5
78
102
{ACAD_XDICTIONARY
360
1AD9
102
}
330
2
100
AcDbSymbolTableRecord
100
AcDbLayerTableRecord
  2
FIX
 70
     4
 62
    -7
  6
Continuous
370
    -3
390
F
347
21
348
0
  0
LAYER
  5
9B
102
{ACAD_XDICTIONARY
360
1ADB
102
}
330
2
100
AcDbSymbolTableRecord
100
AcDbLayerTableRecord
  2
GEO_
 70
     0
 62
     7
  6
Continuous
370
    -3
390
F
347
21
348
0
  0
ENDTAB
  0
TABLE
  2
STYLE
  5
3
330
0
100
AcDbSymbolTable
 70
     2
  0
STYLE
  5
55
330
3
100
AcDbSymbolTableRecord
100
AcDbTextStyleTableRecord
  2
STANDARD
 70
     0
 40
0.006
 41
1.0
 50
0.0
 71
     0
 42
0.006
  3
arial.ttf
  4

1001
ACAD
1000
Arial
1071
       34
  0
STYLE
  5
59
330
3
100
AcDbSymbolTableRecord
100
AcDbTextStyleTableRecord
  2
Annotative
 70
     0
 40
0.0
 41
1.0
 50
0.0
 71
     0
 42
0.2
  3
txt
  4

1001
AcadAnnotative
1000
AnnotativeData
1002
{
1070
     1
1070
     1
1002
}
  0
ENDTAB
  0
TABLE
  2
VIEW
  5
6
330
0
100
AcDbSymbolTable
 70
     0
  0
ENDTAB
  0
TABLE
  2
UCS
  5
7
330
0
100
AcDbSymbolTable
 70
     0
  0
ENDTAB
  0
TABLE
  2
APPID
  5
9
330
0
100
AcDbSymbolTable
 70
     3
  0
APPID
  5
56
330
9
100
AcDbSymbolTableRecord
100
AcDbRegAppTableRecord
  2
ACAD
 70
     0
  0
APPID
  5
5D
330
9
100
AcDbSymbolTableRecord
100
AcDbRegAppTableRecord
  2
AcadAnnotative
 70
     0
  0
APPID
  5
1AC4
330
9
100
AcDbSymbolTableRecord
100
AcDbRegAppTableRecord
  2
ACAD_NAV_VCDISPLAY
 70
     0
  0
ENDTAB
  0
TABLE
  2
DIMSTYLE
  5
A
330
0
100
AcDbSymbolTable
 70
     2
100
AcDbDimStyleTable
 71
     0
  0
DIMSTYLE
105
57
330
A
100
AcDbSymbolTableRecord
100
AcDbDimStyleTableRecord
  2
Standard
 70
     0
340
55
  0
DIMSTYLE
105
58
330
A
100
AcDbSymbolTableRecord
100
AcDbDimStyleTableRecord
  2
Annotative
 70
     0
340
55
1001
AcadAnnotative
1000
AnnotativeData
1002
{
1070
     1
1070
     1
1002
}
  0
ENDTAB
  0
TABLE
  2
BLOCK_RECORD
  5
1
330
0
100
AcDbSymbolTable
 70
     4
  0
BLOCK_RECORD
  5
6F
330
1
100
AcDbSymbolTableRecord
100
AcDbBlockTableRecord
  2
*Model_Space
340
72
 70
     0
280
     1
281
     0
  0
BLOCK_RECORD
  5
6B
330
1
100
AcDbSymbolTableRecord
100
AcDbBlockTableRecord
  2
*Paper_Space
340
6E
 70
     0
280
     1
281
     0
  0
BLOCK_RECORD
  5
7C
330
1
100
AcDbSymbolTableRecord
100
AcDbBlockTableRecord
  2
AIRPORT
340
0
 70
     0
280
     1
281
     0
  0
BLOCK_RECORD
  5
80
330
1
100
AcDbSymbolTableRecord
100
AcDbBlockTableRecord
  2
FIX
340
0
 70
     0
280
     1
281
     0
  0
BLOCK_RECORD
  5
88
330
1
100
AcDbSymbolTableRecord
100
AcDbBlockTableRecord
  2
NDB
340
0
 70
     0
280
     1
281
     0
  0
BLOCK_RECORD
  5
8F
330
1
100
AcDbSymbolTableRecord
100
AcDbBlockTableRecord
  2
VOR
340
0
 70
     0
280
     1
281
     0
  0
ENDTAB
  0
ENDSEC
  0
SECTION
  2
BLOCKS
  0
BLOCK
  5
70
330
6F
100
AcDbEntity
  8
0
100
AcDbBlockBegin
  2
*Model_Space
 70
     0
 10
0.0
 20
0.0
 30
0.0
  3
*Model_Space
  1

  0
ENDBLK
  5
71
330
6F
100
AcDbEntity
  8
0
100
AcDbBlockEnd
  0
BLOCK
  5
6C
330
6B
100
AcDbEntity
 67
     1
  8
0
100
AcDbBlockBegin
  2
*Paper_Space
 70
     0
 10
0.0
 20
0.0
 30
0.0
  3
*Paper_Space
  1

  0
ENDBLK
  5
6D
330
6B
100
AcDbEntity
 67
     1
  8
0
100
AcDbBlockEnd
  0
BLOCK
  5
7D
330
7C
100
AcDbEntity
  8
0
100
AcDbBlockBegin
  2
AIRPORT
 70
     0
 10
0.0
 20
0.0
 30
0.0
  3
AIRPORT
  1

  0
CIRCLE
  5
7E
330
7C
100
AcDbEntity
  8
0
100
AcDbCircle
 10
0.0
 20
0.0
 30
0.0
 40
0.005
  0
ENDBLK
  5
7F
330
7C
100
AcDbEntity
  8
0
100
AcDbBlockEnd
  0
BLOCK
  5
81
330
80
100
AcDbEntity
  8
0
100
AcDbBlockBegin
  2
FIX
 70
     0
 10
0.0
 20
0.0
 30
0.0
  3
FIX
  1

  0
LWPOLYLINE
  5
82
330
80
100
AcDbEntity
  8
0
100
AcDbPolyline
 90
        3
 70
     1
 43
0.0
 10
-0.0050000000000061
 20
-0.0028867513459261
 10
0.0049999999999848
 20
-0.0028867513459474
 10
-0.0000000000000178
 20
0.0057735026919019
  0
ENDBLK
  5
87
330
80
100
AcDbEntity
  8
0
100
AcDbBlockEnd
  0
BLOCK
  5
89
330
88
100
AcDbEntity
  8
0
100
AcDbBlockBegin
  2
NDB
 70
     0
 10
0.0
 20
0.0
 30
0.0
  3
NDB
  1

  0
CIRCLE
  5
8A
330
88
100
AcDbEntity
  8
0
100
AcDbCircle
 10
0.0
 20
0.0
 30
0.0
 40
0.00065625
  0
CIRCLE
  5
8B
330
88
100
AcDbEntity
  8
0
100
AcDbCircle
 10
0.0
 20
0.0
 30
0.0
 40
0.002625
  0
CIRCLE
  5
8C
330
88
100
AcDbEntity
  8
0
100
AcDbCircle
 10
0.0
 20
0.0
 30
0.0
 40
0.00525
  0
CIRCLE
  5
8D
330
88
100
AcDbEntity
  8
0
100
AcDbCircle
 10
0.0
 20
0.0
 30
0.0
 40
0.007875
  0
ENDBLK
  5
8E
330
88
100
AcDbEntity
  8
0
100
AcDbBlockEnd
  0
BLOCK
  5
90
330
8F
100
AcDbEntity
  8
0
100
AcDbBlockBegin
  2
VOR
 70
     0
 10
0.0
 20
0.0
 30
0.0
  3
VOR
  1

  0
LWPOLYLINE
  5
91
330
8F
100
AcDbEntity
  8
0
100
AcDbPolyline
 90
        6
 70
     1
 43
0.0
 10
-0.0044997172835375
 20
0.0077937389547813
 10
-0.0089994345670776
 20
0.0
 10
-0.0044997172835393
 20
-0.0077937389547884
 10
0.0044997172835375
 20
-0.0077937389547884
 10
0.0089994345670776
 20
0.0
 10
0.0044997172835393
 20
0.0077937389547813
  0
CIRCLE
  5
99
330
8F
100
AcDbEntity
  8
0
100
AcDbCircle
 10
0.0
 20
0.0
 30
0.0
 40
0.0015111425556361
  0
ENDBLK
  5
9A
330
8F
100
AcDbEntity
  8
0
100
AcDbBlockEnd
  0
ENDSEC
  0
SECTION
  2
ENTITIES
  0
LINE
  5
201
330
6F
100
AcDbEntity
  8
GEO_
 62
     7
420
 16777215
100
AcDbLine
 10
-83.2513083333333
 20
45.97529814958241
 30
0.0
 11
-83.221875
 21
45.77219184132918
 31
0.0
  0
LINE
  5
202
330
6F
100
AcDbEntity
  8
GEO_
 62
     7
420
 16777215
100
AcDbLine
 10
-83.221875
 20
45.77219184132918
 30
0.0
 11
-83.24555555555557
 21
45.57343985372417
 31
0.0
  0
LINE
  5
203
330
6F
100
AcDbEntity
  8
GEO_
 62
     7
420
 16777215
100
AcDbLine
 10
-83.24555555555557
 20
45.57343985372417
 30
0.0
 11
-83.25435555555555
 21
45.54334426320163
 31
0.0
  0
LINE
  5
204
330
6F
100
AcDbEntity
  8
GEO_
 62
     7
420
 16777215
100
AcDbLine
 10
-83.25435555555555
 20
45.54334426320163
 30
0.0
 11
-83.34583333333332
 21
45.2311436297901
 31
0.0
  0
LINE
  5
205
330
6F
100
AcDbEntity
  8
GEO_
 62
     7
420
 16777215
100
AcDbLine
 10
-83.34583333333332
 20
45.2311436297901
 30
0.0
 11
-83.65000000000001
 21
44.67950493102619
 31
0.0
  0
LINE
  5
206
330
6F
100
AcDbEntity
  8
GEO_
 62
     7
420
 16777215
100
AcDbLine
 10
-83.65000000000001
 20
44.67950493102619
 30
0.0
 11
-83.74583333333333
 21
44.74001527555774
 31
0.0
  0
LINE
  5
207
330
6F
100
AcDbEntity
  8
GEO_
 62
     7
420
 16777215
100
AcDbLine
 10
-83.74583333333333
 20
44.74001527555774
 30
0.0
 11
-84.3472222222222
 21
44.84536617759188
 31
0.0
  0
LINE
  5
208
330
6F
100
AcDbEntity
  8
GEO_
 62
     7
420
 16777215
100
AcDbLine
 10
-84.3472222222222
 20
44.84536617759188
 30
0.0
 11
-84.7
 21
44.9052560815029
 31
0.0
  0
LINE
  5
209
330
6F
100
AcDbEntity
  8
GEO_
 62
     7
420
 16777215
100
AcDbLine
 10
-84.7
 20
44.9052560815029
 30
0.0
 11
-84.70916388888891
 21
45.23716466808155
 31
0.0
  0
LINE
  5
20A
330
6F
100
AcDbEntity
  8
GEO_
 62
     7
420
 16777215
100
AcDbLine
 10
-84.70916388888891
 20
45.23716466808155
 30
0.0
 11
-84.57338055555554
 21
45.31936840898029
 31
0.0
  0
LINE
  5
20B
330
6F
100
AcDbEntity
  8
GEO_
 62
     7
420
 16777215
100
AcDbLine
 10
-84.57338055555554
 20
45.31936840898029
 30
0.0
 11
-84.09722222222219
 21
45.6082626153204
 31
0.0
  0
LINE
  5
20C
330
6F
100
AcDbEntity
  8
GEO_
 62
     7
420
 16777215
100
AcDbLine
 10
-84.09722222222219
 20
45.6082626153204
 30
0.0
 11
-83.89696944444445
 21
45.95438078503631
 31
0.0
  0
LINE
  5
20D
330
6F
100
AcDbEntity
  8
GEO_
 62
     7
420
 16777215
100
AcDbLine
 10
-83.2513083333333
 20
45.97529814958241
 30
0.0
 11
-83.221875
 21
45.77219184132918
 31
0.0
  0
LINE
  5
20E
330
6F
100
AcDbEntity
  8
GEO_
 62
     7
420
 16777215
100
AcDbLine
 10
-83.221875
 20
45.77219184132918
 30
0.0
 11
-83.24555555555557
 21
45.57343985372417
 31
0.0
  0
LINE
  5
20F
330
6F
100
AcDbEntity
  8
GEO_
 62
     7
420
 16777215
100
AcDbLine
 10
-83.24555555555557
 20
45.57343985372417
 30
0.0
 11
-83.25435555555555
 21
45.54334426320163
 31
0.0
  0
LINE
  5
210
330
6F
100
AcDbEntity
  8
GEO_
 62
     7
420
 16777215
100
AcDbLine
 10
-83.25435555555555
 20
45.54334426320163
 30
0.0
 11
-83.34583333333332
 21
45.2311436297901
 31
0.0
  0
LINE
  5
211
330
6F
100
AcDbEntity
  8
GEO_
 62
     7
420
 16777215
100
AcDbLine
 10
-83.34583333333332
 20
45.2311436297901
 30
0.0
 11
-83.65000000000001
 21
44.67950493102619
 31
0.0
  0
LINE
  5
212
330
6F
100
AcDbEntity
  8
GEO_
 62
     7
420
 16777215
100
AcDbLine
 10
-83.65000000000001
 20
44.67950493102619
 30
0.0
 11
-83.74583333333333
 21
44.74001527555774
 31
0.0
  0
LINE
  5
213
330
6F
100
AcDbEntity
  8
GEO_
 62
     7
420
 16777215
100
AcDbLine
 10
-83.74583333333333
 20
44.74001527555774
 30
0.0
 11
-84.3472222222222
 21
44.84536617759188
 31
0.0
  0
LINE
  5
214
330
6F
100
AcDbEntity
  8
GEO_
 62
     7
420
 16777215
100
AcDbLine
 10
-84.3472222222222
 20
44.84536617759188
 30
0.0
 11
-84.7
 21
44.9052560815029
 31
0.0
  0
LINE
  5
215
330
6F
100
AcDbEntity
  8
GEO_
 62
     7
420
 16777215
100
AcDbLine
 10
-84.7
 20
44.9052560815029
 30
0.0
 11
-84.70916388888891
 21
45.23716466808155
 31
0.0
  0
LINE
  5
216
330
6F
100
AcDbEntity
  8
GEO_
 62
     7
420
 16777215
100
AcDbLine
 10
-84.70916388888891
 20
45.23716466808155
 30
0.0
 11
-84.57338055555554
 21
45.31936840898029
 31
0.0
  0
LINE
  5
217
330
6F
100
AcDbEntity
  8
GEO_
 62
     7
420
 16777215
100
AcDbLine
 10
-84.57338055555554
 20
45.31936840898029
 30
0.0
 11
-84.09722222222219
 21
45.6082626153204
 31
0.0
  0
LINE
  5
218
330
6F
100
AcDbEntity
  8
GEO_
 62
     7
420
 16777215
100
AcDbLine
 10
-84.09722222222219
 20
45.6082626153204
 30
0.0
 11
-83.89696944444445
 21
45.95438078503631
 31
0.0
  0
LINE
  5
21A
330
6F
100
AcDbEntity
  8
GEO_
 62
     7
420
 16777215
100
AcDbLine
 10
-83.2513083333333
 20
45.97529814958241
 30
0.0
 11
-83.2513083333333
 21
45.97529814958241
 31
0.0
  0
LINE
  5
21C
330
6F
100
AcDbEntity
  8
GEO_
 62
     7
420
 16777215
100
AcDbLine
 10
-83.2513083333333
 20
45.97529814958241
 30
0.0
 11
-83.221875
 21
45.77219184132918
 31
0.0
  0
LINE
  5
21D
330
6F
100
AcDbEntity
  8
GEO_
 62
     7
420
 16777215
100
AcDbLine
 10
-83.221875
 20
45.77219184132918
 30
0.0
 11
-83.221875
 21
45.77219184132918
 31
0.0
  0
LINE
  5
21E
330
6F
100
AcDbEntity
  8
GEO_
 62
     7
420
 16777215
100
AcDbLine
 10
-83.221875
 20
45.77219184132918
 30
0.0
 11
-83.2513083333333
 21
45.97529814958241
 31
0.0
  0
LINE
  5
21F
330
6F
100
AcDbEntity
  8
GEO_
 62
     7
420
 16777215
100
AcDbLine
 10
-83.221875
 20
45.77219184132918
 30
0.0
 11
-83.24555555555557
 21
45.57343985372417
 31
0.0
  0
LINE
  5
220
330
6F
100
AcDbEntity
  8
GEO_
 62
     7
420
 16777215
100
AcDbLine
 10
-83.24555555555557
 20
45.57343985372417
 30
0.0
 11
-83.24555555555557
 21
45.57343985372417
 31
0.0
  0
LINE
  5
221
330
6F
100
AcDbEntity
  8
GEO_
 62
     7
420
 16777215
100
AcDbLine
 10
-83.24555555555557
 20
45.57343985372417
 30
0.0
 11
-83.221875
 21
45.77219184132918
 31
0.0
  0
LINE
  5
222
330
6F
100
AcDbEntity
  8
GEO_
 62
     7
420
 16777215
100
AcDbLine
 10
-83.24555555555557
 20
45.57343985372417
 30
0.0
 11
-83.25435555555555
 21
45.54334426320163
 31
0.0
  0
LINE
  5
223
330
6F
100
AcDbEntity
  8
GEO_
 62
     7
420
 16777215
100
AcDbLine
 10
-83.25435555555555
 20
45.54334426320163
 30
0.0
 11
-83.25435555555555
 21
45.54334426320163
 31
0.0
  0
LINE
  5
224
330
6F
100
AcDbEntity
  8
GEO_
 62
     7
420
 16777215
100
AcDbLine
 10
-83.25435555555555
 20
45.54334426320163
 30
0.0
 11
-83.24555555555557
 21
45.57343985372417
 31
0.0
  0
LINE
  5
225
330
6F
100
AcDbEntity
  8
GEO_
 62
     7
420
 16777215
100
AcDbLine
 10
-83.25435555555555
 20
45.54334426320163
 30
0.0
 11
-83.34583333333332
 21
45.2311436297901
 31
0.0
  0
LINE
  5
226
330
6F
100
AcDbEntity
  8
GEO_
 62
     7
420
 16777215
100
AcDbLine
 10
-83.34583333333332
 20
45.2311436297901
 30
0.0
 11
-83.34583333333332
 21
45.2311436297901
 31
0.0
  0
LINE
  5
227
330
6F
100
AcDbEntity
  8
GEO_
 62
     7
420
 16777215
100
AcDbLine
 10
-83.34583333333332
 20
45.2311436297901
 30
0.0
 11
-83.25435555555555
 21
45.54334426320163
 31
0.0
  0
LINE
  5
228
330
6F
100
AcDbEntity
  8
GEO_
 62
     7
420
 16777215
100
AcDbLine
 10
-83.34583333333332
 20
45.2311436297901
 30
0.0
 11
-83.65000000000001
 21
44.67950493102619
 31
0.0
  0
LINE
  5
229
330
6F
100
AcDbEntity
  8
GEO_
 62
     7
420
 16777215
100
AcDbLine
 10
-83.65000000000001
 20
44.67950493102619
 30
0.0
 11
-83.65000000000001
 21
44.67950493102619
 31
0.0
  0
LINE
  5
22A
330
6F
100
AcDbEntity
  8
GEO_
 62
     7
420
 16777215
100
AcDbLine
 10
-83.65000000000001
 20
44.67950493102619
 30
0.0
 11
-83.34583333333332
 21
45.2311436297901
 31
0.0
  0
LINE
  5
22B
330
6F
100
AcDbEntity
  8
GEO_
 62
     7
420
 16777215
100
AcDbLine
 10
-83.65000000000001
 20
44.67950493102619
 30
0.0
 11
-83.74583333333333
 21
44.74001527555774
 31
0.0
  0
LINE
  5
22C
330
6F
100
AcDbEntity
  8
GEO_
 62
     7
420
 16777215
100
AcDbLine
 10
-83.74583333333333
 20
44.74001527555774
 30
0.0
 11
-83.74583333333333
 21
44.74001527555774
 31
0.0
  0
LINE
  5
22D
330
6F
100
AcDbEntity
  8
GEO_
 62
     7
420
 16777215
100
AcDbLine
 10
-83.74583333333333
 20
44.74001527555774
 30
0.0
 11
-83.65000000000001
 21
44.67950493102619
 31
0.0
  0
LINE
  5
22E
330
6F
100
AcDbEntity
  8
GEO_
 62
     7
420
 16777215
100
AcDbLine
 10
-83.74583333333333
 20
44.74001527555774
 30
0.0
 11
-84.3472222222222
 21
44.84536617759188
 31
0.0
  0
LINE
  5
22F
330
6F
100
AcDbEntity
  8
GEO_
 62
     7
420
 16777215
100
AcDbLine
 10
-84.3472222222222
 20
44.84536617759188
 30
0.0
 11
-84.3472222222222
 21
44.84536617759188
 31
0.0
  0
LINE
  5
230
330
6F
100
AcDbEntity
  8
GEO_
 62
     7
420
 16777215
100
AcDbLine
 10
-84.3472222222222
 20
44.84536617759188
 30
0.0
 11
-83.74583333333333
 21
44.74001527555774
 31
0.0
  0
LINE
  5
231
330
6F
100
AcDbEntity
  8
GEO_
 62
     7
420
 16777215
100
AcDbLine
 10
-84.3472222222222
 20
44.84536617759188
 30
0.0
 11
-84.7
 21
44.9052560815029
 31
0.0
  0
LINE
  5
232
330
6F
100
AcDbEntity
  8
GEO_
 62
     7
420
 16777215
100
AcDbLine
 10
-84.7
 20
44.9052560815029
 30
0.0
 11
-84.7
 21
44.9052560815029
 31
0.0
  0
LINE
  5
233
330
6F
100
AcDbEntity
  8
GEO_
 62
     7
420
 16777215
100
AcDbLine
 10
-84.7
 20
44.9052560815029
 30
0.0
 11
-84.3472222222222
 21
44.84536617759188
 31
0.0
  0
LINE
  5
234
330
6F
100
AcDbEntity
  8
GEO_
 62
     7
420
 16777215
100
AcDbLine
 10
-84.7
 20
44.9052560815029
 30
0.0
 11
-84.70916388888891
 21
45.23716466808155
 31
0.0
  0
LINE
  5
235
330
6F
100
AcDbEntity
  8
GEO_
 62
     7
420
 16777215
100
AcDbLine
 10
-84.70916388888891
 20
45.23716466808155
 30
0.0
 11
-84.70916388888891
 21
45.23716466808155
 31
0.0
  0
LINE
  5
236
330
6F
100
AcDbEntity
  8
GEO_
 62
     7
420
 16777215
100
AcDbLine
 10
-84.70916388888891
 20
45.23716466808155
 30
0.0
 11
-84.7
 21
44.9052560815029
 31
0.0
  0
LINE
  5
237
330
6F
100
AcDbEntity
  8
GEO_
 62
     7
420
 16777215
100
AcDbLine
 10
-84.70916388888891
 20
45.23716466808155
 30
0.0
 11
-84.57338055555554
 21
45.31936840898029
 31
0.0
  0
LINE
  5
238
330
6F
100
AcDbEntity
  8
GEO_
 62
     7
420
 16777215
100
AcDbLine
 10
-84.57338055555554
 20
45.31936840898029
 30
0.0
 11
-84.57338055555554
 21
45.31936840898029
 31
0.0
  0
LINE
  5
239
330
6F
100
AcDbEntity
  8
GEO_
 62
     7
420
 16777215
100
AcDbLine
 10
-84.57338055555554
 20
45.31936840898029
 30
0.0
 11
-84.70916388888891
 21
45.23716466808155
 31
0.0
  0
LINE
  5
23A
330
6F
100
AcDbEntity
  8
GEO_
 62
     7
420
 16777215
100
AcDbLine
 10
-84.57338055555554
 20
45.31936840898029
 30
0.0
 11
-84.09722222222219
 21
45.6082626153204
 31
0.0
  0
LINE
  5
23B
330
6F
100
AcDbEntity
  8
GEO_
 62
     7
420
 16777215
100
AcDbLine
 10
-84.09722222222219
 20
45.6082626153204
 30
0.0
 11
-84.09722222222219
 21
45.6082626153204
 31
0.0
  0
LINE
  5
23C
330
6F
100
AcDbEntity
  8
GEO_
 62
     7
420
 16777215
100
AcDbLine
 10
-84.09722222222219
 20
45.6082626153204
 30
0.0
 11
-84.57338055555554
 21
45.31936840898029
 31
0.0
  0
LINE
  5
23D
330
6F
100
AcDbEntity
  8
GEO_
 62
     7
420
 16777215
100
AcDbLine
 10
-84.09722222222219
 20
45.6082626153204
 30
0.0
 11
-83.89696944444445
 21
45.95438078503631
 31
0.0
  0
LINE
  5
23E
330
6F
100
AcDbEntity
  8
GEO_
 62
     7
420
 16777215
100
AcDbLine
 10
-83.89696944444445
 20
45.95438078503631
 30
0.0
 11
-83.89696944444445
 21
45.95438078503631
 31
0.0
  0
LINE
  5
23F
330
6F
100
AcDbEntity
  8
GEO_
 62
     7
420
 16777215
100
AcDbLine
 10
-83.89696944444445
 20
45.95438078503631
 30
0.0
 11
-84.09722222222219
 21
45.6082626153204
 31
0.0
  0
LINE
  5
240
330
6F
100
AcDbEntity
  8
GEO_
 62
     7
420
 16777215
100
AcDbLine
 10
-83.38852777777779
 20
46.62586874796057
 30
0.0
 11
-83.13023055555554
 21
46.6037986918675
 31
0.0
  0
LINE
  5
241
330
6F
100
AcDbEntity
  8
GEO_
 62
     7
420
 16777215
100
AcDbLine
 10
-83.13023055555554
 20
46.6037986918675
 30
0.0
 11
-83.12534722222222
 21
46.45482984295484
 31
0.0
  0
LINE
  5
242
330
6F
100
AcDbEntity
  8
GEO_
 62
     7
420
 16777215
100
AcDbLine
 10
-83.12534722222222
 20
46.45482984295484
 30
0.0
 11
-83.19751944444446
 21
46.28672039255386
 31
0.0
  0
LINE
  5
243
330
6F
100
AcDbEntity
  8
GEO_
 62
     7
420
 16777215
100
AcDbLine
 10
-83.19751944444446
 20
46.28672039255386
 30
0.0
 11
-83.22888888888888
 21
46.10495630047274
 31
0.0
  0
LINE
  5
244
330
6F
100
AcDbEntity
  8
GEO_
 62
     7
420
 16777215
100
AcDbLine
 10
-83.22888888888888
 20
46.10495630047274
 30
0.0
 11
-83.2513083333333
 21
45.97529814958241
 31
0.0
  0
LINE
  5
245
330
6F
100
AcDbEntity
  8
GEO_
 62
     7
420
 16777215
100
AcDbLine
 10
-83.2513083333333
 20
45.97529814958241
 30
0.0
 11
-83.221875
 21
45.77219184132918
 31
0.0
  0
LINE
  5
246
330
6F
100
AcDbEntity
  8
GEO_
 62
     7
420
 16777215
100
AcDbLine
 10
-83.221875
 20
45.77219184132918
 30
0.0
 11
-83.24555555555557
 21
45.57343985372417
 31
0.0
  0
LINE
  5
247
330
6F
100
AcDbEntity
  8
GEO_
 62
     7
420
 16777215
100
AcDbLine
 10
-83.24555555555557
 20
45.57343985372417
 30
0.0
 11
-83.25435555555555
 21
45.54334426320163
 31
0.0
  0
LINE
  5
248
330
6F
100
AcDbEntity
  8
GEO_
 62
     7
420
 16777215
100
AcDbLine
 10
-83.25435555555555
 20
45.54334426320163
 30
0.0
 11
-83.34583333333332
 21
45.2311436297901
 31
0.0
  0
LINE
  5
249
330
6F
100
AcDbEntity
  8
GEO_
 62
     7
420
 16777215
100
AcDbLine
 10
-83.34583333333332
 20
45.2311436297901
 30
0.0
 11
-83.65000000000001
 21
44.67950493102619
 31
0.0
  0
LINE
  5
24A
330
6F
100
AcDbEntity
  8
GEO_
 62
     7
420
 16777215
100
AcDbLine
 10
-83.65000000000001
 20
44.67950493102619
 30
0.0
 11
-83.74583333333333
 21
44.74001527555774
 31
0.0
  0
LINE
  5
24B
330
6F
100
AcDbEntity
  8
GEO_
 62
     7
420
 16777215
100
AcDbLine
 10
-83.74583333333333
 20
44.74001527555774
 30
0.0
 11
-84.3472222222222
 21
44.84536617759188
 31
0.0
  0
LINE
  5
24C
330
6F
100
AcDbEntity
  8
GEO_
 62
     7
420
 16777215
100
AcDbLine
 10
-84.3472222222222
 20
44.84536617759188
 30
0.0
 11
-84.7
 21
44.9052560815029
 31
0.0
  0
LINE
  5
24D
330
6F
100
AcDbEntity
  8
GEO_
 62
     7
420
 16777215
100
AcDbLine
 10
-84.7
 20
44.9052560815029
 30
0.0
 11
-84.70916388888891
 21
45.23716466808155
 31
0.0
  0
LINE
  5
24E
330
6F
100
AcDbEntity
  8
GEO_
 62
     7
420
 16777215
100
AcDbLine
 10
-84.70916388888891
 20
45.23716466808155
 30
0.0
 11
-84.57338055555554
 21
45.31936840898029
 31
0.0
  0
LINE
  5
24F
330
6F
100
AcDbEntity
  8
GEO_
 62
     7
420
 16777215
100
AcDbLine
 10
-84.57338055555554
 20
45.31936840898029
 30
0.0
 11
-84.09722222222219
 21
45.6082626153204
 31
0.0
  0
LINE
  5
250
330
6F
100
AcDbEntity
  8
GEO_
 62
     7
420
 16777215
100
AcDbLine
 10
-84.09722222222219
 20
45.6082626153204
 30
0.0
 11
-83.89696944444445
 21
45.95438078503631
 31
0.0
  0
LINE
  5
251
330
6F
100
AcDbEntity
  8
GEO_
 62
     7
420
 16777215
100
AcDbLine
 10
-83.89696944444445
 20
45.95438078503631
 30
0.0
 11
-83.84829999999999
 21
46.08429800632882
 31
0.0
  0
LINE
  5
252
330
6F
100
AcDbEntity
  8
GEO_
 62
     7
420
 16777215
100
AcDbLine
 10
-83.84829999999999
 20
46.08429800632882
 30
0.0
 11
-83.8326583333333
 21
46.17486019316203
 31
0.0
  0
LINE
  5
253
330
6F
100
AcDbEntity
  8
GEO_
 62
     7
420
 16777215
100
AcDbLine
 10
-83.8326583333333
 20
46.17486019316203
 30
0.0
 11
-83.78316666666666
 21
46.44717419338787
 31
0.0
  0
LINE
  5
254
330
6F
100
AcDbEntity
  8
GEO_
 62
     7
420
 16777215
100
AcDbLine
 10
-83.78316666666666
 20
46.44717419338787
 30
0.0
 11
-83.74508055555557
 21
46.65665339700722
 31
0.0
  0
LINE
  5
255
330
6F
100
AcDbEntity
  8
GEO_
 62
     7
420
 16777215
100
AcDbLine
 10
-83.38852777777779
 20
46.62586874796057
 30
0.0
 11
-83.13023055555554
 21
46.6037986918675
 31
0.0
  0
LINE
  5
256
330
6F
100
AcDbEntity
  8
GEO_
 62
     7
420
 16777215
100
AcDbLine
 10
-83.13023055555554
 20
46.6037986918675
 30
0.0
 11
-83.12534722222222
 21
46.45482984295484
 31
0.0
  0
LINE
  5
257
330
6F
100
AcDbEntity
  8
GEO_
 62
     7
420
 16777215
100
AcDbLine
 10
-83.12534722222222
 20
46.45482984295484
 30
0.0
 11
-83.19751944444446
 21
46.28672039255386
 31
0.0
  0
LINE
  5
258
330
6F
100
AcDbEntity
  8
GEO_
 62
     7
420
 16777215
100
AcDbLine
 10
-83.19751944444446
 20
46.28672039255386
 30
0.0
 11
-83.22888888888888
 21
46.10495630047274
 31
0.0
  0
LINE
  5
259
330
6F
100
AcDbEntity
  8
GEO_
 62
     7
420
 16777215
100
AcDbLine
 10
-83.22888888888888
 20
46.10495630047274
 30
0.0
 11
-83.2513083333333
 21
45.97529814958241
 31
0.0
  0
LINE
  5
25A
330
6F
100
AcDbEntity
  8
GEO_
 62
     7
420
 16777215
100
AcDbLine
 10
-83.2513083333333
 20
45.97529814958241
 30
0.0
 11
-83.221875
 21
45.77219184132918
 31
0.0
  0
LINE
  5
25B
330
6F
100
AcDbEntity
  8
GEO_
 62
     7
420
 16777215
100
AcDbLine
 10
-83.221875
 20
45.77219184132918
 30
0.0
 11
-83.24555555555557
 21
45.57343985372417
 31
0.0
  0
LINE
  5
25C
330
6F
100
AcDbEntity
  8
GEO_
 62
     7
420
 16777215
100
AcDbLine
 10
-83.24555555555557
 20
45.57343985372417
 30
0.0
 11
-83.25435555555555
 21
45.54334426320163
 31
0.0
  0
LINE
  5
25D
330
6F
100
AcDbEntity
  8
GEO_
 62
     7
420
 16777215
100
AcDbLine
 10
-83.25435555555555
 20
45.54334426320163
 30
0.0
 11
-83.34583333333332
 21
45.2311436297901
 31
0.0
  0
LINE
  5
25E
330
6F
100
AcDbEntity
  8
GEO_
 62
     7
420
 16777215
100
AcDbLine
 10
-83.34583333333332
 20
45.2311436297901
 30
0.0
 11
-83.65000000000001
 21
44.67950493102619
 31
0.0
  0
LINE
  5
25F
330
6F
100
AcDbEntity
  8
GEO_
 62
     7
420
 16777215
100
AcDbLine
 10
-83.65000000000001
 20
44.67950493102619
 30
0.0
 11
-83.74583333333333
 21
44.74001527555774
 31
0.0
  0
LINE
  5
260
330
6F
100
AcDbEntity
  8
GEO_
 62
     7
420
 16777215
100
AcDbLine
 10
-83.74583333333333
 20
44.74001527555774
 30
0.0
 11
-84.3472222222222
 21
44.84536617759188
 31
0.0
  0
LINE
  5
261
330
6F
100
AcDbEntity
  8
GEO_
 62
     7
420
 16777215
100
AcDbLine
 10
-84.3472222222222
 20
44.84536617759188
 30
0.0
 11
-84.7
 21
44.9052560815029
 31
0.0
  0
LINE
  5
262
330
6F
100
AcDbEntity
  8
GEO_
 62
     7
420
 16777215
100
AcDbLine
 10
-84.7
 20
44.9052560815029
 30
0.0
 11
-84.70916388888891
 21
45.23716466808155
 31
0.0
  0
LINE
  5
263
330
6F
100
AcDbEntity
  8
GEO_
 62
     7
420
 16777215
100
AcDbLine
 10
-84.70916388888891
 20
45.23716466808155
 30
0.0
 11
-84.57338055555554
 21
45.31936840898029
 31
0.0
  0
LINE
  5
264
330
6F
100
AcDbEntity
  8
GEO_
 62
     7
420
 16777215
100
AcDbLine
 10
-84.57338055555554
 20
45.31936840898029
 30
0.0
 11
-84.09722222222219
 21
45.6082626153204
 31
0.0
  0
LINE
  5
265
330
6F
100
AcDbEntity
  8
GEO_
 62
     7
420
 16777215
100
AcDbLine
 10
-84.09722222222219
 20
45.6082626153204
 30
0.0
 11
-83.89696944444445
 21
45.95438078503631
 31
0.0
  0
LINE
  5
266
330
6F
100
AcDbEntity
  8
GEO_
 62
     7
420
 16777215
100
AcDbLine
 10
-83.89696944444445
 20
45.95438078503631
 30
0.0
 11
-83.84829999999999
 21
46.08429800632882
 31
0.0
  0
LINE
  5
267
330
6F
100
AcDbEntity
  8
GEO_
 62
     7
420
 16777215
100
AcDbLine
 10
-83.84829999999999
 20
46.08429800632882
 30
0.0
 11
-83.8326583333333
 21
46.17486019316203
 31
0.0
  0
LINE
  5
268
330
6F
100
AcDbEntity
  8
GEO_
 62
     7
420
 16777215
100
AcDbLine
 10
-83.8326583333333
 20
46.17486019316203
 30
0.0
 11
-83.78316666666666
 21
46.44717419338787
 31
0.0
  0
LINE
  5
269
330
6F
100
AcDbEntity
  8
GEO_
 62
     7
420
 16777215
100
AcDbLine
 10
-83.78316666666666
 20
46.44717419338787
 30
0.0
 11
-83.74508055555557
 21
46.65665339700722
 31
0.0
  0
LINE
  5
26A
330
6F
100
AcDbEntity
  8
GEO_
 62
     7
420
 16777215
100
AcDbLine
 10
-83.74508055555557
 20
46.65665339700722
 30
0.0
 11
-83.38852777777779
 21
46.62586874796057
 31
0.0
  0
LINE
  5
26B
330
6F
100
AcDbEntity
  8
GEO_
 62
     7
420
 16777215
100
AcDbLine
 10
-83.38852777777779
 20
46.62586874796057
 30
0.0
 11
-83.38852777777779
 21
46.62586874796057
 31
0.0
  0
LINE
  5
26C
330
6F
100
AcDbEntity
  8
GEO_
 62
     7
420
 16777215
100
AcDbLine
 10
-83.38852777777779
 20
46.62586874796057
 30
0.0
 11
-83.74508055555557
 21
46.65665339700722
 31
0.0
  0
LINE
  5
26D
330
6F
100
AcDbEntity
  8
GEO_
 62
     7
420
 16777215
100
AcDbLine
 10
-83.38852777777779
 20
46.62586874796057
 30
0.0
 11
-83.13023055555554
 21
46.6037986918675
 31
0.0
  0
LINE
  5
26E
330
6F
100
AcDbEntity
  8
GEO_
 62
     7
420
 16777215
100
AcDbLine
 10
-83.13023055555554
 20
46.6037986918675
 30
0.0
 11
-83.13023055555554
 21
46.6037986918675
 31
0.0
  0
LINE
  5
26F
330
6F
100
AcDbEntity
  8
GEO_
 62
     7
420
 16777215
100
AcDbLine
 10
-83.13023055555554
 20
46.6037986918675
 30
0.0
 11
-83.38852777777779
 21
46.62586874796057
 31
0.0
  0
LINE
  5
270
330
6F
100
AcDbEntity
  8
GEO_
 62
     7
420
 16777215
100
AcDbLine
 10
-83.13023055555554
 20
46.6037986918675
 30
0.0
 11
-83.12534722222222
 21
46.45482984295484
 31
0.0
  0
LINE
  5
271
330
6F
100
AcDbEntity
  8
GEO_
 62
     7
420
 16777215
100
AcDbLine
 10
-83.12534722222222
 20
46.45482984295484
 30
0.0
 11
-83.12534722222222
 21
46.45482984295484
 31
0.0
  0
LINE
  5
272
330
6F
100
AcDbEntity
  8
GEO_
 62
     7
420
 16777215
100
AcDbLine
 10
-83.12534722222222
 20
46.45482984295484
 30
0.0
 11
-83.13023055555554
 21
46.6037986918675
 31
0.0
  0
LINE
  5
273
330
6F
100
AcDbEntity
  8
GEO_
 62
     7
420
 16777215
100
AcDbLine
 10
-83.12534722222222
 20
46.45482984295484
 30
0.0
 11
-83.19751944444446
 21
46.28672039255386
 31
0.0
  0
LINE
  5
274
330
6F
100
AcDbEntity
  8
GEO_
 62
     7
420
 16777215
100
AcDbLine
 10
-83.19751944444446
 20
46.28672039255386
 30
0.0
 11
-83.19751944444446
 21
46.28672039255386
 31
0.0
  0
LINE
  5
275
330
6F
100
AcDbEntity
  8
GEO_
 62
     7
420
 16777215
100
AcDbLine
 10
-83.19751944444446
 20
46.28672039255386
 30
0.0
 11
-83.12534722222222
 21
46.45482984295484
 31
0.0
  0
LINE
  5
276
330
6F
100
AcDbEntity
  8
GEO_
 62
     7
420
 16777215
100
AcDbLine
 10
-83.19751944444446
 20
46.28672039255386
 30
0.0
 11
-83.22888888888888
 21
46.10495630047274
 31
0.0
  0
LINE
  5
277
330
6F
100
AcDbEntity
  8
GEO_
 62
     7
420
 16777215
100
AcDbLine
 10
-83.22888888888888
 20
46.10495630047274
 30
0.0
 11
-83.22888888888888
 21
46.10495630047274
 31
0.0
  0
LINE
  5
278
330
6F
100
AcDbEntity
  8
GEO_
 62
     7
420
 16777215
100
AcDbLine
 10
-83.22888888888888
 20
46.10495630047274
 30
0.0
 11
-83.19751944444446
 21
46.28672039255386
 31
0.0
  0
LINE
  5
279
330
6F
100
AcDbEntity
  8
GEO_
 62
     7
420
 16777215
100
AcDbLine
 10
-83.22888888888888
 20
46.10495630047274
 30
0.0
 11
-83.2513083333333
 21
45.97529814958241
 31
0.0
  0
LINE
  5
27A
330
6F
100
AcDbEntity
  8
GEO_
 62
     7
420
 16777215
100
AcDbLine
 10
-83.2513083333333
 20
45.97529814958241
 30
0.0
 11
-83.2513083333333
 21
45.97529814958241
 31
0.0
  0
LINE
  5
27B
330
6F
100
AcDbEntity
  8
GEO_
 62
     7
420
 16777215
100
AcDbLine
 10
-83.2513083333333
 20
45.97529814958241
 30
0.0
 11
-83.22888888888888
 21
46.10495630047274
 31
0.0
  0
LINE
  5
27C
330
6F
100
AcDbEntity
  8
GEO_
 62
     7
420
 16777215
100
AcDbLine
 10
-83.2513083333333
 20
45.97529814958241
 30
0.0
 11
-83.221875
 21
45.77219184132918
 31
0.0
  0
LINE
  5
27D
330
6F
100
AcDbEntity
  8
GEO_
 62
     7
420
 16777215
100
AcDbLine
 10
-83.221875
 20
45.77219184132918
 30
0.0
 11
-83.221875
 21
45.77219184132918
 31
0.0
  0
LINE
  5
27E
330
6F
100
AcDbEntity
  8
GEO_
 62
     7
420
 16777215
100
AcDbLine
 10
-83.221875
 20
45.77219184132918
 30
0.0
 11
-83.2513083333333
 21
45.97529814958241
 31
0.0
  0
LINE
  5
27F
330
6F
100
AcDbEntity
  8
GEO_
 62
     7
420
 16777215
100
AcDbLine
 10
-83.221875
 20
45.77219184132918
 30
0.0
 11
-83.24555555555557
 21
45.57343985372417
 31
0.0
  0
LINE
  5
280
330
6F
100
AcDbEntity
  8
GEO_
 62
     7
420
 16777215
100
AcDbLine
 10
-83.24555555555557
 20
45.57343985372417
 30
0.0
 11
-83.24555555555557
 21
45.57343985372417
 31
0.0
  0
LINE
  5
281
330
6F
100
AcDbEntity
  8
GEO_
 62
     7
420
 16777215
100
AcDbLine
 10
-83.24555555555557
 20
45.57343985372417
 30
0.0
 11
-83.221875
 21
45.77219184132918
 31
0.0
  0
LINE
  5
282
330
6F
100
AcDbEntity
  8
GEO_
 62
     7
420
 16777215
100
AcDbLine
 10
-83.24555555555557
 20
45.57343985372417
 30
0.0
 11
-83.25435555555555
 21
45.54334426320163
 31
0.0
  0
LINE
  5
283
330
6F
100
AcDbEntity
  8
GEO_
 62
     7
420
 16777215
100
AcDbLine
 10
-83.25435555555555
 20
45.54334426320163
 30
0.0
 11
-83.25435555555555
 21
45.54334426320163
 31
0.0
  0
LINE
  5
284
330
6F
100
AcDbEntity
  8
GEO_
 62
     7
420
 16777215
100
AcDbLine
 10
-83.25435555555555
 20
45.54334426320163
 30
0.0
 11
-83.24555555555557
 21
45.57343985372417
 31
0.0
  0
LINE
  5
285
330
6F
100
AcDbEntity
  8
GEO_
 62
     7
420
 16777215
100
AcDbLine
 10
-83.25435555555555
 20
45.54334426320163
 30
0.0
 11
-83.34583333333332
 21
45.2311436297901
 31
0.0
  0
LINE
  5
286
330
6F
100
AcDbEntity
  8
GEO_
 62
     7
420
 16777215
100
AcDbLine
 10
-83.34583333333332
 20
45.2311436297901
 30
0.0
 11
-83.34583333333332
 21
45.2311436297901
 31
0.0
  0
LINE
  5
287
330
6F
100
AcDbEntity
  8
GEO_
 62
     7
420
 16777215
100
AcDbLine
 10
-83.34583333333332
 20
45.2311436297901
 30
0.0
 11
-83.25435555555555
 21
45.54334426320163
 31
0.0
  0
LINE
  5
288
330
6F
100
AcDbEntity
  8
GEO_
 62
     7
420
 16777215
100
AcDbLine
 10
-83.34583333333332
 20
45.2311436297901
 30
0.0
 11
-83.65000000000001
 21
44.67950493102619
 31
0.0
  0
LINE
  5
289
330
6F
100
AcDbEntity
  8
GEO_
 62
     7
420
 16777215
100
AcDbLine
 10
-83.65000000000001
 20
44.67950493102619
 30
0.0
 11
-83.65000000000001
 21
44.67950493102619
 31
0.0
  0
LINE
  5
28A
330
6F
100
AcDbEntity
  8
GEO_
 62
     7
420
 16777215
100
AcDbLine
 10
-83.65000000000001
 20
44.67950493102619
 30
0.0
 11
-83.34583333333332
 21
45.2311436297901
 31
0.0
  0
LINE
  5
28B
330
6F
100
AcDbEntity
  8
GEO_
 62
     7
420
 16777215
100
AcDbLine
 10
-83.65000000000001
 20
44.67950493102619
 30
0.0
 11
-83.74583333333333
 21
44.74001527555774
 31
0.0
  0
LINE
  5
28C
330
6F
100
AcDbEntity
  8
GEO_
 62
     7
420
 16777215
100
AcDbLine
 10
-83.74583333333333
 20
44.74001527555774
 30
0.0
 11
-83.74583333333333
 21
44.74001527555774
 31
0.0
  0
LINE
  5
28D
330
6F
100
AcDbEntity
  8
GEO_
 62
     7
420
 16777215
100
AcDbLine
 10
-83.74583333333333
 20
44.74001527555774
 30
0.0
 11
-83.65000000000001
 21
44.67950493102619
 31
0.0
  0
LINE
  5
28E
330
6F
100
AcDbEntity
  8
GEO_
 62
     7
420
 16777215
100
AcDbLine
 10
-83.74583333333333
 20
44.74001527555774
 30
0.0
 11
-84.3472222222222
 21
44.84536617759188
 31
0.0
  0
LINE
  5
28F
330
6F
100
AcDbEntity
  8
GEO_
 62
     7
420
 16777215
100
AcDbLine
 10
-84.3472222222222
 20
44.84536617759188
 30
0.0
 11
-84.3472222222222
 21
44.84536617759188
 31
0.0
  0
LINE
  5
290
330
6F
100
AcDbEntity
  8
GEO_
 62
     7
420
 16777215
100
AcDbLine
 10
-84.3472222222222
 20
44.84536617759188
 30
0.0
 11
-83.74583333333333
 21
44.74001527555774
 31
0.0
  0
LINE
  5
291
330
6F
100
AcDbEntity
  8
GEO_
 62
     7
420
 16777215
100
AcDbLine
 10
-84.3472222222222
 20
44.84536617759188
 30
0.0
 11
-84.7
 21
44.9052560815029
 31
0.0
  0
LINE
  5
292
330
6F
100
AcDbEntity
  8
GEO_
 62
     7
420
 16777215
100
AcDbLine
 10
-84.7
 20
44.9052560815029
 30
0.0
 11
-84.7
 21
44.9052560815029
 31
0.0
  0
LINE
  5
293
330
6F
100
AcDbEntity
  8
GEO_
 62
     7
420
 16777215
100
AcDbLine
 10
-84.7
 20
44.9052560815029
 30
0.0
 11
-84.3472222222222
 21
44.84536617759188
 31
0.0
  0
LINE
  5
294
330
6F
100
AcDbEntity
  8
GEO_
 62
     7
420
 16777215
100
AcDbLine
 10
-84.7
 20
44.9052560815029
 30
0.0
 11
-84.70916388888891
 21
45.23716466808155
 31
0.0
  0
LINE
  5
295
330
6F
100
AcDbEntity
  8
GEO_
 62
     7
420
 16777215
100
AcDbLine
 10
-84.70916388888891
 20
45.23716466808155
 30
0.0
 11
-84.70916388888891
 21
45.23716466808155
 31
0.0
  0
LINE
  5
296
330
6F
100
AcDbEntity
  8
GEO_
 62
     7
420
 16777215
100
AcDbLine
 10
-84.70916388888891
 20
45.23716466808155
 30
0.0
 11
-84.7
 21
44.9052560815029
 31
0.0
  0
LINE
  5
297
330
6F
100
AcDbEntity
  8
GEO_
 62
     7
420
 16777215
100
AcDbLine
 10
-84.70916388888891
 20
45.23716466808155
 30
0.0
 11
-84.57338055555554
 21
45.31936840898029
 31
0.0
  0
LINE
  5
298
330
6F
100
AcDbEntity
  8
GEO_
 62
     7
420
 16777215
100
AcDbLine
 10
-84.57338055555554
 20
45.31936840898029
 30
0.0
 11
-84.57338055555554
 21
45.31936840898029
 31
0.0
  0
LINE
  5
299
330
6F
100
AcDbEntity
  8
GEO_
 62
     7
420
 16777215
100
AcDbLine
 10
-84.57338055555554
 20
45.31936840898029
 30
0.0
 11
-84.70916388888891
 21
45.23716466808155
 31
0.0
  0
LINE
  5
29A
330
6F
100
AcDbEntity
  8
GEO_
 62
     7
420
 16777215
100
AcDbLine
 10
-84.57338055555554
 20
45.31936840898029
 30
0.0
 11
-84.09722222222219
 21
45.6082626153204
 31
0.0
  0
LINE
  5
29B
330
6F
100
AcDbEntity
  8
GEO_
 62
     7
420
 16777215
100
AcDbLine
 10
-84.09722222222219
 20
45.6082626153204
 30
0.0
 11
-84.09722222222219
 21
45.6082626153204
 31
0.0
  0
LINE
  5
29C
330
6F
100
AcDbEntity
  8
GEO_
 62
     7
420
 16777215
100
AcDbLine
 10
-84.09722222222219
 20
45.6082626153204
 30
0.0
 11
-84.57338055555554
 21
45.31936840898029
 31
0.0
  0
LINE
  5
29D
330
6F
100
AcDbEntity
  8
GEO_
 62
     7
420
 16777215
100
AcDbLine
 10
-84.09722222222219
 20
45.6082626153204
 30
0.0
 11
-83.89696944444445
 21
45.95438078503631
 31
0.0
  0
LINE
  5
29E
330
6F
100
AcDbEntity
  8
GEO_
 62
     7
420
 16777215
100
AcDbLine
 10
-83.89696944444445
 20
45.95438078503631
 30
0.0
 11
-83.89696944444445
 21
45.95438078503631
 31
0.0
  0
LINE
  5
29F
330
6F
100
AcDbEntity
  8
GEO_
 62
     7
420
 16777215
100
AcDbLine
 10
-83.89696944444445
 20
45.95438078503631
 30
0.0
 11
-84.09722222222219
 21
45.6082626153204
 31
0.0
  0
LINE
  5
2A0
330
6F
100
AcDbEntity
  8
GEO_
 62
     7
420
 16777215
100
AcDbLine
 10
-83.89696944444445
 20
45.95438078503631
 30
0.0
 11
-83.84829999999999
 21
46.08429800632882
 31
0.0
  0
LINE
  5
2A1
330
6F
100
AcDbEntity
  8
GEO_
 62
     7
420
 16777215
100
AcDbLine
 10
-83.84829999999999
 20
46.08429800632882
 30
0.0
 11
-83.84829999999999
 21
46.08429800632882
 31
0.0
  0
LINE
  5
2A2
330
6F
100
AcDbEntity
  8
GEO_
 62
     7
420
 16777215
100
AcDbLine
 10
-83.84829999999999
 20
46.08429800632882
 30
0.0
 11
-83.89696944444445
 21
45.95438078503631
 31
0.0
  0
LINE
  5
2A3
330
6F
100
AcDbEntity
  8
GEO_
 62
     7
420
 16777215
100
AcDbLine
 10
-83.84829999999999
 20
46.08429800632882
 30
0.0
 11
-83.8326583333333
 21
46.17486019316203
 31
0.0
  0
LINE
  5
2A4
330
6F
100
AcDbEntity
  8
GEO_
 62
     7
420
 16777215
100
AcDbLine
 10
-83.8326583333333
 20
46.17486019316203
 30
0.0
 11
-83.8326583333333
 21
46.17486019316203
 31
0.0
  0
LINE
  5
2A5
330
6F
100
AcDbEntity
  8
GEO_
 62
     7
420
 16777215
100
AcDbLine
 10
-83.8326583333333
 20
46.17486019316203
 30
0.0
 11
-83.84829999999999
 21
46.08429800632882
 31
0.0
  0
LINE
  5
2A6
330
6F
100
AcDbEntity
  8
GEO_
 62
     7
420
 16777215
100
AcDbLine
 10
-83.8326583333333
 20
46.17486019316203
 30
0.0
 11
-83.78316666666666
 21
46.44717419338787
 31
0.0
  0
LINE
  5
2A7
330
6F
100
AcDbEntity
  8
GEO_
 62
     7
420
 16777215
100
AcDbLine
 10
-83.78316666666666
 20
46.44717419338787
 30
0.0
 11
-83.78316666666666
 21
46.44717419338787
 31
0.0
  0
LINE
  5
2A8
330
6F
100
AcDbEntity
  8
GEO_
 62
     7
420
 16777215
100
AcDbLine
 10
-83.78316666666666
 20
46.44717419338787
 30
0.0
 11
-83.8326583333333
 21
46.17486019316203
 31
0.0
  0
LINE
  5
2A9
330
6F
100
AcDbEntity
  8
GEO_
 62
     7
420
 16777215
100
AcDbLine
 10
-83.78316666666666
 20
46.44717419338787
 30
0.0
 11
-83.74508055555557
 21
46.65665339700722
 31
0.0
  0
LINE
  5
2AA
330
6F
100
AcDbEntity
  8
GEO_
 62
     7
420
 16777215
100
AcDbLine
 10
-83.74508055555557
 20
46.65665339700722
 30
0.0
 11
-83.74508055555557
 21
46.65665339700722
 31
0.0
  0
LINE
  5
2AB
330
6F
100
AcDbEntity
  8
GEO_
 62
     7
420
 16777215
100
AcDbLine
 10
-83.74508055555557
 20
46.65665339700722
 30
0.0
 11
-83.78316666666666
 21
46.44717419338787
 31
0.0
  0
LINE
  5
2AC
330
6F
100
AcDbEntity
  8
GEO_
 62
     7
420
 16777215
100
AcDbLine
 10
-83.38852777777779
 20
46.62586874796057
 30
0.0
 11
-83.39450000000002
 21
46.30834640559696
 31
0.0
  0
LINE
  5
2AD
330
6F
100
AcDbEntity
  8
GEO_
 62
     7
420
 16777215
100
AcDbLine
 10
-83.39450000000002
 20
46.30834640559696
 30
0.0
 11
-83.19751944444446
 21
46.28672039255386
 31
0.0
  0
LINE
  5
2AE
330
6F
100
AcDbEntity
  8
GEO_
 62
     7
420
 16777215
100
AcDbLine
 10
-83.19751944444446
 20
46.28672039255386
 30
0.0
 11
-83.22888888888888
 21
46.10495630047274
 31
0.0
  0
LINE
  5
2AF
330
6F
100
AcDbEntity
  8
GEO_
 62
     7
420
 16777215
100
AcDbLine
 10
-83.22888888888888
 20
46.10495630047274
 30
0.0
 11
-83.2513083333333
 21
45.97529814958241
 31
0.0
  0
LINE
  5
2B0
330
6F
100
AcDbEntity
  8
GEO_
 62
     7
420
 16777215
100
AcDbLine
 10
-83.2513083333333
 20
45.97529814958241
 30
0.0
 11
-83.221875
 21
45.77219184132918
 31
0.0
  0
LINE
  5
2B1
330
6F
100
AcDbEntity
  8
GEO_
 62
     7
420
 16777215
100
AcDbLine
 10
-83.221875
 20
45.77219184132918
 30
0.0
 11
-83.24555555555557
 21
45.57343985372417
 31
0.0
  0
LINE
  5
2B2
330
6F
100
AcDbEntity
  8
GEO_
 62
     7
420
 16777215
100
AcDbLine
 10
-83.24555555555557
 20
45.57343985372417
 30
0.0
 11
-83.25435555555555
 21
45.54334426320163
 31
0.0
  0
LINE
  5
2B3
330
6F
100
AcDbEntity
  8
GEO_
 62
     7
420
 16777215
100
AcDbLine
 10
-83.25435555555555
 20
45.54334426320163
 30
0.0
 11
-83.34583333333332
 21
45.2311436297901
 31
0.0
  0
LINE
  5
2B4
330
6F
100
AcDbEntity
  8
GEO_
 62
     7
420
 16777215
100
AcDbLine
 10
-83.34583333333332
 20
45.2311436297901
 30
0.0
 11
-83.65000000000001
 21
44.67950493102619
 31
0.0
  0
LINE
  5
2B5
330
6F
100
AcDbEntity
  8
GEO_
 62
     7
420
 16777215
100
AcDbLine
 10
-83.65000000000001
 20
44.67950493102619
 30
0.0
 11
-83.74583333333333
 21
44.74001527555774
 31
0.0
  0
LINE
  5
2B6
330
6F
100
AcDbEntity
  8
GEO_
 62
     7
420
 16777215
100
AcDbLine
 10
-83.74583333333333
 20
44.74001527555774
 30
0.0
 11
-84.3472222222222
 21
44.84536617759188
 31
0.0
  0
LINE
  5
2B7
330
6F
100
AcDbEntity
  8
GEO_
 62
     7
420
 16777215
100
AcDbLine
 10
-84.3472222222222
 20
44.84536617759188
 30
0.0
 11
-84.7
 21
44.9052560815029
 31
0.0
  0
LINE
  5
2B8
330
6F
100
AcDbEntity
  8
GEO_
 62
     7
420
 16777215
100
AcDbLine
 10
-84.7
 20
44.9052560815029
 30
0.0
 11
-84.70916388888891
 21
45.23716466808155
 31
0.0
  0
LINE
  5
2B9
330
6F
100
AcDbEntity
  8
GEO_
 62
     7
420
 16777215
100
AcDbLine
 10
-84.70916388888891
 20
45.23716466808155
 30
0.0
 11
-84.57338055555554
 21
45.31936840898029
 31
0.0
  0
LINE
  5
2BA
330
6F
100
AcDbEntity
  8
GEO_
 62
     7
420
 16777215
100
AcDbLine
 10
-84.57338055555554
 20
45.31936840898029
 30
0.0
 11
-84.09722222222219
 21
45.6082626153204
 31
0.0
  0
LINE
  5
2BB
330
6F
100
AcDbEntity
  8
GEO_
 62
     7
420
 16777215
100
AcDbLine
 10
-84.09722222222219
 20
45.6082626153204
 30
0.0
 11
-83.89696944444445
 21
45.95438078503631
 31
0.0
  0
LINE
  5
2BC
330
6F
100
AcDbEntity
  8
GEO_
 62
     7
420
 16777215
100
AcDbLine
 10
-83.89696944444445
 20
45.95438078503631
 30
0.0
 11
-83.84829999999999
 21
46.08429800632882
 31
0.0
  0
LINE
  5
2BD
330
6F
100
AcDbEntity
  8
GEO_
 62
     7
420
 16777215
100
AcDbLine
 10
-83.84829999999999
 20
46.08429800632882
 30
0.0
 11
-83.8326583333333
 21
46.17486019316203
 31
0.0
  0
LINE
  5
2BE
330
6F
100
AcDbEntity
  8
GEO_
 62
     7
420
 16777215
100
AcDbLine
 10
-83.8326583333333
 20
46.17486019316203
 30
0.0
 11
-83.78316666666666
 21
46.44717419338787
 31
0.0
  0
LINE
  5
2BF
330
6F
100
AcDbEntity
  8
GEO_
 62
     7
420
 16777215
100
AcDbLine
 10
-83.78316666666666
 20
46.44717419338787
 30
0.0
 11
-83.74508055555557
 21
46.65665339700722
 31
0.0
  0
LINE
  5
2C0
330
6F
100
AcDbEntity
  8
GEO_
 62
     7
420
 16777215
100
AcDbLine
 10
-83.38852777777779
 20
46.62586874796057
 30
0.0
 11
-83.39450000000002
 21
46.30834640559696
 31
0.0
  0
LINE
  5
2C1
330
6F
100
AcDbEntity
  8
GEO_
 62
     7
420
 16777215
100
AcDbLine
 10
-83.39450000000002
 20
46.30834640559696
 30
0.0
 11
-83.19751944444446
 21
46.28672039255386
 31
0.0
  0
LINE
  5
2C2
330
6F
100
AcDbEntity
  8
GEO_
 62
     7
420
 16777215
100
AcDbLine
 10
-83.19751944444446
 20
46.28672039255386
 30
0.0
 11
-83.22888888888888
 21
46.10495630047274
 31
0.0
  0
LINE
  5
2C3
330
6F
100
AcDbEntity
  8
GEO_
 62
     7
420
 16777215
100
AcDbLine
 10
-83.22888888888888
 20
46.10495630047274
 30
0.0
 11
-83.2513083333333
 21
45.97529814958241
 31
0.0
  0
LINE
  5
2C4
330
6F
100
AcDbEntity
  8
GEO_
 62
     7
420
 16777215
100
AcDbLine
 10
-83.2513083333333
 20
45.97529814958241
 30
0.0
 11
-83.221875
 21
45.77219184132918
 31
0.0
  0
LINE
  5
2C5
330
6F
100
AcDbEntity
  8
GEO_
 62
     7
420
 16777215
100
AcDbLine
 10
-83.221875
 20
45.77219184132918
 30
0.0
 11
-83.24555555555557
 21
45.57343985372417
 31
0.0
  0
LINE
  5
2C6
330
6F
100
AcDbEntity
  8
GEO_
 62
     7
420
 16777215
100
AcDbLine
 10
-83.24555555555557
 20
45.57343985372417
 30
0.0
 11
-83.25435555555555
 21
45.54334426320163
 31
0.0
  0
LINE
  5
2C7
330
6F
100
AcDbEntity
  8
GEO_
 62
     7
420
 16777215
100
AcDbLine
 10
-83.25435555555555
 20
45.54334426320163
 30
0.0
 11
-83.34583333333332
 21
45.2311436297901
 31
0.0
  0
LINE
  5
2C8
330
6F
100
AcDbEntity
  8
GEO_
 62
     7
420
 16777215
100
AcDbLine
 10
-83.34583333333332
 20
45.2311436297901
 30
0.0
 11
-83.65000000000001
 21
44.67950493102619
 31
0.0
  0
LINE
  5
2C9
330
6F
100
AcDbEntity
  8
GEO_
 62
     7
420
 16777215
100
AcDbLine
 10
-83.65000000000001
 20
44.67950493102619
 30
0.0
 11
-83.74583333333333
 21
44.74001527555774
 31
0.0
  0
LINE
  5
2CA
330
6F
100
AcDbEntity
  8
GEO_
 62
     7
420
 16777215
100
AcDbLine
 10
-83.74583333333333
 20
44.74001527555774
 30
0.0
 11
-84.3472222222222
 21
44.84536617759188
 31
0.0
  0
LINE
  5
2CB
330
6F
100
AcDbEntity
  8
GEO_
 62
     7
420
 16777215
100
AcDbLine
 10
-84.3472222222222
 20
44.84536617759188
 30
0.0
 11
-84.7
 21
44.9052560815029
 31
0.0
  0
LINE
  5
2CC
330
6F
100
AcDbEntity
  8
GEO_
 62
     7
420
 16777215
100
AcDbLine
 10
-84.7
 20
44.9052560815029
 30
0.0
 11
-84.70916388888891
 21
45.23716466808155
 31
0.0
  0
LINE
  5
2CD
330
6F
100
AcDbEntity
  8
GEO_
 62
     7
420
 16777215
100
AcDbLine
 10
-84.70916388888891
 20
45.23716466808155
 30
0.0
 11
-84.57338055555554
 21
45.31936840898029
 31
0.0
  0
LINE
  5
2CE
330
6F
100
AcDbEntity
  8
GEO_
 62
     7
420
 16777215
100
AcDbLine
 10
-84.57338055555554
 20
45.31936840898029
 30
0.0
 11
-84.09722222222219
 21
45.6082626153204
 31
0.0
  0
LINE
  5
2CF
330
6F
100
AcDbEntity
  8
GEO_
 62
     7
420
 16777215
100
AcDbLine
 10
-84.09722222222219
 20
45.6082626153204
 30
0.0
 11
-83.89696944444445
 21
45.95438078503631
 31
0.0
  0
LINE
  5
2D0
330
6F
100
AcDbEntity
  8
GEO_
 62
     7
420
 16777215
100
AcDbLine
 10
-83.89696944444445
 20
45.95438078503631
 30
0.0
 11
-83.84829999999999
 21
46.08429800632882
 31
0.0
  0
LINE
  5
2D1
330
6F
100
AcDbEntity
  8
GEO_
 62
     7
420
 16777215
100
AcDbLine
 10
-83.84829999999999
 20
46.08429800632882
 30
0.0
 11
-83.8326583333333
 21
46.17486019316203
 31
0.0
  0
LINE
  5
2D2
330
6F
100
AcDbEntity
  8
GEO_
 62
     7
420
 16777215
100
AcDbLine
 10
-83.8326583333333
 20
46.17486019316203
 30
0.0
 11
-83.78316666666666
 21
46.44717419338787
 31
0.0
  0
LINE
  5
2D3
330
6F
100
AcDbEntity
  8
GEO_
 62
     7
420
 16777215
100
AcDbLine
 10
-83.78316666666666
 20
46.44717419338787
 30
0.0
 11
-83.74508055555557
 21
46.65665339700722
 31
0.0
  0
LINE
  5
2D4
330
6F
100
AcDbEntity
  8
GEO_
 62
     7
420
 16777215
100
AcDbLine
 10
-83.74508055555557
 20
46.65665339700722
 30
0.0
 11
-83.38852777777779
 21
46.62586874796057
 31
0.0
  0
LINE
  5
2D5
330
6F
100
AcDbEntity
  8
GEO_
 62
     7
420
 16777215
100
AcDbLine
 10
-83.38852777777779
 20
46.62586874796057
 30
0.0
 11
-83.38852777777779
 21
46.62586874796057
 31
0.0
  0
LINE
  5
2D6
330
6F
100
AcDbEntity
  8
GEO_
 62
     7
420
 16777215
100
AcDbLine
 10
-83.38852777777779
 20
46.62586874796057
 30
0.0
 11
-83.74508055555557
 21
46.65665339700722
 31
0.0
  0
LINE
  5
2D7
330
6F
100
AcDbEntity
  8
GEO_
 62
     7
420
 16777215
100
AcDbLine
 10
-83.38852777777779
 20
46.62586874796057
 30
0.0
 11
-83.39450000000002
 21
46.30834640559696
 31
0.0
  0
LINE
  5
2D8
330
6F
100
AcDbEntity
  8
GEO_
 62
     7
420
 16777215
100
AcDbLine
 10
-83.39450000000002
 20
46.30834640559696
 30
0.0
 11
-83.39450000000002
 21
46.30834640559696
 31
0.0
  0
LINE
  5
2D9
330
6F
100
AcDbEntity
  8
GEO_
 62
     7
420
 16777215
100
AcDbLine
 10
-83.39450000000002
 20
46.30834640559696
 30
0.0
 11
-83.38852777777779
 21
46.62586874796057
 31
0.0
  0
LINE
  5
2DA
330
6F
100
AcDbEntity
  8
GEO_
 62
     7
420
 16777215
100
AcDbLine
 10
-83.39450000000002
 20
46.30834640559696
 30
0.0
 11
-83.19751944444446
 21
46.28672039255386
 31
0.0
  0
LINE
  5
2DB
330
6F
100
AcDbEntity
  8
GEO_
 62
     7
420
 16777215
100
AcDbLine
 10
-83.19751944444446
 20
46.28672039255386
 30
0.0
 11
-83.19751944444446
 21
46.28672039255386
 31
0.0
  0
LINE
  5
2DC
330
6F
100
AcDbEntity
  8
GEO_
 62
     7
420
 16777215
100
AcDbLine
 10
-83.19751944444446
 20
46.28672039255386
 30
0.0
 11
-83.39450000000002
 21
46.30834640559696
 31
0.0
  0
LINE
  5
2DD
330
6F
100
AcDbEntity
  8
GEO_
 62
     7
420
 16777215
100
AcDbLine
 10
-83.19751944444446
 20
46.28672039255386
 30
0.0
 11
-83.22888888888888
 21
46.10495630047274
 31
0.0
  0
LINE
  5
2DE
330
6F
100
AcDbEntity
  8
GEO_
 62
     7
420
 16777215
100
AcDbLine
 10
-83.22888888888888
 20
46.10495630047274
 30
0.0
 11
-83.22888888888888
 21
46.10495630047274
 31
0.0
  0
LINE
  5
2DF
330
6F
100
AcDbEntity
  8
GEO_
 62
     7
420
 16777215
100
AcDbLine
 10
-83.22888888888888
 20
46.10495630047274
 30
0.0
 11
-83.19751944444446
 21
46.28672039255386
 31
0.0
  0
LINE
  5
2E0
330
6F
100
AcDbEntity
  8
GEO_
 62
     7
420
 16777215
100
AcDbLine
 10
-83.22888888888888
 20
46.10495630047274
 30
0.0
 11
-83.2513083333333
 21
45.97529814958241
 31
0.0
  0
LINE
  5
2E1
330
6F
100
AcDbEntity
  8
GEO_
 62
     7
420
 16777215
100
AcDbLine
 10
-83.2513083333333
 20
45.97529814958241
 30
0.0
 11
-83.2513083333333
 21
45.97529814958241
 31
0.0
  0
LINE
  5
2E2
330
6F
100
AcDbEntity
  8
GEO_
 62
     7
420
 16777215
100
AcDbLine
 10
-83.2513083333333
 20
45.97529814958241
 30
0.0
 11
-83.22888888888888
 21
46.10495630047274
 31
0.0
  0
LINE
  5
2E3
330
6F
100
AcDbEntity
  8
GEO_
 62
     7
420
 16777215
100
AcDbLine
 10
-83.2513083333333
 20
45.97529814958241
 30
0.0
 11
-83.221875
 21
45.77219184132918
 31
0.0
  0
LINE
  5
2E4
330
6F
100
AcDbEntity
  8
GEO_
 62
     7
420
 16777215
100
AcDbLine
 10
-83.221875
 20
45.77219184132918
 30
0.0
 11
-83.221875
 21
45.77219184132918
 31
0.0
  0
LINE
  5
2E5
330
6F
100
AcDbEntity
  8
GEO_
 62
     7
420
 16777215
100
AcDbLine
 10
-83.221875
 20
45.77219184132918
 30
0.0
 11
-83.2513083333333
 21
45.97529814958241
 31
0.0
  0
LINE
  5
2E6
330
6F
100
AcDbEntity
  8
GEO_
 62
     7
420
 16777215
100
AcDbLine
 10
-83.221875
 20
45.77219184132918
 30
0.0
 11
-83.24555555555557
 21
45.57343985372417
 31
0.0
  0
LINE
  5
2E7
330
6F
100
AcDbEntity
  8
GEO_
 62
     7
420
 16777215
100
AcDbLine
 10
-83.24555555555557
 20
45.57343985372417
 30
0.0
 11
-83.24555555555557
 21
45.57343985372417
 31
0.0
  0
LINE
  5
2E8
330
6F
100
AcDbEntity
  8
GEO_
 62
     7
420
 16777215
100
AcDbLine
 10
-83.24555555555557
 20
45.57343985372417
 30
0.0
 11
-83.221875
 21
45.77219184132918
 31
0.0
  0
LINE
  5
2E9
330
6F
100
AcDbEntity
  8
GEO_
 62
     7
420
 16777215
100
AcDbLine
 10
-83.24555555555557
 20
45.57343985372417
 30
0.0
 11
-83.25435555555555
 21
45.54334426320163
 31
0.0
  0
LINE
  5
2EA
330
6F
100
AcDbEntity
  8
GEO_
 62
     7
420
 16777215
100
AcDbLine
 10
-83.25435555555555
 20
45.54334426320163
 30
0.0
 11
-83.25435555555555
 21
45.54334426320163
 31
0.0
  0
LINE
  5
2EB
330
6F
100
AcDbEntity
  8
GEO_
 62
     7
420
 16777215
100
AcDbLine
 10
-83.25435555555555
 20
45.54334426320163
 30
0.0
 11
-83.24555555555557
 21
45.57343985372417
 31
0.0
  0
LINE
  5
2EC
330
6F
100
AcDbEntity
  8
GEO_
 62
     7
420
 16777215
100
AcDbLine
 10
-83.25435555555555
 20
45.54334426320163
 30
0.0
 11
-83.34583333333332
 21
45.2311436297901
 31
0.0
  0
LINE
  5
2ED
330
6F
100
AcDbEntity
  8
GEO_
 62
     7
420
 16777215
100
AcDbLine
 10
-83.34583333333332
 20
45.2311436297901
 30
0.0
 11
-83.34583333333332
 21
45.2311436297901
 31
0.0
  0
LINE
  5
2EE
330
6F
100
AcDbEntity
  8
GEO_
 62
     7
420
 16777215
100
AcDbLine
 10
-83.34583333333332
 20
45.2311436297901
 30
0.0
 11
-83.25435555555555
 21
45.54334426320163
 31
0.0
  0
LINE
  5
2EF
330
6F
100
AcDbEntity
  8
GEO_
 62
     7
420
 16777215
100
AcDbLine
 10
-83.34583333333332
 20
45.2311436297901
 30
0.0
 11
-83.65000000000001
 21
44.67950493102619
 31
0.0
  0
LINE
  5
2F0
330
6F
100
AcDbEntity
  8
GEO_
 62
     7
420
 16777215
100
AcDbLine
 10
-83.65000000000001
 20
44.67950493102619
 30
0.0
 11
-83.65000000000001
 21
44.67950493102619
 31
0.0
  0
LINE
  5
2F1
330
6F
100
AcDbEntity
  8
GEO_
 62
     7
420
 16777215
100
AcDbLine
 10
-83.65000000000001
 20
44.67950493102619
 30
0.0
 11
-83.34583333333332
 21
45.2311436297901
 31
0.0
  0
LINE
  5
2F2
330
6F
100
AcDbEntity
  8
GEO_
 62
     7
420
 16777215
100
AcDbLine
 10
-83.65000000000001
 20
44.67950493102619
 30
0.0
 11
-83.74583333333333
 21
44.74001527555774
 31
0.0
  0
LINE
  5
2F3
330
6F
100
AcDbEntity
  8
GEO_
 62
     7
420
 16777215
100
AcDbLine
 10
-83.74583333333333
 20
44.74001527555774
 30
0.0
 11
-83.74583333333333
 21
44.74001527555774
 31
0.0
  0
LINE
  5
2F4
330
6F
100
AcDbEntity
  8
GEO_
 62
     7
420
 16777215
100
AcDbLine
 10
-83.74583333333333
 20
44.74001527555774
 30
0.0
 11
-83.65000000000001
 21
44.67950493102619
 31
0.0
  0
LINE
  5
2F5
330
6F
100
AcDbEntity
  8
GEO_
 62
     7
420
 16777215
100
AcDbLine
 10
-83.74583333333333
 20
44.74001527555774
 30
0.0
 11
-84.3472222222222
 21
44.84536617759188
 31
0.0
  0
LINE
  5
2F6
330
6F
100
AcDbEntity
  8
GEO_
 62
     7
420
 16777215
100
AcDbLine
 10
-84.3472222222222
 20
44.84536617759188
 30
0.0
 11
-84.3472222222222
 21
44.84536617759188
 31
0.0
  0
LINE
  5
2F7
330
6F
100
AcDbEntity
  8
GEO_
 62
     7
420
 16777215
100
AcDbLine
 10
-84.3472222222222
 20
44.84536617759188
 30
0.0
 11
-83.74583333333333
 21
44.74001527555774
 31
0.0
  0
LINE
  5
2F8
330
6F
100
AcDbEntity
  8
GEO_
 62
     7
420
 16777215
100
AcDbLine
 10
-84.3472222222222
 20
44.84536617759188
 30
0.0
 11
-84.7
 21
44.9052560815029
 31
0.0
  0
LINE
  5
2F9
330
6F
100
AcDbEntity
  8
GEO_
 62
     7
420
 16777215
100
AcDbLine
 10
-84.7
 20
44.9052560815029
 30
0.0
 11
-84.7
 21
44.9052560815029
 31
0.0
  0
LINE
  5
2FA
330
6F
100
AcDbEntity
  8
GEO_
 62
     7
420
 16777215
100
AcDbLine
 10
-84.7
 20
44.9052560815029
 30
0.0
 11
-84.3472222222222
 21
44.84536617759188
 31
0.0
  0
LINE
  5
2FB
330
6F
100
AcDbEntity
  8
GEO_
 62
     7
420
 16777215
100
AcDbLine
 10
-84.7
 20
44.9052560815029
 30
0.0
 11
-84.70916388888891
 21
45.23716466808155
 31
0.0
  0
LINE
  5
2FC
330
6F
100
AcDbEntity
  8
GEO_
 62
     7
420
 16777215
100
AcDbLine
 10
-84.70916388888891
 20
45.23716466808155
 30
0.0
 11
-84.70916388888891
 21
45.23716466808155
 31
0.0
  0
LINE
  5
2FD
330
6F
100
AcDbEntity
  8
GEO_
 62
     7
420
 16777215
100
AcDbLine
 10
-84.70916388888891
 20
45.23716466808155
 30
0.0
 11
-84.7
 21
44.9052560815029
 31
0.0
  0
LINE
  5
2FE
330
6F
100
AcDbEntity
  8
GEO_
 62
     7
420
 16777215
100
AcDbLine
 10
-84.70916388888891
 20
45.23716466808155
 30
0.0
 11
-84.57338055555554
 21
45.31936840898029
 31
0.0
  0
LINE
  5
2FF
330
6F
100
AcDbEntity
  8
GEO_
 62
     7
420
 16777215
100
AcDbLine
 10
-84.57338055555554
 20
45.31936840898029
 30
0.0
 11
-84.57338055555554
 21
45.31936840898029
 31
0.0
  0
LINE
  5
300
330
6F
100
AcDbEntity
  8
GEO_
 62
     7
420
 16777215
100
AcDbLine
 10
-84.57338055555554
 20
45.31936840898029
 30
0.0
 11
-84.70916388888891
 21
45.23716466808155
 31
0.0
  0
LINE
  5
301
330
6F
100
AcDbEntity
  8
GEO_
 62
     7
420
 16777215
100
AcDbLine
 10
-84.57338055555554
 20
45.31936840898029
 30
0.0
 11
-84.09722222222219
 21
45.6082626153204
 31
0.0
  0
LINE
  5
302
330
6F
100
AcDbEntity
  8
GEO_
 62
     7
420
 16777215
100
AcDbLine
 10
-84.09722222222219
 20
45.6082626153204
 30
0.0
 11
-84.09722222222219
 21
45.6082626153204
 31
0.0
  0
LINE
  5
303
330
6F
100
AcDbEntity
  8
GEO_
 62
     7
420
 16777215
100
AcDbLine
 10
-84.09722222222219
 20
45.6082626153204
 30
0.0
 11
-84.57338055555554
 21
45.31936840898029
 31
0.0
  0
LINE
  5
304
330
6F
100
AcDbEntity
  8
GEO_
 62
     7
420
 16777215
100
AcDbLine
 10
-84.09722222222219
 20
45.6082626153204
 30
0.0
 11
-83.89696944444445
 21
45.95438078503631
 31
0.0
  0
LINE
  5
305
330
6F
100
AcDbEntity
  8
GEO_
 62
     7
420
 16777215
100
AcDbLine
 10
-83.89696944444445
 20
45.95438078503631
 30
0.0
 11
-83.89696944444445
 21
45.95438078503631
 31
0.0
  0
LINE
  5
306
330
6F
100
AcDbEntity
  8
GEO_
 62
     7
420
 16777215
100
AcDbLine
 10
-83.89696944444445
 20
45.95438078503631
 30
0.0
 11
-84.09722222222219
 21
45.6082626153204
 31
0.0
  0
LINE
  5
307
330
6F
100
AcDbEntity
  8
GEO_
 62
     7
420
 16777215
100
AcDbLine
 10
-83.89696944444445
 20
45.95438078503631
 30
0.0
 11
-83.84829999999999
 21
46.08429800632882
 31
0.0
  0
LINE
  5
308
330
6F
100
AcDbEntity
  8
GEO_
 62
     7
420
 16777215
100
AcDbLine
 10
-83.84829999999999
 20
46.08429800632882
 30
0.0
 11
-83.84829999999999
 21
46.08429800632882
 31
0.0
  0
LINE
  5
309
330
6F
100
AcDbEntity
  8
GEO_
 62
     7
420
 16777215
100
AcDbLine
 10
-83.84829999999999
 20
46.08429800632882
 30
0.0
 11
-83.89696944444445
 21
45.95438078503631
 31
0.0
  0
LINE
  5
30A
330
6F
100
AcDbEntity
  8
GEO_
 62
     7
420
 16777215
100
AcDbLine
 10
-83.84829999999999
 20
46.08429800632882
 30
0.0
 11
-83.8326583333333
 21
46.17486019316203
 31
0.0
  0
LINE
  5
30B
330
6F
100
AcDbEntity
  8
GEO_
 62
     7
420
 16777215
100
AcDbLine
 10
-83.8326583333333
 20
46.17486019316203
 30
0.0
 11
-83.8326583333333
 21
46.17486019316203
 31
0.0
  0
LINE
  5
30C
330
6F
100
AcDbEntity
  8
GEO_
 62
     7
420
 16777215
100
AcDbLine
 10
-83.8326583333333
 20
46.17486019316203
 30
0.0
 11
-83.84829999999999
 21
46.08429800632882
 31
0.0
  0
LINE
  5
30D
330
6F
100
AcDbEntity
  8
GEO_
 62
     7
420
 16777215
100
AcDbLine
 10
-83.8326583333333
 20
46.17486019316203
 30
0.0
 11
-83.78316666666666
 21
46.44717419338787
 31
0.0
  0
LINE
  5
30E
330
6F
100
AcDbEntity
  8
GEO_
 62
     7
420
 16777215
100
AcDbLine
 10
-83.78316666666666
 20
46.44717419338787
 30
0.0
 11
-83.78316666666666
 21
46.44717419338787
 31
0.0
  0
LINE
  5
30F
330
6F
100
AcDbEntity
  8
GEO_
 62
     7
420
 16777215
100
AcDbLine
 10
-83.78316666666666
 20
46.44717419338787
 30
0.0
 11
-83.8326583333333
 21
46.17486019316203
 31
0.0
  0
LINE
  5
310
330
6F
100
AcDbEntity
  8
GEO_
 62
     7
420
 16777215
100
AcDbLine
 10
-83.78316666666666
 20
46.44717419338787
 30
0.0
 11
-83.74508055555557
 21
46.65665339700722
 31
0.0
  0
LINE
  5
311
330
6F
100
AcDbEntity
  8
GEO_
 62
     7
420
 16777215
100
AcDbLine
 10
-83.74508055555557
 20
46.65665339700722
 30
0.0
 11
-83.74508055555557
 21
46.65665339700722
 31
0.0
  0
LINE
  5
312
330
6F
100
AcDbEntity
  8
GEO_
 62
     7
420
 16777215
100
AcDbLine
 10
-83.74508055555557
 20
46.65665339700722
 30
0.0
 11
-83.78316666666666
 21
46.44717419338787
 31
0.0
  0
LINE
  5
350
330
6F
100
AcDbEntity
  8
GEO_
 62
     7
420
 16777215
100
AcDbLine
 10
-83.65000000000001
 20
44.67950493102619
 30
0.0
 11
-83.65000000000001
 21
44.67950493102619
 31
0.0
  0
LINE
  5
36E
330
6F
100
AcDbEntity
  8
GEO_
 62
     7
420
 16777215
100
AcDbLine
 10
-83.65000000000001
 20
44.67950493102619
 30
0.0
 11
-83.34583333333332
 21
45.2311436297901
 31
0.0
  0
LINE
  5
36F
330
6F
100
AcDbEntity
  8
GEO_
 62
     7
420
 16777215
100
AcDbLine
 10
-83.34583333333332
 20
45.2311436297901
 30
0.0
 11
-83.25435555555555
 21
45.54334426320163
 31
0.0
  0
LINE
  5
37D
330
6F
100
AcDbEntity
  8
GEO_
 62
     7
420
 16777215
100
AcDbLine
 10
-83.65000000000001
 20
44.67950493102619
 30
0.0
 11
-83.34583333333332
 21
45.2311436297901
 31
0.0
  0
LINE
  5
37E
330
6F
100
AcDbEntity
  8
GEO_
 62
     7
420
 16777215
100
AcDbLine
 10
-83.34583333333332
 20
45.2311436297901
 30
0.0
 11
-83.25435555555555
 21
45.54334426320163
 31
0.0
  0
LINE
  5
3A7
330
6F
100
AcDbEntity
  8
GEO_
 62
     7
420
 16777215
100
AcDbLine
 10
-83.65000000000001
 20
44.67950493102619
 30
0.0
 11
-83.65000000000001
 21
44.67950493102619
 31
0.0
  0
LINE
  5
3A9
330
6F
100
AcDbEntity
  8
GEO_
 62
     7
420
 16777215
100
AcDbLine
 10
-83.65000000000001
 20
44.67950493102619
 30
0.0
 11
-83.34583333333332
 21
45.2311436297901
 31
0.0
  0
LINE
  5
3AA
330
6F
100
AcDbEntity
  8
GEO_
 62
     7
420
 16777215
100
AcDbLine
 10
-83.34583333333332
 20
45.2311436297901
 30
0.0
 11
-83.34583333333332
 21
45.2311436297901
 31
0.0
  0
LINE
  5
3AB
330
6F
100
AcDbEntity
  8
GEO_
 62
     7
420
 16777215
100
AcDbLine
 10
-83.34583333333332
 20
45.2311436297901
 30
0.0
 11
-83.65000000000001
 21
44.67950493102619
 31
0.0
  0
LINE
  5
3AC
330
6F
100
AcDbEntity
  8
GEO_
 62
     7
420
 16777215
100
AcDbLine
 10
-83.34583333333332
 20
45.2311436297901
 30
0.0
 11
-83.25435555555555
 21
45.54334426320163
 31
0.0
  0
LINE
  5
3AD
330
6F
100
AcDbEntity
  8
GEO_
 62
     7
420
 16777215
100
AcDbLine
 10
-83.25435555555555
 20
45.54334426320163
 30
0.0
 11
-83.25435555555555
 21
45.54334426320163
 31
0.0
  0
LINE
  5
3AE
330
6F
100
AcDbEntity
  8
GEO_
 62
     7
420
 16777215
100
AcDbLine
 10
-83.25435555555555
 20
45.54334426320163
 30
0.0
 11
-83.34583333333332
 21
45.2311436297901
 31
0.0
  0
LINE
  5
3C1
330
6F
100
AcDbEntity
  8
GEO_
 62
     7
420
 16777215
100
AcDbLine
 10
-83.65000000000001
 20
44.67950493102619
 30
0.0
 11
-83.34583333333332
 21
45.2311436297901
 31
0.0
  0
LINE
  5
3C2
330
6F
100
AcDbEntity
  8
GEO_
 62
     7
420
 16777215
100
AcDbLine
 10
-83.34583333333332
 20
45.2311436297901
 30
0.0
 11
-83.25435555555555
 21
45.54334426320163
 31
0.0
  0
LINE
  5
3D5
330
6F
100
AcDbEntity
  8
GEO_
 62
     7
420
 16777215
100
AcDbLine
 10
-83.65000000000001
 20
44.67950493102619
 30
0.0
 11
-83.34583333333332
 21
45.2311436297901
 31
0.0
  0
LINE
  5
3D6
330
6F
100
AcDbEntity
  8
GEO_
 62
     7
420
 16777215
100
AcDbLine
 10
-83.34583333333332
 20
45.2311436297901
 30
0.0
 11
-83.25435555555555
 21
45.54334426320163
 31
0.0
  0
LINE
  5
40E
330
6F
100
AcDbEntity
  8
GEO_
 62
     7
420
 16777215
100
AcDbLine
 10
-83.65000000000001
 20
44.67950493102619
 30
0.0
 11
-83.65000000000001
 21
44.67950493102619
 31
0.0
  0
LINE
  5
410
330
6F
100
AcDbEntity
  8
GEO_
 62
     7
420
 16777215
100
AcDbLine
 10
-83.65000000000001
 20
44.67950493102619
 30
0.0
 11
-83.34583333333332
 21
45.2311436297901
 31
0.0
  0
LINE
  5
411
330
6F
100
AcDbEntity
  8
GEO_
 62
     7
420
 16777215
100
AcDbLine
 10
-83.34583333333332
 20
45.2311436297901
 30
0.0
 11
-83.34583333333332
 21
45.2311436297901
 31
0.0
  0
LINE
  5
412
330
6F
100
AcDbEntity
  8
GEO_
 62
     7
420
 16777215
100
AcDbLine
 10
-83.34583333333332
 20
45.2311436297901
 30
0.0
 11
-83.65000000000001
 21
44.67950493102619
 31
0.0
  0
LINE
  5
413
330
6F
100
AcDbEntity
  8
GEO_
 62
     7
420
 16777215
100
AcDbLine
 10
-83.34583333333332
 20
45.2311436297901
 30
0.0
 11
-83.25435555555555
 21
45.54334426320163
 31
0.0
  0
LINE
  5
414
330
6F
100
AcDbEntity
  8
GEO_
 62
     7
420
 16777215
100
AcDbLine
 10
-83.25435555555555
 20
45.54334426320163
 30
0.0
 11
-83.25435555555555
 21
45.54334426320163
 31
0.0
  0
LINE
  5
415
330
6F
100
AcDbEntity
  8
GEO_
 62
     7
420
 16777215
100
AcDbLine
 10
-83.25435555555555
 20
45.54334426320163
 30
0.0
 11
-83.34583333333332
 21
45.2311436297901
 31
0.0
  0
LINE
  5
428
330
6F
100
AcDbEntity
  8
GEO_
 62
     7
420
 16777215
100
AcDbLine
 10
-83.65000000000001
 20
44.67950493102619
 30
0.0
 11
-83.65000000000001
 21
44.67950493102619
 31
0.0
  0
LINE
  5
429
330
6F
100
AcDbEntity
  8
GEO_
 62
     7
420
 16777215
100
AcDbLine
 10
-83.34583333333332
 20
45.2311436297901
 30
0.0
 11
-83.34583333333332
 21
45.2311436297901
 31
0.0
  0
LINE
  5
43C
330
6F
100
AcDbEntity
  8
GEO_
 62
     7
420
 16777215
100
AcDbLine
 10
-83.65000000000001
 20
44.67950493102619
 30
0.0
 11
-83.34583333333332
 21
45.2311436297901
 31
0.0
  0
LINE
  5
43D
330
6F
100
AcDbEntity
  8
GEO_
 62
     7
420
 16777215
100
AcDbLine
 10
-83.34583333333332
 20
45.2311436297901
 30
0.0
 11
-83.25435555555555
 21
45.54334426320163
 31
0.0
  0
LINE
  5
475
330
6F
100
AcDbEntity
  8
GEO_
 62
     7
420
 16777215
100
AcDbLine
 10
-83.65000000000001
 20
44.67950493102619
 30
0.0
 11
-83.65000000000001
 21
44.67950493102619
 31
0.0
  0
LINE
  5
477
330
6F
100
AcDbEntity
  8
GEO_
 62
     7
420
 16777215
100
AcDbLine
 10
-83.65000000000001
 20
44.67950493102619
 30
0.0
 11
-83.34583333333332
 21
45.2311436297901
 31
0.0
  0
LINE
  5
478
330
6F
100
AcDbEntity
  8
GEO_
 62
     7
420
 16777215
100
AcDbLine
 10
-83.34583333333332
 20
45.2311436297901
 30
0.0
 11
-83.34583333333332
 21
45.2311436297901
 31
0.0
  0
LINE
  5
479
330
6F
100
AcDbEntity
  8
GEO_
 62
     7
420
 16777215
100
AcDbLine
 10
-83.34583333333332
 20
45.2311436297901
 30
0.0
 11
-83.65000000000001
 21
44.67950493102619
 31
0.0
  0
LINE
  5
47A
330
6F
100
AcDbEntity
  8
GEO_
 62
     7
420
 16777215
100
AcDbLine
 10
-83.34583333333332
 20
45.2311436297901
 30
0.0
 11
-83.25435555555555
 21
45.54334426320163
 31
0.0
  0
LINE
  5
47B
330
6F
100
AcDbEntity
  8
GEO_
 62
     7
420
 16777215
100
AcDbLine
 10
-83.25435555555555
 20
45.54334426320163
 30
0.0
 11
-83.25435555555555
 21
45.54334426320163
 31
0.0
  0
LINE
  5
47C
330
6F
100
AcDbEntity
  8
GEO_
 62
     7
420
 16777215
100
AcDbLine
 10
-83.25435555555555
 20
45.54334426320163
 30
0.0
 11
-83.34583333333332
 21
45.2311436297901
 31
0.0
  0
LINE
  5
486
330
6F
100
AcDbEntity
  8
GEO_
 62
     7
420
 16777215
100
AcDbLine
 10
-83.65000000000001
 20
44.67950493102619
 30
0.0
 11
-83.34583333333332
 21
45.2311436297901
 31
0.0
  0
LINE
  5
487
330
6F
100
AcDbEntity
  8
GEO_
 62
     7
420
 16777215
100
AcDbLine
 10
-83.34583333333332
 20
45.2311436297901
 30
0.0
 11
-83.25435555555555
 21
45.54334426320163
 31
0.0
  0
LINE
  5
491
330
6F
100
AcDbEntity
  8
GEO_
 62
     7
420
 16777215
100
AcDbLine
 10
-83.65000000000001
 20
44.67950493102619
 30
0.0
 11
-83.34583333333332
 21
45.2311436297901
 31
0.0
  0
LINE
  5
492
330
6F
100
AcDbEntity
  8
GEO_
 62
     7
420
 16777215
100
AcDbLine
 10
-83.34583333333332
 20
45.2311436297901
 30
0.0
 11
-83.25435555555555
 21
45.54334426320163
 31
0.0
  0
LINE
  5
4AF
330
6F
100
AcDbEntity
  8
GEO_
 62
     7
420
 16777215
100
AcDbLine
 10
-83.65000000000001
 20
44.67950493102619
 30
0.0
 11
-83.65000000000001
 21
44.67950493102619
 31
0.0
  0
LINE
  5
4B1
330
6F
100
AcDbEntity
  8
GEO_
 62
     7
420
 16777215
100
AcDbLine
 10
-83.65000000000001
 20
44.67950493102619
 30
0.0
 11
-83.34583333333332
 21
45.2311436297901
 31
0.0
  0
LINE
  5
4B2
330
6F
100
AcDbEntity
  8
GEO_
 62
     7
420
 16777215
100
AcDbLine
 10
-83.34583333333332
 20
45.2311436297901
 30
0.0
 11
-83.34583333333332
 21
45.2311436297901
 31
0.0
  0
LINE
  5
4B3
330
6F
100
AcDbEntity
  8
GEO_
 62
     7
420
 16777215
100
AcDbLine
 10
-83.34583333333332
 20
45.2311436297901
 30
0.0
 11
-83.65000000000001
 21
44.67950493102619
 31
0.0
  0
LINE
  5
4B4
330
6F
100
AcDbEntity
  8
GEO_
 62
     7
420
 16777215
100
AcDbLine
 10
-83.34583333333332
 20
45.2311436297901
 30
0.0
 11
-83.34583333333332
 21
45.2311436297901
 31
0.0
  0
LINE
  5
4B5
330
6F
100
AcDbEntity
  8
GEO_
 62
     7
420
 16777215
100
AcDbLine
 10
-83.25435555555555
 20
45.54334426320163
 30
0.0
 11
-83.25435555555555
 21
45.54334426320163
 31
0.0
  0
LINE
  5
4B6
330
6F
100
AcDbEntity
  8
GEO_
 62
     7
420
 16777215
100
AcDbLine
 10
-83.25435555555555
 20
45.54334426320163
 30
0.0
 11
-83.25435555555555
 21
45.54334426320163
 31
0.0
  0
LINE
  5
656
330
6F
100
AcDbEntity
  8
GEO_
 62
     7
420
 16777215
100
AcDbLine
 10
-83.25435555555555
 20
45.54334426320163
 30
0.0
 11
-83.24555555555557
 21
45.57343985372417
 31
0.0
  0
LINE
  5
657
330
6F
100
AcDbEntity
  8
GEO_
 62
     7
420
 16777215
100
AcDbLine
 10
-83.24555555555557
 20
45.57343985372417
 30
0.0
 11
-83.221875
 21
45.77219184132918
 31
0.0
  0
LINE
  5
658
330
6F
100
AcDbEntity
  8
GEO_
 62
     7
420
 16777215
100
AcDbLine
 10
-83.221875
 20
45.77219184132918
 30
0.0
 11
-83.2513083333333
 21
45.97529814958241
 31
0.0
  0
LINE
  5
66A
330
6F
100
AcDbEntity
  8
GEO_
 62
     7
420
 16777215
100
AcDbLine
 10
-83.25435555555555
 20
45.54334426320163
 30
0.0
 11
-83.24555555555557
 21
45.57343985372417
 31
0.0
  0
LINE
  5
66B
330
6F
100
AcDbEntity
  8
GEO_
 62
     7
420
 16777215
100
AcDbLine
 10
-83.24555555555557
 20
45.57343985372417
 30
0.0
 11
-83.221875
 21
45.77219184132918
 31
0.0
  0
LINE
  5
66C
330
6F
100
AcDbEntity
  8
GEO_
 62
     7
420
 16777215
100
AcDbLine
 10
-83.221875
 20
45.77219184132918
 30
0.0
 11
-83.2513083333333
 21
45.97529814958241
 31
0.0
  0
LINE
  5
68F
330
6F
100
AcDbEntity
  8
GEO_
 62
     7
420
 16777215
100
AcDbLine
 10
-83.25435555555555
 20
45.54334426320163
 30
0.0
 11
-83.25435555555555
 21
45.54334426320163
 31
0.0
  0
LINE
  5
691
330
6F
100
AcDbEntity
  8
GEO_
 62
     7
420
 16777215
100
AcDbLine
 10
-83.25435555555555
 20
45.54334426320163
 30
0.0
 11
-83.24555555555557
 21
45.57343985372417
 31
0.0
  0
LINE
  5
692
330
6F
100
AcDbEntity
  8
GEO_
 62
     7
420
 16777215
100
AcDbLine
 10
-83.24555555555557
 20
45.57343985372417
 30
0.0
 11
-83.24555555555557
 21
45.57343985372417
 31
0.0
  0
LINE
  5
693
330
6F
100
AcDbEntity
  8
GEO_
 62
     7
420
 16777215
100
AcDbLine
 10
-83.24555555555557
 20
45.57343985372417
 30
0.0
 11
-83.25435555555555
 21
45.54334426320163
 31
0.0
  0
LINE
  5
694
330
6F
100
AcDbEntity
  8
GEO_
 62
     7
420
 16777215
100
AcDbLine
 10
-83.24555555555557
 20
45.57343985372417
 30
0.0
 11
-83.221875
 21
45.77219184132918
 31
0.0
  0
LINE
  5
695
330
6F
100
AcDbEntity
  8
GEO_
 62
     7
420
 16777215
100
AcDbLine
 10
-83.221875
 20
45.77219184132918
 30
0.0
 11
-83.221875
 21
45.77219184132918
 31
0.0
  0
LINE
  5
696
330
6F
100
AcDbEntity
  8
GEO_
 62
     7
420
 16777215
100
AcDbLine
 10
-83.221875
 20
45.77219184132918
 30
0.0
 11
-83.24555555555557
 21
45.57343985372417
 31
0.0
  0
LINE
  5
697
330
6F
100
AcDbEntity
  8
GEO_
 62
     7
420
 16777215
100
AcDbLine
 10
-83.221875
 20
45.77219184132918
 30
0.0
 11
-83.2513083333333
 21
45.97529814958241
 31
0.0
  0
LINE
  5
698
330
6F
100
AcDbEntity
  8
GEO_
 62
     7
420
 16777215
100
AcDbLine
 10
-83.2513083333333
 20
45.97529814958241
 30
0.0
 11
-83.2513083333333
 21
45.97529814958241
 31
0.0
  0
LINE
  5
699
330
6F
100
AcDbEntity
  8
GEO_
 62
     7
420
 16777215
100
AcDbLine
 10
-83.2513083333333
 20
45.97529814958241
 30
0.0
 11
-83.221875
 21
45.77219184132918
 31
0.0
  0
LINE
  5
6BF
330
6F
100
AcDbEntity
  8
GEO_
 62
     7
420
 16777215
100
AcDbLine
 10
-83.25435555555555
 20
45.54334426320163
 30
0.0
 11
-83.24555555555557
 21
45.57343985372417
 31
0.0
  0
LINE
  5
6C0
330
6F
100
AcDbEntity
  8
GEO_
 62
     7
420
 16777215
100
AcDbLine
 10
-83.24555555555557
 20
45.57343985372417
 30
0.0
 11
-83.221875
 21
45.77219184132918
 31
0.0
  0
LINE
  5
6C1
330
6F
100
AcDbEntity
  8
GEO_
 62
     7
420
 16777215
100
AcDbLine
 10
-83.221875
 20
45.77219184132918
 30
0.0
 11
-83.2513083333333
 21
45.97529814958241
 31
0.0
  0
LINE
  5
6D5
330
6F
100
AcDbEntity
  8
GEO_
 62
     7
420
 16777215
100
AcDbLine
 10
-83.25435555555555
 20
45.54334426320163
 30
0.0
 11
-83.24555555555557
 21
45.57343985372417
 31
0.0
  0
LINE
  5
6D6
330
6F
100
AcDbEntity
  8
GEO_
 62
     7
420
 16777215
100
AcDbLine
 10
-83.24555555555557
 20
45.57343985372417
 30
0.0
 11
-83.221875
 21
45.77219184132918
 31
0.0
  0
LINE
  5
6D7
330
6F
100
AcDbEntity
  8
GEO_
 62
     7
420
 16777215
100
AcDbLine
 10
-83.221875
 20
45.77219184132918
 30
0.0
 11
-83.2513083333333
 21
45.97529814958241
 31
0.0
  0
LINE
  5
700
330
6F
100
AcDbEntity
  8
GEO_
 62
     7
420
 16777215
100
AcDbLine
 10
-83.25435555555555
 20
45.54334426320163
 30
0.0
 11
-83.25435555555555
 21
45.54334426320163
 31
0.0
  0
LINE
  5
702
330
6F
100
AcDbEntity
  8
GEO_
 62
     7
420
 16777215
100
AcDbLine
 10
-83.25435555555555
 20
45.54334426320163
 30
0.0
 11
-83.24555555555557
 21
45.57343985372417
 31
0.0
  0
LINE
  5
703
330
6F
100
AcDbEntity
  8
GEO_
 62
     7
420
 16777215
100
AcDbLine
 10
-83.24555555555557
 20
45.57343985372417
 30
0.0
 11
-83.24555555555557
 21
45.57343985372417
 31
0.0
  0
LINE
  5
704
330
6F
100
AcDbEntity
  8
GEO_
 62
     7
420
 16777215
100
AcDbLine
 10
-83.24555555555557
 20
45.57343985372417
 30
0.0
 11
-83.25435555555555
 21
45.54334426320163
 31
0.0
  0
LINE
  5
705
330
6F
100
AcDbEntity
  8
GEO_
 62
     7
420
 16777215
100
AcDbLine
 10
-83.24555555555557
 20
45.57343985372417
 30
0.0
 11
-83.221875
 21
45.77219184132918
 31
0.0
  0
LINE
  5
706
330
6F
100
AcDbEntity
  8
GEO_
 62
     7
420
 16777215
100
AcDbLine
 10
-83.221875
 20
45.77219184132918
 30
0.0
 11
-83.221875
 21
45.77219184132918
 31
0.0
  0
LINE
  5
707
330
6F
100
AcDbEntity
  8
GEO_
 62
     7
420
 16777215
100
AcDbLine
 10
-83.221875
 20
45.77219184132918
 30
0.0
 11
-83.24555555555557
 21
45.57343985372417
 31
0.0
  0
LINE
  5
708
330
6F
100
AcDbEntity
  8
GEO_
 62
     7
420
 16777215
100
AcDbLine
 10
-83.221875
 20
45.77219184132918
 30
0.0
 11
-83.2513083333333
 21
45.97529814958241
 31
0.0
  0
LINE
  5
709
330
6F
100
AcDbEntity
  8
GEO_
 62
     7
420
 16777215
100
AcDbLine
 10
-83.2513083333333
 20
45.97529814958241
 30
0.0
 11
-83.2513083333333
 21
45.97529814958241
 31
0.0
  0
LINE
  5
70A
330
6F
100
AcDbEntity
  8
GEO_
 62
     7
420
 16777215
100
AcDbLine
 10
-83.2513083333333
 20
45.97529814958241
 30
0.0
 11
-83.221875
 21
45.77219184132918
 31
0.0
  0
LINE
  5
733
330
6F
100
AcDbEntity
  8
GEO_
 62
     7
420
 16777215
100
AcDbLine
 10
-83.25435555555555
 20
45.54334426320163
 30
0.0
 11
-83.24555555555557
 21
45.57343985372417
 31
0.0
  0
LINE
  5
734
330
6F
100
AcDbEntity
  8
GEO_
 62
     7
420
 16777215
100
AcDbLine
 10
-83.24555555555557
 20
45.57343985372417
 30
0.0
 11
-83.221875
 21
45.77219184132918
 31
0.0
  0
LINE
  5
735
330
6F
100
AcDbEntity
  8
GEO_
 62
     7
420
 16777215
100
AcDbLine
 10
-83.221875
 20
45.77219184132918
 30
0.0
 11
-83.2513083333333
 21
45.97529814958241
 31
0.0
  0
LINE
  5
736
330
6F
100
AcDbEntity
  8
GEO_
 62
     7
420
 16777215
100
AcDbLine
 10
-83.2513083333333
 20
45.97529814958241
 30
0.0
 11
-83.22888888888888
 21
46.10495630047274
 31
0.0
  0
LINE
  5
737
330
6F
100
AcDbEntity
  8
GEO_
 62
     7
420
 16777215
100
AcDbLine
 10
-83.22888888888888
 20
46.10495630047274
 30
0.0
 11
-83.19751944444446
 21
46.28672039255386
 31
0.0
  0
LINE
  5
745
330
6F
100
AcDbEntity
  8
GEO_
 62
     7
420
 16777215
100
AcDbLine
 10
-83.25435555555555
 20
45.54334426320163
 30
0.0
 11
-83.24555555555557
 21
45.57343985372417
 31
0.0
  0
LINE
  5
746
330
6F
100
AcDbEntity
  8
GEO_
 62
     7
420
 16777215
100
AcDbLine
 10
-83.24555555555557
 20
45.57343985372417
 30
0.0
 11
-83.221875
 21
45.77219184132918
 31
0.0
  0
LINE
  5
747
330
6F
100
AcDbEntity
  8
GEO_
 62
     7
420
 16777215
100
AcDbLine
 10
-83.221875
 20
45.77219184132918
 30
0.0
 11
-83.2513083333333
 21
45.97529814958241
 31
0.0
  0
LINE
  5
748
330
6F
100
AcDbEntity
  8
GEO_
 62
     7
420
 16777215
100
AcDbLine
 10
-83.2513083333333
 20
45.97529814958241
 30
0.0
 11
-83.22888888888888
 21
46.10495630047274
 31
0.0
  0
LINE
  5
749
330
6F
100
AcDbEntity
  8
GEO_
 62
     7
420
 16777215
100
AcDbLine
 10
-83.22888888888888
 20
46.10495630047274
 30
0.0
 11
-83.19751944444446
 21
46.28672039255386
 31
0.0
  0
LINE
  5
772
330
6F
100
AcDbEntity
  8
GEO_
 62
     7
420
 16777215
100
AcDbLine
 10
-83.25435555555555
 20
45.54334426320163
 30
0.0
 11
-83.25435555555555
 21
45.54334426320163
 31
0.0
  0
LINE
  5
774
330
6F
100
AcDbEntity
  8
GEO_
 62
     7
420
 16777215
100
AcDbLine
 10
-83.25435555555555
 20
45.54334426320163
 30
0.0
 11
-83.24555555555557
 21
45.57343985372417
 31
0.0
  0
LINE
  5
775
330
6F
100
AcDbEntity
  8
GEO_
 62
     7
420
 16777215
100
AcDbLine
 10
-83.24555555555557
 20
45.57343985372417
 30
0.0
 11
-83.24555555555557
 21
45.57343985372417
 31
0.0
  0
LINE
  5
776
330
6F
100
AcDbEntity
  8
GEO_
 62
     7
420
 16777215
100
AcDbLine
 10
-83.24555555555557
 20
45.57343985372417
 30
0.0
 11
-83.25435555555555
 21
45.54334426320163
 31
0.0
  0
LINE
  5
777
330
6F
100
AcDbEntity
  8
GEO_
 62
     7
420
 16777215
100
AcDbLine
 10
-83.24555555555557
 20
45.57343985372417
 30
0.0
 11
-83.221875
 21
45.77219184132918
 31
0.0
  0
LINE
  5
778
330
6F
100
AcDbEntity
  8
GEO_
 62
     7
420
 16777215
100
AcDbLine
 10
-83.221875
 20
45.77219184132918
 30
0.0
 11
-83.221875
 21
45.77219184132918
 31
0.0
  0
LINE
  5
779
330
6F
100
AcDbEntity
  8
GEO_
 62
     7
420
 16777215
100
AcDbLine
 10
-83.221875
 20
45.77219184132918
 30
0.0
 11
-83.24555555555557
 21
45.57343985372417
 31
0.0
  0
LINE
  5
77A
330
6F
100
AcDbEntity
  8
GEO_
 62
     7
420
 16777215
100
AcDbLine
 10
-83.221875
 20
45.77219184132918
 30
0.0
 11
-83.2513083333333
 21
45.97529814958241
 31
0.0
  0
LINE
  5
77B
330
6F
100
AcDbEntity
  8
GEO_
 62
     7
420
 16777215
100
AcDbLine
 10
-83.2513083333333
 20
45.97529814958241
 30
0.0
 11
-83.2513083333333
 21
45.97529814958241
 31
0.0
  0
LINE
  5
77C
330
6F
100
AcDbEntity
  8
GEO_
 62
     7
420
 16777215
100
AcDbLine
 10
-83.2513083333333
 20
45.97529814958241
 30
0.0
 11
-83.221875
 21
45.77219184132918
 31
0.0
  0
LINE
  5
77D
330
6F
100
AcDbEntity
  8
GEO_
 62
     7
420
 16777215
100
AcDbLine
 10
-83.2513083333333
 20
45.97529814958241
 30
0.0
 11
-83.22888888888888
 21
46.10495630047274
 31
0.0
  0
LINE
  5
77E
330
6F
100
AcDbEntity
  8
GEO_
 62
     7
420
 16777215
100
AcDbLine
 10
-83.22888888888888
 20
46.10495630047274
 30
0.0
 11
-83.22888888888888
 21
46.10495630047274
 31
0.0
  0
LINE
  5
77F
330
6F
100
AcDbEntity
  8
GEO_
 62
     7
420
 16777215
100
AcDbLine
 10
-83.22888888888888
 20
46.10495630047274
 30
0.0
 11
-83.2513083333333
 21
45.97529814958241
 31
0.0
  0
LINE
  5
780
330
6F
100
AcDbEntity
  8
GEO_
 62
     7
420
 16777215
100
AcDbLine
 10
-83.22888888888888
 20
46.10495630047274
 30
0.0
 11
-83.19751944444446
 21
46.28672039255386
 31
0.0
  0
LINE
  5
781
330
6F
100
AcDbEntity
  8
GEO_
 62
     7
420
 16777215
100
AcDbLine
 10
-83.19751944444446
 20
46.28672039255386
 30
0.0
 11
-83.19751944444446
 21
46.28672039255386
 31
0.0
  0
LINE
  5
782
330
6F
100
AcDbEntity
  8
GEO_
 62
     7
420
 16777215
100
AcDbLine
 10
-83.19751944444446
 20
46.28672039255386
 30
0.0
 11
-83.22888888888888
 21
46.10495630047274
 31
0.0
  0
LINE
  5
793
330
6F
100
AcDbEntity
  8
GEO_
 62
     7
420
 16777215
100
AcDbLine
 10
-83.25435555555555
 20
45.54334426320163
 30
0.0
 11
-83.24555555555557
 21
45.57343985372417
 31
0.0
  0
LINE
  5
794
330
6F
100
AcDbEntity
  8
GEO_
 62
     7
420
 16777215
100
AcDbLine
 10
-83.24555555555557
 20
45.57343985372417
 30
0.0
 11
-83.221875
 21
45.77219184132918
 31
0.0
  0
LINE
  5
795
330
6F
100
AcDbEntity
  8
GEO_
 62
     7
420
 16777215
100
AcDbLine
 10
-83.221875
 20
45.77219184132918
 30
0.0
 11
-83.2513083333333
 21
45.97529814958241
 31
0.0
  0
LINE
  5
796
330
6F
100
AcDbEntity
  8
GEO_
 62
     7
420
 16777215
100
AcDbLine
 10
-83.2513083333333
 20
45.97529814958241
 30
0.0
 11
-83.22888888888888
 21
46.10495630047274
 31
0.0
  0
LINE
  5
797
330
6F
100
AcDbEntity
  8
GEO_
 62
     7
420
 16777215
100
AcDbLine
 10
-83.22888888888888
 20
46.10495630047274
 30
0.0
 11
-83.19751944444446
 21
46.28672039255386
 31
0.0
  0
LINE
  5
7A8
330
6F
100
AcDbEntity
  8
GEO_
 62
     7
420
 16777215
100
AcDbLine
 10
-83.25435555555555
 20
45.54334426320163
 30
0.0
 11
-83.24555555555557
 21
45.57343985372417
 31
0.0
  0
LINE
  5
7A9
330
6F
100
AcDbEntity
  8
GEO_
 62
     7
420
 16777215
100
AcDbLine
 10
-83.24555555555557
 20
45.57343985372417
 30
0.0
 11
-83.221875
 21
45.77219184132918
 31
0.0
  0
LINE
  5
7AA
330
6F
100
AcDbEntity
  8
GEO_
 62
     7
420
 16777215
100
AcDbLine
 10
-83.221875
 20
45.77219184132918
 30
0.0
 11
-83.2513083333333
 21
45.97529814958241
 31
0.0
  0
LINE
  5
7AB
330
6F
100
AcDbEntity
  8
GEO_
 62
     7
420
 16777215
100
AcDbLine
 10
-83.2513083333333
 20
45.97529814958241
 30
0.0
 11
-83.22888888888888
 21
46.10495630047274
 31
0.0
  0
LINE
  5
7AC
330
6F
100
AcDbEntity
  8
GEO_
 62
     7
420
 16777215
100
AcDbLine
 10
-83.22888888888888
 20
46.10495630047274
 30
0.0
 11
-83.19751944444446
 21
46.28672039255386
 31
0.0
  0
LINE
  5
7DE
330
6F
100
AcDbEntity
  8
GEO_
 62
     7
420
 16777215
100
AcDbLine
 10
-83.25435555555555
 20
45.54334426320163
 30
0.0
 11
-83.25435555555555
 21
45.54334426320163
 31
0.0
  0
LINE
  5
7E0
330
6F
100
AcDbEntity
  8
GEO_
 62
     7
420
 16777215
100
AcDbLine
 10
-83.25435555555555
 20
45.54334426320163
 30
0.0
 11
-83.24555555555557
 21
45.57343985372417
 31
0.0
  0
LINE
  5
7E1
330
6F
100
AcDbEntity
  8
GEO_
 62
     7
420
 16777215
100
AcDbLine
 10
-83.24555555555557
 20
45.57343985372417
 30
0.0
 11
-83.24555555555557
 21
45.57343985372417
 31
0.0
  0
LINE
  5
7E2
330
6F
100
AcDbEntity
  8
GEO_
 62
     7
420
 16777215
100
AcDbLine
 10
-83.24555555555557
 20
45.57343985372417
 30
0.0
 11
-83.25435555555555
 21
45.54334426320163
 31
0.0
  0
LINE
  5
7E3
330
6F
100
AcDbEntity
  8
GEO_
 62
     7
420
 16777215
100
AcDbLine
 10
-83.24555555555557
 20
45.57343985372417
 30
0.0
 11
-83.221875
 21
45.77219184132918
 31
0.0
  0
LINE
  5
7E4
330
6F
100
AcDbEntity
  8
GEO_
 62
     7
420
 16777215
100
AcDbLine
 10
-83.221875
 20
45.77219184132918
 30
0.0
 11
-83.221875
 21
45.77219184132918
 31
0.0
  0
LINE
  5
7E5
330
6F
100
AcDbEntity
  8
GEO_
 62
     7
420
 16777215
100
AcDbLine
 10
-83.221875
 20
45.77219184132918
 30
0.0
 11
-83.24555555555557
 21
45.57343985372417
 31
0.0
  0
LINE
  5
7E6
330
6F
100
AcDbEntity
  8
GEO_
 62
     7
420
 16777215
100
AcDbLine
 10
-83.221875
 20
45.77219184132918
 30
0.0
 11
-83.2513083333333
 21
45.97529814958241
 31
0.0
  0
LINE
  5
7E7
330
6F
100
AcDbEntity
  8
GEO_
 62
     7
420
 16777215
100
AcDbLine
 10
-83.2513083333333
 20
45.97529814958241
 30
0.0
 11
-83.2513083333333
 21
45.97529814958241
 31
0.0
  0
LINE
  5
7E8
330
6F
100
AcDbEntity
  8
GEO_
 62
     7
420
 16777215
100
AcDbLine
 10
-83.2513083333333
 20
45.97529814958241
 30
0.0
 11
-83.221875
 21
45.77219184132918
 31
0.0
  0
LINE
  5
7E9
330
6F
100
AcDbEntity
  8
GEO_
 62
     7
420
 16777215
100
AcDbLine
 10
-83.2513083333333
 20
45.97529814958241
 30
0.0
 11
-83.22888888888888
 21
46.10495630047274
 31
0.0
  0
LINE
  5
7EA
330
6F
100
AcDbEntity
  8
GEO_
 62
     7
420
 16777215
100
AcDbLine
 10
-83.22888888888888
 20
46.10495630047274
 30
0.0
 11
-83.22888888888888
 21
46.10495630047274
 31
0.0
  0
LINE
  5
7EB
330
6F
100
AcDbEntity
  8
GEO_
 62
     7
420
 16777215
100
AcDbLine
 10
-83.22888888888888
 20
46.10495630047274
 30
0.0
 11
-83.2513083333333
 21
45.97529814958241
 31
0.0
  0
LINE
  5
7EC
330
6F
100
AcDbEntity
  8
GEO_
 62
     7
420
 16777215
100
AcDbLine
 10
-83.22888888888888
 20
46.10495630047274
 30
0.0
 11
-83.19751944444446
 21
46.28672039255386
 31
0.0
  0
LINE
  5
7ED
330
6F
100
AcDbEntity
  8
GEO_
 62
     7
420
 16777215
100
AcDbLine
 10
-83.19751944444446
 20
46.28672039255386
 30
0.0
 11
-83.19751944444446
 21
46.28672039255386
 31
0.0
  0
LINE
  5
7EE
330
6F
100
AcDbEntity
  8
GEO_
 62
     7
420
 16777215
100
AcDbLine
 10
-83.19751944444446
 20
46.28672039255386
 30
0.0
 11
-83.22888888888888
 21
46.10495630047274
 31
0.0
  0
LINE
  5
8CF
330
6F
100
AcDbEntity
  8
GEO_
 62
     7
420
 16777215
100
AcDbLine
 10
-83.74508055555557
 20
46.65665339700722
 30
0.0
 11
-83.78316666666666
 21
46.44717419338787
 31
0.0
  0
LINE
  5
8DC
330
6F
100
AcDbEntity
  8
GEO_
 62
     7
420
 16777215
100
AcDbLine
 10
-83.74508055555557
 20
46.65665339700722
 30
0.0
 11
-83.78316666666666
 21
46.44717419338787
 31
0.0
  0
LINE
  5
8F4
330
6F
100
AcDbEntity
  8
GEO_
 62
     7
420
 16777215
100
AcDbLine
 10
-83.74508055555557
 20
46.65665339700722
 30
0.0
 11
-83.74508055555557
 21
46.65665339700722
 31
0.0
  0
LINE
  5
8F6
330
6F
100
AcDbEntity
  8
GEO_
 62
     7
420
 16777215
100
AcDbLine
 10
-83.74508055555557
 20
46.65665339700722
 30
0.0
 11
-83.78316666666666
 21
46.44717419338787
 31
0.0
  0
LINE
  5
8F7
330
6F
100
AcDbEntity
  8
GEO_
 62
     7
420
 16777215
100
AcDbLine
 10
-83.78316666666666
 20
46.44717419338787
 30
0.0
 11
-83.78316666666666
 21
46.44717419338787
 31
0.0
  0
LINE
  5
8F8
330
6F
100
AcDbEntity
  8
GEO_
 62
     7
420
 16777215
100
AcDbLine
 10
-83.78316666666666
 20
46.44717419338787
 30
0.0
 11
-83.74508055555557
 21
46.65665339700722
 31
0.0
  0
LINE
  5
918
330
6F
100
AcDbEntity
  8
GEO_
 62
     7
420
 16777215
100
AcDbLine
 10
-83.89696944444445
 20
45.95438078503631
 30
0.0
 11
-84.09722222222219
 21
45.6082626153204
 31
0.0
  0
LINE
  5
919
330
6F
100
AcDbEntity
  8
GEO_
 62
     7
420
 16777215
100
AcDbLine
 10
-84.09722222222219
 20
45.6082626153204
 30
0.0
 11
-84.57338055555554
 21
45.31936840898029
 31
0.0
  0
LINE
  5
91A
330
6F
100
AcDbEntity
  8
GEO_
 62
     7
420
 16777215
100
AcDbLine
 10
-84.57338055555554
 20
45.31936840898029
 30
0.0
 11
-84.70916388888891
 21
45.23716466808155
 31
0.0
  0
LINE
  5
92D
330
6F
100
AcDbEntity
  8
GEO_
 62
     7
420
 16777215
100
AcDbLine
 10
-83.89696944444445
 20
45.95438078503631
 30
0.0
 11
-84.09722222222219
 21
45.6082626153204
 31
0.0
  0
LINE
  5
92E
330
6F
100
AcDbEntity
  8
GEO_
 62
     7
420
 16777215
100
AcDbLine
 10
-84.09722222222219
 20
45.6082626153204
 30
0.0
 11
-84.57338055555554
 21
45.31936840898029
 31
0.0
  0
LINE
  5
92F
330
6F
100
AcDbEntity
  8
GEO_
 62
     7
420
 16777215
100
AcDbLine
 10
-84.57338055555554
 20
45.31936840898029
 30
0.0
 11
-84.70916388888891
 21
45.23716466808155
 31
0.0
  0
LINE
  5
957
330
6F
100
AcDbEntity
  8
GEO_
 62
     7
420
 16777215
100
AcDbLine
 10
-83.89696944444445
 20
45.95438078503631
 30
0.0
 11
-83.89696944444445
 21
45.95438078503631
 31
0.0
  0
LINE
  5
959
330
6F
100
AcDbEntity
  8
GEO_
 62
     7
420
 16777215
100
AcDbLine
 10
-83.89696944444445
 20
45.95438078503631
 30
0.0
 11
-84.09722222222219
 21
45.6082626153204
 31
0.0
  0
LINE
  5
95A
330
6F
100
AcDbEntity
  8
GEO_
 62
     7
420
 16777215
100
AcDbLine
 10
-84.09722222222219
 20
45.6082626153204
 30
0.0
 11
-84.09722222222219
 21
45.6082626153204
 31
0.0
  0
LINE
  5
95B
330
6F
100
AcDbEntity
  8
GEO_
 62
     7
420
 16777215
100
AcDbLine
 10
-84.09722222222219
 20
45.6082626153204
 30
0.0
 11
-83.89696944444445
 21
45.95438078503631
 31
0.0
  0
LINE
  5
95C
330
6F
100
AcDbEntity
  8
GEO_
 62
     7
420
 16777215
100
AcDbLine
 10
-84.09722222222219
 20
45.6082626153204
 30
0.0
 11
-84.57338055555554
 21
45.31936840898029
 31
0.0
  0
LINE
  5
95D
330
6F
100
AcDbEntity
  8
GEO_
 62
     7
420
 16777215
100
AcDbLine
 10
-84.57338055555554
 20
45.31936840898029
 30
0.0
 11
-84.57338055555554
 21
45.31936840898029
 31
0.0
  0
LINE
  5
95E
330
6F
100
AcDbEntity
  8
GEO_
 62
     7
420
 16777215
100
AcDbLine
 10
-84.57338055555554
 20
45.31936840898029
 30
0.0
 11
-84.09722222222219
 21
45.6082626153204
 31
0.0
  0
LINE
  5
95F
330
6F
100
AcDbEntity
  8
GEO_
 62
     7
420
 16777215
100
AcDbLine
 10
-84.57338055555554
 20
45.31936840898029
 30
0.0
 11
-84.70916388888891
 21
45.23716466808155
 31
0.0
  0
LINE
  5
960
330
6F
100
AcDbEntity
  8
GEO_
 62
     7
420
 16777215
100
AcDbLine
 10
-84.70916388888891
 20
45.23716466808155
 30
0.0
 11
-84.70916388888891
 21
45.23716466808155
 31
0.0
  0
LINE
  5
961
330
6F
100
AcDbEntity
  8
GEO_
 62
     7
420
 16777215
100
AcDbLine
 10
-84.70916388888891
 20
45.23716466808155
 30
0.0
 11
-84.57338055555554
 21
45.31936840898029
 31
0.0
  0
LINE
  5
97D
330
6F
100
AcDbEntity
  8
GEO_
 62
     7
420
 16777215
100
AcDbLine
 10
-83.78316666666666
 20
46.44717419338787
 30
0.0
 11
-83.8326583333333
 21
46.17486019316203
 31
0.0
  0
LINE
  5
97E
330
6F
100
AcDbEntity
  8
GEO_
 62
     7
420
 16777215
100
AcDbLine
 10
-83.8326583333333
 20
46.17486019316203
 30
0.0
 11
-83.84829999999999
 21
46.08429800632882
 31
0.0
  0
LINE
  5
97F
330
6F
100
AcDbEntity
  8
GEO_
 62
     7
420
 16777215
100
AcDbLine
 10
-83.84829999999999
 20
46.08429800632882
 30
0.0
 11
-83.89696944444445
 21
45.95438078503631
 31
0.0
  0
LINE
  5
980
330
6F
100
AcDbEntity
  8
GEO_
 62
     7
420
 16777215
100
AcDbLine
 10
-83.89696944444445
 20
45.95438078503631
 30
0.0
 11
-84.09722222222219
 21
45.6082626153204
 31
0.0
  0
LINE
  5
981
330
6F
100
AcDbEntity
  8
GEO_
 62
     7
420
 16777215
100
AcDbLine
 10
-84.09722222222219
 20
45.6082626153204
 30
0.0
 11
-84.57338055555554
 21
45.31936840898029
 31
0.0
  0
LINE
  5
982
330
6F
100
AcDbEntity
  8
GEO_
 62
     7
420
 16777215
100
AcDbLine
 10
-84.57338055555554
 20
45.31936840898029
 30
0.0
 11
-84.70916388888891
 21
45.23716466808155
 31
0.0
  0
LINE
  5
98E
330
6F
100
AcDbEntity
  8
GEO_
 62
     7
420
 16777215
100
AcDbLine
 10
-83.78316666666666
 20
46.44717419338787
 30
0.0
 11
-83.8326583333333
 21
46.17486019316203
 31
0.0
  0
LINE
  5
98F
330
6F
100
AcDbEntity
  8
GEO_
 62
     7
420
 16777215
100
AcDbLine
 10
-83.8326583333333
 20
46.17486019316203
 30
0.0
 11
-83.84829999999999
 21
46.08429800632882
 31
0.0
  0
LINE
  5
990
330
6F
100
AcDbEntity
  8
GEO_
 62
     7
420
 16777215
100
AcDbLine
 10
-83.84829999999999
 20
46.08429800632882
 30
0.0
 11
-83.89696944444445
 21
45.95438078503631
 31
0.0
  0
LINE
  5
991
330
6F
100
AcDbEntity
  8
GEO_
 62
     7
420
 16777215
100
AcDbLine
 10
-83.89696944444445
 20
45.95438078503631
 30
0.0
 11
-84.09722222222219
 21
45.6082626153204
 31
0.0
  0
LINE
  5
992
330
6F
100
AcDbEntity
  8
GEO_
 62
     7
420
 16777215
100
AcDbLine
 10
-84.09722222222219
 20
45.6082626153204
 30
0.0
 11
-84.57338055555554
 21
45.31936840898029
 31
0.0
  0
LINE
  5
993
330
6F
100
AcDbEntity
  8
GEO_
 62
     7
420
 16777215
100
AcDbLine
 10
-84.57338055555554
 20
45.31936840898029
 30
0.0
 11
-84.70916388888891
 21
45.23716466808155
 31
0.0
  0
LINE
  5
9A6
330
6F
100
AcDbEntity
  8
GEO_
 62
     7
420
 16777215
100
AcDbLine
 10
-83.78316666666666
 20
46.44717419338787
 30
0.0
 11
-83.78316666666666
 21
46.44717419338787
 31
0.0
  0
LINE
  5
9A8
330
6F
100
AcDbEntity
  8
GEO_
 62
     7
420
 16777215
100
AcDbLine
 10
-83.78316666666666
 20
46.44717419338787
 30
0.0
 11
-83.8326583333333
 21
46.17486019316203
 31
0.0
  0
LINE
  5
9A9
330
6F
100
AcDbEntity
  8
GEO_
 62
     7
420
 16777215
100
AcDbLine
 10
-83.8326583333333
 20
46.17486019316203
 30
0.0
 11
-83.8326583333333
 21
46.17486019316203
 31
0.0
  0
LINE
  5
9AA
330
6F
100
AcDbEntity
  8
GEO_
 62
     7
420
 16777215
100
AcDbLine
 10
-83.8326583333333
 20
46.17486019316203
 30
0.0
 11
-83.78316666666666
 21
46.44717419338787
 31
0.0
  0
LINE
  5
9AB
330
6F
100
AcDbEntity
  8
GEO_
 62
     7
420
 16777215
100
AcDbLine
 10
-83.8326583333333
 20
46.17486019316203
 30
0.0
 11
-83.84829999999999
 21
46.08429800632882
 31
0.0
  0
LINE
  5
9AC
330
6F
100
AcDbEntity
  8
GEO_
 62
     7
420
 16777215
100
AcDbLine
 10
-83.84829999999999
 20
46.08429800632882
 30
0.0
 11
-83.84829999999999
 21
46.08429800632882
 31
0.0
  0
LINE
  5
9AD
330
6F
100
AcDbEntity
  8
GEO_
 62
     7
420
 16777215
100
AcDbLine
 10
-83.84829999999999
 20
46.08429800632882
 30
0.0
 11
-83.8326583333333
 21
46.17486019316203
 31
0.0
  0
LINE
  5
9AE
330
6F
100
AcDbEntity
  8
GEO_
 62
     7
420
 16777215
100
AcDbLine
 10
-83.84829999999999
 20
46.08429800632882
 30
0.0
 11
-83.89696944444445
 21
45.95438078503631
 31
0.0
  0
LINE
  5
9AF
330
6F
100
AcDbEntity
  8
GEO_
 62
     7
420
 16777215
100
AcDbLine
 10
-83.89696944444445
 20
45.95438078503631
 30
0.0
 11
-83.89696944444445
 21
45.95438078503631
 31
0.0
  0
LINE
  5
9B0
330
6F
100
AcDbEntity
  8
GEO_
 62
     7
420
 16777215
100
AcDbLine
 10
-83.89696944444445
 20
45.95438078503631
 30
0.0
 11
-83.84829999999999
 21
46.08429800632882
 31
0.0
  0
LINE
  5
9B1
330
6F
100
AcDbEntity
  8
GEO_
 62
     7
420
 16777215
100
AcDbLine
 10
-83.89696944444445
 20
45.95438078503631
 30
0.0
 11
-84.09722222222219
 21
45.6082626153204
 31
0.0
  0
LINE
  5
9B2
330
6F
100
AcDbEntity
  8
GEO_
 62
     7
420
 16777215
100
AcDbLine
 10
-84.09722222222219
 20
45.6082626153204
 30
0.0
 11
-84.09722222222219
 21
45.6082626153204
 31
0.0
  0
LINE
  5
9B3
330
6F
100
AcDbEntity
  8
GEO_
 62
     7
420
 16777215
100
AcDbLine
 10
-84.09722222222219
 20
45.6082626153204
 30
0.0
 11
-83.89696944444445
 21
45.95438078503631
 31
0.0
  0
LINE
  5
9B4
330
6F
100
AcDbEntity
  8
GEO_
 62
     7
420
 16777215
100
AcDbLine
 10
-84.09722222222219
 20
45.6082626153204
 30
0.0
 11
-84.57338055555554
 21
45.31936840898029
 31
0.0
  0
LINE
  5
9B5
330
6F
100
AcDbEntity
  8
GEO_
 62
     7
420
 16777215
100
AcDbLine
 10
-84.57338055555554
 20
45.31936840898029
 30
0.0
 11
-84.57338055555554
 21
45.31936840898029
 31
0.0
  0
LINE
  5
9B6
330
6F
100
AcDbEntity
  8
GEO_
 62
     7
420
 16777215
100
AcDbLine
 10
-84.57338055555554
 20
45.31936840898029
 30
0.0
 11
-84.09722222222219
 21
45.6082626153204
 31
0.0
  0
LINE
  5
9B7
330
6F
100
AcDbEntity
  8
GEO_
 62
     7
420
 16777215
100
AcDbLine
 10
-84.57338055555554
 20
45.31936840898029
 30
0.0
 11
-84.70916388888891
 21
45.23716466808155
 31
0.0
  0
LINE
  5
9B8
330
6F
100
AcDbEntity
  8
GEO_
 62
     7
420
 16777215
100
AcDbLine
 10
-84.70916388888891
 20
45.23716466808155
 30
0.0
 11
-84.70916388888891
 21
45.23716466808155
 31
0.0
  0
LINE
  5
9B9
330
6F
100
AcDbEntity
  8
GEO_
 62
     7
420
 16777215
100
AcDbLine
 10
-84.70916388888891
 20
45.23716466808155
 30
0.0
 11
-84.57338055555554
 21
45.31936840898029
 31
0.0
  0
LINE
  5
A9A
330
6F
100
AcDbEntity
  8
GEO_
 62
     7
420
 16777215
100
AcDbLine
 10
-83.13023055555554
 20
46.6037986918675
 30
0.0
 11
-83.38852777777779
 21
46.62586874796057
 31
0.0
  0
LINE
  5
A9B
330
6F
100
AcDbEntity
  8
GEO_
 62
     7
420
 16777215
100
AcDbLine
 10
-83.38852777777779
 20
46.62586874796057
 30
0.0
 11
-83.74508055555557
 21
46.65665339700722
 31
0.0
  0
LINE
  5
AB2
330
6F
100
AcDbEntity
  8
GEO_
 62
     7
420
 16777215
100
AcDbLine
 10
-83.13023055555554
 20
46.6037986918675
 30
0.0
 11
-83.38852777777779
 21
46.62586874796057
 31
0.0
  0
LINE
  5
AB3
330
6F
100
AcDbEntity
  8
GEO_
 62
     7
420
 16777215
100
AcDbLine
 10
-83.38852777777779
 20
46.62586874796057
 30
0.0
 11
-83.74508055555557
 21
46.65665339700722
 31
0.0
  0
LINE
  5
AE7
330
6F
100
AcDbEntity
  8
GEO_
 62
     7
420
 16777215
100
AcDbLine
 10
-83.13023055555554
 20
46.6037986918675
 30
0.0
 11
-83.13023055555554
 21
46.6037986918675
 31
0.0
  0
LINE
  5
AE9
330
6F
100
AcDbEntity
  8
GEO_
 62
     7
420
 16777215
100
AcDbLine
 10
-83.13023055555554
 20
46.6037986918675
 30
0.0
 11
-83.38852777777779
 21
46.62586874796057
 31
0.0
  0
LINE
  5
AEA
330
6F
100
AcDbEntity
  8
GEO_
 62
     7
420
 16777215
100
AcDbLine
 10
-83.38852777777779
 20
46.62586874796057
 30
0.0
 11
-83.38852777777779
 21
46.62586874796057
 31
0.0
  0
LINE
  5
AEB
330
6F
100
AcDbEntity
  8
GEO_
 62
     7
420
 16777215
100
AcDbLine
 10
-83.38852777777779
 20
46.62586874796057
 30
0.0
 11
-83.13023055555554
 21
46.6037986918675
 31
0.0
  0
LINE
  5
AEC
330
6F
100
AcDbEntity
  8
GEO_
 62
     7
420
 16777215
100
AcDbLine
 10
-83.38852777777779
 20
46.62586874796057
 30
0.0
 11
-83.74508055555557
 21
46.65665339700722
 31
0.0
  0
LINE
  5
AED
330
6F
100
AcDbEntity
  8
GEO_
 62
     7
420
 16777215
100
AcDbLine
 10
-83.74508055555557
 20
46.65665339700722
 30
0.0
 11
-83.74508055555557
 21
46.65665339700722
 31
0.0
  0
LINE
  5
AEE
330
6F
100
AcDbEntity
  8
GEO_
 62
     7
420
 16777215
100
AcDbLine
 10
-83.74508055555557
 20
46.65665339700722
 30
0.0
 11
-83.38852777777779
 21
46.62586874796057
 31
0.0
  0
LINE
  5
D64
330
6F
100
AcDbEntity
  8
GEO_
 62
     7
420
 16777215
100
AcDbLine
 10
-83.19751944444446
 20
46.28672039255386
 30
0.0
 11
-83.12534722222222
 21
46.45482984295484
 31
0.0
  0
LINE
  5
D65
330
6F
100
AcDbEntity
  8
GEO_
 62
     7
420
 16777215
100
AcDbLine
 10
-83.12534722222222
 20
46.45482984295484
 30
0.0
 11
-83.13023055555554
 21
46.6037986918675
 31
0.0
  0
LINE
  5
D79
330
6F
100
AcDbEntity
  8
GEO_
 62
     7
420
 16777215
100
AcDbLine
 10
-83.19751944444446
 20
46.28672039255386
 30
0.0
 11
-83.12534722222222
 21
46.45482984295484
 31
0.0
  0
LINE
  5
D7A
330
6F
100
AcDbEntity
  8
GEO_
 62
     7
420
 16777215
100
AcDbLine
 10
-83.12534722222222
 20
46.45482984295484
 30
0.0
 11
-83.13023055555554
 21
46.6037986918675
 31
0.0
  0
LINE
  5
DAB
330
6F
100
AcDbEntity
  8
GEO_
 62
     7
420
 16777215
100
AcDbLine
 10
-83.19751944444446
 20
46.28672039255386
 30
0.0
 11
-83.19751944444446
 21
46.28672039255386
 31
0.0
  0
LINE
  5
DAD
330
6F
100
AcDbEntity
  8
GEO_
 62
     7
420
 16777215
100
AcDbLine
 10
-83.19751944444446
 20
46.28672039255386
 30
0.0
 11
-83.12534722222222
 21
46.45482984295484
 31
0.0
  0
LINE
  5
DAE
330
6F
100
AcDbEntity
  8
GEO_
 62
     7
420
 16777215
100
AcDbLine
 10
-83.12534722222222
 20
46.45482984295484
 30
0.0
 11
-83.12534722222222
 21
46.45482984295484
 31
0.0
  0
LINE
  5
DAF
330
6F
100
AcDbEntity
  8
GEO_
 62
     7
420
 16777215
100
AcDbLine
 10
-83.12534722222222
 20
46.45482984295484
 30
0.0
 11
-83.19751944444446
 21
46.28672039255386
 31
0.0
  0
LINE
  5
DB0
330
6F
100
AcDbEntity
  8
GEO_
 62
     7
420
 16777215
100
AcDbLine
 10
-83.12534722222222
 20
46.45482984295484
 30
0.0
 11
-83.13023055555554
 21
46.6037986918675
 31
0.0
  0
LINE
  5
DB1
330
6F
100
AcDbEntity
  8
GEO_
 62
     7
420
 16777215
100
AcDbLine
 10
-83.13023055555554
 20
46.6037986918675
 30
0.0
 11
-83.13023055555554
 21
46.6037986918675
 31
0.0
  0
LINE
  5
DB2
330
6F
100
AcDbEntity
  8
GEO_
 62
     7
420
 16777215
100
AcDbLine
 10
-83.13023055555554
 20
46.6037986918675
 30
0.0
 11
-83.12534722222222
 21
46.45482984295484
 31
0.0
  0
LINE
  5
DD0
330
6F
100
AcDbEntity
  8
GEO_
 62
     7
420
 16777215
100
AcDbLine
 10
-83.19751944444446
 20
46.28672039255386
 30
0.0
 11
-83.39450000000002
 21
46.30834640559696
 31
0.0
  0
LINE
  5
DD1
330
6F
100
AcDbEntity
  8
GEO_
 62
     7
420
 16777215
100
AcDbLine
 10
-83.39450000000002
 20
46.30834640559696
 30
0.0
 11
-83.38852777777779
 21
46.62586874796057
 31
0.0
  0
LINE
  5
DD2
330
6F
100
AcDbEntity
  8
GEO_
 62
     7
420
 16777215
100
AcDbLine
 10
-83.38852777777779
 20
46.62586874796057
 30
0.0
 11
-83.13023055555554
 21
46.6037986918675
 31
0.0
  0
LINE
  5
DE6
330
6F
100
AcDbEntity
  8
GEO_
 62
     7
420
 16777215
100
AcDbLine
 10
-83.19751944444446
 20
46.28672039255386
 30
0.0
 11
-83.39450000000002
 21
46.30834640559696
 31
0.0
  0
LINE
  5
DE7
330
6F
100
AcDbEntity
  8
GEO_
 62
     7
420
 16777215
100
AcDbLine
 10
-83.39450000000002
 20
46.30834640559696
 30
0.0
 11
-83.38852777777779
 21
46.62586874796057
 31
0.0
  0
LINE
  5
DE8
330
6F
100
AcDbEntity
  8
GEO_
 62
     7
420
 16777215
100
AcDbLine
 10
-83.38852777777779
 20
46.62586874796057
 30
0.0
 11
-83.13023055555554
 21
46.6037986918675
 31
0.0
  0
LINE
  5
E19
330
6F
100
AcDbEntity
  8
GEO_
 62
     7
420
 16777215
100
AcDbLine
 10
-83.19751944444446
 20
46.28672039255386
 30
0.0
 11
-83.19751944444446
 21
46.28672039255386
 31
0.0
  0
LINE
  5
E1B
330
6F
100
AcDbEntity
  8
GEO_
 62
     7
420
 16777215
100
AcDbLine
 10
-83.19751944444446
 20
46.28672039255386
 30
0.0
 11
-83.39450000000002
 21
46.30834640559696
 31
0.0
  0
LINE
  5
E1C
330
6F
100
AcDbEntity
  8
GEO_
 62
     7
420
 16777215
100
AcDbLine
 10
-83.39450000000002
 20
46.30834640559696
 30
0.0
 11
-83.39450000000002
 21
46.30834640559696
 31
0.0
  0
LINE
  5
E1D
330
6F
100
AcDbEntity
  8
GEO_
 62
     7
420
 16777215
100
AcDbLine
 10
-83.39450000000002
 20
46.30834640559696
 30
0.0
 11
-83.19751944444446
 21
46.28672039255386
 31
0.0
  0
LINE
  5
E1E
330
6F
100
AcDbEntity
  8
GEO_
 62
     7
420
 16777215
100
AcDbLine
 10
-83.39450000000002
 20
46.30834640559696
 30
0.0
 11
-83.38852777777779
 21
46.62586874796057
 31
0.0
  0
LINE
  5
E1F
330
6F
100
AcDbEntity
  8
GEO_
 62
     7
420
 16777215
100
AcDbLine
 10
-83.38852777777779
 20
46.62586874796057
 30
0.0
 11
-83.38852777777779
 21
46.62586874796057
 31
0.0
  0
LINE
  5
E20
330
6F
100
AcDbEntity
  8
GEO_
 62
     7
420
 16777215
100
AcDbLine
 10
-83.38852777777779
 20
46.62586874796057
 30
0.0
 11
-83.39450000000002
 21
46.30834640559696
 31
0.0
  0
LINE
  5
E21
330
6F
100
AcDbEntity
  8
GEO_
 62
     7
420
 16777215
100
AcDbLine
 10
-83.38852777777779
 20
46.62586874796057
 30
0.0
 11
-83.13023055555554
 21
46.6037986918675
 31
0.0
  0
LINE
  5
E22
330
6F
100
AcDbEntity
  8
GEO_
 62
     7
420
 16777215
100
AcDbLine
 10
-83.13023055555554
 20
46.6037986918675
 30
0.0
 11
-83.13023055555554
 21
46.6037986918675
 31
0.0
  0
LINE
  5
E23
330
6F
100
AcDbEntity
  8
GEO_
 62
     7
420
 16777215
100
AcDbLine
 10
-83.13023055555554
 20
46.6037986918675
 30
0.0
 11
-83.38852777777779
 21
46.62586874796057
 31
0.0
  0
ENDSEC
  0
SECTION
  2
OBJECTS
  0
DICTIONARY
  5
C
330
0
100
AcDbDictionary
281
     1
  3
ACAD_BACKGROUND
350
1AB7
  3
ACAD_CIP_PREVIOUS_PRODUCT_INFO
350
1AB0
  3
ACAD_COLOR
350
62
  3
ACAD_DETAILVIEWSTYLE
350
69
  3
ACAD_GROUP
350
D
  3
ACAD_LAYOUT
350
61
  3
ACAD_MATERIAL
350
10
  3
ACAD_MLEADERSTYLE
350
65
  3
ACAD_MLINESTYLE
350
5E
  3
ACAD_PLOTSETTINGS
350
60
  3
ACAD_PLOTSTYLENAME
350
E
  3
ACAD_SCALELIST
350
42
  3
ACAD_SECTIONVIEWSTYLE
350
67
  3
ACAD_TABLESTYLE
350
63
  3
ACAD_VISUALSTYLE
350
29
  3
ACDB_RECOMPOSE_DATA
350
1AEC
  3
AcDbVariableDictionary
350
1ABA
  0
DICTIONARY
  5
1ACD
330
54
100
AcDbDictionary
280
     1
281
     1
  3
ADSK_XREC_LAYER_RECONCILED
360
1ACE
  0
DICTIONARY
  5
1ACF
330
73
100
AcDbDictionary
280
     1
281
     1
  3
ADSK_XREC_LAYER_RECONCILED
360
1AD0
  0
DICTIONARY
  5
1AD1
330
74
100
AcDbDictionary
280
     1
281
     1
  3
ADSK_XREC_LAYER_RECONCILED
360
1AD2
  0
DICTIONARY
  5
1AD3
330
75
100
AcDbDictionary
280
     1
281
     1
  3
ADSK_XREC_LAYER_RECONCILED
360
1AD4
  0
DICTIONARY
  5
1AD5
330
76
100
AcDbDictionary
280
     1
281
     1
  3
ADSK_XREC_LAYER_RECONCILED
360
1AD6
  0
DICTIONARY
  5
1AD7
330
77
100
AcDbDictionary
280
     1
281
     1
  3
ADSK_XREC_LAYER_RECONCILED
360
1AD8
  0
DICTIONARY
  5
1AD9
330
78
100
AcDbDictionary
280
     1
281
     1
  3
ADSK_XREC_LAYER_RECONCILED
360
1ADA
  0
DICTIONARY
  5
1ADB
330
9B
100
AcDbDictionary
280
     1
281
     1
  3
ADSK_XREC_LAYER_RECONCILED
360
1ADC
  0
DICTIONARY
  5
1AB7
102
{ACAD_REACTORS
330
C
102
}
330
C
100
AcDbDictionary
281
     1
  0
XRECORD
  5
1AB0
102
{ACAD_REACTORS
330
C
102
}
330
C
100
AcDbXrecord
280
     1
300
ACD
300
2019
300
ACD_F_S
  0
DICTIONARY
  5
62
102
{ACAD_REACTORS
330
C
102
}
330
C
100
AcDbDictionary
281
     1
  0
DICTIONARY
  5
69
102
{ACAD_REACTORS
330
C
102
}
330
C
100
AcDbDictionary
281
     1
  3
Imperial24
350
6A
  0
DICTIONARY
  5
D
102
{ACAD_REACTORS
330
C
102
}
330
C
100
AcDbDictionary
281
     1
  0
DICTIONARY
  5
61
102
{ACAD_REACTORS
330
C
102
}
330
C
100
AcDbDictionary
281
     1
  3
Layout1
350
6E
  3
Model
350
72
  0
DICTIONARY
  5
10
102
{ACAD_REACTORS
330
C
102
}
330
C
100
AcDbDictionary
281
     1
  3
ByBlock
350
19
  3
ByLayer
350
11
  3
Global
350
21
  0
DICTIONARY
  5
65
102
{ACAD_REACTORS
330
C
102
}
330
C
100
AcDbDictionary
281
     1
  3
Standard
350
66
  0
DICTIONARY
  5
5E
102
{ACAD_REACTORS
330
C
102
}
330
C
100
AcDbDictionary
281
     1
  3
Standard
350
5F
  0
DICTIONARY
  5
60
102
{ACAD_REACTORS
330
C
102
}
330
C
100
AcDbDictionary
281
     1
  0
ACDBDICTIONARYWDFLT
  5
E
102
{ACAD_REACTORS
330
C
102
}
330
C
100
AcDbDictionary
281
     1
  3
Normal
350
F
100
AcDbDictionaryWithDefault
340
F
  0
DICTIONARY
  5
42
102
{ACAD_REACTORS
330
C
102
}
330
C
100
AcDbDictionary
281
     1
  3
A0
350
43
  3
A1
350
44
  3
A2
350
45
  3
A3
350
46
  3
A4
350
47
  3
A5
350
48
  3
A6
350
49
  3
A7
350
4A
  3
A8
350
4B
  3
A9
350
4C
  3
B0
350
4D
  3
B1
350
4E
  3
B2
350
4F
  3
B3
350
50
  3
B4
350
51
  3
B5
350
52
  3
B6
350
53
  0
DICTIONARY
  5
67
102
{ACAD_REACTORS
330
C
102
}
330
C
100
AcDbDictionary
281
     1
  3
Imperial24
350
68
  0
DICTIONARY
  5
63
102
{ACAD_REACTORS
330
C
102
}
330
C
100
AcDbDictionary
281
     1
  3
Standard
350
64
  0
DICTIONARY
  5
29
102
{ACAD_REACTORS
330
C
102
}
330
C
100
AcDbDictionary
281
     1
  3
2dWireframe
350
2F
  3
Basic
350
2E
  3
Brighten
350
35
  3
ColorChange
350
39
  3
Conceptual
350
32
  3
Dim
350
34
  3
EdgeColorOff
350
41
  3
Facepattern
350
38
  3
Flat
350
2A
  3
FlatWithEdges
350
2B
  3
Gouraud
350
2C
  3
GouraudWithEdges
350
2D
  3
Hidden
350
31
  3
JitterOff
350
3F
  3
Linepattern
350
37
  3
OverhangOff
350
40
  3
Realistic
350
33
  3
Shaded
350
3E
  3
Shaded with edges
350
3D
  3
Shades of Gray
350
3A
  3
Sketchy
350
3B
  3
Thicken
350
36
  3
Wireframe
350
30
  3
X-Ray
350
3C
  0
XRECORD
  5
1AEC
102
{ACAD_REACTORS
330
C
102
}
330
C
100
AcDbXrecord
280
     1
 90
        1
330
64
  0
DICTIONARY
  5
1ABA
102
{ACAD_REACTORS
330
C
102
}
330
C
100
AcDbDictionary
281
     1
  3
CANNOSCALE
350
1AC0
  3
CMLEADERSTYLE
350
1ABC
  3
CTABLESTYLE
350
1ABB
  3
CVIEWDETAILSTYLE
350
1ABD
  3
CVIEWSECTIONSTYLE
350
1ABE
  3
LAYEREVAL
350
1AC2
  3
LAYERNOTIFY
350
1AC3
  3
LIGHTINGUNITS
350
1AC1
  3
MSLTSCALE
350
1ABF
  0
XRECORD
  5
1ACE
102
{ACAD_REACTORS
330
1ACD
102
}
330
1ACD
100
AcDbXrecord
280
     1
290
     1
  0
XRECORD
  5
1AD0
102
{ACAD_REACTORS
330
1ACF
102
}
330
1ACF
100
AcDbXrecord
280
     1
290
     1
  0
XRECORD
  5
1AD2
102
{ACAD_REACTORS
330
1AD1
102
}
330
1AD1
100
AcDbXrecord
280
     1
290
     1
  0
XRECORD
  5
1AD4
102
{ACAD_REACTORS
330
1AD3
102
}
330
1AD3
100
AcDbXrecord
280
     1
290
     1
  0
XRECORD
  5
1AD6
102
{ACAD_REACTORS
330
1AD5
102
}
330
1AD5
100
AcDbXrecord
280
     1
290
     1
  0
XRECORD
  5
1AD8
102
{ACAD_REACTORS
330
1AD7
102
}
330
1AD7
100
AcDbXrecord
280
     1
290
     1
  0
XRECORD
  5
1ADA
102
{ACAD_REACTORS
330
1AD9
102
}
330
1AD9
100
AcDbXrecord
280
     1
290
     1
  0
XRECORD
  5
1ADC
102
{ACAD_REACTORS
330
1ADB
102
}
330
1ADB
100
AcDbXrecord
280
     1
290
     1
  0
ACDBDETAILVIEWSTYLE
  5
6A
102
{ACAD_REACTORS
330
69
102
}
330
69
100
AcDbModelDocViewStyle
 70
     0
  3
Imperial24
290
     0
300
Imperial24
 90
        0
100
AcDbDetailViewStyle
 70
     0
 71
     0
 90
        3
 71
     1
340
55
 62
   256
 40
0.24
340
0
 62
   256
 40
0.24
300

 40
0.36
280
     3
 71
     2
340
5C
 90
       25
 62
   256
 71
     3
340
55
 62
   256
 40
0.24
 90
        1
 40
0.75
 90
        1
300
%<\AcVar ViewType \f "%tc1">% %<\AcVar ViewDetailId>%\PSCALE %<\AcVar ViewScale \f "%sn">%
 71
     4
340
5C
 90
       25
 62
   256
340
5C
 90
       25
 62
   256
280
     0
  0
LAYOUT
  5
6E
102
{ACAD_REACTORS
330
61
102
}
330
61
100
AcDbPlotSettings
  1

  2
\\hpoffice\HP Photosmart Prem C410 series
  4

  6

 40
0.0
 41
0.0
 42
0.0
 43
0.0
 44
0.0
 45
0.0
 46
0.0
 47
0.0
 48
0.0
 49
0.0
140
0.0
141
0.0
142
1.0
143
1.0
 70
   688
 72
     0
 73
     0
 74
     5
  7

 75
    16
147
1.0
 76
     0
 77
     2
 78
   300
148
0.0
149
0.0
100
AcDbLayout
  1
Layout1
 70
     1
 71
     1
 10
0.0
 20
0.0
 11
12.0
 21
9.0
 12
0.0
 22
0.0
 32
0.0
 14
1.000000000000000E+20
 24
1.000000000000000E+20
 34
1.000000000000000E+20
 15
-1.000000000000000E+20
 25
-1.000000000000000E+20
 35
-1.000000000000000E+20
146
0.0
 13
0.0
 23
0.0
 33
0.0
 16
1.0
 26
0.0
 36
0.0
 17
0.0
 27
1.0
 37
0.0
 76
     0
330
6B
  0
LAYOUT
  5
72
102
{ACAD_REACTORS
330
61
102
}
330
61
100
AcDbPlotSettings
  1

  2
\\hpoffice\HP Photosmart Prem C410 series
  4

  6

 40
0.0
 41
0.0
 42
0.0
 43
0.0
 44
0.0
 45
0.0
 46
0.0
 47
0.0
 48
0.0
 49
0.0
140
0.0
141
0.0
142
1.0
143
1.0
 70
  1712
 72
     0
 73
     0
 74
     0
  7

 75
     0
147
1.0
 76
     0
 77
     2
 78
   300
148
0.0
149
0.0
100
AcDbLayout
  1
Model
 70
     1
 71
     0
 10
0.0
 20
0.0
 11
12.0
 21
9.0
 12
0.0
 22
0.0
 32
0.0
 14
0.0
 24
0.0
 34
0.0
 15
0.0
 25
0.0
 35
0.0
146
0.0
 13
0.0
 23
0.0
 33
0.0
 16
1.0
 26
0.0
 36
0.0
 17
0.0
 27
1.0
 37
0.0
 76
     0
330
6F
331
7B
  0
MATERIAL
  5
19
102
{ACAD_XDICTIONARY
360
1A
102
}
102
{ACAD_REACTORS
330
10
102
}
330
10
100
AcDbMaterial
  1
ByBlock
 72
     0
 43
0.0208333333333333
 43
0.0
 43
0.0
 43
0.0
 43
0.0
 43
0.0208333333333333
 43
0.0
 43
0.0
 43
0.0
 43
0.0
 43
1.0
 43
0.0
 43
0.0
 43
0.0
 43
0.0
 43
1.0
 77
     0
 47
0.0208333333333333
 47
0.0
 47
0.0
 47
0.0
 47
0.0
 47
0.0208333333333333
 47
0.0
 47
0.0
 47
0.0
 47
0.0
 47
1.0
 47
0.0
 47
0.0
 47
0.0
 47
0.0
 47
1.0
171
     0
 49
0.0208333333333333
 49
0.0
 49
0.0
 49
0.0
 49
0.0
 49
0.0208333333333333
 49
0.0
 49
0.0
 49
0.0
 49
0.0
 49
1.0
 49
0.0
 49
0.0
 49
0.0
 49
0.0
 49
1.0
175
     0
142
0.0208333333333333
142
0.0
142
0.0
142
0.0
142
0.0
142
0.0208333333333333
142
0.0
142
0.0
142
0.0
142
0.0
142
1.0
142
0.0
142
0.0
142
0.0
142
0.0
142
1.0
179
     0
144
0.0208333333333333
144
0.0
144
0.0
144
0.0
144
0.0
144
0.0208333333333333
144
0.0
144
0.0
144
0.0
144
0.0
144
1.0
144
0.0
144
0.0
144
0.0
144
0.0
144
1.0
147
0.0208333333333333
147
0.0
147
0.0
147
0.0
147
0.0
147
0.0208333333333333
147
0.0
147
0.0
147
0.0
147
0.0
147
1.0
147
0.0
147
0.0
147
0.0
147
0.0
147
1.0
  0
MATERIAL
  5
11
102
{ACAD_XDICTIONARY
360
12
102
}
102
{ACAD_REACTORS
330
10
102
}
330
10
100
AcDbMaterial
  1
ByLayer
 72
     0
 43
0.0208333333333333
 43
0.0
 43
0.0
 43
0.0
 43
0.0
 43
0.0208333333333333
 43
0.0
 43
0.0
 43
0.0
 43
0.0
 43
1.0
 43
0.0
 43
0.0
 43
0.0
 43
0.0
 43
1.0
 77
     0
 47
0.0208333333333333
 47
0.0
 47
0.0
 47
0.0
 47
0.0
 47
0.0208333333333333
 47
0.0
 47
0.0
 47
0.0
 47
0.0
 47
1.0
 47
0.0
 47
0.0
 47
0.0
 47
0.0
 47
1.0
171
     0
 49
0.0208333333333333
 49
0.0
 49
0.0
 49
0.0
 49
0.0
 49
0.0208333333333333
 49
0.0
 49
0.0
 49
0.0
 49
0.0
 49
1.0
 49
0.0
 49
0.0
 49
0.0
 49
0.0
 49
1.0
175
     0
142
0.0208333333333333
142
0.0
142
0.0
142
0.0
142
0.0
142
0.0208333333333333
142
0.0
142
0.0
142
0.0
142
0.0
142
1.0
142
0.0
142
0.0
142
0.0
142
0.0
142
1.0
179
     0
144
0.0208333333333333
144
0.0
144
0.0
144
0.0
144
0.0
144
0.0208333333333333
144
0.0
144
0.0
144
0.0
144
0.0
144
1.0
144
0.0
144
0.0
144
0.0
144
0.0
144
1.0
147
0.0208333333333333
147
0.0
147
0.0
147
0.0
147
0.0
147
0.0208333333333333
147
0.0
147
0.0
147
0.0
147
0.0
147
1.0
147
0.0
147
0.0
147
0.0
147
0.0
147
1.0
  0
MATERIAL
  5
21
102
{ACAD_XDICTIONARY
360
22
102
}
102
{ACAD_REACTORS
330
10
102
}
330
10
100
AcDbMaterial
  1
Global
 72
     0
 43
0.0208333333333333
 43
0.0
 43
0.0
 43
0.0
 43
0.0
 43
0.0208333333333333
 43
0.0
 43
0.0
 43
0.0
 43
0.0
 43
1.0
 43
0.0
 43
0.0
 43
0.0
 43
0.0
 43
1.0
 77
     0
 47
0.0208333333333333
 47
0.0
 47
0.0
 47
0.0
 47
0.0
 47
0.0208333333333333
 47
0.0
 47
0.0
 47
0.0
 47
0.0
 47
1.0
 47
0.0
 47
0.0
 47
0.0
 47
0.0
 47
1.0
171
     0
 49
0.0208333333333333
 49
0.0
 49
0.0
 49
0.0
 49
0.0
 49
0.0208333333333333
 49
0.0
 49
0.0
 49
0.0
 49
0.0
 49
1.0
 49
0.0
 49
0.0
 49
0.0
 49
0.0
 49
1.0
175
     0
142
0.0208333333333333
142
0.0
142
0.0
142
0.0
142
0.0
142
0.0208333333333333
142
0.0
142
0.0
142
0.0
142
0.0
142
1.0
142
0.0
142
0.0
142
0.0
142
0.0
142
1.0
179
     0
144
0.0208333333333333
144
0.0
144
0.0
144
0.0
144
0.0
144
0.0208333333333333
144
0.0
144
0.0
144
0.0
144
0.0
144
1.0
144
0.0
144
0.0
144
0.0
144
0.0
144
1.0
147
0.0208333333333333
147
0.0
147
0.0
147
0.0
147
0.0
147
0.0208333333333333
147
0.0
147
0.0
147
0.0
147
0.0
147
1.0
147
0.0
147
0.0
147
0.0
147
0.0
147
1.0
  0
MLEADERSTYLE
  5
66
102
{ACAD_REACTORS
330
65
102
}
330
65
100
AcDbMLeaderStyle
179
     2
170
     2
171
     1
172
     0
 90
        2
 40
0.0
 41
0.0
173
     1
 91
-1056964608
340
5A
 92
       -2
290
     1
 42
0.09
291
     1
 43
0.36
  3
Standard
 44
0.18
300

342
55
174
     1
178
     6
175
     1
176
     0
 93
-1056964608
 45
0.18
292
     0
297
     0
 46
0.18
 94
-1056964608
 47
1.0
 49
1.0
140
1.0
293
     1
141
0.0
294
     1
177
     0
142
1.0
295
     0
296
     0
143
0.125
271
     0
272
     9
273
     9
298
     0
  0
MLINESTYLE
  5
5F
102
{ACAD_REACTORS
330
5E
102
}
330
5E
100
AcDbMlineStyle
  2
STANDARD
 70
     0
  3

 62
   256
 51
90.0
 52
90.0
 71
     2
 49
0.5
 62
   256
  6
BYLAYER
 49
-0.5
 62
   256
  6
BYLAYER
  0
ACDBPLACEHOLDER
  5
F
102
{ACAD_REACTORS
330
E
102
}
330
E
  0
SCALE
  5
43
102
{ACAD_REACTORS
330
42
102
}
330
42
100
AcDbScale
 70
     0
300
1:1
140
1.0
141
1.0
290
     1
  0
SCALE
  5
44
102
{ACAD_REACTORS
330
42
102
}
330
42
100
AcDbScale
 70
     0
300
1/128" = 1'-0"
140
0.0078125
141
12.0
290
     0
  0
SCALE
  5
45
102
{ACAD_REACTORS
330
42
102
}
330
42
100
AcDbScale
 70
     0
300
1/64" = 1'-0"
140
0.015625
141
12.0
290
     0
  0
SCALE
  5
46
102
{ACAD_REACTORS
330
42
102
}
330
42
100
AcDbScale
 70
     0
300
1/32" = 1'-0"
140
0.03125
141
12.0
290
     0
  0
SCALE
  5
47
102
{ACAD_REACTORS
330
42
102
}
330
42
100
AcDbScale
 70
     0
300
1/16" = 1'-0"
140
0.0625
141
12.0
290
     0
  0
SCALE
  5
48
102
{ACAD_REACTORS
330
42
102
}
330
42
100
AcDbScale
 70
     0
300
3/32" = 1'-0"
140
0.09375
141
12.0
290
     0
  0
SCALE
  5
49
102
{ACAD_REACTORS
330
42
102
}
330
42
100
AcDbScale
 70
     0
300
1/8" = 1'-0"
140
0.125
141
12.0
290
     0
  0
SCALE
  5
4A
102
{ACAD_REACTORS
330
42
102
}
330
42
100
AcDbScale
 70
     0
300
3/16" = 1'-0"
140
0.1875
141
12.0
290
     0
  0
SCALE
  5
4B
102
{ACAD_REACTORS
330
42
102
}
330
42
100
AcDbScale
 70
     0
300
1/4" = 1'-0"
140
0.25
141
12.0
290
     0
  0
SCALE
  5
4C
102
{ACAD_REACTORS
330
42
102
}
330
42
100
AcDbScale
 70
     0
300
3/8" = 1'-0"
140
0.375
141
12.0
290
     0
  0
SCALE
  5
4D
102
{ACAD_REACTORS
330
42
102
}
330
42
100
AcDbScale
 70
     0
300
1/2" = 1'-0"
140
0.5
141
12.0
290
     0
  0
SCALE
  5
4E
102
{ACAD_REACTORS
330
42
102
}
330
42
100
AcDbScale
 70
     0
300
3/4" = 1'-0"
140
0.75
141
12.0
290
     0
  0
SCALE
  5
4F
102
{ACAD_REACTORS
330
42
102
}
330
42
100
AcDbScale
 70
     0
300
1" = 1'-0"
140
1.0
141
12.0
290
     0
  0
SCALE
  5
50
102
{ACAD_REACTORS
330
42
102
}
330
42
100
AcDbScale
 70
     0
300
1-1/2" = 1'-0"
140
1.5
141
12.0
290
     0
  0
SCALE
  5
51
102
{ACAD_REACTORS
330
42
102
}
330
42
100
AcDbScale
 70
     0
300
3" = 1'-0"
140
3.0
141
12.0
290
     0
  0
SCALE
  5
52
102
{ACAD_REACTORS
330
42
102
}
330
42
100
AcDbScale
 70
     0
300
6" = 1'-0"
140
6.0
141
12.0
290
     0
  0
SCALE
  5
53
102
{ACAD_REACTORS
330
42
102
}
330
42
100
AcDbScale
 70
     0
300
1'-0" = 1'-0"
140
12.0
141
12.0
290
     0
  0
ACDBSECTIONVIEWSTYLE
  5
68
102
{ACAD_REACTORS
330
67
102
}
330
67
100
AcDbModelDocViewStyle
 70
     0
  3
Imperial24
290
     0
300
Imperial24
 90
        0
100
AcDbSectionViewStyle
 70
     0
 71
     0
 90
       78
 71
     1
340
55
 62
   256
 40
0.24
340
0
340
0
 62
   256
 40
0.24
300
I, O, Q, S, X, Z
 40
0.48
 90
        3
 40
0.18
 90
        1
 71
     2
340
5C
 90
       25
 62
   256
340
5C
 90
       50
 62
   256
 40
0.24
 40
0.0
 40
0.24
 71
     3
340
55
 62
   256
 40
0.24
 90
        1
 40
0.75
 90
        1
300
%<\AcVar ViewType \f "%tc1">% %<\AcVar ViewSectionStartId>%-%<\AcVar ViewSectionEndId>%\PSCALE %<\AcVar ViewScale \f "%sn">%
 71
     4
 62
   256
 62
   257
300
ANSI31
 40
1.0
 90
        0
290
     0
290
     0
 90
        6
 40
0.0
 40
1.570796326794896
 40
0.2617993877991494
 40
1.308996938995747
 40
-0.2617993877991494
 40
1.832595714594044
  0
TABLESTYLE
  5
64
102
{ACAD_XDICTIONARY
360
1AC5
102
}
102
{ACAD_REACTORS
330
63
102
}
330
63
100
AcDbTableStyle
280
     0
  3
Standard
 70
     0
 71
     0
 40
0.06
 41
0.06
280
     0
281
     0
  7
STANDARD
140
0.18
170
     2
 62
     0
 63
     7
283
     0
 90
      512
 91
        0
  1

274
    -2
284
     1
 64
     0
275
    -2
285
     1
 65
     0
276
    -2
286
     1
 66
     0
277
    -2
287
     1
 67
     0
278
    -2
288
     1
 68
     0
279
    -2
289
     1
 69
     0
  7
STANDARD
140
0.25
170
     5
 62
     0
 63
     7
283
     0
 90
      512
 91
        0
  1

274
    -2
284
     1
 64
     0
275
    -2
285
     1
 65
     0
276
    -2
286
     1
 66
     0
277
    -2
287
     1
 67
     0
278
    -2
288
     1
 68
     0
279
    -2
289
     1
 69
     0
  7
STANDARD
140
0.18
170
     5
 62
     0
 63
     7
283
     0
 90
      512
 91
        0
  1

274
    -2
284
     1
 64
     0
275
    -2
285
     1
 65
     0
276
    -2
286
     1
 66
     0
277
    -2
287
     1
 67
     0
278
    -2
288
     1
 68
     0
279
    -2
289
     1
 69
     0
  0
VISUALSTYLE
  5
2F
102
{ACAD_REACTORS
330
29
102
}
330
29
100
AcDbVisualStyle
  2
2dWireframe
 70
     4
177
     3
291
     0
 70
    58
 90
        0
176
     1
 90
        2
176
     1
 90
        0
176
     1
 90
        0
176
     1
 40
0.6
176
     1
 40
30.0
176
     1
 62
     7
420
 16777215
176
     1
 90
        1
176
     1
 90
        4
176
     1
 62
     7
176
     1
 62
   257
176
     1
 90
        1
176
     1
 90
        1
176
     1
 40
1.0
176
     1
 90
        0
176
     1
 62
   257
176
     1
 40
1.0
176
     1
 90
        1
176
     1
 90
        6
176
     1
 90
        2
176
     1
 62
     7
176
     1
 90
        5
176
     1
 90
        0
176
     1
 90
        0
176
     1
290
     0
176
     1
 90
        1
176
     1
 40
0.0
176
     1
 90
        0
176
     1
290
     1
176
     1
290
     1
176
     1
290
     0
176
     1
290
     0
176
     1
290
     0
176
     1
290
     0
176
     1
290
     0
176
     1
290
     0
176
     1
290
     0
176
     1
 90
       50
176
     1
 40
0.0
176
     1
 40
1.0
176
     1
 90
        0
176
     1
 62
    18
176
     1
 90
       50
176
     1
 90
        3
176
     1
 62
     5
420
      255
176
     1
290
     0
176
     1
 90
       50
176
     1
 90
       50
176
     1
 90
       50
176
     1
290
     0
176
     1
 90
       50
176
     1
 62
   256
176
     0
 40
1.0
176
     0
 90
        2
176
     1
  1
strokes_ogs.tif
176
     1
290
     0
176
     1
 40
1.0
176
     1
 40
1.0
176
     1
  0
VISUALSTYLE
  5
2E
102
{ACAD_REACTORS
330
29
102
}
330
29
100
AcDbVisualStyle
  2
Basic
 70
     7
177
     3
291
     1
 70
    58
 90
        1
176
     1
 90
        0
176
     1
 90
        1
176
     1
 90
        0
176
     1
 40
0.6
176
     1
 40
30.0
176
     1
 62
     7
420
 16777215
176
     1
 90
        0
176
     1
 90
        4
176
     1
 62
     7
176
     1
 62
   257
176
     1
 90
        1
176
     1
 90
        1
176
     1
 40
1.0
176
     1
 90
        8
176
     1
 62
     7
176
     1
 40
1.0
176
     1
 90
        1
176
     1
 90
        6
176
     1
 90
        2
176
     1
 62
     7
176
     1
 90
        5
176
     1
 90
        0
176
     1
 90
        0
176
     1
290
     0
176
     1
 90
        1
176
     1
 40
0.0
176
     1
 90
        0
176
     1
290
     0
176
     1
290
     1
176
     1
290
     1
176
     1
290
     0
176
     1
290
     0
176
     1
290
     0
176
     1
290
     0
176
     1
290
     0
176
     1
290
     0
176
     1
 90
       50
176
     1
 40
0.0
176
     1
 40
1.0
176
     1
 90
        0
176
     1
 62
    18
176
     1
 90
       50
176
     1
 90
        3
176
     1
 62
     5
420
      255
176
     1
290
     0
176
     1
 90
       50
176
     1
 90
       50
176
     1
 90
       50
176
     1
290
     0
176
     1
 90
       50
176
     1
 62
   256
176
     0
 40
1.0
176
     0
 90
        2
176
     1
  1
strokes_ogs.tif
176
     1
290
     0
176
     1
 40
1.0
176
     1
 40
1.0
176
     1
  0
VISUALSTYLE
  5
35
102
{ACAD_REACTORS
330
29
102
}
330
29
100
AcDbVisualStyle
  2
Brighten
 70
    12
177
     3
291
     1
 70
    58
 90
        2
176
     1
 90
        2
176
     1
 90
        0
176
     1
 90
        0
176
     1
 40
0.6
176
     1
 40
30.0
176
     1
 62
     7
420
 16777215
176
     1
 90
        1
176
     1
 90
        4
176
     1
 62
     7
176
     1
 62
   257
176
     1
 90
        1
176
     1
 90
        1
176
     1
 40
1.0
176
     1
 90
        8
176
     1
 62
     7
176
     1
 40
1.0
176
     1
 90
        1
176
     1
 90
        6
176
     1
 90
        2
176
     1
 62
     7
176
     1
 90
        5
176
     1
 90
        0
176
     1
 90
        0
176
     1
290
     0
176
     1
 90
        1
176
     1
 40
50.0
176
     1
 90
        0
176
     1
290
     0
176
     1
290
     1
176
     1
290
     1
176
     1
290
     0
176
     1
290
     0
176
     1
290
     0
176
     1
290
     0
176
     1
290
     0
176
     1
290
     0
176
     1
 90
       50
176
     1
 40
0.0
176
     1
 40
1.0
176
     1
 90
        0
176
     1
 62
    18
176
     1
 90
       50
176
     1
 90
        3
176
     1
 62
     5
420
      255
176
     1
290
     0
176
     1
 90
       50
176
     1
 90
       50
176
     1
 90
       50
176
     1
290
     0
176
     1
 90
       50
176
     1
 62
   256
176
     0
 40
1.0
176
     0
 90
        2
176
     1
  1
strokes_ogs.tif
176
     1
290
     0
176
     1
 40
1.0
176
     1
 40
1.0
176
     1
  0
VISUALSTYLE
  5
39
102
{ACAD_REACTORS
330
29
102
}
330
29
100
AcDbVisualStyle
  2
ColorChange
 70
    16
177
     3
291
     1
 70
    58
 90
        2
176
     1
 90
        2
176
     1
 90
        3
176
     1
 90
        0
176
     1
 40
0.6
176
     1
 40
30.0
176
     1
 62
     8
420
  8421504
176
     1
 90
        1
176
     1
 90
        4
176
     1
 62
     7
176
     1
 62
   257
176
     1
 90
        1
176
     1
 90
        1
176
     1
 40
1.0
176
     1
 90
        8
176
     1
 62
     8
420
  8421504
176
     1
 40
1.0
176
     1
 90
        1
176
     1
 90
        6
176
     1
 90
        2
176
     1
 62
     7
176
     1
 90
        5
176
     1
 90
        0
176
     1
 90
        0
176
     1
290
     0
176
     1
 90
        1
176
     1
 40
0.0
176
     1
 90
        0
176
     1
290
     0
176
     1
290
     1
176
     1
290
     1
176
     1
290
     0
176
     1
290
     0
176
     1
290
     0
176
     1
290
     0
176
     1
290
     0
176
     1
290
     0
176
     1
 90
       50
176
     1
 40
0.0
176
     1
 40
1.0
176
     1
 90
        0
176
     1
 62
    18
176
     1
 90
       50
176
     1
 90
        3
176
     1
 62
     5
420
      255
176
     1
290
     0
176
     1
 90
       50
176
     1
 90
       50
176
     1
 90
       50
176
     1
290
     0
176
     1
 90
       50
176
     1
 62
   256
176
     0
 40
1.0
176
     0
 90
        2
176
     1
  1
strokes_ogs.tif
176
     1
290
     0
176
     1
 40
1.0
176
     1
 40
1.0
176
     1
  0
VISUALSTYLE
  5
32
102
{ACAD_REACTORS
330
29
102
}
330
29
100
AcDbVisualStyle
  2
Conceptual
 70
     9
177
     3
291
     0
 70
    58
 90
        3
176
     1
 90
        2
176
     1
 90
        0
176
     1
 90
        0
176
     1
 40
0.6
176
     1
 40
30.0
176
     1
 62
     7
420
 16777215
176
     1
 90
        2
176
     1
 90
        2
176
     1
 62
     7
176
     1
 62
   257
176
     1
 90
        1
176
     1
 90
        1
176
     1
 40
179.0
176
     1
 90
        8
176
     1
 62
     7
176
     1
 40
1.0
176
     1
 90
        1
176
     1
 90
        6
176
     1
 90
        2
176
     1
 62
     7
176
     1
 90
        3
176
     1
 90
        0
176
     1
 90
        0
176
     1
290
     0
176
     1
 90
        1
176
     1
 40
0.0
176
     1
 90
        0
176
     1
290
     0
176
     1
290
     1
176
     1
290
     1
176
     1
290
     0
176
     1
290
     0
176
     1
290
     0
176
     1
290
     0
176
     1
290
     0
176
     1
290
     0
176
     1
 90
       50
176
     1
 40
0.0
176
     1
 40
1.0
176
     1
 90
        0
176
     1
 62
    18
176
     1
 90
       50
176
     1
 90
        3
176
     1
 62
     5
420
      255
176
     1
290
     0
176
     1
 90
       50
176
     1
 90
       50
176
     1
 90
       50
176
     1
290
     0
176
     1
 90
       50
176
     1
 62
   256
176
     0
 40
1.0
176
     0
 90
        2
176
     1
  1
strokes_ogs.tif
176
     1
290
     0
176
     1
 40
1.0
176
     1
 40
1.0
176
     1
  0
VISUALSTYLE
  5
34
102
{ACAD_REACTORS
330
29
102
}
330
29
100
AcDbVisualStyle
  2
Dim
 70
    11
177
     3
291
     1
 70
    58
 90
        2
176
     1
 90
        2
176
     1
 90
        0
176
     1
 90
        0
176
     1
 40
0.6
176
     1
 40
30.0
176
     1
 62
     7
420
 16777215
176
     1
 90
        1
176
     1
 90
        4
176
     1
 62
     7
176
     1
 62
   257
176
     1
 90
        1
176
     1
 90
        1
176
     1
 40
1.0
176
     1
 90
        8
176
     1
 62
     7
176
     1
 40
1.0
176
     1
 90
        1
176
     1
 90
        6
176
     1
 90
        2
176
     1
 62
     7
176
     1
 90
        5
176
     1
 90
        0
176
     1
 90
        0
176
     1
290
     0
176
     1
 90
        1
176
     1
 40
-50.0
176
     1
 90
        0
176
     1
290
     0
176
     1
290
     1
176
     1
290
     1
176
     1
290
     0
176
     1
290
     0
176
     1
290
     0
176
     1
290
     0
176
     1
290
     0
176
     1
290
     0
176
     1
 90
       50
176
     1
 40
0.0
176
     1
 40
1.0
176
     1
 90
        0
176
     1
 62
    18
176
     1
 90
       50
176
     1
 90
        3
176
     1
 62
     5
420
      255
176
     1
290
     0
176
     1
 90
       50
176
     1
 90
       50
176
     1
 90
       50
176
     1
290
     0
176
     1
 90
       50
176
     1
 62
   256
176
     0
 40
1.0
176
     0
 90
        2
176
     1
  1
strokes_ogs.tif
176
     1
290
     0
176
     1
 40
1.0
176
     1
 40
1.0
176
     1
  0
VISUALSTYLE
  5
41
102
{ACAD_REACTORS
330
29
102
}
330
29
100
AcDbVisualStyle
  2
EdgeColorOff
 70
    22
177
     3
291
     1
 70
    58
 90
        2
176
     0
 90
        2
176
     0
 90
        0
176
     0
 90
        0
176
     0
 40
0.6
176
     0
 40
30.0
176
     0
 62
     7
420
 16777215
176
     0
 90
        1
176
     0
 90
        4
176
     0
 62
     7
176
     0
 62
   257
176
     0
 90
        1
176
     0
 90
        1
176
     0
 40
1.0
176
     0
 90
        8
176
     2
 62
     7
176
     0
 40
1.0
176
     0
 90
        1
176
     0
 90
        6
176
     0
 90
        2
176
     0
 62
     7
176
     0
 90
        5
176
     0
 90
        0
176
     0
 90
        0
176
     0
290
     0
176
     0
 90
        1
176
     0
 40
0.0
176
     0
 90
        0
176
     0
290
     0
176
     1
290
     1
176
     1
290
     1
176
     1
290
     0
176
     1
290
     0
176
     1
290
     0
176
     1
290
     0
176
     1
290
     0
176
     1
290
     0
176
     1
 90
       50
176
     0
 40
0.0
176
     0
 40
1.0
176
     0
 90
        0
176
     0
 62
    18
176
     0
 90
       50
176
     0
 90
        3
176
     0
 62
     5
420
      255
176
     0
290
     0
176
     1
 90
       50
176
     0
 90
       50
176
     0
 90
       50
176
     0
290
     0
176
     1
 90
       50
176
     0
 62
   256
176
     0
 40
1.0
176
     0
 90
        2
176
     0
  1
strokes_ogs.tif
176
     0
290
     0
176
     1
 40
1.0
176
     0
 40
1.0
176
     0
  0
VISUALSTYLE
  5
38
102
{ACAD_REACTORS
330
29
102
}
330
29
100
AcDbVisualStyle
  2
Facepattern
 70
    15
177
     3
291
     1
 70
    58
 90
        2
176
     1
 90
        2
176
     1
 90
        0
176
     1
 90
        0
176
     1
 40
0.6
176
     1
 40
30.0
176
     1
 62
     7
420
 16777215
176
     1
 90
        1
176
     1
 90
        4
176
     1
 62
     7
176
     1
 62
   257
176
     1
 90
        1
176
     1
 90
        1
176
     1
 40
1.0
176
     1
 90
        8
176
     1
 62
     7
176
     1
 40
1.0
176
     1
 90
        1
176
     1
 90
        6
176
     1
 90
        2
176
     1
 62
     7
176
     1
 90
        5
176
     1
 90
        0
176
     1
 90
        0
176
     1
290
     0
176
     1
 90
        1
176
     1
 40
0.0
176
     1
 90
        0
176
     1
290
     0
176
     1
290
     1
176
     1
290
     1
176
     1
290
     0
176
     1
290
     0
176
     1
290
     0
176
     1
290
     0
176
     1
290
     0
176
     1
290
     0
176
     1
 90
       50
176
     1
 40
0.0
176
     1
 40
1.0
176
     1
 90
        0
176
     1
 62
    18
176
     1
 90
       50
176
     1
 90
        3
176
     1
 62
     5
420
      255
176
     1
290
     0
176
     1
 90
       50
176
     1
 90
       50
176
     1
 90
       50
176
     1
290
     0
176
     1
 90
       50
176
     1
 62
   256
176
     0
 40
1.0
176
     0
 90
        2
176
     1
  1
strokes_ogs.tif
176
     1
290
     0
176
     1
 40
1.0
176
     1
 40
1.0
176
     1
  0
VISUALSTYLE
  5
2A
102
{ACAD_REACTORS
330
29
102
}
330
29
100
AcDbVisualStyle
  2
Flat
 70
     0
177
     3
291
     1
 70
    58
 90
        2
176
     1
 90
        1
176
     1
 90
        1
176
     1
 90
        2
176
     1
 40
0.6
176
     1
 40
30.0
176
     1
 62
     7
420
 16777215
176
     1
 90
        0
176
     1
 90
        0
176
     1
 62
     7
176
     1
 62
   257
176
     1
 90
        1
176
     1
 90
        1
176
     1
 40
1.0
176
     1
 90
        8
176
     1
 62
     7
176
     1
 40
1.0
176
     1
 90
        1
176
     1
 90
        6
176
     1
 90
        2
176
     1
 62
     7
176
     1
 90
        5
176
     1
 90
        0
176
     1
 90
        0
176
     1
290
     0
176
     1
 90
       13
176
     1
 40
0.0
176
     1
 90
        0
176
     1
290
     0
176
     1
290
     1
176
     1
290
     1
176
     1
290
     0
176
     1
290
     0
176
     1
290
     0
176
     1
290
     0
176
     1
290
     0
176
     1
290
     0
176
     1
 90
       50
176
     1
 40
0.0
176
     1
 40
1.0
176
     1
 90
        0
176
     1
 62
    18
176
     1
 90
       50
176
     1
 90
        3
176
     1
 62
     5
420
      255
176
     1
290
     0
176
     1
 90
       50
176
     1
 90
       50
176
     1
 90
       50
176
     1
290
     0
176
     1
 90
       50
176
     1
 62
   256
176
     0
 40
1.0
176
     0
 90
        2
176
     1
  1
strokes_ogs.tif
176
     1
290
     0
176
     1
 40
1.0
176
     1
 40
1.0
176
     1
  0
VISUALSTYLE
  5
2B
102
{ACAD_REACTORS
330
29
102
}
330
29
100
AcDbVisualStyle
  2
FlatWithEdges
 70
     1
177
     3
291
     1
 70
    58
 90
        2
176
     1
 90
        1
176
     1
 90
        1
176
     1
 90
        2
176
     1
 40
0.6
176
     1
 40
30.0
176
     1
 62
     7
420
 16777215
176
     1
 90
        1
176
     1
 90
        0
176
     1
 62
     7
176
     1
 62
   257
176
     1
 90
        1
176
     1
 90
        1
176
     1
 40
1.0
176
     1
 90
        0
176
     1
 62
   257
176
     1
 40
1.0
176
     1
 90
        1
176
     1
 90
        6
176
     1
 90
        2
176
     1
 62
     7
176
     1
 90
        5
176
     1
 90
        0
176
     1
 90
        0
176
     1
290
     0
176
     1
 90
       13
176
     1
 40
0.0
176
     1
 90
        0
176
     1
290
     0
176
     1
290
     1
176
     1
290
     1
176
     1
290
     0
176
     1
290
     0
176
     1
290
     0
176
     1
290
     0
176
     1
290
     0
176
     1
290
     0
176
     1
 90
       50
176
     1
 40
0.0
176
     1
 40
1.0
176
     1
 90
        0
176
     1
 62
    18
176
     1
 90
       50
176
     1
 90
        3
176
     1
 62
     5
420
      255
176
     1
290
     0
176
     1
 90
       50
176
     1
 90
       50
176
     1
 90
       50
176
     1
290
     0
176
     1
 90
       50
176
     1
 62
   256
176
     0
 40
1.0
176
     0
 90
        2
176
     1
  1
strokes_ogs.tif
176
     1
290
     0
176
     1
 40
1.0
176
     1
 40
1.0
176
     1
  0
VISUALSTYLE
  5
2C
102
{ACAD_REACTORS
330
29
102
}
330
29
100
AcDbVisualStyle
  2
Gouraud
 70
     2
177
     3
291
     1
 70
    58
 90
        2
176
     1
 90
        2
176
     1
 90
        1
176
     1
 90
        2
176
     1
 40
0.6
176
     1
 40
30.0
176
     1
 62
     7
420
 16777215
176
     1
 90
        0
176
     1
 90
        0
176
     1
 62
     7
176
     1
 62
   257
176
     1
 90
        1
176
     1
 90
        1
176
     1
 40
1.0
176
     1
 90
        0
176
     1
 62
     7
176
     1
 40
1.0
176
     1
 90
        1
176
     1
 90
        6
176
     1
 90
        2
176
     1
 62
     7
176
     1
 90
        5
176
     1
 90
        0
176
     1
 90
        0
176
     1
290
     0
176
     1
 90
       13
176
     1
 40
0.0
176
     1
 90
        0
176
     1
290
     0
176
     1
290
     1
176
     1
290
     1
176
     1
290
     0
176
     1
290
     0
176
     1
290
     0
176
     1
290
     0
176
     1
290
     0
176
     1
290
     0
176
     1
 90
       50
176
     1
 40
0.0
176
     1
 40
1.0
176
     1
 90
        0
176
     1
 62
    18
176
     1
 90
       50
176
     1
 90
        3
176
     1
 62
     5
420
      255
176
     1
290
     0
176
     1
 90
       50
176
     1
 90
       50
176
     1
 90
       50
176
     1
290
     0
176
     1
 90
       50
176
     1
 62
   256
176
     0
 40
1.0
176
     0
 90
        2
176
     1
  1
strokes_ogs.tif
176
     1
290
     0
176
     1
 40
1.0
176
     1
 40
1.0
176
     1
  0
VISUALSTYLE
  5
2D
102
{ACAD_REACTORS
330
29
102
}
330
29
100
AcDbVisualStyle
  2
GouraudWithEdges
 70
     3
177
     3
291
     1
 70
    58
 90
        2
176
     1
 90
        2
176
     1
 90
        1
176
     1
 90
        2
176
     1
 40
0.6
176
     1
 40
30.0
176
     1
 62
     7
420
 16777215
176
     1
 90
        1
176
     1
 90
        0
176
     1
 62
     7
176
     1
 62
   257
176
     1
 90
        1
176
     1
 90
        1
176
     1
 40
1.0
176
     1
 90
        0
176
     1
 62
   257
176
     1
 40
1.0
176
     1
 90
        1
176
     1
 90
        6
176
     1
 90
        2
176
     1
 62
     7
176
     1
 90
        5
176
     1
 90
        0
176
     1
 90
        0
176
     1
290
     0
176
     1
 90
       13
176
     1
 40
0.0
176
     1
 90
        0
176
     1
290
     0
176
     1
290
     1
176
     1
290
     1
176
     1
290
     0
176
     1
290
     0
176
     1
290
     0
176
     1
290
     0
176
     1
290
     0
176
     1
290
     0
176
     1
 90
       50
176
     1
 40
0.0
176
     1
 40
1.0
176
     1
 90
        0
176
     1
 62
    18
176
     1
 90
       50
176
     1
 90
        3
176
     1
 62
     5
420
      255
176
     1
290
     0
176
     1
 90
       50
176
     1
 90
       50
176
     1
 90
       50
176
     1
290
     0
176
     1
 90
       50
176
     1
 62
   256
176
     0
 40
1.0
176
     0
 90
        2
176
     1
  1
strokes_ogs.tif
176
     1
290
     0
176
     1
 40
1.0
176
     1
 40
1.0
176
     1
  0
VISUALSTYLE
  5
31
102
{ACAD_REACTORS
330
29
102
}
330
29
100
AcDbVisualStyle
  2
Hidden
 70
     6
177
     3
291
     0
 70
    58
 90
        1
176
     1
 90
        2
176
     1
 90
        2
176
     1
 90
        0
176
     1
 40
0.6
176
     1
 40
30.0
176
     1
 62
     7
420
 16777215
176
     1
 90
        2
176
     1
 90
        2
176
     1
 62
     7
176
     1
 62
   257
176
     1
 90
        2
176
     1
 90
        1
176
     1
 40
40.0
176
     1
 90
        0
176
     1
 62
   257
176
     1
 40
1.0
176
     1
 90
        1
176
     1
 90
        6
176
     1
 90
        2
176
     1
 62
     7
176
     1
 90
        3
176
     1
 90
        0
176
     1
 90
        0
176
     1
290
     0
176
     1
 90
        1
176
     1
 40
0.0
176
     1
 90
        0
176
     1
290
     0
176
     1
290
     1
176
     1
290
     1
176
     1
290
     0
176
     1
290
     0
176
     1
290
     0
176
     1
290
     0
176
     1
290
     0
176
     1
290
     0
176
     1
 90
       50
176
     1
 40
0.0
176
     1
 40
1.0
176
     1
 90
        0
176
     1
 62
    18
176
     1
 90
       50
176
     1
 90
        3
176
     1
 62
     5
420
      255
176
     1
290
     0
176
     1
 90
       50
176
     1
 90
       50
176
     1
 90
       50
176
     1
290
     0
176
     1
 90
       50
176
     1
 62
   256
176
     0
 40
1.0
176
     0
 90
        2
176
     1
  1
strokes_ogs.tif
176
     1
290
     0
176
     1
 40
1.0
176
     1
 40
1.0
176
     1
  0
VISUALSTYLE
  5
3F
102
{ACAD_REACTORS
330
29
102
}
330
29
100
AcDbVisualStyle
  2
JitterOff
 70
    20
177
     3
291
     1
 70
    58
 90
        2
176
     0
 90
        2
176
     0
 90
        0
176
     0
 90
        0
176
     0
 40
0.6
176
     0
 40
30.0
176
     0
 62
     7
420
 16777215
176
     0
 90
        1
176
     0
 90
        4
176
     0
 62
     7
176
     0
 62
   257
176
     0
 90
        1
176
     0
 90
        1
176
     0
 40
1.0
176
     0
 90
       10
176
     2
 62
     7
176
     0
 40
1.0
176
     0
 90
        1
176
     0
 90
        6
176
     0
 90
        2
176
     0
 62
     7
176
     0
 90
        5
176
     0
 90
        0
176
     0
 90
        0
176
     0
290
     0
176
     0
 90
        1
176
     0
 40
0.0
176
     0
 90
        0
176
     0
290
     0
176
     1
290
     1
176
     1
290
     1
176
     1
290
     0
176
     1
290
     0
176
     1
290
     0
176
     1
290
     0
176
     1
290
     0
176
     1
290
     0
176
     1
 90
       50
176
     0
 40
0.0
176
     0
 40
1.0
176
     0
 90
        0
176
     0
 62
    18
176
     0
 90
       50
176
     0
 90
        3
176
     0
 62
     5
420
      255
176
     0
290
     0
176
     1
 90
       50
176
     0
 90
       50
176
     0
 90
       50
176
     0
290
     0
176
     1
 90
       50
176
     0
 62
   256
176
     0
 40
1.0
176
     0
 90
        2
176
     0
  1
strokes_ogs.tif
176
     0
290
     0
176
     1
 40
1.0
176
     0
 40
1.0
176
     0
  0
VISUALSTYLE
  5
37
102
{ACAD_REACTORS
330
29
102
}
330
29
100
AcDbVisualStyle
  2
Linepattern
 70
    14
177
     3
291
     1
 70
    58
 90
        2
176
     1
 90
        2
176
     1
 90
        0
176
     1
 90
        0
176
     1
 40
0.6
176
     1
 40
30.0
176
     1
 62
     7
420
 16777215
176
     1
 90
        1
176
     1
 90
        4
176
     1
 62
     7
176
     1
 62
   257
176
     1
 90
        7
176
     1
 90
        7
176
     1
 40
1.0
176
     1
 90
        8
176
     1
 62
     7
176
     1
 40
1.0
176
     1
 90
        1
176
     1
 90
        6
176
     1
 90
        2
176
     1
 62
     7
176
     1
 90
        5
176
     1
 90
        0
176
     1
 90
        0
176
     1
290
     0
176
     1
 90
        1
176
     1
 40
0.0
176
     1
 90
        0
176
     1
290
     0
176
     1
290
     1
176
     1
290
     1
176
     1
290
     0
176
     1
290
     0
176
     1
290
     0
176
     1
290
     0
176
     1
290
     0
176
     1
290
     0
176
     1
 90
       50
176
     1
 40
0.0
176
     1
 40
1.0
176
     1
 90
        0
176
     1
 62
    18
176
     1
 90
       50
176
     1
 90
        3
176
     1
 62
     5
420
      255
176
     1
290
     0
176
     1
 90
       50
176
     1
 90
       50
176
     1
 90
       50
176
     1
290
     0
176
     1
 90
       50
176
     1
 62
   256
176
     0
 40
1.0
176
     0
 90
        2
176
     1
  1
strokes_ogs.tif
176
     1
290
     0
176
     1
 40
1.0
176
     1
 40
1.0
176
     1
  0
VISUALSTYLE
  5
40
102
{ACAD_REACTORS
330
29
102
}
330
29
100
AcDbVisualStyle
  2
OverhangOff
 70
    21
177
     3
291
     1
 70
    58
 90
        2
176
     0
 90
        2
176
     0
 90
        0
176
     0
 90
        0
176
     0
 40
0.6
176
     0
 40
30.0
176
     0
 62
     7
420
 16777215
176
     0
 90
        1
176
     0
 90
        4
176
     0
 62
     7
176
     0
 62
   257
176
     0
 90
        1
176
     0
 90
        1
176
     0
 40
1.0
176
     0
 90
        9
176
     2
 62
     7
176
     0
 40
1.0
176
     0
 90
        1
176
     0
 90
        6
176
     0
 90
        2
176
     0
 62
     7
176
     0
 90
        5
176
     0
 90
        0
176
     0
 90
        0
176
     0
290
     0
176
     0
 90
        1
176
     0
 40
0.0
176
     0
 90
        0
176
     0
290
     0
176
     1
290
     1
176
     1
290
     1
176
     1
290
     0
176
     1
290
     0
176
     1
290
     0
176
     1
290
     0
176
     1
290
     0
176
     1
290
     0
176
     1
 90
       50
176
     0
 40
0.0
176
     0
 40
1.0
176
     0
 90
        0
176
     0
 62
    18
176
     0
 90
       50
176
     0
 90
        3
176
     0
 62
     5
420
      255
176
     0
290
     0
176
     1
 90
       50
176
     0
 90
       50
176
     0
 90
       50
176
     0
290
     0
176
     1
 90
       50
176
     0
 62
   256
176
     0
 40
1.0
176
     0
 90
        2
176
     0
  1
strokes_ogs.tif
176
     0
290
     0
176
     1
 40
1.0
176
     0
 40
1.0
176
     0
  0
VISUALSTYLE
  5
33
102
{ACAD_REACTORS
330
29
102
}
330
29
100
AcDbVisualStyle
  2
Realistic
 70
     8
177
     3
291
     0
 70
    58
 90
        2
176
     1
 90
        3
176
     1
 90
        0
176
     1
 90
        2
176
     1
 40
0.6
176
     1
 40
30.0
176
     1
 62
     7
420
 16777215
176
     1
 90
        0
176
     1
 90
        0
176
     1
 62
     7
176
     1
 62
   257
176
     1
 90
        1
176
     1
 90
        1
176
     1
 40
1.0
176
     1
 90
        8
176
     1
 62
   257
176
     1
 40
1.0
176
     1
 90
        1
176
     1
 90
        6
176
     1
 90
        2
176
     1
 62
     7
176
     1
 90
        3
176
     1
 90
        0
176
     1
 90
        0
176
     1
290
     0
176
     1
 90
       13
176
     1
 40
0.0
176
     1
 90
        0
176
     1
290
     0
176
     1
290
     1
176
     1
290
     1
176
     1
290
     0
176
     1
290
     0
176
     1
290
     0
176
     1
290
     0
176
     1
290
     0
176
     1
290
     0
176
     1
 90
       50
176
     1
 40
0.0
176
     1
 40
1.0
176
     1
 90
        0
176
     1
 62
    18
176
     1
 90
       50
176
     1
 90
        3
176
     1
 62
     5
420
      255
176
     1
290
     0
176
     1
 90
       50
176
     1
 90
       50
176
     1
 90
       50
176
     1
290
     0
176
     1
 90
       50
176
     1
 62
   256
176
     0
 40
1.0
176
     0
 90
        2
176
     1
  1
strokes_ogs.tif
176
     1
290
     0
176
     1
 40
1.0
176
     1
 40
1.0
176
     1
  0
VISUALSTYLE
  5
3E
102
{ACAD_REACTORS
330
29
102
}
330
29
100
AcDbVisualStyle
  2
Shaded
 70
    27
177
     3
291
     0
 70
    58
 90
        2
176
     1
 90
        2
176
     1
 90
        1
176
     1
 90
        2
176
     1
 40
0.6
176
     1
 40
30.0
176
     1
 62
     7
420
 16777215
176
     1
 90
        0
176
     1
 90
        4
176
     1
 62
     7
176
     1
 62
   257
176
     1
 90
        1
176
     1
 90
        1
176
     1
 40
1.0
176
     1
 90
        8
176
     1
 62
   257
176
     1
 40
1.0
176
     1
 90
        1
176
     1
 90
        6
176
     1
 90
        2
176
     1
 62
     8
420
  7895160
176
     1
 90
        3
176
     1
 90
        0
176
     1
 90
        0
176
     1
290
     0
176
     1
 90
        5
176
     1
 40
0.0
176
     1
 90
        0
176
     1
290
     0
176
     1
290
     1
176
     1
290
     1
176
     1
290
     0
176
     1
290
     0
176
     1
290
     0
176
     1
290
     0
176
     1
290
     0
176
     1
290
     0
176
     1
 90
       50
176
     1
 40
0.0
176
     1
 40
1.0
176
     1
 90
        0
176
     1
 62
    18
176
     1
 90
       50
176
     1
 90
        3
176
     1
 62
     5
420
      255
176
     1
290
     0
176
     1
 90
       50
176
     1
 90
       50
176
     1
 90
       50
176
     1
290
     0
176
     1
 90
       50
176
     1
 62
   256
176
     0
 40
1.0
176
     0
 90
        2
176
     1
  1
strokes_ogs.tif
176
     1
290
     0
176
     1
 40
1.0
176
     1
 40
1.0
176
     1
  0
VISUALSTYLE
  5
3D
102
{ACAD_REACTORS
330
29
102
}
330
29
100
AcDbVisualStyle
  2
Shaded with edges
 70
    26
177
     3
291
     0
 70
    58
 90
        2
176
     1
 90
        2
176
     1
 90
        1
176
     1
 90
        2
176
     1
 40
0.6
176
     1
 40
30.0
176
     1
 62
     7
420
 16777215
176
     1
 90
        1
176
     1
 90
        2
176
     1
 62
     7
176
     1
 62
   257
176
     1
 90
        2
176
     1
 90
        1
176
     1
 40
1.0
176
     1
 90
        8
176
     1
 62
   257
176
     1
 40
1.0
176
     1
 90
        1
176
     1
 90
        6
176
     1
 90
        2
176
     1
 62
     7
176
     1
 90
        3
176
     1
 90
        0
176
     1
 90
        0
176
     1
290
     0
176
     1
 90
        5
176
     1
 40
0.0
176
     1
 90
        0
176
     1
290
     0
176
     1
290
     1
176
     1
290
     1
176
     1
290
     0
176
     1
290
     0
176
     1
290
     0
176
     1
290
     0
176
     1
290
     0
176
     1
290
     0
176
     1
 90
       50
176
     1
 40
0.0
176
     1
 40
1.0
176
     1
 90
        0
176
     1
 62
    18
176
     1
 90
       50
176
     1
 90
        3
176
     1
 62
     5
420
      255
176
     1
290
     0
176
     1
 90
       50
176
     1
 90
       50
176
     1
 90
       50
176
     1
290
     0
176
     1
 90
       50
176
     1
 62
   256
176
     0
 40
1.0
176
     0
 90
        2
176
     1
  1
strokes_ogs.tif
176
     1
290
     0
176
     1
 40
1.0
176
     1
 40
1.0
176
     1
  0
VISUALSTYLE
  5
3A
102
{ACAD_REACTORS
330
29
102
}
330
29
100
AcDbVisualStyle
  2
Shades of Gray
 70
    23
177
     3
291
     0
 70
    58
 90
        2
176
     1
 90
        2
176
     1
 90
        3
176
     1
 90
        0
176
     1
 40
0.6
176
     1
 40
30.0
176
     1
 62
     7
420
 16777215
176
     1
 90
        2
176
     1
 90
        2
176
     1
 62
     7
176
     1
 62
     7
176
     1
 90
        1
176
     1
 90
        1
176
     1
 40
40.0
176
     1
 90
        8
176
     1
 62
     7
176
     1
 40
1.0
176
     1
 90
        1
176
     1
 90
        6
176
     1
 90
        2
176
     1
 62
     7
176
     1
 90
        3
176
     1
 90
        0
176
     1
 90
        0
176
     1
290
     0
176
     1
 90
        1
176
     1
 40
0.0
176
     1
 90
        0
176
     1
290
     0
176
     1
290
     1
176
     1
290
     1
176
     1
290
     0
176
     1
290
     0
176
     1
290
     0
176
     1
290
     0
176
     1
290
     0
176
     1
290
     0
176
     1
 90
       50
176
     1
 40
0.0
176
     1
 40
1.0
176
     1
 90
        0
176
     1
 62
    18
176
     1
 90
       50
176
     1
 90
        3
176
     1
 62
     5
420
      255
176
     1
290
     0
176
     1
 90
       50
176
     1
 90
       50
176
     1
 90
       50
176
     1
290
     0
176
     1
 90
       50
176
     1
 62
   256
176
     0
 40
1.0
176
     0
 90
        2
176
     1
  1
strokes_ogs.tif
176
     1
290
     0
176
     1
 40
1.0
176
     1
 40
1.0
176
     1
  0
VISUALSTYLE
  5
3B
102
{ACAD_REACTORS
330
29
102
}
330
29
100
AcDbVisualStyle
  2
Sketchy
 70
    24
177
     3
291
     0
 70
    58
 90
        1
176
     1
 90
        2
176
     1
 90
        2
176
     1
 90
        0
176
     1
 40
0.6
176
     1
 40
30.0
176
     1
 62
     7
420
 16777215
176
     1
 90
        2
176
     1
 90
        2
176
     1
 62
     7
176
     1
 62
     7
176
     1
 90
        1
176
     1
 90
        1
176
     1
 40
40.0
176
     1
 90
       11
176
     1
 62
     7
176
     1
 40
1.0
176
     1
 90
        1
176
     1
 90
        6
176
     1
 90
        2
176
     1
 62
     7
176
     1
 90
        6
176
     1
 90
        0
176
     1
 90
        0
176
     1
290
     0
176
     1
 90
        1
176
     1
 40
0.0
176
     1
 90
        0
176
     1
290
     0
176
     1
290
     1
176
     1
290
     1
176
     1
290
     0
176
     1
290
     0
176
     1
290
     0
176
     1
290
     0
176
     1
290
     0
176
     1
290
     0
176
     1
 90
       50
176
     1
 40
0.0
176
     1
 40
1.0
176
     1
 90
        0
176
     1
 62
    18
176
     1
 90
       50
176
     1
 90
        3
176
     1
 62
     5
420
      255
176
     1
290
     0
176
     1
 90
       50
176
     1
 90
       50
176
     1
 90
       50
176
     1
290
     0
176
     1
 90
       50
176
     1
 62
   256
176
     0
 40
1.0
176
     0
 90
        2
176
     1
  1
strokes_ogs.tif
176
     1
290
     0
176
     1
 40
1.0
176
     1
 40
1.0
176
     1
  0
VISUALSTYLE
  5
36
102
{ACAD_REACTORS
330
29
102
}
330
29
100
AcDbVisualStyle
  2
Thicken
 70
    13
177
     3
291
     1
 70
    58
 90
        2
176
     1
 90
        2
176
     1
 90
        0
176
     1
 90
        0
176
     1
 40
0.6
176
     1
 40
30.0
176
     1
 62
     7
420
 16777215
176
     1
 90
        1
176
     1
 90
        4
176
     1
 62
     7
176
     1
 62
   257
176
     1
 90
        1
176
     1
 90
        1
176
     1
 40
1.0
176
     1
 90
       12
176
     1
 62
     7
176
     1
 40
1.0
176
     1
 90
        1
176
     1
 90
        6
176
     1
 90
        2
176
     1
 62
     7
176
     1
 90
        5
176
     1
 90
        0
176
     1
 90
        0
176
     1
290
     0
176
     1
 90
        1
176
     1
 40
0.0
176
     1
 90
        0
176
     1
290
     0
176
     1
290
     1
176
     1
290
     1
176
     1
290
     0
176
     1
290
     0
176
     1
290
     0
176
     1
290
     0
176
     1
290
     0
176
     1
290
     0
176
     1
 90
       50
176
     1
 40
0.0
176
     1
 40
1.0
176
     1
 90
        0
176
     1
 62
    18
176
     1
 90
       50
176
     1
 90
        3
176
     1
 62
     5
420
      255
176
     1
290
     0
176
     1
 90
       50
176
     1
 90
       50
176
     1
 90
       50
176
     1
290
     0
176
     1
 90
       50
176
     1
 62
   256
176
     0
 40
1.0
176
     0
 90
        2
176
     1
  1
strokes_ogs.tif
176
     1
290
     0
176
     1
 40
1.0
176
     1
 40
1.0
176
     1
  0
VISUALSTYLE
  5
30
102
{ACAD_REACTORS
330
29
102
}
330
29
100
AcDbVisualStyle
  2
Wireframe
 70
     5
177
     3
291
     0
 70
    58
 90
        0
176
     1
 90
        2
176
     1
 90
        0
176
     1
 90
        0
176
     1
 40
0.6
176
     1
 40
30.0
176
     1
 62
     7
420
 16777215
176
     1
 90
        1
176
     1
 90
        4
176
     1
 62
     7
176
     1
 62
   257
176
     1
 90
        1
176
     1
 90
        1
176
     1
 40
1.0
176
     1
 90
        0
176
     1
 62
   257
176
     1
 40
1.0
176
     1
 90
        1
176
     1
 90
        6
176
     1
 90
        2
176
     1
 62
     7
176
     1
 90
        3
176
     1
 90
        0
176
     1
 90
        0
176
     1
290
     0
176
     1
 90
        1
176
     1
 40
0.0
176
     1
 90
        0
176
     1
290
     0
176
     1
290
     1
176
     1
290
     1
176
     1
290
     0
176
     1
290
     0
176
     1
290
     0
176
     1
290
     0
176
     1
290
     0
176
     1
290
     0
176
     1
 90
       50
176
     1
 40
0.0
176
     1
 40
1.0
176
     1
 90
        0
176
     1
 62
    18
176
     1
 90
       50
176
     1
 90
        3
176
     1
 62
     5
420
      255
176
     1
290
     0
176
     1
 90
       50
176
     1
 90
       50
176
     1
 90
       50
176
     1
290
     0
176
     1
 90
       50
176
     1
 62
   256
176
     0
 40
1.0
176
     0
 90
        2
176
     1
  1
strokes_ogs.tif
176
     1
290
     0
176
     1
 40
1.0
176
     1
 40
1.0
176
     1
  0
VISUALSTYLE
  5
3C
102
{ACAD_REACTORS
330
29
102
}
330
29
100
AcDbVisualStyle
  2
X-Ray
 70
    25
177
     3
291
     0
 70
    58
 90
        2
176
     1
 90
        2
176
     1
 90
        1
176
     1
 90
        1
176
     1
 40
0.5
176
     1
 40
30.0
176
     1
 62
     7
420
 16777215
176
     1
 90
        1
176
     1
 90
        0
176
     1
 62
     7
176
     1
 62
   257
176
     1
 90
        1
176
     1
 90
        1
176
     1
 40
1.0
176
     1
 90
        8
176
     1
 62
     7
176
     1
 40
1.0
176
     1
 90
        1
176
     1
 90
        6
176
     1
 90
        2
176
     1
 62
     7
176
     1
 90
        3
176
     1
 90
        0
176
     1
 90
        0
176
     1
290
     0
176
     1
 90
       13
176
     1
 40
0.0
176
     1
 90
        0
176
     1
290
     0
176
     1
290
     1
176
     1
290
     1
176
     1
290
     0
176
     1
290
     0
176
     1
290
     0
176
     1
290
     0
176
     1
290
     0
176
     1
290
     0
176
     1
 90
       50
176
     1
 40
0.0
176
     1
 40
1.0
176
     1
 90
        0
176
     1
 62
    18
176
     1
 90
       50
176
     1
 90
        3
176
     1
 62
     5
420
      255
176
     1
290
     0
176
     1
 90
       50
176
     1
 90
       50
176
     1
 90
       50
176
     1
290
     0
176
     1
 90
       50
176
     1
 62
   256
176
     0
 40
1.0
176
     0
 90
        2
176
     1
  1
strokes_ogs.tif
176
     1
290
     0
176
     1
 40
1.0
176
     1
 40
1.0
176
     1
  0
DICTIONARYVAR
  5
1AC0
102
{ACAD_REACTORS
330
1ABA
102
}
330
1ABA
100
DictionaryVariables
280
     0
  1
1:1
  0
DICTIONARYVAR
  5
1ABC
102
{ACAD_REACTORS
330
1ABA
102
}
330
1ABA
100
DictionaryVariables
280
     0
  1
STANDARD
  0
DICTIONARYVAR
  5
1ABB
102
{ACAD_REACTORS
330
1ABA
102
}
330
1ABA
100
DictionaryVariables
280
     0
  1
STANDARD
  0
DICTIONARYVAR
  5
1ABD
102
{ACAD_REACTORS
330
1ABA
102
}
330
1ABA
100
DictionaryVariables
280
     0
  1
Imperial24
  0
DICTIONARYVAR
  5
1ABE
102
{ACAD_REACTORS
330
1ABA
102
}
330
1ABA
100
DictionaryVariables
280
     0
  1
Imperial24
  0
DICTIONARYVAR
  5
1AC2
102
{ACAD_REACTORS
330
1ABA
102
}
330
1ABA
100
DictionaryVariables
280
     0
  1
1
  0
DICTIONARYVAR
  5
1AC3
102
{ACAD_REACTORS
330
1ABA
102
}
330
1ABA
100
DictionaryVariables
280
     0
  1
15
  0
DICTIONARYVAR
  5
1AC1
102
{ACAD_REACTORS
330
1ABA
102
}
330
1ABA
100
DictionaryVariables
280
     0
  1
0
  0
DICTIONARYVAR
  5
1ABF
102
{ACAD_REACTORS
330
1ABA
102
}
330
1ABA
100
DictionaryVariables
280
     0
  1
0
  0
DICTIONARY
  5
1A
330
19
100
AcDbDictionary
280
     1
281
     1
  3
BUMPTILE
360
1C
  3
DIFFUSETILE
360
1B
  3
OPACITYTILE
360
1F
  3
REFLECTIONTILE
360
1E
  3
REFRACTIONTILE
360
20
  3
SPECULARTILE
360
1D
  0
DICTIONARY
  5
12
330
11
100
AcDbDictionary
280
     1
281
     1
  3
BUMPTILE
360
14
  3
DIFFUSETILE
360
13
  3
OPACITYTILE
360
17
  3
REFLECTIONTILE
360
16
  3
REFRACTIONTILE
360
18
  3
SPECULARTILE
360
15
  0
DICTIONARY
  5
22
330
21
100
AcDbDictionary
280
     1
281
     1
  3
BUMPTILE
360
24
  3
DIFFUSETILE
360
23
  3
OPACITYTILE
360
27
  3
REFLECTIONTILE
360
26
  3
REFRACTIONTILE
360
28
  3
SPECULARTILE
360
25
  0
DICTIONARY
  5
1AC5
330
64
100
AcDbDictionary
280
     1
281
     1
  3
ACAD_ROUNDTRIP_2008_TABLESTYLE_CELLSTYLEMAP
360
1AEB
  0
XRECORD
  5
1C
102
{ACAD_REACTORS
330
1A
102
}
330
1A
100
AcDbXrecord
280
     1
270
     1
271
     1
  0
XRECORD
  5
1B
102
{ACAD_REACTORS
330
1A
102
}
330
1A
100
AcDbXrecord
280
     1
270
     1
271
     1
  0
XRECORD
  5
1F
102
{ACAD_REACTORS
330
1A
102
}
330
1A
100
AcDbXrecord
280
     1
270
     1
271
     1
  0
XRECORD
  5
1E
102
{ACAD_REACTORS
330
1A
102
}
330
1A
100
AcDbXrecord
280
     1
270
     1
271
     1
  0
XRECORD
  5
20
102
{ACAD_REACTORS
330
1A
102
}
330
1A
100
AcDbXrecord
280
     1
270
     1
271
     1
  0
XRECORD
  5
1D
102
{ACAD_REACTORS
330
1A
102
}
330
1A
100
AcDbXrecord
280
     1
270
     1
271
     1
  0
XRECORD
  5
14
102
{ACAD_REACTORS
330
12
102
}
330
12
100
AcDbXrecord
280
     1
270
     1
271
     1
  0
XRECORD
  5
13
102
{ACAD_REACTORS
330
12
102
}
330
12
100
AcDbXrecord
280
     1
270
     1
271
     1
  0
XRECORD
  5
17
102
{ACAD_REACTORS
330
12
102
}
330
12
100
AcDbXrecord
280
     1
270
     1
271
     1
  0
XRECORD
  5
16
102
{ACAD_REACTORS
330
12
102
}
330
12
100
AcDbXrecord
280
     1
270
     1
271
     1
  0
XRECORD
  5
18
102
{ACAD_REACTORS
330
12
102
}
330
12
100
AcDbXrecord
280
     1
270
     1
271
     1
  0
XRECORD
  5
15
102
{ACAD_REACTORS
330
12
102
}
330
12
100
AcDbXrecord
280
     1
270
     1
271
     1
  0
XRECORD
  5
24
102
{ACAD_REACTORS
330
22
102
}
330
22
100
AcDbXrecord
280
     1
270
     1
271
     1
  0
XRECORD
  5
23
102
{ACAD_REACTORS
330
22
102
}
330
22
100
AcDbXrecord
280
     1
270
     1
271
     1
  0
XRECORD
  5
27
102
{ACAD_REACTORS
330
22
102
}
330
22
100
AcDbXrecord
280
     1
270
     1
271
     1
  0
XRECORD
  5
26
102
{ACAD_REACTORS
330
22
102
}
330
22
100
AcDbXrecord
280
     1
270
     1
271
     1
  0
XRECORD
  5
28
102
{ACAD_REACTORS
330
22
102
}
330
22
100
AcDbXrecord
280
     1
270
     1
271
     1
  0
XRECORD
  5
25
102
{ACAD_REACTORS
330
22
102
}
330
22
100
AcDbXrecord
280
     1
270
     1
271
     1
  0
CELLSTYLEMAP
  5
1AEB
102
{ACAD_REACTORS
330
1AC5
102
}
330
1AC5
100
AcDbCellStyleMap
 90
        3
300
CELLSTYLE
  1
TABLEFORMAT_BEGIN
 90
        5
170
     1
 91
        0
 92
    32768
 62
   257
 93
        1
300
CONTENTFORMAT
  1
CONTENTFORMAT_BEGIN
 90
        0
 91
        0
 92
      512
 93
        0
300

 40
0.0
140
1.0
 94
        5
 62
     0
340
55
144
0.25
309
CONTENTFORMAT_END
171
     1
301
MARGIN
  1
CELLMARGIN_BEGIN
 40
0.06
 40
0.06
 40
0.06
 40
0.06
 40
0.18
 40
0.18
309
CELLMARGIN_END
 94
        6
 95
        1
302
GRIDFORMAT
  1
GRIDFORMAT_BEGIN
 90
        0
 91
        1
 62
     0
 92
       -2
340
0
 93
        0
 40
0.045
309
GRIDFORMAT_END
 95
        2
302
GRIDFORMAT
  1
GRIDFORMAT_BEGIN
 90
        0
 91
        1
 62
     0
 92
       -2
340
0
 93
        0
 40
0.045
309
GRIDFORMAT_END
 95
        4
302
GRIDFORMAT
  1
GRIDFORMAT_BEGIN
 90
        0
 91
        1
 62
     0
 92
       -2
340
0
 93
        0
 40
0.045
309
GRIDFORMAT_END
 95
        8
302
GRIDFORMAT
  1
GRIDFORMAT_BEGIN
 90
        0
 91
        1
 62
     0
 92
       -2
340
0
 93
        0
 40
0.045
309
GRIDFORMAT_END
 95
       16
302
GRIDFORMAT
  1
GRIDFORMAT_BEGIN
 90
        0
 91
        1
 62
     0
 92
       -2
340
0
 93
        0
 40
0.045
309
GRIDFORMAT_END
 95
       32
302
GRIDFORMAT
  1
GRIDFORMAT_BEGIN
 90
        0
 91
        1
 62
     0
 92
       -2
340
0
 93
        0
 40
0.045
309
GRIDFORMAT_END
309
TABLEFORMAT_END
  1
CELLSTYLE_BEGIN
 90
        1
 91
        1
300
_TITLE
309
CELLSTYLE_END
300
CELLSTYLE
  1
TABLEFORMAT_BEGIN
 90
        5
170
     1
 91
        0
 92
        0
 62
   257
 93
        1
300
CONTENTFORMAT
  1
CONTENTFORMAT_BEGIN
 90
        0
 91
        0
 92
      512
 93
        0
300

 40
0.0
140
1.0
 94
        5
 62
     0
340
55
144
0.18
309
CONTENTFORMAT_END
171
     1
301
MARGIN
  1
CELLMARGIN_BEGIN
 40
0.06
 40
0.06
 40
0.06
 40
0.06
 40
0.18
 40
0.18
309
CELLMARGIN_END
 94
        6
 95
        1
302
GRIDFORMAT
  1
GRIDFORMAT_BEGIN
 90
        0
 91
        1
 62
     0
 92
       -2
340
0
 93
        0
 40
0.045
309
GRIDFORMAT_END
 95
        2
302
GRIDFORMAT
  1
GRIDFORMAT_BEGIN
 90
        0
 91
        1
 62
     0
 92
       -2
340
0
 93
        0
 40
0.045
309
GRIDFORMAT_END
 95
        4
302
GRIDFORMAT
  1
GRIDFORMAT_BEGIN
 90
        0
 91
        1
 62
     0
 92
       -2
340
0
 93
        0
 40
0.045
309
GRIDFORMAT_END
 95
        8
302
GRIDFORMAT
  1
GRIDFORMAT_BEGIN
 90
        0
 91
        1
 62
     0
 92
       -2
340
0
 93
        0
 40
0.045
309
GRIDFORMAT_END
 95
       16
302
GRIDFORMAT
  1
GRIDFORMAT_BEGIN
 90
        0
 91
        1
 62
     0
 92
       -2
340
0
 93
        0
 40
0.045
309
GRIDFORMAT_END
 95
       32
302
GRIDFORMAT
  1
GRIDFORMAT_BEGIN
 90
        0
 91
        1
 62
     0
 92
       -2
340
0
 93
        0
 40
0.045
309
GRIDFORMAT_END
309
TABLEFORMAT_END
  1
CELLSTYLE_BEGIN
 90
        2
 91
        1
300
_HEADER
309
CELLSTYLE_END
300
CELLSTYLE
  1
TABLEFORMAT_BEGIN
 90
        5
170
     1
 91
        0
 92
        0
 62
   257
 93
        1
300
CONTENTFORMAT
  1
CONTENTFORMAT_BEGIN
 90
        0
 91
        0
 92
      512
 93
        0
300

 40
0.0
140
1.0
 94
        2
 62
     0
340
55
144
0.18
309
CONTENTFORMAT_END
171
     1
301
MARGIN
  1
CELLMARGIN_BEGIN
 40
0.06
 40
0.06
 40
0.06
 40
0.06
 40
0.18
 40
0.18
309
CELLMARGIN_END
 94
        6
 95
        1
302
GRIDFORMAT
  1
GRIDFORMAT_BEGIN
 90
        0
 91
        1
 62
     0
 92
       -2
340
0
 93
        0
 40
0.045
309
GRIDFORMAT_END
 95
        2
302
GRIDFORMAT
  1
GRIDFORMAT_BEGIN
 90
        0
 91
        1
 62
     0
 92
       -2
340
0
 93
        0
 40
0.045
309
GRIDFORMAT_END
 95
        4
302
GRIDFORMAT
  1
GRIDFORMAT_BEGIN
 90
        0
 91
        1
 62
     0
 92
       -2
340
0
 93
        0
 40
0.045
309
GRIDFORMAT_END
 95
        8
302
GRIDFORMAT
  1
GRIDFORMAT_BEGIN
 90
        0
 91
        1
 62
     0
 92
       -2
340
0
 93
        0
 40
0.045
309
GRIDFORMAT_END
 95
       16
302
GRIDFORMAT
  1
GRIDFORMAT_BEGIN
 90
        0
 91
        1
 62
     0
 92
       -2
340
0
 93
        0
 40
0.045
309
GRIDFORMAT_END
 95
       32
302
GRIDFORMAT
  1
GRIDFORMAT_BEGIN
 90
        0
 91
        1
 62
     0
 92
       -2
340
0
 93
        0
 40
0.045
309
GRIDFORMAT_END
309
TABLEFORMAT_END
  1
CELLSTYLE_BEGIN
 90
        3
 91
        2
300
_DATA
309
CELLSTYLE_END
  0
ENDSEC
  0
EOF
