  0
SECTION
  2
HEADER
  9
$ACADVER
  1
AC1032
  9
$ACADMAINTVER
 90
       73
  9
$DWGCODEPAGE
  3
ANSI_1252
  9
$LASTSAVEDBY
  1
Eton
  9
$REQUIREDVERSIONS
160
                 0
  9
$INSBASE
 10
0.0
 20
0.0
 30
0.0
  9
$EXTMIN
 10
-85.10833333333334
 20
42.63021063423383
 30
0.0
  9
$EXTMAX
 10
-76.23333333333333
 20
48.89595968934187
 30
0.0
  9
$LIMMIN
 10
0.0
 20
0.0
  9
$LIMMAX
 10
12.0
 20
9.0
  9
$ORTHOMODE
 70
     0
  9
$REGENMODE
 70
     1
  9
$FILLMODE
 70
     1
  9
$QTEXTMODE
 70
     0
  9
$MIRRTEXT
 70
     0
  9
$LTSCALE
 40
1.0
  9
$ATTMODE
 70
     1
  9
$TEXTSIZE
 40
0.006
  9
$TRACEWID
 40
0.05
  9
$TEXTSTYLE
  7
STANDARD
  9
$CLAYER
  8
0
  9
$CELTYPE
  6
ByLayer
  9
$CECOLOR
 62
   256
  9
$CELTSCALE
 40
1.0
  9
$DISPSILH
 70
     0
  9
$DIMSCALE
 40
1.0
  9
$DIMASZ
 40
0.18
  9
$DIMEXO
 40
0.0625
  9
$DIMDLI
 40
0.38
  9
$DIMRND
 40
0.0
  9
$DIMDLE
 40
0.0
  9
$DIMEXE
 40
0.18
  9
$DIMTP
 40
0.0
  9
$DIMTM
 40
0.0
  9
$DIMTXT
 40
0.18
  9
$DIMCEN
 40
0.09
  9
$DIMTSZ
 40
0.0
  9
$DIMTOL
 70
     0
  9
$DIMLIM
 70
     0
  9
$DIMTIH
 70
     1
  9
$DIMTOH
 70
     1
  9
$DIMSE1
 70
     0
  9
$DIMSE2
 70
     0
  9
$DIMTAD
 70
     0
  9
$DIMZIN
 70
     0
  9
$DIMBLK
  1

  9
$DIMASO
 70
     1
  9
$DIMSHO
 70
     1
  9
$DIMPOST
  1

  9
$DIMAPOST
  1

  9
$DIMALT
 70
     0
  9
$DIMALTD
 70
     2
  9
$DIMALTF
 40
25.4
  9
$DIMLFAC
 40
1.0
  9
$DIMTOFL
 70
     0
  9
$DIMTVP
 40
0.0
  9
$DIMTIX
 70
     0
  9
$DIMSOXD
 70
     0
  9
$DIMSAH
 70
     0
  9
$DIMBLK1
  1

  9
$DIMBLK2
  1

  9
$DIMSTYLE
  2
Standard
  9
$DIMCLRD
 70
     0
  9
$DIMCLRE
 70
     0
  9
$DIMCLRT
 70
     0
  9
$DIMTFAC
 40
1.0
  9
$DIMGAP
 40
0.09
  9
$DIMJUST
 70
     0
  9
$DIMSD1
 70
     0
  9
$DIMSD2
 70
     0
  9
$DIMTOLJ
 70
     1
  9
$DIMTZIN
 70
     0
  9
$DIMALTZ
 70
     0
  9
$DIMALTTZ
 70
     0
  9
$DIMUPT
 70
     0
  9
$DIMDEC
 70
     4
  9
$DIMTDEC
 70
     4
  9
$DIMALTU
 70
     2
  9
$DIMALTTD
 70
     2
  9
$DIMTXSTY
  7
STANDARD
  9
$DIMAUNIT
 70
     0
  9
$DIMADEC
 70
     0
  9
$DIMALTRND
 40
0.0
  9
$DIMAZIN
 70
     0
  9
$DIMDSEP
 70
    46
  9
$DIMATFIT
 70
     3
  9
$DIMFRAC
 70
     0
  9
$DIMLDRBLK
  1

  9
$DIMLUNIT
 70
     2
  9
$DIMLWD
 70
    -2
  9
$DIMLWE
 70
    -2
  9
$DIMTMOVE
 70
     0
  9
$DIMFXL
 40
1.0
  9
$DIMFXLON
 70
     0
  9
$DIMJOGANG
 40
0.7853981633974483
  9
$DIMTFILL
 70
     0
  9
$DIMTFILLCLR
 70
     0
  9
$DIMARCSYM
 70
     0
  9
$DIMLTYPE
  6

  9
$DIMLTEX1
  6

  9
$DIMLTEX2
  6

  9
$DIMTXTDIRECTION
 70
     0
  9
$LUNITS
 70
     2
  9
$LUPREC
 70
     4
  9
$SKETCHINC
 40
0.1
  9
$FILLETRAD
 40
0.0
  9
$AUNITS
 70
     0
  9
$AUPREC
 70
     0
  9
$MENU
  1
.
  9
$ELEVATION
 40
0.0
  9
$PELEVATION
 40
0.0
  9
$THICKNESS
 40
0.0
  9
$LIMCHECK
 70
     0
  9
$CHAMFERA
 40
0.0
  9
$CHAMFERB
 40
0.0
  9
$CHAMFERC
 40
0.0
  9
$CHAMFERD
 40
0.0
  9
$SKPOLY
 70
     0
  9
$TDCREATE
 40
2458928.657268519
  9
$TDUCREATE
 40
2458928.823935185
  9
$TDUPDATE
 40
2459185.786793982
  9
$TDUUPDATE
 40
2459185.995127315
  9
$TDINDWG
 40
0.0132060185
  9
$TDUSRTIMER
 40
0.0132060185
  9
$USRTIMER
 70
     1
  9
$ANGBASE
 50
0.0
  9
$ANGDIR
 70
     0
  9
$PDMODE
 70
     0
  9
$PDSIZE
 40
0.0
  9
$PLINEWID
 40
0.0
  9
$SPLFRAME
 70
     0
  9
$SPLINETYPE
 70
     6
  9
$SPLINESEGS
 70
     8
  9
$HANDSEED
  5
1AED
  9
$SURFTAB1
 70
     6
  9
$SURFTAB2
 70
     6
  9
$SURFTYPE
 70
     6
  9
$SURFU
 70
     6
  9
$SURFV
 70
     6
  9
$UCSBASE
  2

  9
$UCSNAME
  2

  9
$UCSORG
 10
0.0
 20
0.0
 30
0.0
  9
$UCSXDIR
 10
1.0
 20
0.0
 30
0.0
  9
$UCSYDIR
 10
0.0
 20
1.0
 30
0.0
  9
$UCSORTHOREF
  2

  9
$UCSORTHOVIEW
 70
     0
  9
$UCSORGTOP
 10
0.0
 20
0.0
 30
0.0
  9
$UCSORGBOTTOM
 10
0.0
 20
0.0
 30
0.0
  9
$UCSORGLEFT
 10
0.0
 20
0.0
 30
0.0
  9
$UCSORGRIGHT
 10
0.0
 20
0.0
 30
0.0
  9
$UCSORGFRONT
 10
0.0
 20
0.0
 30
0.0
  9
$UCSORGBACK
 10
0.0
 20
0.0
 30
0.0
  9
$PUCSBASE
  2

  9
$PUCSNAME
  2

  9
$PUCSORG
 10
0.0
 20
0.0
 30
0.0
  9
$PUCSXDIR
 10
1.0
 20
0.0
 30
0.0
  9
$PUCSYDIR
 10
0.0
 20
1.0
 30
0.0
  9
$PUCSORTHOREF
  2

  9
$PUCSORTHOVIEW
 70
     0
  9
$PUCSORGTOP
 10
0.0
 20
0.0
 30
0.0
  9
$PUCSORGBOTTOM
 10
0.0
 20
0.0
 30
0.0
  9
$PUCSORGLEFT
 10
0.0
 20
0.0
 30
0.0
  9
$PUCSORGRIGHT
 10
0.0
 20
0.0
 30
0.0
  9
$PUCSORGFRONT
 10
0.0
 20
0.0
 30
0.0
  9
$PUCSORGBACK
 10
0.0
 20
0.0
 30
0.0
  9
$USERI1
 70
     0
  9
$USERI2
 70
     0
  9
$USERI3
 70
     0
  9
$USERI4
 70
     0
  9
$USERI5
 70
     0
  9
$USERR1
 40
0.0
  9
$USERR2
 40
0.0
  9
$USERR3
 40
0.0
  9
$USERR4
 40
0.0
  9
$USERR5
 40
0.0
  9
$WORLDVIEW
 70
     1
  9
$SHADEDGE
 70
     3
  9
$SHADEDIF
 70
    70
  9
$TILEMODE
 70
     1
  9
$MAXACTVP
 70
    64
  9
$PINSBASE
 10
0.0
 20
0.0
 30
0.0
  9
$PLIMCHECK
 70
     0
  9
$PEXTMIN
 10
1.000000000000000E+20
 20
1.000000000000000E+20
 30
1.000000000000000E+20
  9
$PEXTMAX
 10
-1.000000000000000E+20
 20
-1.000000000000000E+20
 30
-1.000000000000000E+20
  9
$PLIMMIN
 10
0.0
 20
0.0
  9
$PLIMMAX
 10
12.0
 20
9.0
  9
$UNITMODE
 70
     0
  9
$VISRETAIN
 70
     1
  9
$PLINEGEN
 70
     0
  9
$PSLTSCALE
 70
     1
  9
$TREEDEPTH
 70
  3020
  9
$CMLSTYLE
  2
Standard
  9
$CMLJUST
 70
     0
  9
$CMLSCALE
 40
1.0
  9
$PROXYGRAPHICS
 70
     1
  9
$MEASUREMENT
 70
     0
  9
$CELWEIGHT
370
    -1
  9
$ENDCAPS
280
     0
  9
$JOINSTYLE
280
     0
  9
$LWDISPLAY
290
     0
  9
$INSUNITS
 70
     0
  9
$HYPERLINKBASE
  1

  9
$STYLESHEET
  1

  9
$XEDIT
290
     1
  9
$CEPSNTYPE
380
     0
  9
$PSTYLEMODE
290
     1
  9
$FINGERPRINTGUID
  2
{A087A190-52ED-7B49-BEE2-C79CD84C2D94}
  9
$VERSIONGUID
  2
{F861D7B0-BD8F-4D47-86E1-CB99B2B76DBB}
  9
$EXTNAMES
290
     1
  9
$PSVPSCALE
 40
0.0
  9
$OLESTARTUP
290
     0
  9
$SORTENTS
280
   127
  9
$INDEXCTL
280
     0
  9
$HIDETEXT
280
     0
  9
$XCLIPFRAME
280
     2
  9
$HALOGAP
280
     0
  9
$OBSCOLOR
 70
   257
  9
$OBSLTYPE
280
     0
  9
$INTERSECTIONDISPLAY
280
     0
  9
$INTERSECTIONCOLOR
 70
   257
  9
$DIMASSOC
280
     1
  9
$PROJECTNAME
  1

  9
$CAMERADISPLAY
290
     0
  9
$LENSLENGTH
 40
50.0
  9
$CAMERAHEIGHT
 40
0.0
  9
$STEPSPERSEC
 40
2.0
  9
$STEPSIZE
 40
6.0
  9
$3DDWFPREC
 40
2.0
  9
$PSOLWIDTH
 40
0.25
  9
$PSOLHEIGHT
 40
4.0
  9
$LOFTANG1
 40
1.570796326794896
  9
$LOFTANG2
 40
1.570796326794896
  9
$LOFTMAG1
 40
0.0
  9
$LOFTMAG2
 40
0.0
  9
$LOFTPARAM
 70
     7
  9
$LOFTNORMALS
280
     1
  9
$LATITUDE
 40
37.795
  9
$LONGITUDE
 40
-122.394
  9
$NORTHDIRECTION
 40
0.0
  9
$TIMEZONE
 70
 -8000
  9
$LIGHTGLYPHDISPLAY
280
     1
  9
$TILEMODELIGHTSYNCH
280
     1
  9
$CMATERIAL
347
11
  9
$SOLIDHIST
280
     0
  9
$SHOWHIST
280
     1
  9
$DWFFRAME
280
     2
  9
$DGNFRAME
280
     0
  9
$REALWORLDSCALE
290
     1
  9
$INTERFERECOLOR
 62
     1
  9
$INTERFEREOBJVS
345
33
  9
$INTERFEREVPVS
346
30
  9
$CSHADOW
280
     0
  9
$SHADOWPLANELOCATION
 40
0.0
  0
ENDSEC
  0
SECTION
  2
CLASSES
  0
CLASS
  1
ACDBDICTIONARYWDFLT
  2
AcDbDictionaryWithDefault
  3
ObjectDBX Classes
 90
        0
 91
        1
280
     0
281
     0
  0
CLASS
  1
MATERIAL
  2
AcDbMaterial
  3
ObjectDBX Classes
 90
     1153
 91
        3
280
     0
281
     0
  0
CLASS
  1
VISUALSTYLE
  2
AcDbVisualStyle
  3
ObjectDBX Classes
 90
     4095
 91
       24
280
     0
281
     0
  0
CLASS
  1
SCALE
  2
AcDbScale
  3
ObjectDBX Classes
 90
     1153
 91
       17
280
     0
281
     0
  0
CLASS
  1
TABLESTYLE
  2
AcDbTableStyle
  3
ObjectDBX Classes
 90
     4095
 91
        1
280
     0
281
     0
  0
CLASS
  1
MLEADERSTYLE
  2
AcDbMLeaderStyle
  3
ACDB_MLEADERSTYLE_CLASS
 90
     4095
 91
        1
280
     0
281
     0
  0
CLASS
  1
ACDBSECTIONVIEWSTYLE
  2
AcDbSectionViewStyle
  3
ObjectDBX Classes
 90
     1025
 91
        1
280
     0
281
     0
  0
CLASS
  1
ACDBDETAILVIEWSTYLE
  2
AcDbDetailViewStyle
  3
ObjectDBX Classes
 90
     1025
 91
        1
280
     0
281
     0
  0
CLASS
  1
SOLID_BACKGROUND
  2
AcDbSolidBackground
  3
SCENEOE
 90
     4095
 91
        0
280
     0
281
     0
  0
CLASS
  1
NPOCOLLECTION
  2
AcDbImpNonPersistentObjectsCollection
  3
ObjectDBX Classes
 90
     1153
 91
        0
280
     0
281
     0
  0
CLASS
  1
DICTIONARYVAR
  2
AcDbDictionaryVar
  3
ObjectDBX Classes
 90
        0
 91
        9
280
     0
281
     0
  0
CLASS
  1
CELLSTYLEMAP
  2
AcDbCellStyleMap
  3
ObjectDBX Classes
 90
     1152
 91
        2
280
     0
281
     0
  0
ENDSEC
  0
SECTION
  2
TABLES
  0
TABLE
  2
VPORT
  5
8
330
0
100
AcDbSymbolTable
 70
     1
  0
VPORT
  5
7B
330
8
100
AcDbSymbolTableRecord
100
AcDbViewportTableRecord
  2
*Active
 70
     0
 10
0.0
 20
0.0
 11
1.0
 21
1.0
 12
-1.598983054543616
 22
3.035400917790723
 13
0.0
 23
0.0
 14
1.0
 24
1.0
 15
0.0
 25
0.0
 16
0.0
 26
-0.072385339653934
 36
4.146953331403261
 17
-79.91742304329069
 27
44.10082163383402
 37
-0.0044656081124234
 40
1.38098605202119
 41
2.292712066905615
 42
50.0
 43
0.0
 44
0.0
 50
0.0
 51
0.0
 71
     0
 72
   100
 73
     1
 74
     0
 75
     1
 76
     0
 77
     0
 78
     0
281
     0
 65
     1
110
0.0
120
0.0
130
0.0
111
1.0
121
0.0
131
0.0
112
0.0
122
1.0
132
0.0
 79
     0
146
0.0
348
2F
 60
     3
 61
     5
292
     1
282
     1
141
0.0
142
0.0
 63
   250
421
  3355443
1001
ACAD_NAV_VCDISPLAY
1070
     3
  0
ENDTAB
  0
TABLE
  2
LTYPE
  5
5
330
0
100
AcDbSymbolTable
 70
     1
  0
LTYPE
  5
5A
330
5
100
AcDbSymbolTableRecord
100
AcDbLinetypeTableRecord
  2
ByBlock
 70
     0
  3

 72
    65
 73
     0
 40
0.0
  0
LTYPE
  5
5B
330
5
100
AcDbSymbolTableRecord
100
AcDbLinetypeTableRecord
  2
ByLayer
 70
     0
  3

 72
    65
 73
     0
 40
0.0
  0
LTYPE
  5
5C
330
5
100
AcDbSymbolTableRecord
100
AcDbLinetypeTableRecord
  2
Continuous
 70
     0
  3
Solid line
 72
    65
 73
     0
 40
0.0
  0
ENDTAB
  0
TABLE
  2
LAYER
  5
2
330
0
100
AcDbSymbolTable
 70
     8
  0
LAYER
  5
54
102
{ACAD_XDICTIONARY
360
1ACD
102
}
330
2
100
AcDbSymbolTableRecord
100
AcDbLayerTableRecord
  2
0
 70
     0
 62
     7
  6
Continuous
370
    -3
390
F
347
21
348
0
  0
LAYER
  5
73
102
{ACAD_XDICTIONARY
360
1ACF
102
}
330
2
100
AcDbSymbolTableRecord
100
AcDbLayerTableRecord
  2
RED
 70
     4
 62
     1
  6
Continuous
370
    -3
390
F
347
21
348
0
  0
LAYER
  5
74
102
{ACAD_XDICTIONARY
360
1AD1
102
}
330
2
100
AcDbSymbolTableRecord
100
AcDbLayerTableRecord
  2
YELLOW
 70
     4
 62
     2
  6
Continuous
370
    -3
390
F
347
21
348
0
  0
LAYER
  5
75
102
{ACAD_XDICTIONARY
360
1AD3
102
}
330
2
100
AcDbSymbolTableRecord
100
AcDbLayerTableRecord
  2
GREEN
 70
     4
 62
    92
  6
Continuous
370
    -3
390
F
347
21
348
0
  0
LAYER
  5
76
102
{ACAD_XDICTIONARY
360
1AD5
102
}
330
2
100
AcDbSymbolTableRecord
100
AcDbLayerTableRecord
  2
BLUE
 70
     4
 62
     5
  6
Continuous
370
    -3
390
F
347
21
348
0
  0
LAYER
  5
77
102
{ACAD_XDICTIONARY
360
1AD7
102
}
330
2
100
AcDbSymbolTableRecord
100
AcDbLayerTableRecord
  2
WHITE
 70
     4
 62
     7
  6
Continuous
370
    -3
390
F
347
21
348
0
  0
LAYER
  5
78
102
{ACAD_XDICTIONARY
360
1AD9
102
}
330
2
100
AcDbSymbolTableRecord
100
AcDbLayerTableRecord
  2
FIX
 70
     4
 62
    -7
  6
Continuous
370
    -3
390
F
347
21
348
0
  0
LAYER
  5
9B
102
{ACAD_XDICTIONARY
360
1ADB
102
}
330
2
100
AcDbSymbolTableRecord
100
AcDbLayerTableRecord
  2
GEO_
 70
     0
 62
     7
  6
Continuous
370
    -3
390
F
347
21
348
0
  0
ENDTAB
  0
TABLE
  2
STYLE
  5
3
330
0
100
AcDbSymbolTable
 70
     2
  0
STYLE
  5
55
330
3
100
AcDbSymbolTableRecord
100
AcDbTextStyleTableRecord
  2
STANDARD
 70
     0
 40
0.006
 41
1.0
 50
0.0
 71
     0
 42
0.006
  3
arial.ttf
  4

1001
ACAD
1000
Arial
1071
       34
  0
STYLE
  5
59
330
3
100
AcDbSymbolTableRecord
100
AcDbTextStyleTableRecord
  2
Annotative
 70
     0
 40
0.0
 41
1.0
 50
0.0
 71
     0
 42
0.2
  3
txt
  4

1001
AcadAnnotative
1000
AnnotativeData
1002
{
1070
     1
1070
     1
1002
}
  0
ENDTAB
  0
TABLE
  2
VIEW
  5
6
330
0
100
AcDbSymbolTable
 70
     0
  0
ENDTAB
  0
TABLE
  2
UCS
  5
7
330
0
100
AcDbSymbolTable
 70
     0
  0
ENDTAB
  0
TABLE
  2
APPID
  5
9
330
0
100
AcDbSymbolTable
 70
     3
  0
APPID
  5
56
330
9
100
AcDbSymbolTableRecord
100
AcDbRegAppTableRecord
  2
ACAD
 70
     0
  0
APPID
  5
5D
330
9
100
AcDbSymbolTableRecord
100
AcDbRegAppTableRecord
  2
AcadAnnotative
 70
     0
  0
APPID
  5
1AC4
330
9
100
AcDbSymbolTableRecord
100
AcDbRegAppTableRecord
  2
ACAD_NAV_VCDISPLAY
 70
     0
  0
ENDTAB
  0
TABLE
  2
DIMSTYLE
  5
A
330
0
100
AcDbSymbolTable
 70
     2
100
AcDbDimStyleTable
 71
     0
  0
DIMSTYLE
105
57
330
A
100
AcDbSymbolTableRecord
100
AcDbDimStyleTableRecord
  2
Standard
 70
     0
340
55
  0
DIMSTYLE
105
58
330
A
100
AcDbSymbolTableRecord
100
AcDbDimStyleTableRecord
  2
Annotative
 70
     0
340
55
1001
AcadAnnotative
1000
AnnotativeData
1002
{
1070
     1
1070
     1
1002
}
  0
ENDTAB
  0
TABLE
  2
BLOCK_RECORD
  5
1
330
0
100
AcDbSymbolTable
 70
     4
  0
BLOCK_RECORD
  5
6F
330
1
100
AcDbSymbolTableRecord
100
AcDbBlockTableRecord
  2
*Model_Space
340
72
 70
     0
280
     1
281
     0
  0
BLOCK_RECORD
  5
6B
330
1
100
AcDbSymbolTableRecord
100
AcDbBlockTableRecord
  2
*Paper_Space
340
6E
 70
     0
280
     1
281
     0
  0
BLOCK_RECORD
  5
7C
330
1
100
AcDbSymbolTableRecord
100
AcDbBlockTableRecord
  2
AIRPORT
340
0
 70
     0
280
     1
281
     0
  0
BLOCK_RECORD
  5
80
330
1
100
AcDbSymbolTableRecord
100
AcDbBlockTableRecord
  2
FIX
340
0
 70
     0
280
     1
281
     0
  0
BLOCK_RECORD
  5
88
330
1
100
AcDbSymbolTableRecord
100
AcDbBlockTableRecord
  2
NDB
340
0
 70
     0
280
     1
281
     0
  0
BLOCK_RECORD
  5
8F
330
1
100
AcDbSymbolTableRecord
100
AcDbBlockTableRecord
  2
VOR
340
0
 70
     0
280
     1
281
     0
  0
ENDTAB
  0
ENDSEC
  0
SECTION
  2
BLOCKS
  0
BLOCK
  5
70
330
6F
100
AcDbEntity
  8
0
100
AcDbBlockBegin
  2
*Model_Space
 70
     0
 10
0.0
 20
0.0
 30
0.0
  3
*Model_Space
  1

  0
ENDBLK
  5
71
330
6F
100
AcDbEntity
  8
0
100
AcDbBlockEnd
  0
BLOCK
  5
6C
330
6B
100
AcDbEntity
 67
     1
  8
0
100
AcDbBlockBegin
  2
*Paper_Space
 70
     0
 10
0.0
 20
0.0
 30
0.0
  3
*Paper_Space
  1

  0
ENDBLK
  5
6D
330
6B
100
AcDbEntity
 67
     1
  8
0
100
AcDbBlockEnd
  0
BLOCK
  5
7D
330
7C
100
AcDbEntity
  8
0
100
AcDbBlockBegin
  2
AIRPORT
 70
     0
 10
0.0
 20
0.0
 30
0.0
  3
AIRPORT
  1

  0
CIRCLE
  5
7E
330
7C
100
AcDbEntity
  8
0
100
AcDbCircle
 10
0.0
 20
0.0
 30
0.0
 40
0.005
  0
ENDBLK
  5
7F
330
7C
100
AcDbEntity
  8
0
100
AcDbBlockEnd
  0
BLOCK
  5
81
330
80
100
AcDbEntity
  8
0
100
AcDbBlockBegin
  2
FIX
 70
     0
 10
0.0
 20
0.0
 30
0.0
  3
FIX
  1

  0
LWPOLYLINE
  5
82
330
80
100
AcDbEntity
  8
0
100
AcDbPolyline
 90
        3
 70
     1
 43
0.0
 10
-0.0050000000000061
 20
-0.0028867513459261
 10
0.0049999999999848
 20
-0.0028867513459474
 10
-0.0000000000000178
 20
0.0057735026919019
  0
ENDBLK
  5
87
330
80
100
AcDbEntity
  8
0
100
AcDbBlockEnd
  0
BLOCK
  5
89
330
88
100
AcDbEntity
  8
0
100
AcDbBlockBegin
  2
NDB
 70
     0
 10
0.0
 20
0.0
 30
0.0
  3
NDB
  1

  0
CIRCLE
  5
8A
330
88
100
AcDbEntity
  8
0
100
AcDbCircle
 10
0.0
 20
0.0
 30
0.0
 40
0.00065625
  0
CIRCLE
  5
8B
330
88
100
AcDbEntity
  8
0
100
AcDbCircle
 10
0.0
 20
0.0
 30
0.0
 40
0.002625
  0
CIRCLE
  5
8C
330
88
100
AcDbEntity
  8
0
100
AcDbCircle
 10
0.0
 20
0.0
 30
0.0
 40
0.00525
  0
CIRCLE
  5
8D
330
88
100
AcDbEntity
  8
0
100
AcDbCircle
 10
0.0
 20
0.0
 30
0.0
 40
0.007875
  0
ENDBLK
  5
8E
330
88
100
AcDbEntity
  8
0
100
AcDbBlockEnd
  0
BLOCK
  5
90
330
8F
100
AcDbEntity
  8
0
100
AcDbBlockBegin
  2
VOR
 70
     0
 10
0.0
 20
0.0
 30
0.0
  3
VOR
  1

  0
LWPOLYLINE
  5
91
330
8F
100
AcDbEntity
  8
0
100
AcDbPolyline
 90
        6
 70
     1
 43
0.0
 10
-0.0044997172835375
 20
0.0077937389547813
 10
-0.0089994345670776
 20
0.0
 10
-0.0044997172835393
 20
-0.0077937389547884
 10
0.0044997172835375
 20
-0.0077937389547884
 10
0.0089994345670776
 20
0.0
 10
0.0044997172835393
 20
0.0077937389547813
  0
CIRCLE
  5
99
330
8F
100
AcDbEntity
  8
0
100
AcDbCircle
 10
0.0
 20
0.0
 30
0.0
 40
0.0015111425556361
  0
ENDBLK
  5
9A
330
8F
100
AcDbEntity
  8
0
100
AcDbBlockEnd
  0
ENDSEC
  0
SECTION
  2
ENTITIES
  0
LINE
  5
A0F
330
6F
100
AcDbEntity
  8
GEO_
 62
     7
420
 16777215
100
AcDbLine
 10
-82.46666666666667
 20
47.54182710952418
 30
0.0
 11
-82.72361111111111
 21
47.30980903131531
 31
0.0
  0
LINE
  5
A29
330
6F
100
AcDbEntity
  8
GEO_
 62
     7
420
 16777215
100
AcDbLine
 10
-82.46666666666667
 20
47.54182710952418
 30
0.0
 11
-82.72361111111111
 21
47.30980903131531
 31
0.0
  0
LINE
  5
A54
330
6F
100
AcDbEntity
  8
GEO_
 62
     7
420
 16777215
100
AcDbLine
 10
-82.46666666666667
 20
47.54182710952418
 30
0.0
 11
-82.46666666666667
 21
47.54182710952418
 31
0.0
  0
LINE
  5
A56
330
6F
100
AcDbEntity
  8
GEO_
 62
     7
420
 16777215
100
AcDbLine
 10
-82.46666666666667
 20
47.54182710952418
 30
0.0
 11
-82.72361111111111
 21
47.30980903131531
 31
0.0
  0
LINE
  5
A57
330
6F
100
AcDbEntity
  8
GEO_
 62
     7
420
 16777215
100
AcDbLine
 10
-82.72361111111111
 20
47.30980903131531
 30
0.0
 11
-82.72361111111111
 21
47.30980903131531
 31
0.0
  0
LINE
  5
A58
330
6F
100
AcDbEntity
  8
GEO_
 62
     7
420
 16777215
100
AcDbLine
 10
-82.72361111111111
 20
47.30980903131531
 30
0.0
 11
-82.46666666666667
 21
47.54182710952418
 31
0.0
  0
LINE
  5
A94
330
6F
100
AcDbEntity
  8
GEO_
 62
     7
420
 16777215
100
AcDbLine
 10
-82.46666666666667
 20
47.54182710952418
 30
0.0
 11
-82.72361111111111
 21
47.30980903131531
 31
0.0
  0
LINE
  5
A95
330
6F
100
AcDbEntity
  8
GEO_
 62
     7
420
 16777215
100
AcDbLine
 10
-82.72361111111111
 20
47.30980903131531
 30
0.0
 11
-82.83055555555554
 21
47.17460171266811
 31
0.0
  0
LINE
  5
A96
330
6F
100
AcDbEntity
  8
GEO_
 62
     7
420
 16777215
100
AcDbLine
 10
-82.83055555555554
 20
47.17460171266811
 30
0.0
 11
-82.86388888888888
 21
47.14932153623663
 31
0.0
  0
LINE
  5
A97
330
6F
100
AcDbEntity
  8
GEO_
 62
     7
420
 16777215
100
AcDbLine
 10
-82.86388888888888
 20
47.14932153623663
 30
0.0
 11
-82.93476111111113
 21
46.83998642141473
 31
0.0
  0
LINE
  5
AAC
330
6F
100
AcDbEntity
  8
GEO_
 62
     7
420
 16777215
100
AcDbLine
 10
-82.46666666666667
 20
47.54182710952418
 30
0.0
 11
-82.72361111111111
 21
47.30980903131531
 31
0.0
  0
LINE
  5
AAD
330
6F
100
AcDbEntity
  8
GEO_
 62
     7
420
 16777215
100
AcDbLine
 10
-82.72361111111111
 20
47.30980903131531
 30
0.0
 11
-82.83055555555554
 21
47.17460171266811
 31
0.0
  0
LINE
  5
AAE
330
6F
100
AcDbEntity
  8
GEO_
 62
     7
420
 16777215
100
AcDbLine
 10
-82.83055555555554
 20
47.17460171266811
 30
0.0
 11
-82.86388888888888
 21
47.14932153623663
 31
0.0
  0
LINE
  5
AAF
330
6F
100
AcDbEntity
  8
GEO_
 62
     7
420
 16777215
100
AcDbLine
 10
-82.86388888888888
 20
47.14932153623663
 30
0.0
 11
-82.93476111111113
 21
46.83998642141473
 31
0.0
  0
LINE
  5
AD5
330
6F
100
AcDbEntity
  8
GEO_
 62
     7
420
 16777215
100
AcDbLine
 10
-82.46666666666667
 20
47.54182710952418
 30
0.0
 11
-82.46666666666667
 21
47.54182710952418
 31
0.0
  0
LINE
  5
AD7
330
6F
100
AcDbEntity
  8
GEO_
 62
     7
420
 16777215
100
AcDbLine
 10
-82.46666666666667
 20
47.54182710952418
 30
0.0
 11
-82.72361111111111
 21
47.30980903131531
 31
0.0
  0
LINE
  5
AD8
330
6F
100
AcDbEntity
  8
GEO_
 62
     7
420
 16777215
100
AcDbLine
 10
-82.72361111111111
 20
47.30980903131531
 30
0.0
 11
-82.72361111111111
 21
47.30980903131531
 31
0.0
  0
LINE
  5
AD9
330
6F
100
AcDbEntity
  8
GEO_
 62
     7
420
 16777215
100
AcDbLine
 10
-82.72361111111111
 20
47.30980903131531
 30
0.0
 11
-82.46666666666667
 21
47.54182710952418
 31
0.0
  0
LINE
  5
ADA
330
6F
100
AcDbEntity
  8
GEO_
 62
     7
420
 16777215
100
AcDbLine
 10
-82.72361111111111
 20
47.30980903131531
 30
0.0
 11
-82.83055555555554
 21
47.17460171266811
 31
0.0
  0
LINE
  5
ADB
330
6F
100
AcDbEntity
  8
GEO_
 62
     7
420
 16777215
100
AcDbLine
 10
-82.83055555555554
 20
47.17460171266811
 30
0.0
 11
-82.83055555555554
 21
47.17460171266811
 31
0.0
  0
LINE
  5
ADC
330
6F
100
AcDbEntity
  8
GEO_
 62
     7
420
 16777215
100
AcDbLine
 10
-82.83055555555554
 20
47.17460171266811
 30
0.0
 11
-82.72361111111111
 21
47.30980903131531
 31
0.0
  0
LINE
  5
ADD
330
6F
100
AcDbEntity
  8
GEO_
 62
     7
420
 16777215
100
AcDbLine
 10
-82.83055555555554
 20
47.17460171266811
 30
0.0
 11
-82.86388888888888
 21
47.14932153623663
 31
0.0
  0
LINE
  5
ADE
330
6F
100
AcDbEntity
  8
GEO_
 62
     7
420
 16777215
100
AcDbLine
 10
-82.86388888888888
 20
47.14932153623663
 30
0.0
 11
-82.86388888888888
 21
47.14932153623663
 31
0.0
  0
LINE
  5
ADF
330
6F
100
AcDbEntity
  8
GEO_
 62
     7
420
 16777215
100
AcDbLine
 10
-82.86388888888888
 20
47.14932153623663
 30
0.0
 11
-82.83055555555554
 21
47.17460171266811
 31
0.0
  0
LINE
  5
AE0
330
6F
100
AcDbEntity
  8
GEO_
 62
     7
420
 16777215
100
AcDbLine
 10
-82.86388888888888
 20
47.14932153623663
 30
0.0
 11
-82.93476111111113
 21
46.83998642141473
 31
0.0
  0
LINE
  5
AE1
330
6F
100
AcDbEntity
  8
GEO_
 62
     7
420
 16777215
100
AcDbLine
 10
-82.93476111111113
 20
46.83998642141473
 30
0.0
 11
-82.93476111111113
 21
46.83998642141473
 31
0.0
  0
LINE
  5
AE2
330
6F
100
AcDbEntity
  8
GEO_
 62
     7
420
 16777215
100
AcDbLine
 10
-82.93476111111113
 20
46.83998642141473
 30
0.0
 11
-82.86388888888888
 21
47.14932153623663
 31
0.0
  0
LINE
  5
B07
330
6F
100
AcDbEntity
  8
GEO_
 62
     7
420
 16777215
100
AcDbLine
 10
-81.22083333333334
 20
47.36576804921207
 30
0.0
 11
-80.89583333333335
 21
47.41684411624279
 31
0.0
  0
LINE
  5
B08
330
6F
100
AcDbEntity
  8
GEO_
 62
     7
420
 16777215
100
AcDbLine
 10
-80.89583333333335
 20
47.41684411624279
 30
0.0
 11
-80.26666666666667
 21
47.46416435900834
 31
0.0
  0
LINE
  5
B09
330
6F
100
AcDbEntity
  8
GEO_
 62
     7
420
 16777215
100
AcDbLine
 10
-80.26666666666667
 20
47.46416435900834
 30
0.0
 11
-80.44166666666669
 21
47.38468150698741
 31
0.0
  0
LINE
  5
B0A
330
6F
100
AcDbEntity
  8
GEO_
 62
     7
420
 16777215
100
AcDbLine
 10
-80.44166666666669
 20
47.38468150698741
 30
0.0
 11
-80.94861111111113
 21
46.88978724084038
 31
0.0
  0
LINE
  5
B0B
330
6F
100
AcDbEntity
  8
GEO_
 62
     7
420
 16777215
100
AcDbLine
 10
-80.94861111111113
 20
46.88978724084038
 30
0.0
 11
-81.59321944444444
 21
46.89481218277497
 31
0.0
  0
LINE
  5
B0C
330
6F
100
AcDbEntity
  8
GEO_
 62
     7
420
 16777215
100
AcDbLine
 10
-81.59321944444444
 20
46.89481218277497
 30
0.0
 11
-81.79664444444444
 21
46.87658313968158
 31
0.0
  0
LINE
  5
B0E
330
6F
100
AcDbEntity
  8
GEO_
 62
     7
420
 16777215
100
AcDbLine
 10
-81.22083333333334
 20
47.36576804921207
 30
0.0
 11
-80.89583333333335
 21
47.41684411624279
 31
0.0
  0
LINE
  5
B0F
330
6F
100
AcDbEntity
  8
GEO_
 62
     7
420
 16777215
100
AcDbLine
 10
-80.89583333333335
 20
47.41684411624279
 30
0.0
 11
-80.26666666666667
 21
47.46416435900834
 31
0.0
  0
LINE
  5
B10
330
6F
100
AcDbEntity
  8
GEO_
 62
     7
420
 16777215
100
AcDbLine
 10
-80.26666666666667
 20
47.46416435900834
 30
0.0
 11
-80.44166666666669
 21
47.38468150698741
 31
0.0
  0
LINE
  5
B11
330
6F
100
AcDbEntity
  8
GEO_
 62
     7
420
 16777215
100
AcDbLine
 10
-80.44166666666669
 20
47.38468150698741
 30
0.0
 11
-80.94861111111113
 21
46.88978724084038
 31
0.0
  0
LINE
  5
B12
330
6F
100
AcDbEntity
  8
GEO_
 62
     7
420
 16777215
100
AcDbLine
 10
-80.94861111111113
 20
46.88978724084038
 30
0.0
 11
-81.59321944444444
 21
46.89481218277497
 31
0.0
  0
LINE
  5
B13
330
6F
100
AcDbEntity
  8
GEO_
 62
     7
420
 16777215
100
AcDbLine
 10
-81.59321944444444
 20
46.89481218277497
 30
0.0
 11
-81.79664444444444
 21
46.87658313968158
 31
0.0
  0
LINE
  5
B15
330
6F
100
AcDbEntity
  8
GEO_
 62
     7
420
 16777215
100
AcDbLine
 10
-81.82777777777777
 20
47.45659133552206
 30
0.0
 11
-81.22083333333334
 21
47.36576804921207
 31
0.0
  0
LINE
  5
B16
330
6F
100
AcDbEntity
  8
GEO_
 62
     7
420
 16777215
100
AcDbLine
 10
-81.22083333333334
 20
47.36576804921207
 30
0.0
 11
-81.22083333333334
 21
47.36576804921207
 31
0.0
  0
LINE
  5
B17
330
6F
100
AcDbEntity
  8
GEO_
 62
     7
420
 16777215
100
AcDbLine
 10
-81.22083333333334
 20
47.36576804921207
 30
0.0
 11
-81.82777777777777
 21
47.45659133552206
 31
0.0
  0
LINE
  5
B18
330
6F
100
AcDbEntity
  8
GEO_
 62
     7
420
 16777215
100
AcDbLine
 10
-81.22083333333334
 20
47.36576804921207
 30
0.0
 11
-80.89583333333335
 21
47.41684411624279
 31
0.0
  0
LINE
  5
B19
330
6F
100
AcDbEntity
  8
GEO_
 62
     7
420
 16777215
100
AcDbLine
 10
-80.89583333333335
 20
47.41684411624279
 30
0.0
 11
-80.89583333333335
 21
47.41684411624279
 31
0.0
  0
LINE
  5
B1A
330
6F
100
AcDbEntity
  8
GEO_
 62
     7
420
 16777215
100
AcDbLine
 10
-80.89583333333335
 20
47.41684411624279
 30
0.0
 11
-81.22083333333334
 21
47.36576804921207
 31
0.0
  0
LINE
  5
B1B
330
6F
100
AcDbEntity
  8
GEO_
 62
     7
420
 16777215
100
AcDbLine
 10
-80.89583333333335
 20
47.41684411624279
 30
0.0
 11
-80.26666666666667
 21
47.46416435900834
 31
0.0
  0
LINE
  5
B1C
330
6F
100
AcDbEntity
  8
GEO_
 62
     7
420
 16777215
100
AcDbLine
 10
-80.26666666666667
 20
47.46416435900834
 30
0.0
 11
-80.26666666666667
 21
47.46416435900834
 31
0.0
  0
LINE
  5
B1D
330
6F
100
AcDbEntity
  8
GEO_
 62
     7
420
 16777215
100
AcDbLine
 10
-80.26666666666667
 20
47.46416435900834
 30
0.0
 11
-80.89583333333335
 21
47.41684411624279
 31
0.0
  0
LINE
  5
B1E
330
6F
100
AcDbEntity
  8
GEO_
 62
     7
420
 16777215
100
AcDbLine
 10
-80.26666666666667
 20
47.46416435900834
 30
0.0
 11
-80.44166666666669
 21
47.38468150698741
 31
0.0
  0
LINE
  5
B1F
330
6F
100
AcDbEntity
  8
GEO_
 62
     7
420
 16777215
100
AcDbLine
 10
-80.44166666666669
 20
47.38468150698741
 30
0.0
 11
-80.44166666666669
 21
47.38468150698741
 31
0.0
  0
LINE
  5
B20
330
6F
100
AcDbEntity
  8
GEO_
 62
     7
420
 16777215
100
AcDbLine
 10
-80.44166666666669
 20
47.38468150698741
 30
0.0
 11
-80.26666666666667
 21
47.46416435900834
 31
0.0
  0
LINE
  5
B21
330
6F
100
AcDbEntity
  8
GEO_
 62
     7
420
 16777215
100
AcDbLine
 10
-80.44166666666669
 20
47.38468150698741
 30
0.0
 11
-80.94861111111113
 21
46.88978724084038
 31
0.0
  0
LINE
  5
B22
330
6F
100
AcDbEntity
  8
GEO_
 62
     7
420
 16777215
100
AcDbLine
 10
-80.94861111111113
 20
46.88978724084038
 30
0.0
 11
-80.94861111111113
 21
46.88978724084038
 31
0.0
  0
LINE
  5
B23
330
6F
100
AcDbEntity
  8
GEO_
 62
     7
420
 16777215
100
AcDbLine
 10
-80.94861111111113
 20
46.88978724084038
 30
0.0
 11
-80.44166666666669
 21
47.38468150698741
 31
0.0
  0
LINE
  5
B24
330
6F
100
AcDbEntity
  8
GEO_
 62
     7
420
 16777215
100
AcDbLine
 10
-80.94861111111113
 20
46.88978724084038
 30
0.0
 11
-81.59321944444444
 21
46.89481218277497
 31
0.0
  0
LINE
  5
B25
330
6F
100
AcDbEntity
  8
GEO_
 62
     7
420
 16777215
100
AcDbLine
 10
-81.59321944444444
 20
46.89481218277497
 30
0.0
 11
-81.59321944444444
 21
46.89481218277497
 31
0.0
  0
LINE
  5
B26
330
6F
100
AcDbEntity
  8
GEO_
 62
     7
420
 16777215
100
AcDbLine
 10
-81.59321944444444
 20
46.89481218277497
 30
0.0
 11
-80.94861111111113
 21
46.88978724084038
 31
0.0
  0
LINE
  5
B27
330
6F
100
AcDbEntity
  8
GEO_
 62
     7
420
 16777215
100
AcDbLine
 10
-81.59321944444444
 20
46.89481218277497
 30
0.0
 11
-81.79664444444444
 21
46.87658313968158
 31
0.0
  0
LINE
  5
B28
330
6F
100
AcDbEntity
  8
GEO_
 62
     7
420
 16777215
100
AcDbLine
 10
-81.79664444444444
 20
46.87658313968158
 30
0.0
 11
-81.79664444444444
 21
46.87658313968158
 31
0.0
  0
LINE
  5
B29
330
6F
100
AcDbEntity
  8
GEO_
 62
     7
420
 16777215
100
AcDbLine
 10
-81.79664444444444
 20
46.87658313968158
 30
0.0
 11
-81.59321944444444
 21
46.89481218277497
 31
0.0
  0
LINE
  5
B2B
330
6F
100
AcDbEntity
  8
GEO_
 62
     7
420
 16777215
100
AcDbLine
 10
-81.82777777777777
 20
47.45659133552206
 30
0.0
 11
-81.82777777777777
 21
47.45659133552206
 31
0.0
  0
LINE
  5
B2D
330
6F
100
AcDbEntity
  8
GEO_
 62
     7
420
 16777215
100
AcDbLine
 10
-82.40833333333334
 20
47.5361420410192
 30
0.0
 11
-82.27222222222223
 21
47.51795240001043
 31
0.0
  0
LINE
  5
B2E
330
6F
100
AcDbEntity
  8
GEO_
 62
     7
420
 16777215
100
AcDbLine
 10
-82.27222222222223
 20
47.51795240001043
 30
0.0
 11
-81.97083333333333
 21
47.48499368213699
 31
0.0
  0
LINE
  5
B2F
330
6F
100
AcDbEntity
  8
GEO_
 62
     7
420
 16777215
100
AcDbLine
 10
-81.97083333333333
 20
47.48499368213699
 30
0.0
 11
-81.82777777777777
 21
47.45659133552206
 31
0.0
  0
LINE
  5
B30
330
6F
100
AcDbEntity
  8
GEO_
 62
     7
420
 16777215
100
AcDbLine
 10
-81.82777777777777
 20
47.45659133552206
 30
0.0
 11
-81.22083333333334
 21
47.36576804921207
 31
0.0
  0
LINE
  5
B31
330
6F
100
AcDbEntity
  8
GEO_
 62
     7
420
 16777215
100
AcDbLine
 10
-81.22083333333334
 20
47.36576804921207
 30
0.0
 11
-80.89583333333335
 21
47.41684411624279
 31
0.0
  0
LINE
  5
B32
330
6F
100
AcDbEntity
  8
GEO_
 62
     7
420
 16777215
100
AcDbLine
 10
-80.89583333333335
 20
47.41684411624279
 30
0.0
 11
-80.26666666666667
 21
47.46416435900834
 31
0.0
  0
LINE
  5
B33
330
6F
100
AcDbEntity
  8
GEO_
 62
     7
420
 16777215
100
AcDbLine
 10
-80.26666666666667
 20
47.46416435900834
 30
0.0
 11
-80.44166666666669
 21
47.38468150698741
 31
0.0
  0
LINE
  5
B34
330
6F
100
AcDbEntity
  8
GEO_
 62
     7
420
 16777215
100
AcDbLine
 10
-80.44166666666669
 20
47.38468150698741
 30
0.0
 11
-80.94861111111113
 21
46.88978724084038
 31
0.0
  0
LINE
  5
B35
330
6F
100
AcDbEntity
  8
GEO_
 62
     7
420
 16777215
100
AcDbLine
 10
-80.94861111111113
 20
46.88978724084038
 30
0.0
 11
-81.59321944444444
 21
46.89481218277497
 31
0.0
  0
LINE
  5
B36
330
6F
100
AcDbEntity
  8
GEO_
 62
     7
420
 16777215
100
AcDbLine
 10
-81.59321944444444
 20
46.89481218277497
 30
0.0
 11
-81.79664444444444
 21
46.87658313968158
 31
0.0
  0
LINE
  5
B37
330
6F
100
AcDbEntity
  8
GEO_
 62
     7
420
 16777215
100
AcDbLine
 10
-81.79664444444444
 20
46.87658313968158
 30
0.0
 11
-82.47665833333334
 21
46.812303088105
 31
0.0
  0
LINE
  5
B3E
330
6F
100
AcDbEntity
  8
GEO_
 62
     7
420
 16777215
100
AcDbLine
 10
-82.72361111111111
 20
47.30980903131531
 30
0.0
 11
-82.46666666666667
 21
47.54182710952418
 31
0.0
  0
LINE
  5
B3F
330
6F
100
AcDbEntity
  8
GEO_
 62
     7
420
 16777215
100
AcDbLine
 10
-82.40833333333334
 20
47.5361420410192
 30
0.0
 11
-82.27222222222223
 21
47.51795240001043
 31
0.0
  0
LINE
  5
B40
330
6F
100
AcDbEntity
  8
GEO_
 62
     7
420
 16777215
100
AcDbLine
 10
-82.27222222222223
 20
47.51795240001043
 30
0.0
 11
-81.97083333333333
 21
47.48499368213699
 31
0.0
  0
LINE
  5
B41
330
6F
100
AcDbEntity
  8
GEO_
 62
     7
420
 16777215
100
AcDbLine
 10
-81.97083333333333
 20
47.48499368213699
 30
0.0
 11
-81.82777777777777
 21
47.45659133552206
 31
0.0
  0
LINE
  5
B42
330
6F
100
AcDbEntity
  8
GEO_
 62
     7
420
 16777215
100
AcDbLine
 10
-81.82777777777777
 20
47.45659133552206
 30
0.0
 11
-81.22083333333334
 21
47.36576804921207
 31
0.0
  0
LINE
  5
B43
330
6F
100
AcDbEntity
  8
GEO_
 62
     7
420
 16777215
100
AcDbLine
 10
-81.22083333333334
 20
47.36576804921207
 30
0.0
 11
-80.89583333333335
 21
47.41684411624279
 31
0.0
  0
LINE
  5
B44
330
6F
100
AcDbEntity
  8
GEO_
 62
     7
420
 16777215
100
AcDbLine
 10
-80.89583333333335
 20
47.41684411624279
 30
0.0
 11
-80.26666666666667
 21
47.46416435900834
 31
0.0
  0
LINE
  5
B45
330
6F
100
AcDbEntity
  8
GEO_
 62
     7
420
 16777215
100
AcDbLine
 10
-80.26666666666667
 20
47.46416435900834
 30
0.0
 11
-80.44166666666669
 21
47.38468150698741
 31
0.0
  0
LINE
  5
B46
330
6F
100
AcDbEntity
  8
GEO_
 62
     7
420
 16777215
100
AcDbLine
 10
-80.44166666666669
 20
47.38468150698741
 30
0.0
 11
-80.94861111111113
 21
46.88978724084038
 31
0.0
  0
LINE
  5
B47
330
6F
100
AcDbEntity
  8
GEO_
 62
     7
420
 16777215
100
AcDbLine
 10
-80.94861111111113
 20
46.88978724084038
 30
0.0
 11
-81.59321944444444
 21
46.89481218277497
 31
0.0
  0
LINE
  5
B48
330
6F
100
AcDbEntity
  8
GEO_
 62
     7
420
 16777215
100
AcDbLine
 10
-81.59321944444444
 20
46.89481218277497
 30
0.0
 11
-81.79664444444444
 21
46.87658313968158
 31
0.0
  0
LINE
  5
B49
330
6F
100
AcDbEntity
  8
GEO_
 62
     7
420
 16777215
100
AcDbLine
 10
-81.79664444444444
 20
46.87658313968158
 30
0.0
 11
-82.47665833333334
 21
46.812303088105
 31
0.0
  0
LINE
  5
B50
330
6F
100
AcDbEntity
  8
GEO_
 62
     7
420
 16777215
100
AcDbLine
 10
-82.72361111111111
 20
47.30980903131531
 30
0.0
 11
-82.46666666666667
 21
47.54182710952418
 31
0.0
  0
LINE
  5
B51
330
6F
100
AcDbEntity
  8
GEO_
 62
     7
420
 16777215
100
AcDbLine
 10
-82.46666666666667
 20
47.54182710952418
 30
0.0
 11
-82.40833333333334
 21
47.5361420410192
 31
0.0
  0
LINE
  5
B52
330
6F
100
AcDbEntity
  8
GEO_
 62
     7
420
 16777215
100
AcDbLine
 10
-82.40833333333334
 20
47.5361420410192
 30
0.0
 11
-82.40833333333334
 21
47.5361420410192
 31
0.0
  0
LINE
  5
B53
330
6F
100
AcDbEntity
  8
GEO_
 62
     7
420
 16777215
100
AcDbLine
 10
-82.40833333333334
 20
47.5361420410192
 30
0.0
 11
-82.46666666666667
 21
47.54182710952418
 31
0.0
  0
LINE
  5
B54
330
6F
100
AcDbEntity
  8
GEO_
 62
     7
420
 16777215
100
AcDbLine
 10
-82.40833333333334
 20
47.5361420410192
 30
0.0
 11
-82.27222222222223
 21
47.51795240001043
 31
0.0
  0
LINE
  5
B55
330
6F
100
AcDbEntity
  8
GEO_
 62
     7
420
 16777215
100
AcDbLine
 10
-82.27222222222223
 20
47.51795240001043
 30
0.0
 11
-82.27222222222223
 21
47.51795240001043
 31
0.0
  0
LINE
  5
B56
330
6F
100
AcDbEntity
  8
GEO_
 62
     7
420
 16777215
100
AcDbLine
 10
-82.27222222222223
 20
47.51795240001043
 30
0.0
 11
-82.40833333333334
 21
47.5361420410192
 31
0.0
  0
LINE
  5
B57
330
6F
100
AcDbEntity
  8
GEO_
 62
     7
420
 16777215
100
AcDbLine
 10
-82.27222222222223
 20
47.51795240001043
 30
0.0
 11
-81.97083333333333
 21
47.48499368213699
 31
0.0
  0
LINE
  5
B58
330
6F
100
AcDbEntity
  8
GEO_
 62
     7
420
 16777215
100
AcDbLine
 10
-81.97083333333333
 20
47.48499368213699
 30
0.0
 11
-81.97083333333333
 21
47.48499368213699
 31
0.0
  0
LINE
  5
B59
330
6F
100
AcDbEntity
  8
GEO_
 62
     7
420
 16777215
100
AcDbLine
 10
-81.97083333333333
 20
47.48499368213699
 30
0.0
 11
-82.27222222222223
 21
47.51795240001043
 31
0.0
  0
LINE
  5
B5A
330
6F
100
AcDbEntity
  8
GEO_
 62
     7
420
 16777215
100
AcDbLine
 10
-81.97083333333333
 20
47.48499368213699
 30
0.0
 11
-81.82777777777777
 21
47.45659133552206
 31
0.0
  0
LINE
  5
B5B
330
6F
100
AcDbEntity
  8
GEO_
 62
     7
420
 16777215
100
AcDbLine
 10
-81.82777777777777
 20
47.45659133552206
 30
0.0
 11
-81.82777777777777
 21
47.45659133552206
 31
0.0
  0
LINE
  5
B5C
330
6F
100
AcDbEntity
  8
GEO_
 62
     7
420
 16777215
100
AcDbLine
 10
-81.82777777777777
 20
47.45659133552206
 30
0.0
 11
-81.97083333333333
 21
47.48499368213699
 31
0.0
  0
LINE
  5
B5D
330
6F
100
AcDbEntity
  8
GEO_
 62
     7
420
 16777215
100
AcDbLine
 10
-81.82777777777777
 20
47.45659133552206
 30
0.0
 11
-81.22083333333334
 21
47.36576804921207
 31
0.0
  0
LINE
  5
B5E
330
6F
100
AcDbEntity
  8
GEO_
 62
     7
420
 16777215
100
AcDbLine
 10
-81.22083333333334
 20
47.36576804921207
 30
0.0
 11
-81.22083333333334
 21
47.36576804921207
 31
0.0
  0
LINE
  5
B5F
330
6F
100
AcDbEntity
  8
GEO_
 62
     7
420
 16777215
100
AcDbLine
 10
-81.22083333333334
 20
47.36576804921207
 30
0.0
 11
-81.82777777777777
 21
47.45659133552206
 31
0.0
  0
LINE
  5
B60
330
6F
100
AcDbEntity
  8
GEO_
 62
     7
420
 16777215
100
AcDbLine
 10
-81.22083333333334
 20
47.36576804921207
 30
0.0
 11
-80.89583333333335
 21
47.41684411624279
 31
0.0
  0
LINE
  5
B61
330
6F
100
AcDbEntity
  8
GEO_
 62
     7
420
 16777215
100
AcDbLine
 10
-80.89583333333335
 20
47.41684411624279
 30
0.0
 11
-80.89583333333335
 21
47.41684411624279
 31
0.0
  0
LINE
  5
B62
330
6F
100
AcDbEntity
  8
GEO_
 62
     7
420
 16777215
100
AcDbLine
 10
-80.89583333333335
 20
47.41684411624279
 30
0.0
 11
-81.22083333333334
 21
47.36576804921207
 31
0.0
  0
LINE
  5
B63
330
6F
100
AcDbEntity
  8
GEO_
 62
     7
420
 16777215
100
AcDbLine
 10
-80.89583333333335
 20
47.41684411624279
 30
0.0
 11
-80.26666666666667
 21
47.46416435900834
 31
0.0
  0
LINE
  5
B64
330
6F
100
AcDbEntity
  8
GEO_
 62
     7
420
 16777215
100
AcDbLine
 10
-80.26666666666667
 20
47.46416435900834
 30
0.0
 11
-80.26666666666667
 21
47.46416435900834
 31
0.0
  0
LINE
  5
B65
330
6F
100
AcDbEntity
  8
GEO_
 62
     7
420
 16777215
100
AcDbLine
 10
-80.26666666666667
 20
47.46416435900834
 30
0.0
 11
-80.89583333333335
 21
47.41684411624279
 31
0.0
  0
LINE
  5
B66
330
6F
100
AcDbEntity
  8
GEO_
 62
     7
420
 16777215
100
AcDbLine
 10
-80.26666666666667
 20
47.46416435900834
 30
0.0
 11
-80.44166666666669
 21
47.38468150698741
 31
0.0
  0
LINE
  5
B67
330
6F
100
AcDbEntity
  8
GEO_
 62
     7
420
 16777215
100
AcDbLine
 10
-80.44166666666669
 20
47.38468150698741
 30
0.0
 11
-80.44166666666669
 21
47.38468150698741
 31
0.0
  0
LINE
  5
B68
330
6F
100
AcDbEntity
  8
GEO_
 62
     7
420
 16777215
100
AcDbLine
 10
-80.44166666666669
 20
47.38468150698741
 30
0.0
 11
-80.26666666666667
 21
47.46416435900834
 31
0.0
  0
LINE
  5
B69
330
6F
100
AcDbEntity
  8
GEO_
 62
     7
420
 16777215
100
AcDbLine
 10
-80.44166666666669
 20
47.38468150698741
 30
0.0
 11
-80.94861111111113
 21
46.88978724084038
 31
0.0
  0
LINE
  5
B6A
330
6F
100
AcDbEntity
  8
GEO_
 62
     7
420
 16777215
100
AcDbLine
 10
-80.94861111111113
 20
46.88978724084038
 30
0.0
 11
-80.94861111111113
 21
46.88978724084038
 31
0.0
  0
LINE
  5
B6B
330
6F
100
AcDbEntity
  8
GEO_
 62
     7
420
 16777215
100
AcDbLine
 10
-80.94861111111113
 20
46.88978724084038
 30
0.0
 11
-80.44166666666669
 21
47.38468150698741
 31
0.0
  0
LINE
  5
B6C
330
6F
100
AcDbEntity
  8
GEO_
 62
     7
420
 16777215
100
AcDbLine
 10
-80.94861111111113
 20
46.88978724084038
 30
0.0
 11
-81.59321944444444
 21
46.89481218277497
 31
0.0
  0
LINE
  5
B6D
330
6F
100
AcDbEntity
  8
GEO_
 62
     7
420
 16777215
100
AcDbLine
 10
-81.59321944444444
 20
46.89481218277497
 30
0.0
 11
-81.59321944444444
 21
46.89481218277497
 31
0.0
  0
LINE
  5
B6E
330
6F
100
AcDbEntity
  8
GEO_
 62
     7
420
 16777215
100
AcDbLine
 10
-81.59321944444444
 20
46.89481218277497
 30
0.0
 11
-80.94861111111113
 21
46.88978724084038
 31
0.0
  0
LINE
  5
B6F
330
6F
100
AcDbEntity
  8
GEO_
 62
     7
420
 16777215
100
AcDbLine
 10
-81.59321944444444
 20
46.89481218277497
 30
0.0
 11
-81.79664444444444
 21
46.87658313968158
 31
0.0
  0
LINE
  5
B70
330
6F
100
AcDbEntity
  8
GEO_
 62
     7
420
 16777215
100
AcDbLine
 10
-81.79664444444444
 20
46.87658313968158
 30
0.0
 11
-81.79664444444444
 21
46.87658313968158
 31
0.0
  0
LINE
  5
B71
330
6F
100
AcDbEntity
  8
GEO_
 62
     7
420
 16777215
100
AcDbLine
 10
-81.79664444444444
 20
46.87658313968158
 30
0.0
 11
-81.59321944444444
 21
46.89481218277497
 31
0.0
  0
LINE
  5
B72
330
6F
100
AcDbEntity
  8
GEO_
 62
     7
420
 16777215
100
AcDbLine
 10
-81.79664444444444
 20
46.87658313968158
 30
0.0
 11
-82.47665833333334
 21
46.812303088105
 31
0.0
  0
LINE
  5
B73
330
6F
100
AcDbEntity
  8
GEO_
 62
     7
420
 16777215
100
AcDbLine
 10
-82.47665833333334
 20
46.812303088105
 30
0.0
 11
-82.47665833333334
 21
46.812303088105
 31
0.0
  0
LINE
  5
B74
330
6F
100
AcDbEntity
  8
GEO_
 62
     7
420
 16777215
100
AcDbLine
 10
-82.47665833333334
 20
46.812303088105
 30
0.0
 11
-81.79664444444444
 21
46.87658313968158
 31
0.0
  0
LINE
  5
B85
330
6F
100
AcDbEntity
  8
GEO_
 62
     7
420
 16777215
100
AcDbLine
 10
-82.72361111111111
 20
47.30980903131531
 30
0.0
 11
-82.72361111111111
 21
47.30980903131531
 31
0.0
  0
LINE
  5
B87
330
6F
100
AcDbEntity
  8
GEO_
 62
     7
420
 16777215
100
AcDbLine
 10
-82.72361111111111
 20
47.30980903131531
 30
0.0
 11
-82.46666666666667
 21
47.54182710952418
 31
0.0
  0
LINE
  5
B88
330
6F
100
AcDbEntity
  8
GEO_
 62
     7
420
 16777215
100
AcDbLine
 10
-82.46666666666667
 20
47.54182710952418
 30
0.0
 11
-82.46666666666667
 21
47.54182710952418
 31
0.0
  0
LINE
  5
B89
330
6F
100
AcDbEntity
  8
GEO_
 62
     7
420
 16777215
100
AcDbLine
 10
-82.46666666666667
 20
47.54182710952418
 30
0.0
 11
-82.72361111111111
 21
47.30980903131531
 31
0.0
  0
LINE
  5
B8A
330
6F
100
AcDbEntity
  8
GEO_
 62
     7
420
 16777215
100
AcDbLine
 10
-82.40833333333334
 20
47.5361420410192
 30
0.0
 11
-82.27222222222223
 21
47.51795240001043
 31
0.0
  0
LINE
  5
B8B
330
6F
100
AcDbEntity
  8
GEO_
 62
     7
420
 16777215
100
AcDbLine
 10
-82.27222222222223
 20
47.51795240001043
 30
0.0
 11
-81.97083333333333
 21
47.48499368213699
 31
0.0
  0
LINE
  5
B8C
330
6F
100
AcDbEntity
  8
GEO_
 62
     7
420
 16777215
100
AcDbLine
 10
-81.97083333333333
 20
47.48499368213699
 30
0.0
 11
-81.82777777777777
 21
47.45659133552206
 31
0.0
  0
LINE
  5
B8D
330
6F
100
AcDbEntity
  8
GEO_
 62
     7
420
 16777215
100
AcDbLine
 10
-81.82777777777777
 20
47.45659133552206
 30
0.0
 11
-81.22083333333334
 21
47.36576804921207
 31
0.0
  0
LINE
  5
B8E
330
6F
100
AcDbEntity
  8
GEO_
 62
     7
420
 16777215
100
AcDbLine
 10
-81.22083333333334
 20
47.36576804921207
 30
0.0
 11
-80.89583333333335
 21
47.41684411624279
 31
0.0
  0
LINE
  5
B8F
330
6F
100
AcDbEntity
  8
GEO_
 62
     7
420
 16777215
100
AcDbLine
 10
-80.89583333333335
 20
47.41684411624279
 30
0.0
 11
-80.26666666666667
 21
47.46416435900834
 31
0.0
  0
LINE
  5
B90
330
6F
100
AcDbEntity
  8
GEO_
 62
     7
420
 16777215
100
AcDbLine
 10
-80.26666666666667
 20
47.46416435900834
 30
0.0
 11
-80.44166666666669
 21
47.38468150698741
 31
0.0
  0
LINE
  5
B91
330
6F
100
AcDbEntity
  8
GEO_
 62
     7
420
 16777215
100
AcDbLine
 10
-80.44166666666669
 20
47.38468150698741
 30
0.0
 11
-80.94861111111113
 21
46.88978724084038
 31
0.0
  0
LINE
  5
B92
330
6F
100
AcDbEntity
  8
GEO_
 62
     7
420
 16777215
100
AcDbLine
 10
-80.94861111111113
 20
46.88978724084038
 30
0.0
 11
-81.59321944444444
 21
46.89481218277497
 31
0.0
  0
LINE
  5
B93
330
6F
100
AcDbEntity
  8
GEO_
 62
     7
420
 16777215
100
AcDbLine
 10
-81.59321944444444
 20
46.89481218277497
 30
0.0
 11
-81.79664444444444
 21
46.87658313968158
 31
0.0
  0
LINE
  5
B94
330
6F
100
AcDbEntity
  8
GEO_
 62
     7
420
 16777215
100
AcDbLine
 10
-81.79664444444444
 20
46.87658313968158
 30
0.0
 11
-82.47665833333334
 21
46.812303088105
 31
0.0
  0
LINE
  5
B95
330
6F
100
AcDbEntity
  8
GEO_
 62
     7
420
 16777215
100
AcDbLine
 10
-82.47665833333334
 20
46.812303088105
 30
0.0
 11
-82.6329111111111
 21
46.79771715196348
 31
0.0
  0
LINE
  5
B96
330
6F
100
AcDbEntity
  8
GEO_
 62
     7
420
 16777215
100
AcDbLine
 10
-82.6329111111111
 20
46.79771715196348
 30
0.0
 11
-82.93476111111113
 21
46.83998642141473
 31
0.0
  0
LINE
  5
B97
330
6F
100
AcDbEntity
  8
GEO_
 62
     7
420
 16777215
100
AcDbLine
 10
-82.93476111111113
 20
46.83998642141473
 30
0.0
 11
-82.86388888888888
 21
47.14932153623663
 31
0.0
  0
LINE
  5
B98
330
6F
100
AcDbEntity
  8
GEO_
 62
     7
420
 16777215
100
AcDbLine
 10
-82.86388888888888
 20
47.14932153623663
 30
0.0
 11
-82.83055555555554
 21
47.17460171266811
 31
0.0
  0
LINE
  5
B99
330
6F
100
AcDbEntity
  8
GEO_
 62
     7
420
 16777215
100
AcDbLine
 10
-82.83055555555554
 20
47.17460171266811
 30
0.0
 11
-82.72361111111111
 21
47.30980903131531
 31
0.0
  0
LINE
  5
B9A
330
6F
100
AcDbEntity
  8
GEO_
 62
     7
420
 16777215
100
AcDbLine
 10
-82.72361111111111
 20
47.30980903131531
 30
0.0
 11
-82.46666666666667
 21
47.54182710952418
 31
0.0
  0
LINE
  5
B9B
330
6F
100
AcDbEntity
  8
GEO_
 62
     7
420
 16777215
100
AcDbLine
 10
-82.40833333333334
 20
47.5361420410192
 30
0.0
 11
-82.27222222222223
 21
47.51795240001043
 31
0.0
  0
LINE
  5
B9C
330
6F
100
AcDbEntity
  8
GEO_
 62
     7
420
 16777215
100
AcDbLine
 10
-82.27222222222223
 20
47.51795240001043
 30
0.0
 11
-81.97083333333333
 21
47.48499368213699
 31
0.0
  0
LINE
  5
B9D
330
6F
100
AcDbEntity
  8
GEO_
 62
     7
420
 16777215
100
AcDbLine
 10
-81.97083333333333
 20
47.48499368213699
 30
0.0
 11
-81.82777777777777
 21
47.45659133552206
 31
0.0
  0
LINE
  5
B9E
330
6F
100
AcDbEntity
  8
GEO_
 62
     7
420
 16777215
100
AcDbLine
 10
-81.82777777777777
 20
47.45659133552206
 30
0.0
 11
-81.22083333333334
 21
47.36576804921207
 31
0.0
  0
LINE
  5
B9F
330
6F
100
AcDbEntity
  8
GEO_
 62
     7
420
 16777215
100
AcDbLine
 10
-81.22083333333334
 20
47.36576804921207
 30
0.0
 11
-80.89583333333335
 21
47.41684411624279
 31
0.0
  0
LINE
  5
BA0
330
6F
100
AcDbEntity
  8
GEO_
 62
     7
420
 16777215
100
AcDbLine
 10
-80.89583333333335
 20
47.41684411624279
 30
0.0
 11
-80.26666666666667
 21
47.46416435900834
 31
0.0
  0
LINE
  5
BA1
330
6F
100
AcDbEntity
  8
GEO_
 62
     7
420
 16777215
100
AcDbLine
 10
-80.26666666666667
 20
47.46416435900834
 30
0.0
 11
-80.44166666666669
 21
47.38468150698741
 31
0.0
  0
LINE
  5
BA2
330
6F
100
AcDbEntity
  8
GEO_
 62
     7
420
 16777215
100
AcDbLine
 10
-80.44166666666669
 20
47.38468150698741
 30
0.0
 11
-80.94861111111113
 21
46.88978724084038
 31
0.0
  0
LINE
  5
BA3
330
6F
100
AcDbEntity
  8
GEO_
 62
     7
420
 16777215
100
AcDbLine
 10
-80.94861111111113
 20
46.88978724084038
 30
0.0
 11
-81.59321944444444
 21
46.89481218277497
 31
0.0
  0
LINE
  5
BA4
330
6F
100
AcDbEntity
  8
GEO_
 62
     7
420
 16777215
100
AcDbLine
 10
-81.59321944444444
 20
46.89481218277497
 30
0.0
 11
-81.79664444444444
 21
46.87658313968158
 31
0.0
  0
LINE
  5
BA5
330
6F
100
AcDbEntity
  8
GEO_
 62
     7
420
 16777215
100
AcDbLine
 10
-81.79664444444444
 20
46.87658313968158
 30
0.0
 11
-82.47665833333334
 21
46.812303088105
 31
0.0
  0
LINE
  5
BA6
330
6F
100
AcDbEntity
  8
GEO_
 62
     7
420
 16777215
100
AcDbLine
 10
-82.47665833333334
 20
46.812303088105
 30
0.0
 11
-82.6329111111111
 21
46.79771715196348
 31
0.0
  0
LINE
  5
BA7
330
6F
100
AcDbEntity
  8
GEO_
 62
     7
420
 16777215
100
AcDbLine
 10
-82.6329111111111
 20
46.79771715196348
 30
0.0
 11
-82.93476111111113
 21
46.83998642141473
 31
0.0
  0
LINE
  5
BA8
330
6F
100
AcDbEntity
  8
GEO_
 62
     7
420
 16777215
100
AcDbLine
 10
-82.93476111111113
 20
46.83998642141473
 30
0.0
 11
-82.86388888888888
 21
47.14932153623663
 31
0.0
  0
LINE
  5
BA9
330
6F
100
AcDbEntity
  8
GEO_
 62
     7
420
 16777215
100
AcDbLine
 10
-82.86388888888888
 20
47.14932153623663
 30
0.0
 11
-82.83055555555554
 21
47.17460171266811
 31
0.0
  0
LINE
  5
BAA
330
6F
100
AcDbEntity
  8
GEO_
 62
     7
420
 16777215
100
AcDbLine
 10
-82.83055555555554
 20
47.17460171266811
 30
0.0
 11
-82.72361111111111
 21
47.30980903131531
 31
0.0
  0
LINE
  5
BAB
330
6F
100
AcDbEntity
  8
GEO_
 62
     7
420
 16777215
100
AcDbLine
 10
-82.72361111111111
 20
47.30980903131531
 30
0.0
 11
-82.46666666666667
 21
47.54182710952418
 31
0.0
  0
LINE
  5
BAC
330
6F
100
AcDbEntity
  8
GEO_
 62
     7
420
 16777215
100
AcDbLine
 10
-82.46666666666667
 20
47.54182710952418
 30
0.0
 11
-82.40833333333334
 21
47.5361420410192
 31
0.0
  0
LINE
  5
BAD
330
6F
100
AcDbEntity
  8
GEO_
 62
     7
420
 16777215
100
AcDbLine
 10
-82.40833333333334
 20
47.5361420410192
 30
0.0
 11
-82.40833333333334
 21
47.5361420410192
 31
0.0
  0
LINE
  5
BAE
330
6F
100
AcDbEntity
  8
GEO_
 62
     7
420
 16777215
100
AcDbLine
 10
-82.40833333333334
 20
47.5361420410192
 30
0.0
 11
-82.46666666666667
 21
47.54182710952418
 31
0.0
  0
LINE
  5
BAF
330
6F
100
AcDbEntity
  8
GEO_
 62
     7
420
 16777215
100
AcDbLine
 10
-82.40833333333334
 20
47.5361420410192
 30
0.0
 11
-82.27222222222223
 21
47.51795240001043
 31
0.0
  0
LINE
  5
BB0
330
6F
100
AcDbEntity
  8
GEO_
 62
     7
420
 16777215
100
AcDbLine
 10
-82.27222222222223
 20
47.51795240001043
 30
0.0
 11
-82.27222222222223
 21
47.51795240001043
 31
0.0
  0
LINE
  5
BB1
330
6F
100
AcDbEntity
  8
GEO_
 62
     7
420
 16777215
100
AcDbLine
 10
-82.27222222222223
 20
47.51795240001043
 30
0.0
 11
-82.40833333333334
 21
47.5361420410192
 31
0.0
  0
LINE
  5
BB2
330
6F
100
AcDbEntity
  8
GEO_
 62
     7
420
 16777215
100
AcDbLine
 10
-82.27222222222223
 20
47.51795240001043
 30
0.0
 11
-81.97083333333333
 21
47.48499368213699
 31
0.0
  0
LINE
  5
BB3
330
6F
100
AcDbEntity
  8
GEO_
 62
     7
420
 16777215
100
AcDbLine
 10
-81.97083333333333
 20
47.48499368213699
 30
0.0
 11
-81.97083333333333
 21
47.48499368213699
 31
0.0
  0
LINE
  5
BB4
330
6F
100
AcDbEntity
  8
GEO_
 62
     7
420
 16777215
100
AcDbLine
 10
-81.97083333333333
 20
47.48499368213699
 30
0.0
 11
-82.27222222222223
 21
47.51795240001043
 31
0.0
  0
LINE
  5
BB5
330
6F
100
AcDbEntity
  8
GEO_
 62
     7
420
 16777215
100
AcDbLine
 10
-81.97083333333333
 20
47.48499368213699
 30
0.0
 11
-81.82777777777777
 21
47.45659133552206
 31
0.0
  0
LINE
  5
BB6
330
6F
100
AcDbEntity
  8
GEO_
 62
     7
420
 16777215
100
AcDbLine
 10
-81.82777777777777
 20
47.45659133552206
 30
0.0
 11
-81.82777777777777
 21
47.45659133552206
 31
0.0
  0
LINE
  5
BB7
330
6F
100
AcDbEntity
  8
GEO_
 62
     7
420
 16777215
100
AcDbLine
 10
-81.82777777777777
 20
47.45659133552206
 30
0.0
 11
-81.97083333333333
 21
47.48499368213699
 31
0.0
  0
LINE
  5
BB8
330
6F
100
AcDbEntity
  8
GEO_
 62
     7
420
 16777215
100
AcDbLine
 10
-81.82777777777777
 20
47.45659133552206
 30
0.0
 11
-81.22083333333334
 21
47.36576804921207
 31
0.0
  0
LINE
  5
BB9
330
6F
100
AcDbEntity
  8
GEO_
 62
     7
420
 16777215
100
AcDbLine
 10
-81.22083333333334
 20
47.36576804921207
 30
0.0
 11
-81.22083333333334
 21
47.36576804921207
 31
0.0
  0
LINE
  5
BBA
330
6F
100
AcDbEntity
  8
GEO_
 62
     7
420
 16777215
100
AcDbLine
 10
-81.22083333333334
 20
47.36576804921207
 30
0.0
 11
-81.82777777777777
 21
47.45659133552206
 31
0.0
  0
LINE
  5
BBB
330
6F
100
AcDbEntity
  8
GEO_
 62
     7
420
 16777215
100
AcDbLine
 10
-81.22083333333334
 20
47.36576804921207
 30
0.0
 11
-80.89583333333335
 21
47.41684411624279
 31
0.0
  0
LINE
  5
BBC
330
6F
100
AcDbEntity
  8
GEO_
 62
     7
420
 16777215
100
AcDbLine
 10
-80.89583333333335
 20
47.41684411624279
 30
0.0
 11
-80.89583333333335
 21
47.41684411624279
 31
0.0
  0
LINE
  5
BBD
330
6F
100
AcDbEntity
  8
GEO_
 62
     7
420
 16777215
100
AcDbLine
 10
-80.89583333333335
 20
47.41684411624279
 30
0.0
 11
-81.22083333333334
 21
47.36576804921207
 31
0.0
  0
LINE
  5
BBE
330
6F
100
AcDbEntity
  8
GEO_
 62
     7
420
 16777215
100
AcDbLine
 10
-80.89583333333335
 20
47.41684411624279
 30
0.0
 11
-80.26666666666667
 21
47.46416435900834
 31
0.0
  0
LINE
  5
BBF
330
6F
100
AcDbEntity
  8
GEO_
 62
     7
420
 16777215
100
AcDbLine
 10
-80.26666666666667
 20
47.46416435900834
 30
0.0
 11
-80.26666666666667
 21
47.46416435900834
 31
0.0
  0
LINE
  5
BC0
330
6F
100
AcDbEntity
  8
GEO_
 62
     7
420
 16777215
100
AcDbLine
 10
-80.26666666666667
 20
47.46416435900834
 30
0.0
 11
-80.89583333333335
 21
47.41684411624279
 31
0.0
  0
LINE
  5
BC1
330
6F
100
AcDbEntity
  8
GEO_
 62
     7
420
 16777215
100
AcDbLine
 10
-80.26666666666667
 20
47.46416435900834
 30
0.0
 11
-80.44166666666669
 21
47.38468150698741
 31
0.0
  0
LINE
  5
BC2
330
6F
100
AcDbEntity
  8
GEO_
 62
     7
420
 16777215
100
AcDbLine
 10
-80.44166666666669
 20
47.38468150698741
 30
0.0
 11
-80.44166666666669
 21
47.38468150698741
 31
0.0
  0
LINE
  5
BC3
330
6F
100
AcDbEntity
  8
GEO_
 62
     7
420
 16777215
100
AcDbLine
 10
-80.44166666666669
 20
47.38468150698741
 30
0.0
 11
-80.26666666666667
 21
47.46416435900834
 31
0.0
  0
LINE
  5
BC4
330
6F
100
AcDbEntity
  8
GEO_
 62
     7
420
 16777215
100
AcDbLine
 10
-80.44166666666669
 20
47.38468150698741
 30
0.0
 11
-80.94861111111113
 21
46.88978724084038
 31
0.0
  0
LINE
  5
BC5
330
6F
100
AcDbEntity
  8
GEO_
 62
     7
420
 16777215
100
AcDbLine
 10
-80.94861111111113
 20
46.88978724084038
 30
0.0
 11
-80.94861111111113
 21
46.88978724084038
 31
0.0
  0
LINE
  5
BC6
330
6F
100
AcDbEntity
  8
GEO_
 62
     7
420
 16777215
100
AcDbLine
 10
-80.94861111111113
 20
46.88978724084038
 30
0.0
 11
-80.44166666666669
 21
47.38468150698741
 31
0.0
  0
LINE
  5
BC7
330
6F
100
AcDbEntity
  8
GEO_
 62
     7
420
 16777215
100
AcDbLine
 10
-80.94861111111113
 20
46.88978724084038
 30
0.0
 11
-81.59321944444444
 21
46.89481218277497
 31
0.0
  0
LINE
  5
BC8
330
6F
100
AcDbEntity
  8
GEO_
 62
     7
420
 16777215
100
AcDbLine
 10
-81.59321944444444
 20
46.89481218277497
 30
0.0
 11
-81.59321944444444
 21
46.89481218277497
 31
0.0
  0
LINE
  5
BC9
330
6F
100
AcDbEntity
  8
GEO_
 62
     7
420
 16777215
100
AcDbLine
 10
-81.59321944444444
 20
46.89481218277497
 30
0.0
 11
-80.94861111111113
 21
46.88978724084038
 31
0.0
  0
LINE
  5
BCA
330
6F
100
AcDbEntity
  8
GEO_
 62
     7
420
 16777215
100
AcDbLine
 10
-81.59321944444444
 20
46.89481218277497
 30
0.0
 11
-81.79664444444444
 21
46.87658313968158
 31
0.0
  0
LINE
  5
BCB
330
6F
100
AcDbEntity
  8
GEO_
 62
     7
420
 16777215
100
AcDbLine
 10
-81.79664444444444
 20
46.87658313968158
 30
0.0
 11
-81.79664444444444
 21
46.87658313968158
 31
0.0
  0
LINE
  5
BCC
330
6F
100
AcDbEntity
  8
GEO_
 62
     7
420
 16777215
100
AcDbLine
 10
-81.79664444444444
 20
46.87658313968158
 30
0.0
 11
-81.59321944444444
 21
46.89481218277497
 31
0.0
  0
LINE
  5
BCD
330
6F
100
AcDbEntity
  8
GEO_
 62
     7
420
 16777215
100
AcDbLine
 10
-81.79664444444444
 20
46.87658313968158
 30
0.0
 11
-82.47665833333334
 21
46.812303088105
 31
0.0
  0
LINE
  5
BCE
330
6F
100
AcDbEntity
  8
GEO_
 62
     7
420
 16777215
100
AcDbLine
 10
-82.47665833333334
 20
46.812303088105
 30
0.0
 11
-82.47665833333334
 21
46.812303088105
 31
0.0
  0
LINE
  5
BCF
330
6F
100
AcDbEntity
  8
GEO_
 62
     7
420
 16777215
100
AcDbLine
 10
-82.47665833333334
 20
46.812303088105
 30
0.0
 11
-81.79664444444444
 21
46.87658313968158
 31
0.0
  0
LINE
  5
BD0
330
6F
100
AcDbEntity
  8
GEO_
 62
     7
420
 16777215
100
AcDbLine
 10
-82.47665833333334
 20
46.812303088105
 30
0.0
 11
-82.6329111111111
 21
46.79771715196348
 31
0.0
  0
LINE
  5
BD1
330
6F
100
AcDbEntity
  8
GEO_
 62
     7
420
 16777215
100
AcDbLine
 10
-82.6329111111111
 20
46.79771715196348
 30
0.0
 11
-82.6329111111111
 21
46.79771715196348
 31
0.0
  0
LINE
  5
BD2
330
6F
100
AcDbEntity
  8
GEO_
 62
     7
420
 16777215
100
AcDbLine
 10
-82.6329111111111
 20
46.79771715196348
 30
0.0
 11
-82.47665833333334
 21
46.812303088105
 31
0.0
  0
LINE
  5
BD3
330
6F
100
AcDbEntity
  8
GEO_
 62
     7
420
 16777215
100
AcDbLine
 10
-82.6329111111111
 20
46.79771715196348
 30
0.0
 11
-82.93476111111113
 21
46.83998642141473
 31
0.0
  0
LINE
  5
BD4
330
6F
100
AcDbEntity
  8
GEO_
 62
     7
420
 16777215
100
AcDbLine
 10
-82.93476111111113
 20
46.83998642141473
 30
0.0
 11
-82.93476111111113
 21
46.83998642141473
 31
0.0
  0
LINE
  5
BD5
330
6F
100
AcDbEntity
  8
GEO_
 62
     7
420
 16777215
100
AcDbLine
 10
-82.93476111111113
 20
46.83998642141473
 30
0.0
 11
-82.6329111111111
 21
46.79771715196348
 31
0.0
  0
LINE
  5
BD6
330
6F
100
AcDbEntity
  8
GEO_
 62
     7
420
 16777215
100
AcDbLine
 10
-82.93476111111113
 20
46.83998642141473
 30
0.0
 11
-82.86388888888888
 21
47.14932153623663
 31
0.0
  0
LINE
  5
BD7
330
6F
100
AcDbEntity
  8
GEO_
 62
     7
420
 16777215
100
AcDbLine
 10
-82.86388888888888
 20
47.14932153623663
 30
0.0
 11
-82.86388888888888
 21
47.14932153623663
 31
0.0
  0
LINE
  5
BD8
330
6F
100
AcDbEntity
  8
GEO_
 62
     7
420
 16777215
100
AcDbLine
 10
-82.86388888888888
 20
47.14932153623663
 30
0.0
 11
-82.93476111111113
 21
46.83998642141473
 31
0.0
  0
LINE
  5
BD9
330
6F
100
AcDbEntity
  8
GEO_
 62
     7
420
 16777215
100
AcDbLine
 10
-82.86388888888888
 20
47.14932153623663
 30
0.0
 11
-82.83055555555554
 21
47.17460171266811
 31
0.0
  0
LINE
  5
BDA
330
6F
100
AcDbEntity
  8
GEO_
 62
     7
420
 16777215
100
AcDbLine
 10
-82.83055555555554
 20
47.17460171266811
 30
0.0
 11
-82.83055555555554
 21
47.17460171266811
 31
0.0
  0
LINE
  5
BDB
330
6F
100
AcDbEntity
  8
GEO_
 62
     7
420
 16777215
100
AcDbLine
 10
-82.83055555555554
 20
47.17460171266811
 30
0.0
 11
-82.86388888888888
 21
47.14932153623663
 31
0.0
  0
LINE
  5
BDC
330
6F
100
AcDbEntity
  8
GEO_
 62
     7
420
 16777215
100
AcDbLine
 10
-82.83055555555554
 20
47.17460171266811
 30
0.0
 11
-82.72361111111111
 21
47.30980903131531
 31
0.0
  0
LINE
  5
BDD
330
6F
100
AcDbEntity
  8
GEO_
 62
     7
420
 16777215
100
AcDbLine
 10
-82.72361111111111
 20
47.30980903131531
 30
0.0
 11
-82.72361111111111
 21
47.30980903131531
 31
0.0
  0
LINE
  5
BDE
330
6F
100
AcDbEntity
  8
GEO_
 62
     7
420
 16777215
100
AcDbLine
 10
-82.72361111111111
 20
47.30980903131531
 30
0.0
 11
-82.83055555555554
 21
47.17460171266811
 31
0.0
  0
LINE
  5
BDF
330
6F
100
AcDbEntity
  8
GEO_
 62
     7
420
 16777215
100
AcDbLine
 10
-82.72361111111111
 20
47.30980903131531
 30
0.0
 11
-82.46666666666667
 21
47.54182710952418
 31
0.0
  0
LINE
  5
BE0
330
6F
100
AcDbEntity
  8
GEO_
 62
     7
420
 16777215
100
AcDbLine
 10
-82.46666666666667
 20
47.54182710952418
 30
0.0
 11
-82.46666666666667
 21
47.54182710952418
 31
0.0
  0
LINE
  5
BE1
330
6F
100
AcDbEntity
  8
GEO_
 62
     7
420
 16777215
100
AcDbLine
 10
-82.46666666666667
 20
47.54182710952418
 30
0.0
 11
-82.72361111111111
 21
47.30980903131531
 31
0.0
  0
LINE
  5
BE4
330
6F
100
AcDbEntity
  8
GEO_
 62
     7
420
 16777215
100
AcDbLine
 10
-81.79664444444444
 20
46.87658313968158
 30
0.0
 11
-81.59321944444444
 21
46.89481218277497
 31
0.0
  0
LINE
  5
BE5
330
6F
100
AcDbEntity
  8
GEO_
 62
     7
420
 16777215
100
AcDbLine
 10
-81.59321944444444
 20
46.89481218277497
 30
0.0
 11
-80.94861111111113
 21
46.88978724084038
 31
0.0
  0
LINE
  5
BF1
330
6F
100
AcDbEntity
  8
GEO_
 62
     7
420
 16777215
100
AcDbLine
 10
-81.79664444444444
 20
46.87658313968158
 30
0.0
 11
-81.59321944444444
 21
46.89481218277497
 31
0.0
  0
LINE
  5
BF2
330
6F
100
AcDbEntity
  8
GEO_
 62
     7
420
 16777215
100
AcDbLine
 10
-81.59321944444444
 20
46.89481218277497
 30
0.0
 11
-80.94861111111113
 21
46.88978724084038
 31
0.0
  0
LINE
  5
C03
330
6F
100
AcDbEntity
  8
GEO_
 62
     7
420
 16777215
100
AcDbLine
 10
-81.79664444444444
 20
46.87658313968158
 30
0.0
 11
-81.79664444444444
 21
46.87658313968158
 31
0.0
  0
LINE
  5
C05
330
6F
100
AcDbEntity
  8
GEO_
 62
     7
420
 16777215
100
AcDbLine
 10
-81.79664444444444
 20
46.87658313968158
 30
0.0
 11
-81.59321944444444
 21
46.89481218277497
 31
0.0
  0
LINE
  5
C06
330
6F
100
AcDbEntity
  8
GEO_
 62
     7
420
 16777215
100
AcDbLine
 10
-81.59321944444444
 20
46.89481218277497
 30
0.0
 11
-81.59321944444444
 21
46.89481218277497
 31
0.0
  0
LINE
  5
C07
330
6F
100
AcDbEntity
  8
GEO_
 62
     7
420
 16777215
100
AcDbLine
 10
-81.59321944444444
 20
46.89481218277497
 30
0.0
 11
-81.79664444444444
 21
46.87658313968158
 31
0.0
  0
LINE
  5
C08
330
6F
100
AcDbEntity
  8
GEO_
 62
     7
420
 16777215
100
AcDbLine
 10
-81.59321944444444
 20
46.89481218277497
 30
0.0
 11
-80.94861111111113
 21
46.88978724084038
 31
0.0
  0
LINE
  5
C09
330
6F
100
AcDbEntity
  8
GEO_
 62
     7
420
 16777215
100
AcDbLine
 10
-80.94861111111113
 20
46.88978724084038
 30
0.0
 11
-80.94861111111113
 21
46.88978724084038
 31
0.0
  0
LINE
  5
C0A
330
6F
100
AcDbEntity
  8
GEO_
 62
     7
420
 16777215
100
AcDbLine
 10
-80.94861111111113
 20
46.88978724084038
 30
0.0
 11
-81.59321944444444
 21
46.89481218277497
 31
0.0
  0
LINE
  5
C29
330
6F
100
AcDbEntity
  8
GEO_
 62
     7
420
 16777215
100
AcDbLine
 10
-82.47665833333334
 20
46.812303088105
 30
0.0
 11
-81.79664444444444
 21
46.87658313968158
 31
0.0
  0
LINE
  5
C2A
330
6F
100
AcDbEntity
  8
GEO_
 62
     7
420
 16777215
100
AcDbLine
 10
-81.79664444444444
 20
46.87658313968158
 30
0.0
 11
-81.59321944444444
 21
46.89481218277497
 31
0.0
  0
LINE
  5
C2B
330
6F
100
AcDbEntity
  8
GEO_
 62
     7
420
 16777215
100
AcDbLine
 10
-81.59321944444444
 20
46.89481218277497
 30
0.0
 11
-80.94861111111113
 21
46.88978724084038
 31
0.0
  0
LINE
  5
C3C
330
6F
100
AcDbEntity
  8
GEO_
 62
     7
420
 16777215
100
AcDbLine
 10
-82.47665833333334
 20
46.812303088105
 30
0.0
 11
-81.79664444444444
 21
46.87658313968158
 31
0.0
  0
LINE
  5
C3D
330
6F
100
AcDbEntity
  8
GEO_
 62
     7
420
 16777215
100
AcDbLine
 10
-81.79664444444444
 20
46.87658313968158
 30
0.0
 11
-81.59321944444444
 21
46.89481218277497
 31
0.0
  0
LINE
  5
C3E
330
6F
100
AcDbEntity
  8
GEO_
 62
     7
420
 16777215
100
AcDbLine
 10
-81.59321944444444
 20
46.89481218277497
 30
0.0
 11
-80.94861111111113
 21
46.88978724084038
 31
0.0
  0
LINE
  5
C56
330
6F
100
AcDbEntity
  8
GEO_
 62
     7
420
 16777215
100
AcDbLine
 10
-82.47665833333334
 20
46.812303088105
 30
0.0
 11
-82.47665833333334
 21
46.812303088105
 31
0.0
  0
LINE
  5
C58
330
6F
100
AcDbEntity
  8
GEO_
 62
     7
420
 16777215
100
AcDbLine
 10
-82.47665833333334
 20
46.812303088105
 30
0.0
 11
-82.47665833333334
 21
46.812303088105
 31
0.0
  0
LINE
  5
C59
330
6F
100
AcDbEntity
  8
GEO_
 62
     7
420
 16777215
100
AcDbLine
 10
-81.79664444444444
 20
46.87658313968158
 30
0.0
 11
-82.47665833333334
 21
46.812303088105
 31
0.0
  0
LINE
  5
C5B
330
6F
100
AcDbEntity
  8
GEO_
 62
     7
420
 16777215
100
AcDbLine
 10
-81.79664444444444
 20
46.87658313968158
 30
0.0
 11
-81.59321944444444
 21
46.89481218277497
 31
0.0
  0
LINE
  5
C5C
330
6F
100
AcDbEntity
  8
GEO_
 62
     7
420
 16777215
100
AcDbLine
 10
-81.59321944444444
 20
46.89481218277497
 30
0.0
 11
-81.59321944444444
 21
46.89481218277497
 31
0.0
  0
LINE
  5
C5D
330
6F
100
AcDbEntity
  8
GEO_
 62
     7
420
 16777215
100
AcDbLine
 10
-81.59321944444444
 20
46.89481218277497
 30
0.0
 11
-81.79664444444444
 21
46.87658313968158
 31
0.0
  0
LINE
  5
C5E
330
6F
100
AcDbEntity
  8
GEO_
 62
     7
420
 16777215
100
AcDbLine
 10
-81.59321944444444
 20
46.89481218277497
 30
0.0
 11
-80.94861111111113
 21
46.88978724084038
 31
0.0
  0
LINE
  5
C5F
330
6F
100
AcDbEntity
  8
GEO_
 62
     7
420
 16777215
100
AcDbLine
 10
-80.94861111111113
 20
46.88978724084038
 30
0.0
 11
-80.94861111111113
 21
46.88978724084038
 31
0.0
  0
LINE
  5
C60
330
6F
100
AcDbEntity
  8
GEO_
 62
     7
420
 16777215
100
AcDbLine
 10
-80.94861111111113
 20
46.88978724084038
 30
0.0
 11
-81.59321944444444
 21
46.89481218277497
 31
0.0
  0
LINE
  5
C88
330
6F
100
AcDbEntity
  8
GEO_
 62
     7
420
 16777215
100
AcDbLine
 10
-82.47665833333334
 20
46.812303088105
 30
0.0
 11
-81.79664444444444
 21
46.87658313968158
 31
0.0
  0
LINE
  5
C89
330
6F
100
AcDbEntity
  8
GEO_
 62
     7
420
 16777215
100
AcDbLine
 10
-81.79664444444444
 20
46.87658313968158
 30
0.0
 11
-81.59321944444444
 21
46.89481218277497
 31
0.0
  0
LINE
  5
C8A
330
6F
100
AcDbEntity
  8
GEO_
 62
     7
420
 16777215
100
AcDbLine
 10
-81.59321944444444
 20
46.89481218277497
 30
0.0
 11
-80.94861111111113
 21
46.88978724084038
 31
0.0
  0
LINE
  5
C9B
330
6F
100
AcDbEntity
  8
GEO_
 62
     7
420
 16777215
100
AcDbLine
 10
-82.47665833333334
 20
46.812303088105
 30
0.0
 11
-81.79664444444444
 21
46.87658313968158
 31
0.0
  0
LINE
  5
C9C
330
6F
100
AcDbEntity
  8
GEO_
 62
     7
420
 16777215
100
AcDbLine
 10
-81.79664444444444
 20
46.87658313968158
 30
0.0
 11
-81.59321944444444
 21
46.89481218277497
 31
0.0
  0
LINE
  5
C9D
330
6F
100
AcDbEntity
  8
GEO_
 62
     7
420
 16777215
100
AcDbLine
 10
-81.59321944444444
 20
46.89481218277497
 30
0.0
 11
-80.94861111111113
 21
46.88978724084038
 31
0.0
  0
LINE
  5
CAF
330
6F
100
AcDbEntity
  8
GEO_
 62
     7
420
 16777215
100
AcDbLine
 10
-82.47665833333334
 20
46.812303088105
 30
0.0
 11
-82.47665833333334
 21
46.812303088105
 31
0.0
  0
LINE
  5
CB1
330
6F
100
AcDbEntity
  8
GEO_
 62
     7
420
 16777215
100
AcDbLine
 10
-82.47665833333334
 20
46.812303088105
 30
0.0
 11
-81.79664444444444
 21
46.87658313968158
 31
0.0
  0
LINE
  5
CB2
330
6F
100
AcDbEntity
  8
GEO_
 62
     7
420
 16777215
100
AcDbLine
 10
-81.79664444444444
 20
46.87658313968158
 30
0.0
 11
-81.79664444444444
 21
46.87658313968158
 31
0.0
  0
LINE
  5
CB3
330
6F
100
AcDbEntity
  8
GEO_
 62
     7
420
 16777215
100
AcDbLine
 10
-81.79664444444444
 20
46.87658313968158
 30
0.0
 11
-82.47665833333334
 21
46.812303088105
 31
0.0
  0
LINE
  5
CB4
330
6F
100
AcDbEntity
  8
GEO_
 62
     7
420
 16777215
100
AcDbLine
 10
-81.79664444444444
 20
46.87658313968158
 30
0.0
 11
-81.59321944444444
 21
46.89481218277497
 31
0.0
  0
LINE
  5
CB5
330
6F
100
AcDbEntity
  8
GEO_
 62
     7
420
 16777215
100
AcDbLine
 10
-81.59321944444444
 20
46.89481218277497
 30
0.0
 11
-81.59321944444444
 21
46.89481218277497
 31
0.0
  0
LINE
  5
CB6
330
6F
100
AcDbEntity
  8
GEO_
 62
     7
420
 16777215
100
AcDbLine
 10
-81.59321944444444
 20
46.89481218277497
 30
0.0
 11
-81.79664444444444
 21
46.87658313968158
 31
0.0
  0
LINE
  5
CB7
330
6F
100
AcDbEntity
  8
GEO_
 62
     7
420
 16777215
100
AcDbLine
 10
-81.59321944444444
 20
46.89481218277497
 30
0.0
 11
-80.94861111111113
 21
46.88978724084038
 31
0.0
  0
LINE
  5
CB8
330
6F
100
AcDbEntity
  8
GEO_
 62
     7
420
 16777215
100
AcDbLine
 10
-80.94861111111113
 20
46.88978724084038
 30
0.0
 11
-80.94861111111113
 21
46.88978724084038
 31
0.0
  0
LINE
  5
CB9
330
6F
100
AcDbEntity
  8
GEO_
 62
     7
420
 16777215
100
AcDbLine
 10
-80.94861111111113
 20
46.88978724084038
 30
0.0
 11
-81.59321944444444
 21
46.89481218277497
 31
0.0
  0
LINE
  5
CEA
330
6F
100
AcDbEntity
  8
GEO_
 62
     7
420
 16777215
100
AcDbLine
 10
-82.47665833333334
 20
46.812303088105
 30
0.0
 11
-81.79664444444444
 21
46.87658313968158
 31
0.0
  0
LINE
  5
CEB
330
6F
100
AcDbEntity
  8
GEO_
 62
     7
420
 16777215
100
AcDbLine
 10
-81.79664444444444
 20
46.87658313968158
 30
0.0
 11
-81.59321944444444
 21
46.89481218277497
 31
0.0
  0
LINE
  5
CEC
330
6F
100
AcDbEntity
  8
GEO_
 62
     7
420
 16777215
100
AcDbLine
 10
-81.59321944444444
 20
46.89481218277497
 30
0.0
 11
-80.94861111111113
 21
46.88978724084038
 31
0.0
  0
LINE
  5
CFF
330
6F
100
AcDbEntity
  8
GEO_
 62
     7
420
 16777215
100
AcDbLine
 10
-82.47665833333334
 20
46.812303088105
 30
0.0
 11
-81.79664444444444
 21
46.87658313968158
 31
0.0
  0
LINE
  5
D00
330
6F
100
AcDbEntity
  8
GEO_
 62
     7
420
 16777215
100
AcDbLine
 10
-81.79664444444444
 20
46.87658313968158
 30
0.0
 11
-81.59321944444444
 21
46.89481218277497
 31
0.0
  0
LINE
  5
D01
330
6F
100
AcDbEntity
  8
GEO_
 62
     7
420
 16777215
100
AcDbLine
 10
-81.59321944444444
 20
46.89481218277497
 30
0.0
 11
-80.94861111111113
 21
46.88978724084038
 31
0.0
  0
LINE
  5
D15
330
6F
100
AcDbEntity
  8
GEO_
 62
     7
420
 16777215
100
AcDbLine
 10
-82.47665833333334
 20
46.812303088105
 30
0.0
 11
-82.47665833333334
 21
46.812303088105
 31
0.0
  0
LINE
  5
D17
330
6F
100
AcDbEntity
  8
GEO_
 62
     7
420
 16777215
100
AcDbLine
 10
-82.47665833333334
 20
46.812303088105
 30
0.0
 11
-81.79664444444444
 21
46.87658313968158
 31
0.0
  0
LINE
  5
D18
330
6F
100
AcDbEntity
  8
GEO_
 62
     7
420
 16777215
100
AcDbLine
 10
-81.79664444444444
 20
46.87658313968158
 30
0.0
 11
-81.79664444444444
 21
46.87658313968158
 31
0.0
  0
LINE
  5
D19
330
6F
100
AcDbEntity
  8
GEO_
 62
     7
420
 16777215
100
AcDbLine
 10
-81.79664444444444
 20
46.87658313968158
 30
0.0
 11
-82.47665833333334
 21
46.812303088105
 31
0.0
  0
LINE
  5
D1A
330
6F
100
AcDbEntity
  8
GEO_
 62
     7
420
 16777215
100
AcDbLine
 10
-81.79664444444444
 20
46.87658313968158
 30
0.0
 11
-81.59321944444444
 21
46.89481218277497
 31
0.0
  0
LINE
  5
D1B
330
6F
100
AcDbEntity
  8
GEO_
 62
     7
420
 16777215
100
AcDbLine
 10
-81.59321944444444
 20
46.89481218277497
 30
0.0
 11
-81.59321944444444
 21
46.89481218277497
 31
0.0
  0
LINE
  5
D1C
330
6F
100
AcDbEntity
  8
GEO_
 62
     7
420
 16777215
100
AcDbLine
 10
-81.59321944444444
 20
46.89481218277497
 30
0.0
 11
-81.79664444444444
 21
46.87658313968158
 31
0.0
  0
LINE
  5
D1D
330
6F
100
AcDbEntity
  8
GEO_
 62
     7
420
 16777215
100
AcDbLine
 10
-81.59321944444444
 20
46.89481218277497
 30
0.0
 11
-80.94861111111113
 21
46.88978724084038
 31
0.0
  0
LINE
  5
D1E
330
6F
100
AcDbEntity
  8
GEO_
 62
     7
420
 16777215
100
AcDbLine
 10
-80.94861111111113
 20
46.88978724084038
 30
0.0
 11
-80.94861111111113
 21
46.88978724084038
 31
0.0
  0
LINE
  5
D1F
330
6F
100
AcDbEntity
  8
GEO_
 62
     7
420
 16777215
100
AcDbLine
 10
-80.94861111111113
 20
46.88978724084038
 30
0.0
 11
-81.59321944444444
 21
46.89481218277497
 31
0.0
  0
LINE
  5
D56
330
6F
100
AcDbEntity
  8
GEO_
 62
     7
420
 16777215
100
AcDbLine
 10
-81.59321944444444
 20
46.89481218277497
 30
0.0
 11
-80.94861111111113
 21
46.88978724084038
 31
0.0
  0
LINE
  5
D68
330
6F
100
AcDbEntity
  8
GEO_
 62
     7
420
 16777215
100
AcDbLine
 10
-82.93476111111113
 20
46.83998642141473
 30
0.0
 11
-82.6329111111111
 21
46.79771715196348
 31
0.0
  0
LINE
  5
D69
330
6F
100
AcDbEntity
  8
GEO_
 62
     7
420
 16777215
100
AcDbLine
 10
-82.6329111111111
 20
46.79771715196348
 30
0.0
 11
-82.47665833333334
 21
46.812303088105
 31
0.0
  0
LINE
  5
D6A
330
6F
100
AcDbEntity
  8
GEO_
 62
     7
420
 16777215
100
AcDbLine
 10
-82.47665833333334
 20
46.812303088105
 30
0.0
 11
-81.79664444444444
 21
46.87658313968158
 31
0.0
  0
LINE
  5
D6B
330
6F
100
AcDbEntity
  8
GEO_
 62
     7
420
 16777215
100
AcDbLine
 10
-81.59321944444444
 20
46.89481218277497
 30
0.0
 11
-80.94861111111113
 21
46.88978724084038
 31
0.0
  0
LINE
  5
D7D
330
6F
100
AcDbEntity
  8
GEO_
 62
     7
420
 16777215
100
AcDbLine
 10
-82.93476111111113
 20
46.83998642141473
 30
0.0
 11
-82.6329111111111
 21
46.79771715196348
 31
0.0
  0
LINE
  5
D7E
330
6F
100
AcDbEntity
  8
GEO_
 62
     7
420
 16777215
100
AcDbLine
 10
-82.6329111111111
 20
46.79771715196348
 30
0.0
 11
-82.47665833333334
 21
46.812303088105
 31
0.0
  0
LINE
  5
D7F
330
6F
100
AcDbEntity
  8
GEO_
 62
     7
420
 16777215
100
AcDbLine
 10
-82.47665833333334
 20
46.812303088105
 30
0.0
 11
-81.79664444444444
 21
46.87658313968158
 31
0.0
  0
LINE
  5
D80
330
6F
100
AcDbEntity
  8
GEO_
 62
     7
420
 16777215
100
AcDbLine
 10
-81.79664444444444
 20
46.87658313968158
 30
0.0
 11
-81.59321944444444
 21
46.89481218277497
 31
0.0
  0
LINE
  5
D81
330
6F
100
AcDbEntity
  8
GEO_
 62
     7
420
 16777215
100
AcDbLine
 10
-81.59321944444444
 20
46.89481218277497
 30
0.0
 11
-81.59321944444444
 21
46.89481218277497
 31
0.0
  0
LINE
  5
D82
330
6F
100
AcDbEntity
  8
GEO_
 62
     7
420
 16777215
100
AcDbLine
 10
-81.59321944444444
 20
46.89481218277497
 30
0.0
 11
-81.79664444444444
 21
46.87658313968158
 31
0.0
  0
LINE
  5
D83
330
6F
100
AcDbEntity
  8
GEO_
 62
     7
420
 16777215
100
AcDbLine
 10
-81.59321944444444
 20
46.89481218277497
 30
0.0
 11
-80.94861111111113
 21
46.88978724084038
 31
0.0
  0
LINE
  5
D84
330
6F
100
AcDbEntity
  8
GEO_
 62
     7
420
 16777215
100
AcDbLine
 10
-80.94861111111113
 20
46.88978724084038
 30
0.0
 11
-80.94861111111113
 21
46.88978724084038
 31
0.0
  0
LINE
  5
D85
330
6F
100
AcDbEntity
  8
GEO_
 62
     7
420
 16777215
100
AcDbLine
 10
-80.94861111111113
 20
46.88978724084038
 30
0.0
 11
-81.59321944444444
 21
46.89481218277497
 31
0.0
  0
LINE
  5
DB7
330
6F
100
AcDbEntity
  8
GEO_
 62
     7
420
 16777215
100
AcDbLine
 10
-82.93476111111113
 20
46.83998642141473
 30
0.0
 11
-82.93476111111113
 21
46.83998642141473
 31
0.0
  0
LINE
  5
DB9
330
6F
100
AcDbEntity
  8
GEO_
 62
     7
420
 16777215
100
AcDbLine
 10
-82.93476111111113
 20
46.83998642141473
 30
0.0
 11
-82.6329111111111
 21
46.79771715196348
 31
0.0
  0
LINE
  5
DBA
330
6F
100
AcDbEntity
  8
GEO_
 62
     7
420
 16777215
100
AcDbLine
 10
-82.6329111111111
 20
46.79771715196348
 30
0.0
 11
-82.6329111111111
 21
46.79771715196348
 31
0.0
  0
LINE
  5
DBB
330
6F
100
AcDbEntity
  8
GEO_
 62
     7
420
 16777215
100
AcDbLine
 10
-82.6329111111111
 20
46.79771715196348
 30
0.0
 11
-82.93476111111113
 21
46.83998642141473
 31
0.0
  0
LINE
  5
DBC
330
6F
100
AcDbEntity
  8
GEO_
 62
     7
420
 16777215
100
AcDbLine
 10
-82.6329111111111
 20
46.79771715196348
 30
0.0
 11
-82.47665833333334
 21
46.812303088105
 31
0.0
  0
LINE
  5
DBD
330
6F
100
AcDbEntity
  8
GEO_
 62
     7
420
 16777215
100
AcDbLine
 10
-82.47665833333334
 20
46.812303088105
 30
0.0
 11
-82.47665833333334
 21
46.812303088105
 31
0.0
  0
LINE
  5
DBE
330
6F
100
AcDbEntity
  8
GEO_
 62
     7
420
 16777215
100
AcDbLine
 10
-82.47665833333334
 20
46.812303088105
 30
0.0
 11
-82.6329111111111
 21
46.79771715196348
 31
0.0
  0
LINE
  5
DBF
330
6F
100
AcDbEntity
  8
GEO_
 62
     7
420
 16777215
100
AcDbLine
 10
-82.47665833333334
 20
46.812303088105
 30
0.0
 11
-81.79664444444444
 21
46.87658313968158
 31
0.0
  0
LINE
  5
DC0
330
6F
100
AcDbEntity
  8
GEO_
 62
     7
420
 16777215
100
AcDbLine
 10
-81.79664444444444
 20
46.87658313968158
 30
0.0
 11
-81.79664444444444
 21
46.87658313968158
 31
0.0
  0
LINE
  5
DC1
330
6F
100
AcDbEntity
  8
GEO_
 62
     7
420
 16777215
100
AcDbLine
 10
-81.79664444444444
 20
46.87658313968158
 30
0.0
 11
-82.47665833333334
 21
46.812303088105
 31
0.0
  0
LINE
  5
DC2
330
6F
100
AcDbEntity
  8
GEO_
 62
     7
420
 16777215
100
AcDbLine
 10
-81.59321944444444
 20
46.89481218277497
 30
0.0
 11
-80.94861111111113
 21
46.88978724084038
 31
0.0
  0
LINE
  5
DD5
330
6F
100
AcDbEntity
  8
GEO_
 62
     7
420
 16777215
100
AcDbLine
 10
-82.93476111111113
 20
46.83998642141473
 30
0.0
 11
-82.6329111111111
 21
46.79771715196348
 31
0.0
  0
LINE
  5
DD6
330
6F
100
AcDbEntity
  8
GEO_
 62
     7
420
 16777215
100
AcDbLine
 10
-82.6329111111111
 20
46.79771715196348
 30
0.0
 11
-82.47665833333334
 21
46.812303088105
 31
0.0
  0
LINE
  5
DD7
330
6F
100
AcDbEntity
  8
GEO_
 62
     7
420
 16777215
100
AcDbLine
 10
-82.47665833333334
 20
46.812303088105
 30
0.0
 11
-81.79664444444444
 21
46.87658313968158
 31
0.0
  0
LINE
  5
DD8
330
6F
100
AcDbEntity
  8
GEO_
 62
     7
420
 16777215
100
AcDbLine
 10
-81.59321944444444
 20
46.89481218277497
 30
0.0
 11
-80.94861111111113
 21
46.88978724084038
 31
0.0
  0
LINE
  5
DEB
330
6F
100
AcDbEntity
  8
GEO_
 62
     7
420
 16777215
100
AcDbLine
 10
-82.93476111111113
 20
46.83998642141473
 30
0.0
 11
-82.6329111111111
 21
46.79771715196348
 31
0.0
  0
LINE
  5
DEC
330
6F
100
AcDbEntity
  8
GEO_
 62
     7
420
 16777215
100
AcDbLine
 10
-82.6329111111111
 20
46.79771715196348
 30
0.0
 11
-82.47665833333334
 21
46.812303088105
 31
0.0
  0
LINE
  5
DED
330
6F
100
AcDbEntity
  8
GEO_
 62
     7
420
 16777215
100
AcDbLine
 10
-82.47665833333334
 20
46.812303088105
 30
0.0
 11
-81.79664444444444
 21
46.87658313968158
 31
0.0
  0
LINE
  5
DEE
330
6F
100
AcDbEntity
  8
GEO_
 62
     7
420
 16777215
100
AcDbLine
 10
-81.79664444444444
 20
46.87658313968158
 30
0.0
 11
-81.59321944444444
 21
46.89481218277497
 31
0.0
  0
LINE
  5
DEF
330
6F
100
AcDbEntity
  8
GEO_
 62
     7
420
 16777215
100
AcDbLine
 10
-81.59321944444444
 20
46.89481218277497
 30
0.0
 11
-81.59321944444444
 21
46.89481218277497
 31
0.0
  0
LINE
  5
DF0
330
6F
100
AcDbEntity
  8
GEO_
 62
     7
420
 16777215
100
AcDbLine
 10
-81.59321944444444
 20
46.89481218277497
 30
0.0
 11
-81.79664444444444
 21
46.87658313968158
 31
0.0
  0
LINE
  5
DF1
330
6F
100
AcDbEntity
  8
GEO_
 62
     7
420
 16777215
100
AcDbLine
 10
-81.59321944444444
 20
46.89481218277497
 30
0.0
 11
-80.94861111111113
 21
46.88978724084038
 31
0.0
  0
LINE
  5
DF2
330
6F
100
AcDbEntity
  8
GEO_
 62
     7
420
 16777215
100
AcDbLine
 10
-80.94861111111113
 20
46.88978724084038
 30
0.0
 11
-80.94861111111113
 21
46.88978724084038
 31
0.0
  0
LINE
  5
DF3
330
6F
100
AcDbEntity
  8
GEO_
 62
     7
420
 16777215
100
AcDbLine
 10
-80.94861111111113
 20
46.88978724084038
 30
0.0
 11
-81.59321944444444
 21
46.89481218277497
 31
0.0
  0
LINE
  5
E28
330
6F
100
AcDbEntity
  8
GEO_
 62
     7
420
 16777215
100
AcDbLine
 10
-82.93476111111113
 20
46.83998642141473
 30
0.0
 11
-82.93476111111113
 21
46.83998642141473
 31
0.0
  0
LINE
  5
E2A
330
6F
100
AcDbEntity
  8
GEO_
 62
     7
420
 16777215
100
AcDbLine
 10
-82.93476111111113
 20
46.83998642141473
 30
0.0
 11
-82.6329111111111
 21
46.79771715196348
 31
0.0
  0
LINE
  5
E2B
330
6F
100
AcDbEntity
  8
GEO_
 62
     7
420
 16777215
100
AcDbLine
 10
-82.6329111111111
 20
46.79771715196348
 30
0.0
 11
-82.6329111111111
 21
46.79771715196348
 31
0.0
  0
LINE
  5
E2C
330
6F
100
AcDbEntity
  8
GEO_
 62
     7
420
 16777215
100
AcDbLine
 10
-82.6329111111111
 20
46.79771715196348
 30
0.0
 11
-82.93476111111113
 21
46.83998642141473
 31
0.0
  0
LINE
  5
E2D
330
6F
100
AcDbEntity
  8
GEO_
 62
     7
420
 16777215
100
AcDbLine
 10
-82.6329111111111
 20
46.79771715196348
 30
0.0
 11
-82.47665833333334
 21
46.812303088105
 31
0.0
  0
LINE
  5
E2E
330
6F
100
AcDbEntity
  8
GEO_
 62
     7
420
 16777215
100
AcDbLine
 10
-82.47665833333334
 20
46.812303088105
 30
0.0
 11
-82.47665833333334
 21
46.812303088105
 31
0.0
  0
LINE
  5
E2F
330
6F
100
AcDbEntity
  8
GEO_
 62
     7
420
 16777215
100
AcDbLine
 10
-82.47665833333334
 20
46.812303088105
 30
0.0
 11
-82.6329111111111
 21
46.79771715196348
 31
0.0
  0
LINE
  5
E30
330
6F
100
AcDbEntity
  8
GEO_
 62
     7
420
 16777215
100
AcDbLine
 10
-82.47665833333334
 20
46.812303088105
 30
0.0
 11
-81.79664444444444
 21
46.87658313968158
 31
0.0
  0
LINE
  5
E31
330
6F
100
AcDbEntity
  8
GEO_
 62
     7
420
 16777215
100
AcDbLine
 10
-81.79664444444444
 20
46.87658313968158
 30
0.0
 11
-81.79664444444444
 21
46.87658313968158
 31
0.0
  0
LINE
  5
E32
330
6F
100
AcDbEntity
  8
GEO_
 62
     7
420
 16777215
100
AcDbLine
 10
-81.79664444444444
 20
46.87658313968158
 30
0.0
 11
-82.47665833333334
 21
46.812303088105
 31
0.0
  0
LINE
  5
193F
330
6F
100
AcDbEntity
  8
GEO_
 62
     7
420
 16777215
100
AcDbLine
 10
-80.94861111111113
 20
46.88978724084038
 30
0.0
 11
-80.44166666666669
 21
47.38468150698741
 31
0.0
  0
LINE
  5
195A
330
6F
100
AcDbEntity
  8
GEO_
 62
     7
420
 16777215
100
AcDbLine
 10
-80.94861111111113
 20
46.88978724084038
 30
0.0
 11
-80.44166666666669
 21
47.38468150698741
 31
0.0
  0
LINE
  5
195B
330
6F
100
AcDbEntity
  8
GEO_
 62
     7
420
 16777215
100
AcDbLine
 10
-80.44166666666669
 20
47.38468150698741
 30
0.0
 11
-80.26666666666667
 21
47.46416435900834
 31
0.0
  0
LINE
  5
195C
330
6F
100
AcDbEntity
  8
GEO_
 62
     7
420
 16777215
100
AcDbLine
 10
-80.26666666666667
 20
47.46416435900834
 30
0.0
 11
-80.26666666666667
 21
47.46416435900834
 31
0.0
  0
LINE
  5
195D
330
6F
100
AcDbEntity
  8
GEO_
 62
     7
420
 16777215
100
AcDbLine
 10
-80.26666666666667
 20
47.46416435900834
 30
0.0
 11
-80.44166666666669
 21
47.38468150698741
 31
0.0
  0
LINE
  5
19AA
330
6F
100
AcDbEntity
  8
GEO_
 62
     7
420
 16777215
100
AcDbLine
 10
-80.94861111111113
 20
46.88978724084038
 30
0.0
 11
-80.94861111111113
 21
46.88978724084038
 31
0.0
  0
LINE
  5
19AC
330
6F
100
AcDbEntity
  8
GEO_
 62
     7
420
 16777215
100
AcDbLine
 10
-80.94861111111113
 20
46.88978724084038
 30
0.0
 11
-80.44166666666669
 21
47.38468150698741
 31
0.0
  0
LINE
  5
19AD
330
6F
100
AcDbEntity
  8
GEO_
 62
     7
420
 16777215
100
AcDbLine
 10
-80.44166666666669
 20
47.38468150698741
 30
0.0
 11
-80.44166666666669
 21
47.38468150698741
 31
0.0
  0
LINE
  5
19AE
330
6F
100
AcDbEntity
  8
GEO_
 62
     7
420
 16777215
100
AcDbLine
 10
-80.44166666666669
 20
47.38468150698741
 30
0.0
 11
-80.94861111111113
 21
46.88978724084038
 31
0.0
  0
LINE
  5
19C8
330
6F
100
AcDbEntity
  8
GEO_
 62
     7
420
 16777215
100
AcDbLine
 10
-80.94861111111113
 20
46.88978724084038
 30
0.0
 11
-80.44166666666669
 21
47.38468150698741
 31
0.0
  0
LINE
  5
19E2
330
6F
100
AcDbEntity
  8
GEO_
 62
     7
420
 16777215
100
AcDbLine
 10
-80.94861111111113
 20
46.88978724084038
 30
0.0
 11
-80.44166666666669
 21
47.38468150698741
 31
0.0
  0
LINE
  5
19E3
330
6F
100
AcDbEntity
  8
GEO_
 62
     7
420
 16777215
100
AcDbLine
 10
-80.44166666666669
 20
47.38468150698741
 30
0.0
 11
-80.26666666666667
 21
47.46416435900834
 31
0.0
  0
LINE
  5
19E4
330
6F
100
AcDbEntity
  8
GEO_
 62
     7
420
 16777215
100
AcDbLine
 10
-80.26666666666667
 20
47.46416435900834
 30
0.0
 11
-80.26666666666667
 21
47.46416435900834
 31
0.0
  0
LINE
  5
19E5
330
6F
100
AcDbEntity
  8
GEO_
 62
     7
420
 16777215
100
AcDbLine
 10
-80.26666666666667
 20
47.46416435900834
 30
0.0
 11
-80.44166666666669
 21
47.38468150698741
 31
0.0
  0
LINE
  5
1A2F
330
6F
100
AcDbEntity
  8
GEO_
 62
     7
420
 16777215
100
AcDbLine
 10
-80.94861111111113
 20
46.88978724084038
 30
0.0
 11
-80.94861111111113
 21
46.88978724084038
 31
0.0
  0
LINE
  5
1A31
330
6F
100
AcDbEntity
  8
GEO_
 62
     7
420
 16777215
100
AcDbLine
 10
-80.94861111111113
 20
46.88978724084038
 30
0.0
 11
-80.44166666666669
 21
47.38468150698741
 31
0.0
  0
LINE
  5
1A32
330
6F
100
AcDbEntity
  8
GEO_
 62
     7
420
 16777215
100
AcDbLine
 10
-80.44166666666669
 20
47.38468150698741
 30
0.0
 11
-80.44166666666669
 21
47.38468150698741
 31
0.0
  0
LINE
  5
1A33
330
6F
100
AcDbEntity
  8
GEO_
 62
     7
420
 16777215
100
AcDbLine
 10
-80.44166666666669
 20
47.38468150698741
 30
0.0
 11
-80.94861111111113
 21
46.88978724084038
 31
0.0
  0
LINE
  5
1A4B
330
6F
100
AcDbEntity
  8
GEO_
 62
     7
420
 16777215
100
AcDbLine
 10
-80.94861111111113
 20
46.88978724084038
 30
0.0
 11
-80.44166666666669
 21
47.38468150698741
 31
0.0
  0
LINE
  5
1A63
330
6F
100
AcDbEntity
  8
GEO_
 62
     7
420
 16777215
100
AcDbLine
 10
-80.94861111111113
 20
46.88978724084038
 30
0.0
 11
-80.44166666666669
 21
47.38468150698741
 31
0.0
  0
LINE
  5
1A64
330
6F
100
AcDbEntity
  8
GEO_
 62
     7
420
 16777215
100
AcDbLine
 10
-80.44166666666669
 20
47.38468150698741
 30
0.0
 11
-80.26666666666667
 21
47.46416435900834
 31
0.0
  0
LINE
  5
1A65
330
6F
100
AcDbEntity
  8
GEO_
 62
     7
420
 16777215
100
AcDbLine
 10
-80.26666666666667
 20
47.46416435900834
 30
0.0
 11
-80.26666666666667
 21
47.46416435900834
 31
0.0
  0
LINE
  5
1A66
330
6F
100
AcDbEntity
  8
GEO_
 62
     7
420
 16777215
100
AcDbLine
 10
-80.26666666666667
 20
47.46416435900834
 30
0.0
 11
-80.44166666666669
 21
47.38468150698741
 31
0.0
  0
LINE
  5
1AAA
330
6F
100
AcDbEntity
  8
GEO_
 62
     7
420
 16777215
100
AcDbLine
 10
-80.94861111111113
 20
46.88978724084038
 30
0.0
 11
-80.94861111111113
 21
46.88978724084038
 31
0.0
  0
LINE
  5
1AAC
330
6F
100
AcDbEntity
  8
GEO_
 62
     7
420
 16777215
100
AcDbLine
 10
-80.94861111111113
 20
46.88978724084038
 30
0.0
 11
-80.44166666666669
 21
47.38468150698741
 31
0.0
  0
LINE
  5
1AAD
330
6F
100
AcDbEntity
  8
GEO_
 62
     7
420
 16777215
100
AcDbLine
 10
-80.44166666666669
 20
47.38468150698741
 30
0.0
 11
-80.44166666666669
 21
47.38468150698741
 31
0.0
  0
LINE
  5
1AAE
330
6F
100
AcDbEntity
  8
GEO_
 62
     7
420
 16777215
100
AcDbLine
 10
-80.44166666666669
 20
47.38468150698741
 30
0.0
 11
-80.94861111111113
 21
46.88978724084038
 31
0.0
  0
ENDSEC
  0
SECTION
  2
OBJECTS
  0
DICTIONARY
  5
C
330
0
100
AcDbDictionary
281
     1
  3
ACAD_BACKGROUND
350
1AB7
  3
ACAD_CIP_PREVIOUS_PRODUCT_INFO
350
1AB0
  3
ACAD_COLOR
350
62
  3
ACAD_DETAILVIEWSTYLE
350
69
  3
ACAD_GROUP
350
D
  3
ACAD_LAYOUT
350
61
  3
ACAD_MATERIAL
350
10
  3
ACAD_MLEADERSTYLE
350
65
  3
ACAD_MLINESTYLE
350
5E
  3
ACAD_PLOTSETTINGS
350
60
  3
ACAD_PLOTSTYLENAME
350
E
  3
ACAD_SCALELIST
350
42
  3
ACAD_SECTIONVIEWSTYLE
350
67
  3
ACAD_TABLESTYLE
350
63
  3
ACAD_VISUALSTYLE
350
29
  3
ACDB_RECOMPOSE_DATA
350
1AEC
  3
AcDbVariableDictionary
350
1ABA
  0
DICTIONARY
  5
1ACD
330
54
100
AcDbDictionary
280
     1
281
     1
  3
ADSK_XREC_LAYER_RECONCILED
360
1ACE
  0
DICTIONARY
  5
1ACF
330
73
100
AcDbDictionary
280
     1
281
     1
  3
ADSK_XREC_LAYER_RECONCILED
360
1AD0
  0
DICTIONARY
  5
1AD1
330
74
100
AcDbDictionary
280
     1
281
     1
  3
ADSK_XREC_LAYER_RECONCILED
360
1AD2
  0
DICTIONARY
  5
1AD3
330
75
100
AcDbDictionary
280
     1
281
     1
  3
ADSK_XREC_LAYER_RECONCILED
360
1AD4
  0
DICTIONARY
  5
1AD5
330
76
100
AcDbDictionary
280
     1
281
     1
  3
ADSK_XREC_LAYER_RECONCILED
360
1AD6
  0
DICTIONARY
  5
1AD7
330
77
100
AcDbDictionary
280
     1
281
     1
  3
ADSK_XREC_LAYER_RECONCILED
360
1AD8
  0
DICTIONARY
  5
1AD9
330
78
100
AcDbDictionary
280
     1
281
     1
  3
ADSK_XREC_LAYER_RECONCILED
360
1ADA
  0
DICTIONARY
  5
1ADB
330
9B
100
AcDbDictionary
280
     1
281
     1
  3
ADSK_XREC_LAYER_RECONCILED
360
1ADC
  0
DICTIONARY
  5
1AB7
102
{ACAD_REACTORS
330
C
102
}
330
C
100
AcDbDictionary
281
     1
  0
XRECORD
  5
1AB0
102
{ACAD_REACTORS
330
C
102
}
330
C
100
AcDbXrecord
280
     1
300
ACD
300
2019
300
ACD_F_S
  0
DICTIONARY
  5
62
102
{ACAD_REACTORS
330
C
102
}
330
C
100
AcDbDictionary
281
     1
  0
DICTIONARY
  5
69
102
{ACAD_REACTORS
330
C
102
}
330
C
100
AcDbDictionary
281
     1
  3
Imperial24
350
6A
  0
DICTIONARY
  5
D
102
{ACAD_REACTORS
330
C
102
}
330
C
100
AcDbDictionary
281
     1
  0
DICTIONARY
  5
61
102
{ACAD_REACTORS
330
C
102
}
330
C
100
AcDbDictionary
281
     1
  3
Layout1
350
6E
  3
Model
350
72
  0
DICTIONARY
  5
10
102
{ACAD_REACTORS
330
C
102
}
330
C
100
AcDbDictionary
281
     1
  3
ByBlock
350
19
  3
ByLayer
350
11
  3
Global
350
21
  0
DICTIONARY
  5
65
102
{ACAD_REACTORS
330
C
102
}
330
C
100
AcDbDictionary
281
     1
  3
Standard
350
66
  0
DICTIONARY
  5
5E
102
{ACAD_REACTORS
330
C
102
}
330
C
100
AcDbDictionary
281
     1
  3
Standard
350
5F
  0
DICTIONARY
  5
60
102
{ACAD_REACTORS
330
C
102
}
330
C
100
AcDbDictionary
281
     1
  0
ACDBDICTIONARYWDFLT
  5
E
102
{ACAD_REACTORS
330
C
102
}
330
C
100
AcDbDictionary
281
     1
  3
Normal
350
F
100
AcDbDictionaryWithDefault
340
F
  0
DICTIONARY
  5
42
102
{ACAD_REACTORS
330
C
102
}
330
C
100
AcDbDictionary
281
     1
  3
A0
350
43
  3
A1
350
44
  3
A2
350
45
  3
A3
350
46
  3
A4
350
47
  3
A5
350
48
  3
A6
350
49
  3
A7
350
4A
  3
A8
350
4B
  3
A9
350
4C
  3
B0
350
4D
  3
B1
350
4E
  3
B2
350
4F
  3
B3
350
50
  3
B4
350
51
  3
B5
350
52
  3
B6
350
53
  0
DICTIONARY
  5
67
102
{ACAD_REACTORS
330
C
102
}
330
C
100
AcDbDictionary
281
     1
  3
Imperial24
350
68
  0
DICTIONARY
  5
63
102
{ACAD_REACTORS
330
C
102
}
330
C
100
AcDbDictionary
281
     1
  3
Standard
350
64
  0
DICTIONARY
  5
29
102
{ACAD_REACTORS
330
C
102
}
330
C
100
AcDbDictionary
281
     1
  3
2dWireframe
350
2F
  3
Basic
350
2E
  3
Brighten
350
35
  3
ColorChange
350
39
  3
Conceptual
350
32
  3
Dim
350
34
  3
EdgeColorOff
350
41
  3
Facepattern
350
38
  3
Flat
350
2A
  3
FlatWithEdges
350
2B
  3
Gouraud
350
2C
  3
GouraudWithEdges
350
2D
  3
Hidden
350
31
  3
JitterOff
350
3F
  3
Linepattern
350
37
  3
OverhangOff
350
40
  3
Realistic
350
33
  3
Shaded
350
3E
  3
Shaded with edges
350
3D
  3
Shades of Gray
350
3A
  3
Sketchy
350
3B
  3
Thicken
350
36
  3
Wireframe
350
30
  3
X-Ray
350
3C
  0
XRECORD
  5
1AEC
102
{ACAD_REACTORS
330
C
102
}
330
C
100
AcDbXrecord
280
     1
 90
        1
330
64
  0
DICTIONARY
  5
1ABA
102
{ACAD_REACTORS
330
C
102
}
330
C
100
AcDbDictionary
281
     1
  3
CANNOSCALE
350
1AC0
  3
CMLEADERSTYLE
350
1ABC
  3
CTABLESTYLE
350
1ABB
  3
CVIEWDETAILSTYLE
350
1ABD
  3
CVIEWSECTIONSTYLE
350
1ABE
  3
LAYEREVAL
350
1AC2
  3
LAYERNOTIFY
350
1AC3
  3
LIGHTINGUNITS
350
1AC1
  3
MSLTSCALE
350
1ABF
  0
XRECORD
  5
1ACE
102
{ACAD_REACTORS
330
1ACD
102
}
330
1ACD
100
AcDbXrecord
280
     1
290
     1
  0
XRECORD
  5
1AD0
102
{ACAD_REACTORS
330
1ACF
102
}
330
1ACF
100
AcDbXrecord
280
     1
290
     1
  0
XRECORD
  5
1AD2
102
{ACAD_REACTORS
330
1AD1
102
}
330
1AD1
100
AcDbXrecord
280
     1
290
     1
  0
XRECORD
  5
1AD4
102
{ACAD_REACTORS
330
1AD3
102
}
330
1AD3
100
AcDbXrecord
280
     1
290
     1
  0
XRECORD
  5
1AD6
102
{ACAD_REACTORS
330
1AD5
102
}
330
1AD5
100
AcDbXrecord
280
     1
290
     1
  0
XRECORD
  5
1AD8
102
{ACAD_REACTORS
330
1AD7
102
}
330
1AD7
100
AcDbXrecord
280
     1
290
     1
  0
XRECORD
  5
1ADA
102
{ACAD_REACTORS
330
1AD9
102
}
330
1AD9
100
AcDbXrecord
280
     1
290
     1
  0
XRECORD
  5
1ADC
102
{ACAD_REACTORS
330
1ADB
102
}
330
1ADB
100
AcDbXrecord
280
     1
290
     1
  0
ACDBDETAILVIEWSTYLE
  5
6A
102
{ACAD_REACTORS
330
69
102
}
330
69
100
AcDbModelDocViewStyle
 70
     0
  3
Imperial24
290
     0
300
Imperial24
 90
        0
100
AcDbDetailViewStyle
 70
     0
 71
     0
 90
        3
 71
     1
340
55
 62
   256
 40
0.24
340
0
 62
   256
 40
0.24
300

 40
0.36
280
     3
 71
     2
340
5C
 90
       25
 62
   256
 71
     3
340
55
 62
   256
 40
0.24
 90
        1
 40
0.75
 90
        1
300
%<\AcVar ViewType \f "%tc1">% %<\AcVar ViewDetailId>%\PSCALE %<\AcVar ViewScale \f "%sn">%
 71
     4
340
5C
 90
       25
 62
   256
340
5C
 90
       25
 62
   256
280
     0
  0
LAYOUT
  5
6E
102
{ACAD_REACTORS
330
61
102
}
330
61
100
AcDbPlotSettings
  1

  2
\\hpoffice\HP Photosmart Prem C410 series
  4

  6

 40
0.0
 41
0.0
 42
0.0
 43
0.0
 44
0.0
 45
0.0
 46
0.0
 47
0.0
 48
0.0
 49
0.0
140
0.0
141
0.0
142
1.0
143
1.0
 70
   688
 72
     0
 73
     0
 74
     5
  7

 75
    16
147
1.0
 76
     0
 77
     2
 78
   300
148
0.0
149
0.0
100
AcDbLayout
  1
Layout1
 70
     1
 71
     1
 10
0.0
 20
0.0
 11
12.0
 21
9.0
 12
0.0
 22
0.0
 32
0.0
 14
1.000000000000000E+20
 24
1.000000000000000E+20
 34
1.000000000000000E+20
 15
-1.000000000000000E+20
 25
-1.000000000000000E+20
 35
-1.000000000000000E+20
146
0.0
 13
0.0
 23
0.0
 33
0.0
 16
1.0
 26
0.0
 36
0.0
 17
0.0
 27
1.0
 37
0.0
 76
     0
330
6B
  0
LAYOUT
  5
72
102
{ACAD_REACTORS
330
61
102
}
330
61
100
AcDbPlotSettings
  1

  2
\\hpoffice\HP Photosmart Prem C410 series
  4

  6

 40
0.0
 41
0.0
 42
0.0
 43
0.0
 44
0.0
 45
0.0
 46
0.0
 47
0.0
 48
0.0
 49
0.0
140
0.0
141
0.0
142
1.0
143
1.0
 70
  1712
 72
     0
 73
     0
 74
     0
  7

 75
     0
147
1.0
 76
     0
 77
     2
 78
   300
148
0.0
149
0.0
100
AcDbLayout
  1
Model
 70
     1
 71
     0
 10
0.0
 20
0.0
 11
12.0
 21
9.0
 12
0.0
 22
0.0
 32
0.0
 14
0.0
 24
0.0
 34
0.0
 15
0.0
 25
0.0
 35
0.0
146
0.0
 13
0.0
 23
0.0
 33
0.0
 16
1.0
 26
0.0
 36
0.0
 17
0.0
 27
1.0
 37
0.0
 76
     0
330
6F
331
7B
  0
MATERIAL
  5
19
102
{ACAD_XDICTIONARY
360
1A
102
}
102
{ACAD_REACTORS
330
10
102
}
330
10
100
AcDbMaterial
  1
ByBlock
 72
     0
 43
0.0208333333333333
 43
0.0
 43
0.0
 43
0.0
 43
0.0
 43
0.0208333333333333
 43
0.0
 43
0.0
 43
0.0
 43
0.0
 43
1.0
 43
0.0
 43
0.0
 43
0.0
 43
0.0
 43
1.0
 77
     0
 47
0.0208333333333333
 47
0.0
 47
0.0
 47
0.0
 47
0.0
 47
0.0208333333333333
 47
0.0
 47
0.0
 47
0.0
 47
0.0
 47
1.0
 47
0.0
 47
0.0
 47
0.0
 47
0.0
 47
1.0
171
     0
 49
0.0208333333333333
 49
0.0
 49
0.0
 49
0.0
 49
0.0
 49
0.0208333333333333
 49
0.0
 49
0.0
 49
0.0
 49
0.0
 49
1.0
 49
0.0
 49
0.0
 49
0.0
 49
0.0
 49
1.0
175
     0
142
0.0208333333333333
142
0.0
142
0.0
142
0.0
142
0.0
142
0.0208333333333333
142
0.0
142
0.0
142
0.0
142
0.0
142
1.0
142
0.0
142
0.0
142
0.0
142
0.0
142
1.0
179
     0
144
0.0208333333333333
144
0.0
144
0.0
144
0.0
144
0.0
144
0.0208333333333333
144
0.0
144
0.0
144
0.0
144
0.0
144
1.0
144
0.0
144
0.0
144
0.0
144
0.0
144
1.0
147
0.0208333333333333
147
0.0
147
0.0
147
0.0
147
0.0
147
0.0208333333333333
147
0.0
147
0.0
147
0.0
147
0.0
147
1.0
147
0.0
147
0.0
147
0.0
147
0.0
147
1.0
  0
MATERIAL
  5
11
102
{ACAD_XDICTIONARY
360
12
102
}
102
{ACAD_REACTORS
330
10
102
}
330
10
100
AcDbMaterial
  1
ByLayer
 72
     0
 43
0.0208333333333333
 43
0.0
 43
0.0
 43
0.0
 43
0.0
 43
0.0208333333333333
 43
0.0
 43
0.0
 43
0.0
 43
0.0
 43
1.0
 43
0.0
 43
0.0
 43
0.0
 43
0.0
 43
1.0
 77
     0
 47
0.0208333333333333
 47
0.0
 47
0.0
 47
0.0
 47
0.0
 47
0.0208333333333333
 47
0.0
 47
0.0
 47
0.0
 47
0.0
 47
1.0
 47
0.0
 47
0.0
 47
0.0
 47
0.0
 47
1.0
171
     0
 49
0.0208333333333333
 49
0.0
 49
0.0
 49
0.0
 49
0.0
 49
0.0208333333333333
 49
0.0
 49
0.0
 49
0.0
 49
0.0
 49
1.0
 49
0.0
 49
0.0
 49
0.0
 49
0.0
 49
1.0
175
     0
142
0.0208333333333333
142
0.0
142
0.0
142
0.0
142
0.0
142
0.0208333333333333
142
0.0
142
0.0
142
0.0
142
0.0
142
1.0
142
0.0
142
0.0
142
0.0
142
0.0
142
1.0
179
     0
144
0.0208333333333333
144
0.0
144
0.0
144
0.0
144
0.0
144
0.0208333333333333
144
0.0
144
0.0
144
0.0
144
0.0
144
1.0
144
0.0
144
0.0
144
0.0
144
0.0
144
1.0
147
0.0208333333333333
147
0.0
147
0.0
147
0.0
147
0.0
147
0.0208333333333333
147
0.0
147
0.0
147
0.0
147
0.0
147
1.0
147
0.0
147
0.0
147
0.0
147
0.0
147
1.0
  0
MATERIAL
  5
21
102
{ACAD_XDICTIONARY
360
22
102
}
102
{ACAD_REACTORS
330
10
102
}
330
10
100
AcDbMaterial
  1
Global
 72
     0
 43
0.0208333333333333
 43
0.0
 43
0.0
 43
0.0
 43
0.0
 43
0.0208333333333333
 43
0.0
 43
0.0
 43
0.0
 43
0.0
 43
1.0
 43
0.0
 43
0.0
 43
0.0
 43
0.0
 43
1.0
 77
     0
 47
0.0208333333333333
 47
0.0
 47
0.0
 47
0.0
 47
0.0
 47
0.0208333333333333
 47
0.0
 47
0.0
 47
0.0
 47
0.0
 47
1.0
 47
0.0
 47
0.0
 47
0.0
 47
0.0
 47
1.0
171
     0
 49
0.0208333333333333
 49
0.0
 49
0.0
 49
0.0
 49
0.0
 49
0.0208333333333333
 49
0.0
 49
0.0
 49
0.0
 49
0.0
 49
1.0
 49
0.0
 49
0.0
 49
0.0
 49
0.0
 49
1.0
175
     0
142
0.0208333333333333
142
0.0
142
0.0
142
0.0
142
0.0
142
0.0208333333333333
142
0.0
142
0.0
142
0.0
142
0.0
142
1.0
142
0.0
142
0.0
142
0.0
142
0.0
142
1.0
179
     0
144
0.0208333333333333
144
0.0
144
0.0
144
0.0
144
0.0
144
0.0208333333333333
144
0.0
144
0.0
144
0.0
144
0.0
144
1.0
144
0.0
144
0.0
144
0.0
144
0.0
144
1.0
147
0.0208333333333333
147
0.0
147
0.0
147
0.0
147
0.0
147
0.0208333333333333
147
0.0
147
0.0
147
0.0
147
0.0
147
1.0
147
0.0
147
0.0
147
0.0
147
0.0
147
1.0
  0
MLEADERSTYLE
  5
66
102
{ACAD_REACTORS
330
65
102
}
330
65
100
AcDbMLeaderStyle
179
     2
170
     2
171
     1
172
     0
 90
        2
 40
0.0
 41
0.0
173
     1
 91
-1056964608
340
5A
 92
       -2
290
     1
 42
0.09
291
     1
 43
0.36
  3
Standard
 44
0.18
300

342
55
174
     1
178
     6
175
     1
176
     0
 93
-1056964608
 45
0.18
292
     0
297
     0
 46
0.18
 94
-1056964608
 47
1.0
 49
1.0
140
1.0
293
     1
141
0.0
294
     1
177
     0
142
1.0
295
     0
296
     0
143
0.125
271
     0
272
     9
273
     9
298
     0
  0
MLINESTYLE
  5
5F
102
{ACAD_REACTORS
330
5E
102
}
330
5E
100
AcDbMlineStyle
  2
STANDARD
 70
     0
  3

 62
   256
 51
90.0
 52
90.0
 71
     2
 49
0.5
 62
   256
  6
BYLAYER
 49
-0.5
 62
   256
  6
BYLAYER
  0
ACDBPLACEHOLDER
  5
F
102
{ACAD_REACTORS
330
E
102
}
330
E
  0
SCALE
  5
43
102
{ACAD_REACTORS
330
42
102
}
330
42
100
AcDbScale
 70
     0
300
1:1
140
1.0
141
1.0
290
     1
  0
SCALE
  5
44
102
{ACAD_REACTORS
330
42
102
}
330
42
100
AcDbScale
 70
     0
300
1/128" = 1'-0"
140
0.0078125
141
12.0
290
     0
  0
SCALE
  5
45
102
{ACAD_REACTORS
330
42
102
}
330
42
100
AcDbScale
 70
     0
300
1/64" = 1'-0"
140
0.015625
141
12.0
290
     0
  0
SCALE
  5
46
102
{ACAD_REACTORS
330
42
102
}
330
42
100
AcDbScale
 70
     0
300
1/32" = 1'-0"
140
0.03125
141
12.0
290
     0
  0
SCALE
  5
47
102
{ACAD_REACTORS
330
42
102
}
330
42
100
AcDbScale
 70
     0
300
1/16" = 1'-0"
140
0.0625
141
12.0
290
     0
  0
SCALE
  5
48
102
{ACAD_REACTORS
330
42
102
}
330
42
100
AcDbScale
 70
     0
300
3/32" = 1'-0"
140
0.09375
141
12.0
290
     0
  0
SCALE
  5
49
102
{ACAD_REACTORS
330
42
102
}
330
42
100
AcDbScale
 70
     0
300
1/8" = 1'-0"
140
0.125
141
12.0
290
     0
  0
SCALE
  5
4A
102
{ACAD_REACTORS
330
42
102
}
330
42
100
AcDbScale
 70
     0
300
3/16" = 1'-0"
140
0.1875
141
12.0
290
     0
  0
SCALE
  5
4B
102
{ACAD_REACTORS
330
42
102
}
330
42
100
AcDbScale
 70
     0
300
1/4" = 1'-0"
140
0.25
141
12.0
290
     0
  0
SCALE
  5
4C
102
{ACAD_REACTORS
330
42
102
}
330
42
100
AcDbScale
 70
     0
300
3/8" = 1'-0"
140
0.375
141
12.0
290
     0
  0
SCALE
  5
4D
102
{ACAD_REACTORS
330
42
102
}
330
42
100
AcDbScale
 70
     0
300
1/2" = 1'-0"
140
0.5
141
12.0
290
     0
  0
SCALE
  5
4E
102
{ACAD_REACTORS
330
42
102
}
330
42
100
AcDbScale
 70
     0
300
3/4" = 1'-0"
140
0.75
141
12.0
290
     0
  0
SCALE
  5
4F
102
{ACAD_REACTORS
330
42
102
}
330
42
100
AcDbScale
 70
     0
300
1" = 1'-0"
140
1.0
141
12.0
290
     0
  0
SCALE
  5
50
102
{ACAD_REACTORS
330
42
102
}
330
42
100
AcDbScale
 70
     0
300
1-1/2" = 1'-0"
140
1.5
141
12.0
290
     0
  0
SCALE
  5
51
102
{ACAD_REACTORS
330
42
102
}
330
42
100
AcDbScale
 70
     0
300
3" = 1'-0"
140
3.0
141
12.0
290
     0
  0
SCALE
  5
52
102
{ACAD_REACTORS
330
42
102
}
330
42
100
AcDbScale
 70
     0
300
6" = 1'-0"
140
6.0
141
12.0
290
     0
  0
SCALE
  5
53
102
{ACAD_REACTORS
330
42
102
}
330
42
100
AcDbScale
 70
     0
300
1'-0" = 1'-0"
140
12.0
141
12.0
290
     0
  0
ACDBSECTIONVIEWSTYLE
  5
68
102
{ACAD_REACTORS
330
67
102
}
330
67
100
AcDbModelDocViewStyle
 70
     0
  3
Imperial24
290
     0
300
Imperial24
 90
        0
100
AcDbSectionViewStyle
 70
     0
 71
     0
 90
       78
 71
     1
340
55
 62
   256
 40
0.24
340
0
340
0
 62
   256
 40
0.24
300
I, O, Q, S, X, Z
 40
0.48
 90
        3
 40
0.18
 90
        1
 71
     2
340
5C
 90
       25
 62
   256
340
5C
 90
       50
 62
   256
 40
0.24
 40
0.0
 40
0.24
 71
     3
340
55
 62
   256
 40
0.24
 90
        1
 40
0.75
 90
        1
300
%<\AcVar ViewType \f "%tc1">% %<\AcVar ViewSectionStartId>%-%<\AcVar ViewSectionEndId>%\PSCALE %<\AcVar ViewScale \f "%sn">%
 71
     4
 62
   256
 62
   257
300
ANSI31
 40
1.0
 90
        0
290
     0
290
     0
 90
        6
 40
0.0
 40
1.570796326794896
 40
0.2617993877991494
 40
1.308996938995747
 40
-0.2617993877991494
 40
1.832595714594044
  0
TABLESTYLE
  5
64
102
{ACAD_XDICTIONARY
360
1AC5
102
}
102
{ACAD_REACTORS
330
63
102
}
330
63
100
AcDbTableStyle
280
     0
  3
Standard
 70
     0
 71
     0
 40
0.06
 41
0.06
280
     0
281
     0
  7
STANDARD
140
0.18
170
     2
 62
     0
 63
     7
283
     0
 90
      512
 91
        0
  1

274
    -2
284
     1
 64
     0
275
    -2
285
     1
 65
     0
276
    -2
286
     1
 66
     0
277
    -2
287
     1
 67
     0
278
    -2
288
     1
 68
     0
279
    -2
289
     1
 69
     0
  7
STANDARD
140
0.25
170
     5
 62
     0
 63
     7
283
     0
 90
      512
 91
        0
  1

274
    -2
284
     1
 64
     0
275
    -2
285
     1
 65
     0
276
    -2
286
     1
 66
     0
277
    -2
287
     1
 67
     0
278
    -2
288
     1
 68
     0
279
    -2
289
     1
 69
     0
  7
STANDARD
140
0.18
170
     5
 62
     0
 63
     7
283
     0
 90
      512
 91
        0
  1

274
    -2
284
     1
 64
     0
275
    -2
285
     1
 65
     0
276
    -2
286
     1
 66
     0
277
    -2
287
     1
 67
     0
278
    -2
288
     1
 68
     0
279
    -2
289
     1
 69
     0
  0
VISUALSTYLE
  5
2F
102
{ACAD_REACTORS
330
29
102
}
330
29
100
AcDbVisualStyle
  2
2dWireframe
 70
     4
177
     3
291
     0
 70
    58
 90
        0
176
     1
 90
        2
176
     1
 90
        0
176
     1
 90
        0
176
     1
 40
0.6
176
     1
 40
30.0
176
     1
 62
     7
420
 16777215
176
     1
 90
        1
176
     1
 90
        4
176
     1
 62
     7
176
     1
 62
   257
176
     1
 90
        1
176
     1
 90
        1
176
     1
 40
1.0
176
     1
 90
        0
176
     1
 62
   257
176
     1
 40
1.0
176
     1
 90
        1
176
     1
 90
        6
176
     1
 90
        2
176
     1
 62
     7
176
     1
 90
        5
176
     1
 90
        0
176
     1
 90
        0
176
     1
290
     0
176
     1
 90
        1
176
     1
 40
0.0
176
     1
 90
        0
176
     1
290
     1
176
     1
290
     1
176
     1
290
     0
176
     1
290
     0
176
     1
290
     0
176
     1
290
     0
176
     1
290
     0
176
     1
290
     0
176
     1
290
     0
176
     1
 90
       50
176
     1
 40
0.0
176
     1
 40
1.0
176
     1
 90
        0
176
     1
 62
    18
176
     1
 90
       50
176
     1
 90
        3
176
     1
 62
     5
420
      255
176
     1
290
     0
176
     1
 90
       50
176
     1
 90
       50
176
     1
 90
       50
176
     1
290
     0
176
     1
 90
       50
176
     1
 62
   256
176
     0
 40
1.0
176
     0
 90
        2
176
     1
  1
strokes_ogs.tif
176
     1
290
     0
176
     1
 40
1.0
176
     1
 40
1.0
176
     1
  0
VISUALSTYLE
  5
2E
102
{ACAD_REACTORS
330
29
102
}
330
29
100
AcDbVisualStyle
  2
Basic
 70
     7
177
     3
291
     1
 70
    58
 90
        1
176
     1
 90
        0
176
     1
 90
        1
176
     1
 90
        0
176
     1
 40
0.6
176
     1
 40
30.0
176
     1
 62
     7
420
 16777215
176
     1
 90
        0
176
     1
 90
        4
176
     1
 62
     7
176
     1
 62
   257
176
     1
 90
        1
176
     1
 90
        1
176
     1
 40
1.0
176
     1
 90
        8
176
     1
 62
     7
176
     1
 40
1.0
176
     1
 90
        1
176
     1
 90
        6
176
     1
 90
        2
176
     1
 62
     7
176
     1
 90
        5
176
     1
 90
        0
176
     1
 90
        0
176
     1
290
     0
176
     1
 90
        1
176
     1
 40
0.0
176
     1
 90
        0
176
     1
290
     0
176
     1
290
     1
176
     1
290
     1
176
     1
290
     0
176
     1
290
     0
176
     1
290
     0
176
     1
290
     0
176
     1
290
     0
176
     1
290
     0
176
     1
 90
       50
176
     1
 40
0.0
176
     1
 40
1.0
176
     1
 90
        0
176
     1
 62
    18
176
     1
 90
       50
176
     1
 90
        3
176
     1
 62
     5
420
      255
176
     1
290
     0
176
     1
 90
       50
176
     1
 90
       50
176
     1
 90
       50
176
     1
290
     0
176
     1
 90
       50
176
     1
 62
   256
176
     0
 40
1.0
176
     0
 90
        2
176
     1
  1
strokes_ogs.tif
176
     1
290
     0
176
     1
 40
1.0
176
     1
 40
1.0
176
     1
  0
VISUALSTYLE
  5
35
102
{ACAD_REACTORS
330
29
102
}
330
29
100
AcDbVisualStyle
  2
Brighten
 70
    12
177
     3
291
     1
 70
    58
 90
        2
176
     1
 90
        2
176
     1
 90
        0
176
     1
 90
        0
176
     1
 40
0.6
176
     1
 40
30.0
176
     1
 62
     7
420
 16777215
176
     1
 90
        1
176
     1
 90
        4
176
     1
 62
     7
176
     1
 62
   257
176
     1
 90
        1
176
     1
 90
        1
176
     1
 40
1.0
176
     1
 90
        8
176
     1
 62
     7
176
     1
 40
1.0
176
     1
 90
        1
176
     1
 90
        6
176
     1
 90
        2
176
     1
 62
     7
176
     1
 90
        5
176
     1
 90
        0
176
     1
 90
        0
176
     1
290
     0
176
     1
 90
        1
176
     1
 40
50.0
176
     1
 90
        0
176
     1
290
     0
176
     1
290
     1
176
     1
290
     1
176
     1
290
     0
176
     1
290
     0
176
     1
290
     0
176
     1
290
     0
176
     1
290
     0
176
     1
290
     0
176
     1
 90
       50
176
     1
 40
0.0
176
     1
 40
1.0
176
     1
 90
        0
176
     1
 62
    18
176
     1
 90
       50
176
     1
 90
        3
176
     1
 62
     5
420
      255
176
     1
290
     0
176
     1
 90
       50
176
     1
 90
       50
176
     1
 90
       50
176
     1
290
     0
176
     1
 90
       50
176
     1
 62
   256
176
     0
 40
1.0
176
     0
 90
        2
176
     1
  1
strokes_ogs.tif
176
     1
290
     0
176
     1
 40
1.0
176
     1
 40
1.0
176
     1
  0
VISUALSTYLE
  5
39
102
{ACAD_REACTORS
330
29
102
}
330
29
100
AcDbVisualStyle
  2
ColorChange
 70
    16
177
     3
291
     1
 70
    58
 90
        2
176
     1
 90
        2
176
     1
 90
        3
176
     1
 90
        0
176
     1
 40
0.6
176
     1
 40
30.0
176
     1
 62
     8
420
  8421504
176
     1
 90
        1
176
     1
 90
        4
176
     1
 62
     7
176
     1
 62
   257
176
     1
 90
        1
176
     1
 90
        1
176
     1
 40
1.0
176
     1
 90
        8
176
     1
 62
     8
420
  8421504
176
     1
 40
1.0
176
     1
 90
        1
176
     1
 90
        6
176
     1
 90
        2
176
     1
 62
     7
176
     1
 90
        5
176
     1
 90
        0
176
     1
 90
        0
176
     1
290
     0
176
     1
 90
        1
176
     1
 40
0.0
176
     1
 90
        0
176
     1
290
     0
176
     1
290
     1
176
     1
290
     1
176
     1
290
     0
176
     1
290
     0
176
     1
290
     0
176
     1
290
     0
176
     1
290
     0
176
     1
290
     0
176
     1
 90
       50
176
     1
 40
0.0
176
     1
 40
1.0
176
     1
 90
        0
176
     1
 62
    18
176
     1
 90
       50
176
     1
 90
        3
176
     1
 62
     5
420
      255
176
     1
290
     0
176
     1
 90
       50
176
     1
 90
       50
176
     1
 90
       50
176
     1
290
     0
176
     1
 90
       50
176
     1
 62
   256
176
     0
 40
1.0
176
     0
 90
        2
176
     1
  1
strokes_ogs.tif
176
     1
290
     0
176
     1
 40
1.0
176
     1
 40
1.0
176
     1
  0
VISUALSTYLE
  5
32
102
{ACAD_REACTORS
330
29
102
}
330
29
100
AcDbVisualStyle
  2
Conceptual
 70
     9
177
     3
291
     0
 70
    58
 90
        3
176
     1
 90
        2
176
     1
 90
        0
176
     1
 90
        0
176
     1
 40
0.6
176
     1
 40
30.0
176
     1
 62
     7
420
 16777215
176
     1
 90
        2
176
     1
 90
        2
176
     1
 62
     7
176
     1
 62
   257
176
     1
 90
        1
176
     1
 90
        1
176
     1
 40
179.0
176
     1
 90
        8
176
     1
 62
     7
176
     1
 40
1.0
176
     1
 90
        1
176
     1
 90
        6
176
     1
 90
        2
176
     1
 62
     7
176
     1
 90
        3
176
     1
 90
        0
176
     1
 90
        0
176
     1
290
     0
176
     1
 90
        1
176
     1
 40
0.0
176
     1
 90
        0
176
     1
290
     0
176
     1
290
     1
176
     1
290
     1
176
     1
290
     0
176
     1
290
     0
176
     1
290
     0
176
     1
290
     0
176
     1
290
     0
176
     1
290
     0
176
     1
 90
       50
176
     1
 40
0.0
176
     1
 40
1.0
176
     1
 90
        0
176
     1
 62
    18
176
     1
 90
       50
176
     1
 90
        3
176
     1
 62
     5
420
      255
176
     1
290
     0
176
     1
 90
       50
176
     1
 90
       50
176
     1
 90
       50
176
     1
290
     0
176
     1
 90
       50
176
     1
 62
   256
176
     0
 40
1.0
176
     0
 90
        2
176
     1
  1
strokes_ogs.tif
176
     1
290
     0
176
     1
 40
1.0
176
     1
 40
1.0
176
     1
  0
VISUALSTYLE
  5
34
102
{ACAD_REACTORS
330
29
102
}
330
29
100
AcDbVisualStyle
  2
Dim
 70
    11
177
     3
291
     1
 70
    58
 90
        2
176
     1
 90
        2
176
     1
 90
        0
176
     1
 90
        0
176
     1
 40
0.6
176
     1
 40
30.0
176
     1
 62
     7
420
 16777215
176
     1
 90
        1
176
     1
 90
        4
176
     1
 62
     7
176
     1
 62
   257
176
     1
 90
        1
176
     1
 90
        1
176
     1
 40
1.0
176
     1
 90
        8
176
     1
 62
     7
176
     1
 40
1.0
176
     1
 90
        1
176
     1
 90
        6
176
     1
 90
        2
176
     1
 62
     7
176
     1
 90
        5
176
     1
 90
        0
176
     1
 90
        0
176
     1
290
     0
176
     1
 90
        1
176
     1
 40
-50.0
176
     1
 90
        0
176
     1
290
     0
176
     1
290
     1
176
     1
290
     1
176
     1
290
     0
176
     1
290
     0
176
     1
290
     0
176
     1
290
     0
176
     1
290
     0
176
     1
290
     0
176
     1
 90
       50
176
     1
 40
0.0
176
     1
 40
1.0
176
     1
 90
        0
176
     1
 62
    18
176
     1
 90
       50
176
     1
 90
        3
176
     1
 62
     5
420
      255
176
     1
290
     0
176
     1
 90
       50
176
     1
 90
       50
176
     1
 90
       50
176
     1
290
     0
176
     1
 90
       50
176
     1
 62
   256
176
     0
 40
1.0
176
     0
 90
        2
176
     1
  1
strokes_ogs.tif
176
     1
290
     0
176
     1
 40
1.0
176
     1
 40
1.0
176
     1
  0
VISUALSTYLE
  5
41
102
{ACAD_REACTORS
330
29
102
}
330
29
100
AcDbVisualStyle
  2
EdgeColorOff
 70
    22
177
     3
291
     1
 70
    58
 90
        2
176
     0
 90
        2
176
     0
 90
        0
176
     0
 90
        0
176
     0
 40
0.6
176
     0
 40
30.0
176
     0
 62
     7
420
 16777215
176
     0
 90
        1
176
     0
 90
        4
176
     0
 62
     7
176
     0
 62
   257
176
     0
 90
        1
176
     0
 90
        1
176
     0
 40
1.0
176
     0
 90
        8
176
     2
 62
     7
176
     0
 40
1.0
176
     0
 90
        1
176
     0
 90
        6
176
     0
 90
        2
176
     0
 62
     7
176
     0
 90
        5
176
     0
 90
        0
176
     0
 90
        0
176
     0
290
     0
176
     0
 90
        1
176
     0
 40
0.0
176
     0
 90
        0
176
     0
290
     0
176
     1
290
     1
176
     1
290
     1
176
     1
290
     0
176
     1
290
     0
176
     1
290
     0
176
     1
290
     0
176
     1
290
     0
176
     1
290
     0
176
     1
 90
       50
176
     0
 40
0.0
176
     0
 40
1.0
176
     0
 90
        0
176
     0
 62
    18
176
     0
 90
       50
176
     0
 90
        3
176
     0
 62
     5
420
      255
176
     0
290
     0
176
     1
 90
       50
176
     0
 90
       50
176
     0
 90
       50
176
     0
290
     0
176
     1
 90
       50
176
     0
 62
   256
176
     0
 40
1.0
176
     0
 90
        2
176
     0
  1
strokes_ogs.tif
176
     0
290
     0
176
     1
 40
1.0
176
     0
 40
1.0
176
     0
  0
VISUALSTYLE
  5
38
102
{ACAD_REACTORS
330
29
102
}
330
29
100
AcDbVisualStyle
  2
Facepattern
 70
    15
177
     3
291
     1
 70
    58
 90
        2
176
     1
 90
        2
176
     1
 90
        0
176
     1
 90
        0
176
     1
 40
0.6
176
     1
 40
30.0
176
     1
 62
     7
420
 16777215
176
     1
 90
        1
176
     1
 90
        4
176
     1
 62
     7
176
     1
 62
   257
176
     1
 90
        1
176
     1
 90
        1
176
     1
 40
1.0
176
     1
 90
        8
176
     1
 62
     7
176
     1
 40
1.0
176
     1
 90
        1
176
     1
 90
        6
176
     1
 90
        2
176
     1
 62
     7
176
     1
 90
        5
176
     1
 90
        0
176
     1
 90
        0
176
     1
290
     0
176
     1
 90
        1
176
     1
 40
0.0
176
     1
 90
        0
176
     1
290
     0
176
     1
290
     1
176
     1
290
     1
176
     1
290
     0
176
     1
290
     0
176
     1
290
     0
176
     1
290
     0
176
     1
290
     0
176
     1
290
     0
176
     1
 90
       50
176
     1
 40
0.0
176
     1
 40
1.0
176
     1
 90
        0
176
     1
 62
    18
176
     1
 90
       50
176
     1
 90
        3
176
     1
 62
     5
420
      255
176
     1
290
     0
176
     1
 90
       50
176
     1
 90
       50
176
     1
 90
       50
176
     1
290
     0
176
     1
 90
       50
176
     1
 62
   256
176
     0
 40
1.0
176
     0
 90
        2
176
     1
  1
strokes_ogs.tif
176
     1
290
     0
176
     1
 40
1.0
176
     1
 40
1.0
176
     1
  0
VISUALSTYLE
  5
2A
102
{ACAD_REACTORS
330
29
102
}
330
29
100
AcDbVisualStyle
  2
Flat
 70
     0
177
     3
291
     1
 70
    58
 90
        2
176
     1
 90
        1
176
     1
 90
        1
176
     1
 90
        2
176
     1
 40
0.6
176
     1
 40
30.0
176
     1
 62
     7
420
 16777215
176
     1
 90
        0
176
     1
 90
        0
176
     1
 62
     7
176
     1
 62
   257
176
     1
 90
        1
176
     1
 90
        1
176
     1
 40
1.0
176
     1
 90
        8
176
     1
 62
     7
176
     1
 40
1.0
176
     1
 90
        1
176
     1
 90
        6
176
     1
 90
        2
176
     1
 62
     7
176
     1
 90
        5
176
     1
 90
        0
176
     1
 90
        0
176
     1
290
     0
176
     1
 90
       13
176
     1
 40
0.0
176
     1
 90
        0
176
     1
290
     0
176
     1
290
     1
176
     1
290
     1
176
     1
290
     0
176
     1
290
     0
176
     1
290
     0
176
     1
290
     0
176
     1
290
     0
176
     1
290
     0
176
     1
 90
       50
176
     1
 40
0.0
176
     1
 40
1.0
176
     1
 90
        0
176
     1
 62
    18
176
     1
 90
       50
176
     1
 90
        3
176
     1
 62
     5
420
      255
176
     1
290
     0
176
     1
 90
       50
176
     1
 90
       50
176
     1
 90
       50
176
     1
290
     0
176
     1
 90
       50
176
     1
 62
   256
176
     0
 40
1.0
176
     0
 90
        2
176
     1
  1
strokes_ogs.tif
176
     1
290
     0
176
     1
 40
1.0
176
     1
 40
1.0
176
     1
  0
VISUALSTYLE
  5
2B
102
{ACAD_REACTORS
330
29
102
}
330
29
100
AcDbVisualStyle
  2
FlatWithEdges
 70
     1
177
     3
291
     1
 70
    58
 90
        2
176
     1
 90
        1
176
     1
 90
        1
176
     1
 90
        2
176
     1
 40
0.6
176
     1
 40
30.0
176
     1
 62
     7
420
 16777215
176
     1
 90
        1
176
     1
 90
        0
176
     1
 62
     7
176
     1
 62
   257
176
     1
 90
        1
176
     1
 90
        1
176
     1
 40
1.0
176
     1
 90
        0
176
     1
 62
   257
176
     1
 40
1.0
176
     1
 90
        1
176
     1
 90
        6
176
     1
 90
        2
176
     1
 62
     7
176
     1
 90
        5
176
     1
 90
        0
176
     1
 90
        0
176
     1
290
     0
176
     1
 90
       13
176
     1
 40
0.0
176
     1
 90
        0
176
     1
290
     0
176
     1
290
     1
176
     1
290
     1
176
     1
290
     0
176
     1
290
     0
176
     1
290
     0
176
     1
290
     0
176
     1
290
     0
176
     1
290
     0
176
     1
 90
       50
176
     1
 40
0.0
176
     1
 40
1.0
176
     1
 90
        0
176
     1
 62
    18
176
     1
 90
       50
176
     1
 90
        3
176
     1
 62
     5
420
      255
176
     1
290
     0
176
     1
 90
       50
176
     1
 90
       50
176
     1
 90
       50
176
     1
290
     0
176
     1
 90
       50
176
     1
 62
   256
176
     0
 40
1.0
176
     0
 90
        2
176
     1
  1
strokes_ogs.tif
176
     1
290
     0
176
     1
 40
1.0
176
     1
 40
1.0
176
     1
  0
VISUALSTYLE
  5
2C
102
{ACAD_REACTORS
330
29
102
}
330
29
100
AcDbVisualStyle
  2
Gouraud
 70
     2
177
     3
291
     1
 70
    58
 90
        2
176
     1
 90
        2
176
     1
 90
        1
176
     1
 90
        2
176
     1
 40
0.6
176
     1
 40
30.0
176
     1
 62
     7
420
 16777215
176
     1
 90
        0
176
     1
 90
        0
176
     1
 62
     7
176
     1
 62
   257
176
     1
 90
        1
176
     1
 90
        1
176
     1
 40
1.0
176
     1
 90
        0
176
     1
 62
     7
176
     1
 40
1.0
176
     1
 90
        1
176
     1
 90
        6
176
     1
 90
        2
176
     1
 62
     7
176
     1
 90
        5
176
     1
 90
        0
176
     1
 90
        0
176
     1
290
     0
176
     1
 90
       13
176
     1
 40
0.0
176
     1
 90
        0
176
     1
290
     0
176
     1
290
     1
176
     1
290
     1
176
     1
290
     0
176
     1
290
     0
176
     1
290
     0
176
     1
290
     0
176
     1
290
     0
176
     1
290
     0
176
     1
 90
       50
176
     1
 40
0.0
176
     1
 40
1.0
176
     1
 90
        0
176
     1
 62
    18
176
     1
 90
       50
176
     1
 90
        3
176
     1
 62
     5
420
      255
176
     1
290
     0
176
     1
 90
       50
176
     1
 90
       50
176
     1
 90
       50
176
     1
290
     0
176
     1
 90
       50
176
     1
 62
   256
176
     0
 40
1.0
176
     0
 90
        2
176
     1
  1
strokes_ogs.tif
176
     1
290
     0
176
     1
 40
1.0
176
     1
 40
1.0
176
     1
  0
VISUALSTYLE
  5
2D
102
{ACAD_REACTORS
330
29
102
}
330
29
100
AcDbVisualStyle
  2
GouraudWithEdges
 70
     3
177
     3
291
     1
 70
    58
 90
        2
176
     1
 90
        2
176
     1
 90
        1
176
     1
 90
        2
176
     1
 40
0.6
176
     1
 40
30.0
176
     1
 62
     7
420
 16777215
176
     1
 90
        1
176
     1
 90
        0
176
     1
 62
     7
176
     1
 62
   257
176
     1
 90
        1
176
     1
 90
        1
176
     1
 40
1.0
176
     1
 90
        0
176
     1
 62
   257
176
     1
 40
1.0
176
     1
 90
        1
176
     1
 90
        6
176
     1
 90
        2
176
     1
 62
     7
176
     1
 90
        5
176
     1
 90
        0
176
     1
 90
        0
176
     1
290
     0
176
     1
 90
       13
176
     1
 40
0.0
176
     1
 90
        0
176
     1
290
     0
176
     1
290
     1
176
     1
290
     1
176
     1
290
     0
176
     1
290
     0
176
     1
290
     0
176
     1
290
     0
176
     1
290
     0
176
     1
290
     0
176
     1
 90
       50
176
     1
 40
0.0
176
     1
 40
1.0
176
     1
 90
        0
176
     1
 62
    18
176
     1
 90
       50
176
     1
 90
        3
176
     1
 62
     5
420
      255
176
     1
290
     0
176
     1
 90
       50
176
     1
 90
       50
176
     1
 90
       50
176
     1
290
     0
176
     1
 90
       50
176
     1
 62
   256
176
     0
 40
1.0
176
     0
 90
        2
176
     1
  1
strokes_ogs.tif
176
     1
290
     0
176
     1
 40
1.0
176
     1
 40
1.0
176
     1
  0
VISUALSTYLE
  5
31
102
{ACAD_REACTORS
330
29
102
}
330
29
100
AcDbVisualStyle
  2
Hidden
 70
     6
177
     3
291
     0
 70
    58
 90
        1
176
     1
 90
        2
176
     1
 90
        2
176
     1
 90
        0
176
     1
 40
0.6
176
     1
 40
30.0
176
     1
 62
     7
420
 16777215
176
     1
 90
        2
176
     1
 90
        2
176
     1
 62
     7
176
     1
 62
   257
176
     1
 90
        2
176
     1
 90
        1
176
     1
 40
40.0
176
     1
 90
        0
176
     1
 62
   257
176
     1
 40
1.0
176
     1
 90
        1
176
     1
 90
        6
176
     1
 90
        2
176
     1
 62
     7
176
     1
 90
        3
176
     1
 90
        0
176
     1
 90
        0
176
     1
290
     0
176
     1
 90
        1
176
     1
 40
0.0
176
     1
 90
        0
176
     1
290
     0
176
     1
290
     1
176
     1
290
     1
176
     1
290
     0
176
     1
290
     0
176
     1
290
     0
176
     1
290
     0
176
     1
290
     0
176
     1
290
     0
176
     1
 90
       50
176
     1
 40
0.0
176
     1
 40
1.0
176
     1
 90
        0
176
     1
 62
    18
176
     1
 90
       50
176
     1
 90
        3
176
     1
 62
     5
420
      255
176
     1
290
     0
176
     1
 90
       50
176
     1
 90
       50
176
     1
 90
       50
176
     1
290
     0
176
     1
 90
       50
176
     1
 62
   256
176
     0
 40
1.0
176
     0
 90
        2
176
     1
  1
strokes_ogs.tif
176
     1
290
     0
176
     1
 40
1.0
176
     1
 40
1.0
176
     1
  0
VISUALSTYLE
  5
3F
102
{ACAD_REACTORS
330
29
102
}
330
29
100
AcDbVisualStyle
  2
JitterOff
 70
    20
177
     3
291
     1
 70
    58
 90
        2
176
     0
 90
        2
176
     0
 90
        0
176
     0
 90
        0
176
     0
 40
0.6
176
     0
 40
30.0
176
     0
 62
     7
420
 16777215
176
     0
 90
        1
176
     0
 90
        4
176
     0
 62
     7
176
     0
 62
   257
176
     0
 90
        1
176
     0
 90
        1
176
     0
 40
1.0
176
     0
 90
       10
176
     2
 62
     7
176
     0
 40
1.0
176
     0
 90
        1
176
     0
 90
        6
176
     0
 90
        2
176
     0
 62
     7
176
     0
 90
        5
176
     0
 90
        0
176
     0
 90
        0
176
     0
290
     0
176
     0
 90
        1
176
     0
 40
0.0
176
     0
 90
        0
176
     0
290
     0
176
     1
290
     1
176
     1
290
     1
176
     1
290
     0
176
     1
290
     0
176
     1
290
     0
176
     1
290
     0
176
     1
290
     0
176
     1
290
     0
176
     1
 90
       50
176
     0
 40
0.0
176
     0
 40
1.0
176
     0
 90
        0
176
     0
 62
    18
176
     0
 90
       50
176
     0
 90
        3
176
     0
 62
     5
420
      255
176
     0
290
     0
176
     1
 90
       50
176
     0
 90
       50
176
     0
 90
       50
176
     0
290
     0
176
     1
 90
       50
176
     0
 62
   256
176
     0
 40
1.0
176
     0
 90
        2
176
     0
  1
strokes_ogs.tif
176
     0
290
     0
176
     1
 40
1.0
176
     0
 40
1.0
176
     0
  0
VISUALSTYLE
  5
37
102
{ACAD_REACTORS
330
29
102
}
330
29
100
AcDbVisualStyle
  2
Linepattern
 70
    14
177
     3
291
     1
 70
    58
 90
        2
176
     1
 90
        2
176
     1
 90
        0
176
     1
 90
        0
176
     1
 40
0.6
176
     1
 40
30.0
176
     1
 62
     7
420
 16777215
176
     1
 90
        1
176
     1
 90
        4
176
     1
 62
     7
176
     1
 62
   257
176
     1
 90
        7
176
     1
 90
        7
176
     1
 40
1.0
176
     1
 90
        8
176
     1
 62
     7
176
     1
 40
1.0
176
     1
 90
        1
176
     1
 90
        6
176
     1
 90
        2
176
     1
 62
     7
176
     1
 90
        5
176
     1
 90
        0
176
     1
 90
        0
176
     1
290
     0
176
     1
 90
        1
176
     1
 40
0.0
176
     1
 90
        0
176
     1
290
     0
176
     1
290
     1
176
     1
290
     1
176
     1
290
     0
176
     1
290
     0
176
     1
290
     0
176
     1
290
     0
176
     1
290
     0
176
     1
290
     0
176
     1
 90
       50
176
     1
 40
0.0
176
     1
 40
1.0
176
     1
 90
        0
176
     1
 62
    18
176
     1
 90
       50
176
     1
 90
        3
176
     1
 62
     5
420
      255
176
     1
290
     0
176
     1
 90
       50
176
     1
 90
       50
176
     1
 90
       50
176
     1
290
     0
176
     1
 90
       50
176
     1
 62
   256
176
     0
 40
1.0
176
     0
 90
        2
176
     1
  1
strokes_ogs.tif
176
     1
290
     0
176
     1
 40
1.0
176
     1
 40
1.0
176
     1
  0
VISUALSTYLE
  5
40
102
{ACAD_REACTORS
330
29
102
}
330
29
100
AcDbVisualStyle
  2
OverhangOff
 70
    21
177
     3
291
     1
 70
    58
 90
        2
176
     0
 90
        2
176
     0
 90
        0
176
     0
 90
        0
176
     0
 40
0.6
176
     0
 40
30.0
176
     0
 62
     7
420
 16777215
176
     0
 90
        1
176
     0
 90
        4
176
     0
 62
     7
176
     0
 62
   257
176
     0
 90
        1
176
     0
 90
        1
176
     0
 40
1.0
176
     0
 90
        9
176
     2
 62
     7
176
     0
 40
1.0
176
     0
 90
        1
176
     0
 90
        6
176
     0
 90
        2
176
     0
 62
     7
176
     0
 90
        5
176
     0
 90
        0
176
     0
 90
        0
176
     0
290
     0
176
     0
 90
        1
176
     0
 40
0.0
176
     0
 90
        0
176
     0
290
     0
176
     1
290
     1
176
     1
290
     1
176
     1
290
     0
176
     1
290
     0
176
     1
290
     0
176
     1
290
     0
176
     1
290
     0
176
     1
290
     0
176
     1
 90
       50
176
     0
 40
0.0
176
     0
 40
1.0
176
     0
 90
        0
176
     0
 62
    18
176
     0
 90
       50
176
     0
 90
        3
176
     0
 62
     5
420
      255
176
     0
290
     0
176
     1
 90
       50
176
     0
 90
       50
176
     0
 90
       50
176
     0
290
     0
176
     1
 90
       50
176
     0
 62
   256
176
     0
 40
1.0
176
     0
 90
        2
176
     0
  1
strokes_ogs.tif
176
     0
290
     0
176
     1
 40
1.0
176
     0
 40
1.0
176
     0
  0
VISUALSTYLE
  5
33
102
{ACAD_REACTORS
330
29
102
}
330
29
100
AcDbVisualStyle
  2
Realistic
 70
     8
177
     3
291
     0
 70
    58
 90
        2
176
     1
 90
        3
176
     1
 90
        0
176
     1
 90
        2
176
     1
 40
0.6
176
     1
 40
30.0
176
     1
 62
     7
420
 16777215
176
     1
 90
        0
176
     1
 90
        0
176
     1
 62
     7
176
     1
 62
   257
176
     1
 90
        1
176
     1
 90
        1
176
     1
 40
1.0
176
     1
 90
        8
176
     1
 62
   257
176
     1
 40
1.0
176
     1
 90
        1
176
     1
 90
        6
176
     1
 90
        2
176
     1
 62
     7
176
     1
 90
        3
176
     1
 90
        0
176
     1
 90
        0
176
     1
290
     0
176
     1
 90
       13
176
     1
 40
0.0
176
     1
 90
        0
176
     1
290
     0
176
     1
290
     1
176
     1
290
     1
176
     1
290
     0
176
     1
290
     0
176
     1
290
     0
176
     1
290
     0
176
     1
290
     0
176
     1
290
     0
176
     1
 90
       50
176
     1
 40
0.0
176
     1
 40
1.0
176
     1
 90
        0
176
     1
 62
    18
176
     1
 90
       50
176
     1
 90
        3
176
     1
 62
     5
420
      255
176
     1
290
     0
176
     1
 90
       50
176
     1
 90
       50
176
     1
 90
       50
176
     1
290
     0
176
     1
 90
       50
176
     1
 62
   256
176
     0
 40
1.0
176
     0
 90
        2
176
     1
  1
strokes_ogs.tif
176
     1
290
     0
176
     1
 40
1.0
176
     1
 40
1.0
176
     1
  0
VISUALSTYLE
  5
3E
102
{ACAD_REACTORS
330
29
102
}
330
29
100
AcDbVisualStyle
  2
Shaded
 70
    27
177
     3
291
     0
 70
    58
 90
        2
176
     1
 90
        2
176
     1
 90
        1
176
     1
 90
        2
176
     1
 40
0.6
176
     1
 40
30.0
176
     1
 62
     7
420
 16777215
176
     1
 90
        0
176
     1
 90
        4
176
     1
 62
     7
176
     1
 62
   257
176
     1
 90
        1
176
     1
 90
        1
176
     1
 40
1.0
176
     1
 90
        8
176
     1
 62
   257
176
     1
 40
1.0
176
     1
 90
        1
176
     1
 90
        6
176
     1
 90
        2
176
     1
 62
     8
420
  7895160
176
     1
 90
        3
176
     1
 90
        0
176
     1
 90
        0
176
     1
290
     0
176
     1
 90
        5
176
     1
 40
0.0
176
     1
 90
        0
176
     1
290
     0
176
     1
290
     1
176
     1
290
     1
176
     1
290
     0
176
     1
290
     0
176
     1
290
     0
176
     1
290
     0
176
     1
290
     0
176
     1
290
     0
176
     1
 90
       50
176
     1
 40
0.0
176
     1
 40
1.0
176
     1
 90
        0
176
     1
 62
    18
176
     1
 90
       50
176
     1
 90
        3
176
     1
 62
     5
420
      255
176
     1
290
     0
176
     1
 90
       50
176
     1
 90
       50
176
     1
 90
       50
176
     1
290
     0
176
     1
 90
       50
176
     1
 62
   256
176
     0
 40
1.0
176
     0
 90
        2
176
     1
  1
strokes_ogs.tif
176
     1
290
     0
176
     1
 40
1.0
176
     1
 40
1.0
176
     1
  0
VISUALSTYLE
  5
3D
102
{ACAD_REACTORS
330
29
102
}
330
29
100
AcDbVisualStyle
  2
Shaded with edges
 70
    26
177
     3
291
     0
 70
    58
 90
        2
176
     1
 90
        2
176
     1
 90
        1
176
     1
 90
        2
176
     1
 40
0.6
176
     1
 40
30.0
176
     1
 62
     7
420
 16777215
176
     1
 90
        1
176
     1
 90
        2
176
     1
 62
     7
176
     1
 62
   257
176
     1
 90
        2
176
     1
 90
        1
176
     1
 40
1.0
176
     1
 90
        8
176
     1
 62
   257
176
     1
 40
1.0
176
     1
 90
        1
176
     1
 90
        6
176
     1
 90
        2
176
     1
 62
     7
176
     1
 90
        3
176
     1
 90
        0
176
     1
 90
        0
176
     1
290
     0
176
     1
 90
        5
176
     1
 40
0.0
176
     1
 90
        0
176
     1
290
     0
176
     1
290
     1
176
     1
290
     1
176
     1
290
     0
176
     1
290
     0
176
     1
290
     0
176
     1
290
     0
176
     1
290
     0
176
     1
290
     0
176
     1
 90
       50
176
     1
 40
0.0
176
     1
 40
1.0
176
     1
 90
        0
176
     1
 62
    18
176
     1
 90
       50
176
     1
 90
        3
176
     1
 62
     5
420
      255
176
     1
290
     0
176
     1
 90
       50
176
     1
 90
       50
176
     1
 90
       50
176
     1
290
     0
176
     1
 90
       50
176
     1
 62
   256
176
     0
 40
1.0
176
     0
 90
        2
176
     1
  1
strokes_ogs.tif
176
     1
290
     0
176
     1
 40
1.0
176
     1
 40
1.0
176
     1
  0
VISUALSTYLE
  5
3A
102
{ACAD_REACTORS
330
29
102
}
330
29
100
AcDbVisualStyle
  2
Shades of Gray
 70
    23
177
     3
291
     0
 70
    58
 90
        2
176
     1
 90
        2
176
     1
 90
        3
176
     1
 90
        0
176
     1
 40
0.6
176
     1
 40
30.0
176
     1
 62
     7
420
 16777215
176
     1
 90
        2
176
     1
 90
        2
176
     1
 62
     7
176
     1
 62
     7
176
     1
 90
        1
176
     1
 90
        1
176
     1
 40
40.0
176
     1
 90
        8
176
     1
 62
     7
176
     1
 40
1.0
176
     1
 90
        1
176
     1
 90
        6
176
     1
 90
        2
176
     1
 62
     7
176
     1
 90
        3
176
     1
 90
        0
176
     1
 90
        0
176
     1
290
     0
176
     1
 90
        1
176
     1
 40
0.0
176
     1
 90
        0
176
     1
290
     0
176
     1
290
     1
176
     1
290
     1
176
     1
290
     0
176
     1
290
     0
176
     1
290
     0
176
     1
290
     0
176
     1
290
     0
176
     1
290
     0
176
     1
 90
       50
176
     1
 40
0.0
176
     1
 40
1.0
176
     1
 90
        0
176
     1
 62
    18
176
     1
 90
       50
176
     1
 90
        3
176
     1
 62
     5
420
      255
176
     1
290
     0
176
     1
 90
       50
176
     1
 90
       50
176
     1
 90
       50
176
     1
290
     0
176
     1
 90
       50
176
     1
 62
   256
176
     0
 40
1.0
176
     0
 90
        2
176
     1
  1
strokes_ogs.tif
176
     1
290
     0
176
     1
 40
1.0
176
     1
 40
1.0
176
     1
  0
VISUALSTYLE
  5
3B
102
{ACAD_REACTORS
330
29
102
}
330
29
100
AcDbVisualStyle
  2
Sketchy
 70
    24
177
     3
291
     0
 70
    58
 90
        1
176
     1
 90
        2
176
     1
 90
        2
176
     1
 90
        0
176
     1
 40
0.6
176
     1
 40
30.0
176
     1
 62
     7
420
 16777215
176
     1
 90
        2
176
     1
 90
        2
176
     1
 62
     7
176
     1
 62
     7
176
     1
 90
        1
176
     1
 90
        1
176
     1
 40
40.0
176
     1
 90
       11
176
     1
 62
     7
176
     1
 40
1.0
176
     1
 90
        1
176
     1
 90
        6
176
     1
 90
        2
176
     1
 62
     7
176
     1
 90
        6
176
     1
 90
        0
176
     1
 90
        0
176
     1
290
     0
176
     1
 90
        1
176
     1
 40
0.0
176
     1
 90
        0
176
     1
290
     0
176
     1
290
     1
176
     1
290
     1
176
     1
290
     0
176
     1
290
     0
176
     1
290
     0
176
     1
290
     0
176
     1
290
     0
176
     1
290
     0
176
     1
 90
       50
176
     1
 40
0.0
176
     1
 40
1.0
176
     1
 90
        0
176
     1
 62
    18
176
     1
 90
       50
176
     1
 90
        3
176
     1
 62
     5
420
      255
176
     1
290
     0
176
     1
 90
       50
176
     1
 90
       50
176
     1
 90
       50
176
     1
290
     0
176
     1
 90
       50
176
     1
 62
   256
176
     0
 40
1.0
176
     0
 90
        2
176
     1
  1
strokes_ogs.tif
176
     1
290
     0
176
     1
 40
1.0
176
     1
 40
1.0
176
     1
  0
VISUALSTYLE
  5
36
102
{ACAD_REACTORS
330
29
102
}
330
29
100
AcDbVisualStyle
  2
Thicken
 70
    13
177
     3
291
     1
 70
    58
 90
        2
176
     1
 90
        2
176
     1
 90
        0
176
     1
 90
        0
176
     1
 40
0.6
176
     1
 40
30.0
176
     1
 62
     7
420
 16777215
176
     1
 90
        1
176
     1
 90
        4
176
     1
 62
     7
176
     1
 62
   257
176
     1
 90
        1
176
     1
 90
        1
176
     1
 40
1.0
176
     1
 90
       12
176
     1
 62
     7
176
     1
 40
1.0
176
     1
 90
        1
176
     1
 90
        6
176
     1
 90
        2
176
     1
 62
     7
176
     1
 90
        5
176
     1
 90
        0
176
     1
 90
        0
176
     1
290
     0
176
     1
 90
        1
176
     1
 40
0.0
176
     1
 90
        0
176
     1
290
     0
176
     1
290
     1
176
     1
290
     1
176
     1
290
     0
176
     1
290
     0
176
     1
290
     0
176
     1
290
     0
176
     1
290
     0
176
     1
290
     0
176
     1
 90
       50
176
     1
 40
0.0
176
     1
 40
1.0
176
     1
 90
        0
176
     1
 62
    18
176
     1
 90
       50
176
     1
 90
        3
176
     1
 62
     5
420
      255
176
     1
290
     0
176
     1
 90
       50
176
     1
 90
       50
176
     1
 90
       50
176
     1
290
     0
176
     1
 90
       50
176
     1
 62
   256
176
     0
 40
1.0
176
     0
 90
        2
176
     1
  1
strokes_ogs.tif
176
     1
290
     0
176
     1
 40
1.0
176
     1
 40
1.0
176
     1
  0
VISUALSTYLE
  5
30
102
{ACAD_REACTORS
330
29
102
}
330
29
100
AcDbVisualStyle
  2
Wireframe
 70
     5
177
     3
291
     0
 70
    58
 90
        0
176
     1
 90
        2
176
     1
 90
        0
176
     1
 90
        0
176
     1
 40
0.6
176
     1
 40
30.0
176
     1
 62
     7
420
 16777215
176
     1
 90
        1
176
     1
 90
        4
176
     1
 62
     7
176
     1
 62
   257
176
     1
 90
        1
176
     1
 90
        1
176
     1
 40
1.0
176
     1
 90
        0
176
     1
 62
   257
176
     1
 40
1.0
176
     1
 90
        1
176
     1
 90
        6
176
     1
 90
        2
176
     1
 62
     7
176
     1
 90
        3
176
     1
 90
        0
176
     1
 90
        0
176
     1
290
     0
176
     1
 90
        1
176
     1
 40
0.0
176
     1
 90
        0
176
     1
290
     0
176
     1
290
     1
176
     1
290
     1
176
     1
290
     0
176
     1
290
     0
176
     1
290
     0
176
     1
290
     0
176
     1
290
     0
176
     1
290
     0
176
     1
 90
       50
176
     1
 40
0.0
176
     1
 40
1.0
176
     1
 90
        0
176
     1
 62
    18
176
     1
 90
       50
176
     1
 90
        3
176
     1
 62
     5
420
      255
176
     1
290
     0
176
     1
 90
       50
176
     1
 90
       50
176
     1
 90
       50
176
     1
290
     0
176
     1
 90
       50
176
     1
 62
   256
176
     0
 40
1.0
176
     0
 90
        2
176
     1
  1
strokes_ogs.tif
176
     1
290
     0
176
     1
 40
1.0
176
     1
 40
1.0
176
     1
  0
VISUALSTYLE
  5
3C
102
{ACAD_REACTORS
330
29
102
}
330
29
100
AcDbVisualStyle
  2
X-Ray
 70
    25
177
     3
291
     0
 70
    58
 90
        2
176
     1
 90
        2
176
     1
 90
        1
176
     1
 90
        1
176
     1
 40
0.5
176
     1
 40
30.0
176
     1
 62
     7
420
 16777215
176
     1
 90
        1
176
     1
 90
        0
176
     1
 62
     7
176
     1
 62
   257
176
     1
 90
        1
176
     1
 90
        1
176
     1
 40
1.0
176
     1
 90
        8
176
     1
 62
     7
176
     1
 40
1.0
176
     1
 90
        1
176
     1
 90
        6
176
     1
 90
        2
176
     1
 62
     7
176
     1
 90
        3
176
     1
 90
        0
176
     1
 90
        0
176
     1
290
     0
176
     1
 90
       13
176
     1
 40
0.0
176
     1
 90
        0
176
     1
290
     0
176
     1
290
     1
176
     1
290
     1
176
     1
290
     0
176
     1
290
     0
176
     1
290
     0
176
     1
290
     0
176
     1
290
     0
176
     1
290
     0
176
     1
 90
       50
176
     1
 40
0.0
176
     1
 40
1.0
176
     1
 90
        0
176
     1
 62
    18
176
     1
 90
       50
176
     1
 90
        3
176
     1
 62
     5
420
      255
176
     1
290
     0
176
     1
 90
       50
176
     1
 90
       50
176
     1
 90
       50
176
     1
290
     0
176
     1
 90
       50
176
     1
 62
   256
176
     0
 40
1.0
176
     0
 90
        2
176
     1
  1
strokes_ogs.tif
176
     1
290
     0
176
     1
 40
1.0
176
     1
 40
1.0
176
     1
  0
DICTIONARYVAR
  5
1AC0
102
{ACAD_REACTORS
330
1ABA
102
}
330
1ABA
100
DictionaryVariables
280
     0
  1
1:1
  0
DICTIONARYVAR
  5
1ABC
102
{ACAD_REACTORS
330
1ABA
102
}
330
1ABA
100
DictionaryVariables
280
     0
  1
STANDARD
  0
DICTIONARYVAR
  5
1ABB
102
{ACAD_REACTORS
330
1ABA
102
}
330
1ABA
100
DictionaryVariables
280
     0
  1
STANDARD
  0
DICTIONARYVAR
  5
1ABD
102
{ACAD_REACTORS
330
1ABA
102
}
330
1ABA
100
DictionaryVariables
280
     0
  1
Imperial24
  0
DICTIONARYVAR
  5
1ABE
102
{ACAD_REACTORS
330
1ABA
102
}
330
1ABA
100
DictionaryVariables
280
     0
  1
Imperial24
  0
DICTIONARYVAR
  5
1AC2
102
{ACAD_REACTORS
330
1ABA
102
}
330
1ABA
100
DictionaryVariables
280
     0
  1
1
  0
DICTIONARYVAR
  5
1AC3
102
{ACAD_REACTORS
330
1ABA
102
}
330
1ABA
100
DictionaryVariables
280
     0
  1
15
  0
DICTIONARYVAR
  5
1AC1
102
{ACAD_REACTORS
330
1ABA
102
}
330
1ABA
100
DictionaryVariables
280
     0
  1
0
  0
DICTIONARYVAR
  5
1ABF
102
{ACAD_REACTORS
330
1ABA
102
}
330
1ABA
100
DictionaryVariables
280
     0
  1
0
  0
DICTIONARY
  5
1A
330
19
100
AcDbDictionary
280
     1
281
     1
  3
BUMPTILE
360
1C
  3
DIFFUSETILE
360
1B
  3
OPACITYTILE
360
1F
  3
REFLECTIONTILE
360
1E
  3
REFRACTIONTILE
360
20
  3
SPECULARTILE
360
1D
  0
DICTIONARY
  5
12
330
11
100
AcDbDictionary
280
     1
281
     1
  3
BUMPTILE
360
14
  3
DIFFUSETILE
360
13
  3
OPACITYTILE
360
17
  3
REFLECTIONTILE
360
16
  3
REFRACTIONTILE
360
18
  3
SPECULARTILE
360
15
  0
DICTIONARY
  5
22
330
21
100
AcDbDictionary
280
     1
281
     1
  3
BUMPTILE
360
24
  3
DIFFUSETILE
360
23
  3
OPACITYTILE
360
27
  3
REFLECTIONTILE
360
26
  3
REFRACTIONTILE
360
28
  3
SPECULARTILE
360
25
  0
DICTIONARY
  5
1AC5
330
64
100
AcDbDictionary
280
     1
281
     1
  3
ACAD_ROUNDTRIP_2008_TABLESTYLE_CELLSTYLEMAP
360
1AEB
  0
XRECORD
  5
1C
102
{ACAD_REACTORS
330
1A
102
}
330
1A
100
AcDbXrecord
280
     1
270
     1
271
     1
  0
XRECORD
  5
1B
102
{ACAD_REACTORS
330
1A
102
}
330
1A
100
AcDbXrecord
280
     1
270
     1
271
     1
  0
XRECORD
  5
1F
102
{ACAD_REACTORS
330
1A
102
}
330
1A
100
AcDbXrecord
280
     1
270
     1
271
     1
  0
XRECORD
  5
1E
102
{ACAD_REACTORS
330
1A
102
}
330
1A
100
AcDbXrecord
280
     1
270
     1
271
     1
  0
XRECORD
  5
20
102
{ACAD_REACTORS
330
1A
102
}
330
1A
100
AcDbXrecord
280
     1
270
     1
271
     1
  0
XRECORD
  5
1D
102
{ACAD_REACTORS
330
1A
102
}
330
1A
100
AcDbXrecord
280
     1
270
     1
271
     1
  0
XRECORD
  5
14
102
{ACAD_REACTORS
330
12
102
}
330
12
100
AcDbXrecord
280
     1
270
     1
271
     1
  0
XRECORD
  5
13
102
{ACAD_REACTORS
330
12
102
}
330
12
100
AcDbXrecord
280
     1
270
     1
271
     1
  0
XRECORD
  5
17
102
{ACAD_REACTORS
330
12
102
}
330
12
100
AcDbXrecord
280
     1
270
     1
271
     1
  0
XRECORD
  5
16
102
{ACAD_REACTORS
330
12
102
}
330
12
100
AcDbXrecord
280
     1
270
     1
271
     1
  0
XRECORD
  5
18
102
{ACAD_REACTORS
330
12
102
}
330
12
100
AcDbXrecord
280
     1
270
     1
271
     1
  0
XRECORD
  5
15
102
{ACAD_REACTORS
330
12
102
}
330
12
100
AcDbXrecord
280
     1
270
     1
271
     1
  0
XRECORD
  5
24
102
{ACAD_REACTORS
330
22
102
}
330
22
100
AcDbXrecord
280
     1
270
     1
271
     1
  0
XRECORD
  5
23
102
{ACAD_REACTORS
330
22
102
}
330
22
100
AcDbXrecord
280
     1
270
     1
271
     1
  0
XRECORD
  5
27
102
{ACAD_REACTORS
330
22
102
}
330
22
100
AcDbXrecord
280
     1
270
     1
271
     1
  0
XRECORD
  5
26
102
{ACAD_REACTORS
330
22
102
}
330
22
100
AcDbXrecord
280
     1
270
     1
271
     1
  0
XRECORD
  5
28
102
{ACAD_REACTORS
330
22
102
}
330
22
100
AcDbXrecord
280
     1
270
     1
271
     1
  0
XRECORD
  5
25
102
{ACAD_REACTORS
330
22
102
}
330
22
100
AcDbXrecord
280
     1
270
     1
271
     1
  0
CELLSTYLEMAP
  5
1AEB
102
{ACAD_REACTORS
330
1AC5
102
}
330
1AC5
100
AcDbCellStyleMap
 90
        3
300
CELLSTYLE
  1
TABLEFORMAT_BEGIN
 90
        5
170
     1
 91
        0
 92
    32768
 62
   257
 93
        1
300
CONTENTFORMAT
  1
CONTENTFORMAT_BEGIN
 90
        0
 91
        0
 92
      512
 93
        0
300

 40
0.0
140
1.0
 94
        5
 62
     0
340
55
144
0.25
309
CONTENTFORMAT_END
171
     1
301
MARGIN
  1
CELLMARGIN_BEGIN
 40
0.06
 40
0.06
 40
0.06
 40
0.06
 40
0.18
 40
0.18
309
CELLMARGIN_END
 94
        6
 95
        1
302
GRIDFORMAT
  1
GRIDFORMAT_BEGIN
 90
        0
 91
        1
 62
     0
 92
       -2
340
0
 93
        0
 40
0.045
309
GRIDFORMAT_END
 95
        2
302
GRIDFORMAT
  1
GRIDFORMAT_BEGIN
 90
        0
 91
        1
 62
     0
 92
       -2
340
0
 93
        0
 40
0.045
309
GRIDFORMAT_END
 95
        4
302
GRIDFORMAT
  1
GRIDFORMAT_BEGIN
 90
        0
 91
        1
 62
     0
 92
       -2
340
0
 93
        0
 40
0.045
309
GRIDFORMAT_END
 95
        8
302
GRIDFORMAT
  1
GRIDFORMAT_BEGIN
 90
        0
 91
        1
 62
     0
 92
       -2
340
0
 93
        0
 40
0.045
309
GRIDFORMAT_END
 95
       16
302
GRIDFORMAT
  1
GRIDFORMAT_BEGIN
 90
        0
 91
        1
 62
     0
 92
       -2
340
0
 93
        0
 40
0.045
309
GRIDFORMAT_END
 95
       32
302
GRIDFORMAT
  1
GRIDFORMAT_BEGIN
 90
        0
 91
        1
 62
     0
 92
       -2
340
0
 93
        0
 40
0.045
309
GRIDFORMAT_END
309
TABLEFORMAT_END
  1
CELLSTYLE_BEGIN
 90
        1
 91
        1
300
_TITLE
309
CELLSTYLE_END
300
CELLSTYLE
  1
TABLEFORMAT_BEGIN
 90
        5
170
     1
 91
        0
 92
        0
 62
   257
 93
        1
300
CONTENTFORMAT
  1
CONTENTFORMAT_BEGIN
 90
        0
 91
        0
 92
      512
 93
        0
300

 40
0.0
140
1.0
 94
        5
 62
     0
340
55
144
0.18
309
CONTENTFORMAT_END
171
     1
301
MARGIN
  1
CELLMARGIN_BEGIN
 40
0.06
 40
0.06
 40
0.06
 40
0.06
 40
0.18
 40
0.18
309
CELLMARGIN_END
 94
        6
 95
        1
302
GRIDFORMAT
  1
GRIDFORMAT_BEGIN
 90
        0
 91
        1
 62
     0
 92
       -2
340
0
 93
        0
 40
0.045
309
GRIDFORMAT_END
 95
        2
302
GRIDFORMAT
  1
GRIDFORMAT_BEGIN
 90
        0
 91
        1
 62
     0
 92
       -2
340
0
 93
        0
 40
0.045
309
GRIDFORMAT_END
 95
        4
302
GRIDFORMAT
  1
GRIDFORMAT_BEGIN
 90
        0
 91
        1
 62
     0
 92
       -2
340
0
 93
        0
 40
0.045
309
GRIDFORMAT_END
 95
        8
302
GRIDFORMAT
  1
GRIDFORMAT_BEGIN
 90
        0
 91
        1
 62
     0
 92
       -2
340
0
 93
        0
 40
0.045
309
GRIDFORMAT_END
 95
       16
302
GRIDFORMAT
  1
GRIDFORMAT_BEGIN
 90
        0
 91
        1
 62
     0
 92
       -2
340
0
 93
        0
 40
0.045
309
GRIDFORMAT_END
 95
       32
302
GRIDFORMAT
  1
GRIDFORMAT_BEGIN
 90
        0
 91
        1
 62
     0
 92
       -2
340
0
 93
        0
 40
0.045
309
GRIDFORMAT_END
309
TABLEFORMAT_END
  1
CELLSTYLE_BEGIN
 90
        2
 91
        1
300
_HEADER
309
CELLSTYLE_END
300
CELLSTYLE
  1
TABLEFORMAT_BEGIN
 90
        5
170
     1
 91
        0
 92
        0
 62
   257
 93
        1
300
CONTENTFORMAT
  1
CONTENTFORMAT_BEGIN
 90
        0
 91
        0
 92
      512
 93
        0
300

 40
0.0
140
1.0
 94
        2
 62
     0
340
55
144
0.18
309
CONTENTFORMAT_END
171
     1
301
MARGIN
  1
CELLMARGIN_BEGIN
 40
0.06
 40
0.06
 40
0.06
 40
0.06
 40
0.18
 40
0.18
309
CELLMARGIN_END
 94
        6
 95
        1
302
GRIDFORMAT
  1
GRIDFORMAT_BEGIN
 90
        0
 91
        1
 62
     0
 92
       -2
340
0
 93
        0
 40
0.045
309
GRIDFORMAT_END
 95
        2
302
GRIDFORMAT
  1
GRIDFORMAT_BEGIN
 90
        0
 91
        1
 62
     0
 92
       -2
340
0
 93
        0
 40
0.045
309
GRIDFORMAT_END
 95
        4
302
GRIDFORMAT
  1
GRIDFORMAT_BEGIN
 90
        0
 91
        1
 62
     0
 92
       -2
340
0
 93
        0
 40
0.045
309
GRIDFORMAT_END
 95
        8
302
GRIDFORMAT
  1
GRIDFORMAT_BEGIN
 90
        0
 91
        1
 62
     0
 92
       -2
340
0
 93
        0
 40
0.045
309
GRIDFORMAT_END
 95
       16
302
GRIDFORMAT
  1
GRIDFORMAT_BEGIN
 90
        0
 91
        1
 62
     0
 92
       -2
340
0
 93
        0
 40
0.045
309
GRIDFORMAT_END
 95
       32
302
GRIDFORMAT
  1
GRIDFORMAT_BEGIN
 90
        0
 91
        1
 62
     0
 92
       -2
340
0
 93
        0
 40
0.045
309
GRIDFORMAT_END
309
TABLEFORMAT_END
  1
CELLSTYLE_BEGIN
 90
        3
 91
        2
300
_DATA
309
CELLSTYLE_END
  0
ENDSEC
  0
EOF
