  0
SECTION
  2
HEADER
  9
$ACADVER
  1
AC1032
  9
$ACADMAINTVER
 90
       73
  9
$DWGCODEPAGE
  3
ANSI_1252
  9
$LASTSAVEDBY
  1
Eton
  9
$REQUIREDVERSIONS
160
                 0
  9
$INSBASE
 10
0.0
 20
0.0
 30
0.0
  9
$EXTMIN
 10
-85.10833333333334
 20
42.63021063423383
 30
0.0
  9
$EXTMAX
 10
-76.23333333333333
 20
48.89595968934187
 30
0.0
  9
$LIMMIN
 10
0.0
 20
0.0
  9
$LIMMAX
 10
12.0
 20
9.0
  9
$ORTHOMODE
 70
     0
  9
$REGENMODE
 70
     1
  9
$FILLMODE
 70
     1
  9
$QTEXTMODE
 70
     0
  9
$MIRRTEXT
 70
     0
  9
$LTSCALE
 40
1.0
  9
$ATTMODE
 70
     1
  9
$TEXTSIZE
 40
0.006
  9
$TRACEWID
 40
0.05
  9
$TEXTSTYLE
  7
STANDARD
  9
$CLAYER
  8
0
  9
$CELTYPE
  6
ByLayer
  9
$CECOLOR
 62
   256
  9
$CELTSCALE
 40
1.0
  9
$DISPSILH
 70
     0
  9
$DIMSCALE
 40
1.0
  9
$DIMASZ
 40
0.18
  9
$DIMEXO
 40
0.0625
  9
$DIMDLI
 40
0.38
  9
$DIMRND
 40
0.0
  9
$DIMDLE
 40
0.0
  9
$DIMEXE
 40
0.18
  9
$DIMTP
 40
0.0
  9
$DIMTM
 40
0.0
  9
$DIMTXT
 40
0.18
  9
$DIMCEN
 40
0.09
  9
$DIMTSZ
 40
0.0
  9
$DIMTOL
 70
     0
  9
$DIMLIM
 70
     0
  9
$DIMTIH
 70
     1
  9
$DIMTOH
 70
     1
  9
$DIMSE1
 70
     0
  9
$DIMSE2
 70
     0
  9
$DIMTAD
 70
     0
  9
$DIMZIN
 70
     0
  9
$DIMBLK
  1

  9
$DIMASO
 70
     1
  9
$DIMSHO
 70
     1
  9
$DIMPOST
  1

  9
$DIMAPOST
  1

  9
$DIMALT
 70
     0
  9
$DIMALTD
 70
     2
  9
$DIMALTF
 40
25.4
  9
$DIMLFAC
 40
1.0
  9
$DIMTOFL
 70
     0
  9
$DIMTVP
 40
0.0
  9
$DIMTIX
 70
     0
  9
$DIMSOXD
 70
     0
  9
$DIMSAH
 70
     0
  9
$DIMBLK1
  1

  9
$DIMBLK2
  1

  9
$DIMSTYLE
  2
Standard
  9
$DIMCLRD
 70
     0
  9
$DIMCLRE
 70
     0
  9
$DIMCLRT
 70
     0
  9
$DIMTFAC
 40
1.0
  9
$DIMGAP
 40
0.09
  9
$DIMJUST
 70
     0
  9
$DIMSD1
 70
     0
  9
$DIMSD2
 70
     0
  9
$DIMTOLJ
 70
     1
  9
$DIMTZIN
 70
     0
  9
$DIMALTZ
 70
     0
  9
$DIMALTTZ
 70
     0
  9
$DIMUPT
 70
     0
  9
$DIMDEC
 70
     4
  9
$DIMTDEC
 70
     4
  9
$DIMALTU
 70
     2
  9
$DIMALTTD
 70
     2
  9
$DIMTXSTY
  7
STANDARD
  9
$DIMAUNIT
 70
     0
  9
$DIMADEC
 70
     0
  9
$DIMALTRND
 40
0.0
  9
$DIMAZIN
 70
     0
  9
$DIMDSEP
 70
    46
  9
$DIMATFIT
 70
     3
  9
$DIMFRAC
 70
     0
  9
$DIMLDRBLK
  1

  9
$DIMLUNIT
 70
     2
  9
$DIMLWD
 70
    -2
  9
$DIMLWE
 70
    -2
  9
$DIMTMOVE
 70
     0
  9
$DIMFXL
 40
1.0
  9
$DIMFXLON
 70
     0
  9
$DIMJOGANG
 40
0.7853981633974483
  9
$DIMTFILL
 70
     0
  9
$DIMTFILLCLR
 70
     0
  9
$DIMARCSYM
 70
     0
  9
$DIMLTYPE
  6

  9
$DIMLTEX1
  6

  9
$DIMLTEX2
  6

  9
$DIMTXTDIRECTION
 70
     0
  9
$LUNITS
 70
     2
  9
$LUPREC
 70
     4
  9
$SKETCHINC
 40
0.1
  9
$FILLETRAD
 40
0.0
  9
$AUNITS
 70
     0
  9
$AUPREC
 70
     0
  9
$MENU
  1
.
  9
$ELEVATION
 40
0.0
  9
$PELEVATION
 40
0.0
  9
$THICKNESS
 40
0.0
  9
$LIMCHECK
 70
     0
  9
$CHAMFERA
 40
0.0
  9
$CHAMFERB
 40
0.0
  9
$CHAMFERC
 40
0.0
  9
$CHAMFERD
 40
0.0
  9
$SKPOLY
 70
     0
  9
$TDCREATE
 40
2458928.657268519
  9
$TDUCREATE
 40
2458928.823935185
  9
$TDUPDATE
 40
2459185.781435185
  9
$TDUUPDATE
 40
2459185.989768519
  9
$TDINDWG
 40
0.0140393519
  9
$TDUSRTIMER
 40
0.0140393519
  9
$USRTIMER
 70
     1
  9
$ANGBASE
 50
0.0
  9
$ANGDIR
 70
     0
  9
$PDMODE
 70
     0
  9
$PDSIZE
 40
0.0
  9
$PLINEWID
 40
0.0
  9
$SPLFRAME
 70
     0
  9
$SPLINETYPE
 70
     6
  9
$SPLINESEGS
 70
     8
  9
$HANDSEED
  5
1AED
  9
$SURFTAB1
 70
     6
  9
$SURFTAB2
 70
     6
  9
$SURFTYPE
 70
     6
  9
$SURFU
 70
     6
  9
$SURFV
 70
     6
  9
$UCSBASE
  2

  9
$UCSNAME
  2

  9
$UCSORG
 10
0.0
 20
0.0
 30
0.0
  9
$UCSXDIR
 10
1.0
 20
0.0
 30
0.0
  9
$UCSYDIR
 10
0.0
 20
1.0
 30
0.0
  9
$UCSORTHOREF
  2

  9
$UCSORTHOVIEW
 70
     0
  9
$UCSORGTOP
 10
0.0
 20
0.0
 30
0.0
  9
$UCSORGBOTTOM
 10
0.0
 20
0.0
 30
0.0
  9
$UCSORGLEFT
 10
0.0
 20
0.0
 30
0.0
  9
$UCSORGRIGHT
 10
0.0
 20
0.0
 30
0.0
  9
$UCSORGFRONT
 10
0.0
 20
0.0
 30
0.0
  9
$UCSORGBACK
 10
0.0
 20
0.0
 30
0.0
  9
$PUCSBASE
  2

  9
$PUCSNAME
  2

  9
$PUCSORG
 10
0.0
 20
0.0
 30
0.0
  9
$PUCSXDIR
 10
1.0
 20
0.0
 30
0.0
  9
$PUCSYDIR
 10
0.0
 20
1.0
 30
0.0
  9
$PUCSORTHOREF
  2

  9
$PUCSORTHOVIEW
 70
     0
  9
$PUCSORGTOP
 10
0.0
 20
0.0
 30
0.0
  9
$PUCSORGBOTTOM
 10
0.0
 20
0.0
 30
0.0
  9
$PUCSORGLEFT
 10
0.0
 20
0.0
 30
0.0
  9
$PUCSORGRIGHT
 10
0.0
 20
0.0
 30
0.0
  9
$PUCSORGFRONT
 10
0.0
 20
0.0
 30
0.0
  9
$PUCSORGBACK
 10
0.0
 20
0.0
 30
0.0
  9
$USERI1
 70
     0
  9
$USERI2
 70
     0
  9
$USERI3
 70
     0
  9
$USERI4
 70
     0
  9
$USERI5
 70
     0
  9
$USERR1
 40
0.0
  9
$USERR2
 40
0.0
  9
$USERR3
 40
0.0
  9
$USERR4
 40
0.0
  9
$USERR5
 40
0.0
  9
$WORLDVIEW
 70
     1
  9
$SHADEDGE
 70
     3
  9
$SHADEDIF
 70
    70
  9
$TILEMODE
 70
     1
  9
$MAXACTVP
 70
    64
  9
$PINSBASE
 10
0.0
 20
0.0
 30
0.0
  9
$PLIMCHECK
 70
     0
  9
$PEXTMIN
 10
1.000000000000000E+20
 20
1.000000000000000E+20
 30
1.000000000000000E+20
  9
$PEXTMAX
 10
-1.000000000000000E+20
 20
-1.000000000000000E+20
 30
-1.000000000000000E+20
  9
$PLIMMIN
 10
0.0
 20
0.0
  9
$PLIMMAX
 10
12.0
 20
9.0
  9
$UNITMODE
 70
     0
  9
$VISRETAIN
 70
     1
  9
$PLINEGEN
 70
     0
  9
$PSLTSCALE
 70
     1
  9
$TREEDEPTH
 70
  3020
  9
$CMLSTYLE
  2
Standard
  9
$CMLJUST
 70
     0
  9
$CMLSCALE
 40
1.0
  9
$PROXYGRAPHICS
 70
     1
  9
$MEASUREMENT
 70
     0
  9
$CELWEIGHT
370
    -1
  9
$ENDCAPS
280
     0
  9
$JOINSTYLE
280
     0
  9
$LWDISPLAY
290
     0
  9
$INSUNITS
 70
     0
  9
$HYPERLINKBASE
  1

  9
$STYLESHEET
  1

  9
$XEDIT
290
     1
  9
$CEPSNTYPE
380
     0
  9
$PSTYLEMODE
290
     1
  9
$FINGERPRINTGUID
  2
{A087A190-52ED-7B49-BEE2-C79CD84C2D94}
  9
$VERSIONGUID
  2
{BCED2450-A250-F945-AAB0-B00635D0A29B}
  9
$EXTNAMES
290
     1
  9
$PSVPSCALE
 40
0.0
  9
$OLESTARTUP
290
     0
  9
$SORTENTS
280
   127
  9
$INDEXCTL
280
     0
  9
$HIDETEXT
280
     0
  9
$XCLIPFRAME
280
     2
  9
$HALOGAP
280
     0
  9
$OBSCOLOR
 70
   257
  9
$OBSLTYPE
280
     0
  9
$INTERSECTIONDISPLAY
280
     0
  9
$INTERSECTIONCOLOR
 70
   257
  9
$DIMASSOC
280
     1
  9
$PROJECTNAME
  1

  9
$CAMERADISPLAY
290
     0
  9
$LENSLENGTH
 40
50.0
  9
$CAMERAHEIGHT
 40
0.0
  9
$STEPSPERSEC
 40
2.0
  9
$STEPSIZE
 40
6.0
  9
$3DDWFPREC
 40
2.0
  9
$PSOLWIDTH
 40
0.25
  9
$PSOLHEIGHT
 40
4.0
  9
$LOFTANG1
 40
1.570796326794896
  9
$LOFTANG2
 40
1.570796326794896
  9
$LOFTMAG1
 40
0.0
  9
$LOFTMAG2
 40
0.0
  9
$LOFTPARAM
 70
     7
  9
$LOFTNORMALS
280
     1
  9
$LATITUDE
 40
37.795
  9
$LONGITUDE
 40
-122.394
  9
$NORTHDIRECTION
 40
0.0
  9
$TIMEZONE
 70
 -8000
  9
$LIGHTGLYPHDISPLAY
280
     1
  9
$TILEMODELIGHTSYNCH
280
     1
  9
$CMATERIAL
347
11
  9
$SOLIDHIST
280
     0
  9
$SHOWHIST
280
     1
  9
$DWFFRAME
280
     2
  9
$DGNFRAME
280
     0
  9
$REALWORLDSCALE
290
     1
  9
$INTERFERECOLOR
 62
     1
  9
$INTERFEREOBJVS
345
33
  9
$INTERFEREVPVS
346
30
  9
$CSHADOW
280
     0
  9
$SHADOWPLANELOCATION
 40
0.0
  0
ENDSEC
  0
SECTION
  2
CLASSES
  0
CLASS
  1
ACDBDICTIONARYWDFLT
  2
AcDbDictionaryWithDefault
  3
ObjectDBX Classes
 90
        0
 91
        1
280
     0
281
     0
  0
CLASS
  1
MATERIAL
  2
AcDbMaterial
  3
ObjectDBX Classes
 90
     1153
 91
        3
280
     0
281
     0
  0
CLASS
  1
VISUALSTYLE
  2
AcDbVisualStyle
  3
ObjectDBX Classes
 90
     4095
 91
       24
280
     0
281
     0
  0
CLASS
  1
SCALE
  2
AcDbScale
  3
ObjectDBX Classes
 90
     1153
 91
       17
280
     0
281
     0
  0
CLASS
  1
TABLESTYLE
  2
AcDbTableStyle
  3
ObjectDBX Classes
 90
     4095
 91
        1
280
     0
281
     0
  0
CLASS
  1
MLEADERSTYLE
  2
AcDbMLeaderStyle
  3
ACDB_MLEADERSTYLE_CLASS
 90
     4095
 91
        1
280
     0
281
     0
  0
CLASS
  1
ACDBSECTIONVIEWSTYLE
  2
AcDbSectionViewStyle
  3
ObjectDBX Classes
 90
     1025
 91
        1
280
     0
281
     0
  0
CLASS
  1
ACDBDETAILVIEWSTYLE
  2
AcDbDetailViewStyle
  3
ObjectDBX Classes
 90
     1025
 91
        1
280
     0
281
     0
  0
CLASS
  1
SOLID_BACKGROUND
  2
AcDbSolidBackground
  3
SCENEOE
 90
     4095
 91
        0
280
     0
281
     0
  0
CLASS
  1
NPOCOLLECTION
  2
AcDbImpNonPersistentObjectsCollection
  3
ObjectDBX Classes
 90
     1153
 91
        0
280
     0
281
     0
  0
CLASS
  1
DICTIONARYVAR
  2
AcDbDictionaryVar
  3
ObjectDBX Classes
 90
        0
 91
        9
280
     0
281
     0
  0
CLASS
  1
CELLSTYLEMAP
  2
AcDbCellStyleMap
  3
ObjectDBX Classes
 90
     1152
 91
        2
280
     0
281
     0
  0
ENDSEC
  0
SECTION
  2
TABLES
  0
TABLE
  2
VPORT
  5
8
330
0
100
AcDbSymbolTable
 70
     1
  0
VPORT
  5
7B
330
8
100
AcDbSymbolTableRecord
100
AcDbViewportTableRecord
  2
*Active
 70
     0
 10
0.0
 20
0.0
 11
1.0
 21
1.0
 12
-3.112056705370658
 22
1.111899048787474
 13
0.0
 23
0.0
 14
1.0
 24
1.0
 15
0.0
 25
0.0
 16
0.0
 26
-0.072385339653934
 36
4.146953331403261
 17
-79.91742304329069
 27
44.10082163383402
 37
-0.0044656081124234
 40
3.670825075301841
 41
1.886499402628435
 42
50.0
 43
0.0
 44
0.0
 50
0.0
 51
0.0
 71
     0
 72
   100
 73
     1
 74
     0
 75
     1
 76
     0
 77
     0
 78
     0
281
     0
 65
     1
110
0.0
120
0.0
130
0.0
111
1.0
121
0.0
131
0.0
112
0.0
122
1.0
132
0.0
 79
     0
146
0.0
348
2F
 60
     3
 61
     5
292
     1
282
     1
141
0.0
142
0.0
 63
   250
421
  3355443
1001
ACAD_NAV_VCDISPLAY
1070
     3
  0
ENDTAB
  0
TABLE
  2
LTYPE
  5
5
330
0
100
AcDbSymbolTable
 70
     1
  0
LTYPE
  5
5A
330
5
100
AcDbSymbolTableRecord
100
AcDbLinetypeTableRecord
  2
ByBlock
 70
     0
  3

 72
    65
 73
     0
 40
0.0
  0
LTYPE
  5
5B
330
5
100
AcDbSymbolTableRecord
100
AcDbLinetypeTableRecord
  2
ByLayer
 70
     0
  3

 72
    65
 73
     0
 40
0.0
  0
LTYPE
  5
5C
330
5
100
AcDbSymbolTableRecord
100
AcDbLinetypeTableRecord
  2
Continuous
 70
     0
  3
Solid line
 72
    65
 73
     0
 40
0.0
  0
ENDTAB
  0
TABLE
  2
LAYER
  5
2
330
0
100
AcDbSymbolTable
 70
     8
  0
LAYER
  5
54
102
{ACAD_XDICTIONARY
360
1ACD
102
}
330
2
100
AcDbSymbolTableRecord
100
AcDbLayerTableRecord
  2
0
 70
     0
 62
     7
  6
Continuous
370
    -3
390
F
347
21
348
0
  0
LAYER
  5
73
102
{ACAD_XDICTIONARY
360
1ACF
102
}
330
2
100
AcDbSymbolTableRecord
100
AcDbLayerTableRecord
  2
RED
 70
     4
 62
     1
  6
Continuous
370
    -3
390
F
347
21
348
0
  0
LAYER
  5
74
102
{ACAD_XDICTIONARY
360
1AD1
102
}
330
2
100
AcDbSymbolTableRecord
100
AcDbLayerTableRecord
  2
YELLOW
 70
     4
 62
     2
  6
Continuous
370
    -3
390
F
347
21
348
0
  0
LAYER
  5
75
102
{ACAD_XDICTIONARY
360
1AD3
102
}
330
2
100
AcDbSymbolTableRecord
100
AcDbLayerTableRecord
  2
GREEN
 70
     4
 62
    92
  6
Continuous
370
    -3
390
F
347
21
348
0
  0
LAYER
  5
76
102
{ACAD_XDICTIONARY
360
1AD5
102
}
330
2
100
AcDbSymbolTableRecord
100
AcDbLayerTableRecord
  2
BLUE
 70
     4
 62
     5
  6
Continuous
370
    -3
390
F
347
21
348
0
  0
LAYER
  5
77
102
{ACAD_XDICTIONARY
360
1AD7
102
}
330
2
100
AcDbSymbolTableRecord
100
AcDbLayerTableRecord
  2
WHITE
 70
     4
 62
     7
  6
Continuous
370
    -3
390
F
347
21
348
0
  0
LAYER
  5
78
102
{ACAD_XDICTIONARY
360
1AD9
102
}
330
2
100
AcDbSymbolTableRecord
100
AcDbLayerTableRecord
  2
FIX
 70
     4
 62
    -7
  6
Continuous
370
    -3
390
F
347
21
348
0
  0
LAYER
  5
9B
102
{ACAD_XDICTIONARY
360
1ADB
102
}
330
2
100
AcDbSymbolTableRecord
100
AcDbLayerTableRecord
  2
GEO_
 70
     0
 62
     7
  6
Continuous
370
    -3
390
F
347
21
348
0
  0
ENDTAB
  0
TABLE
  2
STYLE
  5
3
330
0
100
AcDbSymbolTable
 70
     2
  0
STYLE
  5
55
330
3
100
AcDbSymbolTableRecord
100
AcDbTextStyleTableRecord
  2
STANDARD
 70
     0
 40
0.006
 41
1.0
 50
0.0
 71
     0
 42
0.006
  3
arial.ttf
  4

1001
ACAD
1000
Arial
1071
       34
  0
STYLE
  5
59
330
3
100
AcDbSymbolTableRecord
100
AcDbTextStyleTableRecord
  2
Annotative
 70
     0
 40
0.0
 41
1.0
 50
0.0
 71
     0
 42
0.2
  3
txt
  4

1001
AcadAnnotative
1000
AnnotativeData
1002
{
1070
     1
1070
     1
1002
}
  0
ENDTAB
  0
TABLE
  2
VIEW
  5
6
330
0
100
AcDbSymbolTable
 70
     0
  0
ENDTAB
  0
TABLE
  2
UCS
  5
7
330
0
100
AcDbSymbolTable
 70
     0
  0
ENDTAB
  0
TABLE
  2
APPID
  5
9
330
0
100
AcDbSymbolTable
 70
     3
  0
APPID
  5
56
330
9
100
AcDbSymbolTableRecord
100
AcDbRegAppTableRecord
  2
ACAD
 70
     0
  0
APPID
  5
5D
330
9
100
AcDbSymbolTableRecord
100
AcDbRegAppTableRecord
  2
AcadAnnotative
 70
     0
  0
APPID
  5
1AC4
330
9
100
AcDbSymbolTableRecord
100
AcDbRegAppTableRecord
  2
ACAD_NAV_VCDISPLAY
 70
     0
  0
ENDTAB
  0
TABLE
  2
DIMSTYLE
  5
A
330
0
100
AcDbSymbolTable
 70
     2
100
AcDbDimStyleTable
 71
     0
  0
DIMSTYLE
105
57
330
A
100
AcDbSymbolTableRecord
100
AcDbDimStyleTableRecord
  2
Standard
 70
     0
340
55
  0
DIMSTYLE
105
58
330
A
100
AcDbSymbolTableRecord
100
AcDbDimStyleTableRecord
  2
Annotative
 70
     0
340
55
1001
AcadAnnotative
1000
AnnotativeData
1002
{
1070
     1
1070
     1
1002
}
  0
ENDTAB
  0
TABLE
  2
BLOCK_RECORD
  5
1
330
0
100
AcDbSymbolTable
 70
     4
  0
BLOCK_RECORD
  5
6F
330
1
100
AcDbSymbolTableRecord
100
AcDbBlockTableRecord
  2
*Model_Space
340
72
 70
     0
280
     1
281
     0
  0
BLOCK_RECORD
  5
6B
330
1
100
AcDbSymbolTableRecord
100
AcDbBlockTableRecord
  2
*Paper_Space
340
6E
 70
     0
280
     1
281
     0
  0
BLOCK_RECORD
  5
7C
330
1
100
AcDbSymbolTableRecord
100
AcDbBlockTableRecord
  2
AIRPORT
340
0
 70
     0
280
     1
281
     0
  0
BLOCK_RECORD
  5
80
330
1
100
AcDbSymbolTableRecord
100
AcDbBlockTableRecord
  2
FIX
340
0
 70
     0
280
     1
281
     0
  0
BLOCK_RECORD
  5
88
330
1
100
AcDbSymbolTableRecord
100
AcDbBlockTableRecord
  2
NDB
340
0
 70
     0
280
     1
281
     0
  0
BLOCK_RECORD
  5
8F
330
1
100
AcDbSymbolTableRecord
100
AcDbBlockTableRecord
  2
VOR
340
0
 70
     0
280
     1
281
     0
  0
ENDTAB
  0
ENDSEC
  0
SECTION
  2
BLOCKS
  0
BLOCK
  5
70
330
6F
100
AcDbEntity
  8
0
100
AcDbBlockBegin
  2
*Model_Space
 70
     0
 10
0.0
 20
0.0
 30
0.0
  3
*Model_Space
  1

  0
ENDBLK
  5
71
330
6F
100
AcDbEntity
  8
0
100
AcDbBlockEnd
  0
BLOCK
  5
6C
330
6B
100
AcDbEntity
 67
     1
  8
0
100
AcDbBlockBegin
  2
*Paper_Space
 70
     0
 10
0.0
 20
0.0
 30
0.0
  3
*Paper_Space
  1

  0
ENDBLK
  5
6D
330
6B
100
AcDbEntity
 67
     1
  8
0
100
AcDbBlockEnd
  0
BLOCK
  5
7D
330
7C
100
AcDbEntity
  8
0
100
AcDbBlockBegin
  2
AIRPORT
 70
     0
 10
0.0
 20
0.0
 30
0.0
  3
AIRPORT
  1

  0
CIRCLE
  5
7E
330
7C
100
AcDbEntity
  8
0
100
AcDbCircle
 10
0.0
 20
0.0
 30
0.0
 40
0.005
  0
ENDBLK
  5
7F
330
7C
100
AcDbEntity
  8
0
100
AcDbBlockEnd
  0
BLOCK
  5
81
330
80
100
AcDbEntity
  8
0
100
AcDbBlockBegin
  2
FIX
 70
     0
 10
0.0
 20
0.0
 30
0.0
  3
FIX
  1

  0
LWPOLYLINE
  5
82
330
80
100
AcDbEntity
  8
0
100
AcDbPolyline
 90
        3
 70
     1
 43
0.0
 10
-0.0050000000000061
 20
-0.0028867513459261
 10
0.0049999999999848
 20
-0.0028867513459474
 10
-0.0000000000000178
 20
0.0057735026919019
  0
ENDBLK
  5
87
330
80
100
AcDbEntity
  8
0
100
AcDbBlockEnd
  0
BLOCK
  5
89
330
88
100
AcDbEntity
  8
0
100
AcDbBlockBegin
  2
NDB
 70
     0
 10
0.0
 20
0.0
 30
0.0
  3
NDB
  1

  0
CIRCLE
  5
8A
330
88
100
AcDbEntity
  8
0
100
AcDbCircle
 10
0.0
 20
0.0
 30
0.0
 40
0.00065625
  0
CIRCLE
  5
8B
330
88
100
AcDbEntity
  8
0
100
AcDbCircle
 10
0.0
 20
0.0
 30
0.0
 40
0.002625
  0
CIRCLE
  5
8C
330
88
100
AcDbEntity
  8
0
100
AcDbCircle
 10
0.0
 20
0.0
 30
0.0
 40
0.00525
  0
CIRCLE
  5
8D
330
88
100
AcDbEntity
  8
0
100
AcDbCircle
 10
0.0
 20
0.0
 30
0.0
 40
0.007875
  0
ENDBLK
  5
8E
330
88
100
AcDbEntity
  8
0
100
AcDbBlockEnd
  0
BLOCK
  5
90
330
8F
100
AcDbEntity
  8
0
100
AcDbBlockBegin
  2
VOR
 70
     0
 10
0.0
 20
0.0
 30
0.0
  3
VOR
  1

  0
LWPOLYLINE
  5
91
330
8F
100
AcDbEntity
  8
0
100
AcDbPolyline
 90
        6
 70
     1
 43
0.0
 10
-0.0044997172835375
 20
0.0077937389547813
 10
-0.0089994345670776
 20
0.0
 10
-0.0044997172835393
 20
-0.0077937389547884
 10
0.0044997172835375
 20
-0.0077937389547884
 10
0.0089994345670776
 20
0.0
 10
0.0044997172835393
 20
0.0077937389547813
  0
CIRCLE
  5
99
330
8F
100
AcDbEntity
  8
0
100
AcDbCircle
 10
0.0
 20
0.0
 30
0.0
 40
0.0015111425556361
  0
ENDBLK
  5
9A
330
8F
100
AcDbEntity
  8
0
100
AcDbBlockEnd
  0
ENDSEC
  0
SECTION
  2
ENTITIES
  0
LINE
  5
204
330
6F
100
AcDbEntity
  8
GEO_
 62
     7
420
 16777215
100
AcDbLine
 10
-83.25435555555555
 20
45.54334426320163
 30
0.0
 11
-83.34583333333332
 21
45.2311436297901
 31
0.0
  0
LINE
  5
205
330
6F
100
AcDbEntity
  8
GEO_
 62
     7
420
 16777215
100
AcDbLine
 10
-83.34583333333332
 20
45.2311436297901
 30
0.0
 11
-83.65000000000001
 21
44.67950493102619
 31
0.0
  0
LINE
  5
210
330
6F
100
AcDbEntity
  8
GEO_
 62
     7
420
 16777215
100
AcDbLine
 10
-83.25435555555555
 20
45.54334426320163
 30
0.0
 11
-83.34583333333332
 21
45.2311436297901
 31
0.0
  0
LINE
  5
211
330
6F
100
AcDbEntity
  8
GEO_
 62
     7
420
 16777215
100
AcDbLine
 10
-83.34583333333332
 20
45.2311436297901
 30
0.0
 11
-83.65000000000001
 21
44.67950493102619
 31
0.0
  0
LINE
  5
223
330
6F
100
AcDbEntity
  8
GEO_
 62
     7
420
 16777215
100
AcDbLine
 10
-83.25435555555555
 20
45.54334426320163
 30
0.0
 11
-83.25435555555555
 21
45.54334426320163
 31
0.0
  0
LINE
  5
225
330
6F
100
AcDbEntity
  8
GEO_
 62
     7
420
 16777215
100
AcDbLine
 10
-83.25435555555555
 20
45.54334426320163
 30
0.0
 11
-83.34583333333332
 21
45.2311436297901
 31
0.0
  0
LINE
  5
226
330
6F
100
AcDbEntity
  8
GEO_
 62
     7
420
 16777215
100
AcDbLine
 10
-83.34583333333332
 20
45.2311436297901
 30
0.0
 11
-83.34583333333332
 21
45.2311436297901
 31
0.0
  0
LINE
  5
227
330
6F
100
AcDbEntity
  8
GEO_
 62
     7
420
 16777215
100
AcDbLine
 10
-83.34583333333332
 20
45.2311436297901
 30
0.0
 11
-83.25435555555555
 21
45.54334426320163
 31
0.0
  0
LINE
  5
228
330
6F
100
AcDbEntity
  8
GEO_
 62
     7
420
 16777215
100
AcDbLine
 10
-83.34583333333332
 20
45.2311436297901
 30
0.0
 11
-83.65000000000001
 21
44.67950493102619
 31
0.0
  0
LINE
  5
229
330
6F
100
AcDbEntity
  8
GEO_
 62
     7
420
 16777215
100
AcDbLine
 10
-83.65000000000001
 20
44.67950493102619
 30
0.0
 11
-83.65000000000001
 21
44.67950493102619
 31
0.0
  0
LINE
  5
22A
330
6F
100
AcDbEntity
  8
GEO_
 62
     7
420
 16777215
100
AcDbLine
 10
-83.65000000000001
 20
44.67950493102619
 30
0.0
 11
-83.34583333333332
 21
45.2311436297901
 31
0.0
  0
LINE
  5
248
330
6F
100
AcDbEntity
  8
GEO_
 62
     7
420
 16777215
100
AcDbLine
 10
-83.25435555555555
 20
45.54334426320163
 30
0.0
 11
-83.34583333333332
 21
45.2311436297901
 31
0.0
  0
LINE
  5
249
330
6F
100
AcDbEntity
  8
GEO_
 62
     7
420
 16777215
100
AcDbLine
 10
-83.34583333333332
 20
45.2311436297901
 30
0.0
 11
-83.65000000000001
 21
44.67950493102619
 31
0.0
  0
LINE
  5
25D
330
6F
100
AcDbEntity
  8
GEO_
 62
     7
420
 16777215
100
AcDbLine
 10
-83.25435555555555
 20
45.54334426320163
 30
0.0
 11
-83.34583333333332
 21
45.2311436297901
 31
0.0
  0
LINE
  5
25E
330
6F
100
AcDbEntity
  8
GEO_
 62
     7
420
 16777215
100
AcDbLine
 10
-83.34583333333332
 20
45.2311436297901
 30
0.0
 11
-83.65000000000001
 21
44.67950493102619
 31
0.0
  0
LINE
  5
283
330
6F
100
AcDbEntity
  8
GEO_
 62
     7
420
 16777215
100
AcDbLine
 10
-83.25435555555555
 20
45.54334426320163
 30
0.0
 11
-83.25435555555555
 21
45.54334426320163
 31
0.0
  0
LINE
  5
285
330
6F
100
AcDbEntity
  8
GEO_
 62
     7
420
 16777215
100
AcDbLine
 10
-83.25435555555555
 20
45.54334426320163
 30
0.0
 11
-83.34583333333332
 21
45.2311436297901
 31
0.0
  0
LINE
  5
286
330
6F
100
AcDbEntity
  8
GEO_
 62
     7
420
 16777215
100
AcDbLine
 10
-83.34583333333332
 20
45.2311436297901
 30
0.0
 11
-83.34583333333332
 21
45.2311436297901
 31
0.0
  0
LINE
  5
287
330
6F
100
AcDbEntity
  8
GEO_
 62
     7
420
 16777215
100
AcDbLine
 10
-83.34583333333332
 20
45.2311436297901
 30
0.0
 11
-83.25435555555555
 21
45.54334426320163
 31
0.0
  0
LINE
  5
288
330
6F
100
AcDbEntity
  8
GEO_
 62
     7
420
 16777215
100
AcDbLine
 10
-83.34583333333332
 20
45.2311436297901
 30
0.0
 11
-83.65000000000001
 21
44.67950493102619
 31
0.0
  0
LINE
  5
289
330
6F
100
AcDbEntity
  8
GEO_
 62
     7
420
 16777215
100
AcDbLine
 10
-83.65000000000001
 20
44.67950493102619
 30
0.0
 11
-83.65000000000001
 21
44.67950493102619
 31
0.0
  0
LINE
  5
28A
330
6F
100
AcDbEntity
  8
GEO_
 62
     7
420
 16777215
100
AcDbLine
 10
-83.65000000000001
 20
44.67950493102619
 30
0.0
 11
-83.34583333333332
 21
45.2311436297901
 31
0.0
  0
LINE
  5
2B3
330
6F
100
AcDbEntity
  8
GEO_
 62
     7
420
 16777215
100
AcDbLine
 10
-83.25435555555555
 20
45.54334426320163
 30
0.0
 11
-83.34583333333332
 21
45.2311436297901
 31
0.0
  0
LINE
  5
2B4
330
6F
100
AcDbEntity
  8
GEO_
 62
     7
420
 16777215
100
AcDbLine
 10
-83.34583333333332
 20
45.2311436297901
 30
0.0
 11
-83.65000000000001
 21
44.67950493102619
 31
0.0
  0
LINE
  5
2C7
330
6F
100
AcDbEntity
  8
GEO_
 62
     7
420
 16777215
100
AcDbLine
 10
-83.25435555555555
 20
45.54334426320163
 30
0.0
 11
-83.34583333333332
 21
45.2311436297901
 31
0.0
  0
LINE
  5
2C8
330
6F
100
AcDbEntity
  8
GEO_
 62
     7
420
 16777215
100
AcDbLine
 10
-83.34583333333332
 20
45.2311436297901
 30
0.0
 11
-83.65000000000001
 21
44.67950493102619
 31
0.0
  0
LINE
  5
2EA
330
6F
100
AcDbEntity
  8
GEO_
 62
     7
420
 16777215
100
AcDbLine
 10
-83.25435555555555
 20
45.54334426320163
 30
0.0
 11
-83.25435555555555
 21
45.54334426320163
 31
0.0
  0
LINE
  5
2EC
330
6F
100
AcDbEntity
  8
GEO_
 62
     7
420
 16777215
100
AcDbLine
 10
-83.25435555555555
 20
45.54334426320163
 30
0.0
 11
-83.34583333333332
 21
45.2311436297901
 31
0.0
  0
LINE
  5
2ED
330
6F
100
AcDbEntity
  8
GEO_
 62
     7
420
 16777215
100
AcDbLine
 10
-83.34583333333332
 20
45.2311436297901
 30
0.0
 11
-83.34583333333332
 21
45.2311436297901
 31
0.0
  0
LINE
  5
2EE
330
6F
100
AcDbEntity
  8
GEO_
 62
     7
420
 16777215
100
AcDbLine
 10
-83.34583333333332
 20
45.2311436297901
 30
0.0
 11
-83.25435555555555
 21
45.54334426320163
 31
0.0
  0
LINE
  5
2EF
330
6F
100
AcDbEntity
  8
GEO_
 62
     7
420
 16777215
100
AcDbLine
 10
-83.34583333333332
 20
45.2311436297901
 30
0.0
 11
-83.65000000000001
 21
44.67950493102619
 31
0.0
  0
LINE
  5
2F0
330
6F
100
AcDbEntity
  8
GEO_
 62
     7
420
 16777215
100
AcDbLine
 10
-83.65000000000001
 20
44.67950493102619
 30
0.0
 11
-83.65000000000001
 21
44.67950493102619
 31
0.0
  0
LINE
  5
2F1
330
6F
100
AcDbEntity
  8
GEO_
 62
     7
420
 16777215
100
AcDbLine
 10
-83.65000000000001
 20
44.67950493102619
 30
0.0
 11
-83.34583333333332
 21
45.2311436297901
 31
0.0
  0
LINE
  5
313
330
6F
100
AcDbEntity
  8
GEO_
 62
     7
420
 16777215
100
AcDbLine
 10
-82.79858888888886
 20
45.48199673916061
 30
0.0
 11
-82.54245
 21
45.51775623586837
 31
0.0
  0
LINE
  5
314
330
6F
100
AcDbEntity
  8
GEO_
 62
     7
420
 16777215
100
AcDbLine
 10
-82.54245
 20
45.51775623586837
 30
0.0
 11
-82.5239
 21
45.23609103332139
 31
0.0
  0
LINE
  5
315
330
6F
100
AcDbEntity
  8
GEO_
 62
     7
420
 16777215
100
AcDbLine
 10
-82.5239
 20
45.23609103332139
 30
0.0
 11
-82.51762777777775
 21
45.14179932417075
 31
0.0
  0
LINE
  5
316
330
6F
100
AcDbEntity
  8
GEO_
 62
     7
420
 16777215
100
AcDbLine
 10
-82.51762777777775
 20
45.14179932417075
 30
0.0
 11
-82.52792777777775
 21
45.14059050404782
 31
0.0
  0
LINE
  5
317
330
6F
100
AcDbEntity
  8
GEO_
 62
     7
420
 16777215
100
AcDbLine
 10
-82.52792777777775
 20
45.14059050404782
 30
0.0
 11
-82.61694444444444
 21
45.04356363848006
 31
0.0
  0
LINE
  5
318
330
6F
100
AcDbEntity
  8
GEO_
 62
     7
420
 16777215
100
AcDbLine
 10
-82.61694444444444
 20
45.04356363848006
 30
0.0
 11
-82.74166666666667
 21
44.9052560815029
 31
0.0
  0
LINE
  5
319
330
6F
100
AcDbEntity
  8
GEO_
 62
     7
420
 16777215
100
AcDbLine
 10
-82.74166666666667
 20
44.9052560815029
 30
0.0
 11
-83.16222222222222
 21
44.39365317220624
 31
0.0
  0
LINE
  5
31A
330
6F
100
AcDbEntity
  8
GEO_
 62
     7
420
 16777215
100
AcDbLine
 10
-83.16222222222222
 20
44.39365317220624
 30
0.0
 11
-83.33333333333333
 21
44.37757642447464
 31
0.0
  0
LINE
  5
31B
330
6F
100
AcDbEntity
  8
GEO_
 62
     7
420
 16777215
100
AcDbLine
 10
-83.33333333333333
 20
44.37757642447464
 30
0.0
 11
-83.49999999999999
 21
44.44336347928993
 31
0.0
  0
LINE
  5
31C
330
6F
100
AcDbEntity
  8
GEO_
 62
     7
420
 16777215
100
AcDbLine
 10
-83.49999999999999
 20
44.44336347928993
 30
0.0
 11
-83.65000000000001
 21
44.67950493102619
 31
0.0
  0
LINE
  5
322
330
6F
100
AcDbEntity
  8
GEO_
 62
     7
420
 16777215
100
AcDbLine
 10
-82.79858888888886
 20
45.48199673916061
 30
0.0
 11
-82.54245
 21
45.51775623586837
 31
0.0
  0
LINE
  5
323
330
6F
100
AcDbEntity
  8
GEO_
 62
     7
420
 16777215
100
AcDbLine
 10
-82.54245
 20
45.51775623586837
 30
0.0
 11
-82.5239
 21
45.23609103332139
 31
0.0
  0
LINE
  5
324
330
6F
100
AcDbEntity
  8
GEO_
 62
     7
420
 16777215
100
AcDbLine
 10
-82.5239
 20
45.23609103332139
 30
0.0
 11
-82.51762777777775
 21
45.14179932417075
 31
0.0
  0
LINE
  5
325
330
6F
100
AcDbEntity
  8
GEO_
 62
     7
420
 16777215
100
AcDbLine
 10
-82.51762777777775
 20
45.14179932417075
 30
0.0
 11
-82.52792777777775
 21
45.14059050404782
 31
0.0
  0
LINE
  5
326
330
6F
100
AcDbEntity
  8
GEO_
 62
     7
420
 16777215
100
AcDbLine
 10
-82.52792777777775
 20
45.14059050404782
 30
0.0
 11
-82.61694444444444
 21
45.04356363848006
 31
0.0
  0
LINE
  5
327
330
6F
100
AcDbEntity
  8
GEO_
 62
     7
420
 16777215
100
AcDbLine
 10
-82.61694444444444
 20
45.04356363848006
 30
0.0
 11
-82.74166666666667
 21
44.9052560815029
 31
0.0
  0
LINE
  5
328
330
6F
100
AcDbEntity
  8
GEO_
 62
     7
420
 16777215
100
AcDbLine
 10
-82.74166666666667
 20
44.9052560815029
 30
0.0
 11
-83.16222222222222
 21
44.39365317220624
 31
0.0
  0
LINE
  5
329
330
6F
100
AcDbEntity
  8
GEO_
 62
     7
420
 16777215
100
AcDbLine
 10
-83.16222222222222
 20
44.39365317220624
 30
0.0
 11
-83.33333333333333
 21
44.37757642447464
 31
0.0
  0
LINE
  5
32A
330
6F
100
AcDbEntity
  8
GEO_
 62
     7
420
 16777215
100
AcDbLine
 10
-83.33333333333333
 20
44.37757642447464
 30
0.0
 11
-83.49999999999999
 21
44.44336347928993
 31
0.0
  0
LINE
  5
32B
330
6F
100
AcDbEntity
  8
GEO_
 62
     7
420
 16777215
100
AcDbLine
 10
-83.49999999999999
 20
44.44336347928993
 30
0.0
 11
-83.65000000000001
 21
44.67950493102619
 31
0.0
  0
LINE
  5
331
330
6F
100
AcDbEntity
  8
GEO_
 62
     7
420
 16777215
100
AcDbLine
 10
-82.84833333333333
 20
45.48607412381707
 30
0.0
 11
-82.79858888888886
 21
45.48199673916061
 31
0.0
  0
LINE
  5
332
330
6F
100
AcDbEntity
  8
GEO_
 62
     7
420
 16777215
100
AcDbLine
 10
-82.79858888888886
 20
45.48199673916061
 30
0.0
 11
-82.79858888888886
 21
45.48199673916061
 31
0.0
  0
LINE
  5
333
330
6F
100
AcDbEntity
  8
GEO_
 62
     7
420
 16777215
100
AcDbLine
 10
-82.79858888888886
 20
45.48199673916061
 30
0.0
 11
-82.84833333333333
 21
45.48607412381707
 31
0.0
  0
LINE
  5
334
330
6F
100
AcDbEntity
  8
GEO_
 62
     7
420
 16777215
100
AcDbLine
 10
-82.79858888888886
 20
45.48199673916061
 30
0.0
 11
-82.54245
 21
45.51775623586837
 31
0.0
  0
LINE
  5
335
330
6F
100
AcDbEntity
  8
GEO_
 62
     7
420
 16777215
100
AcDbLine
 10
-82.54245
 20
45.51775623586837
 30
0.0
 11
-82.54245
 21
45.51775623586837
 31
0.0
  0
LINE
  5
336
330
6F
100
AcDbEntity
  8
GEO_
 62
     7
420
 16777215
100
AcDbLine
 10
-82.54245
 20
45.51775623586837
 30
0.0
 11
-82.79858888888886
 21
45.48199673916061
 31
0.0
  0
LINE
  5
337
330
6F
100
AcDbEntity
  8
GEO_
 62
     7
420
 16777215
100
AcDbLine
 10
-82.54245
 20
45.51775623586837
 30
0.0
 11
-82.5239
 21
45.23609103332139
 31
0.0
  0
LINE
  5
338
330
6F
100
AcDbEntity
  8
GEO_
 62
     7
420
 16777215
100
AcDbLine
 10
-82.5239
 20
45.23609103332139
 30
0.0
 11
-82.5239
 21
45.23609103332139
 31
0.0
  0
LINE
  5
339
330
6F
100
AcDbEntity
  8
GEO_
 62
     7
420
 16777215
100
AcDbLine
 10
-82.5239
 20
45.23609103332139
 30
0.0
 11
-82.54245
 21
45.51775623586837
 31
0.0
  0
LINE
  5
33A
330
6F
100
AcDbEntity
  8
GEO_
 62
     7
420
 16777215
100
AcDbLine
 10
-82.5239
 20
45.23609103332139
 30
0.0
 11
-82.51762777777775
 21
45.14179932417075
 31
0.0
  0
LINE
  5
33B
330
6F
100
AcDbEntity
  8
GEO_
 62
     7
420
 16777215
100
AcDbLine
 10
-82.51762777777775
 20
45.14179932417075
 30
0.0
 11
-82.51762777777775
 21
45.14179932417075
 31
0.0
  0
LINE
  5
33C
330
6F
100
AcDbEntity
  8
GEO_
 62
     7
420
 16777215
100
AcDbLine
 10
-82.51762777777775
 20
45.14179932417075
 30
0.0
 11
-82.5239
 21
45.23609103332139
 31
0.0
  0
LINE
  5
33D
330
6F
100
AcDbEntity
  8
GEO_
 62
     7
420
 16777215
100
AcDbLine
 10
-82.51762777777775
 20
45.14179932417075
 30
0.0
 11
-82.52792777777775
 21
45.14059050404782
 31
0.0
  0
LINE
  5
33E
330
6F
100
AcDbEntity
  8
GEO_
 62
     7
420
 16777215
100
AcDbLine
 10
-82.52792777777775
 20
45.14059050404782
 30
0.0
 11
-82.52792777777775
 21
45.14059050404782
 31
0.0
  0
LINE
  5
33F
330
6F
100
AcDbEntity
  8
GEO_
 62
     7
420
 16777215
100
AcDbLine
 10
-82.52792777777775
 20
45.14059050404782
 30
0.0
 11
-82.51762777777775
 21
45.14179932417075
 31
0.0
  0
LINE
  5
340
330
6F
100
AcDbEntity
  8
GEO_
 62
     7
420
 16777215
100
AcDbLine
 10
-82.52792777777775
 20
45.14059050404782
 30
0.0
 11
-82.61694444444444
 21
45.04356363848006
 31
0.0
  0
LINE
  5
341
330
6F
100
AcDbEntity
  8
GEO_
 62
     7
420
 16777215
100
AcDbLine
 10
-82.61694444444444
 20
45.04356363848006
 30
0.0
 11
-82.61694444444444
 21
45.04356363848006
 31
0.0
  0
LINE
  5
342
330
6F
100
AcDbEntity
  8
GEO_
 62
     7
420
 16777215
100
AcDbLine
 10
-82.61694444444444
 20
45.04356363848006
 30
0.0
 11
-82.52792777777775
 21
45.14059050404782
 31
0.0
  0
LINE
  5
343
330
6F
100
AcDbEntity
  8
GEO_
 62
     7
420
 16777215
100
AcDbLine
 10
-82.61694444444444
 20
45.04356363848006
 30
0.0
 11
-82.74166666666667
 21
44.9052560815029
 31
0.0
  0
LINE
  5
344
330
6F
100
AcDbEntity
  8
GEO_
 62
     7
420
 16777215
100
AcDbLine
 10
-82.74166666666667
 20
44.9052560815029
 30
0.0
 11
-82.74166666666667
 21
44.9052560815029
 31
0.0
  0
LINE
  5
345
330
6F
100
AcDbEntity
  8
GEO_
 62
     7
420
 16777215
100
AcDbLine
 10
-82.74166666666667
 20
44.9052560815029
 30
0.0
 11
-82.61694444444444
 21
45.04356363848006
 31
0.0
  0
LINE
  5
346
330
6F
100
AcDbEntity
  8
GEO_
 62
     7
420
 16777215
100
AcDbLine
 10
-82.74166666666667
 20
44.9052560815029
 30
0.0
 11
-83.16222222222222
 21
44.39365317220624
 31
0.0
  0
LINE
  5
347
330
6F
100
AcDbEntity
  8
GEO_
 62
     7
420
 16777215
100
AcDbLine
 10
-83.16222222222222
 20
44.39365317220624
 30
0.0
 11
-83.16222222222222
 21
44.39365317220624
 31
0.0
  0
LINE
  5
348
330
6F
100
AcDbEntity
  8
GEO_
 62
     7
420
 16777215
100
AcDbLine
 10
-83.16222222222222
 20
44.39365317220624
 30
0.0
 11
-82.74166666666667
 21
44.9052560815029
 31
0.0
  0
LINE
  5
349
330
6F
100
AcDbEntity
  8
GEO_
 62
     7
420
 16777215
100
AcDbLine
 10
-83.16222222222222
 20
44.39365317220624
 30
0.0
 11
-83.33333333333333
 21
44.37757642447464
 31
0.0
  0
LINE
  5
34A
330
6F
100
AcDbEntity
  8
GEO_
 62
     7
420
 16777215
100
AcDbLine
 10
-83.33333333333333
 20
44.37757642447464
 30
0.0
 11
-83.33333333333333
 21
44.37757642447464
 31
0.0
  0
LINE
  5
34B
330
6F
100
AcDbEntity
  8
GEO_
 62
     7
420
 16777215
100
AcDbLine
 10
-83.33333333333333
 20
44.37757642447464
 30
0.0
 11
-83.16222222222222
 21
44.39365317220624
 31
0.0
  0
LINE
  5
34C
330
6F
100
AcDbEntity
  8
GEO_
 62
     7
420
 16777215
100
AcDbLine
 10
-83.33333333333333
 20
44.37757642447464
 30
0.0
 11
-83.49999999999999
 21
44.44336347928993
 31
0.0
  0
LINE
  5
34D
330
6F
100
AcDbEntity
  8
GEO_
 62
     7
420
 16777215
100
AcDbLine
 10
-83.49999999999999
 20
44.44336347928993
 30
0.0
 11
-83.49999999999999
 21
44.44336347928993
 31
0.0
  0
LINE
  5
34E
330
6F
100
AcDbEntity
  8
GEO_
 62
     7
420
 16777215
100
AcDbLine
 10
-83.49999999999999
 20
44.44336347928993
 30
0.0
 11
-83.33333333333333
 21
44.37757642447464
 31
0.0
  0
LINE
  5
34F
330
6F
100
AcDbEntity
  8
GEO_
 62
     7
420
 16777215
100
AcDbLine
 10
-83.49999999999999
 20
44.44336347928993
 30
0.0
 11
-83.65000000000001
 21
44.67950493102619
 31
0.0
  0
LINE
  5
350
330
6F
100
AcDbEntity
  8
GEO_
 62
     7
420
 16777215
100
AcDbLine
 10
-83.65000000000001
 20
44.67950493102619
 30
0.0
 11
-83.65000000000001
 21
44.67950493102619
 31
0.0
  0
LINE
  5
351
330
6F
100
AcDbEntity
  8
GEO_
 62
     7
420
 16777215
100
AcDbLine
 10
-83.65000000000001
 20
44.67950493102619
 30
0.0
 11
-83.49999999999999
 21
44.44336347928993
 31
0.0
  0
LINE
  5
35F
330
6F
100
AcDbEntity
  8
GEO_
 62
     7
420
 16777215
100
AcDbLine
 10
-82.84833333333333
 20
45.48607412381707
 30
0.0
 11
-82.84833333333333
 21
45.48607412381707
 31
0.0
  0
LINE
  5
361
330
6F
100
AcDbEntity
  8
GEO_
 62
     7
420
 16777215
100
AcDbLine
 10
-83.02275555555555
 20
45.5141474214194
 30
0.0
 11
-82.84833333333333
 21
45.48607412381707
 31
0.0
  0
LINE
  5
362
330
6F
100
AcDbEntity
  8
GEO_
 62
     7
420
 16777215
100
AcDbLine
 10
-82.84833333333333
 20
45.48607412381707
 30
0.0
 11
-82.79858888888886
 21
45.48199673916061
 31
0.0
  0
LINE
  5
363
330
6F
100
AcDbEntity
  8
GEO_
 62
     7
420
 16777215
100
AcDbLine
 10
-82.79858888888886
 20
45.48199673916061
 30
0.0
 11
-82.54245
 21
45.51775623586837
 31
0.0
  0
LINE
  5
364
330
6F
100
AcDbEntity
  8
GEO_
 62
     7
420
 16777215
100
AcDbLine
 10
-82.54245
 20
45.51775623586837
 30
0.0
 11
-82.5239
 21
45.23609103332139
 31
0.0
  0
LINE
  5
365
330
6F
100
AcDbEntity
  8
GEO_
 62
     7
420
 16777215
100
AcDbLine
 10
-82.5239
 20
45.23609103332139
 30
0.0
 11
-82.51762777777775
 21
45.14179932417075
 31
0.0
  0
LINE
  5
366
330
6F
100
AcDbEntity
  8
GEO_
 62
     7
420
 16777215
100
AcDbLine
 10
-82.51762777777775
 20
45.14179932417075
 30
0.0
 11
-82.52792777777775
 21
45.14059050404782
 31
0.0
  0
LINE
  5
367
330
6F
100
AcDbEntity
  8
GEO_
 62
     7
420
 16777215
100
AcDbLine
 10
-82.52792777777775
 20
45.14059050404782
 30
0.0
 11
-82.61694444444444
 21
45.04356363848006
 31
0.0
  0
LINE
  5
368
330
6F
100
AcDbEntity
  8
GEO_
 62
     7
420
 16777215
100
AcDbLine
 10
-82.61694444444444
 20
45.04356363848006
 30
0.0
 11
-82.74166666666667
 21
44.9052560815029
 31
0.0
  0
LINE
  5
369
330
6F
100
AcDbEntity
  8
GEO_
 62
     7
420
 16777215
100
AcDbLine
 10
-82.74166666666667
 20
44.9052560815029
 30
0.0
 11
-83.16222222222222
 21
44.39365317220624
 31
0.0
  0
LINE
  5
36A
330
6F
100
AcDbEntity
  8
GEO_
 62
     7
420
 16777215
100
AcDbLine
 10
-83.16222222222222
 20
44.39365317220624
 30
0.0
 11
-83.33333333333333
 21
44.37757642447464
 31
0.0
  0
LINE
  5
36B
330
6F
100
AcDbEntity
  8
GEO_
 62
     7
420
 16777215
100
AcDbLine
 10
-83.33333333333333
 20
44.37757642447464
 30
0.0
 11
-83.42500000000002
 21
44.32826831536615
 31
0.0
  0
LINE
  5
36C
330
6F
100
AcDbEntity
  8
GEO_
 62
     7
420
 16777215
100
AcDbLine
 10
-83.42500000000002
 20
44.32826831536615
 30
0.0
 11
-83.49999999999999
 21
44.44336347928993
 31
0.0
  0
LINE
  5
36D
330
6F
100
AcDbEntity
  8
GEO_
 62
     7
420
 16777215
100
AcDbLine
 10
-83.49999999999999
 20
44.44336347928993
 30
0.0
 11
-83.65000000000001
 21
44.67950493102619
 31
0.0
  0
LINE
  5
36E
330
6F
100
AcDbEntity
  8
GEO_
 62
     7
420
 16777215
100
AcDbLine
 10
-83.65000000000001
 20
44.67950493102619
 30
0.0
 11
-83.34583333333332
 21
45.2311436297901
 31
0.0
  0
LINE
  5
36F
330
6F
100
AcDbEntity
  8
GEO_
 62
     7
420
 16777215
100
AcDbLine
 10
-83.34583333333332
 20
45.2311436297901
 30
0.0
 11
-83.25435555555555
 21
45.54334426320163
 31
0.0
  0
LINE
  5
370
330
6F
100
AcDbEntity
  8
GEO_
 62
     7
420
 16777215
100
AcDbLine
 10
-83.02275555555555
 20
45.5141474214194
 30
0.0
 11
-82.84833333333333
 21
45.48607412381707
 31
0.0
  0
LINE
  5
371
330
6F
100
AcDbEntity
  8
GEO_
 62
     7
420
 16777215
100
AcDbLine
 10
-82.84833333333333
 20
45.48607412381707
 30
0.0
 11
-82.79858888888886
 21
45.48199673916061
 31
0.0
  0
LINE
  5
372
330
6F
100
AcDbEntity
  8
GEO_
 62
     7
420
 16777215
100
AcDbLine
 10
-82.79858888888886
 20
45.48199673916061
 30
0.0
 11
-82.54245
 21
45.51775623586837
 31
0.0
  0
LINE
  5
373
330
6F
100
AcDbEntity
  8
GEO_
 62
     7
420
 16777215
100
AcDbLine
 10
-82.54245
 20
45.51775623586837
 30
0.0
 11
-82.5239
 21
45.23609103332139
 31
0.0
  0
LINE
  5
374
330
6F
100
AcDbEntity
  8
GEO_
 62
     7
420
 16777215
100
AcDbLine
 10
-82.5239
 20
45.23609103332139
 30
0.0
 11
-82.51762777777775
 21
45.14179932417075
 31
0.0
  0
LINE
  5
375
330
6F
100
AcDbEntity
  8
GEO_
 62
     7
420
 16777215
100
AcDbLine
 10
-82.51762777777775
 20
45.14179932417075
 30
0.0
 11
-82.52792777777775
 21
45.14059050404782
 31
0.0
  0
LINE
  5
376
330
6F
100
AcDbEntity
  8
GEO_
 62
     7
420
 16777215
100
AcDbLine
 10
-82.52792777777775
 20
45.14059050404782
 30
0.0
 11
-82.61694444444444
 21
45.04356363848006
 31
0.0
  0
LINE
  5
377
330
6F
100
AcDbEntity
  8
GEO_
 62
     7
420
 16777215
100
AcDbLine
 10
-82.61694444444444
 20
45.04356363848006
 30
0.0
 11
-82.74166666666667
 21
44.9052560815029
 31
0.0
  0
LINE
  5
378
330
6F
100
AcDbEntity
  8
GEO_
 62
     7
420
 16777215
100
AcDbLine
 10
-82.74166666666667
 20
44.9052560815029
 30
0.0
 11
-83.16222222222222
 21
44.39365317220624
 31
0.0
  0
LINE
  5
379
330
6F
100
AcDbEntity
  8
GEO_
 62
     7
420
 16777215
100
AcDbLine
 10
-83.16222222222222
 20
44.39365317220624
 30
0.0
 11
-83.33333333333333
 21
44.37757642447464
 31
0.0
  0
LINE
  5
37A
330
6F
100
AcDbEntity
  8
GEO_
 62
     7
420
 16777215
100
AcDbLine
 10
-83.33333333333333
 20
44.37757642447464
 30
0.0
 11
-83.42500000000002
 21
44.32826831536615
 31
0.0
  0
LINE
  5
37B
330
6F
100
AcDbEntity
  8
GEO_
 62
     7
420
 16777215
100
AcDbLine
 10
-83.42500000000002
 20
44.32826831536615
 30
0.0
 11
-83.49999999999999
 21
44.44336347928993
 31
0.0
  0
LINE
  5
37C
330
6F
100
AcDbEntity
  8
GEO_
 62
     7
420
 16777215
100
AcDbLine
 10
-83.49999999999999
 20
44.44336347928993
 30
0.0
 11
-83.65000000000001
 21
44.67950493102619
 31
0.0
  0
LINE
  5
37D
330
6F
100
AcDbEntity
  8
GEO_
 62
     7
420
 16777215
100
AcDbLine
 10
-83.65000000000001
 20
44.67950493102619
 30
0.0
 11
-83.34583333333332
 21
45.2311436297901
 31
0.0
  0
LINE
  5
37E
330
6F
100
AcDbEntity
  8
GEO_
 62
     7
420
 16777215
100
AcDbLine
 10
-83.34583333333332
 20
45.2311436297901
 30
0.0
 11
-83.25435555555555
 21
45.54334426320163
 31
0.0
  0
LINE
  5
37F
330
6F
100
AcDbEntity
  8
GEO_
 62
     7
420
 16777215
100
AcDbLine
 10
-83.25435555555555
 20
45.54334426320163
 30
0.0
 11
-83.02275555555555
 21
45.5141474214194
 31
0.0
  0
LINE
  5
380
330
6F
100
AcDbEntity
  8
GEO_
 62
     7
420
 16777215
100
AcDbLine
 10
-83.02275555555555
 20
45.5141474214194
 30
0.0
 11
-83.02275555555555
 21
45.5141474214194
 31
0.0
  0
LINE
  5
381
330
6F
100
AcDbEntity
  8
GEO_
 62
     7
420
 16777215
100
AcDbLine
 10
-83.02275555555555
 20
45.5141474214194
 30
0.0
 11
-83.25435555555555
 21
45.54334426320163
 31
0.0
  0
LINE
  5
382
330
6F
100
AcDbEntity
  8
GEO_
 62
     7
420
 16777215
100
AcDbLine
 10
-83.02275555555555
 20
45.5141474214194
 30
0.0
 11
-82.84833333333333
 21
45.48607412381707
 31
0.0
  0
LINE
  5
383
330
6F
100
AcDbEntity
  8
GEO_
 62
     7
420
 16777215
100
AcDbLine
 10
-82.84833333333333
 20
45.48607412381707
 30
0.0
 11
-82.84833333333333
 21
45.48607412381707
 31
0.0
  0
LINE
  5
384
330
6F
100
AcDbEntity
  8
GEO_
 62
     7
420
 16777215
100
AcDbLine
 10
-82.84833333333333
 20
45.48607412381707
 30
0.0
 11
-83.02275555555555
 21
45.5141474214194
 31
0.0
  0
LINE
  5
385
330
6F
100
AcDbEntity
  8
GEO_
 62
     7
420
 16777215
100
AcDbLine
 10
-82.84833333333333
 20
45.48607412381707
 30
0.0
 11
-82.79858888888886
 21
45.48199673916061
 31
0.0
  0
LINE
  5
386
330
6F
100
AcDbEntity
  8
GEO_
 62
     7
420
 16777215
100
AcDbLine
 10
-82.79858888888886
 20
45.48199673916061
 30
0.0
 11
-82.79858888888886
 21
45.48199673916061
 31
0.0
  0
LINE
  5
387
330
6F
100
AcDbEntity
  8
GEO_
 62
     7
420
 16777215
100
AcDbLine
 10
-82.79858888888886
 20
45.48199673916061
 30
0.0
 11
-82.84833333333333
 21
45.48607412381707
 31
0.0
  0
LINE
  5
388
330
6F
100
AcDbEntity
  8
GEO_
 62
     7
420
 16777215
100
AcDbLine
 10
-82.79858888888886
 20
45.48199673916061
 30
0.0
 11
-82.54245
 21
45.51775623586837
 31
0.0
  0
LINE
  5
389
330
6F
100
AcDbEntity
  8
GEO_
 62
     7
420
 16777215
100
AcDbLine
 10
-82.54245
 20
45.51775623586837
 30
0.0
 11
-82.54245
 21
45.51775623586837
 31
0.0
  0
LINE
  5
38A
330
6F
100
AcDbEntity
  8
GEO_
 62
     7
420
 16777215
100
AcDbLine
 10
-82.54245
 20
45.51775623586837
 30
0.0
 11
-82.79858888888886
 21
45.48199673916061
 31
0.0
  0
LINE
  5
38B
330
6F
100
AcDbEntity
  8
GEO_
 62
     7
420
 16777215
100
AcDbLine
 10
-82.54245
 20
45.51775623586837
 30
0.0
 11
-82.5239
 21
45.23609103332139
 31
0.0
  0
LINE
  5
38C
330
6F
100
AcDbEntity
  8
GEO_
 62
     7
420
 16777215
100
AcDbLine
 10
-82.5239
 20
45.23609103332139
 30
0.0
 11
-82.5239
 21
45.23609103332139
 31
0.0
  0
LINE
  5
38D
330
6F
100
AcDbEntity
  8
GEO_
 62
     7
420
 16777215
100
AcDbLine
 10
-82.5239
 20
45.23609103332139
 30
0.0
 11
-82.54245
 21
45.51775623586837
 31
0.0
  0
LINE
  5
38E
330
6F
100
AcDbEntity
  8
GEO_
 62
     7
420
 16777215
100
AcDbLine
 10
-82.5239
 20
45.23609103332139
 30
0.0
 11
-82.51762777777775
 21
45.14179932417075
 31
0.0
  0
LINE
  5
38F
330
6F
100
AcDbEntity
  8
GEO_
 62
     7
420
 16777215
100
AcDbLine
 10
-82.51762777777775
 20
45.14179932417075
 30
0.0
 11
-82.51762777777775
 21
45.14179932417075
 31
0.0
  0
LINE
  5
390
330
6F
100
AcDbEntity
  8
GEO_
 62
     7
420
 16777215
100
AcDbLine
 10
-82.51762777777775
 20
45.14179932417075
 30
0.0
 11
-82.5239
 21
45.23609103332139
 31
0.0
  0
LINE
  5
391
330
6F
100
AcDbEntity
  8
GEO_
 62
     7
420
 16777215
100
AcDbLine
 10
-82.51762777777775
 20
45.14179932417075
 30
0.0
 11
-82.52792777777775
 21
45.14059050404782
 31
0.0
  0
LINE
  5
392
330
6F
100
AcDbEntity
  8
GEO_
 62
     7
420
 16777215
100
AcDbLine
 10
-82.52792777777775
 20
45.14059050404782
 30
0.0
 11
-82.52792777777775
 21
45.14059050404782
 31
0.0
  0
LINE
  5
393
330
6F
100
AcDbEntity
  8
GEO_
 62
     7
420
 16777215
100
AcDbLine
 10
-82.52792777777775
 20
45.14059050404782
 30
0.0
 11
-82.51762777777775
 21
45.14179932417075
 31
0.0
  0
LINE
  5
394
330
6F
100
AcDbEntity
  8
GEO_
 62
     7
420
 16777215
100
AcDbLine
 10
-82.52792777777775
 20
45.14059050404782
 30
0.0
 11
-82.61694444444444
 21
45.04356363848006
 31
0.0
  0
LINE
  5
395
330
6F
100
AcDbEntity
  8
GEO_
 62
     7
420
 16777215
100
AcDbLine
 10
-82.61694444444444
 20
45.04356363848006
 30
0.0
 11
-82.61694444444444
 21
45.04356363848006
 31
0.0
  0
LINE
  5
396
330
6F
100
AcDbEntity
  8
GEO_
 62
     7
420
 16777215
100
AcDbLine
 10
-82.61694444444444
 20
45.04356363848006
 30
0.0
 11
-82.52792777777775
 21
45.14059050404782
 31
0.0
  0
LINE
  5
397
330
6F
100
AcDbEntity
  8
GEO_
 62
     7
420
 16777215
100
AcDbLine
 10
-82.61694444444444
 20
45.04356363848006
 30
0.0
 11
-82.74166666666667
 21
44.9052560815029
 31
0.0
  0
LINE
  5
398
330
6F
100
AcDbEntity
  8
GEO_
 62
     7
420
 16777215
100
AcDbLine
 10
-82.74166666666667
 20
44.9052560815029
 30
0.0
 11
-82.74166666666667
 21
44.9052560815029
 31
0.0
  0
LINE
  5
399
330
6F
100
AcDbEntity
  8
GEO_
 62
     7
420
 16777215
100
AcDbLine
 10
-82.74166666666667
 20
44.9052560815029
 30
0.0
 11
-82.61694444444444
 21
45.04356363848006
 31
0.0
  0
LINE
  5
39A
330
6F
100
AcDbEntity
  8
GEO_
 62
     7
420
 16777215
100
AcDbLine
 10
-82.74166666666667
 20
44.9052560815029
 30
0.0
 11
-83.16222222222222
 21
44.39365317220624
 31
0.0
  0
LINE
  5
39B
330
6F
100
AcDbEntity
  8
GEO_
 62
     7
420
 16777215
100
AcDbLine
 10
-83.16222222222222
 20
44.39365317220624
 30
0.0
 11
-83.16222222222222
 21
44.39365317220624
 31
0.0
  0
LINE
  5
39C
330
6F
100
AcDbEntity
  8
GEO_
 62
     7
420
 16777215
100
AcDbLine
 10
-83.16222222222222
 20
44.39365317220624
 30
0.0
 11
-82.74166666666667
 21
44.9052560815029
 31
0.0
  0
LINE
  5
39D
330
6F
100
AcDbEntity
  8
GEO_
 62
     7
420
 16777215
100
AcDbLine
 10
-83.16222222222222
 20
44.39365317220624
 30
0.0
 11
-83.33333333333333
 21
44.37757642447464
 31
0.0
  0
LINE
  5
39E
330
6F
100
AcDbEntity
  8
GEO_
 62
     7
420
 16777215
100
AcDbLine
 10
-83.33333333333333
 20
44.37757642447464
 30
0.0
 11
-83.33333333333333
 21
44.37757642447464
 31
0.0
  0
LINE
  5
39F
330
6F
100
AcDbEntity
  8
GEO_
 62
     7
420
 16777215
100
AcDbLine
 10
-83.33333333333333
 20
44.37757642447464
 30
0.0
 11
-83.16222222222222
 21
44.39365317220624
 31
0.0
  0
LINE
  5
3A0
330
6F
100
AcDbEntity
  8
GEO_
 62
     7
420
 16777215
100
AcDbLine
 10
-83.33333333333333
 20
44.37757642447464
 30
0.0
 11
-83.42500000000002
 21
44.32826831536615
 31
0.0
  0
LINE
  5
3A1
330
6F
100
AcDbEntity
  8
GEO_
 62
     7
420
 16777215
100
AcDbLine
 10
-83.42500000000002
 20
44.32826831536615
 30
0.0
 11
-83.42500000000002
 21
44.32826831536615
 31
0.0
  0
LINE
  5
3A2
330
6F
100
AcDbEntity
  8
GEO_
 62
     7
420
 16777215
100
AcDbLine
 10
-83.42500000000002
 20
44.32826831536615
 30
0.0
 11
-83.33333333333333
 21
44.37757642447464
 31
0.0
  0
LINE
  5
3A3
330
6F
100
AcDbEntity
  8
GEO_
 62
     7
420
 16777215
100
AcDbLine
 10
-83.42500000000002
 20
44.32826831536615
 30
0.0
 11
-83.49999999999999
 21
44.44336347928993
 31
0.0
  0
LINE
  5
3A4
330
6F
100
AcDbEntity
  8
GEO_
 62
     7
420
 16777215
100
AcDbLine
 10
-83.49999999999999
 20
44.44336347928993
 30
0.0
 11
-83.49999999999999
 21
44.44336347928993
 31
0.0
  0
LINE
  5
3A5
330
6F
100
AcDbEntity
  8
GEO_
 62
     7
420
 16777215
100
AcDbLine
 10
-83.49999999999999
 20
44.44336347928993
 30
0.0
 11
-83.42500000000002
 21
44.32826831536615
 31
0.0
  0
LINE
  5
3A6
330
6F
100
AcDbEntity
  8
GEO_
 62
     7
420
 16777215
100
AcDbLine
 10
-83.49999999999999
 20
44.44336347928993
 30
0.0
 11
-83.65000000000001
 21
44.67950493102619
 31
0.0
  0
LINE
  5
3A7
330
6F
100
AcDbEntity
  8
GEO_
 62
     7
420
 16777215
100
AcDbLine
 10
-83.65000000000001
 20
44.67950493102619
 30
0.0
 11
-83.65000000000001
 21
44.67950493102619
 31
0.0
  0
LINE
  5
3A8
330
6F
100
AcDbEntity
  8
GEO_
 62
     7
420
 16777215
100
AcDbLine
 10
-83.65000000000001
 20
44.67950493102619
 30
0.0
 11
-83.49999999999999
 21
44.44336347928993
 31
0.0
  0
LINE
  5
3A9
330
6F
100
AcDbEntity
  8
GEO_
 62
     7
420
 16777215
100
AcDbLine
 10
-83.65000000000001
 20
44.67950493102619
 30
0.0
 11
-83.34583333333332
 21
45.2311436297901
 31
0.0
  0
LINE
  5
3AA
330
6F
100
AcDbEntity
  8
GEO_
 62
     7
420
 16777215
100
AcDbLine
 10
-83.34583333333332
 20
45.2311436297901
 30
0.0
 11
-83.34583333333332
 21
45.2311436297901
 31
0.0
  0
LINE
  5
3AB
330
6F
100
AcDbEntity
  8
GEO_
 62
     7
420
 16777215
100
AcDbLine
 10
-83.34583333333332
 20
45.2311436297901
 30
0.0
 11
-83.65000000000001
 21
44.67950493102619
 31
0.0
  0
LINE
  5
3AC
330
6F
100
AcDbEntity
  8
GEO_
 62
     7
420
 16777215
100
AcDbLine
 10
-83.34583333333332
 20
45.2311436297901
 30
0.0
 11
-83.25435555555555
 21
45.54334426320163
 31
0.0
  0
LINE
  5
3AD
330
6F
100
AcDbEntity
  8
GEO_
 62
     7
420
 16777215
100
AcDbLine
 10
-83.25435555555555
 20
45.54334426320163
 30
0.0
 11
-83.25435555555555
 21
45.54334426320163
 31
0.0
  0
LINE
  5
3AE
330
6F
100
AcDbEntity
  8
GEO_
 62
     7
420
 16777215
100
AcDbLine
 10
-83.25435555555555
 20
45.54334426320163
 30
0.0
 11
-83.34583333333332
 21
45.2311436297901
 31
0.0
  0
LINE
  5
3AF
330
6F
100
AcDbEntity
  8
GEO_
 62
     7
420
 16777215
100
AcDbLine
 10
-83.02275555555555
 20
45.5141474214194
 30
0.0
 11
-82.84833333333333
 21
45.48607412381707
 31
0.0
  0
LINE
  5
3B0
330
6F
100
AcDbEntity
  8
GEO_
 62
     7
420
 16777215
100
AcDbLine
 10
-82.84833333333333
 20
45.48607412381707
 30
0.0
 11
-82.79858888888886
 21
45.48199673916061
 31
0.0
  0
LINE
  5
3B1
330
6F
100
AcDbEntity
  8
GEO_
 62
     7
420
 16777215
100
AcDbLine
 10
-82.79858888888886
 20
45.48199673916061
 30
0.0
 11
-82.54245
 21
45.51775623586837
 31
0.0
  0
LINE
  5
3B5
330
6F
100
AcDbEntity
  8
GEO_
 62
     7
420
 16777215
100
AcDbLine
 10
-81.9111111111111
 20
45.84015413471408
 30
0.0
 11
-81.79444444444444
 21
45.58158860677155
 31
0.0
  0
LINE
  5
3B6
330
6F
100
AcDbEntity
  8
GEO_
 62
     7
420
 16777215
100
AcDbLine
 10
-81.79444444444444
 20
45.58158860677155
 30
0.0
 11
-81.95833333333334
 21
45.3677524834445
 31
0.0
  0
LINE
  5
3B7
330
6F
100
AcDbEntity
  8
GEO_
 62
     7
420
 16777215
100
AcDbLine
 10
-81.95833333333334
 20
45.3677524834445
 30
0.0
 11
-82.44874166666669
 21
45.16988699888992
 31
0.0
  0
LINE
  5
3B8
330
6F
100
AcDbEntity
  8
GEO_
 62
     7
420
 16777215
100
AcDbLine
 10
-82.44874166666669
 20
45.16988699888992
 30
0.0
 11
-82.51762777777775
 21
45.14179932417075
 31
0.0
  0
LINE
  5
3B9
330
6F
100
AcDbEntity
  8
GEO_
 62
     7
420
 16777215
100
AcDbLine
 10
-82.51762777777775
 20
45.14179932417075
 30
0.0
 11
-82.52792777777775
 21
45.14059050404782
 31
0.0
  0
LINE
  5
3BA
330
6F
100
AcDbEntity
  8
GEO_
 62
     7
420
 16777215
100
AcDbLine
 10
-82.52792777777775
 20
45.14059050404782
 30
0.0
 11
-82.61694444444444
 21
45.04356363848006
 31
0.0
  0
LINE
  5
3BB
330
6F
100
AcDbEntity
  8
GEO_
 62
     7
420
 16777215
100
AcDbLine
 10
-82.61694444444444
 20
45.04356363848006
 30
0.0
 11
-82.74166666666667
 21
44.9052560815029
 31
0.0
  0
LINE
  5
3BC
330
6F
100
AcDbEntity
  8
GEO_
 62
     7
420
 16777215
100
AcDbLine
 10
-82.74166666666667
 20
44.9052560815029
 30
0.0
 11
-83.16222222222222
 21
44.39365317220624
 31
0.0
  0
LINE
  5
3BD
330
6F
100
AcDbEntity
  8
GEO_
 62
     7
420
 16777215
100
AcDbLine
 10
-83.16222222222222
 20
44.39365317220624
 30
0.0
 11
-83.33333333333333
 21
44.37757642447464
 31
0.0
  0
LINE
  5
3BE
330
6F
100
AcDbEntity
  8
GEO_
 62
     7
420
 16777215
100
AcDbLine
 10
-83.33333333333333
 20
44.37757642447464
 30
0.0
 11
-83.42500000000002
 21
44.32826831536615
 31
0.0
  0
LINE
  5
3BF
330
6F
100
AcDbEntity
  8
GEO_
 62
     7
420
 16777215
100
AcDbLine
 10
-83.42500000000002
 20
44.32826831536615
 30
0.0
 11
-83.49999999999999
 21
44.44336347928993
 31
0.0
  0
LINE
  5
3C0
330
6F
100
AcDbEntity
  8
GEO_
 62
     7
420
 16777215
100
AcDbLine
 10
-83.49999999999999
 20
44.44336347928993
 30
0.0
 11
-83.65000000000001
 21
44.67950493102619
 31
0.0
  0
LINE
  5
3C1
330
6F
100
AcDbEntity
  8
GEO_
 62
     7
420
 16777215
100
AcDbLine
 10
-83.65000000000001
 20
44.67950493102619
 30
0.0
 11
-83.34583333333332
 21
45.2311436297901
 31
0.0
  0
LINE
  5
3C2
330
6F
100
AcDbEntity
  8
GEO_
 62
     7
420
 16777215
100
AcDbLine
 10
-83.34583333333332
 20
45.2311436297901
 30
0.0
 11
-83.25435555555555
 21
45.54334426320163
 31
0.0
  0
LINE
  5
3C3
330
6F
100
AcDbEntity
  8
GEO_
 62
     7
420
 16777215
100
AcDbLine
 10
-83.02275555555555
 20
45.5141474214194
 30
0.0
 11
-82.84833333333333
 21
45.48607412381707
 31
0.0
  0
LINE
  5
3C4
330
6F
100
AcDbEntity
  8
GEO_
 62
     7
420
 16777215
100
AcDbLine
 10
-82.84833333333333
 20
45.48607412381707
 30
0.0
 11
-82.79858888888886
 21
45.48199673916061
 31
0.0
  0
LINE
  5
3C5
330
6F
100
AcDbEntity
  8
GEO_
 62
     7
420
 16777215
100
AcDbLine
 10
-82.79858888888886
 20
45.48199673916061
 30
0.0
 11
-82.54245
 21
45.51775623586837
 31
0.0
  0
LINE
  5
3C9
330
6F
100
AcDbEntity
  8
GEO_
 62
     7
420
 16777215
100
AcDbLine
 10
-81.9111111111111
 20
45.84015413471408
 30
0.0
 11
-81.79444444444444
 21
45.58158860677155
 31
0.0
  0
LINE
  5
3CA
330
6F
100
AcDbEntity
  8
GEO_
 62
     7
420
 16777215
100
AcDbLine
 10
-81.79444444444444
 20
45.58158860677155
 30
0.0
 11
-81.95833333333334
 21
45.3677524834445
 31
0.0
  0
LINE
  5
3CB
330
6F
100
AcDbEntity
  8
GEO_
 62
     7
420
 16777215
100
AcDbLine
 10
-81.95833333333334
 20
45.3677524834445
 30
0.0
 11
-82.44874166666669
 21
45.16988699888992
 31
0.0
  0
LINE
  5
3CC
330
6F
100
AcDbEntity
  8
GEO_
 62
     7
420
 16777215
100
AcDbLine
 10
-82.44874166666669
 20
45.16988699888992
 30
0.0
 11
-82.51762777777775
 21
45.14179932417075
 31
0.0
  0
LINE
  5
3CD
330
6F
100
AcDbEntity
  8
GEO_
 62
     7
420
 16777215
100
AcDbLine
 10
-82.51762777777775
 20
45.14179932417075
 30
0.0
 11
-82.52792777777775
 21
45.14059050404782
 31
0.0
  0
LINE
  5
3CE
330
6F
100
AcDbEntity
  8
GEO_
 62
     7
420
 16777215
100
AcDbLine
 10
-82.52792777777775
 20
45.14059050404782
 30
0.0
 11
-82.61694444444444
 21
45.04356363848006
 31
0.0
  0
LINE
  5
3CF
330
6F
100
AcDbEntity
  8
GEO_
 62
     7
420
 16777215
100
AcDbLine
 10
-82.61694444444444
 20
45.04356363848006
 30
0.0
 11
-82.74166666666667
 21
44.9052560815029
 31
0.0
  0
LINE
  5
3D0
330
6F
100
AcDbEntity
  8
GEO_
 62
     7
420
 16777215
100
AcDbLine
 10
-82.74166666666667
 20
44.9052560815029
 30
0.0
 11
-83.16222222222222
 21
44.39365317220624
 31
0.0
  0
LINE
  5
3D1
330
6F
100
AcDbEntity
  8
GEO_
 62
     7
420
 16777215
100
AcDbLine
 10
-83.16222222222222
 20
44.39365317220624
 30
0.0
 11
-83.33333333333333
 21
44.37757642447464
 31
0.0
  0
LINE
  5
3D2
330
6F
100
AcDbEntity
  8
GEO_
 62
     7
420
 16777215
100
AcDbLine
 10
-83.33333333333333
 20
44.37757642447464
 30
0.0
 11
-83.42500000000002
 21
44.32826831536615
 31
0.0
  0
LINE
  5
3D3
330
6F
100
AcDbEntity
  8
GEO_
 62
     7
420
 16777215
100
AcDbLine
 10
-83.42500000000002
 20
44.32826831536615
 30
0.0
 11
-83.49999999999999
 21
44.44336347928993
 31
0.0
  0
LINE
  5
3D4
330
6F
100
AcDbEntity
  8
GEO_
 62
     7
420
 16777215
100
AcDbLine
 10
-83.49999999999999
 20
44.44336347928993
 30
0.0
 11
-83.65000000000001
 21
44.67950493102619
 31
0.0
  0
LINE
  5
3D5
330
6F
100
AcDbEntity
  8
GEO_
 62
     7
420
 16777215
100
AcDbLine
 10
-83.65000000000001
 20
44.67950493102619
 30
0.0
 11
-83.34583333333332
 21
45.2311436297901
 31
0.0
  0
LINE
  5
3D6
330
6F
100
AcDbEntity
  8
GEO_
 62
     7
420
 16777215
100
AcDbLine
 10
-83.34583333333332
 20
45.2311436297901
 30
0.0
 11
-83.25435555555555
 21
45.54334426320163
 31
0.0
  0
LINE
  5
3D7
330
6F
100
AcDbEntity
  8
GEO_
 62
     7
420
 16777215
100
AcDbLine
 10
-83.25435555555555
 20
45.54334426320163
 30
0.0
 11
-83.02275555555555
 21
45.5141474214194
 31
0.0
  0
LINE
  5
3D8
330
6F
100
AcDbEntity
  8
GEO_
 62
     7
420
 16777215
100
AcDbLine
 10
-83.02275555555555
 20
45.5141474214194
 30
0.0
 11
-83.02275555555555
 21
45.5141474214194
 31
0.0
  0
LINE
  5
3D9
330
6F
100
AcDbEntity
  8
GEO_
 62
     7
420
 16777215
100
AcDbLine
 10
-83.02275555555555
 20
45.5141474214194
 30
0.0
 11
-83.25435555555555
 21
45.54334426320163
 31
0.0
  0
LINE
  5
3DA
330
6F
100
AcDbEntity
  8
GEO_
 62
     7
420
 16777215
100
AcDbLine
 10
-83.02275555555555
 20
45.5141474214194
 30
0.0
 11
-82.84833333333333
 21
45.48607412381707
 31
0.0
  0
LINE
  5
3DB
330
6F
100
AcDbEntity
  8
GEO_
 62
     7
420
 16777215
100
AcDbLine
 10
-82.84833333333333
 20
45.48607412381707
 30
0.0
 11
-82.84833333333333
 21
45.48607412381707
 31
0.0
  0
LINE
  5
3DC
330
6F
100
AcDbEntity
  8
GEO_
 62
     7
420
 16777215
100
AcDbLine
 10
-82.84833333333333
 20
45.48607412381707
 30
0.0
 11
-83.02275555555555
 21
45.5141474214194
 31
0.0
  0
LINE
  5
3DD
330
6F
100
AcDbEntity
  8
GEO_
 62
     7
420
 16777215
100
AcDbLine
 10
-82.84833333333333
 20
45.48607412381707
 30
0.0
 11
-82.79858888888886
 21
45.48199673916061
 31
0.0
  0
LINE
  5
3DE
330
6F
100
AcDbEntity
  8
GEO_
 62
     7
420
 16777215
100
AcDbLine
 10
-82.79858888888886
 20
45.48199673916061
 30
0.0
 11
-82.79858888888886
 21
45.48199673916061
 31
0.0
  0
LINE
  5
3DF
330
6F
100
AcDbEntity
  8
GEO_
 62
     7
420
 16777215
100
AcDbLine
 10
-82.79858888888886
 20
45.48199673916061
 30
0.0
 11
-82.84833333333333
 21
45.48607412381707
 31
0.0
  0
LINE
  5
3E0
330
6F
100
AcDbEntity
  8
GEO_
 62
     7
420
 16777215
100
AcDbLine
 10
-82.79858888888886
 20
45.48199673916061
 30
0.0
 11
-82.54245
 21
45.51775623586837
 31
0.0
  0
LINE
  5
3E1
330
6F
100
AcDbEntity
  8
GEO_
 62
     7
420
 16777215
100
AcDbLine
 10
-82.54245
 20
45.51775623586837
 30
0.0
 11
-82.54245
 21
45.51775623586837
 31
0.0
  0
LINE
  5
3E2
330
6F
100
AcDbEntity
  8
GEO_
 62
     7
420
 16777215
100
AcDbLine
 10
-82.54245
 20
45.51775623586837
 30
0.0
 11
-82.79858888888886
 21
45.48199673916061
 31
0.0
  0
LINE
  5
3EA
330
6F
100
AcDbEntity
  8
GEO_
 62
     7
420
 16777215
100
AcDbLine
 10
-81.9111111111111
 20
45.84015413471408
 30
0.0
 11
-81.9111111111111
 21
45.84015413471408
 31
0.0
  0
LINE
  5
3EC
330
6F
100
AcDbEntity
  8
GEO_
 62
     7
420
 16777215
100
AcDbLine
 10
-81.9111111111111
 20
45.84015413471408
 30
0.0
 11
-81.79444444444444
 21
45.58158860677155
 31
0.0
  0
LINE
  5
3ED
330
6F
100
AcDbEntity
  8
GEO_
 62
     7
420
 16777215
100
AcDbLine
 10
-81.79444444444444
 20
45.58158860677155
 30
0.0
 11
-81.79444444444444
 21
45.58158860677155
 31
0.0
  0
LINE
  5
3EE
330
6F
100
AcDbEntity
  8
GEO_
 62
     7
420
 16777215
100
AcDbLine
 10
-81.79444444444444
 20
45.58158860677155
 30
0.0
 11
-81.9111111111111
 21
45.84015413471408
 31
0.0
  0
LINE
  5
3EF
330
6F
100
AcDbEntity
  8
GEO_
 62
     7
420
 16777215
100
AcDbLine
 10
-81.79444444444444
 20
45.58158860677155
 30
0.0
 11
-81.95833333333334
 21
45.3677524834445
 31
0.0
  0
LINE
  5
3F0
330
6F
100
AcDbEntity
  8
GEO_
 62
     7
420
 16777215
100
AcDbLine
 10
-81.95833333333334
 20
45.3677524834445
 30
0.0
 11
-81.95833333333334
 21
45.3677524834445
 31
0.0
  0
LINE
  5
3F1
330
6F
100
AcDbEntity
  8
GEO_
 62
     7
420
 16777215
100
AcDbLine
 10
-81.95833333333334
 20
45.3677524834445
 30
0.0
 11
-81.79444444444444
 21
45.58158860677155
 31
0.0
  0
LINE
  5
3F2
330
6F
100
AcDbEntity
  8
GEO_
 62
     7
420
 16777215
100
AcDbLine
 10
-81.95833333333334
 20
45.3677524834445
 30
0.0
 11
-82.44874166666669
 21
45.16988699888992
 31
0.0
  0
LINE
  5
3F3
330
6F
100
AcDbEntity
  8
GEO_
 62
     7
420
 16777215
100
AcDbLine
 10
-82.44874166666669
 20
45.16988699888992
 30
0.0
 11
-82.44874166666669
 21
45.16988699888992
 31
0.0
  0
LINE
  5
3F4
330
6F
100
AcDbEntity
  8
GEO_
 62
     7
420
 16777215
100
AcDbLine
 10
-82.44874166666669
 20
45.16988699888992
 30
0.0
 11
-81.95833333333334
 21
45.3677524834445
 31
0.0
  0
LINE
  5
3F5
330
6F
100
AcDbEntity
  8
GEO_
 62
     7
420
 16777215
100
AcDbLine
 10
-82.44874166666669
 20
45.16988699888992
 30
0.0
 11
-82.51762777777775
 21
45.14179932417075
 31
0.0
  0
LINE
  5
3F6
330
6F
100
AcDbEntity
  8
GEO_
 62
     7
420
 16777215
100
AcDbLine
 10
-82.51762777777775
 20
45.14179932417075
 30
0.0
 11
-82.51762777777775
 21
45.14179932417075
 31
0.0
  0
LINE
  5
3F7
330
6F
100
AcDbEntity
  8
GEO_
 62
     7
420
 16777215
100
AcDbLine
 10
-82.51762777777775
 20
45.14179932417075
 30
0.0
 11
-82.44874166666669
 21
45.16988699888992
 31
0.0
  0
LINE
  5
3F8
330
6F
100
AcDbEntity
  8
GEO_
 62
     7
420
 16777215
100
AcDbLine
 10
-82.51762777777775
 20
45.14179932417075
 30
0.0
 11
-82.52792777777775
 21
45.14059050404782
 31
0.0
  0
LINE
  5
3F9
330
6F
100
AcDbEntity
  8
GEO_
 62
     7
420
 16777215
100
AcDbLine
 10
-82.52792777777775
 20
45.14059050404782
 30
0.0
 11
-82.52792777777775
 21
45.14059050404782
 31
0.0
  0
LINE
  5
3FA
330
6F
100
AcDbEntity
  8
GEO_
 62
     7
420
 16777215
100
AcDbLine
 10
-82.52792777777775
 20
45.14059050404782
 30
0.0
 11
-82.51762777777775
 21
45.14179932417075
 31
0.0
  0
LINE
  5
3FB
330
6F
100
AcDbEntity
  8
GEO_
 62
     7
420
 16777215
100
AcDbLine
 10
-82.52792777777775
 20
45.14059050404782
 30
0.0
 11
-82.61694444444444
 21
45.04356363848006
 31
0.0
  0
LINE
  5
3FC
330
6F
100
AcDbEntity
  8
GEO_
 62
     7
420
 16777215
100
AcDbLine
 10
-82.61694444444444
 20
45.04356363848006
 30
0.0
 11
-82.61694444444444
 21
45.04356363848006
 31
0.0
  0
LINE
  5
3FD
330
6F
100
AcDbEntity
  8
GEO_
 62
     7
420
 16777215
100
AcDbLine
 10
-82.61694444444444
 20
45.04356363848006
 30
0.0
 11
-82.52792777777775
 21
45.14059050404782
 31
0.0
  0
LINE
  5
3FE
330
6F
100
AcDbEntity
  8
GEO_
 62
     7
420
 16777215
100
AcDbLine
 10
-82.61694444444444
 20
45.04356363848006
 30
0.0
 11
-82.74166666666667
 21
44.9052560815029
 31
0.0
  0
LINE
  5
3FF
330
6F
100
AcDbEntity
  8
GEO_
 62
     7
420
 16777215
100
AcDbLine
 10
-82.74166666666667
 20
44.9052560815029
 30
0.0
 11
-82.74166666666667
 21
44.9052560815029
 31
0.0
  0
LINE
  5
400
330
6F
100
AcDbEntity
  8
GEO_
 62
     7
420
 16777215
100
AcDbLine
 10
-82.74166666666667
 20
44.9052560815029
 30
0.0
 11
-82.61694444444444
 21
45.04356363848006
 31
0.0
  0
LINE
  5
401
330
6F
100
AcDbEntity
  8
GEO_
 62
     7
420
 16777215
100
AcDbLine
 10
-82.74166666666667
 20
44.9052560815029
 30
0.0
 11
-83.16222222222222
 21
44.39365317220624
 31
0.0
  0
LINE
  5
402
330
6F
100
AcDbEntity
  8
GEO_
 62
     7
420
 16777215
100
AcDbLine
 10
-83.16222222222222
 20
44.39365317220624
 30
0.0
 11
-83.16222222222222
 21
44.39365317220624
 31
0.0
  0
LINE
  5
403
330
6F
100
AcDbEntity
  8
GEO_
 62
     7
420
 16777215
100
AcDbLine
 10
-83.16222222222222
 20
44.39365317220624
 30
0.0
 11
-82.74166666666667
 21
44.9052560815029
 31
0.0
  0
LINE
  5
404
330
6F
100
AcDbEntity
  8
GEO_
 62
     7
420
 16777215
100
AcDbLine
 10
-83.16222222222222
 20
44.39365317220624
 30
0.0
 11
-83.33333333333333
 21
44.37757642447464
 31
0.0
  0
LINE
  5
405
330
6F
100
AcDbEntity
  8
GEO_
 62
     7
420
 16777215
100
AcDbLine
 10
-83.33333333333333
 20
44.37757642447464
 30
0.0
 11
-83.33333333333333
 21
44.37757642447464
 31
0.0
  0
LINE
  5
406
330
6F
100
AcDbEntity
  8
GEO_
 62
     7
420
 16777215
100
AcDbLine
 10
-83.33333333333333
 20
44.37757642447464
 30
0.0
 11
-83.16222222222222
 21
44.39365317220624
 31
0.0
  0
LINE
  5
407
330
6F
100
AcDbEntity
  8
GEO_
 62
     7
420
 16777215
100
AcDbLine
 10
-83.33333333333333
 20
44.37757642447464
 30
0.0
 11
-83.42500000000002
 21
44.32826831536615
 31
0.0
  0
LINE
  5
408
330
6F
100
AcDbEntity
  8
GEO_
 62
     7
420
 16777215
100
AcDbLine
 10
-83.42500000000002
 20
44.32826831536615
 30
0.0
 11
-83.42500000000002
 21
44.32826831536615
 31
0.0
  0
LINE
  5
409
330
6F
100
AcDbEntity
  8
GEO_
 62
     7
420
 16777215
100
AcDbLine
 10
-83.42500000000002
 20
44.32826831536615
 30
0.0
 11
-83.33333333333333
 21
44.37757642447464
 31
0.0
  0
LINE
  5
40A
330
6F
100
AcDbEntity
  8
GEO_
 62
     7
420
 16777215
100
AcDbLine
 10
-83.42500000000002
 20
44.32826831536615
 30
0.0
 11
-83.49999999999999
 21
44.44336347928993
 31
0.0
  0
LINE
  5
40B
330
6F
100
AcDbEntity
  8
GEO_
 62
     7
420
 16777215
100
AcDbLine
 10
-83.49999999999999
 20
44.44336347928993
 30
0.0
 11
-83.49999999999999
 21
44.44336347928993
 31
0.0
  0
LINE
  5
40C
330
6F
100
AcDbEntity
  8
GEO_
 62
     7
420
 16777215
100
AcDbLine
 10
-83.49999999999999
 20
44.44336347928993
 30
0.0
 11
-83.42500000000002
 21
44.32826831536615
 31
0.0
  0
LINE
  5
40D
330
6F
100
AcDbEntity
  8
GEO_
 62
     7
420
 16777215
100
AcDbLine
 10
-83.49999999999999
 20
44.44336347928993
 30
0.0
 11
-83.65000000000001
 21
44.67950493102619
 31
0.0
  0
LINE
  5
40E
330
6F
100
AcDbEntity
  8
GEO_
 62
     7
420
 16777215
100
AcDbLine
 10
-83.65000000000001
 20
44.67950493102619
 30
0.0
 11
-83.65000000000001
 21
44.67950493102619
 31
0.0
  0
LINE
  5
40F
330
6F
100
AcDbEntity
  8
GEO_
 62
     7
420
 16777215
100
AcDbLine
 10
-83.65000000000001
 20
44.67950493102619
 30
0.0
 11
-83.49999999999999
 21
44.44336347928993
 31
0.0
  0
LINE
  5
410
330
6F
100
AcDbEntity
  8
GEO_
 62
     7
420
 16777215
100
AcDbLine
 10
-83.65000000000001
 20
44.67950493102619
 30
0.0
 11
-83.34583333333332
 21
45.2311436297901
 31
0.0
  0
LINE
  5
411
330
6F
100
AcDbEntity
  8
GEO_
 62
     7
420
 16777215
100
AcDbLine
 10
-83.34583333333332
 20
45.2311436297901
 30
0.0
 11
-83.34583333333332
 21
45.2311436297901
 31
0.0
  0
LINE
  5
412
330
6F
100
AcDbEntity
  8
GEO_
 62
     7
420
 16777215
100
AcDbLine
 10
-83.34583333333332
 20
45.2311436297901
 30
0.0
 11
-83.65000000000001
 21
44.67950493102619
 31
0.0
  0
LINE
  5
413
330
6F
100
AcDbEntity
  8
GEO_
 62
     7
420
 16777215
100
AcDbLine
 10
-83.34583333333332
 20
45.2311436297901
 30
0.0
 11
-83.25435555555555
 21
45.54334426320163
 31
0.0
  0
LINE
  5
414
330
6F
100
AcDbEntity
  8
GEO_
 62
     7
420
 16777215
100
AcDbLine
 10
-83.25435555555555
 20
45.54334426320163
 30
0.0
 11
-83.25435555555555
 21
45.54334426320163
 31
0.0
  0
LINE
  5
415
330
6F
100
AcDbEntity
  8
GEO_
 62
     7
420
 16777215
100
AcDbLine
 10
-83.25435555555555
 20
45.54334426320163
 30
0.0
 11
-83.34583333333332
 21
45.2311436297901
 31
0.0
  0
LINE
  5
416
330
6F
100
AcDbEntity
  8
GEO_
 62
     7
420
 16777215
100
AcDbLine
 10
-83.02275555555555
 20
45.5141474214194
 30
0.0
 11
-83.02275555555555
 21
45.5141474214194
 31
0.0
  0
LINE
  5
417
330
6F
100
AcDbEntity
  8
GEO_
 62
     7
420
 16777215
100
AcDbLine
 10
-82.84833333333333
 20
45.48607412381707
 30
0.0
 11
-82.84833333333333
 21
45.48607412381707
 31
0.0
  0
LINE
  5
418
330
6F
100
AcDbEntity
  8
GEO_
 62
     7
420
 16777215
100
AcDbLine
 10
-82.79858888888886
 20
45.48199673916061
 30
0.0
 11
-82.79858888888886
 21
45.48199673916061
 31
0.0
  0
LINE
  5
419
330
6F
100
AcDbEntity
  8
GEO_
 62
     7
420
 16777215
100
AcDbLine
 10
-82.54245
 20
45.51775623586837
 30
0.0
 11
-82.54245
 21
45.51775623586837
 31
0.0
  0
LINE
  5
41C
330
6F
100
AcDbEntity
  8
GEO_
 62
     7
420
 16777215
100
AcDbLine
 10
-81.9111111111111
 20
45.84015413471408
 30
0.0
 11
-81.9111111111111
 21
45.84015413471408
 31
0.0
  0
LINE
  5
41D
330
6F
100
AcDbEntity
  8
GEO_
 62
     7
420
 16777215
100
AcDbLine
 10
-81.79444444444444
 20
45.58158860677155
 30
0.0
 11
-81.79444444444444
 21
45.58158860677155
 31
0.0
  0
LINE
  5
41E
330
6F
100
AcDbEntity
  8
GEO_
 62
     7
420
 16777215
100
AcDbLine
 10
-81.95833333333334
 20
45.3677524834445
 30
0.0
 11
-81.95833333333334
 21
45.3677524834445
 31
0.0
  0
LINE
  5
41F
330
6F
100
AcDbEntity
  8
GEO_
 62
     7
420
 16777215
100
AcDbLine
 10
-82.44874166666669
 20
45.16988699888992
 30
0.0
 11
-82.44874166666669
 21
45.16988699888992
 31
0.0
  0
LINE
  5
420
330
6F
100
AcDbEntity
  8
GEO_
 62
     7
420
 16777215
100
AcDbLine
 10
-82.51762777777775
 20
45.14179932417075
 30
0.0
 11
-82.51762777777775
 21
45.14179932417075
 31
0.0
  0
LINE
  5
421
330
6F
100
AcDbEntity
  8
GEO_
 62
     7
420
 16777215
100
AcDbLine
 10
-82.52792777777775
 20
45.14059050404782
 30
0.0
 11
-82.52792777777775
 21
45.14059050404782
 31
0.0
  0
LINE
  5
422
330
6F
100
AcDbEntity
  8
GEO_
 62
     7
420
 16777215
100
AcDbLine
 10
-82.61694444444444
 20
45.04356363848006
 30
0.0
 11
-82.61694444444444
 21
45.04356363848006
 31
0.0
  0
LINE
  5
423
330
6F
100
AcDbEntity
  8
GEO_
 62
     7
420
 16777215
100
AcDbLine
 10
-82.74166666666667
 20
44.9052560815029
 30
0.0
 11
-82.74166666666667
 21
44.9052560815029
 31
0.0
  0
LINE
  5
424
330
6F
100
AcDbEntity
  8
GEO_
 62
     7
420
 16777215
100
AcDbLine
 10
-83.16222222222222
 20
44.39365317220624
 30
0.0
 11
-83.16222222222222
 21
44.39365317220624
 31
0.0
  0
LINE
  5
425
330
6F
100
AcDbEntity
  8
GEO_
 62
     7
420
 16777215
100
AcDbLine
 10
-83.33333333333333
 20
44.37757642447464
 30
0.0
 11
-83.33333333333333
 21
44.37757642447464
 31
0.0
  0
LINE
  5
426
330
6F
100
AcDbEntity
  8
GEO_
 62
     7
420
 16777215
100
AcDbLine
 10
-83.42500000000002
 20
44.32826831536615
 30
0.0
 11
-83.42500000000002
 21
44.32826831536615
 31
0.0
  0
LINE
  5
427
330
6F
100
AcDbEntity
  8
GEO_
 62
     7
420
 16777215
100
AcDbLine
 10
-83.49999999999999
 20
44.44336347928993
 30
0.0
 11
-83.49999999999999
 21
44.44336347928993
 31
0.0
  0
LINE
  5
428
330
6F
100
AcDbEntity
  8
GEO_
 62
     7
420
 16777215
100
AcDbLine
 10
-83.65000000000001
 20
44.67950493102619
 30
0.0
 11
-83.65000000000001
 21
44.67950493102619
 31
0.0
  0
LINE
  5
429
330
6F
100
AcDbEntity
  8
GEO_
 62
     7
420
 16777215
100
AcDbLine
 10
-83.34583333333332
 20
45.2311436297901
 30
0.0
 11
-83.34583333333332
 21
45.2311436297901
 31
0.0
  0
LINE
  5
42A
330
6F
100
AcDbEntity
  8
GEO_
 62
     7
420
 16777215
100
AcDbLine
 10
-83.02275555555555
 20
45.5141474214194
 30
0.0
 11
-82.84833333333333
 21
45.48607412381707
 31
0.0
  0
LINE
  5
42B
330
6F
100
AcDbEntity
  8
GEO_
 62
     7
420
 16777215
100
AcDbLine
 10
-82.84833333333333
 20
45.48607412381707
 30
0.0
 11
-82.79858888888886
 21
45.48199673916061
 31
0.0
  0
LINE
  5
42C
330
6F
100
AcDbEntity
  8
GEO_
 62
     7
420
 16777215
100
AcDbLine
 10
-82.79858888888886
 20
45.48199673916061
 30
0.0
 11
-82.54245
 21
45.51775623586837
 31
0.0
  0
LINE
  5
430
330
6F
100
AcDbEntity
  8
GEO_
 62
     7
420
 16777215
100
AcDbLine
 10
-81.9111111111111
 20
45.84015413471408
 30
0.0
 11
-81.79444444444444
 21
45.58158860677155
 31
0.0
  0
LINE
  5
431
330
6F
100
AcDbEntity
  8
GEO_
 62
     7
420
 16777215
100
AcDbLine
 10
-81.79444444444444
 20
45.58158860677155
 30
0.0
 11
-81.95833333333334
 21
45.3677524834445
 31
0.0
  0
LINE
  5
432
330
6F
100
AcDbEntity
  8
GEO_
 62
     7
420
 16777215
100
AcDbLine
 10
-81.95833333333334
 20
45.3677524834445
 30
0.0
 11
-82.44874166666669
 21
45.16988699888992
 31
0.0
  0
LINE
  5
433
330
6F
100
AcDbEntity
  8
GEO_
 62
     7
420
 16777215
100
AcDbLine
 10
-82.44874166666669
 20
45.16988699888992
 30
0.0
 11
-82.51762777777775
 21
45.14179932417075
 31
0.0
  0
LINE
  5
434
330
6F
100
AcDbEntity
  8
GEO_
 62
     7
420
 16777215
100
AcDbLine
 10
-82.51762777777775
 20
45.14179932417075
 30
0.0
 11
-82.52792777777775
 21
45.14059050404782
 31
0.0
  0
LINE
  5
435
330
6F
100
AcDbEntity
  8
GEO_
 62
     7
420
 16777215
100
AcDbLine
 10
-82.52792777777775
 20
45.14059050404782
 30
0.0
 11
-82.61694444444444
 21
45.04356363848006
 31
0.0
  0
LINE
  5
436
330
6F
100
AcDbEntity
  8
GEO_
 62
     7
420
 16777215
100
AcDbLine
 10
-82.61694444444444
 20
45.04356363848006
 30
0.0
 11
-82.74166666666667
 21
44.9052560815029
 31
0.0
  0
LINE
  5
437
330
6F
100
AcDbEntity
  8
GEO_
 62
     7
420
 16777215
100
AcDbLine
 10
-82.74166666666667
 20
44.9052560815029
 30
0.0
 11
-83.16222222222222
 21
44.39365317220624
 31
0.0
  0
LINE
  5
438
330
6F
100
AcDbEntity
  8
GEO_
 62
     7
420
 16777215
100
AcDbLine
 10
-83.16222222222222
 20
44.39365317220624
 30
0.0
 11
-83.33333333333333
 21
44.37757642447464
 31
0.0
  0
LINE
  5
439
330
6F
100
AcDbEntity
  8
GEO_
 62
     7
420
 16777215
100
AcDbLine
 10
-83.33333333333333
 20
44.37757642447464
 30
0.0
 11
-83.42500000000002
 21
44.32826831536615
 31
0.0
  0
LINE
  5
43A
330
6F
100
AcDbEntity
  8
GEO_
 62
     7
420
 16777215
100
AcDbLine
 10
-83.42500000000002
 20
44.32826831536615
 30
0.0
 11
-83.49999999999999
 21
44.44336347928993
 31
0.0
  0
LINE
  5
43B
330
6F
100
AcDbEntity
  8
GEO_
 62
     7
420
 16777215
100
AcDbLine
 10
-83.49999999999999
 20
44.44336347928993
 30
0.0
 11
-83.65000000000001
 21
44.67950493102619
 31
0.0
  0
LINE
  5
43C
330
6F
100
AcDbEntity
  8
GEO_
 62
     7
420
 16777215
100
AcDbLine
 10
-83.65000000000001
 20
44.67950493102619
 30
0.0
 11
-83.34583333333332
 21
45.2311436297901
 31
0.0
  0
LINE
  5
43D
330
6F
100
AcDbEntity
  8
GEO_
 62
     7
420
 16777215
100
AcDbLine
 10
-83.34583333333332
 20
45.2311436297901
 30
0.0
 11
-83.25435555555555
 21
45.54334426320163
 31
0.0
  0
LINE
  5
43E
330
6F
100
AcDbEntity
  8
GEO_
 62
     7
420
 16777215
100
AcDbLine
 10
-83.25435555555555
 20
45.54334426320163
 30
0.0
 11
-83.02275555555555
 21
45.5141474214194
 31
0.0
  0
LINE
  5
43F
330
6F
100
AcDbEntity
  8
GEO_
 62
     7
420
 16777215
100
AcDbLine
 10
-83.02275555555555
 20
45.5141474214194
 30
0.0
 11
-83.02275555555555
 21
45.5141474214194
 31
0.0
  0
LINE
  5
440
330
6F
100
AcDbEntity
  8
GEO_
 62
     7
420
 16777215
100
AcDbLine
 10
-83.02275555555555
 20
45.5141474214194
 30
0.0
 11
-83.25435555555555
 21
45.54334426320163
 31
0.0
  0
LINE
  5
441
330
6F
100
AcDbEntity
  8
GEO_
 62
     7
420
 16777215
100
AcDbLine
 10
-83.02275555555555
 20
45.5141474214194
 30
0.0
 11
-82.84833333333333
 21
45.48607412381707
 31
0.0
  0
LINE
  5
442
330
6F
100
AcDbEntity
  8
GEO_
 62
     7
420
 16777215
100
AcDbLine
 10
-82.84833333333333
 20
45.48607412381707
 30
0.0
 11
-82.84833333333333
 21
45.48607412381707
 31
0.0
  0
LINE
  5
443
330
6F
100
AcDbEntity
  8
GEO_
 62
     7
420
 16777215
100
AcDbLine
 10
-82.84833333333333
 20
45.48607412381707
 30
0.0
 11
-83.02275555555555
 21
45.5141474214194
 31
0.0
  0
LINE
  5
444
330
6F
100
AcDbEntity
  8
GEO_
 62
     7
420
 16777215
100
AcDbLine
 10
-82.84833333333333
 20
45.48607412381707
 30
0.0
 11
-82.79858888888886
 21
45.48199673916061
 31
0.0
  0
LINE
  5
445
330
6F
100
AcDbEntity
  8
GEO_
 62
     7
420
 16777215
100
AcDbLine
 10
-82.79858888888886
 20
45.48199673916061
 30
0.0
 11
-82.79858888888886
 21
45.48199673916061
 31
0.0
  0
LINE
  5
446
330
6F
100
AcDbEntity
  8
GEO_
 62
     7
420
 16777215
100
AcDbLine
 10
-82.79858888888886
 20
45.48199673916061
 30
0.0
 11
-82.84833333333333
 21
45.48607412381707
 31
0.0
  0
LINE
  5
447
330
6F
100
AcDbEntity
  8
GEO_
 62
     7
420
 16777215
100
AcDbLine
 10
-82.79858888888886
 20
45.48199673916061
 30
0.0
 11
-82.54245
 21
45.51775623586837
 31
0.0
  0
LINE
  5
448
330
6F
100
AcDbEntity
  8
GEO_
 62
     7
420
 16777215
100
AcDbLine
 10
-82.54245
 20
45.51775623586837
 30
0.0
 11
-82.54245
 21
45.51775623586837
 31
0.0
  0
LINE
  5
449
330
6F
100
AcDbEntity
  8
GEO_
 62
     7
420
 16777215
100
AcDbLine
 10
-82.54245
 20
45.51775623586837
 30
0.0
 11
-82.79858888888886
 21
45.48199673916061
 31
0.0
  0
LINE
  5
451
330
6F
100
AcDbEntity
  8
GEO_
 62
     7
420
 16777215
100
AcDbLine
 10
-81.9111111111111
 20
45.84015413471408
 30
0.0
 11
-81.9111111111111
 21
45.84015413471408
 31
0.0
  0
LINE
  5
453
330
6F
100
AcDbEntity
  8
GEO_
 62
     7
420
 16777215
100
AcDbLine
 10
-81.9111111111111
 20
45.84015413471408
 30
0.0
 11
-81.79444444444444
 21
45.58158860677155
 31
0.0
  0
LINE
  5
454
330
6F
100
AcDbEntity
  8
GEO_
 62
     7
420
 16777215
100
AcDbLine
 10
-81.79444444444444
 20
45.58158860677155
 30
0.0
 11
-81.79444444444444
 21
45.58158860677155
 31
0.0
  0
LINE
  5
455
330
6F
100
AcDbEntity
  8
GEO_
 62
     7
420
 16777215
100
AcDbLine
 10
-81.79444444444444
 20
45.58158860677155
 30
0.0
 11
-81.9111111111111
 21
45.84015413471408
 31
0.0
  0
LINE
  5
456
330
6F
100
AcDbEntity
  8
GEO_
 62
     7
420
 16777215
100
AcDbLine
 10
-81.79444444444444
 20
45.58158860677155
 30
0.0
 11
-81.95833333333334
 21
45.3677524834445
 31
0.0
  0
LINE
  5
457
330
6F
100
AcDbEntity
  8
GEO_
 62
     7
420
 16777215
100
AcDbLine
 10
-81.95833333333334
 20
45.3677524834445
 30
0.0
 11
-81.95833333333334
 21
45.3677524834445
 31
0.0
  0
LINE
  5
458
330
6F
100
AcDbEntity
  8
GEO_
 62
     7
420
 16777215
100
AcDbLine
 10
-81.95833333333334
 20
45.3677524834445
 30
0.0
 11
-81.79444444444444
 21
45.58158860677155
 31
0.0
  0
LINE
  5
459
330
6F
100
AcDbEntity
  8
GEO_
 62
     7
420
 16777215
100
AcDbLine
 10
-81.95833333333334
 20
45.3677524834445
 30
0.0
 11
-82.44874166666669
 21
45.16988699888992
 31
0.0
  0
LINE
  5
45A
330
6F
100
AcDbEntity
  8
GEO_
 62
     7
420
 16777215
100
AcDbLine
 10
-82.44874166666669
 20
45.16988699888992
 30
0.0
 11
-82.44874166666669
 21
45.16988699888992
 31
0.0
  0
LINE
  5
45B
330
6F
100
AcDbEntity
  8
GEO_
 62
     7
420
 16777215
100
AcDbLine
 10
-82.44874166666669
 20
45.16988699888992
 30
0.0
 11
-81.95833333333334
 21
45.3677524834445
 31
0.0
  0
LINE
  5
45C
330
6F
100
AcDbEntity
  8
GEO_
 62
     7
420
 16777215
100
AcDbLine
 10
-82.44874166666669
 20
45.16988699888992
 30
0.0
 11
-82.51762777777775
 21
45.14179932417075
 31
0.0
  0
LINE
  5
45D
330
6F
100
AcDbEntity
  8
GEO_
 62
     7
420
 16777215
100
AcDbLine
 10
-82.51762777777775
 20
45.14179932417075
 30
0.0
 11
-82.51762777777775
 21
45.14179932417075
 31
0.0
  0
LINE
  5
45E
330
6F
100
AcDbEntity
  8
GEO_
 62
     7
420
 16777215
100
AcDbLine
 10
-82.51762777777775
 20
45.14179932417075
 30
0.0
 11
-82.44874166666669
 21
45.16988699888992
 31
0.0
  0
LINE
  5
45F
330
6F
100
AcDbEntity
  8
GEO_
 62
     7
420
 16777215
100
AcDbLine
 10
-82.51762777777775
 20
45.14179932417075
 30
0.0
 11
-82.52792777777775
 21
45.14059050404782
 31
0.0
  0
LINE
  5
460
330
6F
100
AcDbEntity
  8
GEO_
 62
     7
420
 16777215
100
AcDbLine
 10
-82.52792777777775
 20
45.14059050404782
 30
0.0
 11
-82.52792777777775
 21
45.14059050404782
 31
0.0
  0
LINE
  5
461
330
6F
100
AcDbEntity
  8
GEO_
 62
     7
420
 16777215
100
AcDbLine
 10
-82.52792777777775
 20
45.14059050404782
 30
0.0
 11
-82.51762777777775
 21
45.14179932417075
 31
0.0
  0
LINE
  5
462
330
6F
100
AcDbEntity
  8
GEO_
 62
     7
420
 16777215
100
AcDbLine
 10
-82.52792777777775
 20
45.14059050404782
 30
0.0
 11
-82.61694444444444
 21
45.04356363848006
 31
0.0
  0
LINE
  5
463
330
6F
100
AcDbEntity
  8
GEO_
 62
     7
420
 16777215
100
AcDbLine
 10
-82.61694444444444
 20
45.04356363848006
 30
0.0
 11
-82.61694444444444
 21
45.04356363848006
 31
0.0
  0
LINE
  5
464
330
6F
100
AcDbEntity
  8
GEO_
 62
     7
420
 16777215
100
AcDbLine
 10
-82.61694444444444
 20
45.04356363848006
 30
0.0
 11
-82.52792777777775
 21
45.14059050404782
 31
0.0
  0
LINE
  5
465
330
6F
100
AcDbEntity
  8
GEO_
 62
     7
420
 16777215
100
AcDbLine
 10
-82.61694444444444
 20
45.04356363848006
 30
0.0
 11
-82.74166666666667
 21
44.9052560815029
 31
0.0
  0
LINE
  5
466
330
6F
100
AcDbEntity
  8
GEO_
 62
     7
420
 16777215
100
AcDbLine
 10
-82.74166666666667
 20
44.9052560815029
 30
0.0
 11
-82.74166666666667
 21
44.9052560815029
 31
0.0
  0
LINE
  5
467
330
6F
100
AcDbEntity
  8
GEO_
 62
     7
420
 16777215
100
AcDbLine
 10
-82.74166666666667
 20
44.9052560815029
 30
0.0
 11
-82.61694444444444
 21
45.04356363848006
 31
0.0
  0
LINE
  5
468
330
6F
100
AcDbEntity
  8
GEO_
 62
     7
420
 16777215
100
AcDbLine
 10
-82.74166666666667
 20
44.9052560815029
 30
0.0
 11
-83.16222222222222
 21
44.39365317220624
 31
0.0
  0
LINE
  5
469
330
6F
100
AcDbEntity
  8
GEO_
 62
     7
420
 16777215
100
AcDbLine
 10
-83.16222222222222
 20
44.39365317220624
 30
0.0
 11
-83.16222222222222
 21
44.39365317220624
 31
0.0
  0
LINE
  5
46A
330
6F
100
AcDbEntity
  8
GEO_
 62
     7
420
 16777215
100
AcDbLine
 10
-83.16222222222222
 20
44.39365317220624
 30
0.0
 11
-82.74166666666667
 21
44.9052560815029
 31
0.0
  0
LINE
  5
46B
330
6F
100
AcDbEntity
  8
GEO_
 62
     7
420
 16777215
100
AcDbLine
 10
-83.16222222222222
 20
44.39365317220624
 30
0.0
 11
-83.33333333333333
 21
44.37757642447464
 31
0.0
  0
LINE
  5
46C
330
6F
100
AcDbEntity
  8
GEO_
 62
     7
420
 16777215
100
AcDbLine
 10
-83.33333333333333
 20
44.37757642447464
 30
0.0
 11
-83.33333333333333
 21
44.37757642447464
 31
0.0
  0
LINE
  5
46D
330
6F
100
AcDbEntity
  8
GEO_
 62
     7
420
 16777215
100
AcDbLine
 10
-83.33333333333333
 20
44.37757642447464
 30
0.0
 11
-83.16222222222222
 21
44.39365317220624
 31
0.0
  0
LINE
  5
46E
330
6F
100
AcDbEntity
  8
GEO_
 62
     7
420
 16777215
100
AcDbLine
 10
-83.33333333333333
 20
44.37757642447464
 30
0.0
 11
-83.42500000000002
 21
44.32826831536615
 31
0.0
  0
LINE
  5
46F
330
6F
100
AcDbEntity
  8
GEO_
 62
     7
420
 16777215
100
AcDbLine
 10
-83.42500000000002
 20
44.32826831536615
 30
0.0
 11
-83.42500000000002
 21
44.32826831536615
 31
0.0
  0
LINE
  5
470
330
6F
100
AcDbEntity
  8
GEO_
 62
     7
420
 16777215
100
AcDbLine
 10
-83.42500000000002
 20
44.32826831536615
 30
0.0
 11
-83.33333333333333
 21
44.37757642447464
 31
0.0
  0
LINE
  5
471
330
6F
100
AcDbEntity
  8
GEO_
 62
     7
420
 16777215
100
AcDbLine
 10
-83.42500000000002
 20
44.32826831536615
 30
0.0
 11
-83.49999999999999
 21
44.44336347928993
 31
0.0
  0
LINE
  5
472
330
6F
100
AcDbEntity
  8
GEO_
 62
     7
420
 16777215
100
AcDbLine
 10
-83.49999999999999
 20
44.44336347928993
 30
0.0
 11
-83.49999999999999
 21
44.44336347928993
 31
0.0
  0
LINE
  5
473
330
6F
100
AcDbEntity
  8
GEO_
 62
     7
420
 16777215
100
AcDbLine
 10
-83.49999999999999
 20
44.44336347928993
 30
0.0
 11
-83.42500000000002
 21
44.32826831536615
 31
0.0
  0
LINE
  5
474
330
6F
100
AcDbEntity
  8
GEO_
 62
     7
420
 16777215
100
AcDbLine
 10
-83.49999999999999
 20
44.44336347928993
 30
0.0
 11
-83.65000000000001
 21
44.67950493102619
 31
0.0
  0
LINE
  5
475
330
6F
100
AcDbEntity
  8
GEO_
 62
     7
420
 16777215
100
AcDbLine
 10
-83.65000000000001
 20
44.67950493102619
 30
0.0
 11
-83.65000000000001
 21
44.67950493102619
 31
0.0
  0
LINE
  5
476
330
6F
100
AcDbEntity
  8
GEO_
 62
     7
420
 16777215
100
AcDbLine
 10
-83.65000000000001
 20
44.67950493102619
 30
0.0
 11
-83.49999999999999
 21
44.44336347928993
 31
0.0
  0
LINE
  5
477
330
6F
100
AcDbEntity
  8
GEO_
 62
     7
420
 16777215
100
AcDbLine
 10
-83.65000000000001
 20
44.67950493102619
 30
0.0
 11
-83.34583333333332
 21
45.2311436297901
 31
0.0
  0
LINE
  5
478
330
6F
100
AcDbEntity
  8
GEO_
 62
     7
420
 16777215
100
AcDbLine
 10
-83.34583333333332
 20
45.2311436297901
 30
0.0
 11
-83.34583333333332
 21
45.2311436297901
 31
0.0
  0
LINE
  5
479
330
6F
100
AcDbEntity
  8
GEO_
 62
     7
420
 16777215
100
AcDbLine
 10
-83.34583333333332
 20
45.2311436297901
 30
0.0
 11
-83.65000000000001
 21
44.67950493102619
 31
0.0
  0
LINE
  5
47A
330
6F
100
AcDbEntity
  8
GEO_
 62
     7
420
 16777215
100
AcDbLine
 10
-83.34583333333332
 20
45.2311436297901
 30
0.0
 11
-83.25435555555555
 21
45.54334426320163
 31
0.0
  0
LINE
  5
47B
330
6F
100
AcDbEntity
  8
GEO_
 62
     7
420
 16777215
100
AcDbLine
 10
-83.25435555555555
 20
45.54334426320163
 30
0.0
 11
-83.25435555555555
 21
45.54334426320163
 31
0.0
  0
LINE
  5
47C
330
6F
100
AcDbEntity
  8
GEO_
 62
     7
420
 16777215
100
AcDbLine
 10
-83.25435555555555
 20
45.54334426320163
 30
0.0
 11
-83.34583333333332
 21
45.2311436297901
 31
0.0
  0
LINE
  5
47D
330
6F
100
AcDbEntity
  8
GEO_
 62
     7
420
 16777215
100
AcDbLine
 10
-83.02275555555555
 20
45.5141474214194
 30
0.0
 11
-82.84833333333333
 21
45.48607412381707
 31
0.0
  0
LINE
  5
47E
330
6F
100
AcDbEntity
  8
GEO_
 62
     7
420
 16777215
100
AcDbLine
 10
-82.84833333333333
 20
45.48607412381707
 30
0.0
 11
-82.79858888888886
 21
45.48199673916061
 31
0.0
  0
LINE
  5
480
330
6F
100
AcDbEntity
  8
GEO_
 62
     7
420
 16777215
100
AcDbLine
 10
-82.61694444444444
 20
45.04356363848006
 30
0.0
 11
-82.74166666666667
 21
44.9052560815029
 31
0.0
  0
LINE
  5
481
330
6F
100
AcDbEntity
  8
GEO_
 62
     7
420
 16777215
100
AcDbLine
 10
-82.74166666666667
 20
44.9052560815029
 30
0.0
 11
-83.16222222222222
 21
44.39365317220624
 31
0.0
  0
LINE
  5
482
330
6F
100
AcDbEntity
  8
GEO_
 62
     7
420
 16777215
100
AcDbLine
 10
-83.16222222222222
 20
44.39365317220624
 30
0.0
 11
-83.33333333333333
 21
44.37757642447464
 31
0.0
  0
LINE
  5
483
330
6F
100
AcDbEntity
  8
GEO_
 62
     7
420
 16777215
100
AcDbLine
 10
-83.33333333333333
 20
44.37757642447464
 30
0.0
 11
-83.42500000000002
 21
44.32826831536615
 31
0.0
  0
LINE
  5
484
330
6F
100
AcDbEntity
  8
GEO_
 62
     7
420
 16777215
100
AcDbLine
 10
-83.42500000000002
 20
44.32826831536615
 30
0.0
 11
-83.49999999999999
 21
44.44336347928993
 31
0.0
  0
LINE
  5
485
330
6F
100
AcDbEntity
  8
GEO_
 62
     7
420
 16777215
100
AcDbLine
 10
-83.49999999999999
 20
44.44336347928993
 30
0.0
 11
-83.65000000000001
 21
44.67950493102619
 31
0.0
  0
LINE
  5
486
330
6F
100
AcDbEntity
  8
GEO_
 62
     7
420
 16777215
100
AcDbLine
 10
-83.65000000000001
 20
44.67950493102619
 30
0.0
 11
-83.34583333333332
 21
45.2311436297901
 31
0.0
  0
LINE
  5
487
330
6F
100
AcDbEntity
  8
GEO_
 62
     7
420
 16777215
100
AcDbLine
 10
-83.34583333333332
 20
45.2311436297901
 30
0.0
 11
-83.25435555555555
 21
45.54334426320163
 31
0.0
  0
LINE
  5
488
330
6F
100
AcDbEntity
  8
GEO_
 62
     7
420
 16777215
100
AcDbLine
 10
-83.02275555555555
 20
45.5141474214194
 30
0.0
 11
-82.84833333333333
 21
45.48607412381707
 31
0.0
  0
LINE
  5
489
330
6F
100
AcDbEntity
  8
GEO_
 62
     7
420
 16777215
100
AcDbLine
 10
-82.84833333333333
 20
45.48607412381707
 30
0.0
 11
-82.79858888888886
 21
45.48199673916061
 31
0.0
  0
LINE
  5
48B
330
6F
100
AcDbEntity
  8
GEO_
 62
     7
420
 16777215
100
AcDbLine
 10
-82.61694444444444
 20
45.04356363848006
 30
0.0
 11
-82.74166666666667
 21
44.9052560815029
 31
0.0
  0
LINE
  5
48C
330
6F
100
AcDbEntity
  8
GEO_
 62
     7
420
 16777215
100
AcDbLine
 10
-82.74166666666667
 20
44.9052560815029
 30
0.0
 11
-83.16222222222222
 21
44.39365317220624
 31
0.0
  0
LINE
  5
48D
330
6F
100
AcDbEntity
  8
GEO_
 62
     7
420
 16777215
100
AcDbLine
 10
-83.16222222222222
 20
44.39365317220624
 30
0.0
 11
-83.33333333333333
 21
44.37757642447464
 31
0.0
  0
LINE
  5
48E
330
6F
100
AcDbEntity
  8
GEO_
 62
     7
420
 16777215
100
AcDbLine
 10
-83.33333333333333
 20
44.37757642447464
 30
0.0
 11
-83.42500000000002
 21
44.32826831536615
 31
0.0
  0
LINE
  5
48F
330
6F
100
AcDbEntity
  8
GEO_
 62
     7
420
 16777215
100
AcDbLine
 10
-83.42500000000002
 20
44.32826831536615
 30
0.0
 11
-83.49999999999999
 21
44.44336347928993
 31
0.0
  0
LINE
  5
490
330
6F
100
AcDbEntity
  8
GEO_
 62
     7
420
 16777215
100
AcDbLine
 10
-83.49999999999999
 20
44.44336347928993
 30
0.0
 11
-83.65000000000001
 21
44.67950493102619
 31
0.0
  0
LINE
  5
491
330
6F
100
AcDbEntity
  8
GEO_
 62
     7
420
 16777215
100
AcDbLine
 10
-83.65000000000001
 20
44.67950493102619
 30
0.0
 11
-83.34583333333332
 21
45.2311436297901
 31
0.0
  0
LINE
  5
492
330
6F
100
AcDbEntity
  8
GEO_
 62
     7
420
 16777215
100
AcDbLine
 10
-83.34583333333332
 20
45.2311436297901
 30
0.0
 11
-83.25435555555555
 21
45.54334426320163
 31
0.0
  0
LINE
  5
493
330
6F
100
AcDbEntity
  8
GEO_
 62
     7
420
 16777215
100
AcDbLine
 10
-83.25435555555555
 20
45.54334426320163
 30
0.0
 11
-83.02275555555555
 21
45.5141474214194
 31
0.0
  0
LINE
  5
494
330
6F
100
AcDbEntity
  8
GEO_
 62
     7
420
 16777215
100
AcDbLine
 10
-83.02275555555555
 20
45.5141474214194
 30
0.0
 11
-83.02275555555555
 21
45.5141474214194
 31
0.0
  0
LINE
  5
495
330
6F
100
AcDbEntity
  8
GEO_
 62
     7
420
 16777215
100
AcDbLine
 10
-83.02275555555555
 20
45.5141474214194
 30
0.0
 11
-83.25435555555555
 21
45.54334426320163
 31
0.0
  0
LINE
  5
496
330
6F
100
AcDbEntity
  8
GEO_
 62
     7
420
 16777215
100
AcDbLine
 10
-83.02275555555555
 20
45.5141474214194
 30
0.0
 11
-82.84833333333333
 21
45.48607412381707
 31
0.0
  0
LINE
  5
497
330
6F
100
AcDbEntity
  8
GEO_
 62
     7
420
 16777215
100
AcDbLine
 10
-82.84833333333333
 20
45.48607412381707
 30
0.0
 11
-82.84833333333333
 21
45.48607412381707
 31
0.0
  0
LINE
  5
498
330
6F
100
AcDbEntity
  8
GEO_
 62
     7
420
 16777215
100
AcDbLine
 10
-82.84833333333333
 20
45.48607412381707
 30
0.0
 11
-83.02275555555555
 21
45.5141474214194
 31
0.0
  0
LINE
  5
499
330
6F
100
AcDbEntity
  8
GEO_
 62
     7
420
 16777215
100
AcDbLine
 10
-82.84833333333333
 20
45.48607412381707
 30
0.0
 11
-82.79858888888886
 21
45.48199673916061
 31
0.0
  0
LINE
  5
49A
330
6F
100
AcDbEntity
  8
GEO_
 62
     7
420
 16777215
100
AcDbLine
 10
-82.79858888888886
 20
45.48199673916061
 30
0.0
 11
-82.79858888888886
 21
45.48199673916061
 31
0.0
  0
LINE
  5
49B
330
6F
100
AcDbEntity
  8
GEO_
 62
     7
420
 16777215
100
AcDbLine
 10
-82.79858888888886
 20
45.48199673916061
 30
0.0
 11
-82.84833333333333
 21
45.48607412381707
 31
0.0
  0
LINE
  5
49D
330
6F
100
AcDbEntity
  8
GEO_
 62
     7
420
 16777215
100
AcDbLine
 10
-82.61694444444444
 20
45.04356363848006
 30
0.0
 11
-82.61694444444444
 21
45.04356363848006
 31
0.0
  0
LINE
  5
49F
330
6F
100
AcDbEntity
  8
GEO_
 62
     7
420
 16777215
100
AcDbLine
 10
-82.61694444444444
 20
45.04356363848006
 30
0.0
 11
-82.74166666666667
 21
44.9052560815029
 31
0.0
  0
LINE
  5
4A0
330
6F
100
AcDbEntity
  8
GEO_
 62
     7
420
 16777215
100
AcDbLine
 10
-82.74166666666667
 20
44.9052560815029
 30
0.0
 11
-82.74166666666667
 21
44.9052560815029
 31
0.0
  0
LINE
  5
4A1
330
6F
100
AcDbEntity
  8
GEO_
 62
     7
420
 16777215
100
AcDbLine
 10
-82.74166666666667
 20
44.9052560815029
 30
0.0
 11
-82.61694444444444
 21
45.04356363848006
 31
0.0
  0
LINE
  5
4A2
330
6F
100
AcDbEntity
  8
GEO_
 62
     7
420
 16777215
100
AcDbLine
 10
-82.74166666666667
 20
44.9052560815029
 30
0.0
 11
-83.16222222222222
 21
44.39365317220624
 31
0.0
  0
LINE
  5
4A3
330
6F
100
AcDbEntity
  8
GEO_
 62
     7
420
 16777215
100
AcDbLine
 10
-83.16222222222222
 20
44.39365317220624
 30
0.0
 11
-83.16222222222222
 21
44.39365317220624
 31
0.0
  0
LINE
  5
4A4
330
6F
100
AcDbEntity
  8
GEO_
 62
     7
420
 16777215
100
AcDbLine
 10
-83.16222222222222
 20
44.39365317220624
 30
0.0
 11
-82.74166666666667
 21
44.9052560815029
 31
0.0
  0
LINE
  5
4A5
330
6F
100
AcDbEntity
  8
GEO_
 62
     7
420
 16777215
100
AcDbLine
 10
-83.16222222222222
 20
44.39365317220624
 30
0.0
 11
-83.33333333333333
 21
44.37757642447464
 31
0.0
  0
LINE
  5
4A6
330
6F
100
AcDbEntity
  8
GEO_
 62
     7
420
 16777215
100
AcDbLine
 10
-83.33333333333333
 20
44.37757642447464
 30
0.0
 11
-83.33333333333333
 21
44.37757642447464
 31
0.0
  0
LINE
  5
4A7
330
6F
100
AcDbEntity
  8
GEO_
 62
     7
420
 16777215
100
AcDbLine
 10
-83.33333333333333
 20
44.37757642447464
 30
0.0
 11
-83.16222222222222
 21
44.39365317220624
 31
0.0
  0
LINE
  5
4A8
330
6F
100
AcDbEntity
  8
GEO_
 62
     7
420
 16777215
100
AcDbLine
 10
-83.33333333333333
 20
44.37757642447464
 30
0.0
 11
-83.42500000000002
 21
44.32826831536615
 31
0.0
  0
LINE
  5
4A9
330
6F
100
AcDbEntity
  8
GEO_
 62
     7
420
 16777215
100
AcDbLine
 10
-83.42500000000002
 20
44.32826831536615
 30
0.0
 11
-83.42500000000002
 21
44.32826831536615
 31
0.0
  0
LINE
  5
4AA
330
6F
100
AcDbEntity
  8
GEO_
 62
     7
420
 16777215
100
AcDbLine
 10
-83.42500000000002
 20
44.32826831536615
 30
0.0
 11
-83.33333333333333
 21
44.37757642447464
 31
0.0
  0
LINE
  5
4AB
330
6F
100
AcDbEntity
  8
GEO_
 62
     7
420
 16777215
100
AcDbLine
 10
-83.42500000000002
 20
44.32826831536615
 30
0.0
 11
-83.49999999999999
 21
44.44336347928993
 31
0.0
  0
LINE
  5
4AC
330
6F
100
AcDbEntity
  8
GEO_
 62
     7
420
 16777215
100
AcDbLine
 10
-83.49999999999999
 20
44.44336347928993
 30
0.0
 11
-83.49999999999999
 21
44.44336347928993
 31
0.0
  0
LINE
  5
4AD
330
6F
100
AcDbEntity
  8
GEO_
 62
     7
420
 16777215
100
AcDbLine
 10
-83.49999999999999
 20
44.44336347928993
 30
0.0
 11
-83.42500000000002
 21
44.32826831536615
 31
0.0
  0
LINE
  5
4AE
330
6F
100
AcDbEntity
  8
GEO_
 62
     7
420
 16777215
100
AcDbLine
 10
-83.49999999999999
 20
44.44336347928993
 30
0.0
 11
-83.65000000000001
 21
44.67950493102619
 31
0.0
  0
LINE
  5
4AF
330
6F
100
AcDbEntity
  8
GEO_
 62
     7
420
 16777215
100
AcDbLine
 10
-83.65000000000001
 20
44.67950493102619
 30
0.0
 11
-83.65000000000001
 21
44.67950493102619
 31
0.0
  0
LINE
  5
4B0
330
6F
100
AcDbEntity
  8
GEO_
 62
     7
420
 16777215
100
AcDbLine
 10
-83.65000000000001
 20
44.67950493102619
 30
0.0
 11
-83.49999999999999
 21
44.44336347928993
 31
0.0
  0
LINE
  5
4B1
330
6F
100
AcDbEntity
  8
GEO_
 62
     7
420
 16777215
100
AcDbLine
 10
-83.65000000000001
 20
44.67950493102619
 30
0.0
 11
-83.34583333333332
 21
45.2311436297901
 31
0.0
  0
LINE
  5
4B2
330
6F
100
AcDbEntity
  8
GEO_
 62
     7
420
 16777215
100
AcDbLine
 10
-83.34583333333332
 20
45.2311436297901
 30
0.0
 11
-83.34583333333332
 21
45.2311436297901
 31
0.0
  0
LINE
  5
4B3
330
6F
100
AcDbEntity
  8
GEO_
 62
     7
420
 16777215
100
AcDbLine
 10
-83.34583333333332
 20
45.2311436297901
 30
0.0
 11
-83.65000000000001
 21
44.67950493102619
 31
0.0
  0
LINE
  5
4B4
330
6F
100
AcDbEntity
  8
GEO_
 62
     7
420
 16777215
100
AcDbLine
 10
-83.34583333333332
 20
45.2311436297901
 30
0.0
 11
-83.34583333333332
 21
45.2311436297901
 31
0.0
  0
LINE
  5
4B5
330
6F
100
AcDbEntity
  8
GEO_
 62
     7
420
 16777215
100
AcDbLine
 10
-83.25435555555555
 20
45.54334426320163
 30
0.0
 11
-83.25435555555555
 21
45.54334426320163
 31
0.0
  0
LINE
  5
4B6
330
6F
100
AcDbEntity
  8
GEO_
 62
     7
420
 16777215
100
AcDbLine
 10
-83.25435555555555
 20
45.54334426320163
 30
0.0
 11
-83.25435555555555
 21
45.54334426320163
 31
0.0
  0
LINE
  5
4CB
330
6F
100
AcDbEntity
  8
GEO_
 62
     7
420
 16777215
100
AcDbLine
 10
-83.16222222222222
 20
44.39365317220624
 30
0.0
 11
-82.74166666666667
 21
44.9052560815029
 31
0.0
  0
LINE
  5
4CC
330
6F
100
AcDbEntity
  8
GEO_
 62
     7
420
 16777215
100
AcDbLine
 10
-82.74166666666667
 20
44.9052560815029
 30
0.0
 11
-82.61694444444444
 21
45.04356363848006
 31
0.0
  0
LINE
  5
4CD
330
6F
100
AcDbEntity
  8
GEO_
 62
     7
420
 16777215
100
AcDbLine
 10
-82.61694444444444
 20
45.04356363848006
 30
0.0
 11
-82.52792777777775
 21
45.14059050404782
 31
0.0
  0
LINE
  5
4E2
330
6F
100
AcDbEntity
  8
GEO_
 62
     7
420
 16777215
100
AcDbLine
 10
-83.16222222222222
 20
44.39365317220624
 30
0.0
 11
-82.74166666666667
 21
44.9052560815029
 31
0.0
  0
LINE
  5
4E3
330
6F
100
AcDbEntity
  8
GEO_
 62
     7
420
 16777215
100
AcDbLine
 10
-82.74166666666667
 20
44.9052560815029
 30
0.0
 11
-82.61694444444444
 21
45.04356363848006
 31
0.0
  0
LINE
  5
4E4
330
6F
100
AcDbEntity
  8
GEO_
 62
     7
420
 16777215
100
AcDbLine
 10
-82.61694444444444
 20
45.04356363848006
 30
0.0
 11
-82.52792777777775
 21
45.14059050404782
 31
0.0
  0
LINE
  5
4E5
330
6F
100
AcDbEntity
  8
GEO_
 62
     7
420
 16777215
100
AcDbLine
 10
-82.52792777777775
 20
45.14059050404782
 30
0.0
 11
-82.51762777777775
 21
45.14179932417075
 31
0.0
  0
LINE
  5
4E6
330
6F
100
AcDbEntity
  8
GEO_
 62
     7
420
 16777215
100
AcDbLine
 10
-82.51762777777775
 20
45.14179932417075
 30
0.0
 11
-82.51762777777775
 21
45.14179932417075
 31
0.0
  0
LINE
  5
4E7
330
6F
100
AcDbEntity
  8
GEO_
 62
     7
420
 16777215
100
AcDbLine
 10
-82.51762777777775
 20
45.14179932417075
 30
0.0
 11
-82.52792777777775
 21
45.14059050404782
 31
0.0
  0
LINE
  5
522
330
6F
100
AcDbEntity
  8
GEO_
 62
     7
420
 16777215
100
AcDbLine
 10
-83.16222222222222
 20
44.39365317220624
 30
0.0
 11
-83.16222222222222
 21
44.39365317220624
 31
0.0
  0
LINE
  5
524
330
6F
100
AcDbEntity
  8
GEO_
 62
     7
420
 16777215
100
AcDbLine
 10
-83.16222222222222
 20
44.39365317220624
 30
0.0
 11
-82.74166666666667
 21
44.9052560815029
 31
0.0
  0
LINE
  5
525
330
6F
100
AcDbEntity
  8
GEO_
 62
     7
420
 16777215
100
AcDbLine
 10
-82.74166666666667
 20
44.9052560815029
 30
0.0
 11
-82.74166666666667
 21
44.9052560815029
 31
0.0
  0
LINE
  5
526
330
6F
100
AcDbEntity
  8
GEO_
 62
     7
420
 16777215
100
AcDbLine
 10
-82.74166666666667
 20
44.9052560815029
 30
0.0
 11
-83.16222222222222
 21
44.39365317220624
 31
0.0
  0
LINE
  5
527
330
6F
100
AcDbEntity
  8
GEO_
 62
     7
420
 16777215
100
AcDbLine
 10
-82.74166666666667
 20
44.9052560815029
 30
0.0
 11
-82.61694444444444
 21
45.04356363848006
 31
0.0
  0
LINE
  5
528
330
6F
100
AcDbEntity
  8
GEO_
 62
     7
420
 16777215
100
AcDbLine
 10
-82.61694444444444
 20
45.04356363848006
 30
0.0
 11
-82.61694444444444
 21
45.04356363848006
 31
0.0
  0
LINE
  5
529
330
6F
100
AcDbEntity
  8
GEO_
 62
     7
420
 16777215
100
AcDbLine
 10
-82.61694444444444
 20
45.04356363848006
 30
0.0
 11
-82.74166666666667
 21
44.9052560815029
 31
0.0
  0
LINE
  5
52A
330
6F
100
AcDbEntity
  8
GEO_
 62
     7
420
 16777215
100
AcDbLine
 10
-82.61694444444444
 20
45.04356363848006
 30
0.0
 11
-82.52792777777775
 21
45.14059050404782
 31
0.0
  0
LINE
  5
52B
330
6F
100
AcDbEntity
  8
GEO_
 62
     7
420
 16777215
100
AcDbLine
 10
-82.52792777777775
 20
45.14059050404782
 30
0.0
 11
-82.52792777777775
 21
45.14059050404782
 31
0.0
  0
LINE
  5
52C
330
6F
100
AcDbEntity
  8
GEO_
 62
     7
420
 16777215
100
AcDbLine
 10
-82.52792777777775
 20
45.14059050404782
 30
0.0
 11
-82.61694444444444
 21
45.04356363848006
 31
0.0
  0
LINE
  5
52D
330
6F
100
AcDbEntity
  8
GEO_
 62
     7
420
 16777215
100
AcDbLine
 10
-82.51762777777775
 20
45.14179932417075
 30
0.0
 11
-82.44874166666669
 21
45.16988699888992
 31
0.0
  0
LINE
  5
52E
330
6F
100
AcDbEntity
  8
GEO_
 62
     7
420
 16777215
100
AcDbLine
 10
-82.44874166666669
 20
45.16988699888992
 30
0.0
 11
-81.95833333333334
 21
45.3677524834445
 31
0.0
  0
LINE
  5
53D
330
6F
100
AcDbEntity
  8
GEO_
 62
     7
420
 16777215
100
AcDbLine
 10
-83.16222222222222
 20
44.39365317220624
 30
0.0
 11
-82.74166666666667
 21
44.9052560815029
 31
0.0
  0
LINE
  5
53E
330
6F
100
AcDbEntity
  8
GEO_
 62
     7
420
 16777215
100
AcDbLine
 10
-82.74166666666667
 20
44.9052560815029
 30
0.0
 11
-82.61694444444444
 21
45.04356363848006
 31
0.0
  0
LINE
  5
53F
330
6F
100
AcDbEntity
  8
GEO_
 62
     7
420
 16777215
100
AcDbLine
 10
-82.61694444444444
 20
45.04356363848006
 30
0.0
 11
-82.52792777777775
 21
45.14059050404782
 31
0.0
  0
LINE
  5
540
330
6F
100
AcDbEntity
  8
GEO_
 62
     7
420
 16777215
100
AcDbLine
 10
-82.51762777777775
 20
45.14179932417075
 30
0.0
 11
-82.44874166666669
 21
45.16988699888992
 31
0.0
  0
LINE
  5
541
330
6F
100
AcDbEntity
  8
GEO_
 62
     7
420
 16777215
100
AcDbLine
 10
-82.44874166666669
 20
45.16988699888992
 30
0.0
 11
-81.95833333333334
 21
45.3677524834445
 31
0.0
  0
LINE
  5
550
330
6F
100
AcDbEntity
  8
GEO_
 62
     7
420
 16777215
100
AcDbLine
 10
-83.16222222222222
 20
44.39365317220624
 30
0.0
 11
-82.74166666666667
 21
44.9052560815029
 31
0.0
  0
LINE
  5
551
330
6F
100
AcDbEntity
  8
GEO_
 62
     7
420
 16777215
100
AcDbLine
 10
-82.74166666666667
 20
44.9052560815029
 30
0.0
 11
-82.61694444444444
 21
45.04356363848006
 31
0.0
  0
LINE
  5
552
330
6F
100
AcDbEntity
  8
GEO_
 62
     7
420
 16777215
100
AcDbLine
 10
-82.61694444444444
 20
45.04356363848006
 30
0.0
 11
-82.52792777777775
 21
45.14059050404782
 31
0.0
  0
LINE
  5
553
330
6F
100
AcDbEntity
  8
GEO_
 62
     7
420
 16777215
100
AcDbLine
 10
-82.52792777777775
 20
45.14059050404782
 30
0.0
 11
-82.51762777777775
 21
45.14179932417075
 31
0.0
  0
LINE
  5
554
330
6F
100
AcDbEntity
  8
GEO_
 62
     7
420
 16777215
100
AcDbLine
 10
-82.51762777777775
 20
45.14179932417075
 30
0.0
 11
-82.51762777777775
 21
45.14179932417075
 31
0.0
  0
LINE
  5
555
330
6F
100
AcDbEntity
  8
GEO_
 62
     7
420
 16777215
100
AcDbLine
 10
-82.51762777777775
 20
45.14179932417075
 30
0.0
 11
-82.52792777777775
 21
45.14059050404782
 31
0.0
  0
LINE
  5
556
330
6F
100
AcDbEntity
  8
GEO_
 62
     7
420
 16777215
100
AcDbLine
 10
-82.51762777777775
 20
45.14179932417075
 30
0.0
 11
-82.44874166666669
 21
45.16988699888992
 31
0.0
  0
LINE
  5
557
330
6F
100
AcDbEntity
  8
GEO_
 62
     7
420
 16777215
100
AcDbLine
 10
-82.44874166666669
 20
45.16988699888992
 30
0.0
 11
-82.44874166666669
 21
45.16988699888992
 31
0.0
  0
LINE
  5
558
330
6F
100
AcDbEntity
  8
GEO_
 62
     7
420
 16777215
100
AcDbLine
 10
-82.44874166666669
 20
45.16988699888992
 30
0.0
 11
-82.51762777777775
 21
45.14179932417075
 31
0.0
  0
LINE
  5
559
330
6F
100
AcDbEntity
  8
GEO_
 62
     7
420
 16777215
100
AcDbLine
 10
-82.44874166666669
 20
45.16988699888992
 30
0.0
 11
-81.95833333333334
 21
45.3677524834445
 31
0.0
  0
LINE
  5
55A
330
6F
100
AcDbEntity
  8
GEO_
 62
     7
420
 16777215
100
AcDbLine
 10
-81.95833333333334
 20
45.3677524834445
 30
0.0
 11
-81.95833333333334
 21
45.3677524834445
 31
0.0
  0
LINE
  5
55B
330
6F
100
AcDbEntity
  8
GEO_
 62
     7
420
 16777215
100
AcDbLine
 10
-81.95833333333334
 20
45.3677524834445
 30
0.0
 11
-82.44874166666669
 21
45.16988699888992
 31
0.0
  0
LINE
  5
584
330
6F
100
AcDbEntity
  8
GEO_
 62
     7
420
 16777215
100
AcDbLine
 10
-83.16222222222222
 20
44.39365317220624
 30
0.0
 11
-83.16222222222222
 21
44.39365317220624
 31
0.0
  0
LINE
  5
586
330
6F
100
AcDbEntity
  8
GEO_
 62
     7
420
 16777215
100
AcDbLine
 10
-83.16222222222222
 20
44.39365317220624
 30
0.0
 11
-82.74166666666667
 21
44.9052560815029
 31
0.0
  0
LINE
  5
587
330
6F
100
AcDbEntity
  8
GEO_
 62
     7
420
 16777215
100
AcDbLine
 10
-82.74166666666667
 20
44.9052560815029
 30
0.0
 11
-82.74166666666667
 21
44.9052560815029
 31
0.0
  0
LINE
  5
588
330
6F
100
AcDbEntity
  8
GEO_
 62
     7
420
 16777215
100
AcDbLine
 10
-82.74166666666667
 20
44.9052560815029
 30
0.0
 11
-83.16222222222222
 21
44.39365317220624
 31
0.0
  0
LINE
  5
589
330
6F
100
AcDbEntity
  8
GEO_
 62
     7
420
 16777215
100
AcDbLine
 10
-82.74166666666667
 20
44.9052560815029
 30
0.0
 11
-82.61694444444444
 21
45.04356363848006
 31
0.0
  0
LINE
  5
58A
330
6F
100
AcDbEntity
  8
GEO_
 62
     7
420
 16777215
100
AcDbLine
 10
-82.61694444444444
 20
45.04356363848006
 30
0.0
 11
-82.61694444444444
 21
45.04356363848006
 31
0.0
  0
LINE
  5
58B
330
6F
100
AcDbEntity
  8
GEO_
 62
     7
420
 16777215
100
AcDbLine
 10
-82.61694444444444
 20
45.04356363848006
 30
0.0
 11
-82.74166666666667
 21
44.9052560815029
 31
0.0
  0
LINE
  5
58C
330
6F
100
AcDbEntity
  8
GEO_
 62
     7
420
 16777215
100
AcDbLine
 10
-82.61694444444444
 20
45.04356363848006
 30
0.0
 11
-82.52792777777775
 21
45.14059050404782
 31
0.0
  0
LINE
  5
58D
330
6F
100
AcDbEntity
  8
GEO_
 62
     7
420
 16777215
100
AcDbLine
 10
-82.52792777777775
 20
45.14059050404782
 30
0.0
 11
-82.52792777777775
 21
45.14059050404782
 31
0.0
  0
LINE
  5
58E
330
6F
100
AcDbEntity
  8
GEO_
 62
     7
420
 16777215
100
AcDbLine
 10
-82.52792777777775
 20
45.14059050404782
 30
0.0
 11
-82.61694444444444
 21
45.04356363848006
 31
0.0
  0
LINE
  5
5FE
330
6F
100
AcDbEntity
  8
GEO_
 62
     7
420
 16777215
100
AcDbLine
 10
-81.95833333333334
 20
45.3677524834445
 30
0.0
 11
-81.79444444444444
 21
45.58158860677155
 31
0.0
  0
LINE
  5
611
330
6F
100
AcDbEntity
  8
GEO_
 62
     7
420
 16777215
100
AcDbLine
 10
-81.95833333333334
 20
45.3677524834445
 30
0.0
 11
-81.79444444444444
 21
45.58158860677155
 31
0.0
  0
LINE
  5
649
330
6F
100
AcDbEntity
  8
GEO_
 62
     7
420
 16777215
100
AcDbLine
 10
-81.95833333333334
 20
45.3677524834445
 30
0.0
 11
-81.95833333333334
 21
45.3677524834445
 31
0.0
  0
LINE
  5
64B
330
6F
100
AcDbEntity
  8
GEO_
 62
     7
420
 16777215
100
AcDbLine
 10
-81.95833333333334
 20
45.3677524834445
 30
0.0
 11
-81.79444444444444
 21
45.58158860677155
 31
0.0
  0
LINE
  5
64C
330
6F
100
AcDbEntity
  8
GEO_
 62
     7
420
 16777215
100
AcDbLine
 10
-81.79444444444444
 20
45.58158860677155
 30
0.0
 11
-81.79444444444444
 21
45.58158860677155
 31
0.0
  0
LINE
  5
64D
330
6F
100
AcDbEntity
  8
GEO_
 62
     7
420
 16777215
100
AcDbLine
 10
-81.79444444444444
 20
45.58158860677155
 30
0.0
 11
-81.95833333333334
 21
45.3677524834445
 31
0.0
  0
LINE
  5
64F
330
6F
100
AcDbEntity
  8
GEO_
 62
     7
420
 16777215
100
AcDbLine
 10
-82.25119722222222
 20
46.04585638742335
 30
0.0
 11
-82.38267499999997
 21
45.74867003948728
 31
0.0
  0
LINE
  5
650
330
6F
100
AcDbEntity
  8
GEO_
 62
     7
420
 16777215
100
AcDbLine
 10
-82.38267499999997
 20
45.74867003948728
 30
0.0
 11
-82.51944444444445
 21
45.61382073489984
 31
0.0
  0
LINE
  5
651
330
6F
100
AcDbEntity
  8
GEO_
 62
     7
420
 16777215
100
AcDbLine
 10
-82.51944444444445
 20
45.61382073489984
 30
0.0
 11
-82.54245
 21
45.51775623586837
 31
0.0
  0
LINE
  5
652
330
6F
100
AcDbEntity
  8
GEO_
 62
     7
420
 16777215
100
AcDbLine
 10
-82.54245
 20
45.51775623586837
 30
0.0
 11
-82.79858888888886
 21
45.48199673916061
 31
0.0
  0
LINE
  5
653
330
6F
100
AcDbEntity
  8
GEO_
 62
     7
420
 16777215
100
AcDbLine
 10
-82.79858888888886
 20
45.48199673916061
 30
0.0
 11
-82.84833333333333
 21
45.48607412381707
 31
0.0
  0
LINE
  5
654
330
6F
100
AcDbEntity
  8
GEO_
 62
     7
420
 16777215
100
AcDbLine
 10
-82.84833333333333
 20
45.48607412381707
 30
0.0
 11
-83.02275555555555
 21
45.5141474214194
 31
0.0
  0
LINE
  5
655
330
6F
100
AcDbEntity
  8
GEO_
 62
     7
420
 16777215
100
AcDbLine
 10
-83.02275555555555
 20
45.5141474214194
 30
0.0
 11
-83.25435555555555
 21
45.54334426320163
 31
0.0
  0
LINE
  5
663
330
6F
100
AcDbEntity
  8
GEO_
 62
     7
420
 16777215
100
AcDbLine
 10
-82.25119722222222
 20
46.04585638742335
 30
0.0
 11
-82.38267499999997
 21
45.74867003948728
 31
0.0
  0
LINE
  5
664
330
6F
100
AcDbEntity
  8
GEO_
 62
     7
420
 16777215
100
AcDbLine
 10
-82.38267499999997
 20
45.74867003948728
 30
0.0
 11
-82.51944444444445
 21
45.61382073489984
 31
0.0
  0
LINE
  5
665
330
6F
100
AcDbEntity
  8
GEO_
 62
     7
420
 16777215
100
AcDbLine
 10
-82.51944444444445
 20
45.61382073489984
 30
0.0
 11
-82.54245
 21
45.51775623586837
 31
0.0
  0
LINE
  5
666
330
6F
100
AcDbEntity
  8
GEO_
 62
     7
420
 16777215
100
AcDbLine
 10
-82.54245
 20
45.51775623586837
 30
0.0
 11
-82.79858888888886
 21
45.48199673916061
 31
0.0
  0
LINE
  5
667
330
6F
100
AcDbEntity
  8
GEO_
 62
     7
420
 16777215
100
AcDbLine
 10
-82.79858888888886
 20
45.48199673916061
 30
0.0
 11
-82.84833333333333
 21
45.48607412381707
 31
0.0
  0
LINE
  5
668
330
6F
100
AcDbEntity
  8
GEO_
 62
     7
420
 16777215
100
AcDbLine
 10
-82.84833333333333
 20
45.48607412381707
 30
0.0
 11
-83.02275555555555
 21
45.5141474214194
 31
0.0
  0
LINE
  5
669
330
6F
100
AcDbEntity
  8
GEO_
 62
     7
420
 16777215
100
AcDbLine
 10
-83.02275555555555
 20
45.5141474214194
 30
0.0
 11
-83.25435555555555
 21
45.54334426320163
 31
0.0
  0
LINE
  5
67A
330
6F
100
AcDbEntity
  8
GEO_
 62
     7
420
 16777215
100
AcDbLine
 10
-82.25119722222222
 20
46.04585638742335
 30
0.0
 11
-82.25119722222222
 21
46.04585638742335
 31
0.0
  0
LINE
  5
67C
330
6F
100
AcDbEntity
  8
GEO_
 62
     7
420
 16777215
100
AcDbLine
 10
-82.25119722222222
 20
46.04585638742335
 30
0.0
 11
-82.38267499999997
 21
45.74867003948728
 31
0.0
  0
LINE
  5
67D
330
6F
100
AcDbEntity
  8
GEO_
 62
     7
420
 16777215
100
AcDbLine
 10
-82.38267499999997
 20
45.74867003948728
 30
0.0
 11
-82.38267499999997
 21
45.74867003948728
 31
0.0
  0
LINE
  5
67E
330
6F
100
AcDbEntity
  8
GEO_
 62
     7
420
 16777215
100
AcDbLine
 10
-82.38267499999997
 20
45.74867003948728
 30
0.0
 11
-82.25119722222222
 21
46.04585638742335
 31
0.0
  0
LINE
  5
67F
330
6F
100
AcDbEntity
  8
GEO_
 62
     7
420
 16777215
100
AcDbLine
 10
-82.38267499999997
 20
45.74867003948728
 30
0.0
 11
-82.51944444444445
 21
45.61382073489984
 31
0.0
  0
LINE
  5
680
330
6F
100
AcDbEntity
  8
GEO_
 62
     7
420
 16777215
100
AcDbLine
 10
-82.51944444444445
 20
45.61382073489984
 30
0.0
 11
-82.51944444444445
 21
45.61382073489984
 31
0.0
  0
LINE
  5
681
330
6F
100
AcDbEntity
  8
GEO_
 62
     7
420
 16777215
100
AcDbLine
 10
-82.51944444444445
 20
45.61382073489984
 30
0.0
 11
-82.38267499999997
 21
45.74867003948728
 31
0.0
  0
LINE
  5
682
330
6F
100
AcDbEntity
  8
GEO_
 62
     7
420
 16777215
100
AcDbLine
 10
-82.51944444444445
 20
45.61382073489984
 30
0.0
 11
-82.54245
 21
45.51775623586837
 31
0.0
  0
LINE
  5
683
330
6F
100
AcDbEntity
  8
GEO_
 62
     7
420
 16777215
100
AcDbLine
 10
-82.54245
 20
45.51775623586837
 30
0.0
 11
-82.54245
 21
45.51775623586837
 31
0.0
  0
LINE
  5
684
330
6F
100
AcDbEntity
  8
GEO_
 62
     7
420
 16777215
100
AcDbLine
 10
-82.54245
 20
45.51775623586837
 30
0.0
 11
-82.51944444444445
 21
45.61382073489984
 31
0.0
  0
LINE
  5
685
330
6F
100
AcDbEntity
  8
GEO_
 62
     7
420
 16777215
100
AcDbLine
 10
-82.54245
 20
45.51775623586837
 30
0.0
 11
-82.79858888888886
 21
45.48199673916061
 31
0.0
  0
LINE
  5
686
330
6F
100
AcDbEntity
  8
GEO_
 62
     7
420
 16777215
100
AcDbLine
 10
-82.79858888888886
 20
45.48199673916061
 30
0.0
 11
-82.79858888888886
 21
45.48199673916061
 31
0.0
  0
LINE
  5
687
330
6F
100
AcDbEntity
  8
GEO_
 62
     7
420
 16777215
100
AcDbLine
 10
-82.79858888888886
 20
45.48199673916061
 30
0.0
 11
-82.54245
 21
45.51775623586837
 31
0.0
  0
LINE
  5
688
330
6F
100
AcDbEntity
  8
GEO_
 62
     7
420
 16777215
100
AcDbLine
 10
-82.79858888888886
 20
45.48199673916061
 30
0.0
 11
-82.84833333333333
 21
45.48607412381707
 31
0.0
  0
LINE
  5
689
330
6F
100
AcDbEntity
  8
GEO_
 62
     7
420
 16777215
100
AcDbLine
 10
-82.84833333333333
 20
45.48607412381707
 30
0.0
 11
-82.84833333333333
 21
45.48607412381707
 31
0.0
  0
LINE
  5
68A
330
6F
100
AcDbEntity
  8
GEO_
 62
     7
420
 16777215
100
AcDbLine
 10
-82.84833333333333
 20
45.48607412381707
 30
0.0
 11
-82.79858888888886
 21
45.48199673916061
 31
0.0
  0
LINE
  5
68B
330
6F
100
AcDbEntity
  8
GEO_
 62
     7
420
 16777215
100
AcDbLine
 10
-82.84833333333333
 20
45.48607412381707
 30
0.0
 11
-83.02275555555555
 21
45.5141474214194
 31
0.0
  0
LINE
  5
68C
330
6F
100
AcDbEntity
  8
GEO_
 62
     7
420
 16777215
100
AcDbLine
 10
-83.02275555555555
 20
45.5141474214194
 30
0.0
 11
-83.02275555555555
 21
45.5141474214194
 31
0.0
  0
LINE
  5
68D
330
6F
100
AcDbEntity
  8
GEO_
 62
     7
420
 16777215
100
AcDbLine
 10
-83.02275555555555
 20
45.5141474214194
 30
0.0
 11
-82.84833333333333
 21
45.48607412381707
 31
0.0
  0
LINE
  5
68E
330
6F
100
AcDbEntity
  8
GEO_
 62
     7
420
 16777215
100
AcDbLine
 10
-83.02275555555555
 20
45.5141474214194
 30
0.0
 11
-83.25435555555555
 21
45.54334426320163
 31
0.0
  0
LINE
  5
68F
330
6F
100
AcDbEntity
  8
GEO_
 62
     7
420
 16777215
100
AcDbLine
 10
-83.25435555555555
 20
45.54334426320163
 30
0.0
 11
-83.25435555555555
 21
45.54334426320163
 31
0.0
  0
LINE
  5
690
330
6F
100
AcDbEntity
  8
GEO_
 62
     7
420
 16777215
100
AcDbLine
 10
-83.25435555555555
 20
45.54334426320163
 30
0.0
 11
-83.02275555555555
 21
45.5141474214194
 31
0.0
  0
LINE
  5
6B6
330
6F
100
AcDbEntity
  8
GEO_
 62
     7
420
 16777215
100
AcDbLine
 10
-82.25119722222222
 20
46.04585638742335
 30
0.0
 11
-82.15962500000001
 21
46.01606477632069
 31
0.0
  0
LINE
  5
6B7
330
6F
100
AcDbEntity
  8
GEO_
 62
     7
420
 16777215
100
AcDbLine
 10
-82.15962500000001
 20
46.01606477632069
 30
0.0
 11
-81.9111111111111
 21
45.84015413471408
 31
0.0
  0
LINE
  5
6BB
330
6F
100
AcDbEntity
  8
GEO_
 62
     7
420
 16777215
100
AcDbLine
 10
-82.54245
 20
45.51775623586837
 30
0.0
 11
-82.79858888888886
 21
45.48199673916061
 31
0.0
  0
LINE
  5
6BC
330
6F
100
AcDbEntity
  8
GEO_
 62
     7
420
 16777215
100
AcDbLine
 10
-82.79858888888886
 20
45.48199673916061
 30
0.0
 11
-82.84833333333333
 21
45.48607412381707
 31
0.0
  0
LINE
  5
6BD
330
6F
100
AcDbEntity
  8
GEO_
 62
     7
420
 16777215
100
AcDbLine
 10
-82.84833333333333
 20
45.48607412381707
 30
0.0
 11
-83.02275555555555
 21
45.5141474214194
 31
0.0
  0
LINE
  5
6BE
330
6F
100
AcDbEntity
  8
GEO_
 62
     7
420
 16777215
100
AcDbLine
 10
-83.02275555555555
 20
45.5141474214194
 30
0.0
 11
-83.25435555555555
 21
45.54334426320163
 31
0.0
  0
LINE
  5
6CC
330
6F
100
AcDbEntity
  8
GEO_
 62
     7
420
 16777215
100
AcDbLine
 10
-82.25119722222222
 20
46.04585638742335
 30
0.0
 11
-82.15962500000001
 21
46.01606477632069
 31
0.0
  0
LINE
  5
6CD
330
6F
100
AcDbEntity
  8
GEO_
 62
     7
420
 16777215
100
AcDbLine
 10
-82.15962500000001
 20
46.01606477632069
 30
0.0
 11
-81.9111111111111
 21
45.84015413471408
 31
0.0
  0
LINE
  5
6D1
330
6F
100
AcDbEntity
  8
GEO_
 62
     7
420
 16777215
100
AcDbLine
 10
-82.54245
 20
45.51775623586837
 30
0.0
 11
-82.79858888888886
 21
45.48199673916061
 31
0.0
  0
LINE
  5
6D2
330
6F
100
AcDbEntity
  8
GEO_
 62
     7
420
 16777215
100
AcDbLine
 10
-82.79858888888886
 20
45.48199673916061
 30
0.0
 11
-82.84833333333333
 21
45.48607412381707
 31
0.0
  0
LINE
  5
6D3
330
6F
100
AcDbEntity
  8
GEO_
 62
     7
420
 16777215
100
AcDbLine
 10
-82.84833333333333
 20
45.48607412381707
 30
0.0
 11
-83.02275555555555
 21
45.5141474214194
 31
0.0
  0
LINE
  5
6D4
330
6F
100
AcDbEntity
  8
GEO_
 62
     7
420
 16777215
100
AcDbLine
 10
-83.02275555555555
 20
45.5141474214194
 30
0.0
 11
-83.25435555555555
 21
45.54334426320163
 31
0.0
  0
LINE
  5
6E5
330
6F
100
AcDbEntity
  8
GEO_
 62
     7
420
 16777215
100
AcDbLine
 10
-82.25119722222222
 20
46.04585638742335
 30
0.0
 11
-82.25119722222222
 21
46.04585638742335
 31
0.0
  0
LINE
  5
6E7
330
6F
100
AcDbEntity
  8
GEO_
 62
     7
420
 16777215
100
AcDbLine
 10
-82.25119722222222
 20
46.04585638742335
 30
0.0
 11
-82.15962500000001
 21
46.01606477632069
 31
0.0
  0
LINE
  5
6E8
330
6F
100
AcDbEntity
  8
GEO_
 62
     7
420
 16777215
100
AcDbLine
 10
-82.15962500000001
 20
46.01606477632069
 30
0.0
 11
-82.15962500000001
 21
46.01606477632069
 31
0.0
  0
LINE
  5
6E9
330
6F
100
AcDbEntity
  8
GEO_
 62
     7
420
 16777215
100
AcDbLine
 10
-82.15962500000001
 20
46.01606477632069
 30
0.0
 11
-82.25119722222222
 21
46.04585638742335
 31
0.0
  0
LINE
  5
6EA
330
6F
100
AcDbEntity
  8
GEO_
 62
     7
420
 16777215
100
AcDbLine
 10
-82.15962500000001
 20
46.01606477632069
 30
0.0
 11
-81.9111111111111
 21
45.84015413471408
 31
0.0
  0
LINE
  5
6EB
330
6F
100
AcDbEntity
  8
GEO_
 62
     7
420
 16777215
100
AcDbLine
 10
-81.9111111111111
 20
45.84015413471408
 30
0.0
 11
-81.9111111111111
 21
45.84015413471408
 31
0.0
  0
LINE
  5
6EC
330
6F
100
AcDbEntity
  8
GEO_
 62
     7
420
 16777215
100
AcDbLine
 10
-81.9111111111111
 20
45.84015413471408
 30
0.0
 11
-82.15962500000001
 21
46.01606477632069
 31
0.0
  0
LINE
  5
6F4
330
6F
100
AcDbEntity
  8
GEO_
 62
     7
420
 16777215
100
AcDbLine
 10
-82.54245
 20
45.51775623586837
 30
0.0
 11
-82.54245
 21
45.51775623586837
 31
0.0
  0
LINE
  5
6F6
330
6F
100
AcDbEntity
  8
GEO_
 62
     7
420
 16777215
100
AcDbLine
 10
-82.54245
 20
45.51775623586837
 30
0.0
 11
-82.79858888888886
 21
45.48199673916061
 31
0.0
  0
LINE
  5
6F7
330
6F
100
AcDbEntity
  8
GEO_
 62
     7
420
 16777215
100
AcDbLine
 10
-82.79858888888886
 20
45.48199673916061
 30
0.0
 11
-82.79858888888886
 21
45.48199673916061
 31
0.0
  0
LINE
  5
6F8
330
6F
100
AcDbEntity
  8
GEO_
 62
     7
420
 16777215
100
AcDbLine
 10
-82.79858888888886
 20
45.48199673916061
 30
0.0
 11
-82.54245
 21
45.51775623586837
 31
0.0
  0
LINE
  5
6F9
330
6F
100
AcDbEntity
  8
GEO_
 62
     7
420
 16777215
100
AcDbLine
 10
-82.79858888888886
 20
45.48199673916061
 30
0.0
 11
-82.84833333333333
 21
45.48607412381707
 31
0.0
  0
LINE
  5
6FA
330
6F
100
AcDbEntity
  8
GEO_
 62
     7
420
 16777215
100
AcDbLine
 10
-82.84833333333333
 20
45.48607412381707
 30
0.0
 11
-82.84833333333333
 21
45.48607412381707
 31
0.0
  0
LINE
  5
6FB
330
6F
100
AcDbEntity
  8
GEO_
 62
     7
420
 16777215
100
AcDbLine
 10
-82.84833333333333
 20
45.48607412381707
 30
0.0
 11
-82.79858888888886
 21
45.48199673916061
 31
0.0
  0
LINE
  5
6FC
330
6F
100
AcDbEntity
  8
GEO_
 62
     7
420
 16777215
100
AcDbLine
 10
-82.84833333333333
 20
45.48607412381707
 30
0.0
 11
-83.02275555555555
 21
45.5141474214194
 31
0.0
  0
LINE
  5
6FD
330
6F
100
AcDbEntity
  8
GEO_
 62
     7
420
 16777215
100
AcDbLine
 10
-83.02275555555555
 20
45.5141474214194
 30
0.0
 11
-83.02275555555555
 21
45.5141474214194
 31
0.0
  0
LINE
  5
6FE
330
6F
100
AcDbEntity
  8
GEO_
 62
     7
420
 16777215
100
AcDbLine
 10
-83.02275555555555
 20
45.5141474214194
 30
0.0
 11
-82.84833333333333
 21
45.48607412381707
 31
0.0
  0
LINE
  5
6FF
330
6F
100
AcDbEntity
  8
GEO_
 62
     7
420
 16777215
100
AcDbLine
 10
-83.02275555555555
 20
45.5141474214194
 30
0.0
 11
-83.25435555555555
 21
45.54334426320163
 31
0.0
  0
LINE
  5
700
330
6F
100
AcDbEntity
  8
GEO_
 62
     7
420
 16777215
100
AcDbLine
 10
-83.25435555555555
 20
45.54334426320163
 30
0.0
 11
-83.25435555555555
 21
45.54334426320163
 31
0.0
  0
LINE
  5
701
330
6F
100
AcDbEntity
  8
GEO_
 62
     7
420
 16777215
100
AcDbLine
 10
-83.25435555555555
 20
45.54334426320163
 30
0.0
 11
-83.02275555555555
 21
45.5141474214194
 31
0.0
  0
LINE
  5
72A
330
6F
100
AcDbEntity
  8
GEO_
 62
     7
420
 16777215
100
AcDbLine
 10
-82.25119722222222
 20
46.04585638742335
 30
0.0
 11
-82.15962500000001
 21
46.01606477632069
 31
0.0
  0
LINE
  5
72B
330
6F
100
AcDbEntity
  8
GEO_
 62
     7
420
 16777215
100
AcDbLine
 10
-82.15962500000001
 20
46.01606477632069
 30
0.0
 11
-81.9111111111111
 21
45.84015413471408
 31
0.0
  0
LINE
  5
72F
330
6F
100
AcDbEntity
  8
GEO_
 62
     7
420
 16777215
100
AcDbLine
 10
-82.54245
 20
45.51775623586837
 30
0.0
 11
-82.79858888888886
 21
45.48199673916061
 31
0.0
  0
LINE
  5
730
330
6F
100
AcDbEntity
  8
GEO_
 62
     7
420
 16777215
100
AcDbLine
 10
-82.79858888888886
 20
45.48199673916061
 30
0.0
 11
-82.84833333333333
 21
45.48607412381707
 31
0.0
  0
LINE
  5
731
330
6F
100
AcDbEntity
  8
GEO_
 62
     7
420
 16777215
100
AcDbLine
 10
-82.84833333333333
 20
45.48607412381707
 30
0.0
 11
-83.02275555555555
 21
45.5141474214194
 31
0.0
  0
LINE
  5
732
330
6F
100
AcDbEntity
  8
GEO_
 62
     7
420
 16777215
100
AcDbLine
 10
-83.02275555555555
 20
45.5141474214194
 30
0.0
 11
-83.25435555555555
 21
45.54334426320163
 31
0.0
  0
LINE
  5
73C
330
6F
100
AcDbEntity
  8
GEO_
 62
     7
420
 16777215
100
AcDbLine
 10
-82.25119722222222
 20
46.04585638742335
 30
0.0
 11
-82.15962500000001
 21
46.01606477632069
 31
0.0
  0
LINE
  5
73D
330
6F
100
AcDbEntity
  8
GEO_
 62
     7
420
 16777215
100
AcDbLine
 10
-82.15962500000001
 20
46.01606477632069
 30
0.0
 11
-81.9111111111111
 21
45.84015413471408
 31
0.0
  0
LINE
  5
741
330
6F
100
AcDbEntity
  8
GEO_
 62
     7
420
 16777215
100
AcDbLine
 10
-82.54245
 20
45.51775623586837
 30
0.0
 11
-82.79858888888886
 21
45.48199673916061
 31
0.0
  0
LINE
  5
742
330
6F
100
AcDbEntity
  8
GEO_
 62
     7
420
 16777215
100
AcDbLine
 10
-82.79858888888886
 20
45.48199673916061
 30
0.0
 11
-82.84833333333333
 21
45.48607412381707
 31
0.0
  0
LINE
  5
743
330
6F
100
AcDbEntity
  8
GEO_
 62
     7
420
 16777215
100
AcDbLine
 10
-82.84833333333333
 20
45.48607412381707
 30
0.0
 11
-83.02275555555555
 21
45.5141474214194
 31
0.0
  0
LINE
  5
744
330
6F
100
AcDbEntity
  8
GEO_
 62
     7
420
 16777215
100
AcDbLine
 10
-83.02275555555555
 20
45.5141474214194
 30
0.0
 11
-83.25435555555555
 21
45.54334426320163
 31
0.0
  0
LINE
  5
757
330
6F
100
AcDbEntity
  8
GEO_
 62
     7
420
 16777215
100
AcDbLine
 10
-82.25119722222222
 20
46.04585638742335
 30
0.0
 11
-82.25119722222222
 21
46.04585638742335
 31
0.0
  0
LINE
  5
759
330
6F
100
AcDbEntity
  8
GEO_
 62
     7
420
 16777215
100
AcDbLine
 10
-82.25119722222222
 20
46.04585638742335
 30
0.0
 11
-82.15962500000001
 21
46.01606477632069
 31
0.0
  0
LINE
  5
75A
330
6F
100
AcDbEntity
  8
GEO_
 62
     7
420
 16777215
100
AcDbLine
 10
-82.15962500000001
 20
46.01606477632069
 30
0.0
 11
-82.15962500000001
 21
46.01606477632069
 31
0.0
  0
LINE
  5
75B
330
6F
100
AcDbEntity
  8
GEO_
 62
     7
420
 16777215
100
AcDbLine
 10
-82.15962500000001
 20
46.01606477632069
 30
0.0
 11
-82.25119722222222
 21
46.04585638742335
 31
0.0
  0
LINE
  5
75C
330
6F
100
AcDbEntity
  8
GEO_
 62
     7
420
 16777215
100
AcDbLine
 10
-82.15962500000001
 20
46.01606477632069
 30
0.0
 11
-81.9111111111111
 21
45.84015413471408
 31
0.0
  0
LINE
  5
75D
330
6F
100
AcDbEntity
  8
GEO_
 62
     7
420
 16777215
100
AcDbLine
 10
-81.9111111111111
 20
45.84015413471408
 30
0.0
 11
-81.9111111111111
 21
45.84015413471408
 31
0.0
  0
LINE
  5
75E
330
6F
100
AcDbEntity
  8
GEO_
 62
     7
420
 16777215
100
AcDbLine
 10
-81.9111111111111
 20
45.84015413471408
 30
0.0
 11
-82.15962500000001
 21
46.01606477632069
 31
0.0
  0
LINE
  5
766
330
6F
100
AcDbEntity
  8
GEO_
 62
     7
420
 16777215
100
AcDbLine
 10
-82.54245
 20
45.51775623586837
 30
0.0
 11
-82.54245
 21
45.51775623586837
 31
0.0
  0
LINE
  5
768
330
6F
100
AcDbEntity
  8
GEO_
 62
     7
420
 16777215
100
AcDbLine
 10
-82.54245
 20
45.51775623586837
 30
0.0
 11
-82.79858888888886
 21
45.48199673916061
 31
0.0
  0
LINE
  5
769
330
6F
100
AcDbEntity
  8
GEO_
 62
     7
420
 16777215
100
AcDbLine
 10
-82.79858888888886
 20
45.48199673916061
 30
0.0
 11
-82.79858888888886
 21
45.48199673916061
 31
0.0
  0
LINE
  5
76A
330
6F
100
AcDbEntity
  8
GEO_
 62
     7
420
 16777215
100
AcDbLine
 10
-82.79858888888886
 20
45.48199673916061
 30
0.0
 11
-82.54245
 21
45.51775623586837
 31
0.0
  0
LINE
  5
76B
330
6F
100
AcDbEntity
  8
GEO_
 62
     7
420
 16777215
100
AcDbLine
 10
-82.79858888888886
 20
45.48199673916061
 30
0.0
 11
-82.84833333333333
 21
45.48607412381707
 31
0.0
  0
LINE
  5
76C
330
6F
100
AcDbEntity
  8
GEO_
 62
     7
420
 16777215
100
AcDbLine
 10
-82.84833333333333
 20
45.48607412381707
 30
0.0
 11
-82.84833333333333
 21
45.48607412381707
 31
0.0
  0
LINE
  5
76D
330
6F
100
AcDbEntity
  8
GEO_
 62
     7
420
 16777215
100
AcDbLine
 10
-82.84833333333333
 20
45.48607412381707
 30
0.0
 11
-82.79858888888886
 21
45.48199673916061
 31
0.0
  0
LINE
  5
76E
330
6F
100
AcDbEntity
  8
GEO_
 62
     7
420
 16777215
100
AcDbLine
 10
-82.84833333333333
 20
45.48607412381707
 30
0.0
 11
-83.02275555555555
 21
45.5141474214194
 31
0.0
  0
LINE
  5
76F
330
6F
100
AcDbEntity
  8
GEO_
 62
     7
420
 16777215
100
AcDbLine
 10
-83.02275555555555
 20
45.5141474214194
 30
0.0
 11
-83.02275555555555
 21
45.5141474214194
 31
0.0
  0
LINE
  5
770
330
6F
100
AcDbEntity
  8
GEO_
 62
     7
420
 16777215
100
AcDbLine
 10
-83.02275555555555
 20
45.5141474214194
 30
0.0
 11
-82.84833333333333
 21
45.48607412381707
 31
0.0
  0
LINE
  5
771
330
6F
100
AcDbEntity
  8
GEO_
 62
     7
420
 16777215
100
AcDbLine
 10
-83.02275555555555
 20
45.5141474214194
 30
0.0
 11
-83.25435555555555
 21
45.54334426320163
 31
0.0
  0
LINE
  5
772
330
6F
100
AcDbEntity
  8
GEO_
 62
     7
420
 16777215
100
AcDbLine
 10
-83.25435555555555
 20
45.54334426320163
 30
0.0
 11
-83.25435555555555
 21
45.54334426320163
 31
0.0
  0
LINE
  5
773
330
6F
100
AcDbEntity
  8
GEO_
 62
     7
420
 16777215
100
AcDbLine
 10
-83.25435555555555
 20
45.54334426320163
 30
0.0
 11
-83.02275555555555
 21
45.5141474214194
 31
0.0
  0
LINE
  5
787
330
6F
100
AcDbEntity
  8
GEO_
 62
     7
420
 16777215
100
AcDbLine
 10
-82.25119722222222
 20
46.04585638742335
 30
0.0
 11
-82.15962500000001
 21
46.01606477632069
 31
0.0
  0
LINE
  5
788
330
6F
100
AcDbEntity
  8
GEO_
 62
     7
420
 16777215
100
AcDbLine
 10
-82.15962500000001
 20
46.01606477632069
 30
0.0
 11
-81.9111111111111
 21
45.84015413471408
 31
0.0
  0
LINE
  5
789
330
6F
100
AcDbEntity
  8
GEO_
 62
     7
420
 16777215
100
AcDbLine
 10
-81.9111111111111
 20
45.84015413471408
 30
0.0
 11
-81.79444444444444
 21
45.58158860677155
 31
0.0
  0
LINE
  5
78A
330
6F
100
AcDbEntity
  8
GEO_
 62
     7
420
 16777215
100
AcDbLine
 10
-81.79444444444444
 20
45.58158860677155
 30
0.0
 11
-81.95833333333334
 21
45.3677524834445
 31
0.0
  0
LINE
  5
78B
330
6F
100
AcDbEntity
  8
GEO_
 62
     7
420
 16777215
100
AcDbLine
 10
-81.95833333333334
 20
45.3677524834445
 30
0.0
 11
-82.44874166666669
 21
45.16988699888992
 31
0.0
  0
LINE
  5
78C
330
6F
100
AcDbEntity
  8
GEO_
 62
     7
420
 16777215
100
AcDbLine
 10
-82.44874166666669
 20
45.16988699888992
 30
0.0
 11
-82.51762777777775
 21
45.14179932417075
 31
0.0
  0
LINE
  5
78D
330
6F
100
AcDbEntity
  8
GEO_
 62
     7
420
 16777215
100
AcDbLine
 10
-82.51762777777775
 20
45.14179932417075
 30
0.0
 11
-82.52792777777775
 21
45.14059050404782
 31
0.0
  0
LINE
  5
78E
330
6F
100
AcDbEntity
  8
GEO_
 62
     7
420
 16777215
100
AcDbLine
 10
-82.52792777777775
 20
45.14059050404782
 30
0.0
 11
-82.61694444444444
 21
45.04356363848006
 31
0.0
  0
LINE
  5
790
330
6F
100
AcDbEntity
  8
GEO_
 62
     7
420
 16777215
100
AcDbLine
 10
-82.79858888888886
 20
45.48199673916061
 30
0.0
 11
-82.84833333333333
 21
45.48607412381707
 31
0.0
  0
LINE
  5
791
330
6F
100
AcDbEntity
  8
GEO_
 62
     7
420
 16777215
100
AcDbLine
 10
-82.84833333333333
 20
45.48607412381707
 30
0.0
 11
-83.02275555555555
 21
45.5141474214194
 31
0.0
  0
LINE
  5
792
330
6F
100
AcDbEntity
  8
GEO_
 62
     7
420
 16777215
100
AcDbLine
 10
-83.02275555555555
 20
45.5141474214194
 30
0.0
 11
-83.25435555555555
 21
45.54334426320163
 31
0.0
  0
LINE
  5
79C
330
6F
100
AcDbEntity
  8
GEO_
 62
     7
420
 16777215
100
AcDbLine
 10
-82.25119722222222
 20
46.04585638742335
 30
0.0
 11
-82.15962500000001
 21
46.01606477632069
 31
0.0
  0
LINE
  5
79D
330
6F
100
AcDbEntity
  8
GEO_
 62
     7
420
 16777215
100
AcDbLine
 10
-82.15962500000001
 20
46.01606477632069
 30
0.0
 11
-81.9111111111111
 21
45.84015413471408
 31
0.0
  0
LINE
  5
79E
330
6F
100
AcDbEntity
  8
GEO_
 62
     7
420
 16777215
100
AcDbLine
 10
-81.9111111111111
 20
45.84015413471408
 30
0.0
 11
-81.79444444444444
 21
45.58158860677155
 31
0.0
  0
LINE
  5
79F
330
6F
100
AcDbEntity
  8
GEO_
 62
     7
420
 16777215
100
AcDbLine
 10
-81.79444444444444
 20
45.58158860677155
 30
0.0
 11
-81.95833333333334
 21
45.3677524834445
 31
0.0
  0
LINE
  5
7A0
330
6F
100
AcDbEntity
  8
GEO_
 62
     7
420
 16777215
100
AcDbLine
 10
-81.95833333333334
 20
45.3677524834445
 30
0.0
 11
-82.44874166666669
 21
45.16988699888992
 31
0.0
  0
LINE
  5
7A1
330
6F
100
AcDbEntity
  8
GEO_
 62
     7
420
 16777215
100
AcDbLine
 10
-82.44874166666669
 20
45.16988699888992
 30
0.0
 11
-82.51762777777775
 21
45.14179932417075
 31
0.0
  0
LINE
  5
7A2
330
6F
100
AcDbEntity
  8
GEO_
 62
     7
420
 16777215
100
AcDbLine
 10
-82.51762777777775
 20
45.14179932417075
 30
0.0
 11
-82.52792777777775
 21
45.14059050404782
 31
0.0
  0
LINE
  5
7A3
330
6F
100
AcDbEntity
  8
GEO_
 62
     7
420
 16777215
100
AcDbLine
 10
-82.52792777777775
 20
45.14059050404782
 30
0.0
 11
-82.61694444444444
 21
45.04356363848006
 31
0.0
  0
LINE
  5
7A5
330
6F
100
AcDbEntity
  8
GEO_
 62
     7
420
 16777215
100
AcDbLine
 10
-82.79858888888886
 20
45.48199673916061
 30
0.0
 11
-82.84833333333333
 21
45.48607412381707
 31
0.0
  0
LINE
  5
7A6
330
6F
100
AcDbEntity
  8
GEO_
 62
     7
420
 16777215
100
AcDbLine
 10
-82.84833333333333
 20
45.48607412381707
 30
0.0
 11
-83.02275555555555
 21
45.5141474214194
 31
0.0
  0
LINE
  5
7A7
330
6F
100
AcDbEntity
  8
GEO_
 62
     7
420
 16777215
100
AcDbLine
 10
-83.02275555555555
 20
45.5141474214194
 30
0.0
 11
-83.25435555555555
 21
45.54334426320163
 31
0.0
  0
LINE
  5
7BA
330
6F
100
AcDbEntity
  8
GEO_
 62
     7
420
 16777215
100
AcDbLine
 10
-82.25119722222222
 20
46.04585638742335
 30
0.0
 11
-82.25119722222222
 21
46.04585638742335
 31
0.0
  0
LINE
  5
7BC
330
6F
100
AcDbEntity
  8
GEO_
 62
     7
420
 16777215
100
AcDbLine
 10
-82.25119722222222
 20
46.04585638742335
 30
0.0
 11
-82.15962500000001
 21
46.01606477632069
 31
0.0
  0
LINE
  5
7BD
330
6F
100
AcDbEntity
  8
GEO_
 62
     7
420
 16777215
100
AcDbLine
 10
-82.15962500000001
 20
46.01606477632069
 30
0.0
 11
-82.15962500000001
 21
46.01606477632069
 31
0.0
  0
LINE
  5
7BE
330
6F
100
AcDbEntity
  8
GEO_
 62
     7
420
 16777215
100
AcDbLine
 10
-82.15962500000001
 20
46.01606477632069
 30
0.0
 11
-82.25119722222222
 21
46.04585638742335
 31
0.0
  0
LINE
  5
7BF
330
6F
100
AcDbEntity
  8
GEO_
 62
     7
420
 16777215
100
AcDbLine
 10
-82.15962500000001
 20
46.01606477632069
 30
0.0
 11
-81.9111111111111
 21
45.84015413471408
 31
0.0
  0
LINE
  5
7C0
330
6F
100
AcDbEntity
  8
GEO_
 62
     7
420
 16777215
100
AcDbLine
 10
-81.9111111111111
 20
45.84015413471408
 30
0.0
 11
-81.9111111111111
 21
45.84015413471408
 31
0.0
  0
LINE
  5
7C1
330
6F
100
AcDbEntity
  8
GEO_
 62
     7
420
 16777215
100
AcDbLine
 10
-81.9111111111111
 20
45.84015413471408
 30
0.0
 11
-82.15962500000001
 21
46.01606477632069
 31
0.0
  0
LINE
  5
7C2
330
6F
100
AcDbEntity
  8
GEO_
 62
     7
420
 16777215
100
AcDbLine
 10
-81.9111111111111
 20
45.84015413471408
 30
0.0
 11
-81.79444444444444
 21
45.58158860677155
 31
0.0
  0
LINE
  5
7C3
330
6F
100
AcDbEntity
  8
GEO_
 62
     7
420
 16777215
100
AcDbLine
 10
-81.79444444444444
 20
45.58158860677155
 30
0.0
 11
-81.79444444444444
 21
45.58158860677155
 31
0.0
  0
LINE
  5
7C4
330
6F
100
AcDbEntity
  8
GEO_
 62
     7
420
 16777215
100
AcDbLine
 10
-81.79444444444444
 20
45.58158860677155
 30
0.0
 11
-81.9111111111111
 21
45.84015413471408
 31
0.0
  0
LINE
  5
7C5
330
6F
100
AcDbEntity
  8
GEO_
 62
     7
420
 16777215
100
AcDbLine
 10
-81.79444444444444
 20
45.58158860677155
 30
0.0
 11
-81.95833333333334
 21
45.3677524834445
 31
0.0
  0
LINE
  5
7C6
330
6F
100
AcDbEntity
  8
GEO_
 62
     7
420
 16777215
100
AcDbLine
 10
-81.95833333333334
 20
45.3677524834445
 30
0.0
 11
-81.95833333333334
 21
45.3677524834445
 31
0.0
  0
LINE
  5
7C7
330
6F
100
AcDbEntity
  8
GEO_
 62
     7
420
 16777215
100
AcDbLine
 10
-81.95833333333334
 20
45.3677524834445
 30
0.0
 11
-81.79444444444444
 21
45.58158860677155
 31
0.0
  0
LINE
  5
7C8
330
6F
100
AcDbEntity
  8
GEO_
 62
     7
420
 16777215
100
AcDbLine
 10
-81.95833333333334
 20
45.3677524834445
 30
0.0
 11
-82.44874166666669
 21
45.16988699888992
 31
0.0
  0
LINE
  5
7C9
330
6F
100
AcDbEntity
  8
GEO_
 62
     7
420
 16777215
100
AcDbLine
 10
-82.44874166666669
 20
45.16988699888992
 30
0.0
 11
-82.44874166666669
 21
45.16988699888992
 31
0.0
  0
LINE
  5
7CA
330
6F
100
AcDbEntity
  8
GEO_
 62
     7
420
 16777215
100
AcDbLine
 10
-82.44874166666669
 20
45.16988699888992
 30
0.0
 11
-81.95833333333334
 21
45.3677524834445
 31
0.0
  0
LINE
  5
7CB
330
6F
100
AcDbEntity
  8
GEO_
 62
     7
420
 16777215
100
AcDbLine
 10
-82.44874166666669
 20
45.16988699888992
 30
0.0
 11
-82.51762777777775
 21
45.14179932417075
 31
0.0
  0
LINE
  5
7CC
330
6F
100
AcDbEntity
  8
GEO_
 62
     7
420
 16777215
100
AcDbLine
 10
-82.51762777777775
 20
45.14179932417075
 30
0.0
 11
-82.51762777777775
 21
45.14179932417075
 31
0.0
  0
LINE
  5
7CD
330
6F
100
AcDbEntity
  8
GEO_
 62
     7
420
 16777215
100
AcDbLine
 10
-82.51762777777775
 20
45.14179932417075
 30
0.0
 11
-82.44874166666669
 21
45.16988699888992
 31
0.0
  0
LINE
  5
7CE
330
6F
100
AcDbEntity
  8
GEO_
 62
     7
420
 16777215
100
AcDbLine
 10
-82.51762777777775
 20
45.14179932417075
 30
0.0
 11
-82.52792777777775
 21
45.14059050404782
 31
0.0
  0
LINE
  5
7CF
330
6F
100
AcDbEntity
  8
GEO_
 62
     7
420
 16777215
100
AcDbLine
 10
-82.52792777777775
 20
45.14059050404782
 30
0.0
 11
-82.52792777777775
 21
45.14059050404782
 31
0.0
  0
LINE
  5
7D0
330
6F
100
AcDbEntity
  8
GEO_
 62
     7
420
 16777215
100
AcDbLine
 10
-82.52792777777775
 20
45.14059050404782
 30
0.0
 11
-82.51762777777775
 21
45.14179932417075
 31
0.0
  0
LINE
  5
7D1
330
6F
100
AcDbEntity
  8
GEO_
 62
     7
420
 16777215
100
AcDbLine
 10
-82.52792777777775
 20
45.14059050404782
 30
0.0
 11
-82.61694444444444
 21
45.04356363848006
 31
0.0
  0
LINE
  5
7D2
330
6F
100
AcDbEntity
  8
GEO_
 62
     7
420
 16777215
100
AcDbLine
 10
-82.61694444444444
 20
45.04356363848006
 30
0.0
 11
-82.61694444444444
 21
45.04356363848006
 31
0.0
  0
LINE
  5
7D3
330
6F
100
AcDbEntity
  8
GEO_
 62
     7
420
 16777215
100
AcDbLine
 10
-82.61694444444444
 20
45.04356363848006
 30
0.0
 11
-82.52792777777775
 21
45.14059050404782
 31
0.0
  0
LINE
  5
7D5
330
6F
100
AcDbEntity
  8
GEO_
 62
     7
420
 16777215
100
AcDbLine
 10
-82.79858888888886
 20
45.48199673916061
 30
0.0
 11
-82.79858888888886
 21
45.48199673916061
 31
0.0
  0
LINE
  5
7D7
330
6F
100
AcDbEntity
  8
GEO_
 62
     7
420
 16777215
100
AcDbLine
 10
-82.79858888888886
 20
45.48199673916061
 30
0.0
 11
-82.84833333333333
 21
45.48607412381707
 31
0.0
  0
LINE
  5
7D8
330
6F
100
AcDbEntity
  8
GEO_
 62
     7
420
 16777215
100
AcDbLine
 10
-82.84833333333333
 20
45.48607412381707
 30
0.0
 11
-82.84833333333333
 21
45.48607412381707
 31
0.0
  0
LINE
  5
7D9
330
6F
100
AcDbEntity
  8
GEO_
 62
     7
420
 16777215
100
AcDbLine
 10
-82.84833333333333
 20
45.48607412381707
 30
0.0
 11
-82.79858888888886
 21
45.48199673916061
 31
0.0
  0
LINE
  5
7DA
330
6F
100
AcDbEntity
  8
GEO_
 62
     7
420
 16777215
100
AcDbLine
 10
-82.84833333333333
 20
45.48607412381707
 30
0.0
 11
-83.02275555555555
 21
45.5141474214194
 31
0.0
  0
LINE
  5
7DB
330
6F
100
AcDbEntity
  8
GEO_
 62
     7
420
 16777215
100
AcDbLine
 10
-83.02275555555555
 20
45.5141474214194
 30
0.0
 11
-83.02275555555555
 21
45.5141474214194
 31
0.0
  0
LINE
  5
7DC
330
6F
100
AcDbEntity
  8
GEO_
 62
     7
420
 16777215
100
AcDbLine
 10
-83.02275555555555
 20
45.5141474214194
 30
0.0
 11
-82.84833333333333
 21
45.48607412381707
 31
0.0
  0
LINE
  5
7DD
330
6F
100
AcDbEntity
  8
GEO_
 62
     7
420
 16777215
100
AcDbLine
 10
-83.02275555555555
 20
45.5141474214194
 30
0.0
 11
-83.25435555555555
 21
45.54334426320163
 31
0.0
  0
LINE
  5
7DE
330
6F
100
AcDbEntity
  8
GEO_
 62
     7
420
 16777215
100
AcDbLine
 10
-83.25435555555555
 20
45.54334426320163
 30
0.0
 11
-83.25435555555555
 21
45.54334426320163
 31
0.0
  0
LINE
  5
7DF
330
6F
100
AcDbEntity
  8
GEO_
 62
     7
420
 16777215
100
AcDbLine
 10
-83.25435555555555
 20
45.54334426320163
 30
0.0
 11
-83.02275555555555
 21
45.5141474214194
 31
0.0
  0
LINE
  5
C71
330
6F
100
AcDbEntity
  8
GEO_
 62
     7
420
 16777215
100
AcDbLine
 10
-82.25119722222222
 20
46.04585638742335
 30
0.0
 11
-82.25119722222222
 21
46.04585638742335
 31
0.0
  0
LINE
  5
CCA
330
6F
100
AcDbEntity
  8
GEO_
 62
     7
420
 16777215
100
AcDbLine
 10
-82.25119722222222
 20
46.04585638742335
 30
0.0
 11
-82.25119722222222
 21
46.04585638742335
 31
0.0
  0
LINE
  5
CF3
330
6F
100
AcDbEntity
  8
GEO_
 62
     7
420
 16777215
100
AcDbLine
 10
-81.9111111111111
 20
45.84015413471408
 30
0.0
 11
-82.15962500000001
 21
46.01606477632069
 31
0.0
  0
LINE
  5
CF4
330
6F
100
AcDbEntity
  8
GEO_
 62
     7
420
 16777215
100
AcDbLine
 10
-82.15962500000001
 20
46.01606477632069
 30
0.0
 11
-82.25119722222222
 21
46.04585638742335
 31
0.0
  0
LINE
  5
D08
330
6F
100
AcDbEntity
  8
GEO_
 62
     7
420
 16777215
100
AcDbLine
 10
-81.9111111111111
 20
45.84015413471408
 30
0.0
 11
-82.15962500000001
 21
46.01606477632069
 31
0.0
  0
LINE
  5
D09
330
6F
100
AcDbEntity
  8
GEO_
 62
     7
420
 16777215
100
AcDbLine
 10
-82.15962500000001
 20
46.01606477632069
 30
0.0
 11
-82.25119722222222
 21
46.04585638742335
 31
0.0
  0
LINE
  5
D30
330
6F
100
AcDbEntity
  8
GEO_
 62
     7
420
 16777215
100
AcDbLine
 10
-81.9111111111111
 20
45.84015413471408
 30
0.0
 11
-81.9111111111111
 21
45.84015413471408
 31
0.0
  0
LINE
  5
D32
330
6F
100
AcDbEntity
  8
GEO_
 62
     7
420
 16777215
100
AcDbLine
 10
-81.9111111111111
 20
45.84015413471408
 30
0.0
 11
-82.15962500000001
 21
46.01606477632069
 31
0.0
  0
LINE
  5
D33
330
6F
100
AcDbEntity
  8
GEO_
 62
     7
420
 16777215
100
AcDbLine
 10
-82.15962500000001
 20
46.01606477632069
 30
0.0
 11
-82.15962500000001
 21
46.01606477632069
 31
0.0
  0
LINE
  5
D34
330
6F
100
AcDbEntity
  8
GEO_
 62
     7
420
 16777215
100
AcDbLine
 10
-82.15962500000001
 20
46.01606477632069
 30
0.0
 11
-81.9111111111111
 21
45.84015413471408
 31
0.0
  0
LINE
  5
D35
330
6F
100
AcDbEntity
  8
GEO_
 62
     7
420
 16777215
100
AcDbLine
 10
-82.15962500000001
 20
46.01606477632069
 30
0.0
 11
-82.25119722222222
 21
46.04585638742335
 31
0.0
  0
LINE
  5
D36
330
6F
100
AcDbEntity
  8
GEO_
 62
     7
420
 16777215
100
AcDbLine
 10
-82.25119722222222
 20
46.04585638742335
 30
0.0
 11
-82.25119722222222
 21
46.04585638742335
 31
0.0
  0
LINE
  5
D37
330
6F
100
AcDbEntity
  8
GEO_
 62
     7
420
 16777215
100
AcDbLine
 10
-82.25119722222222
 20
46.04585638742335
 30
0.0
 11
-82.15962500000001
 21
46.01606477632069
 31
0.0
  0
LINE
  5
D5D
330
6F
100
AcDbEntity
  8
GEO_
 62
     7
420
 16777215
100
AcDbLine
 10
-81.9111111111111
 20
45.84015413471408
 30
0.0
 11
-82.15962500000001
 21
46.01606477632069
 31
0.0
  0
LINE
  5
D5E
330
6F
100
AcDbEntity
  8
GEO_
 62
     7
420
 16777215
100
AcDbLine
 10
-82.15962500000001
 20
46.01606477632069
 30
0.0
 11
-82.25119722222222
 21
46.04585638742335
 31
0.0
  0
LINE
  5
D72
330
6F
100
AcDbEntity
  8
GEO_
 62
     7
420
 16777215
100
AcDbLine
 10
-81.9111111111111
 20
45.84015413471408
 30
0.0
 11
-82.15962500000001
 21
46.01606477632069
 31
0.0
  0
LINE
  5
D73
330
6F
100
AcDbEntity
  8
GEO_
 62
     7
420
 16777215
100
AcDbLine
 10
-82.15962500000001
 20
46.01606477632069
 30
0.0
 11
-82.25119722222222
 21
46.04585638742335
 31
0.0
  0
LINE
  5
D96
330
6F
100
AcDbEntity
  8
GEO_
 62
     7
420
 16777215
100
AcDbLine
 10
-81.9111111111111
 20
45.84015413471408
 30
0.0
 11
-81.9111111111111
 21
45.84015413471408
 31
0.0
  0
LINE
  5
D98
330
6F
100
AcDbEntity
  8
GEO_
 62
     7
420
 16777215
100
AcDbLine
 10
-81.9111111111111
 20
45.84015413471408
 30
0.0
 11
-82.15962500000001
 21
46.01606477632069
 31
0.0
  0
LINE
  5
D99
330
6F
100
AcDbEntity
  8
GEO_
 62
     7
420
 16777215
100
AcDbLine
 10
-82.15962500000001
 20
46.01606477632069
 30
0.0
 11
-82.15962500000001
 21
46.01606477632069
 31
0.0
  0
LINE
  5
D9A
330
6F
100
AcDbEntity
  8
GEO_
 62
     7
420
 16777215
100
AcDbLine
 10
-82.15962500000001
 20
46.01606477632069
 30
0.0
 11
-81.9111111111111
 21
45.84015413471408
 31
0.0
  0
LINE
  5
D9B
330
6F
100
AcDbEntity
  8
GEO_
 62
     7
420
 16777215
100
AcDbLine
 10
-82.15962500000001
 20
46.01606477632069
 30
0.0
 11
-82.25119722222222
 21
46.04585638742335
 31
0.0
  0
LINE
  5
D9C
330
6F
100
AcDbEntity
  8
GEO_
 62
     7
420
 16777215
100
AcDbLine
 10
-82.25119722222222
 20
46.04585638742335
 30
0.0
 11
-82.25119722222222
 21
46.04585638742335
 31
0.0
  0
LINE
  5
D9D
330
6F
100
AcDbEntity
  8
GEO_
 62
     7
420
 16777215
100
AcDbLine
 10
-82.25119722222222
 20
46.04585638742335
 30
0.0
 11
-82.15962500000001
 21
46.01606477632069
 31
0.0
  0
LINE
  5
DC9
330
6F
100
AcDbEntity
  8
GEO_
 62
     7
420
 16777215
100
AcDbLine
 10
-81.9111111111111
 20
45.84015413471408
 30
0.0
 11
-82.15962500000001
 21
46.01606477632069
 31
0.0
  0
LINE
  5
DCA
330
6F
100
AcDbEntity
  8
GEO_
 62
     7
420
 16777215
100
AcDbLine
 10
-82.15962500000001
 20
46.01606477632069
 30
0.0
 11
-82.25119722222222
 21
46.04585638742335
 31
0.0
  0
LINE
  5
DDF
330
6F
100
AcDbEntity
  8
GEO_
 62
     7
420
 16777215
100
AcDbLine
 10
-81.9111111111111
 20
45.84015413471408
 30
0.0
 11
-82.15962500000001
 21
46.01606477632069
 31
0.0
  0
LINE
  5
DE0
330
6F
100
AcDbEntity
  8
GEO_
 62
     7
420
 16777215
100
AcDbLine
 10
-82.15962500000001
 20
46.01606477632069
 30
0.0
 11
-82.25119722222222
 21
46.04585638742335
 31
0.0
  0
LINE
  5
E04
330
6F
100
AcDbEntity
  8
GEO_
 62
     7
420
 16777215
100
AcDbLine
 10
-81.9111111111111
 20
45.84015413471408
 30
0.0
 11
-81.9111111111111
 21
45.84015413471408
 31
0.0
  0
LINE
  5
E06
330
6F
100
AcDbEntity
  8
GEO_
 62
     7
420
 16777215
100
AcDbLine
 10
-81.9111111111111
 20
45.84015413471408
 30
0.0
 11
-82.15962500000001
 21
46.01606477632069
 31
0.0
  0
LINE
  5
E07
330
6F
100
AcDbEntity
  8
GEO_
 62
     7
420
 16777215
100
AcDbLine
 10
-82.15962500000001
 20
46.01606477632069
 30
0.0
 11
-82.15962500000001
 21
46.01606477632069
 31
0.0
  0
LINE
  5
E08
330
6F
100
AcDbEntity
  8
GEO_
 62
     7
420
 16777215
100
AcDbLine
 10
-82.15962500000001
 20
46.01606477632069
 30
0.0
 11
-81.9111111111111
 21
45.84015413471408
 31
0.0
  0
LINE
  5
E09
330
6F
100
AcDbEntity
  8
GEO_
 62
     7
420
 16777215
100
AcDbLine
 10
-82.15962500000001
 20
46.01606477632069
 30
0.0
 11
-82.25119722222222
 21
46.04585638742335
 31
0.0
  0
LINE
  5
E0A
330
6F
100
AcDbEntity
  8
GEO_
 62
     7
420
 16777215
100
AcDbLine
 10
-82.25119722222222
 20
46.04585638742335
 30
0.0
 11
-82.25119722222222
 21
46.04585638742335
 31
0.0
  0
LINE
  5
E0B
330
6F
100
AcDbEntity
  8
GEO_
 62
     7
420
 16777215
100
AcDbLine
 10
-82.25119722222222
 20
46.04585638742335
 30
0.0
 11
-82.15962500000001
 21
46.01606477632069
 31
0.0
  0
LINE
  5
1790
330
6F
100
AcDbEntity
  8
GEO_
 62
     7
420
 16777215
100
AcDbLine
 10
-81.79444444444444
 20
45.58158860677155
 30
0.0
 11
-81.9111111111111
 21
45.84015413471408
 31
0.0
  0
LINE
  5
17A1
330
6F
100
AcDbEntity
  8
GEO_
 62
     7
420
 16777215
100
AcDbLine
 10
-81.79444444444444
 20
45.58158860677155
 30
0.0
 11
-81.9111111111111
 21
45.84015413471408
 31
0.0
  0
LINE
  5
17CB
330
6F
100
AcDbEntity
  8
GEO_
 62
     7
420
 16777215
100
AcDbLine
 10
-81.79444444444444
 20
45.58158860677155
 30
0.0
 11
-81.79444444444444
 21
45.58158860677155
 31
0.0
  0
LINE
  5
17CD
330
6F
100
AcDbEntity
  8
GEO_
 62
     7
420
 16777215
100
AcDbLine
 10
-81.79444444444444
 20
45.58158860677155
 30
0.0
 11
-81.9111111111111
 21
45.84015413471408
 31
0.0
  0
LINE
  5
17CE
330
6F
100
AcDbEntity
  8
GEO_
 62
     7
420
 16777215
100
AcDbLine
 10
-81.9111111111111
 20
45.84015413471408
 30
0.0
 11
-81.9111111111111
 21
45.84015413471408
 31
0.0
  0
LINE
  5
17CF
330
6F
100
AcDbEntity
  8
GEO_
 62
     7
420
 16777215
100
AcDbLine
 10
-81.9111111111111
 20
45.84015413471408
 30
0.0
 11
-81.79444444444444
 21
45.58158860677155
 31
0.0
  0
ENDSEC
  0
SECTION
  2
OBJECTS
  0
DICTIONARY
  5
C
330
0
100
AcDbDictionary
281
     1
  3
ACAD_BACKGROUND
350
1AB7
  3
ACAD_CIP_PREVIOUS_PRODUCT_INFO
350
1AB0
  3
ACAD_COLOR
350
62
  3
ACAD_DETAILVIEWSTYLE
350
69
  3
ACAD_GROUP
350
D
  3
ACAD_LAYOUT
350
61
  3
ACAD_MATERIAL
350
10
  3
ACAD_MLEADERSTYLE
350
65
  3
ACAD_MLINESTYLE
350
5E
  3
ACAD_PLOTSETTINGS
350
60
  3
ACAD_PLOTSTYLENAME
350
E
  3
ACAD_SCALELIST
350
42
  3
ACAD_SECTIONVIEWSTYLE
350
67
  3
ACAD_TABLESTYLE
350
63
  3
ACAD_VISUALSTYLE
350
29
  3
ACDB_RECOMPOSE_DATA
350
1AEC
  3
AcDbVariableDictionary
350
1ABA
  0
DICTIONARY
  5
1ACD
330
54
100
AcDbDictionary
280
     1
281
     1
  3
ADSK_XREC_LAYER_RECONCILED
360
1ACE
  0
DICTIONARY
  5
1ACF
330
73
100
AcDbDictionary
280
     1
281
     1
  3
ADSK_XREC_LAYER_RECONCILED
360
1AD0
  0
DICTIONARY
  5
1AD1
330
74
100
AcDbDictionary
280
     1
281
     1
  3
ADSK_XREC_LAYER_RECONCILED
360
1AD2
  0
DICTIONARY
  5
1AD3
330
75
100
AcDbDictionary
280
     1
281
     1
  3
ADSK_XREC_LAYER_RECONCILED
360
1AD4
  0
DICTIONARY
  5
1AD5
330
76
100
AcDbDictionary
280
     1
281
     1
  3
ADSK_XREC_LAYER_RECONCILED
360
1AD6
  0
DICTIONARY
  5
1AD7
330
77
100
AcDbDictionary
280
     1
281
     1
  3
ADSK_XREC_LAYER_RECONCILED
360
1AD8
  0
DICTIONARY
  5
1AD9
330
78
100
AcDbDictionary
280
     1
281
     1
  3
ADSK_XREC_LAYER_RECONCILED
360
1ADA
  0
DICTIONARY
  5
1ADB
330
9B
100
AcDbDictionary
280
     1
281
     1
  3
ADSK_XREC_LAYER_RECONCILED
360
1ADC
  0
DICTIONARY
  5
1AB7
102
{ACAD_REACTORS
330
C
102
}
330
C
100
AcDbDictionary
281
     1
  0
XRECORD
  5
1AB0
102
{ACAD_REACTORS
330
C
102
}
330
C
100
AcDbXrecord
280
     1
300
ACD
300
2019
300
ACD_F_S
  0
DICTIONARY
  5
62
102
{ACAD_REACTORS
330
C
102
}
330
C
100
AcDbDictionary
281
     1
  0
DICTIONARY
  5
69
102
{ACAD_REACTORS
330
C
102
}
330
C
100
AcDbDictionary
281
     1
  3
Imperial24
350
6A
  0
DICTIONARY
  5
D
102
{ACAD_REACTORS
330
C
102
}
330
C
100
AcDbDictionary
281
     1
  0
DICTIONARY
  5
61
102
{ACAD_REACTORS
330
C
102
}
330
C
100
AcDbDictionary
281
     1
  3
Layout1
350
6E
  3
Model
350
72
  0
DICTIONARY
  5
10
102
{ACAD_REACTORS
330
C
102
}
330
C
100
AcDbDictionary
281
     1
  3
ByBlock
350
19
  3
ByLayer
350
11
  3
Global
350
21
  0
DICTIONARY
  5
65
102
{ACAD_REACTORS
330
C
102
}
330
C
100
AcDbDictionary
281
     1
  3
Standard
350
66
  0
DICTIONARY
  5
5E
102
{ACAD_REACTORS
330
C
102
}
330
C
100
AcDbDictionary
281
     1
  3
Standard
350
5F
  0
DICTIONARY
  5
60
102
{ACAD_REACTORS
330
C
102
}
330
C
100
AcDbDictionary
281
     1
  0
ACDBDICTIONARYWDFLT
  5
E
102
{ACAD_REACTORS
330
C
102
}
330
C
100
AcDbDictionary
281
     1
  3
Normal
350
F
100
AcDbDictionaryWithDefault
340
F
  0
DICTIONARY
  5
42
102
{ACAD_REACTORS
330
C
102
}
330
C
100
AcDbDictionary
281
     1
  3
A0
350
43
  3
A1
350
44
  3
A2
350
45
  3
A3
350
46
  3
A4
350
47
  3
A5
350
48
  3
A6
350
49
  3
A7
350
4A
  3
A8
350
4B
  3
A9
350
4C
  3
B0
350
4D
  3
B1
350
4E
  3
B2
350
4F
  3
B3
350
50
  3
B4
350
51
  3
B5
350
52
  3
B6
350
53
  0
DICTIONARY
  5
67
102
{ACAD_REACTORS
330
C
102
}
330
C
100
AcDbDictionary
281
     1
  3
Imperial24
350
68
  0
DICTIONARY
  5
63
102
{ACAD_REACTORS
330
C
102
}
330
C
100
AcDbDictionary
281
     1
  3
Standard
350
64
  0
DICTIONARY
  5
29
102
{ACAD_REACTORS
330
C
102
}
330
C
100
AcDbDictionary
281
     1
  3
2dWireframe
350
2F
  3
Basic
350
2E
  3
Brighten
350
35
  3
ColorChange
350
39
  3
Conceptual
350
32
  3
Dim
350
34
  3
EdgeColorOff
350
41
  3
Facepattern
350
38
  3
Flat
350
2A
  3
FlatWithEdges
350
2B
  3
Gouraud
350
2C
  3
GouraudWithEdges
350
2D
  3
Hidden
350
31
  3
JitterOff
350
3F
  3
Linepattern
350
37
  3
OverhangOff
350
40
  3
Realistic
350
33
  3
Shaded
350
3E
  3
Shaded with edges
350
3D
  3
Shades of Gray
350
3A
  3
Sketchy
350
3B
  3
Thicken
350
36
  3
Wireframe
350
30
  3
X-Ray
350
3C
  0
XRECORD
  5
1AEC
102
{ACAD_REACTORS
330
C
102
}
330
C
100
AcDbXrecord
280
     1
 90
        1
330
64
  0
DICTIONARY
  5
1ABA
102
{ACAD_REACTORS
330
C
102
}
330
C
100
AcDbDictionary
281
     1
  3
CANNOSCALE
350
1AC0
  3
CMLEADERSTYLE
350
1ABC
  3
CTABLESTYLE
350
1ABB
  3
CVIEWDETAILSTYLE
350
1ABD
  3
CVIEWSECTIONSTYLE
350
1ABE
  3
LAYEREVAL
350
1AC2
  3
LAYERNOTIFY
350
1AC3
  3
LIGHTINGUNITS
350
1AC1
  3
MSLTSCALE
350
1ABF
  0
XRECORD
  5
1ACE
102
{ACAD_REACTORS
330
1ACD
102
}
330
1ACD
100
AcDbXrecord
280
     1
290
     1
  0
XRECORD
  5
1AD0
102
{ACAD_REACTORS
330
1ACF
102
}
330
1ACF
100
AcDbXrecord
280
     1
290
     1
  0
XRECORD
  5
1AD2
102
{ACAD_REACTORS
330
1AD1
102
}
330
1AD1
100
AcDbXrecord
280
     1
290
     1
  0
XRECORD
  5
1AD4
102
{ACAD_REACTORS
330
1AD3
102
}
330
1AD3
100
AcDbXrecord
280
     1
290
     1
  0
XRECORD
  5
1AD6
102
{ACAD_REACTORS
330
1AD5
102
}
330
1AD5
100
AcDbXrecord
280
     1
290
     1
  0
XRECORD
  5
1AD8
102
{ACAD_REACTORS
330
1AD7
102
}
330
1AD7
100
AcDbXrecord
280
     1
290
     1
  0
XRECORD
  5
1ADA
102
{ACAD_REACTORS
330
1AD9
102
}
330
1AD9
100
AcDbXrecord
280
     1
290
     1
  0
XRECORD
  5
1ADC
102
{ACAD_REACTORS
330
1ADB
102
}
330
1ADB
100
AcDbXrecord
280
     1
290
     1
  0
ACDBDETAILVIEWSTYLE
  5
6A
102
{ACAD_REACTORS
330
69
102
}
330
69
100
AcDbModelDocViewStyle
 70
     0
  3
Imperial24
290
     0
300
Imperial24
 90
        0
100
AcDbDetailViewStyle
 70
     0
 71
     0
 90
        3
 71
     1
340
55
 62
   256
 40
0.24
340
0
 62
   256
 40
0.24
300

 40
0.36
280
     3
 71
     2
340
5C
 90
       25
 62
   256
 71
     3
340
55
 62
   256
 40
0.24
 90
        1
 40
0.75
 90
        1
300
%<\AcVar ViewType \f "%tc1">% %<\AcVar ViewDetailId>%\PSCALE %<\AcVar ViewScale \f "%sn">%
 71
     4
340
5C
 90
       25
 62
   256
340
5C
 90
       25
 62
   256
280
     0
  0
LAYOUT
  5
6E
102
{ACAD_REACTORS
330
61
102
}
330
61
100
AcDbPlotSettings
  1

  2
\\hpoffice\HP Photosmart Prem C410 series
  4

  6

 40
0.0
 41
0.0
 42
0.0
 43
0.0
 44
0.0
 45
0.0
 46
0.0
 47
0.0
 48
0.0
 49
0.0
140
0.0
141
0.0
142
1.0
143
1.0
 70
   688
 72
     0
 73
     0
 74
     5
  7

 75
    16
147
1.0
 76
     0
 77
     2
 78
   300
148
0.0
149
0.0
100
AcDbLayout
  1
Layout1
 70
     1
 71
     1
 10
0.0
 20
0.0
 11
12.0
 21
9.0
 12
0.0
 22
0.0
 32
0.0
 14
1.000000000000000E+20
 24
1.000000000000000E+20
 34
1.000000000000000E+20
 15
-1.000000000000000E+20
 25
-1.000000000000000E+20
 35
-1.000000000000000E+20
146
0.0
 13
0.0
 23
0.0
 33
0.0
 16
1.0
 26
0.0
 36
0.0
 17
0.0
 27
1.0
 37
0.0
 76
     0
330
6B
  0
LAYOUT
  5
72
102
{ACAD_REACTORS
330
61
102
}
330
61
100
AcDbPlotSettings
  1

  2
\\hpoffice\HP Photosmart Prem C410 series
  4

  6

 40
0.0
 41
0.0
 42
0.0
 43
0.0
 44
0.0
 45
0.0
 46
0.0
 47
0.0
 48
0.0
 49
0.0
140
0.0
141
0.0
142
1.0
143
1.0
 70
  1712
 72
     0
 73
     0
 74
     0
  7

 75
     0
147
1.0
 76
     0
 77
     2
 78
   300
148
0.0
149
0.0
100
AcDbLayout
  1
Model
 70
     1
 71
     0
 10
0.0
 20
0.0
 11
12.0
 21
9.0
 12
0.0
 22
0.0
 32
0.0
 14
0.0
 24
0.0
 34
0.0
 15
0.0
 25
0.0
 35
0.0
146
0.0
 13
0.0
 23
0.0
 33
0.0
 16
1.0
 26
0.0
 36
0.0
 17
0.0
 27
1.0
 37
0.0
 76
     0
330
6F
331
7B
  0
MATERIAL
  5
19
102
{ACAD_XDICTIONARY
360
1A
102
}
102
{ACAD_REACTORS
330
10
102
}
330
10
100
AcDbMaterial
  1
ByBlock
 72
     0
 43
0.0208333333333333
 43
0.0
 43
0.0
 43
0.0
 43
0.0
 43
0.0208333333333333
 43
0.0
 43
0.0
 43
0.0
 43
0.0
 43
1.0
 43
0.0
 43
0.0
 43
0.0
 43
0.0
 43
1.0
 77
     0
 47
0.0208333333333333
 47
0.0
 47
0.0
 47
0.0
 47
0.0
 47
0.0208333333333333
 47
0.0
 47
0.0
 47
0.0
 47
0.0
 47
1.0
 47
0.0
 47
0.0
 47
0.0
 47
0.0
 47
1.0
171
     0
 49
0.0208333333333333
 49
0.0
 49
0.0
 49
0.0
 49
0.0
 49
0.0208333333333333
 49
0.0
 49
0.0
 49
0.0
 49
0.0
 49
1.0
 49
0.0
 49
0.0
 49
0.0
 49
0.0
 49
1.0
175
     0
142
0.0208333333333333
142
0.0
142
0.0
142
0.0
142
0.0
142
0.0208333333333333
142
0.0
142
0.0
142
0.0
142
0.0
142
1.0
142
0.0
142
0.0
142
0.0
142
0.0
142
1.0
179
     0
144
0.0208333333333333
144
0.0
144
0.0
144
0.0
144
0.0
144
0.0208333333333333
144
0.0
144
0.0
144
0.0
144
0.0
144
1.0
144
0.0
144
0.0
144
0.0
144
0.0
144
1.0
147
0.0208333333333333
147
0.0
147
0.0
147
0.0
147
0.0
147
0.0208333333333333
147
0.0
147
0.0
147
0.0
147
0.0
147
1.0
147
0.0
147
0.0
147
0.0
147
0.0
147
1.0
  0
MATERIAL
  5
11
102
{ACAD_XDICTIONARY
360
12
102
}
102
{ACAD_REACTORS
330
10
102
}
330
10
100
AcDbMaterial
  1
ByLayer
 72
     0
 43
0.0208333333333333
 43
0.0
 43
0.0
 43
0.0
 43
0.0
 43
0.0208333333333333
 43
0.0
 43
0.0
 43
0.0
 43
0.0
 43
1.0
 43
0.0
 43
0.0
 43
0.0
 43
0.0
 43
1.0
 77
     0
 47
0.0208333333333333
 47
0.0
 47
0.0
 47
0.0
 47
0.0
 47
0.0208333333333333
 47
0.0
 47
0.0
 47
0.0
 47
0.0
 47
1.0
 47
0.0
 47
0.0
 47
0.0
 47
0.0
 47
1.0
171
     0
 49
0.0208333333333333
 49
0.0
 49
0.0
 49
0.0
 49
0.0
 49
0.0208333333333333
 49
0.0
 49
0.0
 49
0.0
 49
0.0
 49
1.0
 49
0.0
 49
0.0
 49
0.0
 49
0.0
 49
1.0
175
     0
142
0.0208333333333333
142
0.0
142
0.0
142
0.0
142
0.0
142
0.0208333333333333
142
0.0
142
0.0
142
0.0
142
0.0
142
1.0
142
0.0
142
0.0
142
0.0
142
0.0
142
1.0
179
     0
144
0.0208333333333333
144
0.0
144
0.0
144
0.0
144
0.0
144
0.0208333333333333
144
0.0
144
0.0
144
0.0
144
0.0
144
1.0
144
0.0
144
0.0
144
0.0
144
0.0
144
1.0
147
0.0208333333333333
147
0.0
147
0.0
147
0.0
147
0.0
147
0.0208333333333333
147
0.0
147
0.0
147
0.0
147
0.0
147
1.0
147
0.0
147
0.0
147
0.0
147
0.0
147
1.0
  0
MATERIAL
  5
21
102
{ACAD_XDICTIONARY
360
22
102
}
102
{ACAD_REACTORS
330
10
102
}
330
10
100
AcDbMaterial
  1
Global
 72
     0
 43
0.0208333333333333
 43
0.0
 43
0.0
 43
0.0
 43
0.0
 43
0.0208333333333333
 43
0.0
 43
0.0
 43
0.0
 43
0.0
 43
1.0
 43
0.0
 43
0.0
 43
0.0
 43
0.0
 43
1.0
 77
     0
 47
0.0208333333333333
 47
0.0
 47
0.0
 47
0.0
 47
0.0
 47
0.0208333333333333
 47
0.0
 47
0.0
 47
0.0
 47
0.0
 47
1.0
 47
0.0
 47
0.0
 47
0.0
 47
0.0
 47
1.0
171
     0
 49
0.0208333333333333
 49
0.0
 49
0.0
 49
0.0
 49
0.0
 49
0.0208333333333333
 49
0.0
 49
0.0
 49
0.0
 49
0.0
 49
1.0
 49
0.0
 49
0.0
 49
0.0
 49
0.0
 49
1.0
175
     0
142
0.0208333333333333
142
0.0
142
0.0
142
0.0
142
0.0
142
0.0208333333333333
142
0.0
142
0.0
142
0.0
142
0.0
142
1.0
142
0.0
142
0.0
142
0.0
142
0.0
142
1.0
179
     0
144
0.0208333333333333
144
0.0
144
0.0
144
0.0
144
0.0
144
0.0208333333333333
144
0.0
144
0.0
144
0.0
144
0.0
144
1.0
144
0.0
144
0.0
144
0.0
144
0.0
144
1.0
147
0.0208333333333333
147
0.0
147
0.0
147
0.0
147
0.0
147
0.0208333333333333
147
0.0
147
0.0
147
0.0
147
0.0
147
1.0
147
0.0
147
0.0
147
0.0
147
0.0
147
1.0
  0
MLEADERSTYLE
  5
66
102
{ACAD_REACTORS
330
65
102
}
330
65
100
AcDbMLeaderStyle
179
     2
170
     2
171
     1
172
     0
 90
        2
 40
0.0
 41
0.0
173
     1
 91
-1056964608
340
5A
 92
       -2
290
     1
 42
0.09
291
     1
 43
0.36
  3
Standard
 44
0.18
300

342
55
174
     1
178
     6
175
     1
176
     0
 93
-1056964608
 45
0.18
292
     0
297
     0
 46
0.18
 94
-1056964608
 47
1.0
 49
1.0
140
1.0
293
     1
141
0.0
294
     1
177
     0
142
1.0
295
     0
296
     0
143
0.125
271
     0
272
     9
273
     9
298
     0
  0
MLINESTYLE
  5
5F
102
{ACAD_REACTORS
330
5E
102
}
330
5E
100
AcDbMlineStyle
  2
STANDARD
 70
     0
  3

 62
   256
 51
90.0
 52
90.0
 71
     2
 49
0.5
 62
   256
  6
BYLAYER
 49
-0.5
 62
   256
  6
BYLAYER
  0
ACDBPLACEHOLDER
  5
F
102
{ACAD_REACTORS
330
E
102
}
330
E
  0
SCALE
  5
43
102
{ACAD_REACTORS
330
42
102
}
330
42
100
AcDbScale
 70
     0
300
1:1
140
1.0
141
1.0
290
     1
  0
SCALE
  5
44
102
{ACAD_REACTORS
330
42
102
}
330
42
100
AcDbScale
 70
     0
300
1/128" = 1'-0"
140
0.0078125
141
12.0
290
     0
  0
SCALE
  5
45
102
{ACAD_REACTORS
330
42
102
}
330
42
100
AcDbScale
 70
     0
300
1/64" = 1'-0"
140
0.015625
141
12.0
290
     0
  0
SCALE
  5
46
102
{ACAD_REACTORS
330
42
102
}
330
42
100
AcDbScale
 70
     0
300
1/32" = 1'-0"
140
0.03125
141
12.0
290
     0
  0
SCALE
  5
47
102
{ACAD_REACTORS
330
42
102
}
330
42
100
AcDbScale
 70
     0
300
1/16" = 1'-0"
140
0.0625
141
12.0
290
     0
  0
SCALE
  5
48
102
{ACAD_REACTORS
330
42
102
}
330
42
100
AcDbScale
 70
     0
300
3/32" = 1'-0"
140
0.09375
141
12.0
290
     0
  0
SCALE
  5
49
102
{ACAD_REACTORS
330
42
102
}
330
42
100
AcDbScale
 70
     0
300
1/8" = 1'-0"
140
0.125
141
12.0
290
     0
  0
SCALE
  5
4A
102
{ACAD_REACTORS
330
42
102
}
330
42
100
AcDbScale
 70
     0
300
3/16" = 1'-0"
140
0.1875
141
12.0
290
     0
  0
SCALE
  5
4B
102
{ACAD_REACTORS
330
42
102
}
330
42
100
AcDbScale
 70
     0
300
1/4" = 1'-0"
140
0.25
141
12.0
290
     0
  0
SCALE
  5
4C
102
{ACAD_REACTORS
330
42
102
}
330
42
100
AcDbScale
 70
     0
300
3/8" = 1'-0"
140
0.375
141
12.0
290
     0
  0
SCALE
  5
4D
102
{ACAD_REACTORS
330
42
102
}
330
42
100
AcDbScale
 70
     0
300
1/2" = 1'-0"
140
0.5
141
12.0
290
     0
  0
SCALE
  5
4E
102
{ACAD_REACTORS
330
42
102
}
330
42
100
AcDbScale
 70
     0
300
3/4" = 1'-0"
140
0.75
141
12.0
290
     0
  0
SCALE
  5
4F
102
{ACAD_REACTORS
330
42
102
}
330
42
100
AcDbScale
 70
     0
300
1" = 1'-0"
140
1.0
141
12.0
290
     0
  0
SCALE
  5
50
102
{ACAD_REACTORS
330
42
102
}
330
42
100
AcDbScale
 70
     0
300
1-1/2" = 1'-0"
140
1.5
141
12.0
290
     0
  0
SCALE
  5
51
102
{ACAD_REACTORS
330
42
102
}
330
42
100
AcDbScale
 70
     0
300
3" = 1'-0"
140
3.0
141
12.0
290
     0
  0
SCALE
  5
52
102
{ACAD_REACTORS
330
42
102
}
330
42
100
AcDbScale
 70
     0
300
6" = 1'-0"
140
6.0
141
12.0
290
     0
  0
SCALE
  5
53
102
{ACAD_REACTORS
330
42
102
}
330
42
100
AcDbScale
 70
     0
300
1'-0" = 1'-0"
140
12.0
141
12.0
290
     0
  0
ACDBSECTIONVIEWSTYLE
  5
68
102
{ACAD_REACTORS
330
67
102
}
330
67
100
AcDbModelDocViewStyle
 70
     0
  3
Imperial24
290
     0
300
Imperial24
 90
        0
100
AcDbSectionViewStyle
 70
     0
 71
     0
 90
       78
 71
     1
340
55
 62
   256
 40
0.24
340
0
340
0
 62
   256
 40
0.24
300
I, O, Q, S, X, Z
 40
0.48
 90
        3
 40
0.18
 90
        1
 71
     2
340
5C
 90
       25
 62
   256
340
5C
 90
       50
 62
   256
 40
0.24
 40
0.0
 40
0.24
 71
     3
340
55
 62
   256
 40
0.24
 90
        1
 40
0.75
 90
        1
300
%<\AcVar ViewType \f "%tc1">% %<\AcVar ViewSectionStartId>%-%<\AcVar ViewSectionEndId>%\PSCALE %<\AcVar ViewScale \f "%sn">%
 71
     4
 62
   256
 62
   257
300
ANSI31
 40
1.0
 90
        0
290
     0
290
     0
 90
        6
 40
0.0
 40
1.570796326794896
 40
0.2617993877991494
 40
1.308996938995747
 40
-0.2617993877991494
 40
1.832595714594044
  0
TABLESTYLE
  5
64
102
{ACAD_XDICTIONARY
360
1AC5
102
}
102
{ACAD_REACTORS
330
63
102
}
330
63
100
AcDbTableStyle
280
     0
  3
Standard
 70
     0
 71
     0
 40
0.06
 41
0.06
280
     0
281
     0
  7
STANDARD
140
0.18
170
     2
 62
     0
 63
     7
283
     0
 90
      512
 91
        0
  1

274
    -2
284
     1
 64
     0
275
    -2
285
     1
 65
     0
276
    -2
286
     1
 66
     0
277
    -2
287
     1
 67
     0
278
    -2
288
     1
 68
     0
279
    -2
289
     1
 69
     0
  7
STANDARD
140
0.25
170
     5
 62
     0
 63
     7
283
     0
 90
      512
 91
        0
  1

274
    -2
284
     1
 64
     0
275
    -2
285
     1
 65
     0
276
    -2
286
     1
 66
     0
277
    -2
287
     1
 67
     0
278
    -2
288
     1
 68
     0
279
    -2
289
     1
 69
     0
  7
STANDARD
140
0.18
170
     5
 62
     0
 63
     7
283
     0
 90
      512
 91
        0
  1

274
    -2
284
     1
 64
     0
275
    -2
285
     1
 65
     0
276
    -2
286
     1
 66
     0
277
    -2
287
     1
 67
     0
278
    -2
288
     1
 68
     0
279
    -2
289
     1
 69
     0
  0
VISUALSTYLE
  5
2F
102
{ACAD_REACTORS
330
29
102
}
330
29
100
AcDbVisualStyle
  2
2dWireframe
 70
     4
177
     3
291
     0
 70
    58
 90
        0
176
     1
 90
        2
176
     1
 90
        0
176
     1
 90
        0
176
     1
 40
0.6
176
     1
 40
30.0
176
     1
 62
     7
420
 16777215
176
     1
 90
        1
176
     1
 90
        4
176
     1
 62
     7
176
     1
 62
   257
176
     1
 90
        1
176
     1
 90
        1
176
     1
 40
1.0
176
     1
 90
        0
176
     1
 62
   257
176
     1
 40
1.0
176
     1
 90
        1
176
     1
 90
        6
176
     1
 90
        2
176
     1
 62
     7
176
     1
 90
        5
176
     1
 90
        0
176
     1
 90
        0
176
     1
290
     0
176
     1
 90
        1
176
     1
 40
0.0
176
     1
 90
        0
176
     1
290
     1
176
     1
290
     1
176
     1
290
     0
176
     1
290
     0
176
     1
290
     0
176
     1
290
     0
176
     1
290
     0
176
     1
290
     0
176
     1
290
     0
176
     1
 90
       50
176
     1
 40
0.0
176
     1
 40
1.0
176
     1
 90
        0
176
     1
 62
    18
176
     1
 90
       50
176
     1
 90
        3
176
     1
 62
     5
420
      255
176
     1
290
     0
176
     1
 90
       50
176
     1
 90
       50
176
     1
 90
       50
176
     1
290
     0
176
     1
 90
       50
176
     1
 62
   256
176
     0
 40
1.0
176
     0
 90
        2
176
     1
  1
strokes_ogs.tif
176
     1
290
     0
176
     1
 40
1.0
176
     1
 40
1.0
176
     1
  0
VISUALSTYLE
  5
2E
102
{ACAD_REACTORS
330
29
102
}
330
29
100
AcDbVisualStyle
  2
Basic
 70
     7
177
     3
291
     1
 70
    58
 90
        1
176
     1
 90
        0
176
     1
 90
        1
176
     1
 90
        0
176
     1
 40
0.6
176
     1
 40
30.0
176
     1
 62
     7
420
 16777215
176
     1
 90
        0
176
     1
 90
        4
176
     1
 62
     7
176
     1
 62
   257
176
     1
 90
        1
176
     1
 90
        1
176
     1
 40
1.0
176
     1
 90
        8
176
     1
 62
     7
176
     1
 40
1.0
176
     1
 90
        1
176
     1
 90
        6
176
     1
 90
        2
176
     1
 62
     7
176
     1
 90
        5
176
     1
 90
        0
176
     1
 90
        0
176
     1
290
     0
176
     1
 90
        1
176
     1
 40
0.0
176
     1
 90
        0
176
     1
290
     0
176
     1
290
     1
176
     1
290
     1
176
     1
290
     0
176
     1
290
     0
176
     1
290
     0
176
     1
290
     0
176
     1
290
     0
176
     1
290
     0
176
     1
 90
       50
176
     1
 40
0.0
176
     1
 40
1.0
176
     1
 90
        0
176
     1
 62
    18
176
     1
 90
       50
176
     1
 90
        3
176
     1
 62
     5
420
      255
176
     1
290
     0
176
     1
 90
       50
176
     1
 90
       50
176
     1
 90
       50
176
     1
290
     0
176
     1
 90
       50
176
     1
 62
   256
176
     0
 40
1.0
176
     0
 90
        2
176
     1
  1
strokes_ogs.tif
176
     1
290
     0
176
     1
 40
1.0
176
     1
 40
1.0
176
     1
  0
VISUALSTYLE
  5
35
102
{ACAD_REACTORS
330
29
102
}
330
29
100
AcDbVisualStyle
  2
Brighten
 70
    12
177
     3
291
     1
 70
    58
 90
        2
176
     1
 90
        2
176
     1
 90
        0
176
     1
 90
        0
176
     1
 40
0.6
176
     1
 40
30.0
176
     1
 62
     7
420
 16777215
176
     1
 90
        1
176
     1
 90
        4
176
     1
 62
     7
176
     1
 62
   257
176
     1
 90
        1
176
     1
 90
        1
176
     1
 40
1.0
176
     1
 90
        8
176
     1
 62
     7
176
     1
 40
1.0
176
     1
 90
        1
176
     1
 90
        6
176
     1
 90
        2
176
     1
 62
     7
176
     1
 90
        5
176
     1
 90
        0
176
     1
 90
        0
176
     1
290
     0
176
     1
 90
        1
176
     1
 40
50.0
176
     1
 90
        0
176
     1
290
     0
176
     1
290
     1
176
     1
290
     1
176
     1
290
     0
176
     1
290
     0
176
     1
290
     0
176
     1
290
     0
176
     1
290
     0
176
     1
290
     0
176
     1
 90
       50
176
     1
 40
0.0
176
     1
 40
1.0
176
     1
 90
        0
176
     1
 62
    18
176
     1
 90
       50
176
     1
 90
        3
176
     1
 62
     5
420
      255
176
     1
290
     0
176
     1
 90
       50
176
     1
 90
       50
176
     1
 90
       50
176
     1
290
     0
176
     1
 90
       50
176
     1
 62
   256
176
     0
 40
1.0
176
     0
 90
        2
176
     1
  1
strokes_ogs.tif
176
     1
290
     0
176
     1
 40
1.0
176
     1
 40
1.0
176
     1
  0
VISUALSTYLE
  5
39
102
{ACAD_REACTORS
330
29
102
}
330
29
100
AcDbVisualStyle
  2
ColorChange
 70
    16
177
     3
291
     1
 70
    58
 90
        2
176
     1
 90
        2
176
     1
 90
        3
176
     1
 90
        0
176
     1
 40
0.6
176
     1
 40
30.0
176
     1
 62
     8
420
  8421504
176
     1
 90
        1
176
     1
 90
        4
176
     1
 62
     7
176
     1
 62
   257
176
     1
 90
        1
176
     1
 90
        1
176
     1
 40
1.0
176
     1
 90
        8
176
     1
 62
     8
420
  8421504
176
     1
 40
1.0
176
     1
 90
        1
176
     1
 90
        6
176
     1
 90
        2
176
     1
 62
     7
176
     1
 90
        5
176
     1
 90
        0
176
     1
 90
        0
176
     1
290
     0
176
     1
 90
        1
176
     1
 40
0.0
176
     1
 90
        0
176
     1
290
     0
176
     1
290
     1
176
     1
290
     1
176
     1
290
     0
176
     1
290
     0
176
     1
290
     0
176
     1
290
     0
176
     1
290
     0
176
     1
290
     0
176
     1
 90
       50
176
     1
 40
0.0
176
     1
 40
1.0
176
     1
 90
        0
176
     1
 62
    18
176
     1
 90
       50
176
     1
 90
        3
176
     1
 62
     5
420
      255
176
     1
290
     0
176
     1
 90
       50
176
     1
 90
       50
176
     1
 90
       50
176
     1
290
     0
176
     1
 90
       50
176
     1
 62
   256
176
     0
 40
1.0
176
     0
 90
        2
176
     1
  1
strokes_ogs.tif
176
     1
290
     0
176
     1
 40
1.0
176
     1
 40
1.0
176
     1
  0
VISUALSTYLE
  5
32
102
{ACAD_REACTORS
330
29
102
}
330
29
100
AcDbVisualStyle
  2
Conceptual
 70
     9
177
     3
291
     0
 70
    58
 90
        3
176
     1
 90
        2
176
     1
 90
        0
176
     1
 90
        0
176
     1
 40
0.6
176
     1
 40
30.0
176
     1
 62
     7
420
 16777215
176
     1
 90
        2
176
     1
 90
        2
176
     1
 62
     7
176
     1
 62
   257
176
     1
 90
        1
176
     1
 90
        1
176
     1
 40
179.0
176
     1
 90
        8
176
     1
 62
     7
176
     1
 40
1.0
176
     1
 90
        1
176
     1
 90
        6
176
     1
 90
        2
176
     1
 62
     7
176
     1
 90
        3
176
     1
 90
        0
176
     1
 90
        0
176
     1
290
     0
176
     1
 90
        1
176
     1
 40
0.0
176
     1
 90
        0
176
     1
290
     0
176
     1
290
     1
176
     1
290
     1
176
     1
290
     0
176
     1
290
     0
176
     1
290
     0
176
     1
290
     0
176
     1
290
     0
176
     1
290
     0
176
     1
 90
       50
176
     1
 40
0.0
176
     1
 40
1.0
176
     1
 90
        0
176
     1
 62
    18
176
     1
 90
       50
176
     1
 90
        3
176
     1
 62
     5
420
      255
176
     1
290
     0
176
     1
 90
       50
176
     1
 90
       50
176
     1
 90
       50
176
     1
290
     0
176
     1
 90
       50
176
     1
 62
   256
176
     0
 40
1.0
176
     0
 90
        2
176
     1
  1
strokes_ogs.tif
176
     1
290
     0
176
     1
 40
1.0
176
     1
 40
1.0
176
     1
  0
VISUALSTYLE
  5
34
102
{ACAD_REACTORS
330
29
102
}
330
29
100
AcDbVisualStyle
  2
Dim
 70
    11
177
     3
291
     1
 70
    58
 90
        2
176
     1
 90
        2
176
     1
 90
        0
176
     1
 90
        0
176
     1
 40
0.6
176
     1
 40
30.0
176
     1
 62
     7
420
 16777215
176
     1
 90
        1
176
     1
 90
        4
176
     1
 62
     7
176
     1
 62
   257
176
     1
 90
        1
176
     1
 90
        1
176
     1
 40
1.0
176
     1
 90
        8
176
     1
 62
     7
176
     1
 40
1.0
176
     1
 90
        1
176
     1
 90
        6
176
     1
 90
        2
176
     1
 62
     7
176
     1
 90
        5
176
     1
 90
        0
176
     1
 90
        0
176
     1
290
     0
176
     1
 90
        1
176
     1
 40
-50.0
176
     1
 90
        0
176
     1
290
     0
176
     1
290
     1
176
     1
290
     1
176
     1
290
     0
176
     1
290
     0
176
     1
290
     0
176
     1
290
     0
176
     1
290
     0
176
     1
290
     0
176
     1
 90
       50
176
     1
 40
0.0
176
     1
 40
1.0
176
     1
 90
        0
176
     1
 62
    18
176
     1
 90
       50
176
     1
 90
        3
176
     1
 62
     5
420
      255
176
     1
290
     0
176
     1
 90
       50
176
     1
 90
       50
176
     1
 90
       50
176
     1
290
     0
176
     1
 90
       50
176
     1
 62
   256
176
     0
 40
1.0
176
     0
 90
        2
176
     1
  1
strokes_ogs.tif
176
     1
290
     0
176
     1
 40
1.0
176
     1
 40
1.0
176
     1
  0
VISUALSTYLE
  5
41
102
{ACAD_REACTORS
330
29
102
}
330
29
100
AcDbVisualStyle
  2
EdgeColorOff
 70
    22
177
     3
291
     1
 70
    58
 90
        2
176
     0
 90
        2
176
     0
 90
        0
176
     0
 90
        0
176
     0
 40
0.6
176
     0
 40
30.0
176
     0
 62
     7
420
 16777215
176
     0
 90
        1
176
     0
 90
        4
176
     0
 62
     7
176
     0
 62
   257
176
     0
 90
        1
176
     0
 90
        1
176
     0
 40
1.0
176
     0
 90
        8
176
     2
 62
     7
176
     0
 40
1.0
176
     0
 90
        1
176
     0
 90
        6
176
     0
 90
        2
176
     0
 62
     7
176
     0
 90
        5
176
     0
 90
        0
176
     0
 90
        0
176
     0
290
     0
176
     0
 90
        1
176
     0
 40
0.0
176
     0
 90
        0
176
     0
290
     0
176
     1
290
     1
176
     1
290
     1
176
     1
290
     0
176
     1
290
     0
176
     1
290
     0
176
     1
290
     0
176
     1
290
     0
176
     1
290
     0
176
     1
 90
       50
176
     0
 40
0.0
176
     0
 40
1.0
176
     0
 90
        0
176
     0
 62
    18
176
     0
 90
       50
176
     0
 90
        3
176
     0
 62
     5
420
      255
176
     0
290
     0
176
     1
 90
       50
176
     0
 90
       50
176
     0
 90
       50
176
     0
290
     0
176
     1
 90
       50
176
     0
 62
   256
176
     0
 40
1.0
176
     0
 90
        2
176
     0
  1
strokes_ogs.tif
176
     0
290
     0
176
     1
 40
1.0
176
     0
 40
1.0
176
     0
  0
VISUALSTYLE
  5
38
102
{ACAD_REACTORS
330
29
102
}
330
29
100
AcDbVisualStyle
  2
Facepattern
 70
    15
177
     3
291
     1
 70
    58
 90
        2
176
     1
 90
        2
176
     1
 90
        0
176
     1
 90
        0
176
     1
 40
0.6
176
     1
 40
30.0
176
     1
 62
     7
420
 16777215
176
     1
 90
        1
176
     1
 90
        4
176
     1
 62
     7
176
     1
 62
   257
176
     1
 90
        1
176
     1
 90
        1
176
     1
 40
1.0
176
     1
 90
        8
176
     1
 62
     7
176
     1
 40
1.0
176
     1
 90
        1
176
     1
 90
        6
176
     1
 90
        2
176
     1
 62
     7
176
     1
 90
        5
176
     1
 90
        0
176
     1
 90
        0
176
     1
290
     0
176
     1
 90
        1
176
     1
 40
0.0
176
     1
 90
        0
176
     1
290
     0
176
     1
290
     1
176
     1
290
     1
176
     1
290
     0
176
     1
290
     0
176
     1
290
     0
176
     1
290
     0
176
     1
290
     0
176
     1
290
     0
176
     1
 90
       50
176
     1
 40
0.0
176
     1
 40
1.0
176
     1
 90
        0
176
     1
 62
    18
176
     1
 90
       50
176
     1
 90
        3
176
     1
 62
     5
420
      255
176
     1
290
     0
176
     1
 90
       50
176
     1
 90
       50
176
     1
 90
       50
176
     1
290
     0
176
     1
 90
       50
176
     1
 62
   256
176
     0
 40
1.0
176
     0
 90
        2
176
     1
  1
strokes_ogs.tif
176
     1
290
     0
176
     1
 40
1.0
176
     1
 40
1.0
176
     1
  0
VISUALSTYLE
  5
2A
102
{ACAD_REACTORS
330
29
102
}
330
29
100
AcDbVisualStyle
  2
Flat
 70
     0
177
     3
291
     1
 70
    58
 90
        2
176
     1
 90
        1
176
     1
 90
        1
176
     1
 90
        2
176
     1
 40
0.6
176
     1
 40
30.0
176
     1
 62
     7
420
 16777215
176
     1
 90
        0
176
     1
 90
        0
176
     1
 62
     7
176
     1
 62
   257
176
     1
 90
        1
176
     1
 90
        1
176
     1
 40
1.0
176
     1
 90
        8
176
     1
 62
     7
176
     1
 40
1.0
176
     1
 90
        1
176
     1
 90
        6
176
     1
 90
        2
176
     1
 62
     7
176
     1
 90
        5
176
     1
 90
        0
176
     1
 90
        0
176
     1
290
     0
176
     1
 90
       13
176
     1
 40
0.0
176
     1
 90
        0
176
     1
290
     0
176
     1
290
     1
176
     1
290
     1
176
     1
290
     0
176
     1
290
     0
176
     1
290
     0
176
     1
290
     0
176
     1
290
     0
176
     1
290
     0
176
     1
 90
       50
176
     1
 40
0.0
176
     1
 40
1.0
176
     1
 90
        0
176
     1
 62
    18
176
     1
 90
       50
176
     1
 90
        3
176
     1
 62
     5
420
      255
176
     1
290
     0
176
     1
 90
       50
176
     1
 90
       50
176
     1
 90
       50
176
     1
290
     0
176
     1
 90
       50
176
     1
 62
   256
176
     0
 40
1.0
176
     0
 90
        2
176
     1
  1
strokes_ogs.tif
176
     1
290
     0
176
     1
 40
1.0
176
     1
 40
1.0
176
     1
  0
VISUALSTYLE
  5
2B
102
{ACAD_REACTORS
330
29
102
}
330
29
100
AcDbVisualStyle
  2
FlatWithEdges
 70
     1
177
     3
291
     1
 70
    58
 90
        2
176
     1
 90
        1
176
     1
 90
        1
176
     1
 90
        2
176
     1
 40
0.6
176
     1
 40
30.0
176
     1
 62
     7
420
 16777215
176
     1
 90
        1
176
     1
 90
        0
176
     1
 62
     7
176
     1
 62
   257
176
     1
 90
        1
176
     1
 90
        1
176
     1
 40
1.0
176
     1
 90
        0
176
     1
 62
   257
176
     1
 40
1.0
176
     1
 90
        1
176
     1
 90
        6
176
     1
 90
        2
176
     1
 62
     7
176
     1
 90
        5
176
     1
 90
        0
176
     1
 90
        0
176
     1
290
     0
176
     1
 90
       13
176
     1
 40
0.0
176
     1
 90
        0
176
     1
290
     0
176
     1
290
     1
176
     1
290
     1
176
     1
290
     0
176
     1
290
     0
176
     1
290
     0
176
     1
290
     0
176
     1
290
     0
176
     1
290
     0
176
     1
 90
       50
176
     1
 40
0.0
176
     1
 40
1.0
176
     1
 90
        0
176
     1
 62
    18
176
     1
 90
       50
176
     1
 90
        3
176
     1
 62
     5
420
      255
176
     1
290
     0
176
     1
 90
       50
176
     1
 90
       50
176
     1
 90
       50
176
     1
290
     0
176
     1
 90
       50
176
     1
 62
   256
176
     0
 40
1.0
176
     0
 90
        2
176
     1
  1
strokes_ogs.tif
176
     1
290
     0
176
     1
 40
1.0
176
     1
 40
1.0
176
     1
  0
VISUALSTYLE
  5
2C
102
{ACAD_REACTORS
330
29
102
}
330
29
100
AcDbVisualStyle
  2
Gouraud
 70
     2
177
     3
291
     1
 70
    58
 90
        2
176
     1
 90
        2
176
     1
 90
        1
176
     1
 90
        2
176
     1
 40
0.6
176
     1
 40
30.0
176
     1
 62
     7
420
 16777215
176
     1
 90
        0
176
     1
 90
        0
176
     1
 62
     7
176
     1
 62
   257
176
     1
 90
        1
176
     1
 90
        1
176
     1
 40
1.0
176
     1
 90
        0
176
     1
 62
     7
176
     1
 40
1.0
176
     1
 90
        1
176
     1
 90
        6
176
     1
 90
        2
176
     1
 62
     7
176
     1
 90
        5
176
     1
 90
        0
176
     1
 90
        0
176
     1
290
     0
176
     1
 90
       13
176
     1
 40
0.0
176
     1
 90
        0
176
     1
290
     0
176
     1
290
     1
176
     1
290
     1
176
     1
290
     0
176
     1
290
     0
176
     1
290
     0
176
     1
290
     0
176
     1
290
     0
176
     1
290
     0
176
     1
 90
       50
176
     1
 40
0.0
176
     1
 40
1.0
176
     1
 90
        0
176
     1
 62
    18
176
     1
 90
       50
176
     1
 90
        3
176
     1
 62
     5
420
      255
176
     1
290
     0
176
     1
 90
       50
176
     1
 90
       50
176
     1
 90
       50
176
     1
290
     0
176
     1
 90
       50
176
     1
 62
   256
176
     0
 40
1.0
176
     0
 90
        2
176
     1
  1
strokes_ogs.tif
176
     1
290
     0
176
     1
 40
1.0
176
     1
 40
1.0
176
     1
  0
VISUALSTYLE
  5
2D
102
{ACAD_REACTORS
330
29
102
}
330
29
100
AcDbVisualStyle
  2
GouraudWithEdges
 70
     3
177
     3
291
     1
 70
    58
 90
        2
176
     1
 90
        2
176
     1
 90
        1
176
     1
 90
        2
176
     1
 40
0.6
176
     1
 40
30.0
176
     1
 62
     7
420
 16777215
176
     1
 90
        1
176
     1
 90
        0
176
     1
 62
     7
176
     1
 62
   257
176
     1
 90
        1
176
     1
 90
        1
176
     1
 40
1.0
176
     1
 90
        0
176
     1
 62
   257
176
     1
 40
1.0
176
     1
 90
        1
176
     1
 90
        6
176
     1
 90
        2
176
     1
 62
     7
176
     1
 90
        5
176
     1
 90
        0
176
     1
 90
        0
176
     1
290
     0
176
     1
 90
       13
176
     1
 40
0.0
176
     1
 90
        0
176
     1
290
     0
176
     1
290
     1
176
     1
290
     1
176
     1
290
     0
176
     1
290
     0
176
     1
290
     0
176
     1
290
     0
176
     1
290
     0
176
     1
290
     0
176
     1
 90
       50
176
     1
 40
0.0
176
     1
 40
1.0
176
     1
 90
        0
176
     1
 62
    18
176
     1
 90
       50
176
     1
 90
        3
176
     1
 62
     5
420
      255
176
     1
290
     0
176
     1
 90
       50
176
     1
 90
       50
176
     1
 90
       50
176
     1
290
     0
176
     1
 90
       50
176
     1
 62
   256
176
     0
 40
1.0
176
     0
 90
        2
176
     1
  1
strokes_ogs.tif
176
     1
290
     0
176
     1
 40
1.0
176
     1
 40
1.0
176
     1
  0
VISUALSTYLE
  5
31
102
{ACAD_REACTORS
330
29
102
}
330
29
100
AcDbVisualStyle
  2
Hidden
 70
     6
177
     3
291
     0
 70
    58
 90
        1
176
     1
 90
        2
176
     1
 90
        2
176
     1
 90
        0
176
     1
 40
0.6
176
     1
 40
30.0
176
     1
 62
     7
420
 16777215
176
     1
 90
        2
176
     1
 90
        2
176
     1
 62
     7
176
     1
 62
   257
176
     1
 90
        2
176
     1
 90
        1
176
     1
 40
40.0
176
     1
 90
        0
176
     1
 62
   257
176
     1
 40
1.0
176
     1
 90
        1
176
     1
 90
        6
176
     1
 90
        2
176
     1
 62
     7
176
     1
 90
        3
176
     1
 90
        0
176
     1
 90
        0
176
     1
290
     0
176
     1
 90
        1
176
     1
 40
0.0
176
     1
 90
        0
176
     1
290
     0
176
     1
290
     1
176
     1
290
     1
176
     1
290
     0
176
     1
290
     0
176
     1
290
     0
176
     1
290
     0
176
     1
290
     0
176
     1
290
     0
176
     1
 90
       50
176
     1
 40
0.0
176
     1
 40
1.0
176
     1
 90
        0
176
     1
 62
    18
176
     1
 90
       50
176
     1
 90
        3
176
     1
 62
     5
420
      255
176
     1
290
     0
176
     1
 90
       50
176
     1
 90
       50
176
     1
 90
       50
176
     1
290
     0
176
     1
 90
       50
176
     1
 62
   256
176
     0
 40
1.0
176
     0
 90
        2
176
     1
  1
strokes_ogs.tif
176
     1
290
     0
176
     1
 40
1.0
176
     1
 40
1.0
176
     1
  0
VISUALSTYLE
  5
3F
102
{ACAD_REACTORS
330
29
102
}
330
29
100
AcDbVisualStyle
  2
JitterOff
 70
    20
177
     3
291
     1
 70
    58
 90
        2
176
     0
 90
        2
176
     0
 90
        0
176
     0
 90
        0
176
     0
 40
0.6
176
     0
 40
30.0
176
     0
 62
     7
420
 16777215
176
     0
 90
        1
176
     0
 90
        4
176
     0
 62
     7
176
     0
 62
   257
176
     0
 90
        1
176
     0
 90
        1
176
     0
 40
1.0
176
     0
 90
       10
176
     2
 62
     7
176
     0
 40
1.0
176
     0
 90
        1
176
     0
 90
        6
176
     0
 90
        2
176
     0
 62
     7
176
     0
 90
        5
176
     0
 90
        0
176
     0
 90
        0
176
     0
290
     0
176
     0
 90
        1
176
     0
 40
0.0
176
     0
 90
        0
176
     0
290
     0
176
     1
290
     1
176
     1
290
     1
176
     1
290
     0
176
     1
290
     0
176
     1
290
     0
176
     1
290
     0
176
     1
290
     0
176
     1
290
     0
176
     1
 90
       50
176
     0
 40
0.0
176
     0
 40
1.0
176
     0
 90
        0
176
     0
 62
    18
176
     0
 90
       50
176
     0
 90
        3
176
     0
 62
     5
420
      255
176
     0
290
     0
176
     1
 90
       50
176
     0
 90
       50
176
     0
 90
       50
176
     0
290
     0
176
     1
 90
       50
176
     0
 62
   256
176
     0
 40
1.0
176
     0
 90
        2
176
     0
  1
strokes_ogs.tif
176
     0
290
     0
176
     1
 40
1.0
176
     0
 40
1.0
176
     0
  0
VISUALSTYLE
  5
37
102
{ACAD_REACTORS
330
29
102
}
330
29
100
AcDbVisualStyle
  2
Linepattern
 70
    14
177
     3
291
     1
 70
    58
 90
        2
176
     1
 90
        2
176
     1
 90
        0
176
     1
 90
        0
176
     1
 40
0.6
176
     1
 40
30.0
176
     1
 62
     7
420
 16777215
176
     1
 90
        1
176
     1
 90
        4
176
     1
 62
     7
176
     1
 62
   257
176
     1
 90
        7
176
     1
 90
        7
176
     1
 40
1.0
176
     1
 90
        8
176
     1
 62
     7
176
     1
 40
1.0
176
     1
 90
        1
176
     1
 90
        6
176
     1
 90
        2
176
     1
 62
     7
176
     1
 90
        5
176
     1
 90
        0
176
     1
 90
        0
176
     1
290
     0
176
     1
 90
        1
176
     1
 40
0.0
176
     1
 90
        0
176
     1
290
     0
176
     1
290
     1
176
     1
290
     1
176
     1
290
     0
176
     1
290
     0
176
     1
290
     0
176
     1
290
     0
176
     1
290
     0
176
     1
290
     0
176
     1
 90
       50
176
     1
 40
0.0
176
     1
 40
1.0
176
     1
 90
        0
176
     1
 62
    18
176
     1
 90
       50
176
     1
 90
        3
176
     1
 62
     5
420
      255
176
     1
290
     0
176
     1
 90
       50
176
     1
 90
       50
176
     1
 90
       50
176
     1
290
     0
176
     1
 90
       50
176
     1
 62
   256
176
     0
 40
1.0
176
     0
 90
        2
176
     1
  1
strokes_ogs.tif
176
     1
290
     0
176
     1
 40
1.0
176
     1
 40
1.0
176
     1
  0
VISUALSTYLE
  5
40
102
{ACAD_REACTORS
330
29
102
}
330
29
100
AcDbVisualStyle
  2
OverhangOff
 70
    21
177
     3
291
     1
 70
    58
 90
        2
176
     0
 90
        2
176
     0
 90
        0
176
     0
 90
        0
176
     0
 40
0.6
176
     0
 40
30.0
176
     0
 62
     7
420
 16777215
176
     0
 90
        1
176
     0
 90
        4
176
     0
 62
     7
176
     0
 62
   257
176
     0
 90
        1
176
     0
 90
        1
176
     0
 40
1.0
176
     0
 90
        9
176
     2
 62
     7
176
     0
 40
1.0
176
     0
 90
        1
176
     0
 90
        6
176
     0
 90
        2
176
     0
 62
     7
176
     0
 90
        5
176
     0
 90
        0
176
     0
 90
        0
176
     0
290
     0
176
     0
 90
        1
176
     0
 40
0.0
176
     0
 90
        0
176
     0
290
     0
176
     1
290
     1
176
     1
290
     1
176
     1
290
     0
176
     1
290
     0
176
     1
290
     0
176
     1
290
     0
176
     1
290
     0
176
     1
290
     0
176
     1
 90
       50
176
     0
 40
0.0
176
     0
 40
1.0
176
     0
 90
        0
176
     0
 62
    18
176
     0
 90
       50
176
     0
 90
        3
176
     0
 62
     5
420
      255
176
     0
290
     0
176
     1
 90
       50
176
     0
 90
       50
176
     0
 90
       50
176
     0
290
     0
176
     1
 90
       50
176
     0
 62
   256
176
     0
 40
1.0
176
     0
 90
        2
176
     0
  1
strokes_ogs.tif
176
     0
290
     0
176
     1
 40
1.0
176
     0
 40
1.0
176
     0
  0
VISUALSTYLE
  5
33
102
{ACAD_REACTORS
330
29
102
}
330
29
100
AcDbVisualStyle
  2
Realistic
 70
     8
177
     3
291
     0
 70
    58
 90
        2
176
     1
 90
        3
176
     1
 90
        0
176
     1
 90
        2
176
     1
 40
0.6
176
     1
 40
30.0
176
     1
 62
     7
420
 16777215
176
     1
 90
        0
176
     1
 90
        0
176
     1
 62
     7
176
     1
 62
   257
176
     1
 90
        1
176
     1
 90
        1
176
     1
 40
1.0
176
     1
 90
        8
176
     1
 62
   257
176
     1
 40
1.0
176
     1
 90
        1
176
     1
 90
        6
176
     1
 90
        2
176
     1
 62
     7
176
     1
 90
        3
176
     1
 90
        0
176
     1
 90
        0
176
     1
290
     0
176
     1
 90
       13
176
     1
 40
0.0
176
     1
 90
        0
176
     1
290
     0
176
     1
290
     1
176
     1
290
     1
176
     1
290
     0
176
     1
290
     0
176
     1
290
     0
176
     1
290
     0
176
     1
290
     0
176
     1
290
     0
176
     1
 90
       50
176
     1
 40
0.0
176
     1
 40
1.0
176
     1
 90
        0
176
     1
 62
    18
176
     1
 90
       50
176
     1
 90
        3
176
     1
 62
     5
420
      255
176
     1
290
     0
176
     1
 90
       50
176
     1
 90
       50
176
     1
 90
       50
176
     1
290
     0
176
     1
 90
       50
176
     1
 62
   256
176
     0
 40
1.0
176
     0
 90
        2
176
     1
  1
strokes_ogs.tif
176
     1
290
     0
176
     1
 40
1.0
176
     1
 40
1.0
176
     1
  0
VISUALSTYLE
  5
3E
102
{ACAD_REACTORS
330
29
102
}
330
29
100
AcDbVisualStyle
  2
Shaded
 70
    27
177
     3
291
     0
 70
    58
 90
        2
176
     1
 90
        2
176
     1
 90
        1
176
     1
 90
        2
176
     1
 40
0.6
176
     1
 40
30.0
176
     1
 62
     7
420
 16777215
176
     1
 90
        0
176
     1
 90
        4
176
     1
 62
     7
176
     1
 62
   257
176
     1
 90
        1
176
     1
 90
        1
176
     1
 40
1.0
176
     1
 90
        8
176
     1
 62
   257
176
     1
 40
1.0
176
     1
 90
        1
176
     1
 90
        6
176
     1
 90
        2
176
     1
 62
     8
420
  7895160
176
     1
 90
        3
176
     1
 90
        0
176
     1
 90
        0
176
     1
290
     0
176
     1
 90
        5
176
     1
 40
0.0
176
     1
 90
        0
176
     1
290
     0
176
     1
290
     1
176
     1
290
     1
176
     1
290
     0
176
     1
290
     0
176
     1
290
     0
176
     1
290
     0
176
     1
290
     0
176
     1
290
     0
176
     1
 90
       50
176
     1
 40
0.0
176
     1
 40
1.0
176
     1
 90
        0
176
     1
 62
    18
176
     1
 90
       50
176
     1
 90
        3
176
     1
 62
     5
420
      255
176
     1
290
     0
176
     1
 90
       50
176
     1
 90
       50
176
     1
 90
       50
176
     1
290
     0
176
     1
 90
       50
176
     1
 62
   256
176
     0
 40
1.0
176
     0
 90
        2
176
     1
  1
strokes_ogs.tif
176
     1
290
     0
176
     1
 40
1.0
176
     1
 40
1.0
176
     1
  0
VISUALSTYLE
  5
3D
102
{ACAD_REACTORS
330
29
102
}
330
29
100
AcDbVisualStyle
  2
Shaded with edges
 70
    26
177
     3
291
     0
 70
    58
 90
        2
176
     1
 90
        2
176
     1
 90
        1
176
     1
 90
        2
176
     1
 40
0.6
176
     1
 40
30.0
176
     1
 62
     7
420
 16777215
176
     1
 90
        1
176
     1
 90
        2
176
     1
 62
     7
176
     1
 62
   257
176
     1
 90
        2
176
     1
 90
        1
176
     1
 40
1.0
176
     1
 90
        8
176
     1
 62
   257
176
     1
 40
1.0
176
     1
 90
        1
176
     1
 90
        6
176
     1
 90
        2
176
     1
 62
     7
176
     1
 90
        3
176
     1
 90
        0
176
     1
 90
        0
176
     1
290
     0
176
     1
 90
        5
176
     1
 40
0.0
176
     1
 90
        0
176
     1
290
     0
176
     1
290
     1
176
     1
290
     1
176
     1
290
     0
176
     1
290
     0
176
     1
290
     0
176
     1
290
     0
176
     1
290
     0
176
     1
290
     0
176
     1
 90
       50
176
     1
 40
0.0
176
     1
 40
1.0
176
     1
 90
        0
176
     1
 62
    18
176
     1
 90
       50
176
     1
 90
        3
176
     1
 62
     5
420
      255
176
     1
290
     0
176
     1
 90
       50
176
     1
 90
       50
176
     1
 90
       50
176
     1
290
     0
176
     1
 90
       50
176
     1
 62
   256
176
     0
 40
1.0
176
     0
 90
        2
176
     1
  1
strokes_ogs.tif
176
     1
290
     0
176
     1
 40
1.0
176
     1
 40
1.0
176
     1
  0
VISUALSTYLE
  5
3A
102
{ACAD_REACTORS
330
29
102
}
330
29
100
AcDbVisualStyle
  2
Shades of Gray
 70
    23
177
     3
291
     0
 70
    58
 90
        2
176
     1
 90
        2
176
     1
 90
        3
176
     1
 90
        0
176
     1
 40
0.6
176
     1
 40
30.0
176
     1
 62
     7
420
 16777215
176
     1
 90
        2
176
     1
 90
        2
176
     1
 62
     7
176
     1
 62
     7
176
     1
 90
        1
176
     1
 90
        1
176
     1
 40
40.0
176
     1
 90
        8
176
     1
 62
     7
176
     1
 40
1.0
176
     1
 90
        1
176
     1
 90
        6
176
     1
 90
        2
176
     1
 62
     7
176
     1
 90
        3
176
     1
 90
        0
176
     1
 90
        0
176
     1
290
     0
176
     1
 90
        1
176
     1
 40
0.0
176
     1
 90
        0
176
     1
290
     0
176
     1
290
     1
176
     1
290
     1
176
     1
290
     0
176
     1
290
     0
176
     1
290
     0
176
     1
290
     0
176
     1
290
     0
176
     1
290
     0
176
     1
 90
       50
176
     1
 40
0.0
176
     1
 40
1.0
176
     1
 90
        0
176
     1
 62
    18
176
     1
 90
       50
176
     1
 90
        3
176
     1
 62
     5
420
      255
176
     1
290
     0
176
     1
 90
       50
176
     1
 90
       50
176
     1
 90
       50
176
     1
290
     0
176
     1
 90
       50
176
     1
 62
   256
176
     0
 40
1.0
176
     0
 90
        2
176
     1
  1
strokes_ogs.tif
176
     1
290
     0
176
     1
 40
1.0
176
     1
 40
1.0
176
     1
  0
VISUALSTYLE
  5
3B
102
{ACAD_REACTORS
330
29
102
}
330
29
100
AcDbVisualStyle
  2
Sketchy
 70
    24
177
     3
291
     0
 70
    58
 90
        1
176
     1
 90
        2
176
     1
 90
        2
176
     1
 90
        0
176
     1
 40
0.6
176
     1
 40
30.0
176
     1
 62
     7
420
 16777215
176
     1
 90
        2
176
     1
 90
        2
176
     1
 62
     7
176
     1
 62
     7
176
     1
 90
        1
176
     1
 90
        1
176
     1
 40
40.0
176
     1
 90
       11
176
     1
 62
     7
176
     1
 40
1.0
176
     1
 90
        1
176
     1
 90
        6
176
     1
 90
        2
176
     1
 62
     7
176
     1
 90
        6
176
     1
 90
        0
176
     1
 90
        0
176
     1
290
     0
176
     1
 90
        1
176
     1
 40
0.0
176
     1
 90
        0
176
     1
290
     0
176
     1
290
     1
176
     1
290
     1
176
     1
290
     0
176
     1
290
     0
176
     1
290
     0
176
     1
290
     0
176
     1
290
     0
176
     1
290
     0
176
     1
 90
       50
176
     1
 40
0.0
176
     1
 40
1.0
176
     1
 90
        0
176
     1
 62
    18
176
     1
 90
       50
176
     1
 90
        3
176
     1
 62
     5
420
      255
176
     1
290
     0
176
     1
 90
       50
176
     1
 90
       50
176
     1
 90
       50
176
     1
290
     0
176
     1
 90
       50
176
     1
 62
   256
176
     0
 40
1.0
176
     0
 90
        2
176
     1
  1
strokes_ogs.tif
176
     1
290
     0
176
     1
 40
1.0
176
     1
 40
1.0
176
     1
  0
VISUALSTYLE
  5
36
102
{ACAD_REACTORS
330
29
102
}
330
29
100
AcDbVisualStyle
  2
Thicken
 70
    13
177
     3
291
     1
 70
    58
 90
        2
176
     1
 90
        2
176
     1
 90
        0
176
     1
 90
        0
176
     1
 40
0.6
176
     1
 40
30.0
176
     1
 62
     7
420
 16777215
176
     1
 90
        1
176
     1
 90
        4
176
     1
 62
     7
176
     1
 62
   257
176
     1
 90
        1
176
     1
 90
        1
176
     1
 40
1.0
176
     1
 90
       12
176
     1
 62
     7
176
     1
 40
1.0
176
     1
 90
        1
176
     1
 90
        6
176
     1
 90
        2
176
     1
 62
     7
176
     1
 90
        5
176
     1
 90
        0
176
     1
 90
        0
176
     1
290
     0
176
     1
 90
        1
176
     1
 40
0.0
176
     1
 90
        0
176
     1
290
     0
176
     1
290
     1
176
     1
290
     1
176
     1
290
     0
176
     1
290
     0
176
     1
290
     0
176
     1
290
     0
176
     1
290
     0
176
     1
290
     0
176
     1
 90
       50
176
     1
 40
0.0
176
     1
 40
1.0
176
     1
 90
        0
176
     1
 62
    18
176
     1
 90
       50
176
     1
 90
        3
176
     1
 62
     5
420
      255
176
     1
290
     0
176
     1
 90
       50
176
     1
 90
       50
176
     1
 90
       50
176
     1
290
     0
176
     1
 90
       50
176
     1
 62
   256
176
     0
 40
1.0
176
     0
 90
        2
176
     1
  1
strokes_ogs.tif
176
     1
290
     0
176
     1
 40
1.0
176
     1
 40
1.0
176
     1
  0
VISUALSTYLE
  5
30
102
{ACAD_REACTORS
330
29
102
}
330
29
100
AcDbVisualStyle
  2
Wireframe
 70
     5
177
     3
291
     0
 70
    58
 90
        0
176
     1
 90
        2
176
     1
 90
        0
176
     1
 90
        0
176
     1
 40
0.6
176
     1
 40
30.0
176
     1
 62
     7
420
 16777215
176
     1
 90
        1
176
     1
 90
        4
176
     1
 62
     7
176
     1
 62
   257
176
     1
 90
        1
176
     1
 90
        1
176
     1
 40
1.0
176
     1
 90
        0
176
     1
 62
   257
176
     1
 40
1.0
176
     1
 90
        1
176
     1
 90
        6
176
     1
 90
        2
176
     1
 62
     7
176
     1
 90
        3
176
     1
 90
        0
176
     1
 90
        0
176
     1
290
     0
176
     1
 90
        1
176
     1
 40
0.0
176
     1
 90
        0
176
     1
290
     0
176
     1
290
     1
176
     1
290
     1
176
     1
290
     0
176
     1
290
     0
176
     1
290
     0
176
     1
290
     0
176
     1
290
     0
176
     1
290
     0
176
     1
 90
       50
176
     1
 40
0.0
176
     1
 40
1.0
176
     1
 90
        0
176
     1
 62
    18
176
     1
 90
       50
176
     1
 90
        3
176
     1
 62
     5
420
      255
176
     1
290
     0
176
     1
 90
       50
176
     1
 90
       50
176
     1
 90
       50
176
     1
290
     0
176
     1
 90
       50
176
     1
 62
   256
176
     0
 40
1.0
176
     0
 90
        2
176
     1
  1
strokes_ogs.tif
176
     1
290
     0
176
     1
 40
1.0
176
     1
 40
1.0
176
     1
  0
VISUALSTYLE
  5
3C
102
{ACAD_REACTORS
330
29
102
}
330
29
100
AcDbVisualStyle
  2
X-Ray
 70
    25
177
     3
291
     0
 70
    58
 90
        2
176
     1
 90
        2
176
     1
 90
        1
176
     1
 90
        1
176
     1
 40
0.5
176
     1
 40
30.0
176
     1
 62
     7
420
 16777215
176
     1
 90
        1
176
     1
 90
        0
176
     1
 62
     7
176
     1
 62
   257
176
     1
 90
        1
176
     1
 90
        1
176
     1
 40
1.0
176
     1
 90
        8
176
     1
 62
     7
176
     1
 40
1.0
176
     1
 90
        1
176
     1
 90
        6
176
     1
 90
        2
176
     1
 62
     7
176
     1
 90
        3
176
     1
 90
        0
176
     1
 90
        0
176
     1
290
     0
176
     1
 90
       13
176
     1
 40
0.0
176
     1
 90
        0
176
     1
290
     0
176
     1
290
     1
176
     1
290
     1
176
     1
290
     0
176
     1
290
     0
176
     1
290
     0
176
     1
290
     0
176
     1
290
     0
176
     1
290
     0
176
     1
 90
       50
176
     1
 40
0.0
176
     1
 40
1.0
176
     1
 90
        0
176
     1
 62
    18
176
     1
 90
       50
176
     1
 90
        3
176
     1
 62
     5
420
      255
176
     1
290
     0
176
     1
 90
       50
176
     1
 90
       50
176
     1
 90
       50
176
     1
290
     0
176
     1
 90
       50
176
     1
 62
   256
176
     0
 40
1.0
176
     0
 90
        2
176
     1
  1
strokes_ogs.tif
176
     1
290
     0
176
     1
 40
1.0
176
     1
 40
1.0
176
     1
  0
DICTIONARYVAR
  5
1AC0
102
{ACAD_REACTORS
330
1ABA
102
}
330
1ABA
100
DictionaryVariables
280
     0
  1
1:1
  0
DICTIONARYVAR
  5
1ABC
102
{ACAD_REACTORS
330
1ABA
102
}
330
1ABA
100
DictionaryVariables
280
     0
  1
STANDARD
  0
DICTIONARYVAR
  5
1ABB
102
{ACAD_REACTORS
330
1ABA
102
}
330
1ABA
100
DictionaryVariables
280
     0
  1
STANDARD
  0
DICTIONARYVAR
  5
1ABD
102
{ACAD_REACTORS
330
1ABA
102
}
330
1ABA
100
DictionaryVariables
280
     0
  1
Imperial24
  0
DICTIONARYVAR
  5
1ABE
102
{ACAD_REACTORS
330
1ABA
102
}
330
1ABA
100
DictionaryVariables
280
     0
  1
Imperial24
  0
DICTIONARYVAR
  5
1AC2
102
{ACAD_REACTORS
330
1ABA
102
}
330
1ABA
100
DictionaryVariables
280
     0
  1
1
  0
DICTIONARYVAR
  5
1AC3
102
{ACAD_REACTORS
330
1ABA
102
}
330
1ABA
100
DictionaryVariables
280
     0
  1
15
  0
DICTIONARYVAR
  5
1AC1
102
{ACAD_REACTORS
330
1ABA
102
}
330
1ABA
100
DictionaryVariables
280
     0
  1
0
  0
DICTIONARYVAR
  5
1ABF
102
{ACAD_REACTORS
330
1ABA
102
}
330
1ABA
100
DictionaryVariables
280
     0
  1
0
  0
DICTIONARY
  5
1A
330
19
100
AcDbDictionary
280
     1
281
     1
  3
BUMPTILE
360
1C
  3
DIFFUSETILE
360
1B
  3
OPACITYTILE
360
1F
  3
REFLECTIONTILE
360
1E
  3
REFRACTIONTILE
360
20
  3
SPECULARTILE
360
1D
  0
DICTIONARY
  5
12
330
11
100
AcDbDictionary
280
     1
281
     1
  3
BUMPTILE
360
14
  3
DIFFUSETILE
360
13
  3
OPACITYTILE
360
17
  3
REFLECTIONTILE
360
16
  3
REFRACTIONTILE
360
18
  3
SPECULARTILE
360
15
  0
DICTIONARY
  5
22
330
21
100
AcDbDictionary
280
     1
281
     1
  3
BUMPTILE
360
24
  3
DIFFUSETILE
360
23
  3
OPACITYTILE
360
27
  3
REFLECTIONTILE
360
26
  3
REFRACTIONTILE
360
28
  3
SPECULARTILE
360
25
  0
DICTIONARY
  5
1AC5
330
64
100
AcDbDictionary
280
     1
281
     1
  3
ACAD_ROUNDTRIP_2008_TABLESTYLE_CELLSTYLEMAP
360
1AEB
  0
XRECORD
  5
1C
102
{ACAD_REACTORS
330
1A
102
}
330
1A
100
AcDbXrecord
280
     1
270
     1
271
     1
  0
XRECORD
  5
1B
102
{ACAD_REACTORS
330
1A
102
}
330
1A
100
AcDbXrecord
280
     1
270
     1
271
     1
  0
XRECORD
  5
1F
102
{ACAD_REACTORS
330
1A
102
}
330
1A
100
AcDbXrecord
280
     1
270
     1
271
     1
  0
XRECORD
  5
1E
102
{ACAD_REACTORS
330
1A
102
}
330
1A
100
AcDbXrecord
280
     1
270
     1
271
     1
  0
XRECORD
  5
20
102
{ACAD_REACTORS
330
1A
102
}
330
1A
100
AcDbXrecord
280
     1
270
     1
271
     1
  0
XRECORD
  5
1D
102
{ACAD_REACTORS
330
1A
102
}
330
1A
100
AcDbXrecord
280
     1
270
     1
271
     1
  0
XRECORD
  5
14
102
{ACAD_REACTORS
330
12
102
}
330
12
100
AcDbXrecord
280
     1
270
     1
271
     1
  0
XRECORD
  5
13
102
{ACAD_REACTORS
330
12
102
}
330
12
100
AcDbXrecord
280
     1
270
     1
271
     1
  0
XRECORD
  5
17
102
{ACAD_REACTORS
330
12
102
}
330
12
100
AcDbXrecord
280
     1
270
     1
271
     1
  0
XRECORD
  5
16
102
{ACAD_REACTORS
330
12
102
}
330
12
100
AcDbXrecord
280
     1
270
     1
271
     1
  0
XRECORD
  5
18
102
{ACAD_REACTORS
330
12
102
}
330
12
100
AcDbXrecord
280
     1
270
     1
271
     1
  0
XRECORD
  5
15
102
{ACAD_REACTORS
330
12
102
}
330
12
100
AcDbXrecord
280
     1
270
     1
271
     1
  0
XRECORD
  5
24
102
{ACAD_REACTORS
330
22
102
}
330
22
100
AcDbXrecord
280
     1
270
     1
271
     1
  0
XRECORD
  5
23
102
{ACAD_REACTORS
330
22
102
}
330
22
100
AcDbXrecord
280
     1
270
     1
271
     1
  0
XRECORD
  5
27
102
{ACAD_REACTORS
330
22
102
}
330
22
100
AcDbXrecord
280
     1
270
     1
271
     1
  0
XRECORD
  5
26
102
{ACAD_REACTORS
330
22
102
}
330
22
100
AcDbXrecord
280
     1
270
     1
271
     1
  0
XRECORD
  5
28
102
{ACAD_REACTORS
330
22
102
}
330
22
100
AcDbXrecord
280
     1
270
     1
271
     1
  0
XRECORD
  5
25
102
{ACAD_REACTORS
330
22
102
}
330
22
100
AcDbXrecord
280
     1
270
     1
271
     1
  0
CELLSTYLEMAP
  5
1AEB
102
{ACAD_REACTORS
330
1AC5
102
}
330
1AC5
100
AcDbCellStyleMap
 90
        3
300
CELLSTYLE
  1
TABLEFORMAT_BEGIN
 90
        5
170
     1
 91
        0
 92
    32768
 62
   257
 93
        1
300
CONTENTFORMAT
  1
CONTENTFORMAT_BEGIN
 90
        0
 91
        0
 92
      512
 93
        0
300

 40
0.0
140
1.0
 94
        5
 62
     0
340
55
144
0.25
309
CONTENTFORMAT_END
171
     1
301
MARGIN
  1
CELLMARGIN_BEGIN
 40
0.06
 40
0.06
 40
0.06
 40
0.06
 40
0.18
 40
0.18
309
CELLMARGIN_END
 94
        6
 95
        1
302
GRIDFORMAT
  1
GRIDFORMAT_BEGIN
 90
        0
 91
        1
 62
     0
 92
       -2
340
0
 93
        0
 40
0.045
309
GRIDFORMAT_END
 95
        2
302
GRIDFORMAT
  1
GRIDFORMAT_BEGIN
 90
        0
 91
        1
 62
     0
 92
       -2
340
0
 93
        0
 40
0.045
309
GRIDFORMAT_END
 95
        4
302
GRIDFORMAT
  1
GRIDFORMAT_BEGIN
 90
        0
 91
        1
 62
     0
 92
       -2
340
0
 93
        0
 40
0.045
309
GRIDFORMAT_END
 95
        8
302
GRIDFORMAT
  1
GRIDFORMAT_BEGIN
 90
        0
 91
        1
 62
     0
 92
       -2
340
0
 93
        0
 40
0.045
309
GRIDFORMAT_END
 95
       16
302
GRIDFORMAT
  1
GRIDFORMAT_BEGIN
 90
        0
 91
        1
 62
     0
 92
       -2
340
0
 93
        0
 40
0.045
309
GRIDFORMAT_END
 95
       32
302
GRIDFORMAT
  1
GRIDFORMAT_BEGIN
 90
        0
 91
        1
 62
     0
 92
       -2
340
0
 93
        0
 40
0.045
309
GRIDFORMAT_END
309
TABLEFORMAT_END
  1
CELLSTYLE_BEGIN
 90
        1
 91
        1
300
_TITLE
309
CELLSTYLE_END
300
CELLSTYLE
  1
TABLEFORMAT_BEGIN
 90
        5
170
     1
 91
        0
 92
        0
 62
   257
 93
        1
300
CONTENTFORMAT
  1
CONTENTFORMAT_BEGIN
 90
        0
 91
        0
 92
      512
 93
        0
300

 40
0.0
140
1.0
 94
        5
 62
     0
340
55
144
0.18
309
CONTENTFORMAT_END
171
     1
301
MARGIN
  1
CELLMARGIN_BEGIN
 40
0.06
 40
0.06
 40
0.06
 40
0.06
 40
0.18
 40
0.18
309
CELLMARGIN_END
 94
        6
 95
        1
302
GRIDFORMAT
  1
GRIDFORMAT_BEGIN
 90
        0
 91
        1
 62
     0
 92
       -2
340
0
 93
        0
 40
0.045
309
GRIDFORMAT_END
 95
        2
302
GRIDFORMAT
  1
GRIDFORMAT_BEGIN
 90
        0
 91
        1
 62
     0
 92
       -2
340
0
 93
        0
 40
0.045
309
GRIDFORMAT_END
 95
        4
302
GRIDFORMAT
  1
GRIDFORMAT_BEGIN
 90
        0
 91
        1
 62
     0
 92
       -2
340
0
 93
        0
 40
0.045
309
GRIDFORMAT_END
 95
        8
302
GRIDFORMAT
  1
GRIDFORMAT_BEGIN
 90
        0
 91
        1
 62
     0
 92
       -2
340
0
 93
        0
 40
0.045
309
GRIDFORMAT_END
 95
       16
302
GRIDFORMAT
  1
GRIDFORMAT_BEGIN
 90
        0
 91
        1
 62
     0
 92
       -2
340
0
 93
        0
 40
0.045
309
GRIDFORMAT_END
 95
       32
302
GRIDFORMAT
  1
GRIDFORMAT_BEGIN
 90
        0
 91
        1
 62
     0
 92
       -2
340
0
 93
        0
 40
0.045
309
GRIDFORMAT_END
309
TABLEFORMAT_END
  1
CELLSTYLE_BEGIN
 90
        2
 91
        1
300
_HEADER
309
CELLSTYLE_END
300
CELLSTYLE
  1
TABLEFORMAT_BEGIN
 90
        5
170
     1
 91
        0
 92
        0
 62
   257
 93
        1
300
CONTENTFORMAT
  1
CONTENTFORMAT_BEGIN
 90
        0
 91
        0
 92
      512
 93
        0
300

 40
0.0
140
1.0
 94
        2
 62
     0
340
55
144
0.18
309
CONTENTFORMAT_END
171
     1
301
MARGIN
  1
CELLMARGIN_BEGIN
 40
0.06
 40
0.06
 40
0.06
 40
0.06
 40
0.18
 40
0.18
309
CELLMARGIN_END
 94
        6
 95
        1
302
GRIDFORMAT
  1
GRIDFORMAT_BEGIN
 90
        0
 91
        1
 62
     0
 92
       -2
340
0
 93
        0
 40
0.045
309
GRIDFORMAT_END
 95
        2
302
GRIDFORMAT
  1
GRIDFORMAT_BEGIN
 90
        0
 91
        1
 62
     0
 92
       -2
340
0
 93
        0
 40
0.045
309
GRIDFORMAT_END
 95
        4
302
GRIDFORMAT
  1
GRIDFORMAT_BEGIN
 90
        0
 91
        1
 62
     0
 92
       -2
340
0
 93
        0
 40
0.045
309
GRIDFORMAT_END
 95
        8
302
GRIDFORMAT
  1
GRIDFORMAT_BEGIN
 90
        0
 91
        1
 62
     0
 92
       -2
340
0
 93
        0
 40
0.045
309
GRIDFORMAT_END
 95
       16
302
GRIDFORMAT
  1
GRIDFORMAT_BEGIN
 90
        0
 91
        1
 62
     0
 92
       -2
340
0
 93
        0
 40
0.045
309
GRIDFORMAT_END
 95
       32
302
GRIDFORMAT
  1
GRIDFORMAT_BEGIN
 90
        0
 91
        1
 62
     0
 92
       -2
340
0
 93
        0
 40
0.045
309
GRIDFORMAT_END
309
TABLEFORMAT_END
  1
CELLSTYLE_BEGIN
 90
        3
 91
        2
300
_DATA
309
CELLSTYLE_END
  0
ENDSEC
  0
EOF
