  0
SECTION
  2
HEADER
  9
$ACADVER
  1
AC1032
  9
$ACADMAINTVER
 90
       73
  9
$DWGCODEPAGE
  3
ANSI_1252
  9
$LASTSAVEDBY
  1
Eton
  9
$REQUIREDVERSIONS
160
                 0
  9
$INSBASE
 10
0.0
 20
0.0
 30
0.0
  9
$EXTMIN
 10
-85.10833333333334
 20
42.63021063423383
 30
0.0
  9
$EXTMAX
 10
-76.23333333333333
 20
48.89595968934187
 30
0.0
  9
$LIMMIN
 10
0.0
 20
0.0
  9
$LIMMAX
 10
12.0
 20
9.0
  9
$ORTHOMODE
 70
     0
  9
$REGENMODE
 70
     1
  9
$FILLMODE
 70
     1
  9
$QTEXTMODE
 70
     0
  9
$MIRRTEXT
 70
     0
  9
$LTSCALE
 40
1.0
  9
$ATTMODE
 70
     1
  9
$TEXTSIZE
 40
0.006
  9
$TRACEWID
 40
0.05
  9
$TEXTSTYLE
  7
STANDARD
  9
$CLAYER
  8
0
  9
$CELTYPE
  6
ByLayer
  9
$CECOLOR
 62
   256
  9
$CELTSCALE
 40
1.0
  9
$DISPSILH
 70
     0
  9
$DIMSCALE
 40
1.0
  9
$DIMASZ
 40
0.18
  9
$DIMEXO
 40
0.0625
  9
$DIMDLI
 40
0.38
  9
$DIMRND
 40
0.0
  9
$DIMDLE
 40
0.0
  9
$DIMEXE
 40
0.18
  9
$DIMTP
 40
0.0
  9
$DIMTM
 40
0.0
  9
$DIMTXT
 40
0.18
  9
$DIMCEN
 40
0.09
  9
$DIMTSZ
 40
0.0
  9
$DIMTOL
 70
     0
  9
$DIMLIM
 70
     0
  9
$DIMTIH
 70
     1
  9
$DIMTOH
 70
     1
  9
$DIMSE1
 70
     0
  9
$DIMSE2
 70
     0
  9
$DIMTAD
 70
     0
  9
$DIMZIN
 70
     0
  9
$DIMBLK
  1

  9
$DIMASO
 70
     1
  9
$DIMSHO
 70
     1
  9
$DIMPOST
  1

  9
$DIMAPOST
  1

  9
$DIMALT
 70
     0
  9
$DIMALTD
 70
     2
  9
$DIMALTF
 40
25.4
  9
$DIMLFAC
 40
1.0
  9
$DIMTOFL
 70
     0
  9
$DIMTVP
 40
0.0
  9
$DIMTIX
 70
     0
  9
$DIMSOXD
 70
     0
  9
$DIMSAH
 70
     0
  9
$DIMBLK1
  1

  9
$DIMBLK2
  1

  9
$DIMSTYLE
  2
Standard
  9
$DIMCLRD
 70
     0
  9
$DIMCLRE
 70
     0
  9
$DIMCLRT
 70
     0
  9
$DIMTFAC
 40
1.0
  9
$DIMGAP
 40
0.09
  9
$DIMJUST
 70
     0
  9
$DIMSD1
 70
     0
  9
$DIMSD2
 70
     0
  9
$DIMTOLJ
 70
     1
  9
$DIMTZIN
 70
     0
  9
$DIMALTZ
 70
     0
  9
$DIMALTTZ
 70
     0
  9
$DIMUPT
 70
     0
  9
$DIMDEC
 70
     4
  9
$DIMTDEC
 70
     4
  9
$DIMALTU
 70
     2
  9
$DIMALTTD
 70
     2
  9
$DIMTXSTY
  7
STANDARD
  9
$DIMAUNIT
 70
     0
  9
$DIMADEC
 70
     0
  9
$DIMALTRND
 40
0.0
  9
$DIMAZIN
 70
     0
  9
$DIMDSEP
 70
    46
  9
$DIMATFIT
 70
     3
  9
$DIMFRAC
 70
     0
  9
$DIMLDRBLK
  1

  9
$DIMLUNIT
 70
     2
  9
$DIMLWD
 70
    -2
  9
$DIMLWE
 70
    -2
  9
$DIMTMOVE
 70
     0
  9
$DIMFXL
 40
1.0
  9
$DIMFXLON
 70
     0
  9
$DIMJOGANG
 40
0.7853981633974483
  9
$DIMTFILL
 70
     0
  9
$DIMTFILLCLR
 70
     0
  9
$DIMARCSYM
 70
     0
  9
$DIMLTYPE
  6

  9
$DIMLTEX1
  6

  9
$DIMLTEX2
  6

  9
$DIMTXTDIRECTION
 70
     0
  9
$LUNITS
 70
     2
  9
$LUPREC
 70
     4
  9
$SKETCHINC
 40
0.1
  9
$FILLETRAD
 40
0.0
  9
$AUNITS
 70
     0
  9
$AUPREC
 70
     0
  9
$MENU
  1
.
  9
$ELEVATION
 40
0.0
  9
$PELEVATION
 40
0.0
  9
$THICKNESS
 40
0.0
  9
$LIMCHECK
 70
     0
  9
$CHAMFERA
 40
0.0
  9
$CHAMFERB
 40
0.0
  9
$CHAMFERC
 40
0.0
  9
$CHAMFERD
 40
0.0
  9
$SKPOLY
 70
     0
  9
$TDCREATE
 40
2458928.657268519
  9
$TDUCREATE
 40
2458928.823935185
  9
$TDUPDATE
 40
2459185.789548612
  9
$TDUUPDATE
 40
2459185.997881944
  9
$TDINDWG
 40
0.0130092593
  9
$TDUSRTIMER
 40
0.0130092593
  9
$USRTIMER
 70
     1
  9
$ANGBASE
 50
0.0
  9
$ANGDIR
 70
     0
  9
$PDMODE
 70
     0
  9
$PDSIZE
 40
0.0
  9
$PLINEWID
 40
0.0
  9
$SPLFRAME
 70
     0
  9
$SPLINETYPE
 70
     6
  9
$SPLINESEGS
 70
     8
  9
$HANDSEED
  5
1AED
  9
$SURFTAB1
 70
     6
  9
$SURFTAB2
 70
     6
  9
$SURFTYPE
 70
     6
  9
$SURFU
 70
     6
  9
$SURFV
 70
     6
  9
$UCSBASE
  2

  9
$UCSNAME
  2

  9
$UCSORG
 10
0.0
 20
0.0
 30
0.0
  9
$UCSXDIR
 10
1.0
 20
0.0
 30
0.0
  9
$UCSYDIR
 10
0.0
 20
1.0
 30
0.0
  9
$UCSORTHOREF
  2

  9
$UCSORTHOVIEW
 70
     0
  9
$UCSORGTOP
 10
0.0
 20
0.0
 30
0.0
  9
$UCSORGBOTTOM
 10
0.0
 20
0.0
 30
0.0
  9
$UCSORGLEFT
 10
0.0
 20
0.0
 30
0.0
  9
$UCSORGRIGHT
 10
0.0
 20
0.0
 30
0.0
  9
$UCSORGFRONT
 10
0.0
 20
0.0
 30
0.0
  9
$UCSORGBACK
 10
0.0
 20
0.0
 30
0.0
  9
$PUCSBASE
  2

  9
$PUCSNAME
  2

  9
$PUCSORG
 10
0.0
 20
0.0
 30
0.0
  9
$PUCSXDIR
 10
1.0
 20
0.0
 30
0.0
  9
$PUCSYDIR
 10
0.0
 20
1.0
 30
0.0
  9
$PUCSORTHOREF
  2

  9
$PUCSORTHOVIEW
 70
     0
  9
$PUCSORGTOP
 10
0.0
 20
0.0
 30
0.0
  9
$PUCSORGBOTTOM
 10
0.0
 20
0.0
 30
0.0
  9
$PUCSORGLEFT
 10
0.0
 20
0.0
 30
0.0
  9
$PUCSORGRIGHT
 10
0.0
 20
0.0
 30
0.0
  9
$PUCSORGFRONT
 10
0.0
 20
0.0
 30
0.0
  9
$PUCSORGBACK
 10
0.0
 20
0.0
 30
0.0
  9
$USERI1
 70
     0
  9
$USERI2
 70
     0
  9
$USERI3
 70
     0
  9
$USERI4
 70
     0
  9
$USERI5
 70
     0
  9
$USERR1
 40
0.0
  9
$USERR2
 40
0.0
  9
$USERR3
 40
0.0
  9
$USERR4
 40
0.0
  9
$USERR5
 40
0.0
  9
$WORLDVIEW
 70
     1
  9
$SHADEDGE
 70
     3
  9
$SHADEDIF
 70
    70
  9
$TILEMODE
 70
     1
  9
$MAXACTVP
 70
    64
  9
$PINSBASE
 10
0.0
 20
0.0
 30
0.0
  9
$PLIMCHECK
 70
     0
  9
$PEXTMIN
 10
1.000000000000000E+20
 20
1.000000000000000E+20
 30
1.000000000000000E+20
  9
$PEXTMAX
 10
-1.000000000000000E+20
 20
-1.000000000000000E+20
 30
-1.000000000000000E+20
  9
$PLIMMIN
 10
0.0
 20
0.0
  9
$PLIMMAX
 10
12.0
 20
9.0
  9
$UNITMODE
 70
     0
  9
$VISRETAIN
 70
     1
  9
$PLINEGEN
 70
     0
  9
$PSLTSCALE
 70
     1
  9
$TREEDEPTH
 70
  3020
  9
$CMLSTYLE
  2
Standard
  9
$CMLJUST
 70
     0
  9
$CMLSCALE
 40
1.0
  9
$PROXYGRAPHICS
 70
     1
  9
$MEASUREMENT
 70
     0
  9
$CELWEIGHT
370
    -1
  9
$ENDCAPS
280
     0
  9
$JOINSTYLE
280
     0
  9
$LWDISPLAY
290
     0
  9
$INSUNITS
 70
     0
  9
$HYPERLINKBASE
  1

  9
$STYLESHEET
  1

  9
$XEDIT
290
     1
  9
$CEPSNTYPE
380
     0
  9
$PSTYLEMODE
290
     1
  9
$FINGERPRINTGUID
  2
{A087A190-52ED-7B49-BEE2-C79CD84C2D94}
  9
$VERSIONGUID
  2
{DEAAC7EB-4AF3-4A41-A847-5F5E635DCEC1}
  9
$EXTNAMES
290
     1
  9
$PSVPSCALE
 40
0.0
  9
$OLESTARTUP
290
     0
  9
$SORTENTS
280
   127
  9
$INDEXCTL
280
     0
  9
$HIDETEXT
280
     0
  9
$XCLIPFRAME
280
     2
  9
$HALOGAP
280
     0
  9
$OBSCOLOR
 70
   257
  9
$OBSLTYPE
280
     0
  9
$INTERSECTIONDISPLAY
280
     0
  9
$INTERSECTIONCOLOR
 70
   257
  9
$DIMASSOC
280
     1
  9
$PROJECTNAME
  1

  9
$CAMERADISPLAY
290
     0
  9
$LENSLENGTH
 40
50.0
  9
$CAMERAHEIGHT
 40
0.0
  9
$STEPSPERSEC
 40
2.0
  9
$STEPSIZE
 40
6.0
  9
$3DDWFPREC
 40
2.0
  9
$PSOLWIDTH
 40
0.25
  9
$PSOLHEIGHT
 40
4.0
  9
$LOFTANG1
 40
1.570796326794896
  9
$LOFTANG2
 40
1.570796326794896
  9
$LOFTMAG1
 40
0.0
  9
$LOFTMAG2
 40
0.0
  9
$LOFTPARAM
 70
     7
  9
$LOFTNORMALS
280
     1
  9
$LATITUDE
 40
37.795
  9
$LONGITUDE
 40
-122.394
  9
$NORTHDIRECTION
 40
0.0
  9
$TIMEZONE
 70
 -8000
  9
$LIGHTGLYPHDISPLAY
280
     1
  9
$TILEMODELIGHTSYNCH
280
     1
  9
$CMATERIAL
347
11
  9
$SOLIDHIST
280
     0
  9
$SHOWHIST
280
     1
  9
$DWFFRAME
280
     2
  9
$DGNFRAME
280
     0
  9
$REALWORLDSCALE
290
     1
  9
$INTERFERECOLOR
 62
     1
  9
$INTERFEREOBJVS
345
33
  9
$INTERFEREVPVS
346
30
  9
$CSHADOW
280
     0
  9
$SHADOWPLANELOCATION
 40
0.0
  0
ENDSEC
  0
SECTION
  2
CLASSES
  0
CLASS
  1
ACDBDICTIONARYWDFLT
  2
AcDbDictionaryWithDefault
  3
ObjectDBX Classes
 90
        0
 91
        1
280
     0
281
     0
  0
CLASS
  1
MATERIAL
  2
AcDbMaterial
  3
ObjectDBX Classes
 90
     1153
 91
        3
280
     0
281
     0
  0
CLASS
  1
VISUALSTYLE
  2
AcDbVisualStyle
  3
ObjectDBX Classes
 90
     4095
 91
       24
280
     0
281
     0
  0
CLASS
  1
SCALE
  2
AcDbScale
  3
ObjectDBX Classes
 90
     1153
 91
       17
280
     0
281
     0
  0
CLASS
  1
TABLESTYLE
  2
AcDbTableStyle
  3
ObjectDBX Classes
 90
     4095
 91
        1
280
     0
281
     0
  0
CLASS
  1
MLEADERSTYLE
  2
AcDbMLeaderStyle
  3
ACDB_MLEADERSTYLE_CLASS
 90
     4095
 91
        1
280
     0
281
     0
  0
CLASS
  1
ACDBSECTIONVIEWSTYLE
  2
AcDbSectionViewStyle
  3
ObjectDBX Classes
 90
     1025
 91
        1
280
     0
281
     0
  0
CLASS
  1
ACDBDETAILVIEWSTYLE
  2
AcDbDetailViewStyle
  3
ObjectDBX Classes
 90
     1025
 91
        1
280
     0
281
     0
  0
CLASS
  1
SOLID_BACKGROUND
  2
AcDbSolidBackground
  3
SCENEOE
 90
     4095
 91
        0
280
     0
281
     0
  0
CLASS
  1
NPOCOLLECTION
  2
AcDbImpNonPersistentObjectsCollection
  3
ObjectDBX Classes
 90
     1153
 91
        0
280
     0
281
     0
  0
CLASS
  1
DICTIONARYVAR
  2
AcDbDictionaryVar
  3
ObjectDBX Classes
 90
        0
 91
        9
280
     0
281
     0
  0
CLASS
  1
CELLSTYLEMAP
  2
AcDbCellStyleMap
  3
ObjectDBX Classes
 90
     1152
 91
        2
280
     0
281
     0
  0
ENDSEC
  0
SECTION
  2
TABLES
  0
TABLE
  2
VPORT
  5
8
330
0
100
AcDbSymbolTable
 70
     1
  0
VPORT
  5
7B
330
8
100
AcDbSymbolTableRecord
100
AcDbViewportTableRecord
  2
*Active
 70
     0
 10
0.0
 20
0.0
 11
1.0
 21
1.0
 12
0.6564064793520759
 22
1.032412638491171
 13
0.0
 23
0.0
 14
1.0
 24
1.0
 15
0.0
 25
0.0
 16
0.0
 26
-0.072385339653934
 36
4.146953331403261
 17
-79.91742304329069
 27
44.10082163383402
 37
-0.0044656081124234
 40
2.140295851672643
 41
2.292712066905615
 42
50.0
 43
0.0
 44
0.0
 50
0.0
 51
0.0
 71
     0
 72
   100
 73
     1
 74
     0
 75
     1
 76
     0
 77
     0
 78
     0
281
     0
 65
     1
110
0.0
120
0.0
130
0.0
111
1.0
121
0.0
131
0.0
112
0.0
122
1.0
132
0.0
 79
     0
146
0.0
348
2F
 60
     3
 61
     5
292
     1
282
     1
141
0.0
142
0.0
 63
   250
421
  3355443
1001
ACAD_NAV_VCDISPLAY
1070
     3
  0
ENDTAB
  0
TABLE
  2
LTYPE
  5
5
330
0
100
AcDbSymbolTable
 70
     1
  0
LTYPE
  5
5A
330
5
100
AcDbSymbolTableRecord
100
AcDbLinetypeTableRecord
  2
ByBlock
 70
     0
  3

 72
    65
 73
     0
 40
0.0
  0
LTYPE
  5
5B
330
5
100
AcDbSymbolTableRecord
100
AcDbLinetypeTableRecord
  2
ByLayer
 70
     0
  3

 72
    65
 73
     0
 40
0.0
  0
LTYPE
  5
5C
330
5
100
AcDbSymbolTableRecord
100
AcDbLinetypeTableRecord
  2
Continuous
 70
     0
  3
Solid line
 72
    65
 73
     0
 40
0.0
  0
ENDTAB
  0
TABLE
  2
LAYER
  5
2
330
0
100
AcDbSymbolTable
 70
     8
  0
LAYER
  5
54
102
{ACAD_XDICTIONARY
360
1ACD
102
}
330
2
100
AcDbSymbolTableRecord
100
AcDbLayerTableRecord
  2
0
 70
     0
 62
     7
  6
Continuous
370
    -3
390
F
347
21
348
0
  0
LAYER
  5
73
102
{ACAD_XDICTIONARY
360
1ACF
102
}
330
2
100
AcDbSymbolTableRecord
100
AcDbLayerTableRecord
  2
RED
 70
     4
 62
     1
  6
Continuous
370
    -3
390
F
347
21
348
0
  0
LAYER
  5
74
102
{ACAD_XDICTIONARY
360
1AD1
102
}
330
2
100
AcDbSymbolTableRecord
100
AcDbLayerTableRecord
  2
YELLOW
 70
     4
 62
     2
  6
Continuous
370
    -3
390
F
347
21
348
0
  0
LAYER
  5
75
102
{ACAD_XDICTIONARY
360
1AD3
102
}
330
2
100
AcDbSymbolTableRecord
100
AcDbLayerTableRecord
  2
GREEN
 70
     4
 62
    92
  6
Continuous
370
    -3
390
F
347
21
348
0
  0
LAYER
  5
76
102
{ACAD_XDICTIONARY
360
1AD5
102
}
330
2
100
AcDbSymbolTableRecord
100
AcDbLayerTableRecord
  2
BLUE
 70
     4
 62
     5
  6
Continuous
370
    -3
390
F
347
21
348
0
  0
LAYER
  5
77
102
{ACAD_XDICTIONARY
360
1AD7
102
}
330
2
100
AcDbSymbolTableRecord
100
AcDbLayerTableRecord
  2
WHITE
 70
     4
 62
     7
  6
Continuous
370
    -3
390
F
347
21
348
0
  0
LAYER
  5
78
102
{ACAD_XDICTIONARY
360
1AD9
102
}
330
2
100
AcDbSymbolTableRecord
100
AcDbLayerTableRecord
  2
FIX
 70
     4
 62
    -7
  6
Continuous
370
    -3
390
F
347
21
348
0
  0
LAYER
  5
9B
102
{ACAD_XDICTIONARY
360
1ADB
102
}
330
2
100
AcDbSymbolTableRecord
100
AcDbLayerTableRecord
  2
GEO_
 70
     0
 62
     7
  6
Continuous
370
    -3
390
F
347
21
348
0
  0
ENDTAB
  0
TABLE
  2
STYLE
  5
3
330
0
100
AcDbSymbolTable
 70
     2
  0
STYLE
  5
55
330
3
100
AcDbSymbolTableRecord
100
AcDbTextStyleTableRecord
  2
STANDARD
 70
     0
 40
0.006
 41
1.0
 50
0.0
 71
     0
 42
0.006
  3
arial.ttf
  4

1001
ACAD
1000
Arial
1071
       34
  0
STYLE
  5
59
330
3
100
AcDbSymbolTableRecord
100
AcDbTextStyleTableRecord
  2
Annotative
 70
     0
 40
0.0
 41
1.0
 50
0.0
 71
     0
 42
0.2
  3
txt
  4

1001
AcadAnnotative
1000
AnnotativeData
1002
{
1070
     1
1070
     1
1002
}
  0
ENDTAB
  0
TABLE
  2
VIEW
  5
6
330
0
100
AcDbSymbolTable
 70
     0
  0
ENDTAB
  0
TABLE
  2
UCS
  5
7
330
0
100
AcDbSymbolTable
 70
     0
  0
ENDTAB
  0
TABLE
  2
APPID
  5
9
330
0
100
AcDbSymbolTable
 70
     3
  0
APPID
  5
56
330
9
100
AcDbSymbolTableRecord
100
AcDbRegAppTableRecord
  2
ACAD
 70
     0
  0
APPID
  5
5D
330
9
100
AcDbSymbolTableRecord
100
AcDbRegAppTableRecord
  2
AcadAnnotative
 70
     0
  0
APPID
  5
1AC4
330
9
100
AcDbSymbolTableRecord
100
AcDbRegAppTableRecord
  2
ACAD_NAV_VCDISPLAY
 70
     0
  0
ENDTAB
  0
TABLE
  2
DIMSTYLE
  5
A
330
0
100
AcDbSymbolTable
 70
     2
100
AcDbDimStyleTable
 71
     0
  0
DIMSTYLE
105
57
330
A
100
AcDbSymbolTableRecord
100
AcDbDimStyleTableRecord
  2
Standard
 70
     0
340
55
  0
DIMSTYLE
105
58
330
A
100
AcDbSymbolTableRecord
100
AcDbDimStyleTableRecord
  2
Annotative
 70
     0
340
55
1001
AcadAnnotative
1000
AnnotativeData
1002
{
1070
     1
1070
     1
1002
}
  0
ENDTAB
  0
TABLE
  2
BLOCK_RECORD
  5
1
330
0
100
AcDbSymbolTable
 70
     4
  0
BLOCK_RECORD
  5
6F
330
1
100
AcDbSymbolTableRecord
100
AcDbBlockTableRecord
  2
*Model_Space
340
72
 70
     0
280
     1
281
     0
  0
BLOCK_RECORD
  5
6B
330
1
100
AcDbSymbolTableRecord
100
AcDbBlockTableRecord
  2
*Paper_Space
340
6E
 70
     0
280
     1
281
     0
  0
BLOCK_RECORD
  5
7C
330
1
100
AcDbSymbolTableRecord
100
AcDbBlockTableRecord
  2
AIRPORT
340
0
 70
     0
280
     1
281
     0
  0
BLOCK_RECORD
  5
80
330
1
100
AcDbSymbolTableRecord
100
AcDbBlockTableRecord
  2
FIX
340
0
 70
     0
280
     1
281
     0
  0
BLOCK_RECORD
  5
88
330
1
100
AcDbSymbolTableRecord
100
AcDbBlockTableRecord
  2
NDB
340
0
 70
     0
280
     1
281
     0
  0
BLOCK_RECORD
  5
8F
330
1
100
AcDbSymbolTableRecord
100
AcDbBlockTableRecord
  2
VOR
340
0
 70
     0
280
     1
281
     0
  0
ENDTAB
  0
ENDSEC
  0
SECTION
  2
BLOCKS
  0
BLOCK
  5
70
330
6F
100
AcDbEntity
  8
0
100
AcDbBlockBegin
  2
*Model_Space
 70
     0
 10
0.0
 20
0.0
 30
0.0
  3
*Model_Space
  1

  0
ENDBLK
  5
71
330
6F
100
AcDbEntity
  8
0
100
AcDbBlockEnd
  0
BLOCK
  5
6C
330
6B
100
AcDbEntity
 67
     1
  8
0
100
AcDbBlockBegin
  2
*Paper_Space
 70
     0
 10
0.0
 20
0.0
 30
0.0
  3
*Paper_Space
  1

  0
ENDBLK
  5
6D
330
6B
100
AcDbEntity
 67
     1
  8
0
100
AcDbBlockEnd
  0
BLOCK
  5
7D
330
7C
100
AcDbEntity
  8
0
100
AcDbBlockBegin
  2
AIRPORT
 70
     0
 10
0.0
 20
0.0
 30
0.0
  3
AIRPORT
  1

  0
CIRCLE
  5
7E
330
7C
100
AcDbEntity
  8
0
100
AcDbCircle
 10
0.0
 20
0.0
 30
0.0
 40
0.005
  0
ENDBLK
  5
7F
330
7C
100
AcDbEntity
  8
0
100
AcDbBlockEnd
  0
BLOCK
  5
81
330
80
100
AcDbEntity
  8
0
100
AcDbBlockBegin
  2
FIX
 70
     0
 10
0.0
 20
0.0
 30
0.0
  3
FIX
  1

  0
LWPOLYLINE
  5
82
330
80
100
AcDbEntity
  8
0
100
AcDbPolyline
 90
        3
 70
     1
 43
0.0
 10
-0.0050000000000061
 20
-0.0028867513459261
 10
0.0049999999999848
 20
-0.0028867513459474
 10
-0.0000000000000178
 20
0.0057735026919019
  0
ENDBLK
  5
87
330
80
100
AcDbEntity
  8
0
100
AcDbBlockEnd
  0
BLOCK
  5
89
330
88
100
AcDbEntity
  8
0
100
AcDbBlockBegin
  2
NDB
 70
     0
 10
0.0
 20
0.0
 30
0.0
  3
NDB
  1

  0
CIRCLE
  5
8A
330
88
100
AcDbEntity
  8
0
100
AcDbCircle
 10
0.0
 20
0.0
 30
0.0
 40
0.00065625
  0
CIRCLE
  5
8B
330
88
100
AcDbEntity
  8
0
100
AcDbCircle
 10
0.0
 20
0.0
 30
0.0
 40
0.002625
  0
CIRCLE
  5
8C
330
88
100
AcDbEntity
  8
0
100
AcDbCircle
 10
0.0
 20
0.0
 30
0.0
 40
0.00525
  0
CIRCLE
  5
8D
330
88
100
AcDbEntity
  8
0
100
AcDbCircle
 10
0.0
 20
0.0
 30
0.0
 40
0.007875
  0
ENDBLK
  5
8E
330
88
100
AcDbEntity
  8
0
100
AcDbBlockEnd
  0
BLOCK
  5
90
330
8F
100
AcDbEntity
  8
0
100
AcDbBlockBegin
  2
VOR
 70
     0
 10
0.0
 20
0.0
 30
0.0
  3
VOR
  1

  0
LWPOLYLINE
  5
91
330
8F
100
AcDbEntity
  8
0
100
AcDbPolyline
 90
        6
 70
     1
 43
0.0
 10
-0.0044997172835375
 20
0.0077937389547813
 10
-0.0089994345670776
 20
0.0
 10
-0.0044997172835393
 20
-0.0077937389547884
 10
0.0044997172835375
 20
-0.0077937389547884
 10
0.0089994345670776
 20
0.0
 10
0.0044997172835393
 20
0.0077937389547813
  0
CIRCLE
  5
99
330
8F
100
AcDbEntity
  8
0
100
AcDbCircle
 10
0.0
 20
0.0
 30
0.0
 40
0.0015111425556361
  0
ENDBLK
  5
9A
330
8F
100
AcDbEntity
  8
0
100
AcDbBlockEnd
  0
ENDSEC
  0
SECTION
  2
ENTITIES
  0
LINE
  5
58F
330
6F
100
AcDbEntity
  8
GEO_
 62
     7
420
 16777215
100
AcDbLine
 10
-80.53333333333332
 20
45.22560995445661
 30
0.0
 11
-80.44750000000002
 21
44.97916454177103
 31
0.0
  0
LINE
  5
5A1
330
6F
100
AcDbEntity
  8
GEO_
 62
     7
420
 16777215
100
AcDbLine
 10
-80.53333333333332
 20
45.22560995445661
 30
0.0
 11
-80.44750000000002
 21
44.97916454177103
 31
0.0
  0
LINE
  5
5B4
330
6F
100
AcDbEntity
  8
GEO_
 62
     7
420
 16777215
100
AcDbLine
 10
-80.53333333333332
 20
45.22560995445661
 30
0.0
 11
-80.53333333333332
 21
45.22560995445661
 31
0.0
  0
LINE
  5
5B6
330
6F
100
AcDbEntity
  8
GEO_
 62
     7
420
 16777215
100
AcDbLine
 10
-80.53333333333332
 20
45.22560995445661
 30
0.0
 11
-80.44750000000002
 21
44.97916454177103
 31
0.0
  0
LINE
  5
5B7
330
6F
100
AcDbEntity
  8
GEO_
 62
     7
420
 16777215
100
AcDbLine
 10
-80.44750000000002
 20
44.97916454177103
 30
0.0
 11
-80.44750000000002
 21
44.97916454177103
 31
0.0
  0
LINE
  5
5B8
330
6F
100
AcDbEntity
  8
GEO_
 62
     7
420
 16777215
100
AcDbLine
 10
-80.44750000000002
 20
44.97916454177103
 30
0.0
 11
-80.53333333333332
 21
45.22560995445661
 31
0.0
  0
LINE
  5
5F0
330
6F
100
AcDbEntity
  8
GEO_
 62
     7
420
 16777215
100
AcDbLine
 10
-80.53333333333332
 20
45.22560995445661
 30
0.0
 11
-80.44750000000002
 21
44.97916454177103
 31
0.0
  0
LINE
  5
5F1
330
6F
100
AcDbEntity
  8
GEO_
 62
     7
420
 16777215
100
AcDbLine
 10
-80.44750000000002
 20
44.97916454177103
 30
0.0
 11
-80.35833333333334
 21
44.60621492325134
 31
0.0
  0
LINE
  5
5F2
330
6F
100
AcDbEntity
  8
GEO_
 62
     7
420
 16777215
100
AcDbLine
 10
-80.35833333333334
 20
44.60621492325134
 30
0.0
 11
-80.10833333333334
 21
44.6080464285626
 31
0.0
  0
LINE
  5
603
330
6F
100
AcDbEntity
  8
GEO_
 62
     7
420
 16777215
100
AcDbLine
 10
-80.53333333333332
 20
45.22560995445661
 30
0.0
 11
-80.44750000000002
 21
44.97916454177103
 31
0.0
  0
LINE
  5
604
330
6F
100
AcDbEntity
  8
GEO_
 62
     7
420
 16777215
100
AcDbLine
 10
-80.44750000000002
 20
44.97916454177103
 30
0.0
 11
-80.35833333333334
 21
44.60621492325134
 31
0.0
  0
LINE
  5
605
330
6F
100
AcDbEntity
  8
GEO_
 62
     7
420
 16777215
100
AcDbLine
 10
-80.35833333333334
 20
44.60621492325134
 30
0.0
 11
-80.10833333333334
 21
44.6080464285626
 31
0.0
  0
LINE
  5
61F
330
6F
100
AcDbEntity
  8
GEO_
 62
     7
420
 16777215
100
AcDbLine
 10
-80.53333333333332
 20
45.22560995445661
 30
0.0
 11
-80.53333333333332
 21
45.22560995445661
 31
0.0
  0
LINE
  5
621
330
6F
100
AcDbEntity
  8
GEO_
 62
     7
420
 16777215
100
AcDbLine
 10
-80.53333333333332
 20
45.22560995445661
 30
0.0
 11
-80.44750000000002
 21
44.97916454177103
 31
0.0
  0
LINE
  5
622
330
6F
100
AcDbEntity
  8
GEO_
 62
     7
420
 16777215
100
AcDbLine
 10
-80.44750000000002
 20
44.97916454177103
 30
0.0
 11
-80.44750000000002
 21
44.97916454177103
 31
0.0
  0
LINE
  5
623
330
6F
100
AcDbEntity
  8
GEO_
 62
     7
420
 16777215
100
AcDbLine
 10
-80.44750000000002
 20
44.97916454177103
 30
0.0
 11
-80.53333333333332
 21
45.22560995445661
 31
0.0
  0
LINE
  5
624
330
6F
100
AcDbEntity
  8
GEO_
 62
     7
420
 16777215
100
AcDbLine
 10
-80.44750000000002
 20
44.97916454177103
 30
0.0
 11
-80.35833333333334
 21
44.60621492325134
 31
0.0
  0
LINE
  5
625
330
6F
100
AcDbEntity
  8
GEO_
 62
     7
420
 16777215
100
AcDbLine
 10
-80.35833333333334
 20
44.60621492325134
 30
0.0
 11
-80.35833333333334
 21
44.60621492325134
 31
0.0
  0
LINE
  5
626
330
6F
100
AcDbEntity
  8
GEO_
 62
     7
420
 16777215
100
AcDbLine
 10
-80.35833333333334
 20
44.60621492325134
 30
0.0
 11
-80.44750000000002
 21
44.97916454177103
 31
0.0
  0
LINE
  5
627
330
6F
100
AcDbEntity
  8
GEO_
 62
     7
420
 16777215
100
AcDbLine
 10
-80.35833333333334
 20
44.60621492325134
 30
0.0
 11
-80.10833333333334
 21
44.6080464285626
 31
0.0
  0
LINE
  5
628
330
6F
100
AcDbEntity
  8
GEO_
 62
     7
420
 16777215
100
AcDbLine
 10
-80.10833333333334
 20
44.6080464285626
 30
0.0
 11
-80.10833333333334
 21
44.6080464285626
 31
0.0
  0
LINE
  5
629
330
6F
100
AcDbEntity
  8
GEO_
 62
     7
420
 16777215
100
AcDbLine
 10
-80.10833333333334
 20
44.6080464285626
 30
0.0
 11
-80.35833333333334
 21
44.60621492325134
 31
0.0
  0
LINE
  5
E89
330
6F
100
AcDbEntity
  8
GEO_
 62
     7
420
 16777215
100
AcDbLine
 10
-79.52027777777778
 20
45.7128150475627
 30
0.0
 11
-79.16666666666667
 21
45.65273756888168
 31
0.0
  0
LINE
  5
E8A
330
6F
100
AcDbEntity
  8
GEO_
 62
     7
420
 16777215
100
AcDbLine
 10
-79.16666666666667
 20
45.65273756888168
 30
0.0
 11
-78.89555555555556
 21
45.60974474565064
 31
0.0
  0
LINE
  5
E8B
330
6F
100
AcDbEntity
  8
GEO_
 62
     7
420
 16777215
100
AcDbLine
 10
-78.89555555555556
 20
45.60974474565064
 30
0.0
 11
-78.74583333333333
 21
45.58418155261779
 31
0.0
  0
LINE
  5
E90
330
6F
100
AcDbEntity
  8
GEO_
 62
     7
420
 16777215
100
AcDbLine
 10
-78.5
 20
44.81708886771285
 30
0.0
 11
-78.86666666666666
 21
44.79506092536374
 31
0.0
  0
LINE
  5
E91
330
6F
100
AcDbEntity
  8
GEO_
 62
     7
420
 16777215
100
AcDbLine
 10
-78.86666666666666
 20
44.79506092536374
 30
0.0
 11
-79.17500000000003
 21
44.76753378066915
 31
0.0
  0
LINE
  5
E92
330
6F
100
AcDbEntity
  8
GEO_
 62
     7
420
 16777215
100
AcDbLine
 10
-79.17500000000003
 20
44.76753378066915
 30
0.0
 11
-79.69166666666669
 21
44.72350831572246
 31
0.0
  0
LINE
  5
E98
330
6F
100
AcDbEntity
  8
GEO_
 62
     7
420
 16777215
100
AcDbLine
 10
-79.52027777777778
 20
45.7128150475627
 30
0.0
 11
-79.16666666666667
 21
45.65273756888168
 31
0.0
  0
LINE
  5
E99
330
6F
100
AcDbEntity
  8
GEO_
 62
     7
420
 16777215
100
AcDbLine
 10
-79.16666666666667
 20
45.65273756888168
 30
0.0
 11
-78.89555555555556
 21
45.60974474565064
 31
0.0
  0
LINE
  5
E9A
330
6F
100
AcDbEntity
  8
GEO_
 62
     7
420
 16777215
100
AcDbLine
 10
-78.89555555555556
 20
45.60974474565064
 30
0.0
 11
-78.74583333333333
 21
45.58418155261779
 31
0.0
  0
LINE
  5
E9F
330
6F
100
AcDbEntity
  8
GEO_
 62
     7
420
 16777215
100
AcDbLine
 10
-78.5
 20
44.81708886771285
 30
0.0
 11
-78.86666666666666
 21
44.79506092536374
 31
0.0
  0
LINE
  5
EA0
330
6F
100
AcDbEntity
  8
GEO_
 62
     7
420
 16777215
100
AcDbLine
 10
-78.86666666666666
 20
44.79506092536374
 30
0.0
 11
-79.17500000000003
 21
44.76753378066915
 31
0.0
  0
LINE
  5
EA1
330
6F
100
AcDbEntity
  8
GEO_
 62
     7
420
 16777215
100
AcDbLine
 10
-79.17500000000003
 20
44.76753378066915
 30
0.0
 11
-79.69166666666669
 21
44.72350831572246
 31
0.0
  0
LINE
  5
EAC
330
6F
100
AcDbEntity
  8
GEO_
 62
     7
420
 16777215
100
AcDbLine
 10
-79.52027777777778
 20
45.7128150475627
 30
0.0
 11
-79.52027777777778
 21
45.7128150475627
 31
0.0
  0
LINE
  5
EAE
330
6F
100
AcDbEntity
  8
GEO_
 62
     7
420
 16777215
100
AcDbLine
 10
-79.52027777777778
 20
45.7128150475627
 30
0.0
 11
-79.16666666666667
 21
45.65273756888168
 31
0.0
  0
LINE
  5
EAF
330
6F
100
AcDbEntity
  8
GEO_
 62
     7
420
 16777215
100
AcDbLine
 10
-79.16666666666667
 20
45.65273756888168
 30
0.0
 11
-79.16666666666667
 21
45.65273756888168
 31
0.0
  0
LINE
  5
EB0
330
6F
100
AcDbEntity
  8
GEO_
 62
     7
420
 16777215
100
AcDbLine
 10
-79.16666666666667
 20
45.65273756888168
 30
0.0
 11
-79.52027777777778
 21
45.7128150475627
 31
0.0
  0
LINE
  5
EB1
330
6F
100
AcDbEntity
  8
GEO_
 62
     7
420
 16777215
100
AcDbLine
 10
-79.16666666666667
 20
45.65273756888168
 30
0.0
 11
-78.89555555555556
 21
45.60974474565064
 31
0.0
  0
LINE
  5
EB2
330
6F
100
AcDbEntity
  8
GEO_
 62
     7
420
 16777215
100
AcDbLine
 10
-78.89555555555556
 20
45.60974474565064
 30
0.0
 11
-78.89555555555556
 21
45.60974474565064
 31
0.0
  0
LINE
  5
EB3
330
6F
100
AcDbEntity
  8
GEO_
 62
     7
420
 16777215
100
AcDbLine
 10
-78.89555555555556
 20
45.60974474565064
 30
0.0
 11
-79.16666666666667
 21
45.65273756888168
 31
0.0
  0
LINE
  5
EB4
330
6F
100
AcDbEntity
  8
GEO_
 62
     7
420
 16777215
100
AcDbLine
 10
-78.89555555555556
 20
45.60974474565064
 30
0.0
 11
-78.74583333333333
 21
45.58418155261779
 31
0.0
  0
LINE
  5
EB5
330
6F
100
AcDbEntity
  8
GEO_
 62
     7
420
 16777215
100
AcDbLine
 10
-78.74583333333333
 20
45.58418155261779
 30
0.0
 11
-78.74583333333333
 21
45.58418155261779
 31
0.0
  0
LINE
  5
EB6
330
6F
100
AcDbEntity
  8
GEO_
 62
     7
420
 16777215
100
AcDbLine
 10
-78.74583333333333
 20
45.58418155261779
 30
0.0
 11
-78.89555555555556
 21
45.60974474565064
 31
0.0
  0
LINE
  5
EC1
330
6F
100
AcDbEntity
  8
GEO_
 62
     7
420
 16777215
100
AcDbLine
 10
-78.5
 20
44.81708886771285
 30
0.0
 11
-78.5
 21
44.81708886771285
 31
0.0
  0
LINE
  5
EC3
330
6F
100
AcDbEntity
  8
GEO_
 62
     7
420
 16777215
100
AcDbLine
 10
-78.5
 20
44.81708886771285
 30
0.0
 11
-78.86666666666666
 21
44.79506092536374
 31
0.0
  0
LINE
  5
EC4
330
6F
100
AcDbEntity
  8
GEO_
 62
     7
420
 16777215
100
AcDbLine
 10
-78.86666666666666
 20
44.79506092536374
 30
0.0
 11
-78.86666666666666
 21
44.79506092536374
 31
0.0
  0
LINE
  5
EC5
330
6F
100
AcDbEntity
  8
GEO_
 62
     7
420
 16777215
100
AcDbLine
 10
-78.86666666666666
 20
44.79506092536374
 30
0.0
 11
-78.5
 21
44.81708886771285
 31
0.0
  0
LINE
  5
EC6
330
6F
100
AcDbEntity
  8
GEO_
 62
     7
420
 16777215
100
AcDbLine
 10
-78.86666666666666
 20
44.79506092536374
 30
0.0
 11
-79.17500000000003
 21
44.76753378066915
 31
0.0
  0
LINE
  5
EC7
330
6F
100
AcDbEntity
  8
GEO_
 62
     7
420
 16777215
100
AcDbLine
 10
-79.17500000000003
 20
44.76753378066915
 30
0.0
 11
-79.17500000000003
 21
44.76753378066915
 31
0.0
  0
LINE
  5
EC8
330
6F
100
AcDbEntity
  8
GEO_
 62
     7
420
 16777215
100
AcDbLine
 10
-79.17500000000003
 20
44.76753378066915
 30
0.0
 11
-78.86666666666666
 21
44.79506092536374
 31
0.0
  0
LINE
  5
EC9
330
6F
100
AcDbEntity
  8
GEO_
 62
     7
420
 16777215
100
AcDbLine
 10
-79.17500000000003
 20
44.76753378066915
 30
0.0
 11
-79.69166666666669
 21
44.72350831572246
 31
0.0
  0
LINE
  5
ECA
330
6F
100
AcDbEntity
  8
GEO_
 62
     7
420
 16777215
100
AcDbLine
 10
-79.69166666666669
 20
44.72350831572246
 30
0.0
 11
-79.69166666666669
 21
44.72350831572246
 31
0.0
  0
LINE
  5
ECB
330
6F
100
AcDbEntity
  8
GEO_
 62
     7
420
 16777215
100
AcDbLine
 10
-79.69166666666669
 20
44.72350831572246
 30
0.0
 11
-79.17500000000003
 21
44.76753378066915
 31
0.0
  0
LINE
  5
ED5
330
6F
100
AcDbEntity
  8
GEO_
 62
     7
420
 16777215
100
AcDbLine
 10
-79.98000000000001
 20
45.65829854562909
 30
0.0
 11
-79.92222222222223
 21
45.77330554607272
 31
0.0
  0
LINE
  5
ED6
330
6F
100
AcDbEntity
  8
GEO_
 62
     7
420
 16777215
100
AcDbLine
 10
-79.92222222222223
 20
45.77330554607272
 30
0.0
 11
-79.77083333333331
 21
45.74361166594754
 31
0.0
  0
LINE
  5
ED7
330
6F
100
AcDbEntity
  8
GEO_
 62
     7
420
 16777215
100
AcDbLine
 10
-79.77083333333331
 20
45.74361166594754
 30
0.0
 11
-79.52027777777778
 21
45.7128150475627
 31
0.0
  0
LINE
  5
ED8
330
6F
100
AcDbEntity
  8
GEO_
 62
     7
420
 16777215
100
AcDbLine
 10
-79.52027777777778
 20
45.7128150475627
 30
0.0
 11
-79.16666666666667
 21
45.65273756888168
 31
0.0
  0
LINE
  5
ED9
330
6F
100
AcDbEntity
  8
GEO_
 62
     7
420
 16777215
100
AcDbLine
 10
-79.16666666666667
 20
45.65273756888168
 30
0.0
 11
-78.89555555555556
 21
45.60974474565064
 31
0.0
  0
LINE
  5
EDA
330
6F
100
AcDbEntity
  8
GEO_
 62
     7
420
 16777215
100
AcDbLine
 10
-78.89555555555556
 20
45.60974474565064
 30
0.0
 11
-78.74583333333333
 21
45.58418155261779
 31
0.0
  0
LINE
  5
EDB
330
6F
100
AcDbEntity
  8
GEO_
 62
     7
420
 16777215
100
AcDbLine
 10
-78.74583333333333
 20
45.58418155261779
 30
0.0
 11
-78.3888888888889
 21
45.53048637178898
 31
0.0
  0
LINE
  5
EDC
330
6F
100
AcDbEntity
  8
GEO_
 62
     7
420
 16777215
100
AcDbLine
 10
-78.3888888888889
 20
45.53048637178898
 30
0.0
 11
-77.80833333333333
 21
45.43613751247673
 31
0.0
  0
LINE
  5
EDD
330
6F
100
AcDbEntity
  8
GEO_
 62
     7
420
 16777215
100
AcDbLine
 10
-77.80833333333333
 20
45.43613751247673
 30
0.0
 11
-77.95
 21
45.18504040911417
 31
0.0
  0
LINE
  5
EDE
330
6F
100
AcDbEntity
  8
GEO_
 62
     7
420
 16777215
100
AcDbLine
 10
-77.95
 20
45.18504040911417
 30
0.0
 11
-78.12777777777776
 21
44.8391223498467
 31
0.0
  0
LINE
  5
EDF
330
6F
100
AcDbEntity
  8
GEO_
 62
     7
420
 16777215
100
AcDbLine
 10
-78.12777777777776
 20
44.8391223498467
 30
0.0
 11
-78.5
 21
44.81708886771285
 31
0.0
  0
LINE
  5
EE0
330
6F
100
AcDbEntity
  8
GEO_
 62
     7
420
 16777215
100
AcDbLine
 10
-78.5
 20
44.81708886771285
 30
0.0
 11
-78.86666666666666
 21
44.79506092536374
 31
0.0
  0
LINE
  5
EE1
330
6F
100
AcDbEntity
  8
GEO_
 62
     7
420
 16777215
100
AcDbLine
 10
-78.86666666666666
 20
44.79506092536374
 30
0.0
 11
-79.17500000000003
 21
44.76753378066915
 31
0.0
  0
LINE
  5
EE2
330
6F
100
AcDbEntity
  8
GEO_
 62
     7
420
 16777215
100
AcDbLine
 10
-79.17500000000003
 20
44.76753378066915
 30
0.0
 11
-79.69166666666669
 21
44.72350831572246
 31
0.0
  0
LINE
  5
EEB
330
6F
100
AcDbEntity
  8
GEO_
 62
     7
420
 16777215
100
AcDbLine
 10
-80.44750000000002
 20
44.97916454177103
 30
0.0
 11
-80.53333333333332
 21
45.22560995445661
 31
0.0
  0
LINE
  5
EEC
330
6F
100
AcDbEntity
  8
GEO_
 62
     7
420
 16777215
100
AcDbLine
 10
-80.53333333333332
 20
45.22560995445661
 30
0.0
 11
-80.09999999999998
 21
45.29203728926979
 31
0.0
  0
LINE
  5
EED
330
6F
100
AcDbEntity
  8
GEO_
 62
     7
420
 16777215
100
AcDbLine
 10
-79.98000000000001
 20
45.65829854562909
 30
0.0
 11
-79.92222222222223
 21
45.77330554607272
 31
0.0
  0
LINE
  5
EEE
330
6F
100
AcDbEntity
  8
GEO_
 62
     7
420
 16777215
100
AcDbLine
 10
-79.92222222222223
 20
45.77330554607272
 30
0.0
 11
-79.77083333333331
 21
45.74361166594754
 31
0.0
  0
LINE
  5
EEF
330
6F
100
AcDbEntity
  8
GEO_
 62
     7
420
 16777215
100
AcDbLine
 10
-79.77083333333331
 20
45.74361166594754
 30
0.0
 11
-79.52027777777778
 21
45.7128150475627
 31
0.0
  0
LINE
  5
EF0
330
6F
100
AcDbEntity
  8
GEO_
 62
     7
420
 16777215
100
AcDbLine
 10
-79.52027777777778
 20
45.7128150475627
 30
0.0
 11
-79.16666666666667
 21
45.65273756888168
 31
0.0
  0
LINE
  5
EF1
330
6F
100
AcDbEntity
  8
GEO_
 62
     7
420
 16777215
100
AcDbLine
 10
-79.16666666666667
 20
45.65273756888168
 30
0.0
 11
-78.89555555555556
 21
45.60974474565064
 31
0.0
  0
LINE
  5
EF2
330
6F
100
AcDbEntity
  8
GEO_
 62
     7
420
 16777215
100
AcDbLine
 10
-78.89555555555556
 20
45.60974474565064
 30
0.0
 11
-78.74583333333333
 21
45.58418155261779
 31
0.0
  0
LINE
  5
EF3
330
6F
100
AcDbEntity
  8
GEO_
 62
     7
420
 16777215
100
AcDbLine
 10
-78.74583333333333
 20
45.58418155261779
 30
0.0
 11
-78.3888888888889
 21
45.53048637178898
 31
0.0
  0
LINE
  5
EF4
330
6F
100
AcDbEntity
  8
GEO_
 62
     7
420
 16777215
100
AcDbLine
 10
-78.3888888888889
 20
45.53048637178898
 30
0.0
 11
-77.80833333333333
 21
45.43613751247673
 31
0.0
  0
LINE
  5
EF5
330
6F
100
AcDbEntity
  8
GEO_
 62
     7
420
 16777215
100
AcDbLine
 10
-77.80833333333333
 20
45.43613751247673
 30
0.0
 11
-77.95
 21
45.18504040911417
 31
0.0
  0
LINE
  5
EF6
330
6F
100
AcDbEntity
  8
GEO_
 62
     7
420
 16777215
100
AcDbLine
 10
-77.95
 20
45.18504040911417
 30
0.0
 11
-78.12777777777776
 21
44.8391223498467
 31
0.0
  0
LINE
  5
EF7
330
6F
100
AcDbEntity
  8
GEO_
 62
     7
420
 16777215
100
AcDbLine
 10
-78.12777777777776
 20
44.8391223498467
 30
0.0
 11
-78.5
 21
44.81708886771285
 31
0.0
  0
LINE
  5
EF8
330
6F
100
AcDbEntity
  8
GEO_
 62
     7
420
 16777215
100
AcDbLine
 10
-78.5
 20
44.81708886771285
 30
0.0
 11
-78.86666666666666
 21
44.79506092536374
 31
0.0
  0
LINE
  5
EF9
330
6F
100
AcDbEntity
  8
GEO_
 62
     7
420
 16777215
100
AcDbLine
 10
-78.86666666666666
 20
44.79506092536374
 30
0.0
 11
-79.17500000000003
 21
44.76753378066915
 31
0.0
  0
LINE
  5
EFA
330
6F
100
AcDbEntity
  8
GEO_
 62
     7
420
 16777215
100
AcDbLine
 10
-79.17500000000003
 20
44.76753378066915
 30
0.0
 11
-79.69166666666669
 21
44.72350831572246
 31
0.0
  0
LINE
  5
F03
330
6F
100
AcDbEntity
  8
GEO_
 62
     7
420
 16777215
100
AcDbLine
 10
-80.44750000000002
 20
44.97916454177103
 30
0.0
 11
-80.53333333333332
 21
45.22560995445661
 31
0.0
  0
LINE
  5
F04
330
6F
100
AcDbEntity
  8
GEO_
 62
     7
420
 16777215
100
AcDbLine
 10
-80.53333333333332
 20
45.22560995445661
 30
0.0
 11
-80.09999999999998
 21
45.29203728926979
 31
0.0
  0
LINE
  5
F05
330
6F
100
AcDbEntity
  8
GEO_
 62
     7
420
 16777215
100
AcDbLine
 10
-80.09999999999998
 20
45.29203728926979
 30
0.0
 11
-79.98000000000001
 21
45.65829854562909
 31
0.0
  0
LINE
  5
F06
330
6F
100
AcDbEntity
  8
GEO_
 62
     7
420
 16777215
100
AcDbLine
 10
-79.98000000000001
 20
45.65829854562909
 30
0.0
 11
-79.98000000000001
 21
45.65829854562909
 31
0.0
  0
LINE
  5
F07
330
6F
100
AcDbEntity
  8
GEO_
 62
     7
420
 16777215
100
AcDbLine
 10
-79.98000000000001
 20
45.65829854562909
 30
0.0
 11
-80.09999999999998
 21
45.29203728926979
 31
0.0
  0
LINE
  5
F08
330
6F
100
AcDbEntity
  8
GEO_
 62
     7
420
 16777215
100
AcDbLine
 10
-79.98000000000001
 20
45.65829854562909
 30
0.0
 11
-79.92222222222223
 21
45.77330554607272
 31
0.0
  0
LINE
  5
F09
330
6F
100
AcDbEntity
  8
GEO_
 62
     7
420
 16777215
100
AcDbLine
 10
-79.92222222222223
 20
45.77330554607272
 30
0.0
 11
-79.92222222222223
 21
45.77330554607272
 31
0.0
  0
LINE
  5
F0A
330
6F
100
AcDbEntity
  8
GEO_
 62
     7
420
 16777215
100
AcDbLine
 10
-79.92222222222223
 20
45.77330554607272
 30
0.0
 11
-79.98000000000001
 21
45.65829854562909
 31
0.0
  0
LINE
  5
F0B
330
6F
100
AcDbEntity
  8
GEO_
 62
     7
420
 16777215
100
AcDbLine
 10
-79.92222222222223
 20
45.77330554607272
 30
0.0
 11
-79.77083333333331
 21
45.74361166594754
 31
0.0
  0
LINE
  5
F0C
330
6F
100
AcDbEntity
  8
GEO_
 62
     7
420
 16777215
100
AcDbLine
 10
-79.77083333333331
 20
45.74361166594754
 30
0.0
 11
-79.77083333333331
 21
45.74361166594754
 31
0.0
  0
LINE
  5
F0D
330
6F
100
AcDbEntity
  8
GEO_
 62
     7
420
 16777215
100
AcDbLine
 10
-79.77083333333331
 20
45.74361166594754
 30
0.0
 11
-79.92222222222223
 21
45.77330554607272
 31
0.0
  0
LINE
  5
F0E
330
6F
100
AcDbEntity
  8
GEO_
 62
     7
420
 16777215
100
AcDbLine
 10
-79.77083333333331
 20
45.74361166594754
 30
0.0
 11
-79.52027777777778
 21
45.7128150475627
 31
0.0
  0
LINE
  5
F0F
330
6F
100
AcDbEntity
  8
GEO_
 62
     7
420
 16777215
100
AcDbLine
 10
-79.52027777777778
 20
45.7128150475627
 30
0.0
 11
-79.52027777777778
 21
45.7128150475627
 31
0.0
  0
LINE
  5
F10
330
6F
100
AcDbEntity
  8
GEO_
 62
     7
420
 16777215
100
AcDbLine
 10
-79.52027777777778
 20
45.7128150475627
 30
0.0
 11
-79.77083333333331
 21
45.74361166594754
 31
0.0
  0
LINE
  5
F11
330
6F
100
AcDbEntity
  8
GEO_
 62
     7
420
 16777215
100
AcDbLine
 10
-79.52027777777778
 20
45.7128150475627
 30
0.0
 11
-79.16666666666667
 21
45.65273756888168
 31
0.0
  0
LINE
  5
F12
330
6F
100
AcDbEntity
  8
GEO_
 62
     7
420
 16777215
100
AcDbLine
 10
-79.16666666666667
 20
45.65273756888168
 30
0.0
 11
-79.16666666666667
 21
45.65273756888168
 31
0.0
  0
LINE
  5
F13
330
6F
100
AcDbEntity
  8
GEO_
 62
     7
420
 16777215
100
AcDbLine
 10
-79.16666666666667
 20
45.65273756888168
 30
0.0
 11
-79.52027777777778
 21
45.7128150475627
 31
0.0
  0
LINE
  5
F14
330
6F
100
AcDbEntity
  8
GEO_
 62
     7
420
 16777215
100
AcDbLine
 10
-79.16666666666667
 20
45.65273756888168
 30
0.0
 11
-78.89555555555556
 21
45.60974474565064
 31
0.0
  0
LINE
  5
F15
330
6F
100
AcDbEntity
  8
GEO_
 62
     7
420
 16777215
100
AcDbLine
 10
-78.89555555555556
 20
45.60974474565064
 30
0.0
 11
-78.89555555555556
 21
45.60974474565064
 31
0.0
  0
LINE
  5
F16
330
6F
100
AcDbEntity
  8
GEO_
 62
     7
420
 16777215
100
AcDbLine
 10
-78.89555555555556
 20
45.60974474565064
 30
0.0
 11
-79.16666666666667
 21
45.65273756888168
 31
0.0
  0
LINE
  5
F17
330
6F
100
AcDbEntity
  8
GEO_
 62
     7
420
 16777215
100
AcDbLine
 10
-78.89555555555556
 20
45.60974474565064
 30
0.0
 11
-78.74583333333333
 21
45.58418155261779
 31
0.0
  0
LINE
  5
F18
330
6F
100
AcDbEntity
  8
GEO_
 62
     7
420
 16777215
100
AcDbLine
 10
-78.74583333333333
 20
45.58418155261779
 30
0.0
 11
-78.74583333333333
 21
45.58418155261779
 31
0.0
  0
LINE
  5
F19
330
6F
100
AcDbEntity
  8
GEO_
 62
     7
420
 16777215
100
AcDbLine
 10
-78.74583333333333
 20
45.58418155261779
 30
0.0
 11
-78.89555555555556
 21
45.60974474565064
 31
0.0
  0
LINE
  5
F1A
330
6F
100
AcDbEntity
  8
GEO_
 62
     7
420
 16777215
100
AcDbLine
 10
-78.74583333333333
 20
45.58418155261779
 30
0.0
 11
-78.3888888888889
 21
45.53048637178898
 31
0.0
  0
LINE
  5
F1B
330
6F
100
AcDbEntity
  8
GEO_
 62
     7
420
 16777215
100
AcDbLine
 10
-78.3888888888889
 20
45.53048637178898
 30
0.0
 11
-78.3888888888889
 21
45.53048637178898
 31
0.0
  0
LINE
  5
F1C
330
6F
100
AcDbEntity
  8
GEO_
 62
     7
420
 16777215
100
AcDbLine
 10
-78.3888888888889
 20
45.53048637178898
 30
0.0
 11
-78.74583333333333
 21
45.58418155261779
 31
0.0
  0
LINE
  5
F1D
330
6F
100
AcDbEntity
  8
GEO_
 62
     7
420
 16777215
100
AcDbLine
 10
-78.3888888888889
 20
45.53048637178898
 30
0.0
 11
-77.80833333333333
 21
45.43613751247673
 31
0.0
  0
LINE
  5
F1E
330
6F
100
AcDbEntity
  8
GEO_
 62
     7
420
 16777215
100
AcDbLine
 10
-77.80833333333333
 20
45.43613751247673
 30
0.0
 11
-77.80833333333333
 21
45.43613751247673
 31
0.0
  0
LINE
  5
F1F
330
6F
100
AcDbEntity
  8
GEO_
 62
     7
420
 16777215
100
AcDbLine
 10
-77.80833333333333
 20
45.43613751247673
 30
0.0
 11
-78.3888888888889
 21
45.53048637178898
 31
0.0
  0
LINE
  5
F20
330
6F
100
AcDbEntity
  8
GEO_
 62
     7
420
 16777215
100
AcDbLine
 10
-77.80833333333333
 20
45.43613751247673
 30
0.0
 11
-77.95
 21
45.18504040911417
 31
0.0
  0
LINE
  5
F21
330
6F
100
AcDbEntity
  8
GEO_
 62
     7
420
 16777215
100
AcDbLine
 10
-77.95
 20
45.18504040911417
 30
0.0
 11
-77.95
 21
45.18504040911417
 31
0.0
  0
LINE
  5
F22
330
6F
100
AcDbEntity
  8
GEO_
 62
     7
420
 16777215
100
AcDbLine
 10
-77.95
 20
45.18504040911417
 30
0.0
 11
-77.80833333333333
 21
45.43613751247673
 31
0.0
  0
LINE
  5
F23
330
6F
100
AcDbEntity
  8
GEO_
 62
     7
420
 16777215
100
AcDbLine
 10
-77.95
 20
45.18504040911417
 30
0.0
 11
-78.12777777777776
 21
44.8391223498467
 31
0.0
  0
LINE
  5
F24
330
6F
100
AcDbEntity
  8
GEO_
 62
     7
420
 16777215
100
AcDbLine
 10
-78.12777777777776
 20
44.8391223498467
 30
0.0
 11
-78.12777777777776
 21
44.8391223498467
 31
0.0
  0
LINE
  5
F25
330
6F
100
AcDbEntity
  8
GEO_
 62
     7
420
 16777215
100
AcDbLine
 10
-78.12777777777776
 20
44.8391223498467
 30
0.0
 11
-77.95
 21
45.18504040911417
 31
0.0
  0
LINE
  5
F26
330
6F
100
AcDbEntity
  8
GEO_
 62
     7
420
 16777215
100
AcDbLine
 10
-78.12777777777776
 20
44.8391223498467
 30
0.0
 11
-78.5
 21
44.81708886771285
 31
0.0
  0
LINE
  5
F27
330
6F
100
AcDbEntity
  8
GEO_
 62
     7
420
 16777215
100
AcDbLine
 10
-78.5
 20
44.81708886771285
 30
0.0
 11
-78.5
 21
44.81708886771285
 31
0.0
  0
LINE
  5
F28
330
6F
100
AcDbEntity
  8
GEO_
 62
     7
420
 16777215
100
AcDbLine
 10
-78.5
 20
44.81708886771285
 30
0.0
 11
-78.12777777777776
 21
44.8391223498467
 31
0.0
  0
LINE
  5
F29
330
6F
100
AcDbEntity
  8
GEO_
 62
     7
420
 16777215
100
AcDbLine
 10
-78.5
 20
44.81708886771285
 30
0.0
 11
-78.86666666666666
 21
44.79506092536374
 31
0.0
  0
LINE
  5
F2A
330
6F
100
AcDbEntity
  8
GEO_
 62
     7
420
 16777215
100
AcDbLine
 10
-78.86666666666666
 20
44.79506092536374
 30
0.0
 11
-78.86666666666666
 21
44.79506092536374
 31
0.0
  0
LINE
  5
F2B
330
6F
100
AcDbEntity
  8
GEO_
 62
     7
420
 16777215
100
AcDbLine
 10
-78.86666666666666
 20
44.79506092536374
 30
0.0
 11
-78.5
 21
44.81708886771285
 31
0.0
  0
LINE
  5
F2C
330
6F
100
AcDbEntity
  8
GEO_
 62
     7
420
 16777215
100
AcDbLine
 10
-78.86666666666666
 20
44.79506092536374
 30
0.0
 11
-79.17500000000003
 21
44.76753378066915
 31
0.0
  0
LINE
  5
F2D
330
6F
100
AcDbEntity
  8
GEO_
 62
     7
420
 16777215
100
AcDbLine
 10
-79.17500000000003
 20
44.76753378066915
 30
0.0
 11
-79.17500000000003
 21
44.76753378066915
 31
0.0
  0
LINE
  5
F2E
330
6F
100
AcDbEntity
  8
GEO_
 62
     7
420
 16777215
100
AcDbLine
 10
-79.17500000000003
 20
44.76753378066915
 30
0.0
 11
-78.86666666666666
 21
44.79506092536374
 31
0.0
  0
LINE
  5
F2F
330
6F
100
AcDbEntity
  8
GEO_
 62
     7
420
 16777215
100
AcDbLine
 10
-79.17500000000003
 20
44.76753378066915
 30
0.0
 11
-79.69166666666669
 21
44.72350831572246
 31
0.0
  0
LINE
  5
F30
330
6F
100
AcDbEntity
  8
GEO_
 62
     7
420
 16777215
100
AcDbLine
 10
-79.69166666666669
 20
44.72350831572246
 30
0.0
 11
-79.69166666666669
 21
44.72350831572246
 31
0.0
  0
LINE
  5
F31
330
6F
100
AcDbEntity
  8
GEO_
 62
     7
420
 16777215
100
AcDbLine
 10
-79.69166666666669
 20
44.72350831572246
 30
0.0
 11
-79.17500000000003
 21
44.76753378066915
 31
0.0
  0
LINE
  5
F48
330
6F
100
AcDbEntity
  8
GEO_
 62
     7
420
 16777215
100
AcDbLine
 10
-80.44750000000002
 20
44.97916454177103
 30
0.0
 11
-80.44750000000002
 21
44.97916454177103
 31
0.0
  0
LINE
  5
F4A
330
6F
100
AcDbEntity
  8
GEO_
 62
     7
420
 16777215
100
AcDbLine
 10
-80.44750000000002
 20
44.97916454177103
 30
0.0
 11
-80.53333333333332
 21
45.22560995445661
 31
0.0
  0
LINE
  5
F4B
330
6F
100
AcDbEntity
  8
GEO_
 62
     7
420
 16777215
100
AcDbLine
 10
-80.53333333333332
 20
45.22560995445661
 30
0.0
 11
-80.53333333333332
 21
45.22560995445661
 31
0.0
  0
LINE
  5
F4C
330
6F
100
AcDbEntity
  8
GEO_
 62
     7
420
 16777215
100
AcDbLine
 10
-80.53333333333332
 20
45.22560995445661
 30
0.0
 11
-80.44750000000002
 21
44.97916454177103
 31
0.0
  0
LINE
  5
F4D
330
6F
100
AcDbEntity
  8
GEO_
 62
     7
420
 16777215
100
AcDbLine
 10
-80.53333333333332
 20
45.22560995445661
 30
0.0
 11
-80.09999999999998
 21
45.29203728926979
 31
0.0
  0
LINE
  5
F4E
330
6F
100
AcDbEntity
  8
GEO_
 62
     7
420
 16777215
100
AcDbLine
 10
-80.09999999999998
 20
45.29203728926979
 30
0.0
 11
-80.09999999999998
 21
45.29203728926979
 31
0.0
  0
LINE
  5
F4F
330
6F
100
AcDbEntity
  8
GEO_
 62
     7
420
 16777215
100
AcDbLine
 10
-80.09999999999998
 20
45.29203728926979
 30
0.0
 11
-80.53333333333332
 21
45.22560995445661
 31
0.0
  0
LINE
  5
F50
330
6F
100
AcDbEntity
  8
GEO_
 62
     7
420
 16777215
100
AcDbLine
 10
-80.09999999999998
 20
45.29203728926979
 30
0.0
 11
-79.98000000000001
 21
45.65829854562909
 31
0.0
  0
LINE
  5
F51
330
6F
100
AcDbEntity
  8
GEO_
 62
     7
420
 16777215
100
AcDbLine
 10
-79.98000000000001
 20
45.65829854562909
 30
0.0
 11
-79.92222222222223
 21
45.77330554607272
 31
0.0
  0
LINE
  5
F52
330
6F
100
AcDbEntity
  8
GEO_
 62
     7
420
 16777215
100
AcDbLine
 10
-79.92222222222223
 20
45.77330554607272
 30
0.0
 11
-79.77083333333331
 21
45.74361166594754
 31
0.0
  0
LINE
  5
F53
330
6F
100
AcDbEntity
  8
GEO_
 62
     7
420
 16777215
100
AcDbLine
 10
-79.77083333333331
 20
45.74361166594754
 30
0.0
 11
-79.52027777777778
 21
45.7128150475627
 31
0.0
  0
LINE
  5
F54
330
6F
100
AcDbEntity
  8
GEO_
 62
     7
420
 16777215
100
AcDbLine
 10
-79.52027777777778
 20
45.7128150475627
 30
0.0
 11
-79.16666666666667
 21
45.65273756888168
 31
0.0
  0
LINE
  5
F55
330
6F
100
AcDbEntity
  8
GEO_
 62
     7
420
 16777215
100
AcDbLine
 10
-79.16666666666667
 20
45.65273756888168
 30
0.0
 11
-78.89555555555556
 21
45.60974474565064
 31
0.0
  0
LINE
  5
F56
330
6F
100
AcDbEntity
  8
GEO_
 62
     7
420
 16777215
100
AcDbLine
 10
-78.89555555555556
 20
45.60974474565064
 30
0.0
 11
-78.74583333333333
 21
45.58418155261779
 31
0.0
  0
LINE
  5
F57
330
6F
100
AcDbEntity
  8
GEO_
 62
     7
420
 16777215
100
AcDbLine
 10
-78.74583333333333
 20
45.58418155261779
 30
0.0
 11
-78.3888888888889
 21
45.53048637178898
 31
0.0
  0
LINE
  5
F58
330
6F
100
AcDbEntity
  8
GEO_
 62
     7
420
 16777215
100
AcDbLine
 10
-78.3888888888889
 20
45.53048637178898
 30
0.0
 11
-77.80833333333333
 21
45.43613751247673
 31
0.0
  0
LINE
  5
F59
330
6F
100
AcDbEntity
  8
GEO_
 62
     7
420
 16777215
100
AcDbLine
 10
-77.80833333333333
 20
45.43613751247673
 30
0.0
 11
-77.95
 21
45.18504040911417
 31
0.0
  0
LINE
  5
F5A
330
6F
100
AcDbEntity
  8
GEO_
 62
     7
420
 16777215
100
AcDbLine
 10
-77.95
 20
45.18504040911417
 30
0.0
 11
-78.12777777777776
 21
44.8391223498467
 31
0.0
  0
LINE
  5
F5B
330
6F
100
AcDbEntity
  8
GEO_
 62
     7
420
 16777215
100
AcDbLine
 10
-78.12777777777776
 20
44.8391223498467
 30
0.0
 11
-78.5
 21
44.81708886771285
 31
0.0
  0
LINE
  5
F5C
330
6F
100
AcDbEntity
  8
GEO_
 62
     7
420
 16777215
100
AcDbLine
 10
-78.5
 20
44.81708886771285
 30
0.0
 11
-78.86666666666666
 21
44.79506092536374
 31
0.0
  0
LINE
  5
F5D
330
6F
100
AcDbEntity
  8
GEO_
 62
     7
420
 16777215
100
AcDbLine
 10
-78.86666666666666
 20
44.79506092536374
 30
0.0
 11
-79.17500000000003
 21
44.76753378066915
 31
0.0
  0
LINE
  5
F5E
330
6F
100
AcDbEntity
  8
GEO_
 62
     7
420
 16777215
100
AcDbLine
 10
-79.17500000000003
 20
44.76753378066915
 30
0.0
 11
-79.69166666666669
 21
44.72350831572246
 31
0.0
  0
LINE
  5
F5F
330
6F
100
AcDbEntity
  8
GEO_
 62
     7
420
 16777215
100
AcDbLine
 10
-79.69166666666669
 20
44.72350831572246
 30
0.0
 11
-79.99111111111111
 21
44.63955429580821
 31
0.0
  0
LINE
  5
F60
330
6F
100
AcDbEntity
  8
GEO_
 62
     7
420
 16777215
100
AcDbLine
 10
-79.99111111111111
 20
44.63955429580821
 30
0.0
 11
-80.10833333333334
 21
44.6080464285626
 31
0.0
  0
LINE
  5
F61
330
6F
100
AcDbEntity
  8
GEO_
 62
     7
420
 16777215
100
AcDbLine
 10
-80.10833333333334
 20
44.6080464285626
 30
0.0
 11
-80.35833333333334
 21
44.60621492325134
 31
0.0
  0
LINE
  5
F62
330
6F
100
AcDbEntity
  8
GEO_
 62
     7
420
 16777215
100
AcDbLine
 10
-80.35833333333334
 20
44.60621492325134
 30
0.0
 11
-80.44750000000002
 21
44.97916454177103
 31
0.0
  0
LINE
  5
F63
330
6F
100
AcDbEntity
  8
GEO_
 62
     7
420
 16777215
100
AcDbLine
 10
-80.44750000000002
 20
44.97916454177103
 30
0.0
 11
-80.53333333333332
 21
45.22560995445661
 31
0.0
  0
LINE
  5
F64
330
6F
100
AcDbEntity
  8
GEO_
 62
     7
420
 16777215
100
AcDbLine
 10
-80.09999999999998
 20
45.29203728926979
 30
0.0
 11
-79.98000000000001
 21
45.65829854562909
 31
0.0
  0
LINE
  5
F65
330
6F
100
AcDbEntity
  8
GEO_
 62
     7
420
 16777215
100
AcDbLine
 10
-79.98000000000001
 20
45.65829854562909
 30
0.0
 11
-79.92222222222223
 21
45.77330554607272
 31
0.0
  0
LINE
  5
F66
330
6F
100
AcDbEntity
  8
GEO_
 62
     7
420
 16777215
100
AcDbLine
 10
-79.92222222222223
 20
45.77330554607272
 30
0.0
 11
-79.77083333333331
 21
45.74361166594754
 31
0.0
  0
LINE
  5
F67
330
6F
100
AcDbEntity
  8
GEO_
 62
     7
420
 16777215
100
AcDbLine
 10
-79.77083333333331
 20
45.74361166594754
 30
0.0
 11
-79.52027777777778
 21
45.7128150475627
 31
0.0
  0
LINE
  5
F68
330
6F
100
AcDbEntity
  8
GEO_
 62
     7
420
 16777215
100
AcDbLine
 10
-79.52027777777778
 20
45.7128150475627
 30
0.0
 11
-79.16666666666667
 21
45.65273756888168
 31
0.0
  0
LINE
  5
F69
330
6F
100
AcDbEntity
  8
GEO_
 62
     7
420
 16777215
100
AcDbLine
 10
-79.16666666666667
 20
45.65273756888168
 30
0.0
 11
-78.89555555555556
 21
45.60974474565064
 31
0.0
  0
LINE
  5
F6A
330
6F
100
AcDbEntity
  8
GEO_
 62
     7
420
 16777215
100
AcDbLine
 10
-78.89555555555556
 20
45.60974474565064
 30
0.0
 11
-78.74583333333333
 21
45.58418155261779
 31
0.0
  0
LINE
  5
F6B
330
6F
100
AcDbEntity
  8
GEO_
 62
     7
420
 16777215
100
AcDbLine
 10
-78.74583333333333
 20
45.58418155261779
 30
0.0
 11
-78.3888888888889
 21
45.53048637178898
 31
0.0
  0
LINE
  5
F6C
330
6F
100
AcDbEntity
  8
GEO_
 62
     7
420
 16777215
100
AcDbLine
 10
-78.3888888888889
 20
45.53048637178898
 30
0.0
 11
-77.80833333333333
 21
45.43613751247673
 31
0.0
  0
LINE
  5
F6D
330
6F
100
AcDbEntity
  8
GEO_
 62
     7
420
 16777215
100
AcDbLine
 10
-77.80833333333333
 20
45.43613751247673
 30
0.0
 11
-77.95
 21
45.18504040911417
 31
0.0
  0
LINE
  5
F6E
330
6F
100
AcDbEntity
  8
GEO_
 62
     7
420
 16777215
100
AcDbLine
 10
-77.95
 20
45.18504040911417
 30
0.0
 11
-78.12777777777776
 21
44.8391223498467
 31
0.0
  0
LINE
  5
F6F
330
6F
100
AcDbEntity
  8
GEO_
 62
     7
420
 16777215
100
AcDbLine
 10
-78.12777777777776
 20
44.8391223498467
 30
0.0
 11
-78.5
 21
44.81708886771285
 31
0.0
  0
LINE
  5
F70
330
6F
100
AcDbEntity
  8
GEO_
 62
     7
420
 16777215
100
AcDbLine
 10
-78.5
 20
44.81708886771285
 30
0.0
 11
-78.86666666666666
 21
44.79506092536374
 31
0.0
  0
LINE
  5
F71
330
6F
100
AcDbEntity
  8
GEO_
 62
     7
420
 16777215
100
AcDbLine
 10
-78.86666666666666
 20
44.79506092536374
 30
0.0
 11
-79.17500000000003
 21
44.76753378066915
 31
0.0
  0
LINE
  5
F72
330
6F
100
AcDbEntity
  8
GEO_
 62
     7
420
 16777215
100
AcDbLine
 10
-79.17500000000003
 20
44.76753378066915
 30
0.0
 11
-79.69166666666669
 21
44.72350831572246
 31
0.0
  0
LINE
  5
F73
330
6F
100
AcDbEntity
  8
GEO_
 62
     7
420
 16777215
100
AcDbLine
 10
-79.69166666666669
 20
44.72350831572246
 30
0.0
 11
-79.99111111111111
 21
44.63955429580821
 31
0.0
  0
LINE
  5
F74
330
6F
100
AcDbEntity
  8
GEO_
 62
     7
420
 16777215
100
AcDbLine
 10
-79.99111111111111
 20
44.63955429580821
 30
0.0
 11
-80.10833333333334
 21
44.6080464285626
 31
0.0
  0
LINE
  5
F75
330
6F
100
AcDbEntity
  8
GEO_
 62
     7
420
 16777215
100
AcDbLine
 10
-80.10833333333334
 20
44.6080464285626
 30
0.0
 11
-80.35833333333334
 21
44.60621492325134
 31
0.0
  0
LINE
  5
F76
330
6F
100
AcDbEntity
  8
GEO_
 62
     7
420
 16777215
100
AcDbLine
 10
-80.35833333333334
 20
44.60621492325134
 30
0.0
 11
-80.44750000000002
 21
44.97916454177103
 31
0.0
  0
LINE
  5
F77
330
6F
100
AcDbEntity
  8
GEO_
 62
     7
420
 16777215
100
AcDbLine
 10
-80.44750000000002
 20
44.97916454177103
 30
0.0
 11
-80.53333333333332
 21
45.22560995445661
 31
0.0
  0
LINE
  5
F78
330
6F
100
AcDbEntity
  8
GEO_
 62
     7
420
 16777215
100
AcDbLine
 10
-80.53333333333332
 20
45.22560995445661
 30
0.0
 11
-80.09999999999998
 21
45.29203728926979
 31
0.0
  0
LINE
  5
F79
330
6F
100
AcDbEntity
  8
GEO_
 62
     7
420
 16777215
100
AcDbLine
 10
-80.09999999999998
 20
45.29203728926979
 30
0.0
 11
-80.09999999999998
 21
45.29203728926979
 31
0.0
  0
LINE
  5
F7A
330
6F
100
AcDbEntity
  8
GEO_
 62
     7
420
 16777215
100
AcDbLine
 10
-80.09999999999998
 20
45.29203728926979
 30
0.0
 11
-80.53333333333332
 21
45.22560995445661
 31
0.0
  0
LINE
  5
F7B
330
6F
100
AcDbEntity
  8
GEO_
 62
     7
420
 16777215
100
AcDbLine
 10
-80.09999999999998
 20
45.29203728926979
 30
0.0
 11
-79.98000000000001
 21
45.65829854562909
 31
0.0
  0
LINE
  5
F7C
330
6F
100
AcDbEntity
  8
GEO_
 62
     7
420
 16777215
100
AcDbLine
 10
-79.98000000000001
 20
45.65829854562909
 30
0.0
 11
-79.98000000000001
 21
45.65829854562909
 31
0.0
  0
LINE
  5
F7D
330
6F
100
AcDbEntity
  8
GEO_
 62
     7
420
 16777215
100
AcDbLine
 10
-79.98000000000001
 20
45.65829854562909
 30
0.0
 11
-80.09999999999998
 21
45.29203728926979
 31
0.0
  0
LINE
  5
F7E
330
6F
100
AcDbEntity
  8
GEO_
 62
     7
420
 16777215
100
AcDbLine
 10
-79.98000000000001
 20
45.65829854562909
 30
0.0
 11
-79.92222222222223
 21
45.77330554607272
 31
0.0
  0
LINE
  5
F7F
330
6F
100
AcDbEntity
  8
GEO_
 62
     7
420
 16777215
100
AcDbLine
 10
-79.92222222222223
 20
45.77330554607272
 30
0.0
 11
-79.92222222222223
 21
45.77330554607272
 31
0.0
  0
LINE
  5
F80
330
6F
100
AcDbEntity
  8
GEO_
 62
     7
420
 16777215
100
AcDbLine
 10
-79.92222222222223
 20
45.77330554607272
 30
0.0
 11
-79.98000000000001
 21
45.65829854562909
 31
0.0
  0
LINE
  5
F81
330
6F
100
AcDbEntity
  8
GEO_
 62
     7
420
 16777215
100
AcDbLine
 10
-79.92222222222223
 20
45.77330554607272
 30
0.0
 11
-79.77083333333331
 21
45.74361166594754
 31
0.0
  0
LINE
  5
F82
330
6F
100
AcDbEntity
  8
GEO_
 62
     7
420
 16777215
100
AcDbLine
 10
-79.77083333333331
 20
45.74361166594754
 30
0.0
 11
-79.77083333333331
 21
45.74361166594754
 31
0.0
  0
LINE
  5
F83
330
6F
100
AcDbEntity
  8
GEO_
 62
     7
420
 16777215
100
AcDbLine
 10
-79.77083333333331
 20
45.74361166594754
 30
0.0
 11
-79.92222222222223
 21
45.77330554607272
 31
0.0
  0
LINE
  5
F84
330
6F
100
AcDbEntity
  8
GEO_
 62
     7
420
 16777215
100
AcDbLine
 10
-79.77083333333331
 20
45.74361166594754
 30
0.0
 11
-79.52027777777778
 21
45.7128150475627
 31
0.0
  0
LINE
  5
F85
330
6F
100
AcDbEntity
  8
GEO_
 62
     7
420
 16777215
100
AcDbLine
 10
-79.52027777777778
 20
45.7128150475627
 30
0.0
 11
-79.52027777777778
 21
45.7128150475627
 31
0.0
  0
LINE
  5
F86
330
6F
100
AcDbEntity
  8
GEO_
 62
     7
420
 16777215
100
AcDbLine
 10
-79.52027777777778
 20
45.7128150475627
 30
0.0
 11
-79.77083333333331
 21
45.74361166594754
 31
0.0
  0
LINE
  5
F87
330
6F
100
AcDbEntity
  8
GEO_
 62
     7
420
 16777215
100
AcDbLine
 10
-79.52027777777778
 20
45.7128150475627
 30
0.0
 11
-79.16666666666667
 21
45.65273756888168
 31
0.0
  0
LINE
  5
F88
330
6F
100
AcDbEntity
  8
GEO_
 62
     7
420
 16777215
100
AcDbLine
 10
-79.16666666666667
 20
45.65273756888168
 30
0.0
 11
-79.16666666666667
 21
45.65273756888168
 31
0.0
  0
LINE
  5
F89
330
6F
100
AcDbEntity
  8
GEO_
 62
     7
420
 16777215
100
AcDbLine
 10
-79.16666666666667
 20
45.65273756888168
 30
0.0
 11
-79.52027777777778
 21
45.7128150475627
 31
0.0
  0
LINE
  5
F8A
330
6F
100
AcDbEntity
  8
GEO_
 62
     7
420
 16777215
100
AcDbLine
 10
-79.16666666666667
 20
45.65273756888168
 30
0.0
 11
-78.89555555555556
 21
45.60974474565064
 31
0.0
  0
LINE
  5
F8B
330
6F
100
AcDbEntity
  8
GEO_
 62
     7
420
 16777215
100
AcDbLine
 10
-78.89555555555556
 20
45.60974474565064
 30
0.0
 11
-78.89555555555556
 21
45.60974474565064
 31
0.0
  0
LINE
  5
F8C
330
6F
100
AcDbEntity
  8
GEO_
 62
     7
420
 16777215
100
AcDbLine
 10
-78.89555555555556
 20
45.60974474565064
 30
0.0
 11
-79.16666666666667
 21
45.65273756888168
 31
0.0
  0
LINE
  5
F8D
330
6F
100
AcDbEntity
  8
GEO_
 62
     7
420
 16777215
100
AcDbLine
 10
-78.89555555555556
 20
45.60974474565064
 30
0.0
 11
-78.74583333333333
 21
45.58418155261779
 31
0.0
  0
LINE
  5
F8E
330
6F
100
AcDbEntity
  8
GEO_
 62
     7
420
 16777215
100
AcDbLine
 10
-78.74583333333333
 20
45.58418155261779
 30
0.0
 11
-78.74583333333333
 21
45.58418155261779
 31
0.0
  0
LINE
  5
F8F
330
6F
100
AcDbEntity
  8
GEO_
 62
     7
420
 16777215
100
AcDbLine
 10
-78.74583333333333
 20
45.58418155261779
 30
0.0
 11
-78.89555555555556
 21
45.60974474565064
 31
0.0
  0
LINE
  5
F90
330
6F
100
AcDbEntity
  8
GEO_
 62
     7
420
 16777215
100
AcDbLine
 10
-78.74583333333333
 20
45.58418155261779
 30
0.0
 11
-78.3888888888889
 21
45.53048637178898
 31
0.0
  0
LINE
  5
F91
330
6F
100
AcDbEntity
  8
GEO_
 62
     7
420
 16777215
100
AcDbLine
 10
-78.3888888888889
 20
45.53048637178898
 30
0.0
 11
-78.3888888888889
 21
45.53048637178898
 31
0.0
  0
LINE
  5
F92
330
6F
100
AcDbEntity
  8
GEO_
 62
     7
420
 16777215
100
AcDbLine
 10
-78.3888888888889
 20
45.53048637178898
 30
0.0
 11
-78.74583333333333
 21
45.58418155261779
 31
0.0
  0
LINE
  5
F93
330
6F
100
AcDbEntity
  8
GEO_
 62
     7
420
 16777215
100
AcDbLine
 10
-78.3888888888889
 20
45.53048637178898
 30
0.0
 11
-77.80833333333333
 21
45.43613751247673
 31
0.0
  0
LINE
  5
F94
330
6F
100
AcDbEntity
  8
GEO_
 62
     7
420
 16777215
100
AcDbLine
 10
-77.80833333333333
 20
45.43613751247673
 30
0.0
 11
-77.80833333333333
 21
45.43613751247673
 31
0.0
  0
LINE
  5
F95
330
6F
100
AcDbEntity
  8
GEO_
 62
     7
420
 16777215
100
AcDbLine
 10
-77.80833333333333
 20
45.43613751247673
 30
0.0
 11
-78.3888888888889
 21
45.53048637178898
 31
0.0
  0
LINE
  5
F96
330
6F
100
AcDbEntity
  8
GEO_
 62
     7
420
 16777215
100
AcDbLine
 10
-77.80833333333333
 20
45.43613751247673
 30
0.0
 11
-77.95
 21
45.18504040911417
 31
0.0
  0
LINE
  5
F97
330
6F
100
AcDbEntity
  8
GEO_
 62
     7
420
 16777215
100
AcDbLine
 10
-77.95
 20
45.18504040911417
 30
0.0
 11
-77.95
 21
45.18504040911417
 31
0.0
  0
LINE
  5
F98
330
6F
100
AcDbEntity
  8
GEO_
 62
     7
420
 16777215
100
AcDbLine
 10
-77.95
 20
45.18504040911417
 30
0.0
 11
-77.80833333333333
 21
45.43613751247673
 31
0.0
  0
LINE
  5
F99
330
6F
100
AcDbEntity
  8
GEO_
 62
     7
420
 16777215
100
AcDbLine
 10
-77.95
 20
45.18504040911417
 30
0.0
 11
-78.12777777777776
 21
44.8391223498467
 31
0.0
  0
LINE
  5
F9A
330
6F
100
AcDbEntity
  8
GEO_
 62
     7
420
 16777215
100
AcDbLine
 10
-78.12777777777776
 20
44.8391223498467
 30
0.0
 11
-78.12777777777776
 21
44.8391223498467
 31
0.0
  0
LINE
  5
F9B
330
6F
100
AcDbEntity
  8
GEO_
 62
     7
420
 16777215
100
AcDbLine
 10
-78.12777777777776
 20
44.8391223498467
 30
0.0
 11
-77.95
 21
45.18504040911417
 31
0.0
  0
LINE
  5
F9C
330
6F
100
AcDbEntity
  8
GEO_
 62
     7
420
 16777215
100
AcDbLine
 10
-78.12777777777776
 20
44.8391223498467
 30
0.0
 11
-78.5
 21
44.81708886771285
 31
0.0
  0
LINE
  5
F9D
330
6F
100
AcDbEntity
  8
GEO_
 62
     7
420
 16777215
100
AcDbLine
 10
-78.5
 20
44.81708886771285
 30
0.0
 11
-78.5
 21
44.81708886771285
 31
0.0
  0
LINE
  5
F9E
330
6F
100
AcDbEntity
  8
GEO_
 62
     7
420
 16777215
100
AcDbLine
 10
-78.5
 20
44.81708886771285
 30
0.0
 11
-78.12777777777776
 21
44.8391223498467
 31
0.0
  0
LINE
  5
F9F
330
6F
100
AcDbEntity
  8
GEO_
 62
     7
420
 16777215
100
AcDbLine
 10
-78.5
 20
44.81708886771285
 30
0.0
 11
-78.86666666666666
 21
44.79506092536374
 31
0.0
  0
LINE
  5
FA0
330
6F
100
AcDbEntity
  8
GEO_
 62
     7
420
 16777215
100
AcDbLine
 10
-78.86666666666666
 20
44.79506092536374
 30
0.0
 11
-78.86666666666666
 21
44.79506092536374
 31
0.0
  0
LINE
  5
FA1
330
6F
100
AcDbEntity
  8
GEO_
 62
     7
420
 16777215
100
AcDbLine
 10
-78.86666666666666
 20
44.79506092536374
 30
0.0
 11
-78.5
 21
44.81708886771285
 31
0.0
  0
LINE
  5
FA2
330
6F
100
AcDbEntity
  8
GEO_
 62
     7
420
 16777215
100
AcDbLine
 10
-78.86666666666666
 20
44.79506092536374
 30
0.0
 11
-79.17500000000003
 21
44.76753378066915
 31
0.0
  0
LINE
  5
FA3
330
6F
100
AcDbEntity
  8
GEO_
 62
     7
420
 16777215
100
AcDbLine
 10
-79.17500000000003
 20
44.76753378066915
 30
0.0
 11
-79.17500000000003
 21
44.76753378066915
 31
0.0
  0
LINE
  5
FA4
330
6F
100
AcDbEntity
  8
GEO_
 62
     7
420
 16777215
100
AcDbLine
 10
-79.17500000000003
 20
44.76753378066915
 30
0.0
 11
-78.86666666666666
 21
44.79506092536374
 31
0.0
  0
LINE
  5
FA5
330
6F
100
AcDbEntity
  8
GEO_
 62
     7
420
 16777215
100
AcDbLine
 10
-79.17500000000003
 20
44.76753378066915
 30
0.0
 11
-79.69166666666669
 21
44.72350831572246
 31
0.0
  0
LINE
  5
FA6
330
6F
100
AcDbEntity
  8
GEO_
 62
     7
420
 16777215
100
AcDbLine
 10
-79.69166666666669
 20
44.72350831572246
 30
0.0
 11
-79.69166666666669
 21
44.72350831572246
 31
0.0
  0
LINE
  5
FA7
330
6F
100
AcDbEntity
  8
GEO_
 62
     7
420
 16777215
100
AcDbLine
 10
-79.69166666666669
 20
44.72350831572246
 30
0.0
 11
-79.17500000000003
 21
44.76753378066915
 31
0.0
  0
LINE
  5
FA8
330
6F
100
AcDbEntity
  8
GEO_
 62
     7
420
 16777215
100
AcDbLine
 10
-79.69166666666669
 20
44.72350831572246
 30
0.0
 11
-79.99111111111111
 21
44.63955429580821
 31
0.0
  0
LINE
  5
FA9
330
6F
100
AcDbEntity
  8
GEO_
 62
     7
420
 16777215
100
AcDbLine
 10
-79.99111111111111
 20
44.63955429580821
 30
0.0
 11
-79.99111111111111
 21
44.63955429580821
 31
0.0
  0
LINE
  5
FAA
330
6F
100
AcDbEntity
  8
GEO_
 62
     7
420
 16777215
100
AcDbLine
 10
-79.99111111111111
 20
44.63955429580821
 30
0.0
 11
-79.69166666666669
 21
44.72350831572246
 31
0.0
  0
LINE
  5
FAB
330
6F
100
AcDbEntity
  8
GEO_
 62
     7
420
 16777215
100
AcDbLine
 10
-79.99111111111111
 20
44.63955429580821
 30
0.0
 11
-80.10833333333334
 21
44.6080464285626
 31
0.0
  0
LINE
  5
FAC
330
6F
100
AcDbEntity
  8
GEO_
 62
     7
420
 16777215
100
AcDbLine
 10
-80.10833333333334
 20
44.6080464285626
 30
0.0
 11
-80.10833333333334
 21
44.6080464285626
 31
0.0
  0
LINE
  5
FAD
330
6F
100
AcDbEntity
  8
GEO_
 62
     7
420
 16777215
100
AcDbLine
 10
-80.10833333333334
 20
44.6080464285626
 30
0.0
 11
-79.99111111111111
 21
44.63955429580821
 31
0.0
  0
LINE
  5
FAE
330
6F
100
AcDbEntity
  8
GEO_
 62
     7
420
 16777215
100
AcDbLine
 10
-80.10833333333334
 20
44.6080464285626
 30
0.0
 11
-80.35833333333334
 21
44.60621492325134
 31
0.0
  0
LINE
  5
FAF
330
6F
100
AcDbEntity
  8
GEO_
 62
     7
420
 16777215
100
AcDbLine
 10
-80.35833333333334
 20
44.60621492325134
 30
0.0
 11
-80.35833333333334
 21
44.60621492325134
 31
0.0
  0
LINE
  5
FB0
330
6F
100
AcDbEntity
  8
GEO_
 62
     7
420
 16777215
100
AcDbLine
 10
-80.35833333333334
 20
44.60621492325134
 30
0.0
 11
-80.10833333333334
 21
44.6080464285626
 31
0.0
  0
LINE
  5
FB1
330
6F
100
AcDbEntity
  8
GEO_
 62
     7
420
 16777215
100
AcDbLine
 10
-80.35833333333334
 20
44.60621492325134
 30
0.0
 11
-80.44750000000002
 21
44.97916454177103
 31
0.0
  0
LINE
  5
FB2
330
6F
100
AcDbEntity
  8
GEO_
 62
     7
420
 16777215
100
AcDbLine
 10
-80.44750000000002
 20
44.97916454177103
 30
0.0
 11
-80.44750000000002
 21
44.97916454177103
 31
0.0
  0
LINE
  5
FB3
330
6F
100
AcDbEntity
  8
GEO_
 62
     7
420
 16777215
100
AcDbLine
 10
-80.44750000000002
 20
44.97916454177103
 30
0.0
 11
-80.35833333333334
 21
44.60621492325134
 31
0.0
  0
LINE
  5
FB4
330
6F
100
AcDbEntity
  8
GEO_
 62
     7
420
 16777215
100
AcDbLine
 10
-80.44750000000002
 20
44.97916454177103
 30
0.0
 11
-80.53333333333332
 21
45.22560995445661
 31
0.0
  0
LINE
  5
FB5
330
6F
100
AcDbEntity
  8
GEO_
 62
     7
420
 16777215
100
AcDbLine
 10
-80.53333333333332
 20
45.22560995445661
 30
0.0
 11
-80.53333333333332
 21
45.22560995445661
 31
0.0
  0
LINE
  5
FB6
330
6F
100
AcDbEntity
  8
GEO_
 62
     7
420
 16777215
100
AcDbLine
 10
-80.53333333333332
 20
45.22560995445661
 30
0.0
 11
-80.44750000000002
 21
44.97916454177103
 31
0.0
  0
LINE
  5
FBA
330
6F
100
AcDbEntity
  8
GEO_
 62
     7
420
 16777215
100
AcDbLine
 10
-79.69166666666669
 20
44.72350831572246
 30
0.0
 11
-79.17500000000003
 21
44.76753378066915
 31
0.0
  0
LINE
  5
FBB
330
6F
100
AcDbEntity
  8
GEO_
 62
     7
420
 16777215
100
AcDbLine
 10
-79.17500000000003
 20
44.76753378066915
 30
0.0
 11
-78.86666666666666
 21
44.79506092536374
 31
0.0
  0
LINE
  5
FBC
330
6F
100
AcDbEntity
  8
GEO_
 62
     7
420
 16777215
100
AcDbLine
 10
-78.86666666666666
 20
44.79506092536374
 30
0.0
 11
-78.5
 21
44.81708886771285
 31
0.0
  0
LINE
  5
FD6
330
6F
100
AcDbEntity
  8
GEO_
 62
     7
420
 16777215
100
AcDbLine
 10
-79.69166666666669
 20
44.72350831572246
 30
0.0
 11
-79.17500000000003
 21
44.76753378066915
 31
0.0
  0
LINE
  5
FD7
330
6F
100
AcDbEntity
  8
GEO_
 62
     7
420
 16777215
100
AcDbLine
 10
-79.17500000000003
 20
44.76753378066915
 30
0.0
 11
-78.86666666666666
 21
44.79506092536374
 31
0.0
  0
LINE
  5
FD8
330
6F
100
AcDbEntity
  8
GEO_
 62
     7
420
 16777215
100
AcDbLine
 10
-78.86666666666666
 20
44.79506092536374
 30
0.0
 11
-78.5
 21
44.81708886771285
 31
0.0
  0
LINE
  5
FF9
330
6F
100
AcDbEntity
  8
GEO_
 62
     7
420
 16777215
100
AcDbLine
 10
-79.69166666666669
 20
44.72350831572246
 30
0.0
 11
-79.69166666666669
 21
44.72350831572246
 31
0.0
  0
LINE
  5
FFB
330
6F
100
AcDbEntity
  8
GEO_
 62
     7
420
 16777215
100
AcDbLine
 10
-79.69166666666669
 20
44.72350831572246
 30
0.0
 11
-79.17500000000003
 21
44.76753378066915
 31
0.0
  0
LINE
  5
FFC
330
6F
100
AcDbEntity
  8
GEO_
 62
     7
420
 16777215
100
AcDbLine
 10
-79.17500000000003
 20
44.76753378066915
 30
0.0
 11
-79.17500000000003
 21
44.76753378066915
 31
0.0
  0
LINE
  5
FFD
330
6F
100
AcDbEntity
  8
GEO_
 62
     7
420
 16777215
100
AcDbLine
 10
-79.17500000000003
 20
44.76753378066915
 30
0.0
 11
-79.69166666666669
 21
44.72350831572246
 31
0.0
  0
LINE
  5
FFE
330
6F
100
AcDbEntity
  8
GEO_
 62
     7
420
 16777215
100
AcDbLine
 10
-79.17500000000003
 20
44.76753378066915
 30
0.0
 11
-78.86666666666666
 21
44.79506092536374
 31
0.0
  0
LINE
  5
FFF
330
6F
100
AcDbEntity
  8
GEO_
 62
     7
420
 16777215
100
AcDbLine
 10
-78.86666666666666
 20
44.79506092536374
 30
0.0
 11
-78.86666666666666
 21
44.79506092536374
 31
0.0
  0
LINE
  5
1000
330
6F
100
AcDbEntity
  8
GEO_
 62
     7
420
 16777215
100
AcDbLine
 10
-78.86666666666666
 20
44.79506092536374
 30
0.0
 11
-79.17500000000003
 21
44.76753378066915
 31
0.0
  0
LINE
  5
1001
330
6F
100
AcDbEntity
  8
GEO_
 62
     7
420
 16777215
100
AcDbLine
 10
-78.86666666666666
 20
44.79506092536374
 30
0.0
 11
-78.5
 21
44.81708886771285
 31
0.0
  0
LINE
  5
1002
330
6F
100
AcDbEntity
  8
GEO_
 62
     7
420
 16777215
100
AcDbLine
 10
-78.5
 20
44.81708886771285
 30
0.0
 11
-78.5
 21
44.81708886771285
 31
0.0
  0
LINE
  5
1003
330
6F
100
AcDbEntity
  8
GEO_
 62
     7
420
 16777215
100
AcDbLine
 10
-78.5
 20
44.81708886771285
 30
0.0
 11
-78.86666666666666
 21
44.79506092536374
 31
0.0
  0
LINE
  5
1049
330
6F
100
AcDbEntity
  8
GEO_
 62
     7
420
 16777215
100
AcDbLine
 10
-79.69166666666669
 20
44.72350831572246
 30
0.0
 11
-79.17500000000003
 21
44.76753378066915
 31
0.0
  0
LINE
  5
104A
330
6F
100
AcDbEntity
  8
GEO_
 62
     7
420
 16777215
100
AcDbLine
 10
-79.17500000000003
 20
44.76753378066915
 30
0.0
 11
-78.86666666666666
 21
44.79506092536374
 31
0.0
  0
LINE
  5
104B
330
6F
100
AcDbEntity
  8
GEO_
 62
     7
420
 16777215
100
AcDbLine
 10
-78.86666666666666
 20
44.79506092536374
 30
0.0
 11
-78.5
 21
44.81708886771285
 31
0.0
  0
LINE
  5
104C
330
6F
100
AcDbEntity
  8
GEO_
 62
     7
420
 16777215
100
AcDbLine
 10
-78.5
 20
44.81708886771285
 30
0.0
 11
-78.12777777777776
 21
44.8391223498467
 31
0.0
  0
LINE
  5
1067
330
6F
100
AcDbEntity
  8
GEO_
 62
     7
420
 16777215
100
AcDbLine
 10
-79.69166666666669
 20
44.72350831572246
 30
0.0
 11
-79.17500000000003
 21
44.76753378066915
 31
0.0
  0
LINE
  5
1068
330
6F
100
AcDbEntity
  8
GEO_
 62
     7
420
 16777215
100
AcDbLine
 10
-79.17500000000003
 20
44.76753378066915
 30
0.0
 11
-78.86666666666666
 21
44.79506092536374
 31
0.0
  0
LINE
  5
1069
330
6F
100
AcDbEntity
  8
GEO_
 62
     7
420
 16777215
100
AcDbLine
 10
-78.86666666666666
 20
44.79506092536374
 30
0.0
 11
-78.5
 21
44.81708886771285
 31
0.0
  0
LINE
  5
106A
330
6F
100
AcDbEntity
  8
GEO_
 62
     7
420
 16777215
100
AcDbLine
 10
-78.5
 20
44.81708886771285
 30
0.0
 11
-78.12777777777776
 21
44.8391223498467
 31
0.0
  0
LINE
  5
108C
330
6F
100
AcDbEntity
  8
GEO_
 62
     7
420
 16777215
100
AcDbLine
 10
-79.69166666666669
 20
44.72350831572246
 30
0.0
 11
-79.69166666666669
 21
44.72350831572246
 31
0.0
  0
LINE
  5
108E
330
6F
100
AcDbEntity
  8
GEO_
 62
     7
420
 16777215
100
AcDbLine
 10
-79.69166666666669
 20
44.72350831572246
 30
0.0
 11
-79.17500000000003
 21
44.76753378066915
 31
0.0
  0
LINE
  5
108F
330
6F
100
AcDbEntity
  8
GEO_
 62
     7
420
 16777215
100
AcDbLine
 10
-79.17500000000003
 20
44.76753378066915
 30
0.0
 11
-79.17500000000003
 21
44.76753378066915
 31
0.0
  0
LINE
  5
1090
330
6F
100
AcDbEntity
  8
GEO_
 62
     7
420
 16777215
100
AcDbLine
 10
-79.17500000000003
 20
44.76753378066915
 30
0.0
 11
-79.69166666666669
 21
44.72350831572246
 31
0.0
  0
LINE
  5
1091
330
6F
100
AcDbEntity
  8
GEO_
 62
     7
420
 16777215
100
AcDbLine
 10
-79.17500000000003
 20
44.76753378066915
 30
0.0
 11
-78.86666666666666
 21
44.79506092536374
 31
0.0
  0
LINE
  5
1092
330
6F
100
AcDbEntity
  8
GEO_
 62
     7
420
 16777215
100
AcDbLine
 10
-78.86666666666666
 20
44.79506092536374
 30
0.0
 11
-78.86666666666666
 21
44.79506092536374
 31
0.0
  0
LINE
  5
1093
330
6F
100
AcDbEntity
  8
GEO_
 62
     7
420
 16777215
100
AcDbLine
 10
-78.86666666666666
 20
44.79506092536374
 30
0.0
 11
-79.17500000000003
 21
44.76753378066915
 31
0.0
  0
LINE
  5
1094
330
6F
100
AcDbEntity
  8
GEO_
 62
     7
420
 16777215
100
AcDbLine
 10
-78.86666666666666
 20
44.79506092536374
 30
0.0
 11
-78.5
 21
44.81708886771285
 31
0.0
  0
LINE
  5
1095
330
6F
100
AcDbEntity
  8
GEO_
 62
     7
420
 16777215
100
AcDbLine
 10
-78.5
 20
44.81708886771285
 30
0.0
 11
-78.5
 21
44.81708886771285
 31
0.0
  0
LINE
  5
1096
330
6F
100
AcDbEntity
  8
GEO_
 62
     7
420
 16777215
100
AcDbLine
 10
-78.5
 20
44.81708886771285
 30
0.0
 11
-78.86666666666666
 21
44.79506092536374
 31
0.0
  0
LINE
  5
1097
330
6F
100
AcDbEntity
  8
GEO_
 62
     7
420
 16777215
100
AcDbLine
 10
-78.5
 20
44.81708886771285
 30
0.0
 11
-78.12777777777776
 21
44.8391223498467
 31
0.0
  0
LINE
  5
1098
330
6F
100
AcDbEntity
  8
GEO_
 62
     7
420
 16777215
100
AcDbLine
 10
-78.12777777777776
 20
44.8391223498467
 30
0.0
 11
-78.12777777777776
 21
44.8391223498467
 31
0.0
  0
LINE
  5
1099
330
6F
100
AcDbEntity
  8
GEO_
 62
     7
420
 16777215
100
AcDbLine
 10
-78.12777777777776
 20
44.8391223498467
 30
0.0
 11
-78.5
 21
44.81708886771285
 31
0.0
  0
LINE
  5
10DF
330
6F
100
AcDbEntity
  8
GEO_
 62
     7
420
 16777215
100
AcDbLine
 10
-80.10833333333334
 20
44.6080464285626
 30
0.0
 11
-79.99111111111111
 21
44.63955429580821
 31
0.0
  0
LINE
  5
10E0
330
6F
100
AcDbEntity
  8
GEO_
 62
     7
420
 16777215
100
AcDbLine
 10
-79.99111111111111
 20
44.63955429580821
 30
0.0
 11
-79.69166666666669
 21
44.72350831572246
 31
0.0
  0
LINE
  5
10E1
330
6F
100
AcDbEntity
  8
GEO_
 62
     7
420
 16777215
100
AcDbLine
 10
-79.69166666666669
 20
44.72350831572246
 30
0.0
 11
-79.17500000000003
 21
44.76753378066915
 31
0.0
  0
LINE
  5
10E2
330
6F
100
AcDbEntity
  8
GEO_
 62
     7
420
 16777215
100
AcDbLine
 10
-79.17500000000003
 20
44.76753378066915
 30
0.0
 11
-78.86666666666666
 21
44.79506092536374
 31
0.0
  0
LINE
  5
10E3
330
6F
100
AcDbEntity
  8
GEO_
 62
     7
420
 16777215
100
AcDbLine
 10
-78.86666666666666
 20
44.79506092536374
 30
0.0
 11
-78.5
 21
44.81708886771285
 31
0.0
  0
LINE
  5
10E4
330
6F
100
AcDbEntity
  8
GEO_
 62
     7
420
 16777215
100
AcDbLine
 10
-78.5
 20
44.81708886771285
 30
0.0
 11
-78.12777777777776
 21
44.8391223498467
 31
0.0
  0
LINE
  5
10FA
330
6F
100
AcDbEntity
  8
GEO_
 62
     7
420
 16777215
100
AcDbLine
 10
-80.10833333333334
 20
44.6080464285626
 30
0.0
 11
-79.99111111111111
 21
44.63955429580821
 31
0.0
  0
LINE
  5
10FB
330
6F
100
AcDbEntity
  8
GEO_
 62
     7
420
 16777215
100
AcDbLine
 10
-79.99111111111111
 20
44.63955429580821
 30
0.0
 11
-79.69166666666669
 21
44.72350831572246
 31
0.0
  0
LINE
  5
10FC
330
6F
100
AcDbEntity
  8
GEO_
 62
     7
420
 16777215
100
AcDbLine
 10
-79.69166666666669
 20
44.72350831572246
 30
0.0
 11
-79.17500000000003
 21
44.76753378066915
 31
0.0
  0
LINE
  5
10FD
330
6F
100
AcDbEntity
  8
GEO_
 62
     7
420
 16777215
100
AcDbLine
 10
-79.17500000000003
 20
44.76753378066915
 30
0.0
 11
-78.86666666666666
 21
44.79506092536374
 31
0.0
  0
LINE
  5
10FE
330
6F
100
AcDbEntity
  8
GEO_
 62
     7
420
 16777215
100
AcDbLine
 10
-78.86666666666666
 20
44.79506092536374
 30
0.0
 11
-78.5
 21
44.81708886771285
 31
0.0
  0
LINE
  5
10FF
330
6F
100
AcDbEntity
  8
GEO_
 62
     7
420
 16777215
100
AcDbLine
 10
-78.5
 20
44.81708886771285
 30
0.0
 11
-78.12777777777776
 21
44.8391223498467
 31
0.0
  0
LINE
  5
1116
330
6F
100
AcDbEntity
  8
GEO_
 62
     7
420
 16777215
100
AcDbLine
 10
-80.10833333333334
 20
44.6080464285626
 30
0.0
 11
-80.10833333333334
 21
44.6080464285626
 31
0.0
  0
LINE
  5
1118
330
6F
100
AcDbEntity
  8
GEO_
 62
     7
420
 16777215
100
AcDbLine
 10
-80.10833333333334
 20
44.6080464285626
 30
0.0
 11
-79.99111111111111
 21
44.63955429580821
 31
0.0
  0
LINE
  5
1119
330
6F
100
AcDbEntity
  8
GEO_
 62
     7
420
 16777215
100
AcDbLine
 10
-79.99111111111111
 20
44.63955429580821
 30
0.0
 11
-79.99111111111111
 21
44.63955429580821
 31
0.0
  0
LINE
  5
111A
330
6F
100
AcDbEntity
  8
GEO_
 62
     7
420
 16777215
100
AcDbLine
 10
-79.99111111111111
 20
44.63955429580821
 30
0.0
 11
-80.10833333333334
 21
44.6080464285626
 31
0.0
  0
LINE
  5
111B
330
6F
100
AcDbEntity
  8
GEO_
 62
     7
420
 16777215
100
AcDbLine
 10
-79.99111111111111
 20
44.63955429580821
 30
0.0
 11
-79.69166666666669
 21
44.72350831572246
 31
0.0
  0
LINE
  5
111C
330
6F
100
AcDbEntity
  8
GEO_
 62
     7
420
 16777215
100
AcDbLine
 10
-79.69166666666669
 20
44.72350831572246
 30
0.0
 11
-79.69166666666669
 21
44.72350831572246
 31
0.0
  0
LINE
  5
111D
330
6F
100
AcDbEntity
  8
GEO_
 62
     7
420
 16777215
100
AcDbLine
 10
-79.69166666666669
 20
44.72350831572246
 30
0.0
 11
-79.99111111111111
 21
44.63955429580821
 31
0.0
  0
LINE
  5
111E
330
6F
100
AcDbEntity
  8
GEO_
 62
     7
420
 16777215
100
AcDbLine
 10
-79.69166666666669
 20
44.72350831572246
 30
0.0
 11
-79.17500000000003
 21
44.76753378066915
 31
0.0
  0
LINE
  5
111F
330
6F
100
AcDbEntity
  8
GEO_
 62
     7
420
 16777215
100
AcDbLine
 10
-79.17500000000003
 20
44.76753378066915
 30
0.0
 11
-79.17500000000003
 21
44.76753378066915
 31
0.0
  0
LINE
  5
1120
330
6F
100
AcDbEntity
  8
GEO_
 62
     7
420
 16777215
100
AcDbLine
 10
-79.17500000000003
 20
44.76753378066915
 30
0.0
 11
-79.69166666666669
 21
44.72350831572246
 31
0.0
  0
LINE
  5
1121
330
6F
100
AcDbEntity
  8
GEO_
 62
     7
420
 16777215
100
AcDbLine
 10
-79.17500000000003
 20
44.76753378066915
 30
0.0
 11
-78.86666666666666
 21
44.79506092536374
 31
0.0
  0
LINE
  5
1122
330
6F
100
AcDbEntity
  8
GEO_
 62
     7
420
 16777215
100
AcDbLine
 10
-78.86666666666666
 20
44.79506092536374
 30
0.0
 11
-78.86666666666666
 21
44.79506092536374
 31
0.0
  0
LINE
  5
1123
330
6F
100
AcDbEntity
  8
GEO_
 62
     7
420
 16777215
100
AcDbLine
 10
-78.86666666666666
 20
44.79506092536374
 30
0.0
 11
-79.17500000000003
 21
44.76753378066915
 31
0.0
  0
LINE
  5
1124
330
6F
100
AcDbEntity
  8
GEO_
 62
     7
420
 16777215
100
AcDbLine
 10
-78.86666666666666
 20
44.79506092536374
 30
0.0
 11
-78.5
 21
44.81708886771285
 31
0.0
  0
LINE
  5
1125
330
6F
100
AcDbEntity
  8
GEO_
 62
     7
420
 16777215
100
AcDbLine
 10
-78.5
 20
44.81708886771285
 30
0.0
 11
-78.5
 21
44.81708886771285
 31
0.0
  0
LINE
  5
1126
330
6F
100
AcDbEntity
  8
GEO_
 62
     7
420
 16777215
100
AcDbLine
 10
-78.5
 20
44.81708886771285
 30
0.0
 11
-78.86666666666666
 21
44.79506092536374
 31
0.0
  0
LINE
  5
1127
330
6F
100
AcDbEntity
  8
GEO_
 62
     7
420
 16777215
100
AcDbLine
 10
-78.5
 20
44.81708886771285
 30
0.0
 11
-78.12777777777776
 21
44.8391223498467
 31
0.0
  0
LINE
  5
1128
330
6F
100
AcDbEntity
  8
GEO_
 62
     7
420
 16777215
100
AcDbLine
 10
-78.12777777777776
 20
44.8391223498467
 30
0.0
 11
-78.12777777777776
 21
44.8391223498467
 31
0.0
  0
LINE
  5
1129
330
6F
100
AcDbEntity
  8
GEO_
 62
     7
420
 16777215
100
AcDbLine
 10
-78.12777777777776
 20
44.8391223498467
 30
0.0
 11
-78.5
 21
44.81708886771285
 31
0.0
  0
LINE
  5
1169
330
6F
100
AcDbEntity
  8
GEO_
 62
     7
420
 16777215
100
AcDbLine
 10
-80.10833333333334
 20
44.6080464285626
 30
0.0
 11
-79.99111111111111
 21
44.63955429580821
 31
0.0
  0
LINE
  5
116A
330
6F
100
AcDbEntity
  8
GEO_
 62
     7
420
 16777215
100
AcDbLine
 10
-79.99111111111111
 20
44.63955429580821
 30
0.0
 11
-79.69166666666669
 21
44.72350831572246
 31
0.0
  0
LINE
  5
116B
330
6F
100
AcDbEntity
  8
GEO_
 62
     7
420
 16777215
100
AcDbLine
 10
-79.69166666666669
 20
44.72350831572246
 30
0.0
 11
-79.17500000000003
 21
44.76753378066915
 31
0.0
  0
LINE
  5
116C
330
6F
100
AcDbEntity
  8
GEO_
 62
     7
420
 16777215
100
AcDbLine
 10
-79.17500000000003
 20
44.76753378066915
 30
0.0
 11
-78.86666666666666
 21
44.79506092536374
 31
0.0
  0
LINE
  5
116D
330
6F
100
AcDbEntity
  8
GEO_
 62
     7
420
 16777215
100
AcDbLine
 10
-78.86666666666666
 20
44.79506092536374
 30
0.0
 11
-78.5
 21
44.81708886771285
 31
0.0
  0
LINE
  5
116E
330
6F
100
AcDbEntity
  8
GEO_
 62
     7
420
 16777215
100
AcDbLine
 10
-78.5
 20
44.81708886771285
 30
0.0
 11
-78.12777777777776
 21
44.8391223498467
 31
0.0
  0
LINE
  5
1184
330
6F
100
AcDbEntity
  8
GEO_
 62
     7
420
 16777215
100
AcDbLine
 10
-80.10833333333334
 20
44.6080464285626
 30
0.0
 11
-79.99111111111111
 21
44.63955429580821
 31
0.0
  0
LINE
  5
1185
330
6F
100
AcDbEntity
  8
GEO_
 62
     7
420
 16777215
100
AcDbLine
 10
-79.99111111111111
 20
44.63955429580821
 30
0.0
 11
-79.69166666666669
 21
44.72350831572246
 31
0.0
  0
LINE
  5
1186
330
6F
100
AcDbEntity
  8
GEO_
 62
     7
420
 16777215
100
AcDbLine
 10
-79.69166666666669
 20
44.72350831572246
 30
0.0
 11
-79.17500000000003
 21
44.76753378066915
 31
0.0
  0
LINE
  5
1187
330
6F
100
AcDbEntity
  8
GEO_
 62
     7
420
 16777215
100
AcDbLine
 10
-79.17500000000003
 20
44.76753378066915
 30
0.0
 11
-78.86666666666666
 21
44.79506092536374
 31
0.0
  0
LINE
  5
1188
330
6F
100
AcDbEntity
  8
GEO_
 62
     7
420
 16777215
100
AcDbLine
 10
-78.86666666666666
 20
44.79506092536374
 30
0.0
 11
-78.5
 21
44.81708886771285
 31
0.0
  0
LINE
  5
1189
330
6F
100
AcDbEntity
  8
GEO_
 62
     7
420
 16777215
100
AcDbLine
 10
-78.5
 20
44.81708886771285
 30
0.0
 11
-78.12777777777776
 21
44.8391223498467
 31
0.0
  0
LINE
  5
11A0
330
6F
100
AcDbEntity
  8
GEO_
 62
     7
420
 16777215
100
AcDbLine
 10
-80.10833333333334
 20
44.6080464285626
 30
0.0
 11
-80.10833333333334
 21
44.6080464285626
 31
0.0
  0
LINE
  5
11A2
330
6F
100
AcDbEntity
  8
GEO_
 62
     7
420
 16777215
100
AcDbLine
 10
-80.10833333333334
 20
44.6080464285626
 30
0.0
 11
-79.99111111111111
 21
44.63955429580821
 31
0.0
  0
LINE
  5
11A3
330
6F
100
AcDbEntity
  8
GEO_
 62
     7
420
 16777215
100
AcDbLine
 10
-79.99111111111111
 20
44.63955429580821
 30
0.0
 11
-79.99111111111111
 21
44.63955429580821
 31
0.0
  0
LINE
  5
11A4
330
6F
100
AcDbEntity
  8
GEO_
 62
     7
420
 16777215
100
AcDbLine
 10
-79.99111111111111
 20
44.63955429580821
 30
0.0
 11
-80.10833333333334
 21
44.6080464285626
 31
0.0
  0
LINE
  5
11A5
330
6F
100
AcDbEntity
  8
GEO_
 62
     7
420
 16777215
100
AcDbLine
 10
-79.99111111111111
 20
44.63955429580821
 30
0.0
 11
-79.69166666666669
 21
44.72350831572246
 31
0.0
  0
LINE
  5
11A6
330
6F
100
AcDbEntity
  8
GEO_
 62
     7
420
 16777215
100
AcDbLine
 10
-79.69166666666669
 20
44.72350831572246
 30
0.0
 11
-79.69166666666669
 21
44.72350831572246
 31
0.0
  0
LINE
  5
11A7
330
6F
100
AcDbEntity
  8
GEO_
 62
     7
420
 16777215
100
AcDbLine
 10
-79.69166666666669
 20
44.72350831572246
 30
0.0
 11
-79.99111111111111
 21
44.63955429580821
 31
0.0
  0
LINE
  5
11A8
330
6F
100
AcDbEntity
  8
GEO_
 62
     7
420
 16777215
100
AcDbLine
 10
-79.69166666666669
 20
44.72350831572246
 30
0.0
 11
-79.17500000000003
 21
44.76753378066915
 31
0.0
  0
LINE
  5
11A9
330
6F
100
AcDbEntity
  8
GEO_
 62
     7
420
 16777215
100
AcDbLine
 10
-79.17500000000003
 20
44.76753378066915
 30
0.0
 11
-79.17500000000003
 21
44.76753378066915
 31
0.0
  0
LINE
  5
11AA
330
6F
100
AcDbEntity
  8
GEO_
 62
     7
420
 16777215
100
AcDbLine
 10
-79.17500000000003
 20
44.76753378066915
 30
0.0
 11
-79.69166666666669
 21
44.72350831572246
 31
0.0
  0
LINE
  5
11AB
330
6F
100
AcDbEntity
  8
GEO_
 62
     7
420
 16777215
100
AcDbLine
 10
-79.17500000000003
 20
44.76753378066915
 30
0.0
 11
-78.86666666666666
 21
44.79506092536374
 31
0.0
  0
LINE
  5
11AC
330
6F
100
AcDbEntity
  8
GEO_
 62
     7
420
 16777215
100
AcDbLine
 10
-78.86666666666666
 20
44.79506092536374
 30
0.0
 11
-78.86666666666666
 21
44.79506092536374
 31
0.0
  0
LINE
  5
11AD
330
6F
100
AcDbEntity
  8
GEO_
 62
     7
420
 16777215
100
AcDbLine
 10
-78.86666666666666
 20
44.79506092536374
 30
0.0
 11
-79.17500000000003
 21
44.76753378066915
 31
0.0
  0
LINE
  5
11AE
330
6F
100
AcDbEntity
  8
GEO_
 62
     7
420
 16777215
100
AcDbLine
 10
-78.86666666666666
 20
44.79506092536374
 30
0.0
 11
-78.5
 21
44.81708886771285
 31
0.0
  0
LINE
  5
11AF
330
6F
100
AcDbEntity
  8
GEO_
 62
     7
420
 16777215
100
AcDbLine
 10
-78.5
 20
44.81708886771285
 30
0.0
 11
-78.5
 21
44.81708886771285
 31
0.0
  0
LINE
  5
11B0
330
6F
100
AcDbEntity
  8
GEO_
 62
     7
420
 16777215
100
AcDbLine
 10
-78.5
 20
44.81708886771285
 30
0.0
 11
-78.86666666666666
 21
44.79506092536374
 31
0.0
  0
LINE
  5
11B1
330
6F
100
AcDbEntity
  8
GEO_
 62
     7
420
 16777215
100
AcDbLine
 10
-78.5
 20
44.81708886771285
 30
0.0
 11
-78.12777777777776
 21
44.8391223498467
 31
0.0
  0
LINE
  5
11B2
330
6F
100
AcDbEntity
  8
GEO_
 62
     7
420
 16777215
100
AcDbLine
 10
-78.12777777777776
 20
44.8391223498467
 30
0.0
 11
-78.12777777777776
 21
44.8391223498467
 31
0.0
  0
LINE
  5
11B3
330
6F
100
AcDbEntity
  8
GEO_
 62
     7
420
 16777215
100
AcDbLine
 10
-78.12777777777776
 20
44.8391223498467
 30
0.0
 11
-78.5
 21
44.81708886771285
 31
0.0
  0
LINE
  5
140C
330
6F
100
AcDbEntity
  8
GEO_
 62
     7
420
 16777215
100
AcDbLine
 10
-78.74583333333333
 20
45.58418155261779
 30
0.0
 11
-78.89555555555556
 21
45.60974474565064
 31
0.0
  0
LINE
  5
140D
330
6F
100
AcDbEntity
  8
GEO_
 62
     7
420
 16777215
100
AcDbLine
 10
-78.89555555555556
 20
45.60974474565064
 30
0.0
 11
-79.16666666666667
 21
45.65273756888168
 31
0.0
  0
LINE
  5
140E
330
6F
100
AcDbEntity
  8
GEO_
 62
     7
420
 16777215
100
AcDbLine
 10
-79.16666666666667
 20
45.65273756888168
 30
0.0
 11
-79.52027777777778
 21
45.7128150475627
 31
0.0
  0
LINE
  5
1426
330
6F
100
AcDbEntity
  8
GEO_
 62
     7
420
 16777215
100
AcDbLine
 10
-78.74583333333333
 20
45.58418155261779
 30
0.0
 11
-78.89555555555556
 21
45.60974474565064
 31
0.0
  0
LINE
  5
1427
330
6F
100
AcDbEntity
  8
GEO_
 62
     7
420
 16777215
100
AcDbLine
 10
-78.89555555555556
 20
45.60974474565064
 30
0.0
 11
-79.16666666666667
 21
45.65273756888168
 31
0.0
  0
LINE
  5
1428
330
6F
100
AcDbEntity
  8
GEO_
 62
     7
420
 16777215
100
AcDbLine
 10
-79.16666666666667
 20
45.65273756888168
 30
0.0
 11
-79.52027777777778
 21
45.7128150475627
 31
0.0
  0
LINE
  5
1455
330
6F
100
AcDbEntity
  8
GEO_
 62
     7
420
 16777215
100
AcDbLine
 10
-77.80833333333333
 20
45.43613751247673
 30
0.0
 11
-77.80833333333333
 21
45.43613751247673
 31
0.0
  0
LINE
  5
1461
330
6F
100
AcDbEntity
  8
GEO_
 62
     7
420
 16777215
100
AcDbLine
 10
-78.74583333333333
 20
45.58418155261779
 30
0.0
 11
-78.74583333333333
 21
45.58418155261779
 31
0.0
  0
LINE
  5
1463
330
6F
100
AcDbEntity
  8
GEO_
 62
     7
420
 16777215
100
AcDbLine
 10
-78.74583333333333
 20
45.58418155261779
 30
0.0
 11
-78.89555555555556
 21
45.60974474565064
 31
0.0
  0
LINE
  5
1464
330
6F
100
AcDbEntity
  8
GEO_
 62
     7
420
 16777215
100
AcDbLine
 10
-78.89555555555556
 20
45.60974474565064
 30
0.0
 11
-78.89555555555556
 21
45.60974474565064
 31
0.0
  0
LINE
  5
1465
330
6F
100
AcDbEntity
  8
GEO_
 62
     7
420
 16777215
100
AcDbLine
 10
-78.89555555555556
 20
45.60974474565064
 30
0.0
 11
-78.74583333333333
 21
45.58418155261779
 31
0.0
  0
LINE
  5
1466
330
6F
100
AcDbEntity
  8
GEO_
 62
     7
420
 16777215
100
AcDbLine
 10
-78.89555555555556
 20
45.60974474565064
 30
0.0
 11
-79.16666666666667
 21
45.65273756888168
 31
0.0
  0
LINE
  5
1467
330
6F
100
AcDbEntity
  8
GEO_
 62
     7
420
 16777215
100
AcDbLine
 10
-79.16666666666667
 20
45.65273756888168
 30
0.0
 11
-79.16666666666667
 21
45.65273756888168
 31
0.0
  0
LINE
  5
1468
330
6F
100
AcDbEntity
  8
GEO_
 62
     7
420
 16777215
100
AcDbLine
 10
-79.16666666666667
 20
45.65273756888168
 30
0.0
 11
-78.89555555555556
 21
45.60974474565064
 31
0.0
  0
LINE
  5
1469
330
6F
100
AcDbEntity
  8
GEO_
 62
     7
420
 16777215
100
AcDbLine
 10
-79.16666666666667
 20
45.65273756888168
 30
0.0
 11
-79.52027777777778
 21
45.7128150475627
 31
0.0
  0
LINE
  5
146A
330
6F
100
AcDbEntity
  8
GEO_
 62
     7
420
 16777215
100
AcDbLine
 10
-79.52027777777778
 20
45.7128150475627
 30
0.0
 11
-79.52027777777778
 21
45.7128150475627
 31
0.0
  0
LINE
  5
146B
330
6F
100
AcDbEntity
  8
GEO_
 62
     7
420
 16777215
100
AcDbLine
 10
-79.52027777777778
 20
45.7128150475627
 30
0.0
 11
-79.16666666666667
 21
45.65273756888168
 31
0.0
  0
LINE
  5
148E
330
6F
100
AcDbEntity
  8
GEO_
 62
     7
420
 16777215
100
AcDbLine
 10
-78.74583333333333
 20
45.58418155261779
 30
0.0
 11
-78.89555555555556
 21
45.60974474565064
 31
0.0
  0
LINE
  5
148F
330
6F
100
AcDbEntity
  8
GEO_
 62
     7
420
 16777215
100
AcDbLine
 10
-78.89555555555556
 20
45.60974474565064
 30
0.0
 11
-79.16666666666667
 21
45.65273756888168
 31
0.0
  0
LINE
  5
1490
330
6F
100
AcDbEntity
  8
GEO_
 62
     7
420
 16777215
100
AcDbLine
 10
-79.16666666666667
 20
45.65273756888168
 30
0.0
 11
-79.52027777777778
 21
45.7128150475627
 31
0.0
  0
LINE
  5
14A5
330
6F
100
AcDbEntity
  8
GEO_
 62
     7
420
 16777215
100
AcDbLine
 10
-78.74583333333333
 20
45.58418155261779
 30
0.0
 11
-78.89555555555556
 21
45.60974474565064
 31
0.0
  0
LINE
  5
14A6
330
6F
100
AcDbEntity
  8
GEO_
 62
     7
420
 16777215
100
AcDbLine
 10
-78.89555555555556
 20
45.60974474565064
 30
0.0
 11
-79.16666666666667
 21
45.65273756888168
 31
0.0
  0
LINE
  5
14A7
330
6F
100
AcDbEntity
  8
GEO_
 62
     7
420
 16777215
100
AcDbLine
 10
-79.16666666666667
 20
45.65273756888168
 30
0.0
 11
-79.52027777777778
 21
45.7128150475627
 31
0.0
  0
LINE
  5
14CB
330
6F
100
AcDbEntity
  8
GEO_
 62
     7
420
 16777215
100
AcDbLine
 10
-77.80833333333333
 20
45.43613751247673
 30
0.0
 11
-77.80833333333333
 21
45.43613751247673
 31
0.0
  0
LINE
  5
14D7
330
6F
100
AcDbEntity
  8
GEO_
 62
     7
420
 16777215
100
AcDbLine
 10
-78.74583333333333
 20
45.58418155261779
 30
0.0
 11
-78.74583333333333
 21
45.58418155261779
 31
0.0
  0
LINE
  5
14D9
330
6F
100
AcDbEntity
  8
GEO_
 62
     7
420
 16777215
100
AcDbLine
 10
-78.74583333333333
 20
45.58418155261779
 30
0.0
 11
-78.89555555555556
 21
45.60974474565064
 31
0.0
  0
LINE
  5
14DA
330
6F
100
AcDbEntity
  8
GEO_
 62
     7
420
 16777215
100
AcDbLine
 10
-78.89555555555556
 20
45.60974474565064
 30
0.0
 11
-78.89555555555556
 21
45.60974474565064
 31
0.0
  0
LINE
  5
14DB
330
6F
100
AcDbEntity
  8
GEO_
 62
     7
420
 16777215
100
AcDbLine
 10
-78.89555555555556
 20
45.60974474565064
 30
0.0
 11
-78.74583333333333
 21
45.58418155261779
 31
0.0
  0
LINE
  5
14DC
330
6F
100
AcDbEntity
  8
GEO_
 62
     7
420
 16777215
100
AcDbLine
 10
-78.89555555555556
 20
45.60974474565064
 30
0.0
 11
-79.16666666666667
 21
45.65273756888168
 31
0.0
  0
LINE
  5
14DD
330
6F
100
AcDbEntity
  8
GEO_
 62
     7
420
 16777215
100
AcDbLine
 10
-79.16666666666667
 20
45.65273756888168
 30
0.0
 11
-79.16666666666667
 21
45.65273756888168
 31
0.0
  0
LINE
  5
14DE
330
6F
100
AcDbEntity
  8
GEO_
 62
     7
420
 16777215
100
AcDbLine
 10
-79.16666666666667
 20
45.65273756888168
 30
0.0
 11
-78.89555555555556
 21
45.60974474565064
 31
0.0
  0
LINE
  5
14DF
330
6F
100
AcDbEntity
  8
GEO_
 62
     7
420
 16777215
100
AcDbLine
 10
-79.16666666666667
 20
45.65273756888168
 30
0.0
 11
-79.52027777777778
 21
45.7128150475627
 31
0.0
  0
LINE
  5
14E0
330
6F
100
AcDbEntity
  8
GEO_
 62
     7
420
 16777215
100
AcDbLine
 10
-79.52027777777778
 20
45.7128150475627
 30
0.0
 11
-79.52027777777778
 21
45.7128150475627
 31
0.0
  0
LINE
  5
14E1
330
6F
100
AcDbEntity
  8
GEO_
 62
     7
420
 16777215
100
AcDbLine
 10
-79.52027777777778
 20
45.7128150475627
 30
0.0
 11
-79.16666666666667
 21
45.65273756888168
 31
0.0
  0
LINE
  5
1508
330
6F
100
AcDbEntity
  8
GEO_
 62
     7
420
 16777215
100
AcDbLine
 10
-78.74583333333333
 20
45.58418155261779
 30
0.0
 11
-78.89555555555556
 21
45.60974474565064
 31
0.0
  0
LINE
  5
1509
330
6F
100
AcDbEntity
  8
GEO_
 62
     7
420
 16777215
100
AcDbLine
 10
-78.89555555555556
 20
45.60974474565064
 30
0.0
 11
-79.16666666666667
 21
45.65273756888168
 31
0.0
  0
LINE
  5
150A
330
6F
100
AcDbEntity
  8
GEO_
 62
     7
420
 16777215
100
AcDbLine
 10
-79.16666666666667
 20
45.65273756888168
 30
0.0
 11
-79.52027777777778
 21
45.7128150475627
 31
0.0
  0
LINE
  5
1523
330
6F
100
AcDbEntity
  8
GEO_
 62
     7
420
 16777215
100
AcDbLine
 10
-78.74583333333333
 20
45.58418155261779
 30
0.0
 11
-78.89555555555556
 21
45.60974474565064
 31
0.0
  0
LINE
  5
1524
330
6F
100
AcDbEntity
  8
GEO_
 62
     7
420
 16777215
100
AcDbLine
 10
-78.89555555555556
 20
45.60974474565064
 30
0.0
 11
-79.16666666666667
 21
45.65273756888168
 31
0.0
  0
LINE
  5
1525
330
6F
100
AcDbEntity
  8
GEO_
 62
     7
420
 16777215
100
AcDbLine
 10
-79.16666666666667
 20
45.65273756888168
 30
0.0
 11
-79.52027777777778
 21
45.7128150475627
 31
0.0
  0
LINE
  5
1555
330
6F
100
AcDbEntity
  8
GEO_
 62
     7
420
 16777215
100
AcDbLine
 10
-77.80833333333333
 20
45.43613751247673
 30
0.0
 11
-77.80833333333333
 21
45.43613751247673
 31
0.0
  0
LINE
  5
1561
330
6F
100
AcDbEntity
  8
GEO_
 62
     7
420
 16777215
100
AcDbLine
 10
-78.74583333333333
 20
45.58418155261779
 30
0.0
 11
-78.74583333333333
 21
45.58418155261779
 31
0.0
  0
LINE
  5
1563
330
6F
100
AcDbEntity
  8
GEO_
 62
     7
420
 16777215
100
AcDbLine
 10
-78.74583333333333
 20
45.58418155261779
 30
0.0
 11
-78.89555555555556
 21
45.60974474565064
 31
0.0
  0
LINE
  5
1564
330
6F
100
AcDbEntity
  8
GEO_
 62
     7
420
 16777215
100
AcDbLine
 10
-78.89555555555556
 20
45.60974474565064
 30
0.0
 11
-78.89555555555556
 21
45.60974474565064
 31
0.0
  0
LINE
  5
1565
330
6F
100
AcDbEntity
  8
GEO_
 62
     7
420
 16777215
100
AcDbLine
 10
-78.89555555555556
 20
45.60974474565064
 30
0.0
 11
-78.74583333333333
 21
45.58418155261779
 31
0.0
  0
LINE
  5
1566
330
6F
100
AcDbEntity
  8
GEO_
 62
     7
420
 16777215
100
AcDbLine
 10
-78.89555555555556
 20
45.60974474565064
 30
0.0
 11
-79.16666666666667
 21
45.65273756888168
 31
0.0
  0
LINE
  5
1567
330
6F
100
AcDbEntity
  8
GEO_
 62
     7
420
 16777215
100
AcDbLine
 10
-79.16666666666667
 20
45.65273756888168
 30
0.0
 11
-79.16666666666667
 21
45.65273756888168
 31
0.0
  0
LINE
  5
1568
330
6F
100
AcDbEntity
  8
GEO_
 62
     7
420
 16777215
100
AcDbLine
 10
-79.16666666666667
 20
45.65273756888168
 30
0.0
 11
-78.89555555555556
 21
45.60974474565064
 31
0.0
  0
LINE
  5
1569
330
6F
100
AcDbEntity
  8
GEO_
 62
     7
420
 16777215
100
AcDbLine
 10
-79.16666666666667
 20
45.65273756888168
 30
0.0
 11
-79.52027777777778
 21
45.7128150475627
 31
0.0
  0
LINE
  5
156A
330
6F
100
AcDbEntity
  8
GEO_
 62
     7
420
 16777215
100
AcDbLine
 10
-79.52027777777778
 20
45.7128150475627
 30
0.0
 11
-79.52027777777778
 21
45.7128150475627
 31
0.0
  0
LINE
  5
156B
330
6F
100
AcDbEntity
  8
GEO_
 62
     7
420
 16777215
100
AcDbLine
 10
-79.52027777777778
 20
45.7128150475627
 30
0.0
 11
-79.16666666666667
 21
45.65273756888168
 31
0.0
  0
LINE
  5
1591
330
6F
100
AcDbEntity
  8
GEO_
 62
     7
420
 16777215
100
AcDbLine
 10
-77.80833333333333
 20
45.43613751247673
 30
0.0
 11
-78.3888888888889
 21
45.53048637178898
 31
0.0
  0
LINE
  5
1592
330
6F
100
AcDbEntity
  8
GEO_
 62
     7
420
 16777215
100
AcDbLine
 10
-78.3888888888889
 20
45.53048637178898
 30
0.0
 11
-78.74583333333333
 21
45.58418155261779
 31
0.0
  0
LINE
  5
1593
330
6F
100
AcDbEntity
  8
GEO_
 62
     7
420
 16777215
100
AcDbLine
 10
-78.74583333333333
 20
45.58418155261779
 30
0.0
 11
-78.89555555555556
 21
45.60974474565064
 31
0.0
  0
LINE
  5
1594
330
6F
100
AcDbEntity
  8
GEO_
 62
     7
420
 16777215
100
AcDbLine
 10
-78.89555555555556
 20
45.60974474565064
 30
0.0
 11
-79.16666666666667
 21
45.65273756888168
 31
0.0
  0
LINE
  5
1595
330
6F
100
AcDbEntity
  8
GEO_
 62
     7
420
 16777215
100
AcDbLine
 10
-79.16666666666667
 20
45.65273756888168
 30
0.0
 11
-79.52027777777778
 21
45.7128150475627
 31
0.0
  0
LINE
  5
15AC
330
6F
100
AcDbEntity
  8
GEO_
 62
     7
420
 16777215
100
AcDbLine
 10
-77.80833333333333
 20
45.43613751247673
 30
0.0
 11
-78.3888888888889
 21
45.53048637178898
 31
0.0
  0
LINE
  5
15AD
330
6F
100
AcDbEntity
  8
GEO_
 62
     7
420
 16777215
100
AcDbLine
 10
-78.3888888888889
 20
45.53048637178898
 30
0.0
 11
-78.74583333333333
 21
45.58418155261779
 31
0.0
  0
LINE
  5
15AE
330
6F
100
AcDbEntity
  8
GEO_
 62
     7
420
 16777215
100
AcDbLine
 10
-78.74583333333333
 20
45.58418155261779
 30
0.0
 11
-78.89555555555556
 21
45.60974474565064
 31
0.0
  0
LINE
  5
15AF
330
6F
100
AcDbEntity
  8
GEO_
 62
     7
420
 16777215
100
AcDbLine
 10
-78.89555555555556
 20
45.60974474565064
 30
0.0
 11
-79.16666666666667
 21
45.65273756888168
 31
0.0
  0
LINE
  5
15B0
330
6F
100
AcDbEntity
  8
GEO_
 62
     7
420
 16777215
100
AcDbLine
 10
-79.16666666666667
 20
45.65273756888168
 30
0.0
 11
-79.52027777777778
 21
45.7128150475627
 31
0.0
  0
LINE
  5
15E8
330
6F
100
AcDbEntity
  8
GEO_
 62
     7
420
 16777215
100
AcDbLine
 10
-77.80833333333333
 20
45.43613751247673
 30
0.0
 11
-77.80833333333333
 21
45.43613751247673
 31
0.0
  0
LINE
  5
15EA
330
6F
100
AcDbEntity
  8
GEO_
 62
     7
420
 16777215
100
AcDbLine
 10
-77.80833333333333
 20
45.43613751247673
 30
0.0
 11
-78.3888888888889
 21
45.53048637178898
 31
0.0
  0
LINE
  5
15EB
330
6F
100
AcDbEntity
  8
GEO_
 62
     7
420
 16777215
100
AcDbLine
 10
-78.3888888888889
 20
45.53048637178898
 30
0.0
 11
-78.3888888888889
 21
45.53048637178898
 31
0.0
  0
LINE
  5
15EC
330
6F
100
AcDbEntity
  8
GEO_
 62
     7
420
 16777215
100
AcDbLine
 10
-78.3888888888889
 20
45.53048637178898
 30
0.0
 11
-77.80833333333333
 21
45.43613751247673
 31
0.0
  0
LINE
  5
15ED
330
6F
100
AcDbEntity
  8
GEO_
 62
     7
420
 16777215
100
AcDbLine
 10
-78.3888888888889
 20
45.53048637178898
 30
0.0
 11
-78.74583333333333
 21
45.58418155261779
 31
0.0
  0
LINE
  5
15EE
330
6F
100
AcDbEntity
  8
GEO_
 62
     7
420
 16777215
100
AcDbLine
 10
-78.74583333333333
 20
45.58418155261779
 30
0.0
 11
-78.74583333333333
 21
45.58418155261779
 31
0.0
  0
LINE
  5
15EF
330
6F
100
AcDbEntity
  8
GEO_
 62
     7
420
 16777215
100
AcDbLine
 10
-78.74583333333333
 20
45.58418155261779
 30
0.0
 11
-78.3888888888889
 21
45.53048637178898
 31
0.0
  0
LINE
  5
15F0
330
6F
100
AcDbEntity
  8
GEO_
 62
     7
420
 16777215
100
AcDbLine
 10
-78.74583333333333
 20
45.58418155261779
 30
0.0
 11
-78.89555555555556
 21
45.60974474565064
 31
0.0
  0
LINE
  5
15F1
330
6F
100
AcDbEntity
  8
GEO_
 62
     7
420
 16777215
100
AcDbLine
 10
-78.89555555555556
 20
45.60974474565064
 30
0.0
 11
-78.89555555555556
 21
45.60974474565064
 31
0.0
  0
LINE
  5
15F2
330
6F
100
AcDbEntity
  8
GEO_
 62
     7
420
 16777215
100
AcDbLine
 10
-78.89555555555556
 20
45.60974474565064
 30
0.0
 11
-78.74583333333333
 21
45.58418155261779
 31
0.0
  0
LINE
  5
15F3
330
6F
100
AcDbEntity
  8
GEO_
 62
     7
420
 16777215
100
AcDbLine
 10
-78.89555555555556
 20
45.60974474565064
 30
0.0
 11
-79.16666666666667
 21
45.65273756888168
 31
0.0
  0
LINE
  5
15F4
330
6F
100
AcDbEntity
  8
GEO_
 62
     7
420
 16777215
100
AcDbLine
 10
-79.16666666666667
 20
45.65273756888168
 30
0.0
 11
-79.16666666666667
 21
45.65273756888168
 31
0.0
  0
LINE
  5
15F5
330
6F
100
AcDbEntity
  8
GEO_
 62
     7
420
 16777215
100
AcDbLine
 10
-79.16666666666667
 20
45.65273756888168
 30
0.0
 11
-78.89555555555556
 21
45.60974474565064
 31
0.0
  0
LINE
  5
15F6
330
6F
100
AcDbEntity
  8
GEO_
 62
     7
420
 16777215
100
AcDbLine
 10
-79.16666666666667
 20
45.65273756888168
 30
0.0
 11
-79.52027777777778
 21
45.7128150475627
 31
0.0
  0
LINE
  5
15F7
330
6F
100
AcDbEntity
  8
GEO_
 62
     7
420
 16777215
100
AcDbLine
 10
-79.52027777777778
 20
45.7128150475627
 30
0.0
 11
-79.52027777777778
 21
45.7128150475627
 31
0.0
  0
LINE
  5
15F8
330
6F
100
AcDbEntity
  8
GEO_
 62
     7
420
 16777215
100
AcDbLine
 10
-79.52027777777778
 20
45.7128150475627
 30
0.0
 11
-79.16666666666667
 21
45.65273756888168
 31
0.0
  0
LINE
  5
1619
330
6F
100
AcDbEntity
  8
GEO_
 62
     7
420
 16777215
100
AcDbLine
 10
-77.80833333333333
 20
45.43613751247673
 30
0.0
 11
-78.3888888888889
 21
45.53048637178898
 31
0.0
  0
LINE
  5
161A
330
6F
100
AcDbEntity
  8
GEO_
 62
     7
420
 16777215
100
AcDbLine
 10
-78.3888888888889
 20
45.53048637178898
 30
0.0
 11
-78.74583333333333
 21
45.58418155261779
 31
0.0
  0
LINE
  5
161B
330
6F
100
AcDbEntity
  8
GEO_
 62
     7
420
 16777215
100
AcDbLine
 10
-78.74583333333333
 20
45.58418155261779
 30
0.0
 11
-78.89555555555556
 21
45.60974474565064
 31
0.0
  0
LINE
  5
161C
330
6F
100
AcDbEntity
  8
GEO_
 62
     7
420
 16777215
100
AcDbLine
 10
-78.89555555555556
 20
45.60974474565064
 30
0.0
 11
-79.16666666666667
 21
45.65273756888168
 31
0.0
  0
LINE
  5
161D
330
6F
100
AcDbEntity
  8
GEO_
 62
     7
420
 16777215
100
AcDbLine
 10
-79.16666666666667
 20
45.65273756888168
 30
0.0
 11
-79.52027777777778
 21
45.7128150475627
 31
0.0
  0
LINE
  5
1632
330
6F
100
AcDbEntity
  8
GEO_
 62
     7
420
 16777215
100
AcDbLine
 10
-77.80833333333333
 20
45.43613751247673
 30
0.0
 11
-78.3888888888889
 21
45.53048637178898
 31
0.0
  0
LINE
  5
1633
330
6F
100
AcDbEntity
  8
GEO_
 62
     7
420
 16777215
100
AcDbLine
 10
-78.3888888888889
 20
45.53048637178898
 30
0.0
 11
-78.74583333333333
 21
45.58418155261779
 31
0.0
  0
LINE
  5
1634
330
6F
100
AcDbEntity
  8
GEO_
 62
     7
420
 16777215
100
AcDbLine
 10
-78.74583333333333
 20
45.58418155261779
 30
0.0
 11
-78.89555555555556
 21
45.60974474565064
 31
0.0
  0
LINE
  5
1635
330
6F
100
AcDbEntity
  8
GEO_
 62
     7
420
 16777215
100
AcDbLine
 10
-78.89555555555556
 20
45.60974474565064
 30
0.0
 11
-79.16666666666667
 21
45.65273756888168
 31
0.0
  0
LINE
  5
1636
330
6F
100
AcDbEntity
  8
GEO_
 62
     7
420
 16777215
100
AcDbLine
 10
-79.16666666666667
 20
45.65273756888168
 30
0.0
 11
-79.52027777777778
 21
45.7128150475627
 31
0.0
  0
LINE
  5
1668
330
6F
100
AcDbEntity
  8
GEO_
 62
     7
420
 16777215
100
AcDbLine
 10
-77.80833333333333
 20
45.43613751247673
 30
0.0
 11
-77.80833333333333
 21
45.43613751247673
 31
0.0
  0
LINE
  5
166A
330
6F
100
AcDbEntity
  8
GEO_
 62
     7
420
 16777215
100
AcDbLine
 10
-77.80833333333333
 20
45.43613751247673
 30
0.0
 11
-78.3888888888889
 21
45.53048637178898
 31
0.0
  0
LINE
  5
166B
330
6F
100
AcDbEntity
  8
GEO_
 62
     7
420
 16777215
100
AcDbLine
 10
-78.3888888888889
 20
45.53048637178898
 30
0.0
 11
-78.3888888888889
 21
45.53048637178898
 31
0.0
  0
LINE
  5
166C
330
6F
100
AcDbEntity
  8
GEO_
 62
     7
420
 16777215
100
AcDbLine
 10
-78.3888888888889
 20
45.53048637178898
 30
0.0
 11
-77.80833333333333
 21
45.43613751247673
 31
0.0
  0
LINE
  5
166D
330
6F
100
AcDbEntity
  8
GEO_
 62
     7
420
 16777215
100
AcDbLine
 10
-78.3888888888889
 20
45.53048637178898
 30
0.0
 11
-78.74583333333333
 21
45.58418155261779
 31
0.0
  0
LINE
  5
166E
330
6F
100
AcDbEntity
  8
GEO_
 62
     7
420
 16777215
100
AcDbLine
 10
-78.74583333333333
 20
45.58418155261779
 30
0.0
 11
-78.74583333333333
 21
45.58418155261779
 31
0.0
  0
LINE
  5
166F
330
6F
100
AcDbEntity
  8
GEO_
 62
     7
420
 16777215
100
AcDbLine
 10
-78.74583333333333
 20
45.58418155261779
 30
0.0
 11
-78.3888888888889
 21
45.53048637178898
 31
0.0
  0
LINE
  5
1670
330
6F
100
AcDbEntity
  8
GEO_
 62
     7
420
 16777215
100
AcDbLine
 10
-78.74583333333333
 20
45.58418155261779
 30
0.0
 11
-78.89555555555556
 21
45.60974474565064
 31
0.0
  0
LINE
  5
1671
330
6F
100
AcDbEntity
  8
GEO_
 62
     7
420
 16777215
100
AcDbLine
 10
-78.89555555555556
 20
45.60974474565064
 30
0.0
 11
-78.89555555555556
 21
45.60974474565064
 31
0.0
  0
LINE
  5
1672
330
6F
100
AcDbEntity
  8
GEO_
 62
     7
420
 16777215
100
AcDbLine
 10
-78.89555555555556
 20
45.60974474565064
 30
0.0
 11
-78.74583333333333
 21
45.58418155261779
 31
0.0
  0
LINE
  5
1673
330
6F
100
AcDbEntity
  8
GEO_
 62
     7
420
 16777215
100
AcDbLine
 10
-78.89555555555556
 20
45.60974474565064
 30
0.0
 11
-79.16666666666667
 21
45.65273756888168
 31
0.0
  0
LINE
  5
1674
330
6F
100
AcDbEntity
  8
GEO_
 62
     7
420
 16777215
100
AcDbLine
 10
-79.16666666666667
 20
45.65273756888168
 30
0.0
 11
-79.16666666666667
 21
45.65273756888168
 31
0.0
  0
LINE
  5
1675
330
6F
100
AcDbEntity
  8
GEO_
 62
     7
420
 16777215
100
AcDbLine
 10
-79.16666666666667
 20
45.65273756888168
 30
0.0
 11
-78.89555555555556
 21
45.60974474565064
 31
0.0
  0
LINE
  5
1676
330
6F
100
AcDbEntity
  8
GEO_
 62
     7
420
 16777215
100
AcDbLine
 10
-79.16666666666667
 20
45.65273756888168
 30
0.0
 11
-79.52027777777778
 21
45.7128150475627
 31
0.0
  0
LINE
  5
1677
330
6F
100
AcDbEntity
  8
GEO_
 62
     7
420
 16777215
100
AcDbLine
 10
-79.52027777777778
 20
45.7128150475627
 30
0.0
 11
-79.52027777777778
 21
45.7128150475627
 31
0.0
  0
LINE
  5
1678
330
6F
100
AcDbEntity
  8
GEO_
 62
     7
420
 16777215
100
AcDbLine
 10
-79.52027777777778
 20
45.7128150475627
 30
0.0
 11
-79.16666666666667
 21
45.65273756888168
 31
0.0
  0
LINE
  5
169B
330
6F
100
AcDbEntity
  8
GEO_
 62
     7
420
 16777215
100
AcDbLine
 10
-77.80833333333333
 20
45.43613751247673
 30
0.0
 11
-78.3888888888889
 21
45.53048637178898
 31
0.0
  0
LINE
  5
169C
330
6F
100
AcDbEntity
  8
GEO_
 62
     7
420
 16777215
100
AcDbLine
 10
-78.3888888888889
 20
45.53048637178898
 30
0.0
 11
-78.74583333333333
 21
45.58418155261779
 31
0.0
  0
LINE
  5
169D
330
6F
100
AcDbEntity
  8
GEO_
 62
     7
420
 16777215
100
AcDbLine
 10
-78.74583333333333
 20
45.58418155261779
 30
0.0
 11
-78.89555555555556
 21
45.60974474565064
 31
0.0
  0
LINE
  5
169E
330
6F
100
AcDbEntity
  8
GEO_
 62
     7
420
 16777215
100
AcDbLine
 10
-78.89555555555556
 20
45.60974474565064
 30
0.0
 11
-79.16666666666667
 21
45.65273756888168
 31
0.0
  0
LINE
  5
169F
330
6F
100
AcDbEntity
  8
GEO_
 62
     7
420
 16777215
100
AcDbLine
 10
-79.16666666666667
 20
45.65273756888168
 30
0.0
 11
-79.52027777777778
 21
45.7128150475627
 31
0.0
  0
LINE
  5
16B4
330
6F
100
AcDbEntity
  8
GEO_
 62
     7
420
 16777215
100
AcDbLine
 10
-77.80833333333333
 20
45.43613751247673
 30
0.0
 11
-78.3888888888889
 21
45.53048637178898
 31
0.0
  0
LINE
  5
16B5
330
6F
100
AcDbEntity
  8
GEO_
 62
     7
420
 16777215
100
AcDbLine
 10
-78.3888888888889
 20
45.53048637178898
 30
0.0
 11
-78.74583333333333
 21
45.58418155261779
 31
0.0
  0
LINE
  5
16B6
330
6F
100
AcDbEntity
  8
GEO_
 62
     7
420
 16777215
100
AcDbLine
 10
-78.74583333333333
 20
45.58418155261779
 30
0.0
 11
-78.89555555555556
 21
45.60974474565064
 31
0.0
  0
LINE
  5
16B7
330
6F
100
AcDbEntity
  8
GEO_
 62
     7
420
 16777215
100
AcDbLine
 10
-78.89555555555556
 20
45.60974474565064
 30
0.0
 11
-79.16666666666667
 21
45.65273756888168
 31
0.0
  0
LINE
  5
16B8
330
6F
100
AcDbEntity
  8
GEO_
 62
     7
420
 16777215
100
AcDbLine
 10
-79.16666666666667
 20
45.65273756888168
 30
0.0
 11
-79.52027777777778
 21
45.7128150475627
 31
0.0
  0
LINE
  5
16EE
330
6F
100
AcDbEntity
  8
GEO_
 62
     7
420
 16777215
100
AcDbLine
 10
-77.80833333333333
 20
45.43613751247673
 30
0.0
 11
-77.80833333333333
 21
45.43613751247673
 31
0.0
  0
LINE
  5
16F0
330
6F
100
AcDbEntity
  8
GEO_
 62
     7
420
 16777215
100
AcDbLine
 10
-77.80833333333333
 20
45.43613751247673
 30
0.0
 11
-78.3888888888889
 21
45.53048637178898
 31
0.0
  0
LINE
  5
16F1
330
6F
100
AcDbEntity
  8
GEO_
 62
     7
420
 16777215
100
AcDbLine
 10
-78.3888888888889
 20
45.53048637178898
 30
0.0
 11
-78.3888888888889
 21
45.53048637178898
 31
0.0
  0
LINE
  5
16F2
330
6F
100
AcDbEntity
  8
GEO_
 62
     7
420
 16777215
100
AcDbLine
 10
-78.3888888888889
 20
45.53048637178898
 30
0.0
 11
-77.80833333333333
 21
45.43613751247673
 31
0.0
  0
LINE
  5
16F3
330
6F
100
AcDbEntity
  8
GEO_
 62
     7
420
 16777215
100
AcDbLine
 10
-78.3888888888889
 20
45.53048637178898
 30
0.0
 11
-78.74583333333333
 21
45.58418155261779
 31
0.0
  0
LINE
  5
16F4
330
6F
100
AcDbEntity
  8
GEO_
 62
     7
420
 16777215
100
AcDbLine
 10
-78.74583333333333
 20
45.58418155261779
 30
0.0
 11
-78.74583333333333
 21
45.58418155261779
 31
0.0
  0
LINE
  5
16F5
330
6F
100
AcDbEntity
  8
GEO_
 62
     7
420
 16777215
100
AcDbLine
 10
-78.74583333333333
 20
45.58418155261779
 30
0.0
 11
-78.3888888888889
 21
45.53048637178898
 31
0.0
  0
LINE
  5
16F6
330
6F
100
AcDbEntity
  8
GEO_
 62
     7
420
 16777215
100
AcDbLine
 10
-78.74583333333333
 20
45.58418155261779
 30
0.0
 11
-78.89555555555556
 21
45.60974474565064
 31
0.0
  0
LINE
  5
16F7
330
6F
100
AcDbEntity
  8
GEO_
 62
     7
420
 16777215
100
AcDbLine
 10
-78.89555555555556
 20
45.60974474565064
 30
0.0
 11
-78.89555555555556
 21
45.60974474565064
 31
0.0
  0
LINE
  5
16F8
330
6F
100
AcDbEntity
  8
GEO_
 62
     7
420
 16777215
100
AcDbLine
 10
-78.89555555555556
 20
45.60974474565064
 30
0.0
 11
-78.74583333333333
 21
45.58418155261779
 31
0.0
  0
LINE
  5
16F9
330
6F
100
AcDbEntity
  8
GEO_
 62
     7
420
 16777215
100
AcDbLine
 10
-78.89555555555556
 20
45.60974474565064
 30
0.0
 11
-79.16666666666667
 21
45.65273756888168
 31
0.0
  0
LINE
  5
16FA
330
6F
100
AcDbEntity
  8
GEO_
 62
     7
420
 16777215
100
AcDbLine
 10
-79.16666666666667
 20
45.65273756888168
 30
0.0
 11
-79.16666666666667
 21
45.65273756888168
 31
0.0
  0
LINE
  5
16FB
330
6F
100
AcDbEntity
  8
GEO_
 62
     7
420
 16777215
100
AcDbLine
 10
-79.16666666666667
 20
45.65273756888168
 30
0.0
 11
-78.89555555555556
 21
45.60974474565064
 31
0.0
  0
LINE
  5
16FC
330
6F
100
AcDbEntity
  8
GEO_
 62
     7
420
 16777215
100
AcDbLine
 10
-79.16666666666667
 20
45.65273756888168
 30
0.0
 11
-79.52027777777778
 21
45.7128150475627
 31
0.0
  0
LINE
  5
16FD
330
6F
100
AcDbEntity
  8
GEO_
 62
     7
420
 16777215
100
AcDbLine
 10
-79.52027777777778
 20
45.7128150475627
 30
0.0
 11
-79.52027777777778
 21
45.7128150475627
 31
0.0
  0
LINE
  5
16FE
330
6F
100
AcDbEntity
  8
GEO_
 62
     7
420
 16777215
100
AcDbLine
 10
-79.52027777777778
 20
45.7128150475627
 30
0.0
 11
-79.16666666666667
 21
45.65273756888168
 31
0.0
  0
LINE
  5
172A
330
6F
100
AcDbEntity
  8
GEO_
 62
     7
420
 16777215
100
AcDbLine
 10
-80.53333333333332
 20
45.22560995445661
 30
0.0
 11
-80.53333333333332
 21
45.22560995445661
 31
0.0
  0
LINE
  5
173F
330
6F
100
AcDbEntity
  8
GEO_
 62
     7
420
 16777215
100
AcDbLine
 10
-79.92222222222223
 20
45.77330554607272
 30
0.0
 11
-79.98000000000001
 21
45.65829854562909
 31
0.0
  0
LINE
  5
1740
330
6F
100
AcDbEntity
  8
GEO_
 62
     7
420
 16777215
100
AcDbLine
 10
-79.98000000000001
 20
45.65829854562909
 30
0.0
 11
-80.09999999999998
 21
45.29203728926979
 31
0.0
  0
LINE
  5
1741
330
6F
100
AcDbEntity
  8
GEO_
 62
     7
420
 16777215
100
AcDbLine
 10
-80.09999999999998
 20
45.29203728926979
 30
0.0
 11
-80.53333333333332
 21
45.22560995445661
 31
0.0
  0
LINE
  5
174D
330
6F
100
AcDbEntity
  8
GEO_
 62
     7
420
 16777215
100
AcDbLine
 10
-79.92222222222223
 20
45.77330554607272
 30
0.0
 11
-79.98000000000001
 21
45.65829854562909
 31
0.0
  0
LINE
  5
174E
330
6F
100
AcDbEntity
  8
GEO_
 62
     7
420
 16777215
100
AcDbLine
 10
-79.98000000000001
 20
45.65829854562909
 30
0.0
 11
-80.09999999999998
 21
45.29203728926979
 31
0.0
  0
LINE
  5
174F
330
6F
100
AcDbEntity
  8
GEO_
 62
     7
420
 16777215
100
AcDbLine
 10
-80.09999999999998
 20
45.29203728926979
 30
0.0
 11
-80.53333333333332
 21
45.22560995445661
 31
0.0
  0
LINE
  5
1764
330
6F
100
AcDbEntity
  8
GEO_
 62
     7
420
 16777215
100
AcDbLine
 10
-79.92222222222223
 20
45.77330554607272
 30
0.0
 11
-79.92222222222223
 21
45.77330554607272
 31
0.0
  0
LINE
  5
1766
330
6F
100
AcDbEntity
  8
GEO_
 62
     7
420
 16777215
100
AcDbLine
 10
-79.92222222222223
 20
45.77330554607272
 30
0.0
 11
-79.98000000000001
 21
45.65829854562909
 31
0.0
  0
LINE
  5
1767
330
6F
100
AcDbEntity
  8
GEO_
 62
     7
420
 16777215
100
AcDbLine
 10
-79.98000000000001
 20
45.65829854562909
 30
0.0
 11
-79.98000000000001
 21
45.65829854562909
 31
0.0
  0
LINE
  5
1768
330
6F
100
AcDbEntity
  8
GEO_
 62
     7
420
 16777215
100
AcDbLine
 10
-79.98000000000001
 20
45.65829854562909
 30
0.0
 11
-79.92222222222223
 21
45.77330554607272
 31
0.0
  0
LINE
  5
1769
330
6F
100
AcDbEntity
  8
GEO_
 62
     7
420
 16777215
100
AcDbLine
 10
-79.98000000000001
 20
45.65829854562909
 30
0.0
 11
-80.09999999999998
 21
45.29203728926979
 31
0.0
  0
LINE
  5
176A
330
6F
100
AcDbEntity
  8
GEO_
 62
     7
420
 16777215
100
AcDbLine
 10
-80.09999999999998
 20
45.29203728926979
 30
0.0
 11
-80.09999999999998
 21
45.29203728926979
 31
0.0
  0
LINE
  5
176B
330
6F
100
AcDbEntity
  8
GEO_
 62
     7
420
 16777215
100
AcDbLine
 10
-80.09999999999998
 20
45.29203728926979
 30
0.0
 11
-79.98000000000001
 21
45.65829854562909
 31
0.0
  0
LINE
  5
176C
330
6F
100
AcDbEntity
  8
GEO_
 62
     7
420
 16777215
100
AcDbLine
 10
-80.09999999999998
 20
45.29203728926979
 30
0.0
 11
-80.53333333333332
 21
45.22560995445661
 31
0.0
  0
LINE
  5
176D
330
6F
100
AcDbEntity
  8
GEO_
 62
     7
420
 16777215
100
AcDbLine
 10
-80.53333333333332
 20
45.22560995445661
 30
0.0
 11
-80.53333333333332
 21
45.22560995445661
 31
0.0
  0
LINE
  5
176E
330
6F
100
AcDbEntity
  8
GEO_
 62
     7
420
 16777215
100
AcDbLine
 10
-80.53333333333332
 20
45.22560995445661
 30
0.0
 11
-80.09999999999998
 21
45.29203728926979
 31
0.0
  0
LINE
  5
1788
330
6F
100
AcDbEntity
  8
GEO_
 62
     7
420
 16777215
100
AcDbLine
 10
-79.92222222222223
 20
45.77330554607272
 30
0.0
 11
-79.98000000000001
 21
45.65829854562909
 31
0.0
  0
LINE
  5
1789
330
6F
100
AcDbEntity
  8
GEO_
 62
     7
420
 16777215
100
AcDbLine
 10
-79.98000000000001
 20
45.65829854562909
 30
0.0
 11
-80.09999999999998
 21
45.29203728926979
 31
0.0
  0
LINE
  5
178A
330
6F
100
AcDbEntity
  8
GEO_
 62
     7
420
 16777215
100
AcDbLine
 10
-80.09999999999998
 20
45.29203728926979
 30
0.0
 11
-80.53333333333332
 21
45.22560995445661
 31
0.0
  0
LINE
  5
1799
330
6F
100
AcDbEntity
  8
GEO_
 62
     7
420
 16777215
100
AcDbLine
 10
-79.92222222222223
 20
45.77330554607272
 30
0.0
 11
-79.98000000000001
 21
45.65829854562909
 31
0.0
  0
LINE
  5
179A
330
6F
100
AcDbEntity
  8
GEO_
 62
     7
420
 16777215
100
AcDbLine
 10
-79.98000000000001
 20
45.65829854562909
 30
0.0
 11
-80.09999999999998
 21
45.29203728926979
 31
0.0
  0
LINE
  5
179B
330
6F
100
AcDbEntity
  8
GEO_
 62
     7
420
 16777215
100
AcDbLine
 10
-80.09999999999998
 20
45.29203728926979
 30
0.0
 11
-80.53333333333332
 21
45.22560995445661
 31
0.0
  0
LINE
  5
17B3
330
6F
100
AcDbEntity
  8
GEO_
 62
     7
420
 16777215
100
AcDbLine
 10
-79.92222222222223
 20
45.77330554607272
 30
0.0
 11
-79.92222222222223
 21
45.77330554607272
 31
0.0
  0
LINE
  5
17B5
330
6F
100
AcDbEntity
  8
GEO_
 62
     7
420
 16777215
100
AcDbLine
 10
-79.92222222222223
 20
45.77330554607272
 30
0.0
 11
-79.98000000000001
 21
45.65829854562909
 31
0.0
  0
LINE
  5
17B6
330
6F
100
AcDbEntity
  8
GEO_
 62
     7
420
 16777215
100
AcDbLine
 10
-79.98000000000001
 20
45.65829854562909
 30
0.0
 11
-79.98000000000001
 21
45.65829854562909
 31
0.0
  0
LINE
  5
17B7
330
6F
100
AcDbEntity
  8
GEO_
 62
     7
420
 16777215
100
AcDbLine
 10
-79.98000000000001
 20
45.65829854562909
 30
0.0
 11
-79.92222222222223
 21
45.77330554607272
 31
0.0
  0
LINE
  5
17B8
330
6F
100
AcDbEntity
  8
GEO_
 62
     7
420
 16777215
100
AcDbLine
 10
-79.98000000000001
 20
45.65829854562909
 30
0.0
 11
-80.09999999999998
 21
45.29203728926979
 31
0.0
  0
LINE
  5
17B9
330
6F
100
AcDbEntity
  8
GEO_
 62
     7
420
 16777215
100
AcDbLine
 10
-80.09999999999998
 20
45.29203728926979
 30
0.0
 11
-80.09999999999998
 21
45.29203728926979
 31
0.0
  0
LINE
  5
17BA
330
6F
100
AcDbEntity
  8
GEO_
 62
     7
420
 16777215
100
AcDbLine
 10
-80.09999999999998
 20
45.29203728926979
 30
0.0
 11
-79.98000000000001
 21
45.65829854562909
 31
0.0
  0
LINE
  5
17BB
330
6F
100
AcDbEntity
  8
GEO_
 62
     7
420
 16777215
100
AcDbLine
 10
-80.09999999999998
 20
45.29203728926979
 30
0.0
 11
-80.53333333333332
 21
45.22560995445661
 31
0.0
  0
LINE
  5
17BC
330
6F
100
AcDbEntity
  8
GEO_
 62
     7
420
 16777215
100
AcDbLine
 10
-80.53333333333332
 20
45.22560995445661
 30
0.0
 11
-80.53333333333332
 21
45.22560995445661
 31
0.0
  0
LINE
  5
17BD
330
6F
100
AcDbEntity
  8
GEO_
 62
     7
420
 16777215
100
AcDbLine
 10
-80.53333333333332
 20
45.22560995445661
 30
0.0
 11
-80.09999999999998
 21
45.29203728926979
 31
0.0
  0
LINE
  5
1936
330
6F
100
AcDbEntity
  8
GEO_
 62
     7
420
 16777215
100
AcDbLine
 10
-79.52027777777778
 20
45.7128150475627
 30
0.0
 11
-79.77083333333331
 21
45.74361166594754
 31
0.0
  0
LINE
  5
1937
330
6F
100
AcDbEntity
  8
GEO_
 62
     7
420
 16777215
100
AcDbLine
 10
-79.77083333333331
 20
45.74361166594754
 30
0.0
 11
-79.92222222222223
 21
45.77330554607272
 31
0.0
  0
LINE
  5
1951
330
6F
100
AcDbEntity
  8
GEO_
 62
     7
420
 16777215
100
AcDbLine
 10
-79.52027777777778
 20
45.7128150475627
 30
0.0
 11
-79.77083333333331
 21
45.74361166594754
 31
0.0
  0
LINE
  5
1952
330
6F
100
AcDbEntity
  8
GEO_
 62
     7
420
 16777215
100
AcDbLine
 10
-79.77083333333331
 20
45.74361166594754
 30
0.0
 11
-79.92222222222223
 21
45.77330554607272
 31
0.0
  0
LINE
  5
198F
330
6F
100
AcDbEntity
  8
GEO_
 62
     7
420
 16777215
100
AcDbLine
 10
-79.52027777777778
 20
45.7128150475627
 30
0.0
 11
-79.52027777777778
 21
45.7128150475627
 31
0.0
  0
LINE
  5
1991
330
6F
100
AcDbEntity
  8
GEO_
 62
     7
420
 16777215
100
AcDbLine
 10
-79.52027777777778
 20
45.7128150475627
 30
0.0
 11
-79.77083333333331
 21
45.74361166594754
 31
0.0
  0
LINE
  5
1992
330
6F
100
AcDbEntity
  8
GEO_
 62
     7
420
 16777215
100
AcDbLine
 10
-79.77083333333331
 20
45.74361166594754
 30
0.0
 11
-79.77083333333331
 21
45.74361166594754
 31
0.0
  0
LINE
  5
1993
330
6F
100
AcDbEntity
  8
GEO_
 62
     7
420
 16777215
100
AcDbLine
 10
-79.77083333333331
 20
45.74361166594754
 30
0.0
 11
-79.52027777777778
 21
45.7128150475627
 31
0.0
  0
LINE
  5
1994
330
6F
100
AcDbEntity
  8
GEO_
 62
     7
420
 16777215
100
AcDbLine
 10
-79.77083333333331
 20
45.74361166594754
 30
0.0
 11
-79.92222222222223
 21
45.77330554607272
 31
0.0
  0
LINE
  5
1995
330
6F
100
AcDbEntity
  8
GEO_
 62
     7
420
 16777215
100
AcDbLine
 10
-79.92222222222223
 20
45.77330554607272
 30
0.0
 11
-79.92222222222223
 21
45.77330554607272
 31
0.0
  0
LINE
  5
1996
330
6F
100
AcDbEntity
  8
GEO_
 62
     7
420
 16777215
100
AcDbLine
 10
-79.92222222222223
 20
45.77330554607272
 30
0.0
 11
-79.77083333333331
 21
45.74361166594754
 31
0.0
  0
LINE
  5
19BF
330
6F
100
AcDbEntity
  8
GEO_
 62
     7
420
 16777215
100
AcDbLine
 10
-79.52027777777778
 20
45.7128150475627
 30
0.0
 11
-79.77083333333331
 21
45.74361166594754
 31
0.0
  0
LINE
  5
19C0
330
6F
100
AcDbEntity
  8
GEO_
 62
     7
420
 16777215
100
AcDbLine
 10
-79.77083333333331
 20
45.74361166594754
 30
0.0
 11
-79.92222222222223
 21
45.77330554607272
 31
0.0
  0
LINE
  5
19D9
330
6F
100
AcDbEntity
  8
GEO_
 62
     7
420
 16777215
100
AcDbLine
 10
-79.52027777777778
 20
45.7128150475627
 30
0.0
 11
-79.77083333333331
 21
45.74361166594754
 31
0.0
  0
LINE
  5
19DA
330
6F
100
AcDbEntity
  8
GEO_
 62
     7
420
 16777215
100
AcDbLine
 10
-79.77083333333331
 20
45.74361166594754
 30
0.0
 11
-79.92222222222223
 21
45.77330554607272
 31
0.0
  0
LINE
  5
1A14
330
6F
100
AcDbEntity
  8
GEO_
 62
     7
420
 16777215
100
AcDbLine
 10
-79.52027777777778
 20
45.7128150475627
 30
0.0
 11
-79.52027777777778
 21
45.7128150475627
 31
0.0
  0
LINE
  5
1A16
330
6F
100
AcDbEntity
  8
GEO_
 62
     7
420
 16777215
100
AcDbLine
 10
-79.52027777777778
 20
45.7128150475627
 30
0.0
 11
-79.77083333333331
 21
45.74361166594754
 31
0.0
  0
LINE
  5
1A17
330
6F
100
AcDbEntity
  8
GEO_
 62
     7
420
 16777215
100
AcDbLine
 10
-79.77083333333331
 20
45.74361166594754
 30
0.0
 11
-79.77083333333331
 21
45.74361166594754
 31
0.0
  0
LINE
  5
1A18
330
6F
100
AcDbEntity
  8
GEO_
 62
     7
420
 16777215
100
AcDbLine
 10
-79.77083333333331
 20
45.74361166594754
 30
0.0
 11
-79.52027777777778
 21
45.7128150475627
 31
0.0
  0
LINE
  5
1A19
330
6F
100
AcDbEntity
  8
GEO_
 62
     7
420
 16777215
100
AcDbLine
 10
-79.77083333333331
 20
45.74361166594754
 30
0.0
 11
-79.92222222222223
 21
45.77330554607272
 31
0.0
  0
LINE
  5
1A1A
330
6F
100
AcDbEntity
  8
GEO_
 62
     7
420
 16777215
100
AcDbLine
 10
-79.92222222222223
 20
45.77330554607272
 30
0.0
 11
-79.92222222222223
 21
45.77330554607272
 31
0.0
  0
LINE
  5
1A1B
330
6F
100
AcDbEntity
  8
GEO_
 62
     7
420
 16777215
100
AcDbLine
 10
-79.92222222222223
 20
45.77330554607272
 30
0.0
 11
-79.77083333333331
 21
45.74361166594754
 31
0.0
  0
LINE
  5
1A44
330
6F
100
AcDbEntity
  8
GEO_
 62
     7
420
 16777215
100
AcDbLine
 10
-79.52027777777778
 20
45.7128150475627
 30
0.0
 11
-79.77083333333331
 21
45.74361166594754
 31
0.0
  0
LINE
  5
1A45
330
6F
100
AcDbEntity
  8
GEO_
 62
     7
420
 16777215
100
AcDbLine
 10
-79.77083333333331
 20
45.74361166594754
 30
0.0
 11
-79.92222222222223
 21
45.77330554607272
 31
0.0
  0
LINE
  5
1A5C
330
6F
100
AcDbEntity
  8
GEO_
 62
     7
420
 16777215
100
AcDbLine
 10
-79.52027777777778
 20
45.7128150475627
 30
0.0
 11
-79.77083333333331
 21
45.74361166594754
 31
0.0
  0
LINE
  5
1A5D
330
6F
100
AcDbEntity
  8
GEO_
 62
     7
420
 16777215
100
AcDbLine
 10
-79.77083333333331
 20
45.74361166594754
 30
0.0
 11
-79.92222222222223
 21
45.77330554607272
 31
0.0
  0
LINE
  5
1A95
330
6F
100
AcDbEntity
  8
GEO_
 62
     7
420
 16777215
100
AcDbLine
 10
-79.52027777777778
 20
45.7128150475627
 30
0.0
 11
-79.52027777777778
 21
45.7128150475627
 31
0.0
  0
LINE
  5
1A97
330
6F
100
AcDbEntity
  8
GEO_
 62
     7
420
 16777215
100
AcDbLine
 10
-79.52027777777778
 20
45.7128150475627
 30
0.0
 11
-79.77083333333331
 21
45.74361166594754
 31
0.0
  0
LINE
  5
1A98
330
6F
100
AcDbEntity
  8
GEO_
 62
     7
420
 16777215
100
AcDbLine
 10
-79.77083333333331
 20
45.74361166594754
 30
0.0
 11
-79.77083333333331
 21
45.74361166594754
 31
0.0
  0
LINE
  5
1A99
330
6F
100
AcDbEntity
  8
GEO_
 62
     7
420
 16777215
100
AcDbLine
 10
-79.77083333333331
 20
45.74361166594754
 30
0.0
 11
-79.52027777777778
 21
45.7128150475627
 31
0.0
  0
LINE
  5
1A9A
330
6F
100
AcDbEntity
  8
GEO_
 62
     7
420
 16777215
100
AcDbLine
 10
-79.77083333333331
 20
45.74361166594754
 30
0.0
 11
-79.92222222222223
 21
45.77330554607272
 31
0.0
  0
LINE
  5
1A9B
330
6F
100
AcDbEntity
  8
GEO_
 62
     7
420
 16777215
100
AcDbLine
 10
-79.92222222222223
 20
45.77330554607272
 30
0.0
 11
-79.92222222222223
 21
45.77330554607272
 31
0.0
  0
LINE
  5
1A9C
330
6F
100
AcDbEntity
  8
GEO_
 62
     7
420
 16777215
100
AcDbLine
 10
-79.92222222222223
 20
45.77330554607272
 30
0.0
 11
-79.77083333333331
 21
45.74361166594754
 31
0.0
  0
ENDSEC
  0
SECTION
  2
OBJECTS
  0
DICTIONARY
  5
C
330
0
100
AcDbDictionary
281
     1
  3
ACAD_BACKGROUND
350
1AB7
  3
ACAD_CIP_PREVIOUS_PRODUCT_INFO
350
1AB0
  3
ACAD_COLOR
350
62
  3
ACAD_DETAILVIEWSTYLE
350
69
  3
ACAD_GROUP
350
D
  3
ACAD_LAYOUT
350
61
  3
ACAD_MATERIAL
350
10
  3
ACAD_MLEADERSTYLE
350
65
  3
ACAD_MLINESTYLE
350
5E
  3
ACAD_PLOTSETTINGS
350
60
  3
ACAD_PLOTSTYLENAME
350
E
  3
ACAD_SCALELIST
350
42
  3
ACAD_SECTIONVIEWSTYLE
350
67
  3
ACAD_TABLESTYLE
350
63
  3
ACAD_VISUALSTYLE
350
29
  3
ACDB_RECOMPOSE_DATA
350
1AEC
  3
AcDbVariableDictionary
350
1ABA
  0
DICTIONARY
  5
1ACD
330
54
100
AcDbDictionary
280
     1
281
     1
  3
ADSK_XREC_LAYER_RECONCILED
360
1ACE
  0
DICTIONARY
  5
1ACF
330
73
100
AcDbDictionary
280
     1
281
     1
  3
ADSK_XREC_LAYER_RECONCILED
360
1AD0
  0
DICTIONARY
  5
1AD1
330
74
100
AcDbDictionary
280
     1
281
     1
  3
ADSK_XREC_LAYER_RECONCILED
360
1AD2
  0
DICTIONARY
  5
1AD3
330
75
100
AcDbDictionary
280
     1
281
     1
  3
ADSK_XREC_LAYER_RECONCILED
360
1AD4
  0
DICTIONARY
  5
1AD5
330
76
100
AcDbDictionary
280
     1
281
     1
  3
ADSK_XREC_LAYER_RECONCILED
360
1AD6
  0
DICTIONARY
  5
1AD7
330
77
100
AcDbDictionary
280
     1
281
     1
  3
ADSK_XREC_LAYER_RECONCILED
360
1AD8
  0
DICTIONARY
  5
1AD9
330
78
100
AcDbDictionary
280
     1
281
     1
  3
ADSK_XREC_LAYER_RECONCILED
360
1ADA
  0
DICTIONARY
  5
1ADB
330
9B
100
AcDbDictionary
280
     1
281
     1
  3
ADSK_XREC_LAYER_RECONCILED
360
1ADC
  0
DICTIONARY
  5
1AB7
102
{ACAD_REACTORS
330
C
102
}
330
C
100
AcDbDictionary
281
     1
  0
XRECORD
  5
1AB0
102
{ACAD_REACTORS
330
C
102
}
330
C
100
AcDbXrecord
280
     1
300
ACD
300
2019
300
ACD_F_S
  0
DICTIONARY
  5
62
102
{ACAD_REACTORS
330
C
102
}
330
C
100
AcDbDictionary
281
     1
  0
DICTIONARY
  5
69
102
{ACAD_REACTORS
330
C
102
}
330
C
100
AcDbDictionary
281
     1
  3
Imperial24
350
6A
  0
DICTIONARY
  5
D
102
{ACAD_REACTORS
330
C
102
}
330
C
100
AcDbDictionary
281
     1
  0
DICTIONARY
  5
61
102
{ACAD_REACTORS
330
C
102
}
330
C
100
AcDbDictionary
281
     1
  3
Layout1
350
6E
  3
Model
350
72
  0
DICTIONARY
  5
10
102
{ACAD_REACTORS
330
C
102
}
330
C
100
AcDbDictionary
281
     1
  3
ByBlock
350
19
  3
ByLayer
350
11
  3
Global
350
21
  0
DICTIONARY
  5
65
102
{ACAD_REACTORS
330
C
102
}
330
C
100
AcDbDictionary
281
     1
  3
Standard
350
66
  0
DICTIONARY
  5
5E
102
{ACAD_REACTORS
330
C
102
}
330
C
100
AcDbDictionary
281
     1
  3
Standard
350
5F
  0
DICTIONARY
  5
60
102
{ACAD_REACTORS
330
C
102
}
330
C
100
AcDbDictionary
281
     1
  0
ACDBDICTIONARYWDFLT
  5
E
102
{ACAD_REACTORS
330
C
102
}
330
C
100
AcDbDictionary
281
     1
  3
Normal
350
F
100
AcDbDictionaryWithDefault
340
F
  0
DICTIONARY
  5
42
102
{ACAD_REACTORS
330
C
102
}
330
C
100
AcDbDictionary
281
     1
  3
A0
350
43
  3
A1
350
44
  3
A2
350
45
  3
A3
350
46
  3
A4
350
47
  3
A5
350
48
  3
A6
350
49
  3
A7
350
4A
  3
A8
350
4B
  3
A9
350
4C
  3
B0
350
4D
  3
B1
350
4E
  3
B2
350
4F
  3
B3
350
50
  3
B4
350
51
  3
B5
350
52
  3
B6
350
53
  0
DICTIONARY
  5
67
102
{ACAD_REACTORS
330
C
102
}
330
C
100
AcDbDictionary
281
     1
  3
Imperial24
350
68
  0
DICTIONARY
  5
63
102
{ACAD_REACTORS
330
C
102
}
330
C
100
AcDbDictionary
281
     1
  3
Standard
350
64
  0
DICTIONARY
  5
29
102
{ACAD_REACTORS
330
C
102
}
330
C
100
AcDbDictionary
281
     1
  3
2dWireframe
350
2F
  3
Basic
350
2E
  3
Brighten
350
35
  3
ColorChange
350
39
  3
Conceptual
350
32
  3
Dim
350
34
  3
EdgeColorOff
350
41
  3
Facepattern
350
38
  3
Flat
350
2A
  3
FlatWithEdges
350
2B
  3
Gouraud
350
2C
  3
GouraudWithEdges
350
2D
  3
Hidden
350
31
  3
JitterOff
350
3F
  3
Linepattern
350
37
  3
OverhangOff
350
40
  3
Realistic
350
33
  3
Shaded
350
3E
  3
Shaded with edges
350
3D
  3
Shades of Gray
350
3A
  3
Sketchy
350
3B
  3
Thicken
350
36
  3
Wireframe
350
30
  3
X-Ray
350
3C
  0
XRECORD
  5
1AEC
102
{ACAD_REACTORS
330
C
102
}
330
C
100
AcDbXrecord
280
     1
 90
        1
330
64
  0
DICTIONARY
  5
1ABA
102
{ACAD_REACTORS
330
C
102
}
330
C
100
AcDbDictionary
281
     1
  3
CANNOSCALE
350
1AC0
  3
CMLEADERSTYLE
350
1ABC
  3
CTABLESTYLE
350
1ABB
  3
CVIEWDETAILSTYLE
350
1ABD
  3
CVIEWSECTIONSTYLE
350
1ABE
  3
LAYEREVAL
350
1AC2
  3
LAYERNOTIFY
350
1AC3
  3
LIGHTINGUNITS
350
1AC1
  3
MSLTSCALE
350
1ABF
  0
XRECORD
  5
1ACE
102
{ACAD_REACTORS
330
1ACD
102
}
330
1ACD
100
AcDbXrecord
280
     1
290
     1
  0
XRECORD
  5
1AD0
102
{ACAD_REACTORS
330
1ACF
102
}
330
1ACF
100
AcDbXrecord
280
     1
290
     1
  0
XRECORD
  5
1AD2
102
{ACAD_REACTORS
330
1AD1
102
}
330
1AD1
100
AcDbXrecord
280
     1
290
     1
  0
XRECORD
  5
1AD4
102
{ACAD_REACTORS
330
1AD3
102
}
330
1AD3
100
AcDbXrecord
280
     1
290
     1
  0
XRECORD
  5
1AD6
102
{ACAD_REACTORS
330
1AD5
102
}
330
1AD5
100
AcDbXrecord
280
     1
290
     1
  0
XRECORD
  5
1AD8
102
{ACAD_REACTORS
330
1AD7
102
}
330
1AD7
100
AcDbXrecord
280
     1
290
     1
  0
XRECORD
  5
1ADA
102
{ACAD_REACTORS
330
1AD9
102
}
330
1AD9
100
AcDbXrecord
280
     1
290
     1
  0
XRECORD
  5
1ADC
102
{ACAD_REACTORS
330
1ADB
102
}
330
1ADB
100
AcDbXrecord
280
     1
290
     1
  0
ACDBDETAILVIEWSTYLE
  5
6A
102
{ACAD_REACTORS
330
69
102
}
330
69
100
AcDbModelDocViewStyle
 70
     0
  3
Imperial24
290
     0
300
Imperial24
 90
        0
100
AcDbDetailViewStyle
 70
     0
 71
     0
 90
        3
 71
     1
340
55
 62
   256
 40
0.24
340
0
 62
   256
 40
0.24
300

 40
0.36
280
     3
 71
     2
340
5C
 90
       25
 62
   256
 71
     3
340
55
 62
   256
 40
0.24
 90
        1
 40
0.75
 90
        1
300
%<\AcVar ViewType \f "%tc1">% %<\AcVar ViewDetailId>%\PSCALE %<\AcVar ViewScale \f "%sn">%
 71
     4
340
5C
 90
       25
 62
   256
340
5C
 90
       25
 62
   256
280
     0
  0
LAYOUT
  5
6E
102
{ACAD_REACTORS
330
61
102
}
330
61
100
AcDbPlotSettings
  1

  2
\\hpoffice\HP Photosmart Prem C410 series
  4

  6

 40
0.0
 41
0.0
 42
0.0
 43
0.0
 44
0.0
 45
0.0
 46
0.0
 47
0.0
 48
0.0
 49
0.0
140
0.0
141
0.0
142
1.0
143
1.0
 70
   688
 72
     0
 73
     0
 74
     5
  7

 75
    16
147
1.0
 76
     0
 77
     2
 78
   300
148
0.0
149
0.0
100
AcDbLayout
  1
Layout1
 70
     1
 71
     1
 10
0.0
 20
0.0
 11
12.0
 21
9.0
 12
0.0
 22
0.0
 32
0.0
 14
1.000000000000000E+20
 24
1.000000000000000E+20
 34
1.000000000000000E+20
 15
-1.000000000000000E+20
 25
-1.000000000000000E+20
 35
-1.000000000000000E+20
146
0.0
 13
0.0
 23
0.0
 33
0.0
 16
1.0
 26
0.0
 36
0.0
 17
0.0
 27
1.0
 37
0.0
 76
     0
330
6B
  0
LAYOUT
  5
72
102
{ACAD_REACTORS
330
61
102
}
330
61
100
AcDbPlotSettings
  1

  2
\\hpoffice\HP Photosmart Prem C410 series
  4

  6

 40
0.0
 41
0.0
 42
0.0
 43
0.0
 44
0.0
 45
0.0
 46
0.0
 47
0.0
 48
0.0
 49
0.0
140
0.0
141
0.0
142
1.0
143
1.0
 70
  1712
 72
     0
 73
     0
 74
     0
  7

 75
     0
147
1.0
 76
     0
 77
     2
 78
   300
148
0.0
149
0.0
100
AcDbLayout
  1
Model
 70
     1
 71
     0
 10
0.0
 20
0.0
 11
12.0
 21
9.0
 12
0.0
 22
0.0
 32
0.0
 14
0.0
 24
0.0
 34
0.0
 15
0.0
 25
0.0
 35
0.0
146
0.0
 13
0.0
 23
0.0
 33
0.0
 16
1.0
 26
0.0
 36
0.0
 17
0.0
 27
1.0
 37
0.0
 76
     0
330
6F
331
7B
  0
MATERIAL
  5
19
102
{ACAD_XDICTIONARY
360
1A
102
}
102
{ACAD_REACTORS
330
10
102
}
330
10
100
AcDbMaterial
  1
ByBlock
 72
     0
 43
0.0208333333333333
 43
0.0
 43
0.0
 43
0.0
 43
0.0
 43
0.0208333333333333
 43
0.0
 43
0.0
 43
0.0
 43
0.0
 43
1.0
 43
0.0
 43
0.0
 43
0.0
 43
0.0
 43
1.0
 77
     0
 47
0.0208333333333333
 47
0.0
 47
0.0
 47
0.0
 47
0.0
 47
0.0208333333333333
 47
0.0
 47
0.0
 47
0.0
 47
0.0
 47
1.0
 47
0.0
 47
0.0
 47
0.0
 47
0.0
 47
1.0
171
     0
 49
0.0208333333333333
 49
0.0
 49
0.0
 49
0.0
 49
0.0
 49
0.0208333333333333
 49
0.0
 49
0.0
 49
0.0
 49
0.0
 49
1.0
 49
0.0
 49
0.0
 49
0.0
 49
0.0
 49
1.0
175
     0
142
0.0208333333333333
142
0.0
142
0.0
142
0.0
142
0.0
142
0.0208333333333333
142
0.0
142
0.0
142
0.0
142
0.0
142
1.0
142
0.0
142
0.0
142
0.0
142
0.0
142
1.0
179
     0
144
0.0208333333333333
144
0.0
144
0.0
144
0.0
144
0.0
144
0.0208333333333333
144
0.0
144
0.0
144
0.0
144
0.0
144
1.0
144
0.0
144
0.0
144
0.0
144
0.0
144
1.0
147
0.0208333333333333
147
0.0
147
0.0
147
0.0
147
0.0
147
0.0208333333333333
147
0.0
147
0.0
147
0.0
147
0.0
147
1.0
147
0.0
147
0.0
147
0.0
147
0.0
147
1.0
  0
MATERIAL
  5
11
102
{ACAD_XDICTIONARY
360
12
102
}
102
{ACAD_REACTORS
330
10
102
}
330
10
100
AcDbMaterial
  1
ByLayer
 72
     0
 43
0.0208333333333333
 43
0.0
 43
0.0
 43
0.0
 43
0.0
 43
0.0208333333333333
 43
0.0
 43
0.0
 43
0.0
 43
0.0
 43
1.0
 43
0.0
 43
0.0
 43
0.0
 43
0.0
 43
1.0
 77
     0
 47
0.0208333333333333
 47
0.0
 47
0.0
 47
0.0
 47
0.0
 47
0.0208333333333333
 47
0.0
 47
0.0
 47
0.0
 47
0.0
 47
1.0
 47
0.0
 47
0.0
 47
0.0
 47
0.0
 47
1.0
171
     0
 49
0.0208333333333333
 49
0.0
 49
0.0
 49
0.0
 49
0.0
 49
0.0208333333333333
 49
0.0
 49
0.0
 49
0.0
 49
0.0
 49
1.0
 49
0.0
 49
0.0
 49
0.0
 49
0.0
 49
1.0
175
     0
142
0.0208333333333333
142
0.0
142
0.0
142
0.0
142
0.0
142
0.0208333333333333
142
0.0
142
0.0
142
0.0
142
0.0
142
1.0
142
0.0
142
0.0
142
0.0
142
0.0
142
1.0
179
     0
144
0.0208333333333333
144
0.0
144
0.0
144
0.0
144
0.0
144
0.0208333333333333
144
0.0
144
0.0
144
0.0
144
0.0
144
1.0
144
0.0
144
0.0
144
0.0
144
0.0
144
1.0
147
0.0208333333333333
147
0.0
147
0.0
147
0.0
147
0.0
147
0.0208333333333333
147
0.0
147
0.0
147
0.0
147
0.0
147
1.0
147
0.0
147
0.0
147
0.0
147
0.0
147
1.0
  0
MATERIAL
  5
21
102
{ACAD_XDICTIONARY
360
22
102
}
102
{ACAD_REACTORS
330
10
102
}
330
10
100
AcDbMaterial
  1
Global
 72
     0
 43
0.0208333333333333
 43
0.0
 43
0.0
 43
0.0
 43
0.0
 43
0.0208333333333333
 43
0.0
 43
0.0
 43
0.0
 43
0.0
 43
1.0
 43
0.0
 43
0.0
 43
0.0
 43
0.0
 43
1.0
 77
     0
 47
0.0208333333333333
 47
0.0
 47
0.0
 47
0.0
 47
0.0
 47
0.0208333333333333
 47
0.0
 47
0.0
 47
0.0
 47
0.0
 47
1.0
 47
0.0
 47
0.0
 47
0.0
 47
0.0
 47
1.0
171
     0
 49
0.0208333333333333
 49
0.0
 49
0.0
 49
0.0
 49
0.0
 49
0.0208333333333333
 49
0.0
 49
0.0
 49
0.0
 49
0.0
 49
1.0
 49
0.0
 49
0.0
 49
0.0
 49
0.0
 49
1.0
175
     0
142
0.0208333333333333
142
0.0
142
0.0
142
0.0
142
0.0
142
0.0208333333333333
142
0.0
142
0.0
142
0.0
142
0.0
142
1.0
142
0.0
142
0.0
142
0.0
142
0.0
142
1.0
179
     0
144
0.0208333333333333
144
0.0
144
0.0
144
0.0
144
0.0
144
0.0208333333333333
144
0.0
144
0.0
144
0.0
144
0.0
144
1.0
144
0.0
144
0.0
144
0.0
144
0.0
144
1.0
147
0.0208333333333333
147
0.0
147
0.0
147
0.0
147
0.0
147
0.0208333333333333
147
0.0
147
0.0
147
0.0
147
0.0
147
1.0
147
0.0
147
0.0
147
0.0
147
0.0
147
1.0
  0
MLEADERSTYLE
  5
66
102
{ACAD_REACTORS
330
65
102
}
330
65
100
AcDbMLeaderStyle
179
     2
170
     2
171
     1
172
     0
 90
        2
 40
0.0
 41
0.0
173
     1
 91
-1056964608
340
5A
 92
       -2
290
     1
 42
0.09
291
     1
 43
0.36
  3
Standard
 44
0.18
300

342
55
174
     1
178
     6
175
     1
176
     0
 93
-1056964608
 45
0.18
292
     0
297
     0
 46
0.18
 94
-1056964608
 47
1.0
 49
1.0
140
1.0
293
     1
141
0.0
294
     1
177
     0
142
1.0
295
     0
296
     0
143
0.125
271
     0
272
     9
273
     9
298
     0
  0
MLINESTYLE
  5
5F
102
{ACAD_REACTORS
330
5E
102
}
330
5E
100
AcDbMlineStyle
  2
STANDARD
 70
     0
  3

 62
   256
 51
90.0
 52
90.0
 71
     2
 49
0.5
 62
   256
  6
BYLAYER
 49
-0.5
 62
   256
  6
BYLAYER
  0
ACDBPLACEHOLDER
  5
F
102
{ACAD_REACTORS
330
E
102
}
330
E
  0
SCALE
  5
43
102
{ACAD_REACTORS
330
42
102
}
330
42
100
AcDbScale
 70
     0
300
1:1
140
1.0
141
1.0
290
     1
  0
SCALE
  5
44
102
{ACAD_REACTORS
330
42
102
}
330
42
100
AcDbScale
 70
     0
300
1/128" = 1'-0"
140
0.0078125
141
12.0
290
     0
  0
SCALE
  5
45
102
{ACAD_REACTORS
330
42
102
}
330
42
100
AcDbScale
 70
     0
300
1/64" = 1'-0"
140
0.015625
141
12.0
290
     0
  0
SCALE
  5
46
102
{ACAD_REACTORS
330
42
102
}
330
42
100
AcDbScale
 70
     0
300
1/32" = 1'-0"
140
0.03125
141
12.0
290
     0
  0
SCALE
  5
47
102
{ACAD_REACTORS
330
42
102
}
330
42
100
AcDbScale
 70
     0
300
1/16" = 1'-0"
140
0.0625
141
12.0
290
     0
  0
SCALE
  5
48
102
{ACAD_REACTORS
330
42
102
}
330
42
100
AcDbScale
 70
     0
300
3/32" = 1'-0"
140
0.09375
141
12.0
290
     0
  0
SCALE
  5
49
102
{ACAD_REACTORS
330
42
102
}
330
42
100
AcDbScale
 70
     0
300
1/8" = 1'-0"
140
0.125
141
12.0
290
     0
  0
SCALE
  5
4A
102
{ACAD_REACTORS
330
42
102
}
330
42
100
AcDbScale
 70
     0
300
3/16" = 1'-0"
140
0.1875
141
12.0
290
     0
  0
SCALE
  5
4B
102
{ACAD_REACTORS
330
42
102
}
330
42
100
AcDbScale
 70
     0
300
1/4" = 1'-0"
140
0.25
141
12.0
290
     0
  0
SCALE
  5
4C
102
{ACAD_REACTORS
330
42
102
}
330
42
100
AcDbScale
 70
     0
300
3/8" = 1'-0"
140
0.375
141
12.0
290
     0
  0
SCALE
  5
4D
102
{ACAD_REACTORS
330
42
102
}
330
42
100
AcDbScale
 70
     0
300
1/2" = 1'-0"
140
0.5
141
12.0
290
     0
  0
SCALE
  5
4E
102
{ACAD_REACTORS
330
42
102
}
330
42
100
AcDbScale
 70
     0
300
3/4" = 1'-0"
140
0.75
141
12.0
290
     0
  0
SCALE
  5
4F
102
{ACAD_REACTORS
330
42
102
}
330
42
100
AcDbScale
 70
     0
300
1" = 1'-0"
140
1.0
141
12.0
290
     0
  0
SCALE
  5
50
102
{ACAD_REACTORS
330
42
102
}
330
42
100
AcDbScale
 70
     0
300
1-1/2" = 1'-0"
140
1.5
141
12.0
290
     0
  0
SCALE
  5
51
102
{ACAD_REACTORS
330
42
102
}
330
42
100
AcDbScale
 70
     0
300
3" = 1'-0"
140
3.0
141
12.0
290
     0
  0
SCALE
  5
52
102
{ACAD_REACTORS
330
42
102
}
330
42
100
AcDbScale
 70
     0
300
6" = 1'-0"
140
6.0
141
12.0
290
     0
  0
SCALE
  5
53
102
{ACAD_REACTORS
330
42
102
}
330
42
100
AcDbScale
 70
     0
300
1'-0" = 1'-0"
140
12.0
141
12.0
290
     0
  0
ACDBSECTIONVIEWSTYLE
  5
68
102
{ACAD_REACTORS
330
67
102
}
330
67
100
AcDbModelDocViewStyle
 70
     0
  3
Imperial24
290
     0
300
Imperial24
 90
        0
100
AcDbSectionViewStyle
 70
     0
 71
     0
 90
       78
 71
     1
340
55
 62
   256
 40
0.24
340
0
340
0
 62
   256
 40
0.24
300
I, O, Q, S, X, Z
 40
0.48
 90
        3
 40
0.18
 90
        1
 71
     2
340
5C
 90
       25
 62
   256
340
5C
 90
       50
 62
   256
 40
0.24
 40
0.0
 40
0.24
 71
     3
340
55
 62
   256
 40
0.24
 90
        1
 40
0.75
 90
        1
300
%<\AcVar ViewType \f "%tc1">% %<\AcVar ViewSectionStartId>%-%<\AcVar ViewSectionEndId>%\PSCALE %<\AcVar ViewScale \f "%sn">%
 71
     4
 62
   256
 62
   257
300
ANSI31
 40
1.0
 90
        0
290
     0
290
     0
 90
        6
 40
0.0
 40
1.570796326794896
 40
0.2617993877991494
 40
1.308996938995747
 40
-0.2617993877991494
 40
1.832595714594044
  0
TABLESTYLE
  5
64
102
{ACAD_XDICTIONARY
360
1AC5
102
}
102
{ACAD_REACTORS
330
63
102
}
330
63
100
AcDbTableStyle
280
     0
  3
Standard
 70
     0
 71
     0
 40
0.06
 41
0.06
280
     0
281
     0
  7
STANDARD
140
0.18
170
     2
 62
     0
 63
     7
283
     0
 90
      512
 91
        0
  1

274
    -2
284
     1
 64
     0
275
    -2
285
     1
 65
     0
276
    -2
286
     1
 66
     0
277
    -2
287
     1
 67
     0
278
    -2
288
     1
 68
     0
279
    -2
289
     1
 69
     0
  7
STANDARD
140
0.25
170
     5
 62
     0
 63
     7
283
     0
 90
      512
 91
        0
  1

274
    -2
284
     1
 64
     0
275
    -2
285
     1
 65
     0
276
    -2
286
     1
 66
     0
277
    -2
287
     1
 67
     0
278
    -2
288
     1
 68
     0
279
    -2
289
     1
 69
     0
  7
STANDARD
140
0.18
170
     5
 62
     0
 63
     7
283
     0
 90
      512
 91
        0
  1

274
    -2
284
     1
 64
     0
275
    -2
285
     1
 65
     0
276
    -2
286
     1
 66
     0
277
    -2
287
     1
 67
     0
278
    -2
288
     1
 68
     0
279
    -2
289
     1
 69
     0
  0
VISUALSTYLE
  5
2F
102
{ACAD_REACTORS
330
29
102
}
330
29
100
AcDbVisualStyle
  2
2dWireframe
 70
     4
177
     3
291
     0
 70
    58
 90
        0
176
     1
 90
        2
176
     1
 90
        0
176
     1
 90
        0
176
     1
 40
0.6
176
     1
 40
30.0
176
     1
 62
     7
420
 16777215
176
     1
 90
        1
176
     1
 90
        4
176
     1
 62
     7
176
     1
 62
   257
176
     1
 90
        1
176
     1
 90
        1
176
     1
 40
1.0
176
     1
 90
        0
176
     1
 62
   257
176
     1
 40
1.0
176
     1
 90
        1
176
     1
 90
        6
176
     1
 90
        2
176
     1
 62
     7
176
     1
 90
        5
176
     1
 90
        0
176
     1
 90
        0
176
     1
290
     0
176
     1
 90
        1
176
     1
 40
0.0
176
     1
 90
        0
176
     1
290
     1
176
     1
290
     1
176
     1
290
     0
176
     1
290
     0
176
     1
290
     0
176
     1
290
     0
176
     1
290
     0
176
     1
290
     0
176
     1
290
     0
176
     1
 90
       50
176
     1
 40
0.0
176
     1
 40
1.0
176
     1
 90
        0
176
     1
 62
    18
176
     1
 90
       50
176
     1
 90
        3
176
     1
 62
     5
420
      255
176
     1
290
     0
176
     1
 90
       50
176
     1
 90
       50
176
     1
 90
       50
176
     1
290
     0
176
     1
 90
       50
176
     1
 62
   256
176
     0
 40
1.0
176
     0
 90
        2
176
     1
  1
strokes_ogs.tif
176
     1
290
     0
176
     1
 40
1.0
176
     1
 40
1.0
176
     1
  0
VISUALSTYLE
  5
2E
102
{ACAD_REACTORS
330
29
102
}
330
29
100
AcDbVisualStyle
  2
Basic
 70
     7
177
     3
291
     1
 70
    58
 90
        1
176
     1
 90
        0
176
     1
 90
        1
176
     1
 90
        0
176
     1
 40
0.6
176
     1
 40
30.0
176
     1
 62
     7
420
 16777215
176
     1
 90
        0
176
     1
 90
        4
176
     1
 62
     7
176
     1
 62
   257
176
     1
 90
        1
176
     1
 90
        1
176
     1
 40
1.0
176
     1
 90
        8
176
     1
 62
     7
176
     1
 40
1.0
176
     1
 90
        1
176
     1
 90
        6
176
     1
 90
        2
176
     1
 62
     7
176
     1
 90
        5
176
     1
 90
        0
176
     1
 90
        0
176
     1
290
     0
176
     1
 90
        1
176
     1
 40
0.0
176
     1
 90
        0
176
     1
290
     0
176
     1
290
     1
176
     1
290
     1
176
     1
290
     0
176
     1
290
     0
176
     1
290
     0
176
     1
290
     0
176
     1
290
     0
176
     1
290
     0
176
     1
 90
       50
176
     1
 40
0.0
176
     1
 40
1.0
176
     1
 90
        0
176
     1
 62
    18
176
     1
 90
       50
176
     1
 90
        3
176
     1
 62
     5
420
      255
176
     1
290
     0
176
     1
 90
       50
176
     1
 90
       50
176
     1
 90
       50
176
     1
290
     0
176
     1
 90
       50
176
     1
 62
   256
176
     0
 40
1.0
176
     0
 90
        2
176
     1
  1
strokes_ogs.tif
176
     1
290
     0
176
     1
 40
1.0
176
     1
 40
1.0
176
     1
  0
VISUALSTYLE
  5
35
102
{ACAD_REACTORS
330
29
102
}
330
29
100
AcDbVisualStyle
  2
Brighten
 70
    12
177
     3
291
     1
 70
    58
 90
        2
176
     1
 90
        2
176
     1
 90
        0
176
     1
 90
        0
176
     1
 40
0.6
176
     1
 40
30.0
176
     1
 62
     7
420
 16777215
176
     1
 90
        1
176
     1
 90
        4
176
     1
 62
     7
176
     1
 62
   257
176
     1
 90
        1
176
     1
 90
        1
176
     1
 40
1.0
176
     1
 90
        8
176
     1
 62
     7
176
     1
 40
1.0
176
     1
 90
        1
176
     1
 90
        6
176
     1
 90
        2
176
     1
 62
     7
176
     1
 90
        5
176
     1
 90
        0
176
     1
 90
        0
176
     1
290
     0
176
     1
 90
        1
176
     1
 40
50.0
176
     1
 90
        0
176
     1
290
     0
176
     1
290
     1
176
     1
290
     1
176
     1
290
     0
176
     1
290
     0
176
     1
290
     0
176
     1
290
     0
176
     1
290
     0
176
     1
290
     0
176
     1
 90
       50
176
     1
 40
0.0
176
     1
 40
1.0
176
     1
 90
        0
176
     1
 62
    18
176
     1
 90
       50
176
     1
 90
        3
176
     1
 62
     5
420
      255
176
     1
290
     0
176
     1
 90
       50
176
     1
 90
       50
176
     1
 90
       50
176
     1
290
     0
176
     1
 90
       50
176
     1
 62
   256
176
     0
 40
1.0
176
     0
 90
        2
176
     1
  1
strokes_ogs.tif
176
     1
290
     0
176
     1
 40
1.0
176
     1
 40
1.0
176
     1
  0
VISUALSTYLE
  5
39
102
{ACAD_REACTORS
330
29
102
}
330
29
100
AcDbVisualStyle
  2
ColorChange
 70
    16
177
     3
291
     1
 70
    58
 90
        2
176
     1
 90
        2
176
     1
 90
        3
176
     1
 90
        0
176
     1
 40
0.6
176
     1
 40
30.0
176
     1
 62
     8
420
  8421504
176
     1
 90
        1
176
     1
 90
        4
176
     1
 62
     7
176
     1
 62
   257
176
     1
 90
        1
176
     1
 90
        1
176
     1
 40
1.0
176
     1
 90
        8
176
     1
 62
     8
420
  8421504
176
     1
 40
1.0
176
     1
 90
        1
176
     1
 90
        6
176
     1
 90
        2
176
     1
 62
     7
176
     1
 90
        5
176
     1
 90
        0
176
     1
 90
        0
176
     1
290
     0
176
     1
 90
        1
176
     1
 40
0.0
176
     1
 90
        0
176
     1
290
     0
176
     1
290
     1
176
     1
290
     1
176
     1
290
     0
176
     1
290
     0
176
     1
290
     0
176
     1
290
     0
176
     1
290
     0
176
     1
290
     0
176
     1
 90
       50
176
     1
 40
0.0
176
     1
 40
1.0
176
     1
 90
        0
176
     1
 62
    18
176
     1
 90
       50
176
     1
 90
        3
176
     1
 62
     5
420
      255
176
     1
290
     0
176
     1
 90
       50
176
     1
 90
       50
176
     1
 90
       50
176
     1
290
     0
176
     1
 90
       50
176
     1
 62
   256
176
     0
 40
1.0
176
     0
 90
        2
176
     1
  1
strokes_ogs.tif
176
     1
290
     0
176
     1
 40
1.0
176
     1
 40
1.0
176
     1
  0
VISUALSTYLE
  5
32
102
{ACAD_REACTORS
330
29
102
}
330
29
100
AcDbVisualStyle
  2
Conceptual
 70
     9
177
     3
291
     0
 70
    58
 90
        3
176
     1
 90
        2
176
     1
 90
        0
176
     1
 90
        0
176
     1
 40
0.6
176
     1
 40
30.0
176
     1
 62
     7
420
 16777215
176
     1
 90
        2
176
     1
 90
        2
176
     1
 62
     7
176
     1
 62
   257
176
     1
 90
        1
176
     1
 90
        1
176
     1
 40
179.0
176
     1
 90
        8
176
     1
 62
     7
176
     1
 40
1.0
176
     1
 90
        1
176
     1
 90
        6
176
     1
 90
        2
176
     1
 62
     7
176
     1
 90
        3
176
     1
 90
        0
176
     1
 90
        0
176
     1
290
     0
176
     1
 90
        1
176
     1
 40
0.0
176
     1
 90
        0
176
     1
290
     0
176
     1
290
     1
176
     1
290
     1
176
     1
290
     0
176
     1
290
     0
176
     1
290
     0
176
     1
290
     0
176
     1
290
     0
176
     1
290
     0
176
     1
 90
       50
176
     1
 40
0.0
176
     1
 40
1.0
176
     1
 90
        0
176
     1
 62
    18
176
     1
 90
       50
176
     1
 90
        3
176
     1
 62
     5
420
      255
176
     1
290
     0
176
     1
 90
       50
176
     1
 90
       50
176
     1
 90
       50
176
     1
290
     0
176
     1
 90
       50
176
     1
 62
   256
176
     0
 40
1.0
176
     0
 90
        2
176
     1
  1
strokes_ogs.tif
176
     1
290
     0
176
     1
 40
1.0
176
     1
 40
1.0
176
     1
  0
VISUALSTYLE
  5
34
102
{ACAD_REACTORS
330
29
102
}
330
29
100
AcDbVisualStyle
  2
Dim
 70
    11
177
     3
291
     1
 70
    58
 90
        2
176
     1
 90
        2
176
     1
 90
        0
176
     1
 90
        0
176
     1
 40
0.6
176
     1
 40
30.0
176
     1
 62
     7
420
 16777215
176
     1
 90
        1
176
     1
 90
        4
176
     1
 62
     7
176
     1
 62
   257
176
     1
 90
        1
176
     1
 90
        1
176
     1
 40
1.0
176
     1
 90
        8
176
     1
 62
     7
176
     1
 40
1.0
176
     1
 90
        1
176
     1
 90
        6
176
     1
 90
        2
176
     1
 62
     7
176
     1
 90
        5
176
     1
 90
        0
176
     1
 90
        0
176
     1
290
     0
176
     1
 90
        1
176
     1
 40
-50.0
176
     1
 90
        0
176
     1
290
     0
176
     1
290
     1
176
     1
290
     1
176
     1
290
     0
176
     1
290
     0
176
     1
290
     0
176
     1
290
     0
176
     1
290
     0
176
     1
290
     0
176
     1
 90
       50
176
     1
 40
0.0
176
     1
 40
1.0
176
     1
 90
        0
176
     1
 62
    18
176
     1
 90
       50
176
     1
 90
        3
176
     1
 62
     5
420
      255
176
     1
290
     0
176
     1
 90
       50
176
     1
 90
       50
176
     1
 90
       50
176
     1
290
     0
176
     1
 90
       50
176
     1
 62
   256
176
     0
 40
1.0
176
     0
 90
        2
176
     1
  1
strokes_ogs.tif
176
     1
290
     0
176
     1
 40
1.0
176
     1
 40
1.0
176
     1
  0
VISUALSTYLE
  5
41
102
{ACAD_REACTORS
330
29
102
}
330
29
100
AcDbVisualStyle
  2
EdgeColorOff
 70
    22
177
     3
291
     1
 70
    58
 90
        2
176
     0
 90
        2
176
     0
 90
        0
176
     0
 90
        0
176
     0
 40
0.6
176
     0
 40
30.0
176
     0
 62
     7
420
 16777215
176
     0
 90
        1
176
     0
 90
        4
176
     0
 62
     7
176
     0
 62
   257
176
     0
 90
        1
176
     0
 90
        1
176
     0
 40
1.0
176
     0
 90
        8
176
     2
 62
     7
176
     0
 40
1.0
176
     0
 90
        1
176
     0
 90
        6
176
     0
 90
        2
176
     0
 62
     7
176
     0
 90
        5
176
     0
 90
        0
176
     0
 90
        0
176
     0
290
     0
176
     0
 90
        1
176
     0
 40
0.0
176
     0
 90
        0
176
     0
290
     0
176
     1
290
     1
176
     1
290
     1
176
     1
290
     0
176
     1
290
     0
176
     1
290
     0
176
     1
290
     0
176
     1
290
     0
176
     1
290
     0
176
     1
 90
       50
176
     0
 40
0.0
176
     0
 40
1.0
176
     0
 90
        0
176
     0
 62
    18
176
     0
 90
       50
176
     0
 90
        3
176
     0
 62
     5
420
      255
176
     0
290
     0
176
     1
 90
       50
176
     0
 90
       50
176
     0
 90
       50
176
     0
290
     0
176
     1
 90
       50
176
     0
 62
   256
176
     0
 40
1.0
176
     0
 90
        2
176
     0
  1
strokes_ogs.tif
176
     0
290
     0
176
     1
 40
1.0
176
     0
 40
1.0
176
     0
  0
VISUALSTYLE
  5
38
102
{ACAD_REACTORS
330
29
102
}
330
29
100
AcDbVisualStyle
  2
Facepattern
 70
    15
177
     3
291
     1
 70
    58
 90
        2
176
     1
 90
        2
176
     1
 90
        0
176
     1
 90
        0
176
     1
 40
0.6
176
     1
 40
30.0
176
     1
 62
     7
420
 16777215
176
     1
 90
        1
176
     1
 90
        4
176
     1
 62
     7
176
     1
 62
   257
176
     1
 90
        1
176
     1
 90
        1
176
     1
 40
1.0
176
     1
 90
        8
176
     1
 62
     7
176
     1
 40
1.0
176
     1
 90
        1
176
     1
 90
        6
176
     1
 90
        2
176
     1
 62
     7
176
     1
 90
        5
176
     1
 90
        0
176
     1
 90
        0
176
     1
290
     0
176
     1
 90
        1
176
     1
 40
0.0
176
     1
 90
        0
176
     1
290
     0
176
     1
290
     1
176
     1
290
     1
176
     1
290
     0
176
     1
290
     0
176
     1
290
     0
176
     1
290
     0
176
     1
290
     0
176
     1
290
     0
176
     1
 90
       50
176
     1
 40
0.0
176
     1
 40
1.0
176
     1
 90
        0
176
     1
 62
    18
176
     1
 90
       50
176
     1
 90
        3
176
     1
 62
     5
420
      255
176
     1
290
     0
176
     1
 90
       50
176
     1
 90
       50
176
     1
 90
       50
176
     1
290
     0
176
     1
 90
       50
176
     1
 62
   256
176
     0
 40
1.0
176
     0
 90
        2
176
     1
  1
strokes_ogs.tif
176
     1
290
     0
176
     1
 40
1.0
176
     1
 40
1.0
176
     1
  0
VISUALSTYLE
  5
2A
102
{ACAD_REACTORS
330
29
102
}
330
29
100
AcDbVisualStyle
  2
Flat
 70
     0
177
     3
291
     1
 70
    58
 90
        2
176
     1
 90
        1
176
     1
 90
        1
176
     1
 90
        2
176
     1
 40
0.6
176
     1
 40
30.0
176
     1
 62
     7
420
 16777215
176
     1
 90
        0
176
     1
 90
        0
176
     1
 62
     7
176
     1
 62
   257
176
     1
 90
        1
176
     1
 90
        1
176
     1
 40
1.0
176
     1
 90
        8
176
     1
 62
     7
176
     1
 40
1.0
176
     1
 90
        1
176
     1
 90
        6
176
     1
 90
        2
176
     1
 62
     7
176
     1
 90
        5
176
     1
 90
        0
176
     1
 90
        0
176
     1
290
     0
176
     1
 90
       13
176
     1
 40
0.0
176
     1
 90
        0
176
     1
290
     0
176
     1
290
     1
176
     1
290
     1
176
     1
290
     0
176
     1
290
     0
176
     1
290
     0
176
     1
290
     0
176
     1
290
     0
176
     1
290
     0
176
     1
 90
       50
176
     1
 40
0.0
176
     1
 40
1.0
176
     1
 90
        0
176
     1
 62
    18
176
     1
 90
       50
176
     1
 90
        3
176
     1
 62
     5
420
      255
176
     1
290
     0
176
     1
 90
       50
176
     1
 90
       50
176
     1
 90
       50
176
     1
290
     0
176
     1
 90
       50
176
     1
 62
   256
176
     0
 40
1.0
176
     0
 90
        2
176
     1
  1
strokes_ogs.tif
176
     1
290
     0
176
     1
 40
1.0
176
     1
 40
1.0
176
     1
  0
VISUALSTYLE
  5
2B
102
{ACAD_REACTORS
330
29
102
}
330
29
100
AcDbVisualStyle
  2
FlatWithEdges
 70
     1
177
     3
291
     1
 70
    58
 90
        2
176
     1
 90
        1
176
     1
 90
        1
176
     1
 90
        2
176
     1
 40
0.6
176
     1
 40
30.0
176
     1
 62
     7
420
 16777215
176
     1
 90
        1
176
     1
 90
        0
176
     1
 62
     7
176
     1
 62
   257
176
     1
 90
        1
176
     1
 90
        1
176
     1
 40
1.0
176
     1
 90
        0
176
     1
 62
   257
176
     1
 40
1.0
176
     1
 90
        1
176
     1
 90
        6
176
     1
 90
        2
176
     1
 62
     7
176
     1
 90
        5
176
     1
 90
        0
176
     1
 90
        0
176
     1
290
     0
176
     1
 90
       13
176
     1
 40
0.0
176
     1
 90
        0
176
     1
290
     0
176
     1
290
     1
176
     1
290
     1
176
     1
290
     0
176
     1
290
     0
176
     1
290
     0
176
     1
290
     0
176
     1
290
     0
176
     1
290
     0
176
     1
 90
       50
176
     1
 40
0.0
176
     1
 40
1.0
176
     1
 90
        0
176
     1
 62
    18
176
     1
 90
       50
176
     1
 90
        3
176
     1
 62
     5
420
      255
176
     1
290
     0
176
     1
 90
       50
176
     1
 90
       50
176
     1
 90
       50
176
     1
290
     0
176
     1
 90
       50
176
     1
 62
   256
176
     0
 40
1.0
176
     0
 90
        2
176
     1
  1
strokes_ogs.tif
176
     1
290
     0
176
     1
 40
1.0
176
     1
 40
1.0
176
     1
  0
VISUALSTYLE
  5
2C
102
{ACAD_REACTORS
330
29
102
}
330
29
100
AcDbVisualStyle
  2
Gouraud
 70
     2
177
     3
291
     1
 70
    58
 90
        2
176
     1
 90
        2
176
     1
 90
        1
176
     1
 90
        2
176
     1
 40
0.6
176
     1
 40
30.0
176
     1
 62
     7
420
 16777215
176
     1
 90
        0
176
     1
 90
        0
176
     1
 62
     7
176
     1
 62
   257
176
     1
 90
        1
176
     1
 90
        1
176
     1
 40
1.0
176
     1
 90
        0
176
     1
 62
     7
176
     1
 40
1.0
176
     1
 90
        1
176
     1
 90
        6
176
     1
 90
        2
176
     1
 62
     7
176
     1
 90
        5
176
     1
 90
        0
176
     1
 90
        0
176
     1
290
     0
176
     1
 90
       13
176
     1
 40
0.0
176
     1
 90
        0
176
     1
290
     0
176
     1
290
     1
176
     1
290
     1
176
     1
290
     0
176
     1
290
     0
176
     1
290
     0
176
     1
290
     0
176
     1
290
     0
176
     1
290
     0
176
     1
 90
       50
176
     1
 40
0.0
176
     1
 40
1.0
176
     1
 90
        0
176
     1
 62
    18
176
     1
 90
       50
176
     1
 90
        3
176
     1
 62
     5
420
      255
176
     1
290
     0
176
     1
 90
       50
176
     1
 90
       50
176
     1
 90
       50
176
     1
290
     0
176
     1
 90
       50
176
     1
 62
   256
176
     0
 40
1.0
176
     0
 90
        2
176
     1
  1
strokes_ogs.tif
176
     1
290
     0
176
     1
 40
1.0
176
     1
 40
1.0
176
     1
  0
VISUALSTYLE
  5
2D
102
{ACAD_REACTORS
330
29
102
}
330
29
100
AcDbVisualStyle
  2
GouraudWithEdges
 70
     3
177
     3
291
     1
 70
    58
 90
        2
176
     1
 90
        2
176
     1
 90
        1
176
     1
 90
        2
176
     1
 40
0.6
176
     1
 40
30.0
176
     1
 62
     7
420
 16777215
176
     1
 90
        1
176
     1
 90
        0
176
     1
 62
     7
176
     1
 62
   257
176
     1
 90
        1
176
     1
 90
        1
176
     1
 40
1.0
176
     1
 90
        0
176
     1
 62
   257
176
     1
 40
1.0
176
     1
 90
        1
176
     1
 90
        6
176
     1
 90
        2
176
     1
 62
     7
176
     1
 90
        5
176
     1
 90
        0
176
     1
 90
        0
176
     1
290
     0
176
     1
 90
       13
176
     1
 40
0.0
176
     1
 90
        0
176
     1
290
     0
176
     1
290
     1
176
     1
290
     1
176
     1
290
     0
176
     1
290
     0
176
     1
290
     0
176
     1
290
     0
176
     1
290
     0
176
     1
290
     0
176
     1
 90
       50
176
     1
 40
0.0
176
     1
 40
1.0
176
     1
 90
        0
176
     1
 62
    18
176
     1
 90
       50
176
     1
 90
        3
176
     1
 62
     5
420
      255
176
     1
290
     0
176
     1
 90
       50
176
     1
 90
       50
176
     1
 90
       50
176
     1
290
     0
176
     1
 90
       50
176
     1
 62
   256
176
     0
 40
1.0
176
     0
 90
        2
176
     1
  1
strokes_ogs.tif
176
     1
290
     0
176
     1
 40
1.0
176
     1
 40
1.0
176
     1
  0
VISUALSTYLE
  5
31
102
{ACAD_REACTORS
330
29
102
}
330
29
100
AcDbVisualStyle
  2
Hidden
 70
     6
177
     3
291
     0
 70
    58
 90
        1
176
     1
 90
        2
176
     1
 90
        2
176
     1
 90
        0
176
     1
 40
0.6
176
     1
 40
30.0
176
     1
 62
     7
420
 16777215
176
     1
 90
        2
176
     1
 90
        2
176
     1
 62
     7
176
     1
 62
   257
176
     1
 90
        2
176
     1
 90
        1
176
     1
 40
40.0
176
     1
 90
        0
176
     1
 62
   257
176
     1
 40
1.0
176
     1
 90
        1
176
     1
 90
        6
176
     1
 90
        2
176
     1
 62
     7
176
     1
 90
        3
176
     1
 90
        0
176
     1
 90
        0
176
     1
290
     0
176
     1
 90
        1
176
     1
 40
0.0
176
     1
 90
        0
176
     1
290
     0
176
     1
290
     1
176
     1
290
     1
176
     1
290
     0
176
     1
290
     0
176
     1
290
     0
176
     1
290
     0
176
     1
290
     0
176
     1
290
     0
176
     1
 90
       50
176
     1
 40
0.0
176
     1
 40
1.0
176
     1
 90
        0
176
     1
 62
    18
176
     1
 90
       50
176
     1
 90
        3
176
     1
 62
     5
420
      255
176
     1
290
     0
176
     1
 90
       50
176
     1
 90
       50
176
     1
 90
       50
176
     1
290
     0
176
     1
 90
       50
176
     1
 62
   256
176
     0
 40
1.0
176
     0
 90
        2
176
     1
  1
strokes_ogs.tif
176
     1
290
     0
176
     1
 40
1.0
176
     1
 40
1.0
176
     1
  0
VISUALSTYLE
  5
3F
102
{ACAD_REACTORS
330
29
102
}
330
29
100
AcDbVisualStyle
  2
JitterOff
 70
    20
177
     3
291
     1
 70
    58
 90
        2
176
     0
 90
        2
176
     0
 90
        0
176
     0
 90
        0
176
     0
 40
0.6
176
     0
 40
30.0
176
     0
 62
     7
420
 16777215
176
     0
 90
        1
176
     0
 90
        4
176
     0
 62
     7
176
     0
 62
   257
176
     0
 90
        1
176
     0
 90
        1
176
     0
 40
1.0
176
     0
 90
       10
176
     2
 62
     7
176
     0
 40
1.0
176
     0
 90
        1
176
     0
 90
        6
176
     0
 90
        2
176
     0
 62
     7
176
     0
 90
        5
176
     0
 90
        0
176
     0
 90
        0
176
     0
290
     0
176
     0
 90
        1
176
     0
 40
0.0
176
     0
 90
        0
176
     0
290
     0
176
     1
290
     1
176
     1
290
     1
176
     1
290
     0
176
     1
290
     0
176
     1
290
     0
176
     1
290
     0
176
     1
290
     0
176
     1
290
     0
176
     1
 90
       50
176
     0
 40
0.0
176
     0
 40
1.0
176
     0
 90
        0
176
     0
 62
    18
176
     0
 90
       50
176
     0
 90
        3
176
     0
 62
     5
420
      255
176
     0
290
     0
176
     1
 90
       50
176
     0
 90
       50
176
     0
 90
       50
176
     0
290
     0
176
     1
 90
       50
176
     0
 62
   256
176
     0
 40
1.0
176
     0
 90
        2
176
     0
  1
strokes_ogs.tif
176
     0
290
     0
176
     1
 40
1.0
176
     0
 40
1.0
176
     0
  0
VISUALSTYLE
  5
37
102
{ACAD_REACTORS
330
29
102
}
330
29
100
AcDbVisualStyle
  2
Linepattern
 70
    14
177
     3
291
     1
 70
    58
 90
        2
176
     1
 90
        2
176
     1
 90
        0
176
     1
 90
        0
176
     1
 40
0.6
176
     1
 40
30.0
176
     1
 62
     7
420
 16777215
176
     1
 90
        1
176
     1
 90
        4
176
     1
 62
     7
176
     1
 62
   257
176
     1
 90
        7
176
     1
 90
        7
176
     1
 40
1.0
176
     1
 90
        8
176
     1
 62
     7
176
     1
 40
1.0
176
     1
 90
        1
176
     1
 90
        6
176
     1
 90
        2
176
     1
 62
     7
176
     1
 90
        5
176
     1
 90
        0
176
     1
 90
        0
176
     1
290
     0
176
     1
 90
        1
176
     1
 40
0.0
176
     1
 90
        0
176
     1
290
     0
176
     1
290
     1
176
     1
290
     1
176
     1
290
     0
176
     1
290
     0
176
     1
290
     0
176
     1
290
     0
176
     1
290
     0
176
     1
290
     0
176
     1
 90
       50
176
     1
 40
0.0
176
     1
 40
1.0
176
     1
 90
        0
176
     1
 62
    18
176
     1
 90
       50
176
     1
 90
        3
176
     1
 62
     5
420
      255
176
     1
290
     0
176
     1
 90
       50
176
     1
 90
       50
176
     1
 90
       50
176
     1
290
     0
176
     1
 90
       50
176
     1
 62
   256
176
     0
 40
1.0
176
     0
 90
        2
176
     1
  1
strokes_ogs.tif
176
     1
290
     0
176
     1
 40
1.0
176
     1
 40
1.0
176
     1
  0
VISUALSTYLE
  5
40
102
{ACAD_REACTORS
330
29
102
}
330
29
100
AcDbVisualStyle
  2
OverhangOff
 70
    21
177
     3
291
     1
 70
    58
 90
        2
176
     0
 90
        2
176
     0
 90
        0
176
     0
 90
        0
176
     0
 40
0.6
176
     0
 40
30.0
176
     0
 62
     7
420
 16777215
176
     0
 90
        1
176
     0
 90
        4
176
     0
 62
     7
176
     0
 62
   257
176
     0
 90
        1
176
     0
 90
        1
176
     0
 40
1.0
176
     0
 90
        9
176
     2
 62
     7
176
     0
 40
1.0
176
     0
 90
        1
176
     0
 90
        6
176
     0
 90
        2
176
     0
 62
     7
176
     0
 90
        5
176
     0
 90
        0
176
     0
 90
        0
176
     0
290
     0
176
     0
 90
        1
176
     0
 40
0.0
176
     0
 90
        0
176
     0
290
     0
176
     1
290
     1
176
     1
290
     1
176
     1
290
     0
176
     1
290
     0
176
     1
290
     0
176
     1
290
     0
176
     1
290
     0
176
     1
290
     0
176
     1
 90
       50
176
     0
 40
0.0
176
     0
 40
1.0
176
     0
 90
        0
176
     0
 62
    18
176
     0
 90
       50
176
     0
 90
        3
176
     0
 62
     5
420
      255
176
     0
290
     0
176
     1
 90
       50
176
     0
 90
       50
176
     0
 90
       50
176
     0
290
     0
176
     1
 90
       50
176
     0
 62
   256
176
     0
 40
1.0
176
     0
 90
        2
176
     0
  1
strokes_ogs.tif
176
     0
290
     0
176
     1
 40
1.0
176
     0
 40
1.0
176
     0
  0
VISUALSTYLE
  5
33
102
{ACAD_REACTORS
330
29
102
}
330
29
100
AcDbVisualStyle
  2
Realistic
 70
     8
177
     3
291
     0
 70
    58
 90
        2
176
     1
 90
        3
176
     1
 90
        0
176
     1
 90
        2
176
     1
 40
0.6
176
     1
 40
30.0
176
     1
 62
     7
420
 16777215
176
     1
 90
        0
176
     1
 90
        0
176
     1
 62
     7
176
     1
 62
   257
176
     1
 90
        1
176
     1
 90
        1
176
     1
 40
1.0
176
     1
 90
        8
176
     1
 62
   257
176
     1
 40
1.0
176
     1
 90
        1
176
     1
 90
        6
176
     1
 90
        2
176
     1
 62
     7
176
     1
 90
        3
176
     1
 90
        0
176
     1
 90
        0
176
     1
290
     0
176
     1
 90
       13
176
     1
 40
0.0
176
     1
 90
        0
176
     1
290
     0
176
     1
290
     1
176
     1
290
     1
176
     1
290
     0
176
     1
290
     0
176
     1
290
     0
176
     1
290
     0
176
     1
290
     0
176
     1
290
     0
176
     1
 90
       50
176
     1
 40
0.0
176
     1
 40
1.0
176
     1
 90
        0
176
     1
 62
    18
176
     1
 90
       50
176
     1
 90
        3
176
     1
 62
     5
420
      255
176
     1
290
     0
176
     1
 90
       50
176
     1
 90
       50
176
     1
 90
       50
176
     1
290
     0
176
     1
 90
       50
176
     1
 62
   256
176
     0
 40
1.0
176
     0
 90
        2
176
     1
  1
strokes_ogs.tif
176
     1
290
     0
176
     1
 40
1.0
176
     1
 40
1.0
176
     1
  0
VISUALSTYLE
  5
3E
102
{ACAD_REACTORS
330
29
102
}
330
29
100
AcDbVisualStyle
  2
Shaded
 70
    27
177
     3
291
     0
 70
    58
 90
        2
176
     1
 90
        2
176
     1
 90
        1
176
     1
 90
        2
176
     1
 40
0.6
176
     1
 40
30.0
176
     1
 62
     7
420
 16777215
176
     1
 90
        0
176
     1
 90
        4
176
     1
 62
     7
176
     1
 62
   257
176
     1
 90
        1
176
     1
 90
        1
176
     1
 40
1.0
176
     1
 90
        8
176
     1
 62
   257
176
     1
 40
1.0
176
     1
 90
        1
176
     1
 90
        6
176
     1
 90
        2
176
     1
 62
     8
420
  7895160
176
     1
 90
        3
176
     1
 90
        0
176
     1
 90
        0
176
     1
290
     0
176
     1
 90
        5
176
     1
 40
0.0
176
     1
 90
        0
176
     1
290
     0
176
     1
290
     1
176
     1
290
     1
176
     1
290
     0
176
     1
290
     0
176
     1
290
     0
176
     1
290
     0
176
     1
290
     0
176
     1
290
     0
176
     1
 90
       50
176
     1
 40
0.0
176
     1
 40
1.0
176
     1
 90
        0
176
     1
 62
    18
176
     1
 90
       50
176
     1
 90
        3
176
     1
 62
     5
420
      255
176
     1
290
     0
176
     1
 90
       50
176
     1
 90
       50
176
     1
 90
       50
176
     1
290
     0
176
     1
 90
       50
176
     1
 62
   256
176
     0
 40
1.0
176
     0
 90
        2
176
     1
  1
strokes_ogs.tif
176
     1
290
     0
176
     1
 40
1.0
176
     1
 40
1.0
176
     1
  0
VISUALSTYLE
  5
3D
102
{ACAD_REACTORS
330
29
102
}
330
29
100
AcDbVisualStyle
  2
Shaded with edges
 70
    26
177
     3
291
     0
 70
    58
 90
        2
176
     1
 90
        2
176
     1
 90
        1
176
     1
 90
        2
176
     1
 40
0.6
176
     1
 40
30.0
176
     1
 62
     7
420
 16777215
176
     1
 90
        1
176
     1
 90
        2
176
     1
 62
     7
176
     1
 62
   257
176
     1
 90
        2
176
     1
 90
        1
176
     1
 40
1.0
176
     1
 90
        8
176
     1
 62
   257
176
     1
 40
1.0
176
     1
 90
        1
176
     1
 90
        6
176
     1
 90
        2
176
     1
 62
     7
176
     1
 90
        3
176
     1
 90
        0
176
     1
 90
        0
176
     1
290
     0
176
     1
 90
        5
176
     1
 40
0.0
176
     1
 90
        0
176
     1
290
     0
176
     1
290
     1
176
     1
290
     1
176
     1
290
     0
176
     1
290
     0
176
     1
290
     0
176
     1
290
     0
176
     1
290
     0
176
     1
290
     0
176
     1
 90
       50
176
     1
 40
0.0
176
     1
 40
1.0
176
     1
 90
        0
176
     1
 62
    18
176
     1
 90
       50
176
     1
 90
        3
176
     1
 62
     5
420
      255
176
     1
290
     0
176
     1
 90
       50
176
     1
 90
       50
176
     1
 90
       50
176
     1
290
     0
176
     1
 90
       50
176
     1
 62
   256
176
     0
 40
1.0
176
     0
 90
        2
176
     1
  1
strokes_ogs.tif
176
     1
290
     0
176
     1
 40
1.0
176
     1
 40
1.0
176
     1
  0
VISUALSTYLE
  5
3A
102
{ACAD_REACTORS
330
29
102
}
330
29
100
AcDbVisualStyle
  2
Shades of Gray
 70
    23
177
     3
291
     0
 70
    58
 90
        2
176
     1
 90
        2
176
     1
 90
        3
176
     1
 90
        0
176
     1
 40
0.6
176
     1
 40
30.0
176
     1
 62
     7
420
 16777215
176
     1
 90
        2
176
     1
 90
        2
176
     1
 62
     7
176
     1
 62
     7
176
     1
 90
        1
176
     1
 90
        1
176
     1
 40
40.0
176
     1
 90
        8
176
     1
 62
     7
176
     1
 40
1.0
176
     1
 90
        1
176
     1
 90
        6
176
     1
 90
        2
176
     1
 62
     7
176
     1
 90
        3
176
     1
 90
        0
176
     1
 90
        0
176
     1
290
     0
176
     1
 90
        1
176
     1
 40
0.0
176
     1
 90
        0
176
     1
290
     0
176
     1
290
     1
176
     1
290
     1
176
     1
290
     0
176
     1
290
     0
176
     1
290
     0
176
     1
290
     0
176
     1
290
     0
176
     1
290
     0
176
     1
 90
       50
176
     1
 40
0.0
176
     1
 40
1.0
176
     1
 90
        0
176
     1
 62
    18
176
     1
 90
       50
176
     1
 90
        3
176
     1
 62
     5
420
      255
176
     1
290
     0
176
     1
 90
       50
176
     1
 90
       50
176
     1
 90
       50
176
     1
290
     0
176
     1
 90
       50
176
     1
 62
   256
176
     0
 40
1.0
176
     0
 90
        2
176
     1
  1
strokes_ogs.tif
176
     1
290
     0
176
     1
 40
1.0
176
     1
 40
1.0
176
     1
  0
VISUALSTYLE
  5
3B
102
{ACAD_REACTORS
330
29
102
}
330
29
100
AcDbVisualStyle
  2
Sketchy
 70
    24
177
     3
291
     0
 70
    58
 90
        1
176
     1
 90
        2
176
     1
 90
        2
176
     1
 90
        0
176
     1
 40
0.6
176
     1
 40
30.0
176
     1
 62
     7
420
 16777215
176
     1
 90
        2
176
     1
 90
        2
176
     1
 62
     7
176
     1
 62
     7
176
     1
 90
        1
176
     1
 90
        1
176
     1
 40
40.0
176
     1
 90
       11
176
     1
 62
     7
176
     1
 40
1.0
176
     1
 90
        1
176
     1
 90
        6
176
     1
 90
        2
176
     1
 62
     7
176
     1
 90
        6
176
     1
 90
        0
176
     1
 90
        0
176
     1
290
     0
176
     1
 90
        1
176
     1
 40
0.0
176
     1
 90
        0
176
     1
290
     0
176
     1
290
     1
176
     1
290
     1
176
     1
290
     0
176
     1
290
     0
176
     1
290
     0
176
     1
290
     0
176
     1
290
     0
176
     1
290
     0
176
     1
 90
       50
176
     1
 40
0.0
176
     1
 40
1.0
176
     1
 90
        0
176
     1
 62
    18
176
     1
 90
       50
176
     1
 90
        3
176
     1
 62
     5
420
      255
176
     1
290
     0
176
     1
 90
       50
176
     1
 90
       50
176
     1
 90
       50
176
     1
290
     0
176
     1
 90
       50
176
     1
 62
   256
176
     0
 40
1.0
176
     0
 90
        2
176
     1
  1
strokes_ogs.tif
176
     1
290
     0
176
     1
 40
1.0
176
     1
 40
1.0
176
     1
  0
VISUALSTYLE
  5
36
102
{ACAD_REACTORS
330
29
102
}
330
29
100
AcDbVisualStyle
  2
Thicken
 70
    13
177
     3
291
     1
 70
    58
 90
        2
176
     1
 90
        2
176
     1
 90
        0
176
     1
 90
        0
176
     1
 40
0.6
176
     1
 40
30.0
176
     1
 62
     7
420
 16777215
176
     1
 90
        1
176
     1
 90
        4
176
     1
 62
     7
176
     1
 62
   257
176
     1
 90
        1
176
     1
 90
        1
176
     1
 40
1.0
176
     1
 90
       12
176
     1
 62
     7
176
     1
 40
1.0
176
     1
 90
        1
176
     1
 90
        6
176
     1
 90
        2
176
     1
 62
     7
176
     1
 90
        5
176
     1
 90
        0
176
     1
 90
        0
176
     1
290
     0
176
     1
 90
        1
176
     1
 40
0.0
176
     1
 90
        0
176
     1
290
     0
176
     1
290
     1
176
     1
290
     1
176
     1
290
     0
176
     1
290
     0
176
     1
290
     0
176
     1
290
     0
176
     1
290
     0
176
     1
290
     0
176
     1
 90
       50
176
     1
 40
0.0
176
     1
 40
1.0
176
     1
 90
        0
176
     1
 62
    18
176
     1
 90
       50
176
     1
 90
        3
176
     1
 62
     5
420
      255
176
     1
290
     0
176
     1
 90
       50
176
     1
 90
       50
176
     1
 90
       50
176
     1
290
     0
176
     1
 90
       50
176
     1
 62
   256
176
     0
 40
1.0
176
     0
 90
        2
176
     1
  1
strokes_ogs.tif
176
     1
290
     0
176
     1
 40
1.0
176
     1
 40
1.0
176
     1
  0
VISUALSTYLE
  5
30
102
{ACAD_REACTORS
330
29
102
}
330
29
100
AcDbVisualStyle
  2
Wireframe
 70
     5
177
     3
291
     0
 70
    58
 90
        0
176
     1
 90
        2
176
     1
 90
        0
176
     1
 90
        0
176
     1
 40
0.6
176
     1
 40
30.0
176
     1
 62
     7
420
 16777215
176
     1
 90
        1
176
     1
 90
        4
176
     1
 62
     7
176
     1
 62
   257
176
     1
 90
        1
176
     1
 90
        1
176
     1
 40
1.0
176
     1
 90
        0
176
     1
 62
   257
176
     1
 40
1.0
176
     1
 90
        1
176
     1
 90
        6
176
     1
 90
        2
176
     1
 62
     7
176
     1
 90
        3
176
     1
 90
        0
176
     1
 90
        0
176
     1
290
     0
176
     1
 90
        1
176
     1
 40
0.0
176
     1
 90
        0
176
     1
290
     0
176
     1
290
     1
176
     1
290
     1
176
     1
290
     0
176
     1
290
     0
176
     1
290
     0
176
     1
290
     0
176
     1
290
     0
176
     1
290
     0
176
     1
 90
       50
176
     1
 40
0.0
176
     1
 40
1.0
176
     1
 90
        0
176
     1
 62
    18
176
     1
 90
       50
176
     1
 90
        3
176
     1
 62
     5
420
      255
176
     1
290
     0
176
     1
 90
       50
176
     1
 90
       50
176
     1
 90
       50
176
     1
290
     0
176
     1
 90
       50
176
     1
 62
   256
176
     0
 40
1.0
176
     0
 90
        2
176
     1
  1
strokes_ogs.tif
176
     1
290
     0
176
     1
 40
1.0
176
     1
 40
1.0
176
     1
  0
VISUALSTYLE
  5
3C
102
{ACAD_REACTORS
330
29
102
}
330
29
100
AcDbVisualStyle
  2
X-Ray
 70
    25
177
     3
291
     0
 70
    58
 90
        2
176
     1
 90
        2
176
     1
 90
        1
176
     1
 90
        1
176
     1
 40
0.5
176
     1
 40
30.0
176
     1
 62
     7
420
 16777215
176
     1
 90
        1
176
     1
 90
        0
176
     1
 62
     7
176
     1
 62
   257
176
     1
 90
        1
176
     1
 90
        1
176
     1
 40
1.0
176
     1
 90
        8
176
     1
 62
     7
176
     1
 40
1.0
176
     1
 90
        1
176
     1
 90
        6
176
     1
 90
        2
176
     1
 62
     7
176
     1
 90
        3
176
     1
 90
        0
176
     1
 90
        0
176
     1
290
     0
176
     1
 90
       13
176
     1
 40
0.0
176
     1
 90
        0
176
     1
290
     0
176
     1
290
     1
176
     1
290
     1
176
     1
290
     0
176
     1
290
     0
176
     1
290
     0
176
     1
290
     0
176
     1
290
     0
176
     1
290
     0
176
     1
 90
       50
176
     1
 40
0.0
176
     1
 40
1.0
176
     1
 90
        0
176
     1
 62
    18
176
     1
 90
       50
176
     1
 90
        3
176
     1
 62
     5
420
      255
176
     1
290
     0
176
     1
 90
       50
176
     1
 90
       50
176
     1
 90
       50
176
     1
290
     0
176
     1
 90
       50
176
     1
 62
   256
176
     0
 40
1.0
176
     0
 90
        2
176
     1
  1
strokes_ogs.tif
176
     1
290
     0
176
     1
 40
1.0
176
     1
 40
1.0
176
     1
  0
DICTIONARYVAR
  5
1AC0
102
{ACAD_REACTORS
330
1ABA
102
}
330
1ABA
100
DictionaryVariables
280
     0
  1
1:1
  0
DICTIONARYVAR
  5
1ABC
102
{ACAD_REACTORS
330
1ABA
102
}
330
1ABA
100
DictionaryVariables
280
     0
  1
STANDARD
  0
DICTIONARYVAR
  5
1ABB
102
{ACAD_REACTORS
330
1ABA
102
}
330
1ABA
100
DictionaryVariables
280
     0
  1
STANDARD
  0
DICTIONARYVAR
  5
1ABD
102
{ACAD_REACTORS
330
1ABA
102
}
330
1ABA
100
DictionaryVariables
280
     0
  1
Imperial24
  0
DICTIONARYVAR
  5
1ABE
102
{ACAD_REACTORS
330
1ABA
102
}
330
1ABA
100
DictionaryVariables
280
     0
  1
Imperial24
  0
DICTIONARYVAR
  5
1AC2
102
{ACAD_REACTORS
330
1ABA
102
}
330
1ABA
100
DictionaryVariables
280
     0
  1
1
  0
DICTIONARYVAR
  5
1AC3
102
{ACAD_REACTORS
330
1ABA
102
}
330
1ABA
100
DictionaryVariables
280
     0
  1
15
  0
DICTIONARYVAR
  5
1AC1
102
{ACAD_REACTORS
330
1ABA
102
}
330
1ABA
100
DictionaryVariables
280
     0
  1
0
  0
DICTIONARYVAR
  5
1ABF
102
{ACAD_REACTORS
330
1ABA
102
}
330
1ABA
100
DictionaryVariables
280
     0
  1
0
  0
DICTIONARY
  5
1A
330
19
100
AcDbDictionary
280
     1
281
     1
  3
BUMPTILE
360
1C
  3
DIFFUSETILE
360
1B
  3
OPACITYTILE
360
1F
  3
REFLECTIONTILE
360
1E
  3
REFRACTIONTILE
360
20
  3
SPECULARTILE
360
1D
  0
DICTIONARY
  5
12
330
11
100
AcDbDictionary
280
     1
281
     1
  3
BUMPTILE
360
14
  3
DIFFUSETILE
360
13
  3
OPACITYTILE
360
17
  3
REFLECTIONTILE
360
16
  3
REFRACTIONTILE
360
18
  3
SPECULARTILE
360
15
  0
DICTIONARY
  5
22
330
21
100
AcDbDictionary
280
     1
281
     1
  3
BUMPTILE
360
24
  3
DIFFUSETILE
360
23
  3
OPACITYTILE
360
27
  3
REFLECTIONTILE
360
26
  3
REFRACTIONTILE
360
28
  3
SPECULARTILE
360
25
  0
DICTIONARY
  5
1AC5
330
64
100
AcDbDictionary
280
     1
281
     1
  3
ACAD_ROUNDTRIP_2008_TABLESTYLE_CELLSTYLEMAP
360
1AEB
  0
XRECORD
  5
1C
102
{ACAD_REACTORS
330
1A
102
}
330
1A
100
AcDbXrecord
280
     1
270
     1
271
     1
  0
XRECORD
  5
1B
102
{ACAD_REACTORS
330
1A
102
}
330
1A
100
AcDbXrecord
280
     1
270
     1
271
     1
  0
XRECORD
  5
1F
102
{ACAD_REACTORS
330
1A
102
}
330
1A
100
AcDbXrecord
280
     1
270
     1
271
     1
  0
XRECORD
  5
1E
102
{ACAD_REACTORS
330
1A
102
}
330
1A
100
AcDbXrecord
280
     1
270
     1
271
     1
  0
XRECORD
  5
20
102
{ACAD_REACTORS
330
1A
102
}
330
1A
100
AcDbXrecord
280
     1
270
     1
271
     1
  0
XRECORD
  5
1D
102
{ACAD_REACTORS
330
1A
102
}
330
1A
100
AcDbXrecord
280
     1
270
     1
271
     1
  0
XRECORD
  5
14
102
{ACAD_REACTORS
330
12
102
}
330
12
100
AcDbXrecord
280
     1
270
     1
271
     1
  0
XRECORD
  5
13
102
{ACAD_REACTORS
330
12
102
}
330
12
100
AcDbXrecord
280
     1
270
     1
271
     1
  0
XRECORD
  5
17
102
{ACAD_REACTORS
330
12
102
}
330
12
100
AcDbXrecord
280
     1
270
     1
271
     1
  0
XRECORD
  5
16
102
{ACAD_REACTORS
330
12
102
}
330
12
100
AcDbXrecord
280
     1
270
     1
271
     1
  0
XRECORD
  5
18
102
{ACAD_REACTORS
330
12
102
}
330
12
100
AcDbXrecord
280
     1
270
     1
271
     1
  0
XRECORD
  5
15
102
{ACAD_REACTORS
330
12
102
}
330
12
100
AcDbXrecord
280
     1
270
     1
271
     1
  0
XRECORD
  5
24
102
{ACAD_REACTORS
330
22
102
}
330
22
100
AcDbXrecord
280
     1
270
     1
271
     1
  0
XRECORD
  5
23
102
{ACAD_REACTORS
330
22
102
}
330
22
100
AcDbXrecord
280
     1
270
     1
271
     1
  0
XRECORD
  5
27
102
{ACAD_REACTORS
330
22
102
}
330
22
100
AcDbXrecord
280
     1
270
     1
271
     1
  0
XRECORD
  5
26
102
{ACAD_REACTORS
330
22
102
}
330
22
100
AcDbXrecord
280
     1
270
     1
271
     1
  0
XRECORD
  5
28
102
{ACAD_REACTORS
330
22
102
}
330
22
100
AcDbXrecord
280
     1
270
     1
271
     1
  0
XRECORD
  5
25
102
{ACAD_REACTORS
330
22
102
}
330
22
100
AcDbXrecord
280
     1
270
     1
271
     1
  0
CELLSTYLEMAP
  5
1AEB
102
{ACAD_REACTORS
330
1AC5
102
}
330
1AC5
100
AcDbCellStyleMap
 90
        3
300
CELLSTYLE
  1
TABLEFORMAT_BEGIN
 90
        5
170
     1
 91
        0
 92
    32768
 62
   257
 93
        1
300
CONTENTFORMAT
  1
CONTENTFORMAT_BEGIN
 90
        0
 91
        0
 92
      512
 93
        0
300

 40
0.0
140
1.0
 94
        5
 62
     0
340
55
144
0.25
309
CONTENTFORMAT_END
171
     1
301
MARGIN
  1
CELLMARGIN_BEGIN
 40
0.06
 40
0.06
 40
0.06
 40
0.06
 40
0.18
 40
0.18
309
CELLMARGIN_END
 94
        6
 95
        1
302
GRIDFORMAT
  1
GRIDFORMAT_BEGIN
 90
        0
 91
        1
 62
     0
 92
       -2
340
0
 93
        0
 40
0.045
309
GRIDFORMAT_END
 95
        2
302
GRIDFORMAT
  1
GRIDFORMAT_BEGIN
 90
        0
 91
        1
 62
     0
 92
       -2
340
0
 93
        0
 40
0.045
309
GRIDFORMAT_END
 95
        4
302
GRIDFORMAT
  1
GRIDFORMAT_BEGIN
 90
        0
 91
        1
 62
     0
 92
       -2
340
0
 93
        0
 40
0.045
309
GRIDFORMAT_END
 95
        8
302
GRIDFORMAT
  1
GRIDFORMAT_BEGIN
 90
        0
 91
        1
 62
     0
 92
       -2
340
0
 93
        0
 40
0.045
309
GRIDFORMAT_END
 95
       16
302
GRIDFORMAT
  1
GRIDFORMAT_BEGIN
 90
        0
 91
        1
 62
     0
 92
       -2
340
0
 93
        0
 40
0.045
309
GRIDFORMAT_END
 95
       32
302
GRIDFORMAT
  1
GRIDFORMAT_BEGIN
 90
        0
 91
        1
 62
     0
 92
       -2
340
0
 93
        0
 40
0.045
309
GRIDFORMAT_END
309
TABLEFORMAT_END
  1
CELLSTYLE_BEGIN
 90
        1
 91
        1
300
_TITLE
309
CELLSTYLE_END
300
CELLSTYLE
  1
TABLEFORMAT_BEGIN
 90
        5
170
     1
 91
        0
 92
        0
 62
   257
 93
        1
300
CONTENTFORMAT
  1
CONTENTFORMAT_BEGIN
 90
        0
 91
        0
 92
      512
 93
        0
300

 40
0.0
140
1.0
 94
        5
 62
     0
340
55
144
0.18
309
CONTENTFORMAT_END
171
     1
301
MARGIN
  1
CELLMARGIN_BEGIN
 40
0.06
 40
0.06
 40
0.06
 40
0.06
 40
0.18
 40
0.18
309
CELLMARGIN_END
 94
        6
 95
        1
302
GRIDFORMAT
  1
GRIDFORMAT_BEGIN
 90
        0
 91
        1
 62
     0
 92
       -2
340
0
 93
        0
 40
0.045
309
GRIDFORMAT_END
 95
        2
302
GRIDFORMAT
  1
GRIDFORMAT_BEGIN
 90
        0
 91
        1
 62
     0
 92
       -2
340
0
 93
        0
 40
0.045
309
GRIDFORMAT_END
 95
        4
302
GRIDFORMAT
  1
GRIDFORMAT_BEGIN
 90
        0
 91
        1
 62
     0
 92
       -2
340
0
 93
        0
 40
0.045
309
GRIDFORMAT_END
 95
        8
302
GRIDFORMAT
  1
GRIDFORMAT_BEGIN
 90
        0
 91
        1
 62
     0
 92
       -2
340
0
 93
        0
 40
0.045
309
GRIDFORMAT_END
 95
       16
302
GRIDFORMAT
  1
GRIDFORMAT_BEGIN
 90
        0
 91
        1
 62
     0
 92
       -2
340
0
 93
        0
 40
0.045
309
GRIDFORMAT_END
 95
       32
302
GRIDFORMAT
  1
GRIDFORMAT_BEGIN
 90
        0
 91
        1
 62
     0
 92
       -2
340
0
 93
        0
 40
0.045
309
GRIDFORMAT_END
309
TABLEFORMAT_END
  1
CELLSTYLE_BEGIN
 90
        2
 91
        1
300
_HEADER
309
CELLSTYLE_END
300
CELLSTYLE
  1
TABLEFORMAT_BEGIN
 90
        5
170
     1
 91
        0
 92
        0
 62
   257
 93
        1
300
CONTENTFORMAT
  1
CONTENTFORMAT_BEGIN
 90
        0
 91
        0
 92
      512
 93
        0
300

 40
0.0
140
1.0
 94
        2
 62
     0
340
55
144
0.18
309
CONTENTFORMAT_END
171
     1
301
MARGIN
  1
CELLMARGIN_BEGIN
 40
0.06
 40
0.06
 40
0.06
 40
0.06
 40
0.18
 40
0.18
309
CELLMARGIN_END
 94
        6
 95
        1
302
GRIDFORMAT
  1
GRIDFORMAT_BEGIN
 90
        0
 91
        1
 62
     0
 92
       -2
340
0
 93
        0
 40
0.045
309
GRIDFORMAT_END
 95
        2
302
GRIDFORMAT
  1
GRIDFORMAT_BEGIN
 90
        0
 91
        1
 62
     0
 92
       -2
340
0
 93
        0
 40
0.045
309
GRIDFORMAT_END
 95
        4
302
GRIDFORMAT
  1
GRIDFORMAT_BEGIN
 90
        0
 91
        1
 62
     0
 92
       -2
340
0
 93
        0
 40
0.045
309
GRIDFORMAT_END
 95
        8
302
GRIDFORMAT
  1
GRIDFORMAT_BEGIN
 90
        0
 91
        1
 62
     0
 92
       -2
340
0
 93
        0
 40
0.045
309
GRIDFORMAT_END
 95
       16
302
GRIDFORMAT
  1
GRIDFORMAT_BEGIN
 90
        0
 91
        1
 62
     0
 92
       -2
340
0
 93
        0
 40
0.045
309
GRIDFORMAT_END
 95
       32
302
GRIDFORMAT
  1
GRIDFORMAT_BEGIN
 90
        0
 91
        1
 62
     0
 92
       -2
340
0
 93
        0
 40
0.045
309
GRIDFORMAT_END
309
TABLEFORMAT_END
  1
CELLSTYLE_BEGIN
 90
        3
 91
        2
300
_DATA
309
CELLSTYLE_END
  0
ENDSEC
  0
EOF
