  0
SECTION
  2
HEADER
  9
$ACADVER
  1
AC1032
  9
$ACADMAINTVER
 90
       55
  9
$DWGCODEPAGE
  3
ANSI_1252
  9
$LASTSAVEDBY
  1
michs
  9
$REQUIREDVERSIONS
160
                 0
  9
$INSBASE
 10
0.0
 20
0.0
 30
0.0
  9
$EXTMIN
 10
-85.10833333333334
 20
42.63021063423383
 30
0.0
  9
$EXTMAX
 10
-76.23333333333333
 20
48.89595968934187
 30
0.0000000000000003
  9
$LIMMIN
 10
0.0
 20
0.0
  9
$LIMMAX
 10
12.0
 20
9.0
  9
$ORTHOMODE
 70
     0
  9
$REGENMODE
 70
     1
  9
$FILLMODE
 70
     1
  9
$QTEXTMODE
 70
     0
  9
$MIRRTEXT
 70
     0
  9
$LTSCALE
 40
1.0
  9
$ATTMODE
 70
     1
  9
$TEXTSIZE
 40
0.006
  9
$TRACEWID
 40
0.05
  9
$TEXTSTYLE
  7
STANDARD
  9
$CLAYER
  8
0
  9
$CELTYPE
  6
ByLayer
  9
$CECOLOR
 62
   256
  9
$CELTSCALE
 40
1.0
  9
$DISPSILH
 70
     0
  9
$DIMSCALE
 40
1.0
  9
$DIMASZ
 40
0.18
  9
$DIMEXO
 40
0.0625
  9
$DIMDLI
 40
0.38
  9
$DIMRND
 40
0.0
  9
$DIMDLE
 40
0.0
  9
$DIMEXE
 40
0.18
  9
$DIMTP
 40
0.0
  9
$DIMTM
 40
0.0
  9
$DIMTXT
 40
0.18
  9
$DIMCEN
 40
0.09
  9
$DIMTSZ
 40
0.0
  9
$DIMTOL
 70
     0
  9
$DIMLIM
 70
     0
  9
$DIMTIH
 70
     1
  9
$DIMTOH
 70
     1
  9
$DIMSE1
 70
     0
  9
$DIMSE2
 70
     0
  9
$DIMTAD
 70
     0
  9
$DIMZIN
 70
     0
  9
$DIMBLK
  1

  9
$DIMASO
 70
     1
  9
$DIMSHO
 70
     1
  9
$DIMPOST
  1

  9
$DIMAPOST
  1

  9
$DIMALT
 70
     0
  9
$DIMALTD
 70
     2
  9
$DIMALTF
 40
25.4
  9
$DIMLFAC
 40
1.0
  9
$DIMTOFL
 70
     0
  9
$DIMTVP
 40
0.0
  9
$DIMTIX
 70
     0
  9
$DIMSOXD
 70
     0
  9
$DIMSAH
 70
     0
  9
$DIMBLK1
  1

  9
$DIMBLK2
  1

  9
$DIMSTYLE
  2
Standard
  9
$DIMCLRD
 70
     0
  9
$DIMCLRE
 70
     0
  9
$DIMCLRT
 70
     0
  9
$DIMTFAC
 40
1.0
  9
$DIMGAP
 40
0.09
  9
$DIMJUST
 70
     0
  9
$DIMSD1
 70
     0
  9
$DIMSD2
 70
     0
  9
$DIMTOLJ
 70
     1
  9
$DIMTZIN
 70
     0
  9
$DIMALTZ
 70
     0
  9
$DIMALTTZ
 70
     0
  9
$DIMUPT
 70
     0
  9
$DIMDEC
 70
     4
  9
$DIMTDEC
 70
     4
  9
$DIMALTU
 70
     2
  9
$DIMALTTD
 70
     2
  9
$DIMTXSTY
  7
STANDARD
  9
$DIMAUNIT
 70
     0
  9
$DIMADEC
 70
     0
  9
$DIMALTRND
 40
0.0
  9
$DIMAZIN
 70
     0
  9
$DIMDSEP
 70
    46
  9
$DIMATFIT
 70
     3
  9
$DIMFRAC
 70
     0
  9
$DIMLDRBLK
  1

  9
$DIMLUNIT
 70
     2
  9
$DIMLWD
 70
    -2
  9
$DIMLWE
 70
    -2
  9
$DIMTMOVE
 70
     0
  9
$DIMFXL
 40
1.0
  9
$DIMFXLON
 70
     0
  9
$DIMJOGANG
 40
0.7853981633974483
  9
$DIMTFILL
 70
     0
  9
$DIMTFILLCLR
 70
     0
  9
$DIMARCSYM
 70
     0
  9
$DIMLTYPE
  6

  9
$DIMLTEX1
  6

  9
$DIMLTEX2
  6

  9
$DIMTXTDIRECTION
 70
     0
  9
$LUNITS
 70
     2
  9
$LUPREC
 70
     4
  9
$SKETCHINC
 40
0.1
  9
$FILLETRAD
 40
0.0
  9
$AUNITS
 70
     0
  9
$AUPREC
 70
     0
  9
$MENU
  1
.
  9
$ELEVATION
 40
0.0
  9
$PELEVATION
 40
0.0
  9
$THICKNESS
 40
0.0
  9
$LIMCHECK
 70
     0
  9
$CHAMFERA
 40
0.0
  9
$CHAMFERB
 40
0.0
  9
$CHAMFERC
 40
0.0
  9
$CHAMFERD
 40
0.0
  9
$SKPOLY
 70
     0
  9
$TDCREATE
 40
2458928.615601852
  9
$TDUCREATE
 40
2458928.823935185
  9
$TDUPDATE
 40
2459182.547152778
  9
$TDUUPDATE
 40
2459182.797152778
  9
$TDINDWG
 40
0.0233680556
  9
$TDUSRTIMER
 40
0.0233680556
  9
$USRTIMER
 70
     1
  9
$ANGBASE
 50
0.0
  9
$ANGDIR
 70
     0
  9
$PDMODE
 70
     0
  9
$PDSIZE
 40
0.0
  9
$PLINEWID
 40
0.0
  9
$SPLFRAME
 70
     0
  9
$SPLINETYPE
 70
     6
  9
$SPLINESEGS
 70
     8
  9
$HANDSEED
  5
1B09
  9
$SURFTAB1
 70
     6
  9
$SURFTAB2
 70
     6
  9
$SURFTYPE
 70
     6
  9
$SURFU
 70
     6
  9
$SURFV
 70
     6
  9
$UCSBASE
  2

  9
$UCSNAME
  2

  9
$UCSORG
 10
0.0
 20
0.0
 30
0.0
  9
$UCSXDIR
 10
1.0
 20
0.0
 30
0.0
  9
$UCSYDIR
 10
0.0
 20
1.0
 30
0.0
  9
$UCSORTHOREF
  2

  9
$UCSORTHOVIEW
 70
     0
  9
$UCSORGTOP
 10
0.0
 20
0.0
 30
0.0
  9
$UCSORGBOTTOM
 10
0.0
 20
0.0
 30
0.0
  9
$UCSORGLEFT
 10
0.0
 20
0.0
 30
0.0
  9
$UCSORGRIGHT
 10
0.0
 20
0.0
 30
0.0
  9
$UCSORGFRONT
 10
0.0
 20
0.0
 30
0.0
  9
$UCSORGBACK
 10
0.0
 20
0.0
 30
0.0
  9
$PUCSBASE
  2

  9
$PUCSNAME
  2

  9
$PUCSORG
 10
0.0
 20
0.0
 30
0.0
  9
$PUCSXDIR
 10
1.0
 20
0.0
 30
0.0
  9
$PUCSYDIR
 10
0.0
 20
1.0
 30
0.0
  9
$PUCSORTHOREF
  2

  9
$PUCSORTHOVIEW
 70
     0
  9
$PUCSORGTOP
 10
0.0
 20
0.0
 30
0.0
  9
$PUCSORGBOTTOM
 10
0.0
 20
0.0
 30
0.0
  9
$PUCSORGLEFT
 10
0.0
 20
0.0
 30
0.0
  9
$PUCSORGRIGHT
 10
0.0
 20
0.0
 30
0.0
  9
$PUCSORGFRONT
 10
0.0
 20
0.0
 30
0.0
  9
$PUCSORGBACK
 10
0.0
 20
0.0
 30
0.0
  9
$USERI1
 70
     0
  9
$USERI2
 70
     0
  9
$USERI3
 70
     0
  9
$USERI4
 70
     0
  9
$USERI5
 70
     0
  9
$USERR1
 40
0.0
  9
$USERR2
 40
0.0
  9
$USERR3
 40
0.0
  9
$USERR4
 40
0.0
  9
$USERR5
 40
0.0
  9
$WORLDVIEW
 70
     1
  9
$SHADEDGE
 70
     3
  9
$SHADEDIF
 70
    70
  9
$TILEMODE
 70
     1
  9
$MAXACTVP
 70
    64
  9
$PINSBASE
 10
0.0
 20
0.0
 30
0.0
  9
$PLIMCHECK
 70
     0
  9
$PEXTMIN
 10
1.000000000000000E+20
 20
1.000000000000000E+20
 30
1.000000000000000E+20
  9
$PEXTMAX
 10
-1.000000000000000E+20
 20
-1.000000000000000E+20
 30
-1.000000000000000E+20
  9
$PLIMMIN
 10
0.0
 20
0.0
  9
$PLIMMAX
 10
12.0
 20
9.0
  9
$UNITMODE
 70
     0
  9
$VISRETAIN
 70
     1
  9
$PLINEGEN
 70
     0
  9
$PSLTSCALE
 70
     1
  9
$TREEDEPTH
 70
  3020
  9
$CMLSTYLE
  2
Standard
  9
$CMLJUST
 70
     0
  9
$CMLSCALE
 40
1.0
  9
$PROXYGRAPHICS
 70
     1
  9
$MEASUREMENT
 70
     0
  9
$CELWEIGHT
370
    -1
  9
$ENDCAPS
280
     0
  9
$JOINSTYLE
280
     0
  9
$LWDISPLAY
290
     0
  9
$INSUNITS
 70
     0
  9
$HYPERLINKBASE
  1

  9
$STYLESHEET
  1

  9
$XEDIT
290
     1
  9
$CEPSNTYPE
380
     0
  9
$PSTYLEMODE
290
     1
  9
$FINGERPRINTGUID
  2
{A087A190-52ED-7B49-BEE2-C79CD84C2D94}
  9
$VERSIONGUID
  2
{EBED3A87-E250-814D-8750-EA26519F7E67}
  9
$EXTNAMES
290
     1
  9
$PSVPSCALE
 40
0.0
  9
$OLESTARTUP
290
     0
  9
$SORTENTS
280
   127
  9
$INDEXCTL
280
     0
  9
$HIDETEXT
280
     0
  9
$XCLIPFRAME
280
     2
  9
$HALOGAP
280
     0
  9
$OBSCOLOR
 70
   257
  9
$OBSLTYPE
280
     0
  9
$INTERSECTIONDISPLAY
280
     0
  9
$INTERSECTIONCOLOR
 70
   257
  9
$DIMASSOC
280
     1
  9
$PROJECTNAME
  1

  9
$CAMERADISPLAY
290
     0
  9
$LENSLENGTH
 40
50.0
  9
$CAMERAHEIGHT
 40
0.0
  9
$STEPSPERSEC
 40
2.0
  9
$STEPSIZE
 40
6.0
  9
$3DDWFPREC
 40
2.0
  9
$PSOLWIDTH
 40
0.25
  9
$PSOLHEIGHT
 40
4.0
  9
$LOFTANG1
 40
1.570796326794896
  9
$LOFTANG2
 40
1.570796326794896
  9
$LOFTMAG1
 40
0.0
  9
$LOFTMAG2
 40
0.0
  9
$LOFTPARAM
 70
     7
  9
$LOFTNORMALS
280
     1
  9
$LATITUDE
 40
37.795
  9
$LONGITUDE
 40
-122.394
  9
$NORTHDIRECTION
 40
0.0
  9
$TIMEZONE
 70
 -8000
  9
$LIGHTGLYPHDISPLAY
280
     1
  9
$TILEMODELIGHTSYNCH
280
     1
  9
$CMATERIAL
347
11
  9
$SOLIDHIST
280
     0
  9
$SHOWHIST
280
     1
  9
$DWFFRAME
280
     2
  9
$DGNFRAME
280
     0
  9
$REALWORLDSCALE
290
     1
  9
$INTERFERECOLOR
 62
     1
  9
$INTERFEREOBJVS
345
33
  9
$INTERFEREVPVS
346
30
  9
$CSHADOW
280
     0
  9
$SHADOWPLANELOCATION
 40
0.0
  0
ENDSEC
  0
SECTION
  2
CLASSES
  0
CLASS
  1
ACDBDICTIONARYWDFLT
  2
AcDbDictionaryWithDefault
  3
ObjectDBX Classes
 90
        0
 91
        1
280
     0
281
     0
  0
CLASS
  1
MATERIAL
  2
AcDbMaterial
  3
ObjectDBX Classes
 90
     1153
 91
        3
280
     0
281
     0
  0
CLASS
  1
VISUALSTYLE
  2
AcDbVisualStyle
  3
ObjectDBX Classes
 90
     4095
 91
       24
280
     0
281
     0
  0
CLASS
  1
SCALE
  2
AcDbScale
  3
ObjectDBX Classes
 90
     1153
 91
       17
280
     0
281
     0
  0
CLASS
  1
TABLESTYLE
  2
AcDbTableStyle
  3
ObjectDBX Classes
 90
     4095
 91
        1
280
     0
281
     0
  0
CLASS
  1
MLEADERSTYLE
  2
AcDbMLeaderStyle
  3
ACDB_MLEADERSTYLE_CLASS
 90
     4095
 91
        1
280
     0
281
     0
  0
CLASS
  1
ACDBSECTIONVIEWSTYLE
  2
AcDbSectionViewStyle
  3
ObjectDBX Classes
 90
     1025
 91
        1
280
     0
281
     0
  0
CLASS
  1
ACDBDETAILVIEWSTYLE
  2
AcDbDetailViewStyle
  3
ObjectDBX Classes
 90
     1025
 91
        1
280
     0
281
     0
  0
CLASS
  1
SOLID_BACKGROUND
  2
AcDbSolidBackground
  3
SCENEOE
 90
     4095
 91
        0
280
     0
281
     0
  0
CLASS
  1
NPOCOLLECTION
  2
AcDbImpNonPersistentObjectsCollection
  3
ObjectDBX Classes
 90
     1153
 91
        0
280
     0
281
     0
  0
CLASS
  1
DICTIONARYVAR
  2
AcDbDictionaryVar
  3
ObjectDBX Classes
 90
        0
 91
        9
280
     0
281
     0
  0
CLASS
  1
CELLSTYLEMAP
  2
AcDbCellStyleMap
  3
ObjectDBX Classes
 90
     1152
 91
        2
280
     0
281
     0
  0
CLASS
  1
SORTENTSTABLE
  2
AcDbSortentsTable
  3
ObjectDBX Classes
 90
        0
 91
        1
280
     0
281
     0
  0
ENDSEC
  0
SECTION
  2
TABLES
  0
TABLE
  2
VPORT
  5
8
330
0
100
AcDbSymbolTable
 70
     1
  0
VPORT
  5
7B
330
8
100
AcDbSymbolTableRecord
100
AcDbViewportTableRecord
  2
*Active
 70
     0
 10
0.0
 20
0.0
 11
1.0
 21
1.0
 12
-2.567645573800611
 22
3.164115852251388
 13
0.0
 23
0.0
 14
1.0
 24
1.0
 15
0.0
 25
0.0
 16
0.0
 26
-0.072385339653934
 36
4.146953331403261
 17
-79.91742304329069
 27
44.10082163383401
 37
-0.0044656081124234
 40
7.396724067899164
 41
1.664215686274509
 42
50.0
 43
0.0
 44
0.0
 50
0.0
 51
0.0
 71
     0
 72
   100
 73
     1
 74
     0
 75
     0
 76
     0
 77
     0
 78
     0
281
     0
 65
     1
110
0.0
120
0.0
130
0.0
111
1.0
121
0.0
131
0.0
112
0.0
122
1.0
132
0.0
 79
     0
146
0.0
348
2F
 60
     3
 61
     5
292
     1
282
     1
141
0.0
142
0.0
 63
   250
421
  3355443
1001
ACAD_NAV_VCDISPLAY
1070
     3
  0
ENDTAB
  0
TABLE
  2
LTYPE
  5
5
330
0
100
AcDbSymbolTable
 70
     1
  0
LTYPE
  5
5A
330
5
100
AcDbSymbolTableRecord
100
AcDbLinetypeTableRecord
  2
ByBlock
 70
     0
  3

 72
    65
 73
     0
 40
0.0
  0
LTYPE
  5
5B
330
5
100
AcDbSymbolTableRecord
100
AcDbLinetypeTableRecord
  2
ByLayer
 70
     0
  3

 72
    65
 73
     0
 40
0.0
  0
LTYPE
  5
5C
330
5
100
AcDbSymbolTableRecord
100
AcDbLinetypeTableRecord
  2
Continuous
 70
     0
  3
Solid line
 72
    65
 73
     0
 40
0.0
  0
ENDTAB
  0
TABLE
  2
LAYER
  5
2
102
{ACAD_XDICTIONARY
360
1AF3
102
}
330
0
100
AcDbSymbolTable
 70
     2
  0
LAYER
  5
54
102
{ACAD_XDICTIONARY
360
1ACD
102
}
330
2
100
AcDbSymbolTableRecord
100
AcDbLayerTableRecord
  2
0
 70
     0
 62
     7
  6
Continuous
370
    -3
390
F
347
21
348
0
  0
LAYER
  5
9B
102
{ACAD_XDICTIONARY
360
1ADB
102
}
330
2
100
AcDbSymbolTableRecord
100
AcDbLayerTableRecord
  2
GEO_
 70
     0
 62
     7
  6
Continuous
370
    -3
390
F
347
21
348
0
  0
ENDTAB
  0
TABLE
  2
STYLE
  5
3
330
0
100
AcDbSymbolTable
 70
     2
  0
STYLE
  5
55
330
3
100
AcDbSymbolTableRecord
100
AcDbTextStyleTableRecord
  2
STANDARD
 70
     0
 40
0.006
 41
1.0
 50
0.0
 71
     0
 42
0.006
  3
arial.ttf
  4

1001
ACAD
1000
Arial
1071
       34
  0
STYLE
  5
59
330
3
100
AcDbSymbolTableRecord
100
AcDbTextStyleTableRecord
  2
Annotative
 70
     0
 40
0.0
 41
1.0
 50
0.0
 71
     0
 42
0.2
  3
txt
  4

1001
AcadAnnotative
1000
AnnotativeData
1002
{
1070
     1
1070
     1
1002
}
  0
ENDTAB
  0
TABLE
  2
VIEW
  5
6
330
0
100
AcDbSymbolTable
 70
     0
  0
ENDTAB
  0
TABLE
  2
UCS
  5
7
330
0
100
AcDbSymbolTable
 70
     0
  0
ENDTAB
  0
TABLE
  2
APPID
  5
9
330
0
100
AcDbSymbolTable
 70
     3
  0
APPID
  5
56
330
9
100
AcDbSymbolTableRecord
100
AcDbRegAppTableRecord
  2
ACAD
 70
     0
  0
APPID
  5
5D
330
9
100
AcDbSymbolTableRecord
100
AcDbRegAppTableRecord
  2
AcadAnnotative
 70
     0
  0
APPID
  5
1AC4
330
9
100
AcDbSymbolTableRecord
100
AcDbRegAppTableRecord
  2
ACAD_NAV_VCDISPLAY
 70
     0
  0
ENDTAB
  0
TABLE
  2
DIMSTYLE
  5
A
330
0
100
AcDbSymbolTable
 70
     2
100
AcDbDimStyleTable
 71
     0
  0
DIMSTYLE
105
57
330
A
100
AcDbSymbolTableRecord
100
AcDbDimStyleTableRecord
  2
Standard
 70
     0
340
55
  0
DIMSTYLE
105
58
330
A
100
AcDbSymbolTableRecord
100
AcDbDimStyleTableRecord
  2
Annotative
 70
     0
340
55
1001
AcadAnnotative
1000
AnnotativeData
1002
{
1070
     1
1070
     1
1002
}
  0
ENDTAB
  0
TABLE
  2
BLOCK_RECORD
  5
1
330
0
100
AcDbSymbolTable
 70
     4
  0
BLOCK_RECORD
  5
6F
102
{ACAD_XDICTIONARY
360
1AEE
102
}
330
1
100
AcDbSymbolTableRecord
100
AcDbBlockTableRecord
  2
*Model_Space
340
72
 70
     0
280
     1
281
     0
  0
BLOCK_RECORD
  5
6B
330
1
100
AcDbSymbolTableRecord
100
AcDbBlockTableRecord
  2
*Paper_Space
340
6E
 70
     0
280
     1
281
     0
  0
BLOCK_RECORD
  5
7C
330
1
100
AcDbSymbolTableRecord
100
AcDbBlockTableRecord
  2
AIRPORT
340
0
 70
     0
280
     1
281
     0
  0
BLOCK_RECORD
  5
80
330
1
100
AcDbSymbolTableRecord
100
AcDbBlockTableRecord
  2
FIX
340
0
 70
     0
280
     1
281
     0
  0
BLOCK_RECORD
  5
88
330
1
100
AcDbSymbolTableRecord
100
AcDbBlockTableRecord
  2
NDB
340
0
 70
     0
280
     1
281
     0
  0
BLOCK_RECORD
  5
8F
330
1
100
AcDbSymbolTableRecord
100
AcDbBlockTableRecord
  2
VOR
340
0
 70
     0
280
     1
281
     0
  0
ENDTAB
  0
ENDSEC
  0
SECTION
  2
BLOCKS
  0
BLOCK
  5
70
330
6F
100
AcDbEntity
  8
0
100
AcDbBlockBegin
  2
*Model_Space
 70
     0
 10
0.0
 20
0.0
 30
0.0
  3
*Model_Space
  1

  0
ENDBLK
  5
71
330
6F
100
AcDbEntity
  8
0
100
AcDbBlockEnd
  0
BLOCK
  5
6C
330
6B
100
AcDbEntity
 67
     1
  8
0
100
AcDbBlockBegin
  2
*Paper_Space
 70
     0
 10
0.0
 20
0.0
 30
0.0
  3
*Paper_Space
  1

  0
ENDBLK
  5
6D
330
6B
100
AcDbEntity
 67
     1
  8
0
100
AcDbBlockEnd
  0
BLOCK
  5
7D
330
7C
100
AcDbEntity
  8
0
100
AcDbBlockBegin
  2
AIRPORT
 70
     0
 10
0.0
 20
0.0
 30
0.0
  3
AIRPORT
  1

  0
CIRCLE
  5
7E
330
7C
100
AcDbEntity
  8
0
100
AcDbCircle
 10
0.0
 20
0.0
 30
0.0
 40
0.005
  0
ENDBLK
  5
7F
330
7C
100
AcDbEntity
  8
0
100
AcDbBlockEnd
  0
BLOCK
  5
81
330
80
100
AcDbEntity
  8
0
100
AcDbBlockBegin
  2
FIX
 70
     0
 10
0.0
 20
0.0
 30
0.0
  3
FIX
  1

  0
LWPOLYLINE
  5
82
330
80
100
AcDbEntity
  8
0
100
AcDbPolyline
 90
        3
 70
     1
 43
0.0
 10
-0.0050000000000061
 20
-0.0028867513459261
 10
0.0049999999999848
 20
-0.0028867513459474
 10
-0.0000000000000178
 20
0.0057735026919019
  0
ENDBLK
  5
87
330
80
100
AcDbEntity
  8
0
100
AcDbBlockEnd
  0
BLOCK
  5
89
330
88
100
AcDbEntity
  8
0
100
AcDbBlockBegin
  2
NDB
 70
     0
 10
0.0
 20
0.0
 30
0.0
  3
NDB
  1

  0
CIRCLE
  5
8A
330
88
100
AcDbEntity
  8
0
100
AcDbCircle
 10
0.0
 20
0.0
 30
0.0
 40
0.00065625
  0
CIRCLE
  5
8B
330
88
100
AcDbEntity
  8
0
100
AcDbCircle
 10
0.0
 20
0.0
 30
0.0
 40
0.002625
  0
CIRCLE
  5
8C
330
88
100
AcDbEntity
  8
0
100
AcDbCircle
 10
0.0
 20
0.0
 30
0.0
 40
0.00525
  0
CIRCLE
  5
8D
330
88
100
AcDbEntity
  8
0
100
AcDbCircle
 10
0.0
 20
0.0
 30
0.0
 40
0.007875
  0
ENDBLK
  5
8E
330
88
100
AcDbEntity
  8
0
100
AcDbBlockEnd
  0
BLOCK
  5
90
330
8F
100
AcDbEntity
  8
0
100
AcDbBlockBegin
  2
VOR
 70
     0
 10
0.0
 20
0.0
 30
0.0
  3
VOR
  1

  0
LWPOLYLINE
  5
91
330
8F
100
AcDbEntity
  8
0
100
AcDbPolyline
 90
        6
 70
     1
 43
0.0
 10
-0.0044997172835375
 20
0.0077937389547813
 10
-0.0089994345670776
 20
0.0
 10
-0.0044997172835393
 20
-0.0077937389547884
 10
0.0044997172835375
 20
-0.0077937389547884
 10
0.0089994345670776
 20
0.0
 10
0.0044997172835393
 20
0.0077937389547813
  0
CIRCLE
  5
99
330
8F
100
AcDbEntity
  8
0
100
AcDbCircle
 10
0.0
 20
0.0
 30
0.0
 40
0.0015111425556361
  0
ENDBLK
  5
9A
330
8F
100
AcDbEntity
  8
0
100
AcDbBlockEnd
  0
ENDSEC
  0
SECTION
  2
ENTITIES
  0
LINE
  5
20A
330
6F
100
AcDbEntity
  8
GEO_
 62
     7
420
 16777215
100
AcDbLine
 10
-84.70916388888891
 20
45.23716466808155
 30
0.0
 11
-84.57338055555554
 21
45.31936840898029
 31
0.0
  0
LINE
  5
20B
330
6F
100
AcDbEntity
  8
GEO_
 62
     7
420
 16777215
100
AcDbLine
 10
-84.57338055555554
 20
45.31936840898029
 30
0.0
 11
-84.09722222222219
 21
45.6082626153204
 31
0.0
  0
LINE
  5
20C
330
6F
100
AcDbEntity
  8
GEO_
 62
     7
420
 16777215
100
AcDbLine
 10
-84.09722222222219
 20
45.6082626153204
 30
0.0
 11
-83.89696944444445
 21
45.95438078503631
 31
0.0
  0
LINE
  5
216
330
6F
100
AcDbEntity
  8
GEO_
 62
     7
420
 16777215
100
AcDbLine
 10
-84.70916388888891
 20
45.23716466808155
 30
0.0
 11
-84.57338055555554
 21
45.31936840898029
 31
0.0
  0
LINE
  5
217
330
6F
100
AcDbEntity
  8
GEO_
 62
     7
420
 16777215
100
AcDbLine
 10
-84.57338055555554
 20
45.31936840898029
 30
0.0
 11
-84.09722222222219
 21
45.6082626153204
 31
0.0
  0
LINE
  5
218
330
6F
100
AcDbEntity
  8
GEO_
 62
     7
420
 16777215
100
AcDbLine
 10
-84.09722222222219
 20
45.6082626153204
 30
0.0
 11
-83.89696944444445
 21
45.95438078503631
 31
0.0
  0
LINE
  5
235
330
6F
100
AcDbEntity
  8
GEO_
 62
     7
420
 16777215
100
AcDbLine
 10
-84.70916388888891
 20
45.23716466808155
 30
0.0
 11
-84.70916388888891
 21
45.23716466808155
 31
0.0
  0
LINE
  5
237
330
6F
100
AcDbEntity
  8
GEO_
 62
     7
420
 16777215
100
AcDbLine
 10
-84.70916388888891
 20
45.23716466808155
 30
0.0
 11
-84.57338055555554
 21
45.31936840898029
 31
0.0
  0
LINE
  5
238
330
6F
100
AcDbEntity
  8
GEO_
 62
     7
420
 16777215
100
AcDbLine
 10
-84.57338055555554
 20
45.31936840898029
 30
0.0
 11
-84.57338055555554
 21
45.31936840898029
 31
0.0
  0
LINE
  5
239
330
6F
100
AcDbEntity
  8
GEO_
 62
     7
420
 16777215
100
AcDbLine
 10
-84.57338055555554
 20
45.31936840898029
 30
0.0
 11
-84.70916388888891
 21
45.23716466808155
 31
0.0
  0
LINE
  5
23A
330
6F
100
AcDbEntity
  8
GEO_
 62
     7
420
 16777215
100
AcDbLine
 10
-84.57338055555554
 20
45.31936840898029
 30
0.0
 11
-84.09722222222219
 21
45.6082626153204
 31
0.0
  0
LINE
  5
23B
330
6F
100
AcDbEntity
  8
GEO_
 62
     7
420
 16777215
100
AcDbLine
 10
-84.09722222222219
 20
45.6082626153204
 30
0.0
 11
-84.09722222222219
 21
45.6082626153204
 31
0.0
  0
LINE
  5
23C
330
6F
100
AcDbEntity
  8
GEO_
 62
     7
420
 16777215
100
AcDbLine
 10
-84.09722222222219
 20
45.6082626153204
 30
0.0
 11
-84.57338055555554
 21
45.31936840898029
 31
0.0
  0
LINE
  5
23D
330
6F
100
AcDbEntity
  8
GEO_
 62
     7
420
 16777215
100
AcDbLine
 10
-84.09722222222219
 20
45.6082626153204
 30
0.0
 11
-83.89696944444445
 21
45.95438078503631
 31
0.0
  0
LINE
  5
23E
330
6F
100
AcDbEntity
  8
GEO_
 62
     7
420
 16777215
100
AcDbLine
 10
-83.89696944444445
 20
45.95438078503631
 30
0.0
 11
-83.89696944444445
 21
45.95438078503631
 31
0.0
  0
LINE
  5
23F
330
6F
100
AcDbEntity
  8
GEO_
 62
     7
420
 16777215
100
AcDbLine
 10
-83.89696944444445
 20
45.95438078503631
 30
0.0
 11
-84.09722222222219
 21
45.6082626153204
 31
0.0
  0
LINE
  5
240
330
6F
100
AcDbEntity
  8
GEO_
 62
     7
420
 16777215
100
AcDbLine
 10
-83.38852777777779
 20
46.62586874796057
 30
0.0
 11
-83.13023055555554
 21
46.6037986918675
 31
0.0
  0
LINE
  5
24E
330
6F
100
AcDbEntity
  8
GEO_
 62
     7
420
 16777215
100
AcDbLine
 10
-84.70916388888891
 20
45.23716466808155
 30
0.0
 11
-84.57338055555554
 21
45.31936840898029
 31
0.0
  0
LINE
  5
24F
330
6F
100
AcDbEntity
  8
GEO_
 62
     7
420
 16777215
100
AcDbLine
 10
-84.57338055555554
 20
45.31936840898029
 30
0.0
 11
-84.09722222222219
 21
45.6082626153204
 31
0.0
  0
LINE
  5
250
330
6F
100
AcDbEntity
  8
GEO_
 62
     7
420
 16777215
100
AcDbLine
 10
-84.09722222222219
 20
45.6082626153204
 30
0.0
 11
-83.89696944444445
 21
45.95438078503631
 31
0.0
  0
LINE
  5
251
330
6F
100
AcDbEntity
  8
GEO_
 62
     7
420
 16777215
100
AcDbLine
 10
-83.89696944444445
 20
45.95438078503631
 30
0.0
 11
-83.84829999999999
 21
46.08429800632882
 31
0.0
  0
LINE
  5
252
330
6F
100
AcDbEntity
  8
GEO_
 62
     7
420
 16777215
100
AcDbLine
 10
-83.84829999999999
 20
46.08429800632882
 30
0.0
 11
-83.8326583333333
 21
46.17486019316203
 31
0.0
  0
LINE
  5
253
330
6F
100
AcDbEntity
  8
GEO_
 62
     7
420
 16777215
100
AcDbLine
 10
-83.8326583333333
 20
46.17486019316203
 30
0.0
 11
-83.78316666666666
 21
46.44717419338787
 31
0.0
  0
LINE
  5
254
330
6F
100
AcDbEntity
  8
GEO_
 62
     7
420
 16777215
100
AcDbLine
 10
-83.78316666666666
 20
46.44717419338787
 30
0.0
 11
-83.74508055555557
 21
46.65665339700722
 31
0.0
  0
LINE
  5
255
330
6F
100
AcDbEntity
  8
GEO_
 62
     7
420
 16777215
100
AcDbLine
 10
-83.38852777777779
 20
46.62586874796057
 30
0.0
 11
-83.13023055555554
 21
46.6037986918675
 31
0.0
  0
LINE
  5
263
330
6F
100
AcDbEntity
  8
GEO_
 62
     7
420
 16777215
100
AcDbLine
 10
-84.70916388888891
 20
45.23716466808155
 30
0.0
 11
-84.57338055555554
 21
45.31936840898029
 31
0.0
  0
LINE
  5
264
330
6F
100
AcDbEntity
  8
GEO_
 62
     7
420
 16777215
100
AcDbLine
 10
-84.57338055555554
 20
45.31936840898029
 30
0.0
 11
-84.09722222222219
 21
45.6082626153204
 31
0.0
  0
LINE
  5
265
330
6F
100
AcDbEntity
  8
GEO_
 62
     7
420
 16777215
100
AcDbLine
 10
-84.09722222222219
 20
45.6082626153204
 30
0.0
 11
-83.89696944444445
 21
45.95438078503631
 31
0.0
  0
LINE
  5
266
330
6F
100
AcDbEntity
  8
GEO_
 62
     7
420
 16777215
100
AcDbLine
 10
-83.89696944444445
 20
45.95438078503631
 30
0.0
 11
-83.84829999999999
 21
46.08429800632882
 31
0.0
  0
LINE
  5
267
330
6F
100
AcDbEntity
  8
GEO_
 62
     7
420
 16777215
100
AcDbLine
 10
-83.84829999999999
 20
46.08429800632882
 30
0.0
 11
-83.8326583333333
 21
46.17486019316203
 31
0.0
  0
LINE
  5
268
330
6F
100
AcDbEntity
  8
GEO_
 62
     7
420
 16777215
100
AcDbLine
 10
-83.8326583333333
 20
46.17486019316203
 30
0.0
 11
-83.78316666666666
 21
46.44717419338787
 31
0.0
  0
LINE
  5
269
330
6F
100
AcDbEntity
  8
GEO_
 62
     7
420
 16777215
100
AcDbLine
 10
-83.78316666666666
 20
46.44717419338787
 30
0.0
 11
-83.74508055555557
 21
46.65665339700722
 31
0.0
  0
LINE
  5
26A
330
6F
100
AcDbEntity
  8
GEO_
 62
     7
420
 16777215
100
AcDbLine
 10
-83.74508055555557
 20
46.65665339700722
 30
0.0
 11
-83.38852777777779
 21
46.62586874796057
 31
0.0
  0
LINE
  5
26B
330
6F
100
AcDbEntity
  8
GEO_
 62
     7
420
 16777215
100
AcDbLine
 10
-83.38852777777779
 20
46.62586874796057
 30
0.0
 11
-83.38852777777779
 21
46.62586874796057
 31
0.0
  0
LINE
  5
26C
330
6F
100
AcDbEntity
  8
GEO_
 62
     7
420
 16777215
100
AcDbLine
 10
-83.38852777777779
 20
46.62586874796057
 30
0.0
 11
-83.74508055555557
 21
46.65665339700722
 31
0.0
  0
LINE
  5
26D
330
6F
100
AcDbEntity
  8
GEO_
 62
     7
420
 16777215
100
AcDbLine
 10
-83.38852777777779
 20
46.62586874796057
 30
0.0
 11
-83.13023055555554
 21
46.6037986918675
 31
0.0
  0
LINE
  5
26E
330
6F
100
AcDbEntity
  8
GEO_
 62
     7
420
 16777215
100
AcDbLine
 10
-83.13023055555554
 20
46.6037986918675
 30
0.0
 11
-83.13023055555554
 21
46.6037986918675
 31
0.0
  0
LINE
  5
26F
330
6F
100
AcDbEntity
  8
GEO_
 62
     7
420
 16777215
100
AcDbLine
 10
-83.13023055555554
 20
46.6037986918675
 30
0.0
 11
-83.38852777777779
 21
46.62586874796057
 31
0.0
  0
LINE
  5
295
330
6F
100
AcDbEntity
  8
GEO_
 62
     7
420
 16777215
100
AcDbLine
 10
-84.70916388888891
 20
45.23716466808155
 30
0.0
 11
-84.70916388888891
 21
45.23716466808155
 31
0.0
  0
LINE
  5
297
330
6F
100
AcDbEntity
  8
GEO_
 62
     7
420
 16777215
100
AcDbLine
 10
-84.70916388888891
 20
45.23716466808155
 30
0.0
 11
-84.57338055555554
 21
45.31936840898029
 31
0.0
  0
LINE
  5
298
330
6F
100
AcDbEntity
  8
GEO_
 62
     7
420
 16777215
100
AcDbLine
 10
-84.57338055555554
 20
45.31936840898029
 30
0.0
 11
-84.57338055555554
 21
45.31936840898029
 31
0.0
  0
LINE
  5
299
330
6F
100
AcDbEntity
  8
GEO_
 62
     7
420
 16777215
100
AcDbLine
 10
-84.57338055555554
 20
45.31936840898029
 30
0.0
 11
-84.70916388888891
 21
45.23716466808155
 31
0.0
  0
LINE
  5
29A
330
6F
100
AcDbEntity
  8
GEO_
 62
     7
420
 16777215
100
AcDbLine
 10
-84.57338055555554
 20
45.31936840898029
 30
0.0
 11
-84.09722222222219
 21
45.6082626153204
 31
0.0
  0
LINE
  5
29B
330
6F
100
AcDbEntity
  8
GEO_
 62
     7
420
 16777215
100
AcDbLine
 10
-84.09722222222219
 20
45.6082626153204
 30
0.0
 11
-84.09722222222219
 21
45.6082626153204
 31
0.0
  0
LINE
  5
29C
330
6F
100
AcDbEntity
  8
GEO_
 62
     7
420
 16777215
100
AcDbLine
 10
-84.09722222222219
 20
45.6082626153204
 30
0.0
 11
-84.57338055555554
 21
45.31936840898029
 31
0.0
  0
LINE
  5
29D
330
6F
100
AcDbEntity
  8
GEO_
 62
     7
420
 16777215
100
AcDbLine
 10
-84.09722222222219
 20
45.6082626153204
 30
0.0
 11
-83.89696944444445
 21
45.95438078503631
 31
0.0
  0
LINE
  5
29E
330
6F
100
AcDbEntity
  8
GEO_
 62
     7
420
 16777215
100
AcDbLine
 10
-83.89696944444445
 20
45.95438078503631
 30
0.0
 11
-83.89696944444445
 21
45.95438078503631
 31
0.0
  0
LINE
  5
29F
330
6F
100
AcDbEntity
  8
GEO_
 62
     7
420
 16777215
100
AcDbLine
 10
-83.89696944444445
 20
45.95438078503631
 30
0.0
 11
-84.09722222222219
 21
45.6082626153204
 31
0.0
  0
LINE
  5
2A0
330
6F
100
AcDbEntity
  8
GEO_
 62
     7
420
 16777215
100
AcDbLine
 10
-83.89696944444445
 20
45.95438078503631
 30
0.0
 11
-83.84829999999999
 21
46.08429800632882
 31
0.0
  0
LINE
  5
2A1
330
6F
100
AcDbEntity
  8
GEO_
 62
     7
420
 16777215
100
AcDbLine
 10
-83.84829999999999
 20
46.08429800632882
 30
0.0
 11
-83.84829999999999
 21
46.08429800632882
 31
0.0
  0
LINE
  5
2A2
330
6F
100
AcDbEntity
  8
GEO_
 62
     7
420
 16777215
100
AcDbLine
 10
-83.84829999999999
 20
46.08429800632882
 30
0.0
 11
-83.89696944444445
 21
45.95438078503631
 31
0.0
  0
LINE
  5
2A3
330
6F
100
AcDbEntity
  8
GEO_
 62
     7
420
 16777215
100
AcDbLine
 10
-83.84829999999999
 20
46.08429800632882
 30
0.0
 11
-83.8326583333333
 21
46.17486019316203
 31
0.0
  0
LINE
  5
2A4
330
6F
100
AcDbEntity
  8
GEO_
 62
     7
420
 16777215
100
AcDbLine
 10
-83.8326583333333
 20
46.17486019316203
 30
0.0
 11
-83.8326583333333
 21
46.17486019316203
 31
0.0
  0
LINE
  5
2A5
330
6F
100
AcDbEntity
  8
GEO_
 62
     7
420
 16777215
100
AcDbLine
 10
-83.8326583333333
 20
46.17486019316203
 30
0.0
 11
-83.84829999999999
 21
46.08429800632882
 31
0.0
  0
LINE
  5
2A6
330
6F
100
AcDbEntity
  8
GEO_
 62
     7
420
 16777215
100
AcDbLine
 10
-83.8326583333333
 20
46.17486019316203
 30
0.0
 11
-83.78316666666666
 21
46.44717419338787
 31
0.0
  0
LINE
  5
2A7
330
6F
100
AcDbEntity
  8
GEO_
 62
     7
420
 16777215
100
AcDbLine
 10
-83.78316666666666
 20
46.44717419338787
 30
0.0
 11
-83.78316666666666
 21
46.44717419338787
 31
0.0
  0
LINE
  5
2A8
330
6F
100
AcDbEntity
  8
GEO_
 62
     7
420
 16777215
100
AcDbLine
 10
-83.78316666666666
 20
46.44717419338787
 30
0.0
 11
-83.8326583333333
 21
46.17486019316203
 31
0.0
  0
LINE
  5
2A9
330
6F
100
AcDbEntity
  8
GEO_
 62
     7
420
 16777215
100
AcDbLine
 10
-83.78316666666666
 20
46.44717419338787
 30
0.0
 11
-83.74508055555557
 21
46.65665339700722
 31
0.0
  0
LINE
  5
2AA
330
6F
100
AcDbEntity
  8
GEO_
 62
     7
420
 16777215
100
AcDbLine
 10
-83.74508055555557
 20
46.65665339700722
 30
0.0
 11
-83.74508055555557
 21
46.65665339700722
 31
0.0
  0
LINE
  5
2AB
330
6F
100
AcDbEntity
  8
GEO_
 62
     7
420
 16777215
100
AcDbLine
 10
-83.74508055555557
 20
46.65665339700722
 30
0.0
 11
-83.78316666666666
 21
46.44717419338787
 31
0.0
  0
LINE
  5
2B9
330
6F
100
AcDbEntity
  8
GEO_
 62
     7
420
 16777215
100
AcDbLine
 10
-84.70916388888891
 20
45.23716466808155
 30
0.0
 11
-84.57338055555554
 21
45.31936840898029
 31
0.0
  0
LINE
  5
2BA
330
6F
100
AcDbEntity
  8
GEO_
 62
     7
420
 16777215
100
AcDbLine
 10
-84.57338055555554
 20
45.31936840898029
 30
0.0
 11
-84.09722222222219
 21
45.6082626153204
 31
0.0
  0
LINE
  5
2BB
330
6F
100
AcDbEntity
  8
GEO_
 62
     7
420
 16777215
100
AcDbLine
 10
-84.09722222222219
 20
45.6082626153204
 30
0.0
 11
-83.89696944444445
 21
45.95438078503631
 31
0.0
  0
LINE
  5
2BC
330
6F
100
AcDbEntity
  8
GEO_
 62
     7
420
 16777215
100
AcDbLine
 10
-83.89696944444445
 20
45.95438078503631
 30
0.0
 11
-83.84829999999999
 21
46.08429800632882
 31
0.0
  0
LINE
  5
2BD
330
6F
100
AcDbEntity
  8
GEO_
 62
     7
420
 16777215
100
AcDbLine
 10
-83.84829999999999
 20
46.08429800632882
 30
0.0
 11
-83.8326583333333
 21
46.17486019316203
 31
0.0
  0
LINE
  5
2BE
330
6F
100
AcDbEntity
  8
GEO_
 62
     7
420
 16777215
100
AcDbLine
 10
-83.8326583333333
 20
46.17486019316203
 30
0.0
 11
-83.78316666666666
 21
46.44717419338787
 31
0.0
  0
LINE
  5
2BF
330
6F
100
AcDbEntity
  8
GEO_
 62
     7
420
 16777215
100
AcDbLine
 10
-83.78316666666666
 20
46.44717419338787
 30
0.0
 11
-83.74508055555557
 21
46.65665339700722
 31
0.0
  0
LINE
  5
2CD
330
6F
100
AcDbEntity
  8
GEO_
 62
     7
420
 16777215
100
AcDbLine
 10
-84.70916388888891
 20
45.23716466808155
 30
0.0
 11
-84.57338055555554
 21
45.31936840898029
 31
0.0
  0
LINE
  5
2CE
330
6F
100
AcDbEntity
  8
GEO_
 62
     7
420
 16777215
100
AcDbLine
 10
-84.57338055555554
 20
45.31936840898029
 30
0.0
 11
-84.09722222222219
 21
45.6082626153204
 31
0.0
  0
LINE
  5
2CF
330
6F
100
AcDbEntity
  8
GEO_
 62
     7
420
 16777215
100
AcDbLine
 10
-84.09722222222219
 20
45.6082626153204
 30
0.0
 11
-83.89696944444445
 21
45.95438078503631
 31
0.0
  0
LINE
  5
2D0
330
6F
100
AcDbEntity
  8
GEO_
 62
     7
420
 16777215
100
AcDbLine
 10
-83.89696944444445
 20
45.95438078503631
 30
0.0
 11
-83.84829999999999
 21
46.08429800632882
 31
0.0
  0
LINE
  5
2D1
330
6F
100
AcDbEntity
  8
GEO_
 62
     7
420
 16777215
100
AcDbLine
 10
-83.84829999999999
 20
46.08429800632882
 30
0.0
 11
-83.8326583333333
 21
46.17486019316203
 31
0.0
  0
LINE
  5
2D2
330
6F
100
AcDbEntity
  8
GEO_
 62
     7
420
 16777215
100
AcDbLine
 10
-83.8326583333333
 20
46.17486019316203
 30
0.0
 11
-83.78316666666666
 21
46.44717419338787
 31
0.0
  0
LINE
  5
2D3
330
6F
100
AcDbEntity
  8
GEO_
 62
     7
420
 16777215
100
AcDbLine
 10
-83.78316666666666
 20
46.44717419338787
 30
0.0
 11
-83.74508055555557
 21
46.65665339700722
 31
0.0
  0
LINE
  5
2D4
330
6F
100
AcDbEntity
  8
GEO_
 62
     7
420
 16777215
100
AcDbLine
 10
-83.74508055555557
 20
46.65665339700722
 30
0.0
 11
-83.38852777777779
 21
46.62586874796057
 31
0.0
  0
LINE
  5
2D5
330
6F
100
AcDbEntity
  8
GEO_
 62
     7
420
 16777215
100
AcDbLine
 10
-83.38852777777779
 20
46.62586874796057
 30
0.0
 11
-83.38852777777779
 21
46.62586874796057
 31
0.0
  0
LINE
  5
2D6
330
6F
100
AcDbEntity
  8
GEO_
 62
     7
420
 16777215
100
AcDbLine
 10
-83.38852777777779
 20
46.62586874796057
 30
0.0
 11
-83.74508055555557
 21
46.65665339700722
 31
0.0
  0
LINE
  5
2FC
330
6F
100
AcDbEntity
  8
GEO_
 62
     7
420
 16777215
100
AcDbLine
 10
-84.70916388888891
 20
45.23716466808155
 30
0.0
 11
-84.70916388888891
 21
45.23716466808155
 31
0.0
  0
LINE
  5
2FE
330
6F
100
AcDbEntity
  8
GEO_
 62
     7
420
 16777215
100
AcDbLine
 10
-84.70916388888891
 20
45.23716466808155
 30
0.0
 11
-84.57338055555554
 21
45.31936840898029
 31
0.0
  0
LINE
  5
2FF
330
6F
100
AcDbEntity
  8
GEO_
 62
     7
420
 16777215
100
AcDbLine
 10
-84.57338055555554
 20
45.31936840898029
 30
0.0
 11
-84.57338055555554
 21
45.31936840898029
 31
0.0
  0
LINE
  5
300
330
6F
100
AcDbEntity
  8
GEO_
 62
     7
420
 16777215
100
AcDbLine
 10
-84.57338055555554
 20
45.31936840898029
 30
0.0
 11
-84.70916388888891
 21
45.23716466808155
 31
0.0
  0
LINE
  5
301
330
6F
100
AcDbEntity
  8
GEO_
 62
     7
420
 16777215
100
AcDbLine
 10
-84.57338055555554
 20
45.31936840898029
 30
0.0
 11
-84.09722222222219
 21
45.6082626153204
 31
0.0
  0
LINE
  5
302
330
6F
100
AcDbEntity
  8
GEO_
 62
     7
420
 16777215
100
AcDbLine
 10
-84.09722222222219
 20
45.6082626153204
 30
0.0
 11
-84.09722222222219
 21
45.6082626153204
 31
0.0
  0
LINE
  5
303
330
6F
100
AcDbEntity
  8
GEO_
 62
     7
420
 16777215
100
AcDbLine
 10
-84.09722222222219
 20
45.6082626153204
 30
0.0
 11
-84.57338055555554
 21
45.31936840898029
 31
0.0
  0
LINE
  5
304
330
6F
100
AcDbEntity
  8
GEO_
 62
     7
420
 16777215
100
AcDbLine
 10
-84.09722222222219
 20
45.6082626153204
 30
0.0
 11
-83.89696944444445
 21
45.95438078503631
 31
0.0
  0
LINE
  5
305
330
6F
100
AcDbEntity
  8
GEO_
 62
     7
420
 16777215
100
AcDbLine
 10
-83.89696944444445
 20
45.95438078503631
 30
0.0
 11
-83.89696944444445
 21
45.95438078503631
 31
0.0
  0
LINE
  5
306
330
6F
100
AcDbEntity
  8
GEO_
 62
     7
420
 16777215
100
AcDbLine
 10
-83.89696944444445
 20
45.95438078503631
 30
0.0
 11
-84.09722222222219
 21
45.6082626153204
 31
0.0
  0
LINE
  5
307
330
6F
100
AcDbEntity
  8
GEO_
 62
     7
420
 16777215
100
AcDbLine
 10
-83.89696944444445
 20
45.95438078503631
 30
0.0
 11
-83.84829999999999
 21
46.08429800632882
 31
0.0
  0
LINE
  5
308
330
6F
100
AcDbEntity
  8
GEO_
 62
     7
420
 16777215
100
AcDbLine
 10
-83.84829999999999
 20
46.08429800632882
 30
0.0
 11
-83.84829999999999
 21
46.08429800632882
 31
0.0
  0
LINE
  5
309
330
6F
100
AcDbEntity
  8
GEO_
 62
     7
420
 16777215
100
AcDbLine
 10
-83.84829999999999
 20
46.08429800632882
 30
0.0
 11
-83.89696944444445
 21
45.95438078503631
 31
0.0
  0
LINE
  5
30A
330
6F
100
AcDbEntity
  8
GEO_
 62
     7
420
 16777215
100
AcDbLine
 10
-83.84829999999999
 20
46.08429800632882
 30
0.0
 11
-83.8326583333333
 21
46.17486019316203
 31
0.0
  0
LINE
  5
30B
330
6F
100
AcDbEntity
  8
GEO_
 62
     7
420
 16777215
100
AcDbLine
 10
-83.8326583333333
 20
46.17486019316203
 30
0.0
 11
-83.8326583333333
 21
46.17486019316203
 31
0.0
  0
LINE
  5
30C
330
6F
100
AcDbEntity
  8
GEO_
 62
     7
420
 16777215
100
AcDbLine
 10
-83.8326583333333
 20
46.17486019316203
 30
0.0
 11
-83.84829999999999
 21
46.08429800632882
 31
0.0
  0
LINE
  5
30D
330
6F
100
AcDbEntity
  8
GEO_
 62
     7
420
 16777215
100
AcDbLine
 10
-83.8326583333333
 20
46.17486019316203
 30
0.0
 11
-83.78316666666666
 21
46.44717419338787
 31
0.0
  0
LINE
  5
30E
330
6F
100
AcDbEntity
  8
GEO_
 62
     7
420
 16777215
100
AcDbLine
 10
-83.78316666666666
 20
46.44717419338787
 30
0.0
 11
-83.78316666666666
 21
46.44717419338787
 31
0.0
  0
LINE
  5
30F
330
6F
100
AcDbEntity
  8
GEO_
 62
     7
420
 16777215
100
AcDbLine
 10
-83.78316666666666
 20
46.44717419338787
 30
0.0
 11
-83.8326583333333
 21
46.17486019316203
 31
0.0
  0
LINE
  5
310
330
6F
100
AcDbEntity
  8
GEO_
 62
     7
420
 16777215
100
AcDbLine
 10
-83.78316666666666
 20
46.44717419338787
 30
0.0
 11
-83.74508055555557
 21
46.65665339700722
 31
0.0
  0
LINE
  5
311
330
6F
100
AcDbEntity
  8
GEO_
 62
     7
420
 16777215
100
AcDbLine
 10
-83.74508055555557
 20
46.65665339700722
 30
0.0
 11
-83.74508055555557
 21
46.65665339700722
 31
0.0
  0
LINE
  5
312
330
6F
100
AcDbEntity
  8
GEO_
 62
     7
420
 16777215
100
AcDbLine
 10
-83.74508055555557
 20
46.65665339700722
 30
0.0
 11
-83.78316666666666
 21
46.44717419338787
 31
0.0
  0
LINE
  5
7EF
330
6F
100
AcDbEntity
  8
GEO_
 62
     7
420
 16777215
100
AcDbLine
 10
-85.0
 20
47.96168818189965
 30
0.0
 11
-85.0
 21
48.40472442330342
 31
0.0
  0
LINE
  5
7F0
330
6F
100
AcDbEntity
  8
GEO_
 62
     7
420
 16777215
100
AcDbLine
 10
-85.0
 20
48.40472442330342
 30
0.0
 11
-84.96361111111111
 21
48.5242888364587
 31
0.0
  0
LINE
  5
7F1
330
6F
100
AcDbEntity
  8
GEO_
 62
     7
420
 16777215
100
AcDbLine
 10
-84.96361111111111
 20
48.5242888364587
 30
0.0
 11
-84.52249999999997
 21
48.58950856848593
 31
0.0
  0
LINE
  5
7FA
330
6F
100
AcDbEntity
  8
GEO_
 62
     7
420
 16777215
100
AcDbLine
 10
-84.99998333333333
 20
47.29362185917149
 30
0.0
 11
-85.0
 21
47.36803744040439
 31
0.0
  0
LINE
  5
7FB
330
6F
100
AcDbEntity
  8
GEO_
 62
     7
420
 16777215
100
AcDbLine
 10
-85.0
 20
47.36803744040439
 30
0.0
 11
-85.0
 21
47.67268978093073
 31
0.0
  0
LINE
  5
7FC
330
6F
100
AcDbEntity
  8
GEO_
 62
     7
420
 16777215
100
AcDbLine
 10
-85.0
 20
47.67268978093073
 30
0.0
 11
-85.0
 21
47.76764523926575
 31
0.0
  0
LINE
  5
7FD
330
6F
100
AcDbEntity
  8
GEO_
 62
     7
420
 16777215
100
AcDbLine
 10
-85.0
 20
47.96168818189965
 30
0.0
 11
-85.0
 21
48.40472442330342
 31
0.0
  0
LINE
  5
7FE
330
6F
100
AcDbEntity
  8
GEO_
 62
     7
420
 16777215
100
AcDbLine
 10
-85.0
 20
48.40472442330342
 30
0.0
 11
-84.96361111111111
 21
48.5242888364587
 31
0.0
  0
LINE
  5
7FF
330
6F
100
AcDbEntity
  8
GEO_
 62
     7
420
 16777215
100
AcDbLine
 10
-84.96361111111111
 20
48.5242888364587
 30
0.0
 11
-84.52249999999997
 21
48.58950856848593
 31
0.0
  0
LINE
  5
808
330
6F
100
AcDbEntity
  8
GEO_
 62
     7
420
 16777215
100
AcDbLine
 10
-84.99998333333333
 20
47.29362185917149
 30
0.0
 11
-85.0
 21
47.36803744040439
 31
0.0
  0
LINE
  5
809
330
6F
100
AcDbEntity
  8
GEO_
 62
     7
420
 16777215
100
AcDbLine
 10
-85.0
 20
47.36803744040439
 30
0.0
 11
-85.0
 21
47.67268978093073
 31
0.0
  0
LINE
  5
80A
330
6F
100
AcDbEntity
  8
GEO_
 62
     7
420
 16777215
100
AcDbLine
 10
-85.0
 20
47.67268978093073
 30
0.0
 11
-85.0
 21
47.76764523926575
 31
0.0
  0
LINE
  5
80B
330
6F
100
AcDbEntity
  8
GEO_
 62
     7
420
 16777215
100
AcDbLine
 10
-85.0
 20
47.76764523926575
 30
0.0
 11
-85.0
 21
47.96168818189965
 31
0.0
  0
LINE
  5
80C
330
6F
100
AcDbEntity
  8
GEO_
 62
     7
420
 16777215
100
AcDbLine
 10
-85.0
 20
47.96168818189965
 30
0.0
 11
-85.0
 21
47.96168818189965
 31
0.0
  0
LINE
  5
80D
330
6F
100
AcDbEntity
  8
GEO_
 62
     7
420
 16777215
100
AcDbLine
 10
-85.0
 20
47.96168818189965
 30
0.0
 11
-85.0
 21
47.76764523926575
 31
0.0
  0
LINE
  5
80E
330
6F
100
AcDbEntity
  8
GEO_
 62
     7
420
 16777215
100
AcDbLine
 10
-85.0
 20
47.96168818189965
 30
0.0
 11
-85.0
 21
48.40472442330342
 31
0.0
  0
LINE
  5
80F
330
6F
100
AcDbEntity
  8
GEO_
 62
     7
420
 16777215
100
AcDbLine
 10
-85.0
 20
48.40472442330342
 30
0.0
 11
-85.0
 21
48.40472442330342
 31
0.0
  0
LINE
  5
810
330
6F
100
AcDbEntity
  8
GEO_
 62
     7
420
 16777215
100
AcDbLine
 10
-85.0
 20
48.40472442330342
 30
0.0
 11
-85.0
 21
47.96168818189965
 31
0.0
  0
LINE
  5
811
330
6F
100
AcDbEntity
  8
GEO_
 62
     7
420
 16777215
100
AcDbLine
 10
-85.0
 20
48.40472442330342
 30
0.0
 11
-84.96361111111111
 21
48.5242888364587
 31
0.0
  0
LINE
  5
812
330
6F
100
AcDbEntity
  8
GEO_
 62
     7
420
 16777215
100
AcDbLine
 10
-84.96361111111111
 20
48.5242888364587
 30
0.0
 11
-84.96361111111111
 21
48.5242888364587
 31
0.0
  0
LINE
  5
813
330
6F
100
AcDbEntity
  8
GEO_
 62
     7
420
 16777215
100
AcDbLine
 10
-84.96361111111111
 20
48.5242888364587
 30
0.0
 11
-85.0
 21
48.40472442330342
 31
0.0
  0
LINE
  5
814
330
6F
100
AcDbEntity
  8
GEO_
 62
     7
420
 16777215
100
AcDbLine
 10
-84.96361111111111
 20
48.5242888364587
 30
0.0
 11
-84.52249999999997
 21
48.58950856848593
 31
0.0
  0
LINE
  5
815
330
6F
100
AcDbEntity
  8
GEO_
 62
     7
420
 16777215
100
AcDbLine
 10
-84.52249999999997
 20
48.58950856848593
 30
0.0
 11
-84.52249999999997
 21
48.58950856848593
 31
0.0
  0
LINE
  5
816
330
6F
100
AcDbEntity
  8
GEO_
 62
     7
420
 16777215
100
AcDbLine
 10
-84.52249999999997
 20
48.58950856848593
 30
0.0
 11
-84.96361111111111
 21
48.5242888364587
 31
0.0
  0
LINE
  5
82D
330
6F
100
AcDbEntity
  8
GEO_
 62
     7
420
 16777215
100
AcDbLine
 10
-84.99998333333333
 20
47.29362185917149
 30
0.0
 11
-84.99998333333333
 21
47.29362185917149
 31
0.0
  0
LINE
  5
82F
330
6F
100
AcDbEntity
  8
GEO_
 62
     7
420
 16777215
100
AcDbLine
 10
-84.99998333333333
 20
47.29362185917149
 30
0.0
 11
-85.0
 21
47.36803744040439
 31
0.0
  0
LINE
  5
830
330
6F
100
AcDbEntity
  8
GEO_
 62
     7
420
 16777215
100
AcDbLine
 10
-85.0
 20
47.36803744040439
 30
0.0
 11
-85.0
 21
47.36803744040439
 31
0.0
  0
LINE
  5
831
330
6F
100
AcDbEntity
  8
GEO_
 62
     7
420
 16777215
100
AcDbLine
 10
-85.0
 20
47.36803744040439
 30
0.0
 11
-84.99998333333333
 21
47.29362185917149
 31
0.0
  0
LINE
  5
832
330
6F
100
AcDbEntity
  8
GEO_
 62
     7
420
 16777215
100
AcDbLine
 10
-85.0
 20
47.36803744040439
 30
0.0
 11
-85.0
 21
47.67268978093073
 31
0.0
  0
LINE
  5
833
330
6F
100
AcDbEntity
  8
GEO_
 62
     7
420
 16777215
100
AcDbLine
 10
-85.0
 20
47.67268978093073
 30
0.0
 11
-85.0
 21
47.67268978093073
 31
0.0
  0
LINE
  5
834
330
6F
100
AcDbEntity
  8
GEO_
 62
     7
420
 16777215
100
AcDbLine
 10
-85.0
 20
47.67268978093073
 30
0.0
 11
-85.0
 21
47.36803744040439
 31
0.0
  0
LINE
  5
835
330
6F
100
AcDbEntity
  8
GEO_
 62
     7
420
 16777215
100
AcDbLine
 10
-85.0
 20
47.67268978093073
 30
0.0
 11
-85.0
 21
47.76764523926575
 31
0.0
  0
LINE
  5
836
330
6F
100
AcDbEntity
  8
GEO_
 62
     7
420
 16777215
100
AcDbLine
 10
-85.0
 20
47.76764523926575
 30
0.0
 11
-85.0
 21
47.76764523926575
 31
0.0
  0
LINE
  5
837
330
6F
100
AcDbEntity
  8
GEO_
 62
     7
420
 16777215
100
AcDbLine
 10
-85.0
 20
47.76764523926575
 30
0.0
 11
-85.0
 21
47.67268978093073
 31
0.0
  0
LINE
  5
838
330
6F
100
AcDbEntity
  8
GEO_
 62
     7
420
 16777215
100
AcDbLine
 10
-85.0
 20
47.96168818189965
 30
0.0
 11
-85.0
 21
48.40472442330342
 31
0.0
  0
LINE
  5
839
330
6F
100
AcDbEntity
  8
GEO_
 62
     7
420
 16777215
100
AcDbLine
 10
-85.0
 20
48.40472442330342
 30
0.0
 11
-84.96361111111111
 21
48.5242888364587
 31
0.0
  0
LINE
  5
83A
330
6F
100
AcDbEntity
  8
GEO_
 62
     7
420
 16777215
100
AcDbLine
 10
-84.96361111111111
 20
48.5242888364587
 30
0.0
 11
-84.52249999999997
 21
48.58950856848593
 31
0.0
  0
LINE
  5
842
330
6F
100
AcDbEntity
  8
GEO_
 62
     7
420
 16777215
100
AcDbLine
 10
-84.99998333333333
 20
47.29362185917149
 30
0.0
 11
-85.0
 21
47.36803744040439
 31
0.0
  0
LINE
  5
843
330
6F
100
AcDbEntity
  8
GEO_
 62
     7
420
 16777215
100
AcDbLine
 10
-85.0
 20
47.36803744040439
 30
0.0
 11
-85.0
 21
47.67268978093073
 31
0.0
  0
LINE
  5
844
330
6F
100
AcDbEntity
  8
GEO_
 62
     7
420
 16777215
100
AcDbLine
 10
-85.0
 20
47.67268978093073
 30
0.0
 11
-85.0
 21
47.76764523926575
 31
0.0
  0
LINE
  5
845
330
6F
100
AcDbEntity
  8
GEO_
 62
     7
420
 16777215
100
AcDbLine
 10
-85.0
 20
47.96168818189965
 30
0.0
 11
-85.0
 21
48.40472442330342
 31
0.0
  0
LINE
  5
846
330
6F
100
AcDbEntity
  8
GEO_
 62
     7
420
 16777215
100
AcDbLine
 10
-85.0
 20
48.40472442330342
 30
0.0
 11
-84.96361111111111
 21
48.5242888364587
 31
0.0
  0
LINE
  5
847
330
6F
100
AcDbEntity
  8
GEO_
 62
     7
420
 16777215
100
AcDbLine
 10
-84.96361111111111
 20
48.5242888364587
 30
0.0
 11
-84.52249999999997
 21
48.58950856848593
 31
0.0
  0
LINE
  5
84F
330
6F
100
AcDbEntity
  8
GEO_
 62
     7
420
 16777215
100
AcDbLine
 10
-84.99998333333333
 20
47.29362185917149
 30
0.0
 11
-85.0
 21
47.36803744040439
 31
0.0
  0
LINE
  5
850
330
6F
100
AcDbEntity
  8
GEO_
 62
     7
420
 16777215
100
AcDbLine
 10
-85.0
 20
47.36803744040439
 30
0.0
 11
-85.0
 21
47.67268978093073
 31
0.0
  0
LINE
  5
851
330
6F
100
AcDbEntity
  8
GEO_
 62
     7
420
 16777215
100
AcDbLine
 10
-85.0
 20
47.67268978093073
 30
0.0
 11
-85.0
 21
47.76764523926575
 31
0.0
  0
LINE
  5
852
330
6F
100
AcDbEntity
  8
GEO_
 62
     7
420
 16777215
100
AcDbLine
 10
-85.0
 20
47.76764523926575
 30
0.0
 11
-85.0
 21
47.96168818189965
 31
0.0
  0
LINE
  5
853
330
6F
100
AcDbEntity
  8
GEO_
 62
     7
420
 16777215
100
AcDbLine
 10
-85.0
 20
47.96168818189965
 30
0.0
 11
-85.0
 21
47.96168818189965
 31
0.0
  0
LINE
  5
854
330
6F
100
AcDbEntity
  8
GEO_
 62
     7
420
 16777215
100
AcDbLine
 10
-85.0
 20
47.96168818189965
 30
0.0
 11
-85.0
 21
47.76764523926575
 31
0.0
  0
LINE
  5
855
330
6F
100
AcDbEntity
  8
GEO_
 62
     7
420
 16777215
100
AcDbLine
 10
-85.0
 20
47.96168818189965
 30
0.0
 11
-85.0
 21
48.40472442330342
 31
0.0
  0
LINE
  5
856
330
6F
100
AcDbEntity
  8
GEO_
 62
     7
420
 16777215
100
AcDbLine
 10
-85.0
 20
48.40472442330342
 30
0.0
 11
-85.0
 21
48.40472442330342
 31
0.0
  0
LINE
  5
857
330
6F
100
AcDbEntity
  8
GEO_
 62
     7
420
 16777215
100
AcDbLine
 10
-85.0
 20
48.40472442330342
 30
0.0
 11
-85.0
 21
47.96168818189965
 31
0.0
  0
LINE
  5
858
330
6F
100
AcDbEntity
  8
GEO_
 62
     7
420
 16777215
100
AcDbLine
 10
-85.0
 20
48.40472442330342
 30
0.0
 11
-84.96361111111111
 21
48.5242888364587
 31
0.0
  0
LINE
  5
859
330
6F
100
AcDbEntity
  8
GEO_
 62
     7
420
 16777215
100
AcDbLine
 10
-84.96361111111111
 20
48.5242888364587
 30
0.0
 11
-84.96361111111111
 21
48.5242888364587
 31
0.0
  0
LINE
  5
85A
330
6F
100
AcDbEntity
  8
GEO_
 62
     7
420
 16777215
100
AcDbLine
 10
-84.96361111111111
 20
48.5242888364587
 30
0.0
 11
-85.0
 21
48.40472442330342
 31
0.0
  0
LINE
  5
85B
330
6F
100
AcDbEntity
  8
GEO_
 62
     7
420
 16777215
100
AcDbLine
 10
-84.96361111111111
 20
48.5242888364587
 30
0.0
 11
-84.52249999999997
 21
48.58950856848593
 31
0.0
  0
LINE
  5
85C
330
6F
100
AcDbEntity
  8
GEO_
 62
     7
420
 16777215
100
AcDbLine
 10
-84.52249999999997
 20
48.58950856848593
 30
0.0
 11
-84.52249999999997
 21
48.58950856848593
 31
0.0
  0
LINE
  5
85D
330
6F
100
AcDbEntity
  8
GEO_
 62
     7
420
 16777215
100
AcDbLine
 10
-84.52249999999997
 20
48.58950856848593
 30
0.0
 11
-84.96361111111111
 21
48.5242888364587
 31
0.0
  0
LINE
  5
871
330
6F
100
AcDbEntity
  8
GEO_
 62
     7
420
 16777215
100
AcDbLine
 10
-84.99998333333333
 20
47.29362185917149
 30
0.0
 11
-84.99998333333333
 21
47.29362185917149
 31
0.0
  0
LINE
  5
873
330
6F
100
AcDbEntity
  8
GEO_
 62
     7
420
 16777215
100
AcDbLine
 10
-84.99998333333333
 20
47.29362185917149
 30
0.0
 11
-85.0
 21
47.36803744040439
 31
0.0
  0
LINE
  5
874
330
6F
100
AcDbEntity
  8
GEO_
 62
     7
420
 16777215
100
AcDbLine
 10
-85.0
 20
47.36803744040439
 30
0.0
 11
-85.0
 21
47.36803744040439
 31
0.0
  0
LINE
  5
875
330
6F
100
AcDbEntity
  8
GEO_
 62
     7
420
 16777215
100
AcDbLine
 10
-85.0
 20
47.36803744040439
 30
0.0
 11
-84.99998333333333
 21
47.29362185917149
 31
0.0
  0
LINE
  5
876
330
6F
100
AcDbEntity
  8
GEO_
 62
     7
420
 16777215
100
AcDbLine
 10
-85.0
 20
47.36803744040439
 30
0.0
 11
-85.0
 21
47.67268978093073
 31
0.0
  0
LINE
  5
877
330
6F
100
AcDbEntity
  8
GEO_
 62
     7
420
 16777215
100
AcDbLine
 10
-85.0
 20
47.67268978093073
 30
0.0
 11
-85.0
 21
47.67268978093073
 31
0.0
  0
LINE
  5
878
330
6F
100
AcDbEntity
  8
GEO_
 62
     7
420
 16777215
100
AcDbLine
 10
-85.0
 20
47.67268978093073
 30
0.0
 11
-85.0
 21
47.36803744040439
 31
0.0
  0
LINE
  5
879
330
6F
100
AcDbEntity
  8
GEO_
 62
     7
420
 16777215
100
AcDbLine
 10
-85.0
 20
47.67268978093073
 30
0.0
 11
-85.0
 21
47.76764523926575
 31
0.0
  0
LINE
  5
87A
330
6F
100
AcDbEntity
  8
GEO_
 62
     7
420
 16777215
100
AcDbLine
 10
-85.0
 20
47.76764523926575
 30
0.0
 11
-85.0
 21
47.76764523926575
 31
0.0
  0
LINE
  5
87B
330
6F
100
AcDbEntity
  8
GEO_
 62
     7
420
 16777215
100
AcDbLine
 10
-85.0
 20
47.76764523926575
 30
0.0
 11
-85.0
 21
47.67268978093073
 31
0.0
  0
LINE
  5
87C
330
6F
100
AcDbEntity
  8
GEO_
 62
     7
420
 16777215
100
AcDbLine
 10
-84.99999166666666
 20
47.17189222213259
 30
0.0
 11
-84.99998333333333
 21
47.29362185917149
 31
0.0
  0
LINE
  5
888
330
6F
100
AcDbEntity
  8
GEO_
 62
     7
420
 16777215
100
AcDbLine
 10
-84.99921388888889
 20
46.54031584418718
 30
0.0
 11
-85.0
 21
46.58643382945449
 31
0.0
  0
LINE
  5
889
330
6F
100
AcDbEntity
  8
GEO_
 62
     7
420
 16777215
100
AcDbLine
 10
-85.0
 20
46.58643382945449
 30
0.0
 11
-85.0
 21
46.86647178715471
 31
0.0
  0
LINE
  5
88A
330
6F
100
AcDbEntity
  8
GEO_
 62
     7
420
 16777215
100
AcDbLine
 10
-85.0
 20
46.86647178715471
 30
0.0
 11
-85.0
 21
47.06938020495152
 31
0.0
  0
LINE
  5
88B
330
6F
100
AcDbEntity
  8
GEO_
 62
     7
420
 16777215
100
AcDbLine
 10
-84.99999166666666
 20
47.17189222213259
 30
0.0
 11
-84.99998333333333
 21
47.29362185917149
 31
0.0
  0
LINE
  5
897
330
6F
100
AcDbEntity
  8
GEO_
 62
     7
420
 16777215
100
AcDbLine
 10
-84.99921388888889
 20
46.54031584418718
 30
0.0
 11
-85.0
 21
46.58643382945449
 31
0.0
  0
LINE
  5
898
330
6F
100
AcDbEntity
  8
GEO_
 62
     7
420
 16777215
100
AcDbLine
 10
-85.0
 20
46.58643382945449
 30
0.0
 11
-85.0
 21
46.86647178715471
 31
0.0
  0
LINE
  5
899
330
6F
100
AcDbEntity
  8
GEO_
 62
     7
420
 16777215
100
AcDbLine
 10
-85.0
 20
46.86647178715471
 30
0.0
 11
-85.0
 21
47.06938020495152
 31
0.0
  0
LINE
  5
89A
330
6F
100
AcDbEntity
  8
GEO_
 62
     7
420
 16777215
100
AcDbLine
 10
-85.0
 20
47.06938020495152
 30
0.0
 11
-84.99999166666666
 21
47.17189222213259
 31
0.0
  0
LINE
  5
89B
330
6F
100
AcDbEntity
  8
GEO_
 62
     7
420
 16777215
100
AcDbLine
 10
-84.99999166666666
 20
47.17189222213259
 30
0.0
 11
-84.99999166666666
 21
47.17189222213259
 31
0.0
  0
LINE
  5
89C
330
6F
100
AcDbEntity
  8
GEO_
 62
     7
420
 16777215
100
AcDbLine
 10
-84.99999166666666
 20
47.17189222213259
 30
0.0
 11
-85.0
 21
47.06938020495152
 31
0.0
  0
LINE
  5
89D
330
6F
100
AcDbEntity
  8
GEO_
 62
     7
420
 16777215
100
AcDbLine
 10
-84.99999166666666
 20
47.17189222213259
 30
0.0
 11
-84.99998333333333
 21
47.29362185917149
 31
0.0
  0
LINE
  5
89E
330
6F
100
AcDbEntity
  8
GEO_
 62
     7
420
 16777215
100
AcDbLine
 10
-84.99998333333333
 20
47.29362185917149
 30
0.0
 11
-84.99998333333333
 21
47.29362185917149
 31
0.0
  0
LINE
  5
89F
330
6F
100
AcDbEntity
  8
GEO_
 62
     7
420
 16777215
100
AcDbLine
 10
-84.99998333333333
 20
47.29362185917149
 30
0.0
 11
-84.99999166666666
 21
47.17189222213259
 31
0.0
  0
LINE
  5
8BF
330
6F
100
AcDbEntity
  8
GEO_
 62
     7
420
 16777215
100
AcDbLine
 10
-84.99921388888889
 20
46.54031584418718
 30
0.0
 11
-84.99921388888889
 21
46.54031584418718
 31
0.0
  0
LINE
  5
8C1
330
6F
100
AcDbEntity
  8
GEO_
 62
     7
420
 16777215
100
AcDbLine
 10
-84.99921388888889
 20
46.54031584418718
 30
0.0
 11
-85.0
 21
46.58643382945449
 31
0.0
  0
LINE
  5
8C2
330
6F
100
AcDbEntity
  8
GEO_
 62
     7
420
 16777215
100
AcDbLine
 10
-85.0
 20
46.58643382945449
 30
0.0
 11
-85.0
 21
46.58643382945449
 31
0.0
  0
LINE
  5
8C3
330
6F
100
AcDbEntity
  8
GEO_
 62
     7
420
 16777215
100
AcDbLine
 10
-85.0
 20
46.58643382945449
 30
0.0
 11
-84.99921388888889
 21
46.54031584418718
 31
0.0
  0
LINE
  5
8C4
330
6F
100
AcDbEntity
  8
GEO_
 62
     7
420
 16777215
100
AcDbLine
 10
-85.0
 20
46.58643382945449
 30
0.0
 11
-85.0
 21
46.86647178715471
 31
0.0
  0
LINE
  5
8C5
330
6F
100
AcDbEntity
  8
GEO_
 62
     7
420
 16777215
100
AcDbLine
 10
-85.0
 20
46.86647178715471
 30
0.0
 11
-85.0
 21
46.86647178715471
 31
0.0
  0
LINE
  5
8C6
330
6F
100
AcDbEntity
  8
GEO_
 62
     7
420
 16777215
100
AcDbLine
 10
-85.0
 20
46.86647178715471
 30
0.0
 11
-85.0
 21
46.58643382945449
 31
0.0
  0
LINE
  5
8C7
330
6F
100
AcDbEntity
  8
GEO_
 62
     7
420
 16777215
100
AcDbLine
 10
-85.0
 20
46.86647178715471
 30
0.0
 11
-85.0
 21
47.06938020495152
 31
0.0
  0
LINE
  5
8C8
330
6F
100
AcDbEntity
  8
GEO_
 62
     7
420
 16777215
100
AcDbLine
 10
-85.0
 20
47.06938020495152
 30
0.0
 11
-85.0
 21
47.06938020495152
 31
0.0
  0
LINE
  5
8C9
330
6F
100
AcDbEntity
  8
GEO_
 62
     7
420
 16777215
100
AcDbLine
 10
-85.0
 20
47.06938020495152
 30
0.0
 11
-85.0
 21
46.86647178715471
 31
0.0
  0
LINE
  5
8CA
330
6F
100
AcDbEntity
  8
GEO_
 62
     7
420
 16777215
100
AcDbLine
 10
-84.99999166666666
 20
47.17189222213259
 30
0.0
 11
-84.99998333333333
 21
47.29362185917149
 31
0.0
  0
LINE
  5
8CF
330
6F
100
AcDbEntity
  8
GEO_
 62
     7
420
 16777215
100
AcDbLine
 10
-83.74508055555557
 20
46.65665339700722
 30
0.0
 11
-83.78316666666666
 21
46.44717419338787
 31
0.0
  0
LINE
  5
8D4
330
6F
100
AcDbEntity
  8
GEO_
 62
     7
420
 16777215
100
AcDbLine
 10
-84.99921388888889
 20
46.54031584418718
 30
0.0
 11
-85.0
 21
46.58643382945449
 31
0.0
  0
LINE
  5
8D5
330
6F
100
AcDbEntity
  8
GEO_
 62
     7
420
 16777215
100
AcDbLine
 10
-85.0
 20
46.58643382945449
 30
0.0
 11
-85.0
 21
46.86647178715471
 31
0.0
  0
LINE
  5
8D6
330
6F
100
AcDbEntity
  8
GEO_
 62
     7
420
 16777215
100
AcDbLine
 10
-85.0
 20
46.86647178715471
 30
0.0
 11
-85.0
 21
47.06938020495152
 31
0.0
  0
LINE
  5
8D7
330
6F
100
AcDbEntity
  8
GEO_
 62
     7
420
 16777215
100
AcDbLine
 10
-84.99999166666666
 20
47.17189222213259
 30
0.0
 11
-84.99998333333333
 21
47.29362185917149
 31
0.0
  0
LINE
  5
8DC
330
6F
100
AcDbEntity
  8
GEO_
 62
     7
420
 16777215
100
AcDbLine
 10
-83.74508055555557
 20
46.65665339700722
 30
0.0
 11
-83.78316666666666
 21
46.44717419338787
 31
0.0
  0
LINE
  5
8E1
330
6F
100
AcDbEntity
  8
GEO_
 62
     7
420
 16777215
100
AcDbLine
 10
-84.99921388888889
 20
46.54031584418718
 30
0.0
 11
-85.0
 21
46.58643382945449
 31
0.0
  0
LINE
  5
8E2
330
6F
100
AcDbEntity
  8
GEO_
 62
     7
420
 16777215
100
AcDbLine
 10
-85.0
 20
46.58643382945449
 30
0.0
 11
-85.0
 21
46.86647178715471
 31
0.0
  0
LINE
  5
8E3
330
6F
100
AcDbEntity
  8
GEO_
 62
     7
420
 16777215
100
AcDbLine
 10
-85.0
 20
46.86647178715471
 30
0.0
 11
-85.0
 21
47.06938020495152
 31
0.0
  0
LINE
  5
8E4
330
6F
100
AcDbEntity
  8
GEO_
 62
     7
420
 16777215
100
AcDbLine
 10
-85.0
 20
47.06938020495152
 30
0.0
 11
-84.99999166666666
 21
47.17189222213259
 31
0.0
  0
LINE
  5
8E5
330
6F
100
AcDbEntity
  8
GEO_
 62
     7
420
 16777215
100
AcDbLine
 10
-84.99999166666666
 20
47.17189222213259
 30
0.0
 11
-84.99999166666666
 21
47.17189222213259
 31
0.0
  0
LINE
  5
8E6
330
6F
100
AcDbEntity
  8
GEO_
 62
     7
420
 16777215
100
AcDbLine
 10
-84.99999166666666
 20
47.17189222213259
 30
0.0
 11
-85.0
 21
47.06938020495152
 31
0.0
  0
LINE
  5
8E7
330
6F
100
AcDbEntity
  8
GEO_
 62
     7
420
 16777215
100
AcDbLine
 10
-84.99999166666666
 20
47.17189222213259
 30
0.0
 11
-84.99998333333333
 21
47.29362185917149
 31
0.0
  0
LINE
  5
8E8
330
6F
100
AcDbEntity
  8
GEO_
 62
     7
420
 16777215
100
AcDbLine
 10
-84.99998333333333
 20
47.29362185917149
 30
0.0
 11
-84.99998333333333
 21
47.29362185917149
 31
0.0
  0
LINE
  5
8E9
330
6F
100
AcDbEntity
  8
GEO_
 62
     7
420
 16777215
100
AcDbLine
 10
-84.99998333333333
 20
47.29362185917149
 30
0.0
 11
-84.99999166666666
 21
47.17189222213259
 31
0.0
  0
LINE
  5
8F4
330
6F
100
AcDbEntity
  8
GEO_
 62
     7
420
 16777215
100
AcDbLine
 10
-83.74508055555557
 20
46.65665339700722
 30
0.0
 11
-83.74508055555557
 21
46.65665339700722
 31
0.0
  0
LINE
  5
8F6
330
6F
100
AcDbEntity
  8
GEO_
 62
     7
420
 16777215
100
AcDbLine
 10
-83.74508055555557
 20
46.65665339700722
 30
0.0
 11
-83.78316666666666
 21
46.44717419338787
 31
0.0
  0
LINE
  5
8F7
330
6F
100
AcDbEntity
  8
GEO_
 62
     7
420
 16777215
100
AcDbLine
 10
-83.78316666666666
 20
46.44717419338787
 30
0.0
 11
-83.78316666666666
 21
46.44717419338787
 31
0.0
  0
LINE
  5
8F8
330
6F
100
AcDbEntity
  8
GEO_
 62
     7
420
 16777215
100
AcDbLine
 10
-83.78316666666666
 20
46.44717419338787
 30
0.0
 11
-83.74508055555557
 21
46.65665339700722
 31
0.0
  0
LINE
  5
903
330
6F
100
AcDbEntity
  8
GEO_
 62
     7
420
 16777215
100
AcDbLine
 10
-84.99921388888889
 20
46.54031584418718
 30
0.0
 11
-84.99921388888889
 21
46.54031584418718
 31
0.0
  0
LINE
  5
905
330
6F
100
AcDbEntity
  8
GEO_
 62
     7
420
 16777215
100
AcDbLine
 10
-84.99921388888889
 20
46.54031584418718
 30
0.0
 11
-85.0
 21
46.58643382945449
 31
0.0
  0
LINE
  5
906
330
6F
100
AcDbEntity
  8
GEO_
 62
     7
420
 16777215
100
AcDbLine
 10
-85.0
 20
46.58643382945449
 30
0.0
 11
-85.0
 21
46.58643382945449
 31
0.0
  0
LINE
  5
907
330
6F
100
AcDbEntity
  8
GEO_
 62
     7
420
 16777215
100
AcDbLine
 10
-85.0
 20
46.58643382945449
 30
0.0
 11
-84.99921388888889
 21
46.54031584418718
 31
0.0
  0
LINE
  5
908
330
6F
100
AcDbEntity
  8
GEO_
 62
     7
420
 16777215
100
AcDbLine
 10
-85.0
 20
46.58643382945449
 30
0.0
 11
-85.0
 21
46.86647178715471
 31
0.0
  0
LINE
  5
909
330
6F
100
AcDbEntity
  8
GEO_
 62
     7
420
 16777215
100
AcDbLine
 10
-85.0
 20
46.86647178715471
 30
0.0
 11
-85.0
 21
46.86647178715471
 31
0.0
  0
LINE
  5
90A
330
6F
100
AcDbEntity
  8
GEO_
 62
     7
420
 16777215
100
AcDbLine
 10
-85.0
 20
46.86647178715471
 30
0.0
 11
-85.0
 21
46.58643382945449
 31
0.0
  0
LINE
  5
90B
330
6F
100
AcDbEntity
  8
GEO_
 62
     7
420
 16777215
100
AcDbLine
 10
-85.0
 20
46.86647178715471
 30
0.0
 11
-85.0
 21
47.06938020495152
 31
0.0
  0
LINE
  5
90C
330
6F
100
AcDbEntity
  8
GEO_
 62
     7
420
 16777215
100
AcDbLine
 10
-85.0
 20
47.06938020495152
 30
0.0
 11
-85.0
 21
47.06938020495152
 31
0.0
  0
LINE
  5
90D
330
6F
100
AcDbEntity
  8
GEO_
 62
     7
420
 16777215
100
AcDbLine
 10
-85.0
 20
47.06938020495152
 30
0.0
 11
-85.0
 21
46.86647178715471
 31
0.0
  0
LINE
  5
918
330
6F
100
AcDbEntity
  8
GEO_
 62
     7
420
 16777215
100
AcDbLine
 10
-83.89696944444445
 20
45.95438078503631
 30
0.0
 11
-84.09722222222219
 21
45.6082626153204
 31
0.0
  0
LINE
  5
919
330
6F
100
AcDbEntity
  8
GEO_
 62
     7
420
 16777215
100
AcDbLine
 10
-84.09722222222219
 20
45.6082626153204
 30
0.0
 11
-84.57338055555554
 21
45.31936840898029
 31
0.0
  0
LINE
  5
91A
330
6F
100
AcDbEntity
  8
GEO_
 62
     7
420
 16777215
100
AcDbLine
 10
-84.57338055555554
 20
45.31936840898029
 30
0.0
 11
-84.70916388888891
 21
45.23716466808155
 31
0.0
  0
LINE
  5
91B
330
6F
100
AcDbEntity
  8
GEO_
 62
     7
420
 16777215
100
AcDbLine
 10
-84.70916388888891
 20
45.23716466808155
 30
0.0
 11
-84.71666666666667
 21
45.40286239342459
 31
0.0
  0
LINE
  5
91C
330
6F
100
AcDbEntity
  8
GEO_
 62
     7
420
 16777215
100
AcDbLine
 10
-84.71666666666667
 20
45.40286239342459
 30
0.0
 11
-85.10833333333334
 21
45.53603950290195
 31
0.0
  0
LINE
  5
91D
330
6F
100
AcDbEntity
  8
GEO_
 62
     7
420
 16777215
100
AcDbLine
 10
-85.10833333333334
 20
45.53603950290195
 30
0.0
 11
-85.05972222222222
 21
45.81080865723365
 31
0.0
  0
LINE
  5
91E
330
6F
100
AcDbEntity
  8
GEO_
 62
     7
420
 16777215
100
AcDbLine
 10
-85.05972222222222
 20
45.81080865723365
 30
0.0
 11
-85.04722222222222
 21
45.8791730734749
 31
0.0
  0
LINE
  5
91F
330
6F
100
AcDbEntity
  8
GEO_
 62
     7
420
 16777215
100
AcDbLine
 10
-85.04722222222222
 20
45.8791730734749
 30
0.0
 11
-85.0
 21
46.16025956040245
 31
0.0
  0
LINE
  5
920
330
6F
100
AcDbEntity
  8
GEO_
 62
     7
420
 16777215
100
AcDbLine
 10
-85.0
 20
46.16025956040245
 30
0.0
 11
-85.0
 21
46.3618671733051
 31
0.0
  0
LINE
  5
921
330
6F
100
AcDbEntity
  8
GEO_
 62
     7
420
 16777215
100
AcDbLine
 10
-85.0
 20
46.3618671733051
 30
0.0
 11
-85.0
 21
46.41795357314085
 31
0.0
  0
LINE
  5
922
330
6F
100
AcDbEntity
  8
GEO_
 62
     7
420
 16777215
100
AcDbLine
 10
-85.0
 20
46.41795357314085
 30
0.0
 11
-84.99921388888889
 21
46.54031584418718
 31
0.0
  0
LINE
  5
92D
330
6F
100
AcDbEntity
  8
GEO_
 62
     7
420
 16777215
100
AcDbLine
 10
-83.89696944444445
 20
45.95438078503631
 30
0.0
 11
-84.09722222222219
 21
45.6082626153204
 31
0.0
  0
LINE
  5
92E
330
6F
100
AcDbEntity
  8
GEO_
 62
     7
420
 16777215
100
AcDbLine
 10
-84.09722222222219
 20
45.6082626153204
 30
0.0
 11
-84.57338055555554
 21
45.31936840898029
 31
0.0
  0
LINE
  5
92F
330
6F
100
AcDbEntity
  8
GEO_
 62
     7
420
 16777215
100
AcDbLine
 10
-84.57338055555554
 20
45.31936840898029
 30
0.0
 11
-84.70916388888891
 21
45.23716466808155
 31
0.0
  0
LINE
  5
930
330
6F
100
AcDbEntity
  8
GEO_
 62
     7
420
 16777215
100
AcDbLine
 10
-84.70916388888891
 20
45.23716466808155
 30
0.0
 11
-84.71666666666667
 21
45.40286239342459
 31
0.0
  0
LINE
  5
931
330
6F
100
AcDbEntity
  8
GEO_
 62
     7
420
 16777215
100
AcDbLine
 10
-84.71666666666667
 20
45.40286239342459
 30
0.0
 11
-85.10833333333334
 21
45.53603950290195
 31
0.0
  0
LINE
  5
932
330
6F
100
AcDbEntity
  8
GEO_
 62
     7
420
 16777215
100
AcDbLine
 10
-85.10833333333334
 20
45.53603950290195
 30
0.0
 11
-85.05972222222222
 21
45.81080865723365
 31
0.0
  0
LINE
  5
933
330
6F
100
AcDbEntity
  8
GEO_
 62
     7
420
 16777215
100
AcDbLine
 10
-85.05972222222222
 20
45.81080865723365
 30
0.0
 11
-85.04722222222222
 21
45.8791730734749
 31
0.0
  0
LINE
  5
934
330
6F
100
AcDbEntity
  8
GEO_
 62
     7
420
 16777215
100
AcDbLine
 10
-85.04722222222222
 20
45.8791730734749
 30
0.0
 11
-85.0
 21
46.16025956040245
 31
0.0
  0
LINE
  5
935
330
6F
100
AcDbEntity
  8
GEO_
 62
     7
420
 16777215
100
AcDbLine
 10
-85.0
 20
46.16025956040245
 30
0.0
 11
-85.0
 21
46.3618671733051
 31
0.0
  0
LINE
  5
936
330
6F
100
AcDbEntity
  8
GEO_
 62
     7
420
 16777215
100
AcDbLine
 10
-85.0
 20
46.3618671733051
 30
0.0
 11
-85.0
 21
46.41795357314085
 31
0.0
  0
LINE
  5
937
330
6F
100
AcDbEntity
  8
GEO_
 62
     7
420
 16777215
100
AcDbLine
 10
-85.0
 20
46.41795357314085
 30
0.0
 11
-84.99921388888889
 21
46.54031584418718
 31
0.0
  0
LINE
  5
957
330
6F
100
AcDbEntity
  8
GEO_
 62
     7
420
 16777215
100
AcDbLine
 10
-83.89696944444445
 20
45.95438078503631
 30
0.0
 11
-83.89696944444445
 21
45.95438078503631
 31
0.0
  0
LINE
  5
959
330
6F
100
AcDbEntity
  8
GEO_
 62
     7
420
 16777215
100
AcDbLine
 10
-83.89696944444445
 20
45.95438078503631
 30
0.0
 11
-84.09722222222219
 21
45.6082626153204
 31
0.0
  0
LINE
  5
95A
330
6F
100
AcDbEntity
  8
GEO_
 62
     7
420
 16777215
100
AcDbLine
 10
-84.09722222222219
 20
45.6082626153204
 30
0.0
 11
-84.09722222222219
 21
45.6082626153204
 31
0.0
  0
LINE
  5
95B
330
6F
100
AcDbEntity
  8
GEO_
 62
     7
420
 16777215
100
AcDbLine
 10
-84.09722222222219
 20
45.6082626153204
 30
0.0
 11
-83.89696944444445
 21
45.95438078503631
 31
0.0
  0
LINE
  5
95C
330
6F
100
AcDbEntity
  8
GEO_
 62
     7
420
 16777215
100
AcDbLine
 10
-84.09722222222219
 20
45.6082626153204
 30
0.0
 11
-84.57338055555554
 21
45.31936840898029
 31
0.0
  0
LINE
  5
95D
330
6F
100
AcDbEntity
  8
GEO_
 62
     7
420
 16777215
100
AcDbLine
 10
-84.57338055555554
 20
45.31936840898029
 30
0.0
 11
-84.57338055555554
 21
45.31936840898029
 31
0.0
  0
LINE
  5
95E
330
6F
100
AcDbEntity
  8
GEO_
 62
     7
420
 16777215
100
AcDbLine
 10
-84.57338055555554
 20
45.31936840898029
 30
0.0
 11
-84.09722222222219
 21
45.6082626153204
 31
0.0
  0
LINE
  5
95F
330
6F
100
AcDbEntity
  8
GEO_
 62
     7
420
 16777215
100
AcDbLine
 10
-84.57338055555554
 20
45.31936840898029
 30
0.0
 11
-84.70916388888891
 21
45.23716466808155
 31
0.0
  0
LINE
  5
960
330
6F
100
AcDbEntity
  8
GEO_
 62
     7
420
 16777215
100
AcDbLine
 10
-84.70916388888891
 20
45.23716466808155
 30
0.0
 11
-84.70916388888891
 21
45.23716466808155
 31
0.0
  0
LINE
  5
961
330
6F
100
AcDbEntity
  8
GEO_
 62
     7
420
 16777215
100
AcDbLine
 10
-84.70916388888891
 20
45.23716466808155
 30
0.0
 11
-84.57338055555554
 21
45.31936840898029
 31
0.0
  0
LINE
  5
962
330
6F
100
AcDbEntity
  8
GEO_
 62
     7
420
 16777215
100
AcDbLine
 10
-84.70916388888891
 20
45.23716466808155
 30
0.0
 11
-84.71666666666667
 21
45.40286239342459
 31
0.0
  0
LINE
  5
963
330
6F
100
AcDbEntity
  8
GEO_
 62
     7
420
 16777215
100
AcDbLine
 10
-84.71666666666667
 20
45.40286239342459
 30
0.0
 11
-84.71666666666667
 21
45.40286239342459
 31
0.0
  0
LINE
  5
964
330
6F
100
AcDbEntity
  8
GEO_
 62
     7
420
 16777215
100
AcDbLine
 10
-84.71666666666667
 20
45.40286239342459
 30
0.0
 11
-84.70916388888891
 21
45.23716466808155
 31
0.0
  0
LINE
  5
965
330
6F
100
AcDbEntity
  8
GEO_
 62
     7
420
 16777215
100
AcDbLine
 10
-84.71666666666667
 20
45.40286239342459
 30
0.0
 11
-85.10833333333334
 21
45.53603950290195
 31
0.0
  0
LINE
  5
966
330
6F
100
AcDbEntity
  8
GEO_
 62
     7
420
 16777215
100
AcDbLine
 10
-85.10833333333334
 20
45.53603950290195
 30
0.0
 11
-85.10833333333334
 21
45.53603950290195
 31
0.0
  0
LINE
  5
967
330
6F
100
AcDbEntity
  8
GEO_
 62
     7
420
 16777215
100
AcDbLine
 10
-85.10833333333334
 20
45.53603950290195
 30
0.0
 11
-84.71666666666667
 21
45.40286239342459
 31
0.0
  0
LINE
  5
968
330
6F
100
AcDbEntity
  8
GEO_
 62
     7
420
 16777215
100
AcDbLine
 10
-85.10833333333334
 20
45.53603950290195
 30
0.0
 11
-85.05972222222222
 21
45.81080865723365
 31
0.0
  0
LINE
  5
969
330
6F
100
AcDbEntity
  8
GEO_
 62
     7
420
 16777215
100
AcDbLine
 10
-85.05972222222222
 20
45.81080865723365
 30
0.0
 11
-85.05972222222222
 21
45.81080865723365
 31
0.0
  0
LINE
  5
96A
330
6F
100
AcDbEntity
  8
GEO_
 62
     7
420
 16777215
100
AcDbLine
 10
-85.05972222222222
 20
45.81080865723365
 30
0.0
 11
-85.10833333333334
 21
45.53603950290195
 31
0.0
  0
LINE
  5
96B
330
6F
100
AcDbEntity
  8
GEO_
 62
     7
420
 16777215
100
AcDbLine
 10
-85.05972222222222
 20
45.81080865723365
 30
0.0
 11
-85.04722222222222
 21
45.8791730734749
 31
0.0
  0
LINE
  5
96C
330
6F
100
AcDbEntity
  8
GEO_
 62
     7
420
 16777215
100
AcDbLine
 10
-85.04722222222222
 20
45.8791730734749
 30
0.0
 11
-85.04722222222222
 21
45.8791730734749
 31
0.0
  0
LINE
  5
96D
330
6F
100
AcDbEntity
  8
GEO_
 62
     7
420
 16777215
100
AcDbLine
 10
-85.04722222222222
 20
45.8791730734749
 30
0.0
 11
-85.05972222222222
 21
45.81080865723365
 31
0.0
  0
LINE
  5
96E
330
6F
100
AcDbEntity
  8
GEO_
 62
     7
420
 16777215
100
AcDbLine
 10
-85.04722222222222
 20
45.8791730734749
 30
0.0
 11
-85.0
 21
46.16025956040245
 31
0.0
  0
LINE
  5
96F
330
6F
100
AcDbEntity
  8
GEO_
 62
     7
420
 16777215
100
AcDbLine
 10
-85.0
 20
46.16025956040245
 30
0.0
 11
-85.0
 21
46.16025956040245
 31
0.0
  0
LINE
  5
970
330
6F
100
AcDbEntity
  8
GEO_
 62
     7
420
 16777215
100
AcDbLine
 10
-85.0
 20
46.16025956040245
 30
0.0
 11
-85.04722222222222
 21
45.8791730734749
 31
0.0
  0
LINE
  5
971
330
6F
100
AcDbEntity
  8
GEO_
 62
     7
420
 16777215
100
AcDbLine
 10
-85.0
 20
46.16025956040245
 30
0.0
 11
-85.0
 21
46.3618671733051
 31
0.0
  0
LINE
  5
972
330
6F
100
AcDbEntity
  8
GEO_
 62
     7
420
 16777215
100
AcDbLine
 10
-85.0
 20
46.3618671733051
 30
0.0
 11
-85.0
 21
46.3618671733051
 31
0.0
  0
LINE
  5
973
330
6F
100
AcDbEntity
  8
GEO_
 62
     7
420
 16777215
100
AcDbLine
 10
-85.0
 20
46.3618671733051
 30
0.0
 11
-85.0
 21
46.16025956040245
 31
0.0
  0
LINE
  5
974
330
6F
100
AcDbEntity
  8
GEO_
 62
     7
420
 16777215
100
AcDbLine
 10
-85.0
 20
46.3618671733051
 30
0.0
 11
-85.0
 21
46.41795357314085
 31
0.0
  0
LINE
  5
975
330
6F
100
AcDbEntity
  8
GEO_
 62
     7
420
 16777215
100
AcDbLine
 10
-85.0
 20
46.41795357314085
 30
0.0
 11
-85.0
 21
46.41795357314085
 31
0.0
  0
LINE
  5
976
330
6F
100
AcDbEntity
  8
GEO_
 62
     7
420
 16777215
100
AcDbLine
 10
-85.0
 20
46.41795357314085
 30
0.0
 11
-85.0
 21
46.3618671733051
 31
0.0
  0
LINE
  5
977
330
6F
100
AcDbEntity
  8
GEO_
 62
     7
420
 16777215
100
AcDbLine
 10
-85.0
 20
46.41795357314085
 30
0.0
 11
-84.99921388888889
 21
46.54031584418718
 31
0.0
  0
LINE
  5
978
330
6F
100
AcDbEntity
  8
GEO_
 62
     7
420
 16777215
100
AcDbLine
 10
-84.99921388888889
 20
46.54031584418718
 30
0.0
 11
-84.99921388888889
 21
46.54031584418718
 31
0.0
  0
LINE
  5
979
330
6F
100
AcDbEntity
  8
GEO_
 62
     7
420
 16777215
100
AcDbLine
 10
-84.99921388888889
 20
46.54031584418718
 30
0.0
 11
-85.0
 21
46.41795357314085
 31
0.0
  0
LINE
  5
97D
330
6F
100
AcDbEntity
  8
GEO_
 62
     7
420
 16777215
100
AcDbLine
 10
-83.78316666666666
 20
46.44717419338787
 30
0.0
 11
-83.8326583333333
 21
46.17486019316203
 31
0.0
  0
LINE
  5
97E
330
6F
100
AcDbEntity
  8
GEO_
 62
     7
420
 16777215
100
AcDbLine
 10
-83.8326583333333
 20
46.17486019316203
 30
0.0
 11
-83.84829999999999
 21
46.08429800632882
 31
0.0
  0
LINE
  5
97F
330
6F
100
AcDbEntity
  8
GEO_
 62
     7
420
 16777215
100
AcDbLine
 10
-83.84829999999999
 20
46.08429800632882
 30
0.0
 11
-83.89696944444445
 21
45.95438078503631
 31
0.0
  0
LINE
  5
980
330
6F
100
AcDbEntity
  8
GEO_
 62
     7
420
 16777215
100
AcDbLine
 10
-83.89696944444445
 20
45.95438078503631
 30
0.0
 11
-84.09722222222219
 21
45.6082626153204
 31
0.0
  0
LINE
  5
981
330
6F
100
AcDbEntity
  8
GEO_
 62
     7
420
 16777215
100
AcDbLine
 10
-84.09722222222219
 20
45.6082626153204
 30
0.0
 11
-84.57338055555554
 21
45.31936840898029
 31
0.0
  0
LINE
  5
982
330
6F
100
AcDbEntity
  8
GEO_
 62
     7
420
 16777215
100
AcDbLine
 10
-84.57338055555554
 20
45.31936840898029
 30
0.0
 11
-84.70916388888891
 21
45.23716466808155
 31
0.0
  0
LINE
  5
983
330
6F
100
AcDbEntity
  8
GEO_
 62
     7
420
 16777215
100
AcDbLine
 10
-84.70916388888891
 20
45.23716466808155
 30
0.0
 11
-84.71666666666667
 21
45.40286239342459
 31
0.0
  0
LINE
  5
984
330
6F
100
AcDbEntity
  8
GEO_
 62
     7
420
 16777215
100
AcDbLine
 10
-84.71666666666667
 20
45.40286239342459
 30
0.0
 11
-85.10833333333334
 21
45.53603950290195
 31
0.0
  0
LINE
  5
985
330
6F
100
AcDbEntity
  8
GEO_
 62
     7
420
 16777215
100
AcDbLine
 10
-85.10833333333334
 20
45.53603950290195
 30
0.0
 11
-85.05972222222222
 21
45.81080865723365
 31
0.0
  0
LINE
  5
986
330
6F
100
AcDbEntity
  8
GEO_
 62
     7
420
 16777215
100
AcDbLine
 10
-85.05972222222222
 20
45.81080865723365
 30
0.0
 11
-85.04722222222222
 21
45.8791730734749
 31
0.0
  0
LINE
  5
987
330
6F
100
AcDbEntity
  8
GEO_
 62
     7
420
 16777215
100
AcDbLine
 10
-85.04722222222222
 20
45.8791730734749
 30
0.0
 11
-85.0
 21
46.16025956040245
 31
0.0
  0
LINE
  5
988
330
6F
100
AcDbEntity
  8
GEO_
 62
     7
420
 16777215
100
AcDbLine
 10
-85.0
 20
46.16025956040245
 30
0.0
 11
-85.0
 21
46.3618671733051
 31
0.0
  0
LINE
  5
989
330
6F
100
AcDbEntity
  8
GEO_
 62
     7
420
 16777215
100
AcDbLine
 10
-85.0
 20
46.3618671733051
 30
0.0
 11
-85.0
 21
46.41795357314085
 31
0.0
  0
LINE
  5
98A
330
6F
100
AcDbEntity
  8
GEO_
 62
     7
420
 16777215
100
AcDbLine
 10
-85.0
 20
46.41795357314085
 30
0.0
 11
-84.99921388888889
 21
46.54031584418718
 31
0.0
  0
LINE
  5
98E
330
6F
100
AcDbEntity
  8
GEO_
 62
     7
420
 16777215
100
AcDbLine
 10
-83.78316666666666
 20
46.44717419338787
 30
0.0
 11
-83.8326583333333
 21
46.17486019316203
 31
0.0
  0
LINE
  5
98F
330
6F
100
AcDbEntity
  8
GEO_
 62
     7
420
 16777215
100
AcDbLine
 10
-83.8326583333333
 20
46.17486019316203
 30
0.0
 11
-83.84829999999999
 21
46.08429800632882
 31
0.0
  0
LINE
  5
990
330
6F
100
AcDbEntity
  8
GEO_
 62
     7
420
 16777215
100
AcDbLine
 10
-83.84829999999999
 20
46.08429800632882
 30
0.0
 11
-83.89696944444445
 21
45.95438078503631
 31
0.0
  0
LINE
  5
991
330
6F
100
AcDbEntity
  8
GEO_
 62
     7
420
 16777215
100
AcDbLine
 10
-83.89696944444445
 20
45.95438078503631
 30
0.0
 11
-84.09722222222219
 21
45.6082626153204
 31
0.0
  0
LINE
  5
992
330
6F
100
AcDbEntity
  8
GEO_
 62
     7
420
 16777215
100
AcDbLine
 10
-84.09722222222219
 20
45.6082626153204
 30
0.0
 11
-84.57338055555554
 21
45.31936840898029
 31
0.0
  0
LINE
  5
993
330
6F
100
AcDbEntity
  8
GEO_
 62
     7
420
 16777215
100
AcDbLine
 10
-84.57338055555554
 20
45.31936840898029
 30
0.0
 11
-84.70916388888891
 21
45.23716466808155
 31
0.0
  0
LINE
  5
994
330
6F
100
AcDbEntity
  8
GEO_
 62
     7
420
 16777215
100
AcDbLine
 10
-84.70916388888891
 20
45.23716466808155
 30
0.0
 11
-84.71666666666667
 21
45.40286239342459
 31
0.0
  0
LINE
  5
995
330
6F
100
AcDbEntity
  8
GEO_
 62
     7
420
 16777215
100
AcDbLine
 10
-84.71666666666667
 20
45.40286239342459
 30
0.0
 11
-85.10833333333334
 21
45.53603950290195
 31
0.0
  0
LINE
  5
996
330
6F
100
AcDbEntity
  8
GEO_
 62
     7
420
 16777215
100
AcDbLine
 10
-85.10833333333334
 20
45.53603950290195
 30
0.0
 11
-85.05972222222222
 21
45.81080865723365
 31
0.0
  0
LINE
  5
997
330
6F
100
AcDbEntity
  8
GEO_
 62
     7
420
 16777215
100
AcDbLine
 10
-85.05972222222222
 20
45.81080865723365
 30
0.0
 11
-85.04722222222222
 21
45.8791730734749
 31
0.0
  0
LINE
  5
998
330
6F
100
AcDbEntity
  8
GEO_
 62
     7
420
 16777215
100
AcDbLine
 10
-85.04722222222222
 20
45.8791730734749
 30
0.0
 11
-85.0
 21
46.16025956040245
 31
0.0
  0
LINE
  5
999
330
6F
100
AcDbEntity
  8
GEO_
 62
     7
420
 16777215
100
AcDbLine
 10
-85.0
 20
46.16025956040245
 30
0.0
 11
-85.0
 21
46.3618671733051
 31
0.0
  0
LINE
  5
99A
330
6F
100
AcDbEntity
  8
GEO_
 62
     7
420
 16777215
100
AcDbLine
 10
-85.0
 20
46.3618671733051
 30
0.0
 11
-85.0
 21
46.41795357314085
 31
0.0
  0
LINE
  5
99B
330
6F
100
AcDbEntity
  8
GEO_
 62
     7
420
 16777215
100
AcDbLine
 10
-85.0
 20
46.41795357314085
 30
0.0
 11
-84.99921388888889
 21
46.54031584418718
 31
0.0
  0
LINE
  5
9A6
330
6F
100
AcDbEntity
  8
GEO_
 62
     7
420
 16777215
100
AcDbLine
 10
-83.78316666666666
 20
46.44717419338787
 30
0.0
 11
-83.78316666666666
 21
46.44717419338787
 31
0.0
  0
LINE
  5
9A8
330
6F
100
AcDbEntity
  8
GEO_
 62
     7
420
 16777215
100
AcDbLine
 10
-83.78316666666666
 20
46.44717419338787
 30
0.0
 11
-83.8326583333333
 21
46.17486019316203
 31
0.0
  0
LINE
  5
9A9
330
6F
100
AcDbEntity
  8
GEO_
 62
     7
420
 16777215
100
AcDbLine
 10
-83.8326583333333
 20
46.17486019316203
 30
0.0
 11
-83.8326583333333
 21
46.17486019316203
 31
0.0
  0
LINE
  5
9AA
330
6F
100
AcDbEntity
  8
GEO_
 62
     7
420
 16777215
100
AcDbLine
 10
-83.8326583333333
 20
46.17486019316203
 30
0.0
 11
-83.78316666666666
 21
46.44717419338787
 31
0.0
  0
LINE
  5
9AB
330
6F
100
AcDbEntity
  8
GEO_
 62
     7
420
 16777215
100
AcDbLine
 10
-83.8326583333333
 20
46.17486019316203
 30
0.0
 11
-83.84829999999999
 21
46.08429800632882
 31
0.0
  0
LINE
  5
9AC
330
6F
100
AcDbEntity
  8
GEO_
 62
     7
420
 16777215
100
AcDbLine
 10
-83.84829999999999
 20
46.08429800632882
 30
0.0
 11
-83.84829999999999
 21
46.08429800632882
 31
0.0
  0
LINE
  5
9AD
330
6F
100
AcDbEntity
  8
GEO_
 62
     7
420
 16777215
100
AcDbLine
 10
-83.84829999999999
 20
46.08429800632882
 30
0.0
 11
-83.8326583333333
 21
46.17486019316203
 31
0.0
  0
LINE
  5
9AE
330
6F
100
AcDbEntity
  8
GEO_
 62
     7
420
 16777215
100
AcDbLine
 10
-83.84829999999999
 20
46.08429800632882
 30
0.0
 11
-83.89696944444445
 21
45.95438078503631
 31
0.0
  0
LINE
  5
9AF
330
6F
100
AcDbEntity
  8
GEO_
 62
     7
420
 16777215
100
AcDbLine
 10
-83.89696944444445
 20
45.95438078503631
 30
0.0
 11
-83.89696944444445
 21
45.95438078503631
 31
0.0
  0
LINE
  5
9B0
330
6F
100
AcDbEntity
  8
GEO_
 62
     7
420
 16777215
100
AcDbLine
 10
-83.89696944444445
 20
45.95438078503631
 30
0.0
 11
-83.84829999999999
 21
46.08429800632882
 31
0.0
  0
LINE
  5
9B1
330
6F
100
AcDbEntity
  8
GEO_
 62
     7
420
 16777215
100
AcDbLine
 10
-83.89696944444445
 20
45.95438078503631
 30
0.0
 11
-84.09722222222219
 21
45.6082626153204
 31
0.0
  0
LINE
  5
9B2
330
6F
100
AcDbEntity
  8
GEO_
 62
     7
420
 16777215
100
AcDbLine
 10
-84.09722222222219
 20
45.6082626153204
 30
0.0
 11
-84.09722222222219
 21
45.6082626153204
 31
0.0
  0
LINE
  5
9B3
330
6F
100
AcDbEntity
  8
GEO_
 62
     7
420
 16777215
100
AcDbLine
 10
-84.09722222222219
 20
45.6082626153204
 30
0.0
 11
-83.89696944444445
 21
45.95438078503631
 31
0.0
  0
LINE
  5
9B4
330
6F
100
AcDbEntity
  8
GEO_
 62
     7
420
 16777215
100
AcDbLine
 10
-84.09722222222219
 20
45.6082626153204
 30
0.0
 11
-84.57338055555554
 21
45.31936840898029
 31
0.0
  0
LINE
  5
9B5
330
6F
100
AcDbEntity
  8
GEO_
 62
     7
420
 16777215
100
AcDbLine
 10
-84.57338055555554
 20
45.31936840898029
 30
0.0
 11
-84.57338055555554
 21
45.31936840898029
 31
0.0
  0
LINE
  5
9B6
330
6F
100
AcDbEntity
  8
GEO_
 62
     7
420
 16777215
100
AcDbLine
 10
-84.57338055555554
 20
45.31936840898029
 30
0.0
 11
-84.09722222222219
 21
45.6082626153204
 31
0.0
  0
LINE
  5
9B7
330
6F
100
AcDbEntity
  8
GEO_
 62
     7
420
 16777215
100
AcDbLine
 10
-84.57338055555554
 20
45.31936840898029
 30
0.0
 11
-84.70916388888891
 21
45.23716466808155
 31
0.0
  0
LINE
  5
9B8
330
6F
100
AcDbEntity
  8
GEO_
 62
     7
420
 16777215
100
AcDbLine
 10
-84.70916388888891
 20
45.23716466808155
 30
0.0
 11
-84.70916388888891
 21
45.23716466808155
 31
0.0
  0
LINE
  5
9B9
330
6F
100
AcDbEntity
  8
GEO_
 62
     7
420
 16777215
100
AcDbLine
 10
-84.70916388888891
 20
45.23716466808155
 30
0.0
 11
-84.57338055555554
 21
45.31936840898029
 31
0.0
  0
LINE
  5
9BA
330
6F
100
AcDbEntity
  8
GEO_
 62
     7
420
 16777215
100
AcDbLine
 10
-84.70916388888891
 20
45.23716466808155
 30
0.0
 11
-84.71666666666667
 21
45.40286239342459
 31
0.0
  0
LINE
  5
9BB
330
6F
100
AcDbEntity
  8
GEO_
 62
     7
420
 16777215
100
AcDbLine
 10
-84.71666666666667
 20
45.40286239342459
 30
0.0
 11
-84.71666666666667
 21
45.40286239342459
 31
0.0
  0
LINE
  5
9BC
330
6F
100
AcDbEntity
  8
GEO_
 62
     7
420
 16777215
100
AcDbLine
 10
-84.71666666666667
 20
45.40286239342459
 30
0.0
 11
-84.70916388888891
 21
45.23716466808155
 31
0.0
  0
LINE
  5
9BD
330
6F
100
AcDbEntity
  8
GEO_
 62
     7
420
 16777215
100
AcDbLine
 10
-84.71666666666667
 20
45.40286239342459
 30
0.0
 11
-85.10833333333334
 21
45.53603950290195
 31
0.0
  0
LINE
  5
9BE
330
6F
100
AcDbEntity
  8
GEO_
 62
     7
420
 16777215
100
AcDbLine
 10
-85.10833333333334
 20
45.53603950290195
 30
0.0
 11
-85.10833333333334
 21
45.53603950290195
 31
0.0
  0
LINE
  5
9BF
330
6F
100
AcDbEntity
  8
GEO_
 62
     7
420
 16777215
100
AcDbLine
 10
-85.10833333333334
 20
45.53603950290195
 30
0.0
 11
-84.71666666666667
 21
45.40286239342459
 31
0.0
  0
LINE
  5
9C0
330
6F
100
AcDbEntity
  8
GEO_
 62
     7
420
 16777215
100
AcDbLine
 10
-85.10833333333334
 20
45.53603950290195
 30
0.0
 11
-85.05972222222222
 21
45.81080865723365
 31
0.0
  0
LINE
  5
9C1
330
6F
100
AcDbEntity
  8
GEO_
 62
     7
420
 16777215
100
AcDbLine
 10
-85.05972222222222
 20
45.81080865723365
 30
0.0
 11
-85.05972222222222
 21
45.81080865723365
 31
0.0
  0
LINE
  5
9C2
330
6F
100
AcDbEntity
  8
GEO_
 62
     7
420
 16777215
100
AcDbLine
 10
-85.05972222222222
 20
45.81080865723365
 30
0.0
 11
-85.10833333333334
 21
45.53603950290195
 31
0.0
  0
LINE
  5
9C3
330
6F
100
AcDbEntity
  8
GEO_
 62
     7
420
 16777215
100
AcDbLine
 10
-85.05972222222222
 20
45.81080865723365
 30
0.0
 11
-85.04722222222222
 21
45.8791730734749
 31
0.0
  0
LINE
  5
9C4
330
6F
100
AcDbEntity
  8
GEO_
 62
     7
420
 16777215
100
AcDbLine
 10
-85.04722222222222
 20
45.8791730734749
 30
0.0
 11
-85.04722222222222
 21
45.8791730734749
 31
0.0
  0
LINE
  5
9C5
330
6F
100
AcDbEntity
  8
GEO_
 62
     7
420
 16777215
100
AcDbLine
 10
-85.04722222222222
 20
45.8791730734749
 30
0.0
 11
-85.05972222222222
 21
45.81080865723365
 31
0.0
  0
LINE
  5
9C6
330
6F
100
AcDbEntity
  8
GEO_
 62
     7
420
 16777215
100
AcDbLine
 10
-85.04722222222222
 20
45.8791730734749
 30
0.0
 11
-85.0
 21
46.16025956040245
 31
0.0
  0
LINE
  5
9C7
330
6F
100
AcDbEntity
  8
GEO_
 62
     7
420
 16777215
100
AcDbLine
 10
-85.0
 20
46.16025956040245
 30
0.0
 11
-85.0
 21
46.16025956040245
 31
0.0
  0
LINE
  5
9C8
330
6F
100
AcDbEntity
  8
GEO_
 62
     7
420
 16777215
100
AcDbLine
 10
-85.0
 20
46.16025956040245
 30
0.0
 11
-85.04722222222222
 21
45.8791730734749
 31
0.0
  0
LINE
  5
9C9
330
6F
100
AcDbEntity
  8
GEO_
 62
     7
420
 16777215
100
AcDbLine
 10
-85.0
 20
46.16025956040245
 30
0.0
 11
-85.0
 21
46.3618671733051
 31
0.0
  0
LINE
  5
9CA
330
6F
100
AcDbEntity
  8
GEO_
 62
     7
420
 16777215
100
AcDbLine
 10
-85.0
 20
46.3618671733051
 30
0.0
 11
-85.0
 21
46.3618671733051
 31
0.0
  0
LINE
  5
9CB
330
6F
100
AcDbEntity
  8
GEO_
 62
     7
420
 16777215
100
AcDbLine
 10
-85.0
 20
46.3618671733051
 30
0.0
 11
-85.0
 21
46.16025956040245
 31
0.0
  0
LINE
  5
9CC
330
6F
100
AcDbEntity
  8
GEO_
 62
     7
420
 16777215
100
AcDbLine
 10
-85.0
 20
46.3618671733051
 30
0.0
 11
-85.0
 21
46.41795357314085
 31
0.0
  0
LINE
  5
9CD
330
6F
100
AcDbEntity
  8
GEO_
 62
     7
420
 16777215
100
AcDbLine
 10
-85.0
 20
46.41795357314085
 30
0.0
 11
-85.0
 21
46.41795357314085
 31
0.0
  0
LINE
  5
9CE
330
6F
100
AcDbEntity
  8
GEO_
 62
     7
420
 16777215
100
AcDbLine
 10
-85.0
 20
46.41795357314085
 30
0.0
 11
-85.0
 21
46.3618671733051
 31
0.0
  0
LINE
  5
9CF
330
6F
100
AcDbEntity
  8
GEO_
 62
     7
420
 16777215
100
AcDbLine
 10
-85.0
 20
46.41795357314085
 30
0.0
 11
-84.99921388888889
 21
46.54031584418718
 31
0.0
  0
LINE
  5
9D0
330
6F
100
AcDbEntity
  8
GEO_
 62
     7
420
 16777215
100
AcDbLine
 10
-84.99921388888889
 20
46.54031584418718
 30
0.0
 11
-84.99921388888889
 21
46.54031584418718
 31
0.0
  0
LINE
  5
9D1
330
6F
100
AcDbEntity
  8
GEO_
 62
     7
420
 16777215
100
AcDbLine
 10
-84.99921388888889
 20
46.54031584418718
 30
0.0
 11
-85.0
 21
46.41795357314085
 31
0.0
  0
LINE
  5
9D2
330
6F
100
AcDbEntity
  8
GEO_
 62
     7
420
 16777215
100
AcDbLine
 10
-82.16944444444445
 20
48.89595968934187
 30
0.0
 11
-82.125
 21
48.66553501369541
 31
0.0
  0
LINE
  5
9D3
330
6F
100
AcDbEntity
  8
GEO_
 62
     7
420
 16777215
100
AcDbLine
 10
-82.125
 20
48.66553501369541
 30
0.0
 11
-82.11666666666666
 21
48.54269863253586
 31
0.0
  0
LINE
  5
9D4
330
6F
100
AcDbEntity
  8
GEO_
 62
     7
420
 16777215
100
AcDbLine
 10
-82.11666666666666
 20
48.54269863253586
 30
0.0
 11
-82.1343166666667
 21
48.49486847768737
 31
0.0
  0
LINE
  5
9D5
330
6F
100
AcDbEntity
  8
GEO_
 62
     7
420
 16777215
100
AcDbLine
 10
-82.1343166666667
 20
48.49486847768737
 30
0.0
 11
-82.35555555555555
 21
47.90076359886817
 31
0.0
  0
LINE
  5
9DC
330
6F
100
AcDbEntity
  8
GEO_
 62
     7
420
 16777215
100
AcDbLine
 10
-82.16944444444445
 20
48.89595968934187
 30
0.0
 11
-82.125
 21
48.66553501369541
 31
0.0
  0
LINE
  5
9DD
330
6F
100
AcDbEntity
  8
GEO_
 62
     7
420
 16777215
100
AcDbLine
 10
-82.125
 20
48.66553501369541
 30
0.0
 11
-82.11666666666666
 21
48.54269863253586
 31
0.0
  0
LINE
  5
9DE
330
6F
100
AcDbEntity
  8
GEO_
 62
     7
420
 16777215
100
AcDbLine
 10
-82.11666666666666
 20
48.54269863253586
 30
0.0
 11
-82.1343166666667
 21
48.49486847768737
 31
0.0
  0
LINE
  5
9DF
330
6F
100
AcDbEntity
  8
GEO_
 62
     7
420
 16777215
100
AcDbLine
 10
-82.1343166666667
 20
48.49486847768737
 30
0.0
 11
-82.35555555555555
 21
47.90076359886817
 31
0.0
  0
LINE
  5
9E6
330
6F
100
AcDbEntity
  8
GEO_
 62
     7
420
 16777215
100
AcDbLine
 10
-83.29333333333334
 20
48.75816638331709
 30
0.0
 11
-82.16944444444445
 21
48.89595968934187
 31
0.0
  0
LINE
  5
9E7
330
6F
100
AcDbEntity
  8
GEO_
 62
     7
420
 16777215
100
AcDbLine
 10
-82.16944444444445
 20
48.89595968934187
 30
0.0
 11
-82.16944444444445
 21
48.89595968934187
 31
0.0
  0
LINE
  5
9E8
330
6F
100
AcDbEntity
  8
GEO_
 62
     7
420
 16777215
100
AcDbLine
 10
-82.16944444444445
 20
48.89595968934187
 30
0.0
 11
-83.29333333333334
 21
48.75816638331709
 31
0.0
  0
LINE
  5
9E9
330
6F
100
AcDbEntity
  8
GEO_
 62
     7
420
 16777215
100
AcDbLine
 10
-82.16944444444445
 20
48.89595968934187
 30
0.0
 11
-82.125
 21
48.66553501369541
 31
0.0
  0
LINE
  5
9EA
330
6F
100
AcDbEntity
  8
GEO_
 62
     7
420
 16777215
100
AcDbLine
 10
-82.125
 20
48.66553501369541
 30
0.0
 11
-82.125
 21
48.66553501369541
 31
0.0
  0
LINE
  5
9EB
330
6F
100
AcDbEntity
  8
GEO_
 62
     7
420
 16777215
100
AcDbLine
 10
-82.125
 20
48.66553501369541
 30
0.0
 11
-82.16944444444445
 21
48.89595968934187
 31
0.0
  0
LINE
  5
9EC
330
6F
100
AcDbEntity
  8
GEO_
 62
     7
420
 16777215
100
AcDbLine
 10
-82.125
 20
48.66553501369541
 30
0.0
 11
-82.11666666666666
 21
48.54269863253586
 31
0.0
  0
LINE
  5
9ED
330
6F
100
AcDbEntity
  8
GEO_
 62
     7
420
 16777215
100
AcDbLine
 10
-82.11666666666666
 20
48.54269863253586
 30
0.0
 11
-82.11666666666666
 21
48.54269863253586
 31
0.0
  0
LINE
  5
9EE
330
6F
100
AcDbEntity
  8
GEO_
 62
     7
420
 16777215
100
AcDbLine
 10
-82.11666666666666
 20
48.54269863253586
 30
0.0
 11
-82.125
 21
48.66553501369541
 31
0.0
  0
LINE
  5
9EF
330
6F
100
AcDbEntity
  8
GEO_
 62
     7
420
 16777215
100
AcDbLine
 10
-82.11666666666666
 20
48.54269863253586
 30
0.0
 11
-82.1343166666667
 21
48.49486847768737
 31
0.0
  0
LINE
  5
9F0
330
6F
100
AcDbEntity
  8
GEO_
 62
     7
420
 16777215
100
AcDbLine
 10
-82.1343166666667
 20
48.49486847768737
 30
0.0
 11
-82.1343166666667
 21
48.49486847768737
 31
0.0
  0
LINE
  5
9F1
330
6F
100
AcDbEntity
  8
GEO_
 62
     7
420
 16777215
100
AcDbLine
 10
-82.1343166666667
 20
48.49486847768737
 30
0.0
 11
-82.11666666666666
 21
48.54269863253586
 31
0.0
  0
LINE
  5
9F2
330
6F
100
AcDbEntity
  8
GEO_
 62
     7
420
 16777215
100
AcDbLine
 10
-82.1343166666667
 20
48.49486847768737
 30
0.0
 11
-82.35555555555555
 21
47.90076359886817
 31
0.0
  0
LINE
  5
9F3
330
6F
100
AcDbEntity
  8
GEO_
 62
     7
420
 16777215
100
AcDbLine
 10
-82.35555555555555
 20
47.90076359886817
 30
0.0
 11
-82.35555555555555
 21
47.90076359886817
 31
0.0
  0
LINE
  5
9F4
330
6F
100
AcDbEntity
  8
GEO_
 62
     7
420
 16777215
100
AcDbLine
 10
-82.35555555555555
 20
47.90076359886817
 30
0.0
 11
-82.1343166666667
 21
48.49486847768737
 31
0.0
  0
LINE
  5
A05
330
6F
100
AcDbEntity
  8
GEO_
 62
     7
420
 16777215
100
AcDbLine
 10
-83.29333333333334
 20
48.75816638331709
 30
0.0
 11
-83.29333333333334
 21
48.75816638331709
 31
0.0
  0
LINE
  5
A07
330
6F
100
AcDbEntity
  8
GEO_
 62
     7
420
 16777215
100
AcDbLine
 10
-82.16944444444445
 20
48.89595968934187
 30
0.0
 11
-82.125
 21
48.66553501369541
 31
0.0
  0
LINE
  5
A08
330
6F
100
AcDbEntity
  8
GEO_
 62
     7
420
 16777215
100
AcDbLine
 10
-82.125
 20
48.66553501369541
 30
0.0
 11
-82.11666666666666
 21
48.54269863253586
 31
0.0
  0
LINE
  5
A09
330
6F
100
AcDbEntity
  8
GEO_
 62
     7
420
 16777215
100
AcDbLine
 10
-82.11666666666666
 20
48.54269863253586
 30
0.0
 11
-82.1343166666667
 21
48.49486847768737
 31
0.0
  0
LINE
  5
A0A
330
6F
100
AcDbEntity
  8
GEO_
 62
     7
420
 16777215
100
AcDbLine
 10
-82.1343166666667
 20
48.49486847768737
 30
0.0
 11
-82.35555555555555
 21
47.90076359886817
 31
0.0
  0
LINE
  5
A0B
330
6F
100
AcDbEntity
  8
GEO_
 62
     7
420
 16777215
100
AcDbLine
 10
-82.35555555555555
 20
47.90076359886817
 30
0.0
 11
-82.41666666666667
 21
47.73382879080607
 31
0.0
  0
LINE
  5
A0C
330
6F
100
AcDbEntity
  8
GEO_
 62
     7
420
 16777215
100
AcDbLine
 10
-82.41666666666667
 20
47.73382879080607
 30
0.0
 11
-82.40416666666666
 21
47.65560918744109
 31
0.0
  0
LINE
  5
A0D
330
6F
100
AcDbEntity
  8
GEO_
 62
     7
420
 16777215
100
AcDbLine
 10
-82.40416666666666
 20
47.65560918744109
 30
0.0
 11
-82.4611111111111
 21
47.59680257115384
 31
0.0
  0
LINE
  5
A0E
330
6F
100
AcDbEntity
  8
GEO_
 62
     7
420
 16777215
100
AcDbLine
 10
-82.4611111111111
 20
47.59680257115384
 30
0.0
 11
-82.46666666666667
 21
47.54182710952418
 31
0.0
  0
LINE
  5
A0F
330
6F
100
AcDbEntity
  8
GEO_
 62
     7
420
 16777215
100
AcDbLine
 10
-82.46666666666667
 20
47.54182710952418
 30
0.0
 11
-82.72361111111111
 21
47.30980903131531
 31
0.0
  0
LINE
  5
A1E
330
6F
100
AcDbEntity
  8
GEO_
 62
     7
420
 16777215
100
AcDbLine
 10
-84.52249999999997
 20
48.58950856848593
 30
0.0
 11
-84.16055555555557
 21
48.64133722510964
 31
0.0
  0
LINE
  5
A1F
330
6F
100
AcDbEntity
  8
GEO_
 62
     7
420
 16777215
100
AcDbLine
 10
-84.16055555555557
 20
48.64133722510964
 30
0.0
 11
-84.03722222222222
 21
48.65823652457621
 31
0.0
  0
LINE
  5
A20
330
6F
100
AcDbEntity
  8
GEO_
 62
     7
420
 16777215
100
AcDbLine
 10
-84.03722222222222
 20
48.65823652457621
 30
0.0
 11
-83.29333333333334
 21
48.75816638331709
 31
0.0
  0
LINE
  5
A21
330
6F
100
AcDbEntity
  8
GEO_
 62
     7
420
 16777215
100
AcDbLine
 10
-82.16944444444445
 20
48.89595968934187
 30
0.0
 11
-82.125
 21
48.66553501369541
 31
0.0
  0
LINE
  5
A22
330
6F
100
AcDbEntity
  8
GEO_
 62
     7
420
 16777215
100
AcDbLine
 10
-82.125
 20
48.66553501369541
 30
0.0
 11
-82.11666666666666
 21
48.54269863253586
 31
0.0
  0
LINE
  5
A23
330
6F
100
AcDbEntity
  8
GEO_
 62
     7
420
 16777215
100
AcDbLine
 10
-82.11666666666666
 20
48.54269863253586
 30
0.0
 11
-82.1343166666667
 21
48.49486847768737
 31
0.0
  0
LINE
  5
A24
330
6F
100
AcDbEntity
  8
GEO_
 62
     7
420
 16777215
100
AcDbLine
 10
-82.1343166666667
 20
48.49486847768737
 30
0.0
 11
-82.35555555555555
 21
47.90076359886817
 31
0.0
  0
LINE
  5
A25
330
6F
100
AcDbEntity
  8
GEO_
 62
     7
420
 16777215
100
AcDbLine
 10
-82.35555555555555
 20
47.90076359886817
 30
0.0
 11
-82.41666666666667
 21
47.73382879080607
 31
0.0
  0
LINE
  5
A26
330
6F
100
AcDbEntity
  8
GEO_
 62
     7
420
 16777215
100
AcDbLine
 10
-82.41666666666667
 20
47.73382879080607
 30
0.0
 11
-82.40416666666666
 21
47.65560918744109
 31
0.0
  0
LINE
  5
A27
330
6F
100
AcDbEntity
  8
GEO_
 62
     7
420
 16777215
100
AcDbLine
 10
-82.40416666666666
 20
47.65560918744109
 30
0.0
 11
-82.4611111111111
 21
47.59680257115384
 31
0.0
  0
LINE
  5
A28
330
6F
100
AcDbEntity
  8
GEO_
 62
     7
420
 16777215
100
AcDbLine
 10
-82.4611111111111
 20
47.59680257115384
 30
0.0
 11
-82.46666666666667
 21
47.54182710952418
 31
0.0
  0
LINE
  5
A29
330
6F
100
AcDbEntity
  8
GEO_
 62
     7
420
 16777215
100
AcDbLine
 10
-82.46666666666667
 20
47.54182710952418
 30
0.0
 11
-82.72361111111111
 21
47.30980903131531
 31
0.0
  0
LINE
  5
A38
330
6F
100
AcDbEntity
  8
GEO_
 62
     7
420
 16777215
100
AcDbLine
 10
-84.52249999999997
 20
48.58950856848593
 30
0.0
 11
-84.16055555555557
 21
48.64133722510964
 31
0.0
  0
LINE
  5
A39
330
6F
100
AcDbEntity
  8
GEO_
 62
     7
420
 16777215
100
AcDbLine
 10
-84.16055555555557
 20
48.64133722510964
 30
0.0
 11
-84.03722222222222
 21
48.65823652457621
 31
0.0
  0
LINE
  5
A3A
330
6F
100
AcDbEntity
  8
GEO_
 62
     7
420
 16777215
100
AcDbLine
 10
-84.03722222222222
 20
48.65823652457621
 30
0.0
 11
-83.29333333333334
 21
48.75816638331709
 31
0.0
  0
LINE
  5
A3B
330
6F
100
AcDbEntity
  8
GEO_
 62
     7
420
 16777215
100
AcDbLine
 10
-83.29333333333334
 20
48.75816638331709
 30
0.0
 11
-82.16944444444445
 21
48.89595968934187
 31
0.0
  0
LINE
  5
A3C
330
6F
100
AcDbEntity
  8
GEO_
 62
     7
420
 16777215
100
AcDbLine
 10
-82.16944444444445
 20
48.89595968934187
 30
0.0
 11
-82.16944444444445
 21
48.89595968934187
 31
0.0
  0
LINE
  5
A3D
330
6F
100
AcDbEntity
  8
GEO_
 62
     7
420
 16777215
100
AcDbLine
 10
-82.16944444444445
 20
48.89595968934187
 30
0.0
 11
-83.29333333333334
 21
48.75816638331709
 31
0.0
  0
LINE
  5
A3E
330
6F
100
AcDbEntity
  8
GEO_
 62
     7
420
 16777215
100
AcDbLine
 10
-82.16944444444445
 20
48.89595968934187
 30
0.0
 11
-82.125
 21
48.66553501369541
 31
0.0
  0
LINE
  5
A3F
330
6F
100
AcDbEntity
  8
GEO_
 62
     7
420
 16777215
100
AcDbLine
 10
-82.125
 20
48.66553501369541
 30
0.0
 11
-82.125
 21
48.66553501369541
 31
0.0
  0
LINE
  5
A40
330
6F
100
AcDbEntity
  8
GEO_
 62
     7
420
 16777215
100
AcDbLine
 10
-82.125
 20
48.66553501369541
 30
0.0
 11
-82.16944444444445
 21
48.89595968934187
 31
0.0
  0
LINE
  5
A41
330
6F
100
AcDbEntity
  8
GEO_
 62
     7
420
 16777215
100
AcDbLine
 10
-82.125
 20
48.66553501369541
 30
0.0
 11
-82.11666666666666
 21
48.54269863253586
 31
0.0
  0
LINE
  5
A42
330
6F
100
AcDbEntity
  8
GEO_
 62
     7
420
 16777215
100
AcDbLine
 10
-82.11666666666666
 20
48.54269863253586
 30
0.0
 11
-82.11666666666666
 21
48.54269863253586
 31
0.0
  0
LINE
  5
A43
330
6F
100
AcDbEntity
  8
GEO_
 62
     7
420
 16777215
100
AcDbLine
 10
-82.11666666666666
 20
48.54269863253586
 30
0.0
 11
-82.125
 21
48.66553501369541
 31
0.0
  0
LINE
  5
A44
330
6F
100
AcDbEntity
  8
GEO_
 62
     7
420
 16777215
100
AcDbLine
 10
-82.11666666666666
 20
48.54269863253586
 30
0.0
 11
-82.1343166666667
 21
48.49486847768737
 31
0.0
  0
LINE
  5
A45
330
6F
100
AcDbEntity
  8
GEO_
 62
     7
420
 16777215
100
AcDbLine
 10
-82.1343166666667
 20
48.49486847768737
 30
0.0
 11
-82.1343166666667
 21
48.49486847768737
 31
0.0
  0
LINE
  5
A46
330
6F
100
AcDbEntity
  8
GEO_
 62
     7
420
 16777215
100
AcDbLine
 10
-82.1343166666667
 20
48.49486847768737
 30
0.0
 11
-82.11666666666666
 21
48.54269863253586
 31
0.0
  0
LINE
  5
A47
330
6F
100
AcDbEntity
  8
GEO_
 62
     7
420
 16777215
100
AcDbLine
 10
-82.1343166666667
 20
48.49486847768737
 30
0.0
 11
-82.35555555555555
 21
47.90076359886817
 31
0.0
  0
LINE
  5
A48
330
6F
100
AcDbEntity
  8
GEO_
 62
     7
420
 16777215
100
AcDbLine
 10
-82.35555555555555
 20
47.90076359886817
 30
0.0
 11
-82.35555555555555
 21
47.90076359886817
 31
0.0
  0
LINE
  5
A49
330
6F
100
AcDbEntity
  8
GEO_
 62
     7
420
 16777215
100
AcDbLine
 10
-82.35555555555555
 20
47.90076359886817
 30
0.0
 11
-82.1343166666667
 21
48.49486847768737
 31
0.0
  0
LINE
  5
A4A
330
6F
100
AcDbEntity
  8
GEO_
 62
     7
420
 16777215
100
AcDbLine
 10
-82.35555555555555
 20
47.90076359886817
 30
0.0
 11
-82.41666666666667
 21
47.73382879080607
 31
0.0
  0
LINE
  5
A4B
330
6F
100
AcDbEntity
  8
GEO_
 62
     7
420
 16777215
100
AcDbLine
 10
-82.41666666666667
 20
47.73382879080607
 30
0.0
 11
-82.41666666666667
 21
47.73382879080607
 31
0.0
  0
LINE
  5
A4C
330
6F
100
AcDbEntity
  8
GEO_
 62
     7
420
 16777215
100
AcDbLine
 10
-82.41666666666667
 20
47.73382879080607
 30
0.0
 11
-82.35555555555555
 21
47.90076359886817
 31
0.0
  0
LINE
  5
A4D
330
6F
100
AcDbEntity
  8
GEO_
 62
     7
420
 16777215
100
AcDbLine
 10
-82.41666666666667
 20
47.73382879080607
 30
0.0
 11
-82.40416666666666
 21
47.65560918744109
 31
0.0
  0
LINE
  5
A4E
330
6F
100
AcDbEntity
  8
GEO_
 62
     7
420
 16777215
100
AcDbLine
 10
-82.40416666666666
 20
47.65560918744109
 30
0.0
 11
-82.40416666666666
 21
47.65560918744109
 31
0.0
  0
LINE
  5
A4F
330
6F
100
AcDbEntity
  8
GEO_
 62
     7
420
 16777215
100
AcDbLine
 10
-82.40416666666666
 20
47.65560918744109
 30
0.0
 11
-82.41666666666667
 21
47.73382879080607
 31
0.0
  0
LINE
  5
A50
330
6F
100
AcDbEntity
  8
GEO_
 62
     7
420
 16777215
100
AcDbLine
 10
-82.40416666666666
 20
47.65560918744109
 30
0.0
 11
-82.4611111111111
 21
47.59680257115384
 31
0.0
  0
LINE
  5
A51
330
6F
100
AcDbEntity
  8
GEO_
 62
     7
420
 16777215
100
AcDbLine
 10
-82.4611111111111
 20
47.59680257115384
 30
0.0
 11
-82.4611111111111
 21
47.59680257115384
 31
0.0
  0
LINE
  5
A52
330
6F
100
AcDbEntity
  8
GEO_
 62
     7
420
 16777215
100
AcDbLine
 10
-82.4611111111111
 20
47.59680257115384
 30
0.0
 11
-82.40416666666666
 21
47.65560918744109
 31
0.0
  0
LINE
  5
A53
330
6F
100
AcDbEntity
  8
GEO_
 62
     7
420
 16777215
100
AcDbLine
 10
-82.4611111111111
 20
47.59680257115384
 30
0.0
 11
-82.46666666666667
 21
47.54182710952418
 31
0.0
  0
LINE
  5
A54
330
6F
100
AcDbEntity
  8
GEO_
 62
     7
420
 16777215
100
AcDbLine
 10
-82.46666666666667
 20
47.54182710952418
 30
0.0
 11
-82.46666666666667
 21
47.54182710952418
 31
0.0
  0
LINE
  5
A55
330
6F
100
AcDbEntity
  8
GEO_
 62
     7
420
 16777215
100
AcDbLine
 10
-82.46666666666667
 20
47.54182710952418
 30
0.0
 11
-82.4611111111111
 21
47.59680257115384
 31
0.0
  0
LINE
  5
A56
330
6F
100
AcDbEntity
  8
GEO_
 62
     7
420
 16777215
100
AcDbLine
 10
-82.46666666666667
 20
47.54182710952418
 30
0.0
 11
-82.72361111111111
 21
47.30980903131531
 31
0.0
  0
LINE
  5
A57
330
6F
100
AcDbEntity
  8
GEO_
 62
     7
420
 16777215
100
AcDbLine
 10
-82.72361111111111
 20
47.30980903131531
 30
0.0
 11
-82.72361111111111
 21
47.30980903131531
 31
0.0
  0
LINE
  5
A58
330
6F
100
AcDbEntity
  8
GEO_
 62
     7
420
 16777215
100
AcDbLine
 10
-82.72361111111111
 20
47.30980903131531
 30
0.0
 11
-82.46666666666667
 21
47.54182710952418
 31
0.0
  0
LINE
  5
A81
330
6F
100
AcDbEntity
  8
GEO_
 62
     7
420
 16777215
100
AcDbLine
 10
-84.52249999999997
 20
48.58950856848593
 30
0.0
 11
-84.52249999999997
 21
48.58950856848593
 31
0.0
  0
LINE
  5
A83
330
6F
100
AcDbEntity
  8
GEO_
 62
     7
420
 16777215
100
AcDbLine
 10
-84.52249999999997
 20
48.58950856848593
 30
0.0
 11
-84.16055555555557
 21
48.64133722510964
 31
0.0
  0
LINE
  5
A84
330
6F
100
AcDbEntity
  8
GEO_
 62
     7
420
 16777215
100
AcDbLine
 10
-84.16055555555557
 20
48.64133722510964
 30
0.0
 11
-84.16055555555557
 21
48.64133722510964
 31
0.0
  0
LINE
  5
A85
330
6F
100
AcDbEntity
  8
GEO_
 62
     7
420
 16777215
100
AcDbLine
 10
-84.16055555555557
 20
48.64133722510964
 30
0.0
 11
-84.52249999999997
 21
48.58950856848593
 31
0.0
  0
LINE
  5
A86
330
6F
100
AcDbEntity
  8
GEO_
 62
     7
420
 16777215
100
AcDbLine
 10
-84.16055555555557
 20
48.64133722510964
 30
0.0
 11
-84.03722222222222
 21
48.65823652457621
 31
0.0
  0
LINE
  5
A87
330
6F
100
AcDbEntity
  8
GEO_
 62
     7
420
 16777215
100
AcDbLine
 10
-84.03722222222222
 20
48.65823652457621
 30
0.0
 11
-84.03722222222222
 21
48.65823652457621
 31
0.0
  0
LINE
  5
A88
330
6F
100
AcDbEntity
  8
GEO_
 62
     7
420
 16777215
100
AcDbLine
 10
-84.03722222222222
 20
48.65823652457621
 30
0.0
 11
-84.16055555555557
 21
48.64133722510964
 31
0.0
  0
LINE
  5
A89
330
6F
100
AcDbEntity
  8
GEO_
 62
     7
420
 16777215
100
AcDbLine
 10
-84.03722222222222
 20
48.65823652457621
 30
0.0
 11
-83.29333333333334
 21
48.75816638331709
 31
0.0
  0
LINE
  5
A8A
330
6F
100
AcDbEntity
  8
GEO_
 62
     7
420
 16777215
100
AcDbLine
 10
-83.29333333333334
 20
48.75816638331709
 30
0.0
 11
-83.29333333333334
 21
48.75816638331709
 31
0.0
  0
LINE
  5
A8B
330
6F
100
AcDbEntity
  8
GEO_
 62
     7
420
 16777215
100
AcDbLine
 10
-83.29333333333334
 20
48.75816638331709
 30
0.0
 11
-84.03722222222222
 21
48.65823652457621
 31
0.0
  0
LINE
  5
A8C
330
6F
100
AcDbEntity
  8
GEO_
 62
     7
420
 16777215
100
AcDbLine
 10
-82.16944444444445
 20
48.89595968934187
 30
0.0
 11
-82.125
 21
48.66553501369541
 31
0.0
  0
LINE
  5
A8D
330
6F
100
AcDbEntity
  8
GEO_
 62
     7
420
 16777215
100
AcDbLine
 10
-82.125
 20
48.66553501369541
 30
0.0
 11
-82.11666666666666
 21
48.54269863253586
 31
0.0
  0
LINE
  5
A8E
330
6F
100
AcDbEntity
  8
GEO_
 62
     7
420
 16777215
100
AcDbLine
 10
-82.11666666666666
 20
48.54269863253586
 30
0.0
 11
-82.1343166666667
 21
48.49486847768737
 31
0.0
  0
LINE
  5
A8F
330
6F
100
AcDbEntity
  8
GEO_
 62
     7
420
 16777215
100
AcDbLine
 10
-82.1343166666667
 20
48.49486847768737
 30
0.0
 11
-82.35555555555555
 21
47.90076359886817
 31
0.0
  0
LINE
  5
A90
330
6F
100
AcDbEntity
  8
GEO_
 62
     7
420
 16777215
100
AcDbLine
 10
-82.35555555555555
 20
47.90076359886817
 30
0.0
 11
-82.41666666666667
 21
47.73382879080607
 31
0.0
  0
LINE
  5
A91
330
6F
100
AcDbEntity
  8
GEO_
 62
     7
420
 16777215
100
AcDbLine
 10
-82.41666666666667
 20
47.73382879080607
 30
0.0
 11
-82.40416666666666
 21
47.65560918744109
 31
0.0
  0
LINE
  5
A92
330
6F
100
AcDbEntity
  8
GEO_
 62
     7
420
 16777215
100
AcDbLine
 10
-82.40416666666666
 20
47.65560918744109
 30
0.0
 11
-82.4611111111111
 21
47.59680257115384
 31
0.0
  0
LINE
  5
A93
330
6F
100
AcDbEntity
  8
GEO_
 62
     7
420
 16777215
100
AcDbLine
 10
-82.4611111111111
 20
47.59680257115384
 30
0.0
 11
-82.46666666666667
 21
47.54182710952418
 31
0.0
  0
LINE
  5
A94
330
6F
100
AcDbEntity
  8
GEO_
 62
     7
420
 16777215
100
AcDbLine
 10
-82.46666666666667
 20
47.54182710952418
 30
0.0
 11
-82.72361111111111
 21
47.30980903131531
 31
0.0
  0
LINE
  5
A95
330
6F
100
AcDbEntity
  8
GEO_
 62
     7
420
 16777215
100
AcDbLine
 10
-82.72361111111111
 20
47.30980903131531
 30
0.0
 11
-82.83055555555554
 21
47.17460171266811
 31
0.0
  0
LINE
  5
A96
330
6F
100
AcDbEntity
  8
GEO_
 62
     7
420
 16777215
100
AcDbLine
 10
-82.83055555555554
 20
47.17460171266811
 30
0.0
 11
-82.86388888888888
 21
47.14932153623663
 31
0.0
  0
LINE
  5
A97
330
6F
100
AcDbEntity
  8
GEO_
 62
     7
420
 16777215
100
AcDbLine
 10
-82.86388888888888
 20
47.14932153623663
 30
0.0
 11
-82.93476111111113
 21
46.83998642141473
 31
0.0
  0
LINE
  5
A98
330
6F
100
AcDbEntity
  8
GEO_
 62
     7
420
 16777215
100
AcDbLine
 10
-82.93476111111113
 20
46.83998642141473
 30
0.0
 11
-83.13377777777779
 21
46.67911231348738
 31
0.0
  0
LINE
  5
A99
330
6F
100
AcDbEntity
  8
GEO_
 62
     7
420
 16777215
100
AcDbLine
 10
-83.13377777777779
 20
46.67911231348738
 30
0.0
 11
-83.13023055555554
 21
46.6037986918675
 31
0.0
  0
LINE
  5
A9A
330
6F
100
AcDbEntity
  8
GEO_
 62
     7
420
 16777215
100
AcDbLine
 10
-83.13023055555554
 20
46.6037986918675
 30
0.0
 11
-83.38852777777779
 21
46.62586874796057
 31
0.0
  0
LINE
  5
A9B
330
6F
100
AcDbEntity
  8
GEO_
 62
     7
420
 16777215
100
AcDbLine
 10
-83.38852777777779
 20
46.62586874796057
 30
0.0
 11
-83.74508055555557
 21
46.65665339700722
 31
0.0
  0
LINE
  5
AA1
330
6F
100
AcDbEntity
  8
GEO_
 62
     7
420
 16777215
100
AcDbLine
 10
-84.52249999999997
 20
48.58950856848593
 30
0.0
 11
-84.16055555555557
 21
48.64133722510964
 31
0.0
  0
LINE
  5
AA2
330
6F
100
AcDbEntity
  8
GEO_
 62
     7
420
 16777215
100
AcDbLine
 10
-84.16055555555557
 20
48.64133722510964
 30
0.0
 11
-84.03722222222222
 21
48.65823652457621
 31
0.0
  0
LINE
  5
AA3
330
6F
100
AcDbEntity
  8
GEO_
 62
     7
420
 16777215
100
AcDbLine
 10
-84.03722222222222
 20
48.65823652457621
 30
0.0
 11
-83.29333333333334
 21
48.75816638331709
 31
0.0
  0
LINE
  5
AA4
330
6F
100
AcDbEntity
  8
GEO_
 62
     7
420
 16777215
100
AcDbLine
 10
-82.16944444444445
 20
48.89595968934187
 30
0.0
 11
-82.125
 21
48.66553501369541
 31
0.0
  0
LINE
  5
AA5
330
6F
100
AcDbEntity
  8
GEO_
 62
     7
420
 16777215
100
AcDbLine
 10
-82.125
 20
48.66553501369541
 30
0.0
 11
-82.11666666666666
 21
48.54269863253586
 31
0.0
  0
LINE
  5
AA6
330
6F
100
AcDbEntity
  8
GEO_
 62
     7
420
 16777215
100
AcDbLine
 10
-82.11666666666666
 20
48.54269863253586
 30
0.0
 11
-82.1343166666667
 21
48.49486847768737
 31
0.0
  0
LINE
  5
AA7
330
6F
100
AcDbEntity
  8
GEO_
 62
     7
420
 16777215
100
AcDbLine
 10
-82.1343166666667
 20
48.49486847768737
 30
0.0
 11
-82.35555555555555
 21
47.90076359886817
 31
0.0
  0
LINE
  5
AA8
330
6F
100
AcDbEntity
  8
GEO_
 62
     7
420
 16777215
100
AcDbLine
 10
-82.35555555555555
 20
47.90076359886817
 30
0.0
 11
-82.41666666666667
 21
47.73382879080607
 31
0.0
  0
LINE
  5
AA9
330
6F
100
AcDbEntity
  8
GEO_
 62
     7
420
 16777215
100
AcDbLine
 10
-82.41666666666667
 20
47.73382879080607
 30
0.0
 11
-82.40416666666666
 21
47.65560918744109
 31
0.0
  0
LINE
  5
AAA
330
6F
100
AcDbEntity
  8
GEO_
 62
     7
420
 16777215
100
AcDbLine
 10
-82.40416666666666
 20
47.65560918744109
 30
0.0
 11
-82.4611111111111
 21
47.59680257115384
 31
0.0
  0
LINE
  5
AAB
330
6F
100
AcDbEntity
  8
GEO_
 62
     7
420
 16777215
100
AcDbLine
 10
-82.4611111111111
 20
47.59680257115384
 30
0.0
 11
-82.46666666666667
 21
47.54182710952418
 31
0.0
  0
LINE
  5
AAC
330
6F
100
AcDbEntity
  8
GEO_
 62
     7
420
 16777215
100
AcDbLine
 10
-82.46666666666667
 20
47.54182710952418
 30
0.0
 11
-82.72361111111111
 21
47.30980903131531
 31
0.0
  0
LINE
  5
AAD
330
6F
100
AcDbEntity
  8
GEO_
 62
     7
420
 16777215
100
AcDbLine
 10
-82.72361111111111
 20
47.30980903131531
 30
0.0
 11
-82.83055555555554
 21
47.17460171266811
 31
0.0
  0
LINE
  5
AAE
330
6F
100
AcDbEntity
  8
GEO_
 62
     7
420
 16777215
100
AcDbLine
 10
-82.83055555555554
 20
47.17460171266811
 30
0.0
 11
-82.86388888888888
 21
47.14932153623663
 31
0.0
  0
LINE
  5
AAF
330
6F
100
AcDbEntity
  8
GEO_
 62
     7
420
 16777215
100
AcDbLine
 10
-82.86388888888888
 20
47.14932153623663
 30
0.0
 11
-82.93476111111113
 21
46.83998642141473
 31
0.0
  0
LINE
  5
AB0
330
6F
100
AcDbEntity
  8
GEO_
 62
     7
420
 16777215
100
AcDbLine
 10
-82.93476111111113
 20
46.83998642141473
 30
0.0
 11
-83.13377777777779
 21
46.67911231348738
 31
0.0
  0
LINE
  5
AB1
330
6F
100
AcDbEntity
  8
GEO_
 62
     7
420
 16777215
100
AcDbLine
 10
-83.13377777777779
 20
46.67911231348738
 30
0.0
 11
-83.13023055555554
 21
46.6037986918675
 31
0.0
  0
LINE
  5
AB2
330
6F
100
AcDbEntity
  8
GEO_
 62
     7
420
 16777215
100
AcDbLine
 10
-83.13023055555554
 20
46.6037986918675
 30
0.0
 11
-83.38852777777779
 21
46.62586874796057
 31
0.0
  0
LINE
  5
AB3
330
6F
100
AcDbEntity
  8
GEO_
 62
     7
420
 16777215
100
AcDbLine
 10
-83.38852777777779
 20
46.62586874796057
 30
0.0
 11
-83.74508055555557
 21
46.65665339700722
 31
0.0
  0
LINE
  5
AB9
330
6F
100
AcDbEntity
  8
GEO_
 62
     7
420
 16777215
100
AcDbLine
 10
-84.52249999999997
 20
48.58950856848593
 30
0.0
 11
-84.16055555555557
 21
48.64133722510964
 31
0.0
  0
LINE
  5
ABA
330
6F
100
AcDbEntity
  8
GEO_
 62
     7
420
 16777215
100
AcDbLine
 10
-84.16055555555557
 20
48.64133722510964
 30
0.0
 11
-84.03722222222222
 21
48.65823652457621
 31
0.0
  0
LINE
  5
ABB
330
6F
100
AcDbEntity
  8
GEO_
 62
     7
420
 16777215
100
AcDbLine
 10
-84.03722222222222
 20
48.65823652457621
 30
0.0
 11
-83.29333333333334
 21
48.75816638331709
 31
0.0
  0
LINE
  5
ABC
330
6F
100
AcDbEntity
  8
GEO_
 62
     7
420
 16777215
100
AcDbLine
 10
-83.29333333333334
 20
48.75816638331709
 30
0.0
 11
-82.16944444444445
 21
48.89595968934187
 31
0.0
  0
LINE
  5
ABD
330
6F
100
AcDbEntity
  8
GEO_
 62
     7
420
 16777215
100
AcDbLine
 10
-82.16944444444445
 20
48.89595968934187
 30
0.0
 11
-82.16944444444445
 21
48.89595968934187
 31
0.0
  0
LINE
  5
ABE
330
6F
100
AcDbEntity
  8
GEO_
 62
     7
420
 16777215
100
AcDbLine
 10
-82.16944444444445
 20
48.89595968934187
 30
0.0
 11
-83.29333333333334
 21
48.75816638331709
 31
0.0
  0
LINE
  5
ABF
330
6F
100
AcDbEntity
  8
GEO_
 62
     7
420
 16777215
100
AcDbLine
 10
-82.16944444444445
 20
48.89595968934187
 30
0.0
 11
-82.125
 21
48.66553501369541
 31
0.0
  0
LINE
  5
AC0
330
6F
100
AcDbEntity
  8
GEO_
 62
     7
420
 16777215
100
AcDbLine
 10
-82.125
 20
48.66553501369541
 30
0.0
 11
-82.125
 21
48.66553501369541
 31
0.0
  0
LINE
  5
AC1
330
6F
100
AcDbEntity
  8
GEO_
 62
     7
420
 16777215
100
AcDbLine
 10
-82.125
 20
48.66553501369541
 30
0.0
 11
-82.16944444444445
 21
48.89595968934187
 31
0.0
  0
LINE
  5
AC2
330
6F
100
AcDbEntity
  8
GEO_
 62
     7
420
 16777215
100
AcDbLine
 10
-82.125
 20
48.66553501369541
 30
0.0
 11
-82.11666666666666
 21
48.54269863253586
 31
0.0
  0
LINE
  5
AC3
330
6F
100
AcDbEntity
  8
GEO_
 62
     7
420
 16777215
100
AcDbLine
 10
-82.11666666666666
 20
48.54269863253586
 30
0.0
 11
-82.11666666666666
 21
48.54269863253586
 31
0.0
  0
LINE
  5
AC4
330
6F
100
AcDbEntity
  8
GEO_
 62
     7
420
 16777215
100
AcDbLine
 10
-82.11666666666666
 20
48.54269863253586
 30
0.0
 11
-82.125
 21
48.66553501369541
 31
0.0
  0
LINE
  5
AC5
330
6F
100
AcDbEntity
  8
GEO_
 62
     7
420
 16777215
100
AcDbLine
 10
-82.11666666666666
 20
48.54269863253586
 30
0.0
 11
-82.1343166666667
 21
48.49486847768737
 31
0.0
  0
LINE
  5
AC6
330
6F
100
AcDbEntity
  8
GEO_
 62
     7
420
 16777215
100
AcDbLine
 10
-82.1343166666667
 20
48.49486847768737
 30
0.0
 11
-82.1343166666667
 21
48.49486847768737
 31
0.0
  0
LINE
  5
AC7
330
6F
100
AcDbEntity
  8
GEO_
 62
     7
420
 16777215
100
AcDbLine
 10
-82.1343166666667
 20
48.49486847768737
 30
0.0
 11
-82.11666666666666
 21
48.54269863253586
 31
0.0
  0
LINE
  5
AC8
330
6F
100
AcDbEntity
  8
GEO_
 62
     7
420
 16777215
100
AcDbLine
 10
-82.1343166666667
 20
48.49486847768737
 30
0.0
 11
-82.35555555555555
 21
47.90076359886817
 31
0.0
  0
LINE
  5
AC9
330
6F
100
AcDbEntity
  8
GEO_
 62
     7
420
 16777215
100
AcDbLine
 10
-82.35555555555555
 20
47.90076359886817
 30
0.0
 11
-82.35555555555555
 21
47.90076359886817
 31
0.0
  0
LINE
  5
ACA
330
6F
100
AcDbEntity
  8
GEO_
 62
     7
420
 16777215
100
AcDbLine
 10
-82.35555555555555
 20
47.90076359886817
 30
0.0
 11
-82.1343166666667
 21
48.49486847768737
 31
0.0
  0
LINE
  5
ACB
330
6F
100
AcDbEntity
  8
GEO_
 62
     7
420
 16777215
100
AcDbLine
 10
-82.35555555555555
 20
47.90076359886817
 30
0.0
 11
-82.41666666666667
 21
47.73382879080607
 31
0.0
  0
LINE
  5
ACC
330
6F
100
AcDbEntity
  8
GEO_
 62
     7
420
 16777215
100
AcDbLine
 10
-82.41666666666667
 20
47.73382879080607
 30
0.0
 11
-82.41666666666667
 21
47.73382879080607
 31
0.0
  0
LINE
  5
ACD
330
6F
100
AcDbEntity
  8
GEO_
 62
     7
420
 16777215
100
AcDbLine
 10
-82.41666666666667
 20
47.73382879080607
 30
0.0
 11
-82.35555555555555
 21
47.90076359886817
 31
0.0
  0
LINE
  5
ACE
330
6F
100
AcDbEntity
  8
GEO_
 62
     7
420
 16777215
100
AcDbLine
 10
-82.41666666666667
 20
47.73382879080607
 30
0.0
 11
-82.40416666666666
 21
47.65560918744109
 31
0.0
  0
LINE
  5
ACF
330
6F
100
AcDbEntity
  8
GEO_
 62
     7
420
 16777215
100
AcDbLine
 10
-82.40416666666666
 20
47.65560918744109
 30
0.0
 11
-82.40416666666666
 21
47.65560918744109
 31
0.0
  0
LINE
  5
AD0
330
6F
100
AcDbEntity
  8
GEO_
 62
     7
420
 16777215
100
AcDbLine
 10
-82.40416666666666
 20
47.65560918744109
 30
0.0
 11
-82.41666666666667
 21
47.73382879080607
 31
0.0
  0
LINE
  5
AD1
330
6F
100
AcDbEntity
  8
GEO_
 62
     7
420
 16777215
100
AcDbLine
 10
-82.40416666666666
 20
47.65560918744109
 30
0.0
 11
-82.4611111111111
 21
47.59680257115384
 31
0.0
  0
LINE
  5
AD2
330
6F
100
AcDbEntity
  8
GEO_
 62
     7
420
 16777215
100
AcDbLine
 10
-82.4611111111111
 20
47.59680257115384
 30
0.0
 11
-82.4611111111111
 21
47.59680257115384
 31
0.0
  0
LINE
  5
AD3
330
6F
100
AcDbEntity
  8
GEO_
 62
     7
420
 16777215
100
AcDbLine
 10
-82.4611111111111
 20
47.59680257115384
 30
0.0
 11
-82.40416666666666
 21
47.65560918744109
 31
0.0
  0
LINE
  5
AD4
330
6F
100
AcDbEntity
  8
GEO_
 62
     7
420
 16777215
100
AcDbLine
 10
-82.4611111111111
 20
47.59680257115384
 30
0.0
 11
-82.46666666666667
 21
47.54182710952418
 31
0.0
  0
LINE
  5
AD5
330
6F
100
AcDbEntity
  8
GEO_
 62
     7
420
 16777215
100
AcDbLine
 10
-82.46666666666667
 20
47.54182710952418
 30
0.0
 11
-82.46666666666667
 21
47.54182710952418
 31
0.0
  0
LINE
  5
AD6
330
6F
100
AcDbEntity
  8
GEO_
 62
     7
420
 16777215
100
AcDbLine
 10
-82.46666666666667
 20
47.54182710952418
 30
0.0
 11
-82.4611111111111
 21
47.59680257115384
 31
0.0
  0
LINE
  5
AD7
330
6F
100
AcDbEntity
  8
GEO_
 62
     7
420
 16777215
100
AcDbLine
 10
-82.46666666666667
 20
47.54182710952418
 30
0.0
 11
-82.72361111111111
 21
47.30980903131531
 31
0.0
  0
LINE
  5
AD8
330
6F
100
AcDbEntity
  8
GEO_
 62
     7
420
 16777215
100
AcDbLine
 10
-82.72361111111111
 20
47.30980903131531
 30
0.0
 11
-82.72361111111111
 21
47.30980903131531
 31
0.0
  0
LINE
  5
AD9
330
6F
100
AcDbEntity
  8
GEO_
 62
     7
420
 16777215
100
AcDbLine
 10
-82.72361111111111
 20
47.30980903131531
 30
0.0
 11
-82.46666666666667
 21
47.54182710952418
 31
0.0
  0
LINE
  5
ADA
330
6F
100
AcDbEntity
  8
GEO_
 62
     7
420
 16777215
100
AcDbLine
 10
-82.72361111111111
 20
47.30980903131531
 30
0.0
 11
-82.83055555555554
 21
47.17460171266811
 31
0.0
  0
LINE
  5
ADB
330
6F
100
AcDbEntity
  8
GEO_
 62
     7
420
 16777215
100
AcDbLine
 10
-82.83055555555554
 20
47.17460171266811
 30
0.0
 11
-82.83055555555554
 21
47.17460171266811
 31
0.0
  0
LINE
  5
ADC
330
6F
100
AcDbEntity
  8
GEO_
 62
     7
420
 16777215
100
AcDbLine
 10
-82.83055555555554
 20
47.17460171266811
 30
0.0
 11
-82.72361111111111
 21
47.30980903131531
 31
0.0
  0
LINE
  5
ADD
330
6F
100
AcDbEntity
  8
GEO_
 62
     7
420
 16777215
100
AcDbLine
 10
-82.83055555555554
 20
47.17460171266811
 30
0.0
 11
-82.86388888888888
 21
47.14932153623663
 31
0.0
  0
LINE
  5
ADE
330
6F
100
AcDbEntity
  8
GEO_
 62
     7
420
 16777215
100
AcDbLine
 10
-82.86388888888888
 20
47.14932153623663
 30
0.0
 11
-82.86388888888888
 21
47.14932153623663
 31
0.0
  0
LINE
  5
ADF
330
6F
100
AcDbEntity
  8
GEO_
 62
     7
420
 16777215
100
AcDbLine
 10
-82.86388888888888
 20
47.14932153623663
 30
0.0
 11
-82.83055555555554
 21
47.17460171266811
 31
0.0
  0
LINE
  5
AE0
330
6F
100
AcDbEntity
  8
GEO_
 62
     7
420
 16777215
100
AcDbLine
 10
-82.86388888888888
 20
47.14932153623663
 30
0.0
 11
-82.93476111111113
 21
46.83998642141473
 31
0.0
  0
LINE
  5
AE1
330
6F
100
AcDbEntity
  8
GEO_
 62
     7
420
 16777215
100
AcDbLine
 10
-82.93476111111113
 20
46.83998642141473
 30
0.0
 11
-82.93476111111113
 21
46.83998642141473
 31
0.0
  0
LINE
  5
AE2
330
6F
100
AcDbEntity
  8
GEO_
 62
     7
420
 16777215
100
AcDbLine
 10
-82.93476111111113
 20
46.83998642141473
 30
0.0
 11
-82.86388888888888
 21
47.14932153623663
 31
0.0
  0
LINE
  5
AE3
330
6F
100
AcDbEntity
  8
GEO_
 62
     7
420
 16777215
100
AcDbLine
 10
-82.93476111111113
 20
46.83998642141473
 30
0.0
 11
-83.13377777777779
 21
46.67911231348738
 31
0.0
  0
LINE
  5
AE4
330
6F
100
AcDbEntity
  8
GEO_
 62
     7
420
 16777215
100
AcDbLine
 10
-83.13377777777779
 20
46.67911231348738
 30
0.0
 11
-83.13377777777779
 21
46.67911231348738
 31
0.0
  0
LINE
  5
AE5
330
6F
100
AcDbEntity
  8
GEO_
 62
     7
420
 16777215
100
AcDbLine
 10
-83.13377777777779
 20
46.67911231348738
 30
0.0
 11
-82.93476111111113
 21
46.83998642141473
 31
0.0
  0
LINE
  5
AE6
330
6F
100
AcDbEntity
  8
GEO_
 62
     7
420
 16777215
100
AcDbLine
 10
-83.13377777777779
 20
46.67911231348738
 30
0.0
 11
-83.13023055555554
 21
46.6037986918675
 31
0.0
  0
LINE
  5
AE7
330
6F
100
AcDbEntity
  8
GEO_
 62
     7
420
 16777215
100
AcDbLine
 10
-83.13023055555554
 20
46.6037986918675
 30
0.0
 11
-83.13023055555554
 21
46.6037986918675
 31
0.0
  0
LINE
  5
AE8
330
6F
100
AcDbEntity
  8
GEO_
 62
     7
420
 16777215
100
AcDbLine
 10
-83.13023055555554
 20
46.6037986918675
 30
0.0
 11
-83.13377777777779
 21
46.67911231348738
 31
0.0
  0
LINE
  5
AE9
330
6F
100
AcDbEntity
  8
GEO_
 62
     7
420
 16777215
100
AcDbLine
 10
-83.13023055555554
 20
46.6037986918675
 30
0.0
 11
-83.38852777777779
 21
46.62586874796057
 31
0.0
  0
LINE
  5
AEA
330
6F
100
AcDbEntity
  8
GEO_
 62
     7
420
 16777215
100
AcDbLine
 10
-83.38852777777779
 20
46.62586874796057
 30
0.0
 11
-83.38852777777779
 21
46.62586874796057
 31
0.0
  0
LINE
  5
AEB
330
6F
100
AcDbEntity
  8
GEO_
 62
     7
420
 16777215
100
AcDbLine
 10
-83.38852777777779
 20
46.62586874796057
 30
0.0
 11
-83.13023055555554
 21
46.6037986918675
 31
0.0
  0
LINE
  5
AEC
330
6F
100
AcDbEntity
  8
GEO_
 62
     7
420
 16777215
100
AcDbLine
 10
-83.38852777777779
 20
46.62586874796057
 30
0.0
 11
-83.74508055555557
 21
46.65665339700722
 31
0.0
  0
LINE
  5
AED
330
6F
100
AcDbEntity
  8
GEO_
 62
     7
420
 16777215
100
AcDbLine
 10
-83.74508055555557
 20
46.65665339700722
 30
0.0
 11
-83.74508055555557
 21
46.65665339700722
 31
0.0
  0
LINE
  5
AEE
330
6F
100
AcDbEntity
  8
GEO_
 62
     7
420
 16777215
100
AcDbLine
 10
-83.74508055555557
 20
46.65665339700722
 30
0.0
 11
-83.38852777777779
 21
46.62586874796057
 31
0.0
  0
LINE
  5
AFC
330
6F
100
AcDbEntity
  8
GEO_
 62
     7
420
 16777215
100
AcDbLine
 10
-84.52249999999997
 20
48.58950856848593
 30
0.0
 11
-84.52249999999997
 21
48.58950856848593
 31
0.0
  0
LINE
  5
AFE
330
6F
100
AcDbEntity
  8
GEO_
 62
     7
420
 16777215
100
AcDbLine
 10
-84.52249999999997
 20
48.58950856848593
 30
0.0
 11
-84.16055555555557
 21
48.64133722510964
 31
0.0
  0
LINE
  5
AFF
330
6F
100
AcDbEntity
  8
GEO_
 62
     7
420
 16777215
100
AcDbLine
 10
-84.16055555555557
 20
48.64133722510964
 30
0.0
 11
-84.16055555555557
 21
48.64133722510964
 31
0.0
  0
LINE
  5
B00
330
6F
100
AcDbEntity
  8
GEO_
 62
     7
420
 16777215
100
AcDbLine
 10
-84.16055555555557
 20
48.64133722510964
 30
0.0
 11
-84.52249999999997
 21
48.58950856848593
 31
0.0
  0
LINE
  5
B01
330
6F
100
AcDbEntity
  8
GEO_
 62
     7
420
 16777215
100
AcDbLine
 10
-84.16055555555557
 20
48.64133722510964
 30
0.0
 11
-84.03722222222222
 21
48.65823652457621
 31
0.0
  0
LINE
  5
B02
330
6F
100
AcDbEntity
  8
GEO_
 62
     7
420
 16777215
100
AcDbLine
 10
-84.03722222222222
 20
48.65823652457621
 30
0.0
 11
-84.03722222222222
 21
48.65823652457621
 31
0.0
  0
LINE
  5
B03
330
6F
100
AcDbEntity
  8
GEO_
 62
     7
420
 16777215
100
AcDbLine
 10
-84.03722222222222
 20
48.65823652457621
 30
0.0
 11
-84.16055555555557
 21
48.64133722510964
 31
0.0
  0
LINE
  5
B04
330
6F
100
AcDbEntity
  8
GEO_
 62
     7
420
 16777215
100
AcDbLine
 10
-84.03722222222222
 20
48.65823652457621
 30
0.0
 11
-83.29333333333334
 21
48.75816638331709
 31
0.0
  0
LINE
  5
B05
330
6F
100
AcDbEntity
  8
GEO_
 62
     7
420
 16777215
100
AcDbLine
 10
-83.29333333333334
 20
48.75816638331709
 30
0.0
 11
-83.29333333333334
 21
48.75816638331709
 31
0.0
  0
LINE
  5
B06
330
6F
100
AcDbEntity
  8
GEO_
 62
     7
420
 16777215
100
AcDbLine
 10
-83.29333333333334
 20
48.75816638331709
 30
0.0
 11
-84.03722222222222
 21
48.65823652457621
 31
0.0
  0
LINE
  5
B3E
330
6F
100
AcDbEntity
  8
GEO_
 62
     7
420
 16777215
100
AcDbLine
 10
-82.72361111111111
 20
47.30980903131531
 30
0.0
 11
-82.46666666666667
 21
47.54182710952418
 31
0.0
  0
LINE
  5
B50
330
6F
100
AcDbEntity
  8
GEO_
 62
     7
420
 16777215
100
AcDbLine
 10
-82.72361111111111
 20
47.30980903131531
 30
0.0
 11
-82.46666666666667
 21
47.54182710952418
 31
0.0
  0
LINE
  5
B85
330
6F
100
AcDbEntity
  8
GEO_
 62
     7
420
 16777215
100
AcDbLine
 10
-82.72361111111111
 20
47.30980903131531
 30
0.0
 11
-82.72361111111111
 21
47.30980903131531
 31
0.0
  0
LINE
  5
B87
330
6F
100
AcDbEntity
  8
GEO_
 62
     7
420
 16777215
100
AcDbLine
 10
-82.72361111111111
 20
47.30980903131531
 30
0.0
 11
-82.46666666666667
 21
47.54182710952418
 31
0.0
  0
LINE
  5
B88
330
6F
100
AcDbEntity
  8
GEO_
 62
     7
420
 16777215
100
AcDbLine
 10
-82.46666666666667
 20
47.54182710952418
 30
0.0
 11
-82.46666666666667
 21
47.54182710952418
 31
0.0
  0
LINE
  5
B89
330
6F
100
AcDbEntity
  8
GEO_
 62
     7
420
 16777215
100
AcDbLine
 10
-82.46666666666667
 20
47.54182710952418
 30
0.0
 11
-82.72361111111111
 21
47.30980903131531
 31
0.0
  0
LINE
  5
B97
330
6F
100
AcDbEntity
  8
GEO_
 62
     7
420
 16777215
100
AcDbLine
 10
-82.93476111111113
 20
46.83998642141473
 30
0.0
 11
-82.86388888888888
 21
47.14932153623663
 31
0.0
  0
LINE
  5
B98
330
6F
100
AcDbEntity
  8
GEO_
 62
     7
420
 16777215
100
AcDbLine
 10
-82.86388888888888
 20
47.14932153623663
 30
0.0
 11
-82.83055555555554
 21
47.17460171266811
 31
0.0
  0
LINE
  5
B99
330
6F
100
AcDbEntity
  8
GEO_
 62
     7
420
 16777215
100
AcDbLine
 10
-82.83055555555554
 20
47.17460171266811
 30
0.0
 11
-82.72361111111111
 21
47.30980903131531
 31
0.0
  0
LINE
  5
B9A
330
6F
100
AcDbEntity
  8
GEO_
 62
     7
420
 16777215
100
AcDbLine
 10
-82.72361111111111
 20
47.30980903131531
 30
0.0
 11
-82.46666666666667
 21
47.54182710952418
 31
0.0
  0
LINE
  5
BA8
330
6F
100
AcDbEntity
  8
GEO_
 62
     7
420
 16777215
100
AcDbLine
 10
-82.93476111111113
 20
46.83998642141473
 30
0.0
 11
-82.86388888888888
 21
47.14932153623663
 31
0.0
  0
LINE
  5
BA9
330
6F
100
AcDbEntity
  8
GEO_
 62
     7
420
 16777215
100
AcDbLine
 10
-82.86388888888888
 20
47.14932153623663
 30
0.0
 11
-82.83055555555554
 21
47.17460171266811
 31
0.0
  0
LINE
  5
BAA
330
6F
100
AcDbEntity
  8
GEO_
 62
     7
420
 16777215
100
AcDbLine
 10
-82.83055555555554
 20
47.17460171266811
 30
0.0
 11
-82.72361111111111
 21
47.30980903131531
 31
0.0
  0
LINE
  5
BAB
330
6F
100
AcDbEntity
  8
GEO_
 62
     7
420
 16777215
100
AcDbLine
 10
-82.72361111111111
 20
47.30980903131531
 30
0.0
 11
-82.46666666666667
 21
47.54182710952418
 31
0.0
  0
LINE
  5
BD4
330
6F
100
AcDbEntity
  8
GEO_
 62
     7
420
 16777215
100
AcDbLine
 10
-82.93476111111113
 20
46.83998642141473
 30
0.0
 11
-82.93476111111113
 21
46.83998642141473
 31
0.0
  0
LINE
  5
BD6
330
6F
100
AcDbEntity
  8
GEO_
 62
     7
420
 16777215
100
AcDbLine
 10
-82.93476111111113
 20
46.83998642141473
 30
0.0
 11
-82.86388888888888
 21
47.14932153623663
 31
0.0
  0
LINE
  5
BD7
330
6F
100
AcDbEntity
  8
GEO_
 62
     7
420
 16777215
100
AcDbLine
 10
-82.86388888888888
 20
47.14932153623663
 30
0.0
 11
-82.86388888888888
 21
47.14932153623663
 31
0.0
  0
LINE
  5
BD8
330
6F
100
AcDbEntity
  8
GEO_
 62
     7
420
 16777215
100
AcDbLine
 10
-82.86388888888888
 20
47.14932153623663
 30
0.0
 11
-82.93476111111113
 21
46.83998642141473
 31
0.0
  0
LINE
  5
BD9
330
6F
100
AcDbEntity
  8
GEO_
 62
     7
420
 16777215
100
AcDbLine
 10
-82.86388888888888
 20
47.14932153623663
 30
0.0
 11
-82.83055555555554
 21
47.17460171266811
 31
0.0
  0
LINE
  5
BDA
330
6F
100
AcDbEntity
  8
GEO_
 62
     7
420
 16777215
100
AcDbLine
 10
-82.83055555555554
 20
47.17460171266811
 30
0.0
 11
-82.83055555555554
 21
47.17460171266811
 31
0.0
  0
LINE
  5
BDB
330
6F
100
AcDbEntity
  8
GEO_
 62
     7
420
 16777215
100
AcDbLine
 10
-82.83055555555554
 20
47.17460171266811
 30
0.0
 11
-82.86388888888888
 21
47.14932153623663
 31
0.0
  0
LINE
  5
BDC
330
6F
100
AcDbEntity
  8
GEO_
 62
     7
420
 16777215
100
AcDbLine
 10
-82.83055555555554
 20
47.17460171266811
 30
0.0
 11
-82.72361111111111
 21
47.30980903131531
 31
0.0
  0
LINE
  5
BDD
330
6F
100
AcDbEntity
  8
GEO_
 62
     7
420
 16777215
100
AcDbLine
 10
-82.72361111111111
 20
47.30980903131531
 30
0.0
 11
-82.72361111111111
 21
47.30980903131531
 31
0.0
  0
LINE
  5
BDE
330
6F
100
AcDbEntity
  8
GEO_
 62
     7
420
 16777215
100
AcDbLine
 10
-82.72361111111111
 20
47.30980903131531
 30
0.0
 11
-82.83055555555554
 21
47.17460171266811
 31
0.0
  0
LINE
  5
BDF
330
6F
100
AcDbEntity
  8
GEO_
 62
     7
420
 16777215
100
AcDbLine
 10
-82.72361111111111
 20
47.30980903131531
 30
0.0
 11
-82.46666666666667
 21
47.54182710952418
 31
0.0
  0
LINE
  5
BE0
330
6F
100
AcDbEntity
  8
GEO_
 62
     7
420
 16777215
100
AcDbLine
 10
-82.46666666666667
 20
47.54182710952418
 30
0.0
 11
-82.46666666666667
 21
47.54182710952418
 31
0.0
  0
LINE
  5
BE1
330
6F
100
AcDbEntity
  8
GEO_
 62
     7
420
 16777215
100
AcDbLine
 10
-82.46666666666667
 20
47.54182710952418
 30
0.0
 11
-82.72361111111111
 21
47.30980903131531
 31
0.0
  0
LINE
  5
D66
330
6F
100
AcDbEntity
  8
GEO_
 62
     7
420
 16777215
100
AcDbLine
 10
-83.13023055555554
 20
46.6037986918675
 30
0.0
 11
-83.13377777777779
 21
46.67911231348738
 31
0.0
  0
LINE
  5
D67
330
6F
100
AcDbEntity
  8
GEO_
 62
     7
420
 16777215
100
AcDbLine
 10
-83.13377777777779
 20
46.67911231348738
 30
0.0
 11
-82.93476111111113
 21
46.83998642141473
 31
0.0
  0
LINE
  5
D7B
330
6F
100
AcDbEntity
  8
GEO_
 62
     7
420
 16777215
100
AcDbLine
 10
-83.13023055555554
 20
46.6037986918675
 30
0.0
 11
-83.13377777777779
 21
46.67911231348738
 31
0.0
  0
LINE
  5
D7C
330
6F
100
AcDbEntity
  8
GEO_
 62
     7
420
 16777215
100
AcDbLine
 10
-83.13377777777779
 20
46.67911231348738
 30
0.0
 11
-82.93476111111113
 21
46.83998642141473
 31
0.0
  0
LINE
  5
DB1
330
6F
100
AcDbEntity
  8
GEO_
 62
     7
420
 16777215
100
AcDbLine
 10
-83.13023055555554
 20
46.6037986918675
 30
0.0
 11
-83.13023055555554
 21
46.6037986918675
 31
0.0
  0
LINE
  5
DB3
330
6F
100
AcDbEntity
  8
GEO_
 62
     7
420
 16777215
100
AcDbLine
 10
-83.13023055555554
 20
46.6037986918675
 30
0.0
 11
-83.13377777777779
 21
46.67911231348738
 31
0.0
  0
LINE
  5
DB4
330
6F
100
AcDbEntity
  8
GEO_
 62
     7
420
 16777215
100
AcDbLine
 10
-83.13377777777779
 20
46.67911231348738
 30
0.0
 11
-83.13377777777779
 21
46.67911231348738
 31
0.0
  0
LINE
  5
DB5
330
6F
100
AcDbEntity
  8
GEO_
 62
     7
420
 16777215
100
AcDbLine
 10
-83.13377777777779
 20
46.67911231348738
 30
0.0
 11
-83.13023055555554
 21
46.6037986918675
 31
0.0
  0
LINE
  5
DB6
330
6F
100
AcDbEntity
  8
GEO_
 62
     7
420
 16777215
100
AcDbLine
 10
-83.13377777777779
 20
46.67911231348738
 30
0.0
 11
-82.93476111111113
 21
46.83998642141473
 31
0.0
  0
LINE
  5
DB7
330
6F
100
AcDbEntity
  8
GEO_
 62
     7
420
 16777215
100
AcDbLine
 10
-82.93476111111113
 20
46.83998642141473
 30
0.0
 11
-82.93476111111113
 21
46.83998642141473
 31
0.0
  0
LINE
  5
DB8
330
6F
100
AcDbEntity
  8
GEO_
 62
     7
420
 16777215
100
AcDbLine
 10
-82.93476111111113
 20
46.83998642141473
 30
0.0
 11
-83.13377777777779
 21
46.67911231348738
 31
0.0
  0
LINE
  5
DD2
330
6F
100
AcDbEntity
  8
GEO_
 62
     7
420
 16777215
100
AcDbLine
 10
-83.38852777777779
 20
46.62586874796057
 30
0.0
 11
-83.13023055555554
 21
46.6037986918675
 31
0.0
  0
LINE
  5
DD3
330
6F
100
AcDbEntity
  8
GEO_
 62
     7
420
 16777215
100
AcDbLine
 10
-83.13023055555554
 20
46.6037986918675
 30
0.0
 11
-83.13377777777779
 21
46.67911231348738
 31
0.0
  0
LINE
  5
DD4
330
6F
100
AcDbEntity
  8
GEO_
 62
     7
420
 16777215
100
AcDbLine
 10
-83.13377777777779
 20
46.67911231348738
 30
0.0
 11
-82.93476111111113
 21
46.83998642141473
 31
0.0
  0
LINE
  5
DE8
330
6F
100
AcDbEntity
  8
GEO_
 62
     7
420
 16777215
100
AcDbLine
 10
-83.38852777777779
 20
46.62586874796057
 30
0.0
 11
-83.13023055555554
 21
46.6037986918675
 31
0.0
  0
LINE
  5
DE9
330
6F
100
AcDbEntity
  8
GEO_
 62
     7
420
 16777215
100
AcDbLine
 10
-83.13023055555554
 20
46.6037986918675
 30
0.0
 11
-83.13377777777779
 21
46.67911231348738
 31
0.0
  0
LINE
  5
DEA
330
6F
100
AcDbEntity
  8
GEO_
 62
     7
420
 16777215
100
AcDbLine
 10
-83.13377777777779
 20
46.67911231348738
 30
0.0
 11
-82.93476111111113
 21
46.83998642141473
 31
0.0
  0
LINE
  5
E1F
330
6F
100
AcDbEntity
  8
GEO_
 62
     7
420
 16777215
100
AcDbLine
 10
-83.38852777777779
 20
46.62586874796057
 30
0.0
 11
-83.38852777777779
 21
46.62586874796057
 31
0.0
  0
LINE
  5
E21
330
6F
100
AcDbEntity
  8
GEO_
 62
     7
420
 16777215
100
AcDbLine
 10
-83.38852777777779
 20
46.62586874796057
 30
0.0
 11
-83.13023055555554
 21
46.6037986918675
 31
0.0
  0
LINE
  5
E22
330
6F
100
AcDbEntity
  8
GEO_
 62
     7
420
 16777215
100
AcDbLine
 10
-83.13023055555554
 20
46.6037986918675
 30
0.0
 11
-83.13023055555554
 21
46.6037986918675
 31
0.0
  0
LINE
  5
E23
330
6F
100
AcDbEntity
  8
GEO_
 62
     7
420
 16777215
100
AcDbLine
 10
-83.13023055555554
 20
46.6037986918675
 30
0.0
 11
-83.38852777777779
 21
46.62586874796057
 31
0.0
  0
LINE
  5
E24
330
6F
100
AcDbEntity
  8
GEO_
 62
     7
420
 16777215
100
AcDbLine
 10
-83.13023055555554
 20
46.6037986918675
 30
0.0
 11
-83.13377777777779
 21
46.67911231348738
 31
0.0
  0
LINE
  5
E25
330
6F
100
AcDbEntity
  8
GEO_
 62
     7
420
 16777215
100
AcDbLine
 10
-83.13377777777779
 20
46.67911231348738
 30
0.0
 11
-83.13377777777779
 21
46.67911231348738
 31
0.0
  0
LINE
  5
E26
330
6F
100
AcDbEntity
  8
GEO_
 62
     7
420
 16777215
100
AcDbLine
 10
-83.13377777777779
 20
46.67911231348738
 30
0.0
 11
-83.13023055555554
 21
46.6037986918675
 31
0.0
  0
LINE
  5
E27
330
6F
100
AcDbEntity
  8
GEO_
 62
     7
420
 16777215
100
AcDbLine
 10
-83.13377777777779
 20
46.67911231348738
 30
0.0
 11
-82.93476111111113
 21
46.83998642141473
 31
0.0
  0
LINE
  5
E28
330
6F
100
AcDbEntity
  8
GEO_
 62
     7
420
 16777215
100
AcDbLine
 10
-82.93476111111113
 20
46.83998642141473
 30
0.0
 11
-82.93476111111113
 21
46.83998642141473
 31
0.0
  0
LINE
  5
E29
330
6F
100
AcDbEntity
  8
GEO_
 62
     7
420
 16777215
100
AcDbLine
 10
-82.93476111111113
 20
46.83998642141473
 30
0.0
 11
-83.13377777777779
 21
46.67911231348738
 31
0.0
  0
ENDSEC
  0
SECTION
  2
OBJECTS
  0
DICTIONARY
  5
C
330
0
100
AcDbDictionary
281
     1
  3
ACAD_BACKGROUND
350
1AB7
  3
ACAD_CIP_PREVIOUS_PRODUCT_INFO
350
1AB0
  3
ACAD_COLOR
350
62
  3
ACAD_DETAILVIEWSTYLE
350
69
  3
ACAD_GROUP
350
D
  3
ACAD_LAYOUT
350
61
  3
ACAD_MATERIAL
350
10
  3
ACAD_MLEADERSTYLE
350
65
  3
ACAD_MLINESTYLE
350
5E
  3
ACAD_PLOTSETTINGS
350
60
  3
ACAD_PLOTSTYLENAME
350
E
  3
ACAD_SCALELIST
350
42
  3
ACAD_SECTIONVIEWSTYLE
350
67
  3
ACAD_TABLESTYLE
350
63
  3
ACAD_VISUALSTYLE
350
29
  3
ACDB_RECOMPOSE_DATA
350
1B08
  3
AcDbVariableDictionary
350
1ABA
  0
DICTIONARY
  5
1AF3
330
2
100
AcDbDictionary
280
     1
281
     1
  3
ACAD_LAYERSTATES
360
1AF4
  0
DICTIONARY
  5
1ACD
330
54
100
AcDbDictionary
280
     1
281
     1
  3
ADSK_XREC_LAYER_RECONCILED
360
1ACE
  0
DICTIONARY
  5
1ADB
330
9B
100
AcDbDictionary
280
     1
281
     1
  3
ADSK_XREC_LAYER_RECONCILED
360
1ADC
  0
DICTIONARY
  5
1AEE
330
6F
100
AcDbDictionary
280
     1
281
     1
  3
ACAD_SORTENTS
360
1AEF
  0
DICTIONARY
  5
1AB7
102
{ACAD_REACTORS
330
C
102
}
330
C
100
AcDbDictionary
281
     1
  0
XRECORD
  5
1AB0
102
{ACAD_REACTORS
330
C
102
}
330
C
100
AcDbXrecord
280
     1
300
ACD
300
2019
300
ACD_F_S
  0
DICTIONARY
  5
62
102
{ACAD_REACTORS
330
C
102
}
330
C
100
AcDbDictionary
281
     1
  0
DICTIONARY
  5
69
102
{ACAD_REACTORS
330
C
102
}
330
C
100
AcDbDictionary
281
     1
  3
Imperial24
350
6A
  0
DICTIONARY
  5
D
102
{ACAD_REACTORS
330
C
102
}
330
C
100
AcDbDictionary
281
     1
  0
DICTIONARY
  5
61
102
{ACAD_REACTORS
330
C
102
}
330
C
100
AcDbDictionary
281
     1
  3
Layout1
350
6E
  3
Model
350
72
  0
DICTIONARY
  5
10
102
{ACAD_REACTORS
330
C
102
}
330
C
100
AcDbDictionary
281
     1
  3
ByBlock
350
19
  3
ByLayer
350
11
  3
Global
350
21
  0
DICTIONARY
  5
65
102
{ACAD_REACTORS
330
C
102
}
330
C
100
AcDbDictionary
281
     1
  3
Standard
350
66
  0
DICTIONARY
  5
5E
102
{ACAD_REACTORS
330
C
102
}
330
C
100
AcDbDictionary
281
     1
  3
Standard
350
5F
  0
DICTIONARY
  5
60
102
{ACAD_REACTORS
330
C
102
}
330
C
100
AcDbDictionary
281
     1
  0
ACDBDICTIONARYWDFLT
  5
E
102
{ACAD_REACTORS
330
C
102
}
330
C
100
AcDbDictionary
281
     1
  3
Normal
350
F
100
AcDbDictionaryWithDefault
340
F
  0
DICTIONARY
  5
42
102
{ACAD_REACTORS
330
C
102
}
330
C
100
AcDbDictionary
281
     1
  3
A0
350
43
  3
A1
350
44
  3
A2
350
45
  3
A3
350
46
  3
A4
350
47
  3
A5
350
48
  3
A6
350
49
  3
A7
350
4A
  3
A8
350
4B
  3
A9
350
4C
  3
B0
350
4D
  3
B1
350
4E
  3
B2
350
4F
  3
B3
350
50
  3
B4
350
51
  3
B5
350
52
  3
B6
350
53
  0
DICTIONARY
  5
67
102
{ACAD_REACTORS
330
C
102
}
330
C
100
AcDbDictionary
281
     1
  3
Imperial24
350
68
  0
DICTIONARY
  5
63
102
{ACAD_REACTORS
330
C
102
}
330
C
100
AcDbDictionary
281
     1
  3
Standard
350
64
  0
DICTIONARY
  5
29
102
{ACAD_REACTORS
330
C
102
}
330
C
100
AcDbDictionary
281
     1
  3
2dWireframe
350
2F
  3
Basic
350
2E
  3
Brighten
350
35
  3
ColorChange
350
39
  3
Conceptual
350
32
  3
Dim
350
34
  3
EdgeColorOff
350
41
  3
Facepattern
350
38
  3
Flat
350
2A
  3
FlatWithEdges
350
2B
  3
Gouraud
350
2C
  3
GouraudWithEdges
350
2D
  3
Hidden
350
31
  3
JitterOff
350
3F
  3
Linepattern
350
37
  3
OverhangOff
350
40
  3
Realistic
350
33
  3
Shaded
350
3E
  3
Shaded with edges
350
3D
  3
Shades of Gray
350
3A
  3
Sketchy
350
3B
  3
Thicken
350
36
  3
Wireframe
350
30
  3
X-Ray
350
3C
  0
XRECORD
  5
1B08
102
{ACAD_REACTORS
330
C
102
}
330
C
100
AcDbXrecord
280
     1
 90
        1
330
64
  0
DICTIONARY
  5
1ABA
102
{ACAD_REACTORS
330
C
102
}
330
C
100
AcDbDictionary
281
     1
  3
CANNOSCALE
350
1AC0
  3
CMLEADERSTYLE
350
1ABC
  3
CTABLESTYLE
350
1ABB
  3
CVIEWDETAILSTYLE
350
1ABD
  3
CVIEWSECTIONSTYLE
350
1ABE
  3
LAYEREVAL
350
1AC2
  3
LAYERNOTIFY
350
1AC3
  3
LIGHTINGUNITS
350
1AC1
  3
MSLTSCALE
350
1ABF
  0
DICTIONARY
  5
1AF4
102
{ACAD_REACTORS
330
1AF3
102
}
330
1AF3
100
AcDbDictionary
281
     1
  0
XRECORD
  5
1ACE
102
{ACAD_REACTORS
330
1ACD
102
}
330
1ACD
100
AcDbXrecord
280
     1
290
     1
  0
XRECORD
  5
1ADC
102
{ACAD_REACTORS
330
1ADB
102
}
330
1ADB
100
AcDbXrecord
280
     1
290
     1
  0
SORTENTSTABLE
  5
1AEF
102
{ACAD_REACTORS
330
1AEE
102
}
330
1AEE
100
AcDbSortentsTable
330
6F
  0
ACDBDETAILVIEWSTYLE
  5
6A
102
{ACAD_REACTORS
330
69
102
}
330
69
100
AcDbModelDocViewStyle
 70
     0
  3
Imperial24
290
     0
300
Imperial24
 90
        0
100
AcDbDetailViewStyle
 70
     0
 71
     0
 90
        3
 71
     1
340
55
 62
   256
 40
0.24
340
0
 62
   256
 40
0.24
300

 40
0.36
280
     3
 71
     2
340
5C
 90
       25
 62
   256
 71
     3
340
55
 62
   256
 40
0.24
 90
        1
 40
0.75
 90
        1
300
%<\AcVar ViewType \f "%tc1">% %<\AcVar ViewDetailId>%\PSCALE %<\AcVar ViewScale \f "%sn">%
 71
     4
340
5C
 90
       25
 62
   256
340
5C
 90
       25
 62
   256
280
     0
  0
LAYOUT
  5
6E
102
{ACAD_REACTORS
330
61
102
}
330
61
100
AcDbPlotSettings
  1

  2
\\hpoffice\HP Photosmart Prem C410 series
  4

  6

 40
0.0
 41
0.0
 42
0.0
 43
0.0
 44
0.0
 45
0.0
 46
0.0
 47
0.0
 48
0.0
 49
0.0
140
0.0
141
0.0
142
1.0
143
1.0
 70
   688
 72
     0
 73
     0
 74
     5
  7

 75
    16
147
1.0
 76
     0
 77
     2
 78
   300
148
0.0
149
0.0
100
AcDbLayout
  1
Layout1
 70
     1
 71
     1
 10
0.0
 20
0.0
 11
12.0
 21
9.0
 12
0.0
 22
0.0
 32
0.0
 14
1.000000000000000E+20
 24
1.000000000000000E+20
 34
1.000000000000000E+20
 15
-1.000000000000000E+20
 25
-1.000000000000000E+20
 35
-1.000000000000000E+20
146
0.0
 13
0.0
 23
0.0
 33
0.0
 16
1.0
 26
0.0
 36
0.0
 17
0.0
 27
1.0
 37
0.0
 76
     0
330
6B
  0
LAYOUT
  5
72
102
{ACAD_REACTORS
330
61
102
}
330
61
100
AcDbPlotSettings
  1

  2
\\hpoffice\HP Photosmart Prem C410 series
  4

  6

 40
0.0
 41
0.0
 42
0.0
 43
0.0
 44
0.0
 45
0.0
 46
0.0
 47
0.0
 48
0.0
 49
0.0
140
0.0
141
0.0
142
1.0
143
1.0
 70
  1712
 72
     0
 73
     0
 74
     0
  7

 75
     0
147
1.0
 76
     0
 77
     2
 78
   300
148
0.0
149
0.0
100
AcDbLayout
  1
Model
 70
     1
 71
     0
 10
0.0
 20
0.0
 11
12.0
 21
9.0
 12
0.0
 22
0.0
 32
0.0
 14
0.0
 24
0.0
 34
0.0
 15
0.0
 25
0.0
 35
0.0
146
0.0
 13
0.0
 23
0.0
 33
0.0
 16
1.0
 26
0.0
 36
0.0
 17
0.0
 27
1.0
 37
0.0
 76
     0
330
6F
331
7B
  0
MATERIAL
  5
19
102
{ACAD_XDICTIONARY
360
1A
102
}
102
{ACAD_REACTORS
330
10
102
}
330
10
100
AcDbMaterial
  1
ByBlock
 72
     0
 43
0.0208333333333333
 43
0.0
 43
0.0
 43
0.0
 43
0.0
 43
0.0208333333333333
 43
0.0
 43
0.0
 43
0.0
 43
0.0
 43
1.0
 43
0.0
 43
0.0
 43
0.0
 43
0.0
 43
1.0
 77
     0
 47
0.0208333333333333
 47
0.0
 47
0.0
 47
0.0
 47
0.0
 47
0.0208333333333333
 47
0.0
 47
0.0
 47
0.0
 47
0.0
 47
1.0
 47
0.0
 47
0.0
 47
0.0
 47
0.0
 47
1.0
171
     0
 49
0.0208333333333333
 49
0.0
 49
0.0
 49
0.0
 49
0.0
 49
0.0208333333333333
 49
0.0
 49
0.0
 49
0.0
 49
0.0
 49
1.0
 49
0.0
 49
0.0
 49
0.0
 49
0.0
 49
1.0
175
     0
142
0.0208333333333333
142
0.0
142
0.0
142
0.0
142
0.0
142
0.0208333333333333
142
0.0
142
0.0
142
0.0
142
0.0
142
1.0
142
0.0
142
0.0
142
0.0
142
0.0
142
1.0
179
     0
144
0.0208333333333333
144
0.0
144
0.0
144
0.0
144
0.0
144
0.0208333333333333
144
0.0
144
0.0
144
0.0
144
0.0
144
1.0
144
0.0
144
0.0
144
0.0
144
0.0
144
1.0
147
0.0208333333333333
147
0.0
147
0.0
147
0.0
147
0.0
147
0.0208333333333333
147
0.0
147
0.0
147
0.0
147
0.0
147
1.0
147
0.0
147
0.0
147
0.0
147
0.0
147
1.0
  0
MATERIAL
  5
11
102
{ACAD_XDICTIONARY
360
12
102
}
102
{ACAD_REACTORS
330
10
102
}
330
10
100
AcDbMaterial
  1
ByLayer
 72
     0
 43
0.0208333333333333
 43
0.0
 43
0.0
 43
0.0
 43
0.0
 43
0.0208333333333333
 43
0.0
 43
0.0
 43
0.0
 43
0.0
 43
1.0
 43
0.0
 43
0.0
 43
0.0
 43
0.0
 43
1.0
 77
     0
 47
0.0208333333333333
 47
0.0
 47
0.0
 47
0.0
 47
0.0
 47
0.0208333333333333
 47
0.0
 47
0.0
 47
0.0
 47
0.0
 47
1.0
 47
0.0
 47
0.0
 47
0.0
 47
0.0
 47
1.0
171
     0
 49
0.0208333333333333
 49
0.0
 49
0.0
 49
0.0
 49
0.0
 49
0.0208333333333333
 49
0.0
 49
0.0
 49
0.0
 49
0.0
 49
1.0
 49
0.0
 49
0.0
 49
0.0
 49
0.0
 49
1.0
175
     0
142
0.0208333333333333
142
0.0
142
0.0
142
0.0
142
0.0
142
0.0208333333333333
142
0.0
142
0.0
142
0.0
142
0.0
142
1.0
142
0.0
142
0.0
142
0.0
142
0.0
142
1.0
179
     0
144
0.0208333333333333
144
0.0
144
0.0
144
0.0
144
0.0
144
0.0208333333333333
144
0.0
144
0.0
144
0.0
144
0.0
144
1.0
144
0.0
144
0.0
144
0.0
144
0.0
144
1.0
147
0.0208333333333333
147
0.0
147
0.0
147
0.0
147
0.0
147
0.0208333333333333
147
0.0
147
0.0
147
0.0
147
0.0
147
1.0
147
0.0
147
0.0
147
0.0
147
0.0
147
1.0
  0
MATERIAL
  5
21
102
{ACAD_XDICTIONARY
360
22
102
}
102
{ACAD_REACTORS
330
10
102
}
330
10
100
AcDbMaterial
  1
Global
 72
     0
 43
0.0208333333333333
 43
0.0
 43
0.0
 43
0.0
 43
0.0
 43
0.0208333333333333
 43
0.0
 43
0.0
 43
0.0
 43
0.0
 43
1.0
 43
0.0
 43
0.0
 43
0.0
 43
0.0
 43
1.0
 77
     0
 47
0.0208333333333333
 47
0.0
 47
0.0
 47
0.0
 47
0.0
 47
0.0208333333333333
 47
0.0
 47
0.0
 47
0.0
 47
0.0
 47
1.0
 47
0.0
 47
0.0
 47
0.0
 47
0.0
 47
1.0
171
     0
 49
0.0208333333333333
 49
0.0
 49
0.0
 49
0.0
 49
0.0
 49
0.0208333333333333
 49
0.0
 49
0.0
 49
0.0
 49
0.0
 49
1.0
 49
0.0
 49
0.0
 49
0.0
 49
0.0
 49
1.0
175
     0
142
0.0208333333333333
142
0.0
142
0.0
142
0.0
142
0.0
142
0.0208333333333333
142
0.0
142
0.0
142
0.0
142
0.0
142
1.0
142
0.0
142
0.0
142
0.0
142
0.0
142
1.0
179
     0
144
0.0208333333333333
144
0.0
144
0.0
144
0.0
144
0.0
144
0.0208333333333333
144
0.0
144
0.0
144
0.0
144
0.0
144
1.0
144
0.0
144
0.0
144
0.0
144
0.0
144
1.0
147
0.0208333333333333
147
0.0
147
0.0
147
0.0
147
0.0
147
0.0208333333333333
147
0.0
147
0.0
147
0.0
147
0.0
147
1.0
147
0.0
147
0.0
147
0.0
147
0.0
147
1.0
  0
MLEADERSTYLE
  5
66
102
{ACAD_REACTORS
330
65
102
}
330
65
100
AcDbMLeaderStyle
179
     2
170
     2
171
     1
172
     0
 90
        2
 40
0.0
 41
0.0
173
     1
 91
-1056964608
340
5A
 92
       -2
290
     1
 42
0.09
291
     1
 43
0.36
  3
Standard
 44
0.18
300

342
55
174
     1
178
     6
175
     1
176
     0
 93
-1056964608
 45
0.18
292
     0
297
     0
 46
0.18
 94
-1056964608
 47
1.0
 49
1.0
140
1.0
293
     1
141
0.0
294
     1
177
     0
142
1.0
295
     0
296
     0
143
0.125
271
     0
272
     9
273
     9
298
     0
  0
MLINESTYLE
  5
5F
102
{ACAD_REACTORS
330
5E
102
}
330
5E
100
AcDbMlineStyle
  2
STANDARD
 70
     0
  3

 62
   256
 51
90.0
 52
90.0
 71
     2
 49
0.5
 62
   256
  6
BYLAYER
 49
-0.5
 62
   256
  6
BYLAYER
  0
ACDBPLACEHOLDER
  5
F
102
{ACAD_REACTORS
330
E
102
}
330
E
  0
SCALE
  5
43
102
{ACAD_REACTORS
330
42
102
}
330
42
100
AcDbScale
 70
     0
300
1:1
140
1.0
141
1.0
290
     1
  0
SCALE
  5
44
102
{ACAD_REACTORS
330
42
102
}
330
42
100
AcDbScale
 70
     0
300
1/128" = 1'-0"
140
0.0078125
141
12.0
290
     0
  0
SCALE
  5
45
102
{ACAD_REACTORS
330
42
102
}
330
42
100
AcDbScale
 70
     0
300
1/64" = 1'-0"
140
0.015625
141
12.0
290
     0
  0
SCALE
  5
46
102
{ACAD_REACTORS
330
42
102
}
330
42
100
AcDbScale
 70
     0
300
1/32" = 1'-0"
140
0.03125
141
12.0
290
     0
  0
SCALE
  5
47
102
{ACAD_REACTORS
330
42
102
}
330
42
100
AcDbScale
 70
     0
300
1/16" = 1'-0"
140
0.0625
141
12.0
290
     0
  0
SCALE
  5
48
102
{ACAD_REACTORS
330
42
102
}
330
42
100
AcDbScale
 70
     0
300
3/32" = 1'-0"
140
0.09375
141
12.0
290
     0
  0
SCALE
  5
49
102
{ACAD_REACTORS
330
42
102
}
330
42
100
AcDbScale
 70
     0
300
1/8" = 1'-0"
140
0.125
141
12.0
290
     0
  0
SCALE
  5
4A
102
{ACAD_REACTORS
330
42
102
}
330
42
100
AcDbScale
 70
     0
300
3/16" = 1'-0"
140
0.1875
141
12.0
290
     0
  0
SCALE
  5
4B
102
{ACAD_REACTORS
330
42
102
}
330
42
100
AcDbScale
 70
     0
300
1/4" = 1'-0"
140
0.25
141
12.0
290
     0
  0
SCALE
  5
4C
102
{ACAD_REACTORS
330
42
102
}
330
42
100
AcDbScale
 70
     0
300
3/8" = 1'-0"
140
0.375
141
12.0
290
     0
  0
SCALE
  5
4D
102
{ACAD_REACTORS
330
42
102
}
330
42
100
AcDbScale
 70
     0
300
1/2" = 1'-0"
140
0.5
141
12.0
290
     0
  0
SCALE
  5
4E
102
{ACAD_REACTORS
330
42
102
}
330
42
100
AcDbScale
 70
     0
300
3/4" = 1'-0"
140
0.75
141
12.0
290
     0
  0
SCALE
  5
4F
102
{ACAD_REACTORS
330
42
102
}
330
42
100
AcDbScale
 70
     0
300
1" = 1'-0"
140
1.0
141
12.0
290
     0
  0
SCALE
  5
50
102
{ACAD_REACTORS
330
42
102
}
330
42
100
AcDbScale
 70
     0
300
1-1/2" = 1'-0"
140
1.5
141
12.0
290
     0
  0
SCALE
  5
51
102
{ACAD_REACTORS
330
42
102
}
330
42
100
AcDbScale
 70
     0
300
3" = 1'-0"
140
3.0
141
12.0
290
     0
  0
SCALE
  5
52
102
{ACAD_REACTORS
330
42
102
}
330
42
100
AcDbScale
 70
     0
300
6" = 1'-0"
140
6.0
141
12.0
290
     0
  0
SCALE
  5
53
102
{ACAD_REACTORS
330
42
102
}
330
42
100
AcDbScale
 70
     0
300
1'-0" = 1'-0"
140
12.0
141
12.0
290
     0
  0
ACDBSECTIONVIEWSTYLE
  5
68
102
{ACAD_REACTORS
330
67
102
}
330
67
100
AcDbModelDocViewStyle
 70
     0
  3
Imperial24
290
     0
300
Imperial24
 90
        0
100
AcDbSectionViewStyle
 70
     0
 71
     0
 90
       78
 71
     1
340
55
 62
   256
 40
0.24
340
0
340
0
 62
   256
 40
0.24
300
I, O, Q, S, X, Z
 40
0.48
 90
        3
 40
0.18
 90
        1
 71
     2
340
5C
 90
       25
 62
   256
340
5C
 90
       50
 62
   256
 40
0.24
 40
0.0
 40
0.24
 71
     3
340
55
 62
   256
 40
0.24
 90
        1
 40
0.75
 90
        1
300
%<\AcVar ViewType \f "%tc1">% %<\AcVar ViewSectionStartId>%-%<\AcVar ViewSectionEndId>%\PSCALE %<\AcVar ViewScale \f "%sn">%
 71
     4
 62
   256
 62
   257
300
ANSI31
 40
1.0
 90
        0
290
     0
290
     0
 90
        6
 40
0.0
 40
1.570796326794896
 40
0.2617993877991494
 40
1.308996938995747
 40
-0.2617993877991494
 40
1.832595714594044
  0
TABLESTYLE
  5
64
102
{ACAD_XDICTIONARY
360
1AC5
102
}
102
{ACAD_REACTORS
330
63
102
}
330
63
100
AcDbTableStyle
280
     0
  3
Standard
 70
     0
 71
     0
 40
0.06
 41
0.06
280
     0
281
     0
  7
STANDARD
140
0.18
170
     2
 62
     0
 63
     7
283
     0
 90
      512
 91
        0
  1

274
    -2
284
     1
 64
     0
275
    -2
285
     1
 65
     0
276
    -2
286
     1
 66
     0
277
    -2
287
     1
 67
     0
278
    -2
288
     1
 68
     0
279
    -2
289
     1
 69
     0
  7
STANDARD
140
0.25
170
     5
 62
     0
 63
     7
283
     0
 90
      512
 91
        0
  1

274
    -2
284
     1
 64
     0
275
    -2
285
     1
 65
     0
276
    -2
286
     1
 66
     0
277
    -2
287
     1
 67
     0
278
    -2
288
     1
 68
     0
279
    -2
289
     1
 69
     0
  7
STANDARD
140
0.18
170
     5
 62
     0
 63
     7
283
     0
 90
      512
 91
        0
  1

274
    -2
284
     1
 64
     0
275
    -2
285
     1
 65
     0
276
    -2
286
     1
 66
     0
277
    -2
287
     1
 67
     0
278
    -2
288
     1
 68
     0
279
    -2
289
     1
 69
     0
  0
VISUALSTYLE
  5
2F
102
{ACAD_REACTORS
330
29
102
}
330
29
100
AcDbVisualStyle
  2
2dWireframe
 70
     4
177
     3
291
     0
 70
    58
 90
        0
176
     1
 90
        2
176
     1
 90
        0
176
     1
 90
        0
176
     1
 40
0.6
176
     1
 40
30.0
176
     1
 62
     7
420
 16777215
176
     1
 90
        1
176
     1
 90
        4
176
     1
 62
     7
176
     1
 62
   257
176
     1
 90
        1
176
     1
 90
        1
176
     1
 40
1.0
176
     1
 90
        0
176
     1
 62
   257
176
     1
 40
1.0
176
     1
 90
        1
176
     1
 90
        6
176
     1
 90
        2
176
     1
 62
     7
176
     1
 90
        5
176
     1
 90
        0
176
     1
 90
        0
176
     1
290
     0
176
     1
 90
        1
176
     1
 40
0.0
176
     1
 90
        0
176
     1
290
     1
176
     1
290
     1
176
     1
290
     0
176
     1
290
     0
176
     1
290
     0
176
     1
290
     0
176
     1
290
     0
176
     1
290
     0
176
     1
290
     0
176
     1
 90
       50
176
     1
 40
0.0
176
     1
 40
1.0
176
     1
 90
        0
176
     1
 62
    18
176
     1
 90
       50
176
     1
 90
        3
176
     1
 62
     5
420
      255
176
     1
290
     0
176
     1
 90
       50
176
     1
 90
       50
176
     1
 90
       50
176
     1
290
     0
176
     1
 90
       50
176
     1
 62
   256
176
     0
 40
1.0
176
     0
 90
        2
176
     1
  1
strokes_ogs.tif
176
     1
290
     0
176
     1
 40
1.0
176
     1
 40
1.0
176
     1
  0
VISUALSTYLE
  5
2E
102
{ACAD_REACTORS
330
29
102
}
330
29
100
AcDbVisualStyle
  2
Basic
 70
     7
177
     3
291
     1
 70
    58
 90
        1
176
     1
 90
        0
176
     1
 90
        1
176
     1
 90
        0
176
     1
 40
0.6
176
     1
 40
30.0
176
     1
 62
     7
420
 16777215
176
     1
 90
        0
176
     1
 90
        4
176
     1
 62
     7
176
     1
 62
   257
176
     1
 90
        1
176
     1
 90
        1
176
     1
 40
1.0
176
     1
 90
        8
176
     1
 62
     7
176
     1
 40
1.0
176
     1
 90
        1
176
     1
 90
        6
176
     1
 90
        2
176
     1
 62
     7
176
     1
 90
        5
176
     1
 90
        0
176
     1
 90
        0
176
     1
290
     0
176
     1
 90
        1
176
     1
 40
0.0
176
     1
 90
        0
176
     1
290
     0
176
     1
290
     1
176
     1
290
     1
176
     1
290
     0
176
     1
290
     0
176
     1
290
     0
176
     1
290
     0
176
     1
290
     0
176
     1
290
     0
176
     1
 90
       50
176
     1
 40
0.0
176
     1
 40
1.0
176
     1
 90
        0
176
     1
 62
    18
176
     1
 90
       50
176
     1
 90
        3
176
     1
 62
     5
420
      255
176
     1
290
     0
176
     1
 90
       50
176
     1
 90
       50
176
     1
 90
       50
176
     1
290
     0
176
     1
 90
       50
176
     1
 62
   256
176
     0
 40
1.0
176
     0
 90
        2
176
     1
  1
strokes_ogs.tif
176
     1
290
     0
176
     1
 40
1.0
176
     1
 40
1.0
176
     1
  0
VISUALSTYLE
  5
35
102
{ACAD_REACTORS
330
29
102
}
330
29
100
AcDbVisualStyle
  2
Brighten
 70
    12
177
     3
291
     1
 70
    58
 90
        2
176
     1
 90
        2
176
     1
 90
        0
176
     1
 90
        0
176
     1
 40
0.6
176
     1
 40
30.0
176
     1
 62
     7
420
 16777215
176
     1
 90
        1
176
     1
 90
        4
176
     1
 62
     7
176
     1
 62
   257
176
     1
 90
        1
176
     1
 90
        1
176
     1
 40
1.0
176
     1
 90
        8
176
     1
 62
     7
176
     1
 40
1.0
176
     1
 90
        1
176
     1
 90
        6
176
     1
 90
        2
176
     1
 62
     7
176
     1
 90
        5
176
     1
 90
        0
176
     1
 90
        0
176
     1
290
     0
176
     1
 90
        1
176
     1
 40
50.0
176
     1
 90
        0
176
     1
290
     0
176
     1
290
     1
176
     1
290
     1
176
     1
290
     0
176
     1
290
     0
176
     1
290
     0
176
     1
290
     0
176
     1
290
     0
176
     1
290
     0
176
     1
 90
       50
176
     1
 40
0.0
176
     1
 40
1.0
176
     1
 90
        0
176
     1
 62
    18
176
     1
 90
       50
176
     1
 90
        3
176
     1
 62
     5
420
      255
176
     1
290
     0
176
     1
 90
       50
176
     1
 90
       50
176
     1
 90
       50
176
     1
290
     0
176
     1
 90
       50
176
     1
 62
   256
176
     0
 40
1.0
176
     0
 90
        2
176
     1
  1
strokes_ogs.tif
176
     1
290
     0
176
     1
 40
1.0
176
     1
 40
1.0
176
     1
  0
VISUALSTYLE
  5
39
102
{ACAD_REACTORS
330
29
102
}
330
29
100
AcDbVisualStyle
  2
ColorChange
 70
    16
177
     3
291
     1
 70
    58
 90
        2
176
     1
 90
        2
176
     1
 90
        3
176
     1
 90
        0
176
     1
 40
0.6
176
     1
 40
30.0
176
     1
 62
     8
420
  8421504
176
     1
 90
        1
176
     1
 90
        4
176
     1
 62
     7
176
     1
 62
   257
176
     1
 90
        1
176
     1
 90
        1
176
     1
 40
1.0
176
     1
 90
        8
176
     1
 62
     8
420
  8421504
176
     1
 40
1.0
176
     1
 90
        1
176
     1
 90
        6
176
     1
 90
        2
176
     1
 62
     7
176
     1
 90
        5
176
     1
 90
        0
176
     1
 90
        0
176
     1
290
     0
176
     1
 90
        1
176
     1
 40
0.0
176
     1
 90
        0
176
     1
290
     0
176
     1
290
     1
176
     1
290
     1
176
     1
290
     0
176
     1
290
     0
176
     1
290
     0
176
     1
290
     0
176
     1
290
     0
176
     1
290
     0
176
     1
 90
       50
176
     1
 40
0.0
176
     1
 40
1.0
176
     1
 90
        0
176
     1
 62
    18
176
     1
 90
       50
176
     1
 90
        3
176
     1
 62
     5
420
      255
176
     1
290
     0
176
     1
 90
       50
176
     1
 90
       50
176
     1
 90
       50
176
     1
290
     0
176
     1
 90
       50
176
     1
 62
   256
176
     0
 40
1.0
176
     0
 90
        2
176
     1
  1
strokes_ogs.tif
176
     1
290
     0
176
     1
 40
1.0
176
     1
 40
1.0
176
     1
  0
VISUALSTYLE
  5
32
102
{ACAD_REACTORS
330
29
102
}
330
29
100
AcDbVisualStyle
  2
Conceptual
 70
     9
177
     3
291
     0
 70
    58
 90
        3
176
     1
 90
        2
176
     1
 90
        0
176
     1
 90
        0
176
     1
 40
0.6
176
     1
 40
30.0
176
     1
 62
     7
420
 16777215
176
     1
 90
        2
176
     1
 90
        2
176
     1
 62
     7
176
     1
 62
   257
176
     1
 90
        1
176
     1
 90
        1
176
     1
 40
179.0
176
     1
 90
        8
176
     1
 62
     7
176
     1
 40
1.0
176
     1
 90
        1
176
     1
 90
        6
176
     1
 90
        2
176
     1
 62
     7
176
     1
 90
        3
176
     1
 90
        0
176
     1
 90
        0
176
     1
290
     0
176
     1
 90
        1
176
     1
 40
0.0
176
     1
 90
        0
176
     1
290
     0
176
     1
290
     1
176
     1
290
     1
176
     1
290
     0
176
     1
290
     0
176
     1
290
     0
176
     1
290
     0
176
     1
290
     0
176
     1
290
     0
176
     1
 90
       50
176
     1
 40
0.0
176
     1
 40
1.0
176
     1
 90
        0
176
     1
 62
    18
176
     1
 90
       50
176
     1
 90
        3
176
     1
 62
     5
420
      255
176
     1
290
     0
176
     1
 90
       50
176
     1
 90
       50
176
     1
 90
       50
176
     1
290
     0
176
     1
 90
       50
176
     1
 62
   256
176
     0
 40
1.0
176
     0
 90
        2
176
     1
  1
strokes_ogs.tif
176
     1
290
     0
176
     1
 40
1.0
176
     1
 40
1.0
176
     1
  0
VISUALSTYLE
  5
34
102
{ACAD_REACTORS
330
29
102
}
330
29
100
AcDbVisualStyle
  2
Dim
 70
    11
177
     3
291
     1
 70
    58
 90
        2
176
     1
 90
        2
176
     1
 90
        0
176
     1
 90
        0
176
     1
 40
0.6
176
     1
 40
30.0
176
     1
 62
     7
420
 16777215
176
     1
 90
        1
176
     1
 90
        4
176
     1
 62
     7
176
     1
 62
   257
176
     1
 90
        1
176
     1
 90
        1
176
     1
 40
1.0
176
     1
 90
        8
176
     1
 62
     7
176
     1
 40
1.0
176
     1
 90
        1
176
     1
 90
        6
176
     1
 90
        2
176
     1
 62
     7
176
     1
 90
        5
176
     1
 90
        0
176
     1
 90
        0
176
     1
290
     0
176
     1
 90
        1
176
     1
 40
-50.0
176
     1
 90
        0
176
     1
290
     0
176
     1
290
     1
176
     1
290
     1
176
     1
290
     0
176
     1
290
     0
176
     1
290
     0
176
     1
290
     0
176
     1
290
     0
176
     1
290
     0
176
     1
 90
       50
176
     1
 40
0.0
176
     1
 40
1.0
176
     1
 90
        0
176
     1
 62
    18
176
     1
 90
       50
176
     1
 90
        3
176
     1
 62
     5
420
      255
176
     1
290
     0
176
     1
 90
       50
176
     1
 90
       50
176
     1
 90
       50
176
     1
290
     0
176
     1
 90
       50
176
     1
 62
   256
176
     0
 40
1.0
176
     0
 90
        2
176
     1
  1
strokes_ogs.tif
176
     1
290
     0
176
     1
 40
1.0
176
     1
 40
1.0
176
     1
  0
VISUALSTYLE
  5
41
102
{ACAD_REACTORS
330
29
102
}
330
29
100
AcDbVisualStyle
  2
EdgeColorOff
 70
    22
177
     3
291
     1
 70
    58
 90
        2
176
     0
 90
        2
176
     0
 90
        0
176
     0
 90
        0
176
     0
 40
0.6
176
     0
 40
30.0
176
     0
 62
     7
420
 16777215
176
     0
 90
        1
176
     0
 90
        4
176
     0
 62
     7
176
     0
 62
   257
176
     0
 90
        1
176
     0
 90
        1
176
     0
 40
1.0
176
     0
 90
        8
176
     2
 62
     7
176
     0
 40
1.0
176
     0
 90
        1
176
     0
 90
        6
176
     0
 90
        2
176
     0
 62
     7
176
     0
 90
        5
176
     0
 90
        0
176
     0
 90
        0
176
     0
290
     0
176
     0
 90
        1
176
     0
 40
0.0
176
     0
 90
        0
176
     0
290
     0
176
     1
290
     1
176
     1
290
     1
176
     1
290
     0
176
     1
290
     0
176
     1
290
     0
176
     1
290
     0
176
     1
290
     0
176
     1
290
     0
176
     1
 90
       50
176
     0
 40
0.0
176
     0
 40
1.0
176
     0
 90
        0
176
     0
 62
    18
176
     0
 90
       50
176
     0
 90
        3
176
     0
 62
     5
420
      255
176
     0
290
     0
176
     1
 90
       50
176
     0
 90
       50
176
     0
 90
       50
176
     0
290
     0
176
     1
 90
       50
176
     0
 62
   256
176
     0
 40
1.0
176
     0
 90
        2
176
     0
  1
strokes_ogs.tif
176
     0
290
     0
176
     1
 40
1.0
176
     0
 40
1.0
176
     0
  0
VISUALSTYLE
  5
38
102
{ACAD_REACTORS
330
29
102
}
330
29
100
AcDbVisualStyle
  2
Facepattern
 70
    15
177
     3
291
     1
 70
    58
 90
        2
176
     1
 90
        2
176
     1
 90
        0
176
     1
 90
        0
176
     1
 40
0.6
176
     1
 40
30.0
176
     1
 62
     7
420
 16777215
176
     1
 90
        1
176
     1
 90
        4
176
     1
 62
     7
176
     1
 62
   257
176
     1
 90
        1
176
     1
 90
        1
176
     1
 40
1.0
176
     1
 90
        8
176
     1
 62
     7
176
     1
 40
1.0
176
     1
 90
        1
176
     1
 90
        6
176
     1
 90
        2
176
     1
 62
     7
176
     1
 90
        5
176
     1
 90
        0
176
     1
 90
        0
176
     1
290
     0
176
     1
 90
        1
176
     1
 40
0.0
176
     1
 90
        0
176
     1
290
     0
176
     1
290
     1
176
     1
290
     1
176
     1
290
     0
176
     1
290
     0
176
     1
290
     0
176
     1
290
     0
176
     1
290
     0
176
     1
290
     0
176
     1
 90
       50
176
     1
 40
0.0
176
     1
 40
1.0
176
     1
 90
        0
176
     1
 62
    18
176
     1
 90
       50
176
     1
 90
        3
176
     1
 62
     5
420
      255
176
     1
290
     0
176
     1
 90
       50
176
     1
 90
       50
176
     1
 90
       50
176
     1
290
     0
176
     1
 90
       50
176
     1
 62
   256
176
     0
 40
1.0
176
     0
 90
        2
176
     1
  1
strokes_ogs.tif
176
     1
290
     0
176
     1
 40
1.0
176
     1
 40
1.0
176
     1
  0
VISUALSTYLE
  5
2A
102
{ACAD_REACTORS
330
29
102
}
330
29
100
AcDbVisualStyle
  2
Flat
 70
     0
177
     3
291
     1
 70
    58
 90
        2
176
     1
 90
        1
176
     1
 90
        1
176
     1
 90
        2
176
     1
 40
0.6
176
     1
 40
30.0
176
     1
 62
     7
420
 16777215
176
     1
 90
        0
176
     1
 90
        0
176
     1
 62
     7
176
     1
 62
   257
176
     1
 90
        1
176
     1
 90
        1
176
     1
 40
1.0
176
     1
 90
        8
176
     1
 62
     7
176
     1
 40
1.0
176
     1
 90
        1
176
     1
 90
        6
176
     1
 90
        2
176
     1
 62
     7
176
     1
 90
        5
176
     1
 90
        0
176
     1
 90
        0
176
     1
290
     0
176
     1
 90
       13
176
     1
 40
0.0
176
     1
 90
        0
176
     1
290
     0
176
     1
290
     1
176
     1
290
     1
176
     1
290
     0
176
     1
290
     0
176
     1
290
     0
176
     1
290
     0
176
     1
290
     0
176
     1
290
     0
176
     1
 90
       50
176
     1
 40
0.0
176
     1
 40
1.0
176
     1
 90
        0
176
     1
 62
    18
176
     1
 90
       50
176
     1
 90
        3
176
     1
 62
     5
420
      255
176
     1
290
     0
176
     1
 90
       50
176
     1
 90
       50
176
     1
 90
       50
176
     1
290
     0
176
     1
 90
       50
176
     1
 62
   256
176
     0
 40
1.0
176
     0
 90
        2
176
     1
  1
strokes_ogs.tif
176
     1
290
     0
176
     1
 40
1.0
176
     1
 40
1.0
176
     1
  0
VISUALSTYLE
  5
2B
102
{ACAD_REACTORS
330
29
102
}
330
29
100
AcDbVisualStyle
  2
FlatWithEdges
 70
     1
177
     3
291
     1
 70
    58
 90
        2
176
     1
 90
        1
176
     1
 90
        1
176
     1
 90
        2
176
     1
 40
0.6
176
     1
 40
30.0
176
     1
 62
     7
420
 16777215
176
     1
 90
        1
176
     1
 90
        0
176
     1
 62
     7
176
     1
 62
   257
176
     1
 90
        1
176
     1
 90
        1
176
     1
 40
1.0
176
     1
 90
        0
176
     1
 62
   257
176
     1
 40
1.0
176
     1
 90
        1
176
     1
 90
        6
176
     1
 90
        2
176
     1
 62
     7
176
     1
 90
        5
176
     1
 90
        0
176
     1
 90
        0
176
     1
290
     0
176
     1
 90
       13
176
     1
 40
0.0
176
     1
 90
        0
176
     1
290
     0
176
     1
290
     1
176
     1
290
     1
176
     1
290
     0
176
     1
290
     0
176
     1
290
     0
176
     1
290
     0
176
     1
290
     0
176
     1
290
     0
176
     1
 90
       50
176
     1
 40
0.0
176
     1
 40
1.0
176
     1
 90
        0
176
     1
 62
    18
176
     1
 90
       50
176
     1
 90
        3
176
     1
 62
     5
420
      255
176
     1
290
     0
176
     1
 90
       50
176
     1
 90
       50
176
     1
 90
       50
176
     1
290
     0
176
     1
 90
       50
176
     1
 62
   256
176
     0
 40
1.0
176
     0
 90
        2
176
     1
  1
strokes_ogs.tif
176
     1
290
     0
176
     1
 40
1.0
176
     1
 40
1.0
176
     1
  0
VISUALSTYLE
  5
2C
102
{ACAD_REACTORS
330
29
102
}
330
29
100
AcDbVisualStyle
  2
Gouraud
 70
     2
177
     3
291
     1
 70
    58
 90
        2
176
     1
 90
        2
176
     1
 90
        1
176
     1
 90
        2
176
     1
 40
0.6
176
     1
 40
30.0
176
     1
 62
     7
420
 16777215
176
     1
 90
        0
176
     1
 90
        0
176
     1
 62
     7
176
     1
 62
   257
176
     1
 90
        1
176
     1
 90
        1
176
     1
 40
1.0
176
     1
 90
        0
176
     1
 62
     7
176
     1
 40
1.0
176
     1
 90
        1
176
     1
 90
        6
176
     1
 90
        2
176
     1
 62
     7
176
     1
 90
        5
176
     1
 90
        0
176
     1
 90
        0
176
     1
290
     0
176
     1
 90
       13
176
     1
 40
0.0
176
     1
 90
        0
176
     1
290
     0
176
     1
290
     1
176
     1
290
     1
176
     1
290
     0
176
     1
290
     0
176
     1
290
     0
176
     1
290
     0
176
     1
290
     0
176
     1
290
     0
176
     1
 90
       50
176
     1
 40
0.0
176
     1
 40
1.0
176
     1
 90
        0
176
     1
 62
    18
176
     1
 90
       50
176
     1
 90
        3
176
     1
 62
     5
420
      255
176
     1
290
     0
176
     1
 90
       50
176
     1
 90
       50
176
     1
 90
       50
176
     1
290
     0
176
     1
 90
       50
176
     1
 62
   256
176
     0
 40
1.0
176
     0
 90
        2
176
     1
  1
strokes_ogs.tif
176
     1
290
     0
176
     1
 40
1.0
176
     1
 40
1.0
176
     1
  0
VISUALSTYLE
  5
2D
102
{ACAD_REACTORS
330
29
102
}
330
29
100
AcDbVisualStyle
  2
GouraudWithEdges
 70
     3
177
     3
291
     1
 70
    58
 90
        2
176
     1
 90
        2
176
     1
 90
        1
176
     1
 90
        2
176
     1
 40
0.6
176
     1
 40
30.0
176
     1
 62
     7
420
 16777215
176
     1
 90
        1
176
     1
 90
        0
176
     1
 62
     7
176
     1
 62
   257
176
     1
 90
        1
176
     1
 90
        1
176
     1
 40
1.0
176
     1
 90
        0
176
     1
 62
   257
176
     1
 40
1.0
176
     1
 90
        1
176
     1
 90
        6
176
     1
 90
        2
176
     1
 62
     7
176
     1
 90
        5
176
     1
 90
        0
176
     1
 90
        0
176
     1
290
     0
176
     1
 90
       13
176
     1
 40
0.0
176
     1
 90
        0
176
     1
290
     0
176
     1
290
     1
176
     1
290
     1
176
     1
290
     0
176
     1
290
     0
176
     1
290
     0
176
     1
290
     0
176
     1
290
     0
176
     1
290
     0
176
     1
 90
       50
176
     1
 40
0.0
176
     1
 40
1.0
176
     1
 90
        0
176
     1
 62
    18
176
     1
 90
       50
176
     1
 90
        3
176
     1
 62
     5
420
      255
176
     1
290
     0
176
     1
 90
       50
176
     1
 90
       50
176
     1
 90
       50
176
     1
290
     0
176
     1
 90
       50
176
     1
 62
   256
176
     0
 40
1.0
176
     0
 90
        2
176
     1
  1
strokes_ogs.tif
176
     1
290
     0
176
     1
 40
1.0
176
     1
 40
1.0
176
     1
  0
VISUALSTYLE
  5
31
102
{ACAD_REACTORS
330
29
102
}
330
29
100
AcDbVisualStyle
  2
Hidden
 70
     6
177
     3
291
     0
 70
    58
 90
        1
176
     1
 90
        2
176
     1
 90
        2
176
     1
 90
        0
176
     1
 40
0.6
176
     1
 40
30.0
176
     1
 62
     7
420
 16777215
176
     1
 90
        2
176
     1
 90
        2
176
     1
 62
     7
176
     1
 62
   257
176
     1
 90
        2
176
     1
 90
        1
176
     1
 40
40.0
176
     1
 90
        0
176
     1
 62
   257
176
     1
 40
1.0
176
     1
 90
        1
176
     1
 90
        6
176
     1
 90
        2
176
     1
 62
     7
176
     1
 90
        3
176
     1
 90
        0
176
     1
 90
        0
176
     1
290
     0
176
     1
 90
        1
176
     1
 40
0.0
176
     1
 90
        0
176
     1
290
     0
176
     1
290
     1
176
     1
290
     1
176
     1
290
     0
176
     1
290
     0
176
     1
290
     0
176
     1
290
     0
176
     1
290
     0
176
     1
290
     0
176
     1
 90
       50
176
     1
 40
0.0
176
     1
 40
1.0
176
     1
 90
        0
176
     1
 62
    18
176
     1
 90
       50
176
     1
 90
        3
176
     1
 62
     5
420
      255
176
     1
290
     0
176
     1
 90
       50
176
     1
 90
       50
176
     1
 90
       50
176
     1
290
     0
176
     1
 90
       50
176
     1
 62
   256
176
     0
 40
1.0
176
     0
 90
        2
176
     1
  1
strokes_ogs.tif
176
     1
290
     0
176
     1
 40
1.0
176
     1
 40
1.0
176
     1
  0
VISUALSTYLE
  5
3F
102
{ACAD_REACTORS
330
29
102
}
330
29
100
AcDbVisualStyle
  2
JitterOff
 70
    20
177
     3
291
     1
 70
    58
 90
        2
176
     0
 90
        2
176
     0
 90
        0
176
     0
 90
        0
176
     0
 40
0.6
176
     0
 40
30.0
176
     0
 62
     7
420
 16777215
176
     0
 90
        1
176
     0
 90
        4
176
     0
 62
     7
176
     0
 62
   257
176
     0
 90
        1
176
     0
 90
        1
176
     0
 40
1.0
176
     0
 90
       10
176
     2
 62
     7
176
     0
 40
1.0
176
     0
 90
        1
176
     0
 90
        6
176
     0
 90
        2
176
     0
 62
     7
176
     0
 90
        5
176
     0
 90
        0
176
     0
 90
        0
176
     0
290
     0
176
     0
 90
        1
176
     0
 40
0.0
176
     0
 90
        0
176
     0
290
     0
176
     1
290
     1
176
     1
290
     1
176
     1
290
     0
176
     1
290
     0
176
     1
290
     0
176
     1
290
     0
176
     1
290
     0
176
     1
290
     0
176
     1
 90
       50
176
     0
 40
0.0
176
     0
 40
1.0
176
     0
 90
        0
176
     0
 62
    18
176
     0
 90
       50
176
     0
 90
        3
176
     0
 62
     5
420
      255
176
     0
290
     0
176
     1
 90
       50
176
     0
 90
       50
176
     0
 90
       50
176
     0
290
     0
176
     1
 90
       50
176
     0
 62
   256
176
     0
 40
1.0
176
     0
 90
        2
176
     0
  1
strokes_ogs.tif
176
     0
290
     0
176
     1
 40
1.0
176
     0
 40
1.0
176
     0
  0
VISUALSTYLE
  5
37
102
{ACAD_REACTORS
330
29
102
}
330
29
100
AcDbVisualStyle
  2
Linepattern
 70
    14
177
     3
291
     1
 70
    58
 90
        2
176
     1
 90
        2
176
     1
 90
        0
176
     1
 90
        0
176
     1
 40
0.6
176
     1
 40
30.0
176
     1
 62
     7
420
 16777215
176
     1
 90
        1
176
     1
 90
        4
176
     1
 62
     7
176
     1
 62
   257
176
     1
 90
        7
176
     1
 90
        7
176
     1
 40
1.0
176
     1
 90
        8
176
     1
 62
     7
176
     1
 40
1.0
176
     1
 90
        1
176
     1
 90
        6
176
     1
 90
        2
176
     1
 62
     7
176
     1
 90
        5
176
     1
 90
        0
176
     1
 90
        0
176
     1
290
     0
176
     1
 90
        1
176
     1
 40
0.0
176
     1
 90
        0
176
     1
290
     0
176
     1
290
     1
176
     1
290
     1
176
     1
290
     0
176
     1
290
     0
176
     1
290
     0
176
     1
290
     0
176
     1
290
     0
176
     1
290
     0
176
     1
 90
       50
176
     1
 40
0.0
176
     1
 40
1.0
176
     1
 90
        0
176
     1
 62
    18
176
     1
 90
       50
176
     1
 90
        3
176
     1
 62
     5
420
      255
176
     1
290
     0
176
     1
 90
       50
176
     1
 90
       50
176
     1
 90
       50
176
     1
290
     0
176
     1
 90
       50
176
     1
 62
   256
176
     0
 40
1.0
176
     0
 90
        2
176
     1
  1
strokes_ogs.tif
176
     1
290
     0
176
     1
 40
1.0
176
     1
 40
1.0
176
     1
  0
VISUALSTYLE
  5
40
102
{ACAD_REACTORS
330
29
102
}
330
29
100
AcDbVisualStyle
  2
OverhangOff
 70
    21
177
     3
291
     1
 70
    58
 90
        2
176
     0
 90
        2
176
     0
 90
        0
176
     0
 90
        0
176
     0
 40
0.6
176
     0
 40
30.0
176
     0
 62
     7
420
 16777215
176
     0
 90
        1
176
     0
 90
        4
176
     0
 62
     7
176
     0
 62
   257
176
     0
 90
        1
176
     0
 90
        1
176
     0
 40
1.0
176
     0
 90
        9
176
     2
 62
     7
176
     0
 40
1.0
176
     0
 90
        1
176
     0
 90
        6
176
     0
 90
        2
176
     0
 62
     7
176
     0
 90
        5
176
     0
 90
        0
176
     0
 90
        0
176
     0
290
     0
176
     0
 90
        1
176
     0
 40
0.0
176
     0
 90
        0
176
     0
290
     0
176
     1
290
     1
176
     1
290
     1
176
     1
290
     0
176
     1
290
     0
176
     1
290
     0
176
     1
290
     0
176
     1
290
     0
176
     1
290
     0
176
     1
 90
       50
176
     0
 40
0.0
176
     0
 40
1.0
176
     0
 90
        0
176
     0
 62
    18
176
     0
 90
       50
176
     0
 90
        3
176
     0
 62
     5
420
      255
176
     0
290
     0
176
     1
 90
       50
176
     0
 90
       50
176
     0
 90
       50
176
     0
290
     0
176
     1
 90
       50
176
     0
 62
   256
176
     0
 40
1.0
176
     0
 90
        2
176
     0
  1
strokes_ogs.tif
176
     0
290
     0
176
     1
 40
1.0
176
     0
 40
1.0
176
     0
  0
VISUALSTYLE
  5
33
102
{ACAD_REACTORS
330
29
102
}
330
29
100
AcDbVisualStyle
  2
Realistic
 70
     8
177
     3
291
     0
 70
    58
 90
        2
176
     1
 90
        3
176
     1
 90
        0
176
     1
 90
        2
176
     1
 40
0.6
176
     1
 40
30.0
176
     1
 62
     7
420
 16777215
176
     1
 90
        0
176
     1
 90
        0
176
     1
 62
     7
176
     1
 62
   257
176
     1
 90
        1
176
     1
 90
        1
176
     1
 40
1.0
176
     1
 90
        8
176
     1
 62
   257
176
     1
 40
1.0
176
     1
 90
        1
176
     1
 90
        6
176
     1
 90
        2
176
     1
 62
     7
176
     1
 90
        3
176
     1
 90
        0
176
     1
 90
        0
176
     1
290
     0
176
     1
 90
       13
176
     1
 40
0.0
176
     1
 90
        0
176
     1
290
     0
176
     1
290
     1
176
     1
290
     1
176
     1
290
     0
176
     1
290
     0
176
     1
290
     0
176
     1
290
     0
176
     1
290
     0
176
     1
290
     0
176
     1
 90
       50
176
     1
 40
0.0
176
     1
 40
1.0
176
     1
 90
        0
176
     1
 62
    18
176
     1
 90
       50
176
     1
 90
        3
176
     1
 62
     5
420
      255
176
     1
290
     0
176
     1
 90
       50
176
     1
 90
       50
176
     1
 90
       50
176
     1
290
     0
176
     1
 90
       50
176
     1
 62
   256
176
     0
 40
1.0
176
     0
 90
        2
176
     1
  1
strokes_ogs.tif
176
     1
290
     0
176
     1
 40
1.0
176
     1
 40
1.0
176
     1
  0
VISUALSTYLE
  5
3E
102
{ACAD_REACTORS
330
29
102
}
330
29
100
AcDbVisualStyle
  2
Shaded
 70
    27
177
     3
291
     0
 70
    58
 90
        2
176
     1
 90
        2
176
     1
 90
        1
176
     1
 90
        2
176
     1
 40
0.6
176
     1
 40
30.0
176
     1
 62
     7
420
 16777215
176
     1
 90
        0
176
     1
 90
        4
176
     1
 62
     7
176
     1
 62
   257
176
     1
 90
        1
176
     1
 90
        1
176
     1
 40
1.0
176
     1
 90
        8
176
     1
 62
   257
176
     1
 40
1.0
176
     1
 90
        1
176
     1
 90
        6
176
     1
 90
        2
176
     1
 62
     8
420
  7895160
176
     1
 90
        3
176
     1
 90
        0
176
     1
 90
        0
176
     1
290
     0
176
     1
 90
        5
176
     1
 40
0.0
176
     1
 90
        0
176
     1
290
     0
176
     1
290
     1
176
     1
290
     1
176
     1
290
     0
176
     1
290
     0
176
     1
290
     0
176
     1
290
     0
176
     1
290
     0
176
     1
290
     0
176
     1
 90
       50
176
     1
 40
0.0
176
     1
 40
1.0
176
     1
 90
        0
176
     1
 62
    18
176
     1
 90
       50
176
     1
 90
        3
176
     1
 62
     5
420
      255
176
     1
290
     0
176
     1
 90
       50
176
     1
 90
       50
176
     1
 90
       50
176
     1
290
     0
176
     1
 90
       50
176
     1
 62
   256
176
     0
 40
1.0
176
     0
 90
        2
176
     1
  1
strokes_ogs.tif
176
     1
290
     0
176
     1
 40
1.0
176
     1
 40
1.0
176
     1
  0
VISUALSTYLE
  5
3D
102
{ACAD_REACTORS
330
29
102
}
330
29
100
AcDbVisualStyle
  2
Shaded with edges
 70
    26
177
     3
291
     0
 70
    58
 90
        2
176
     1
 90
        2
176
     1
 90
        1
176
     1
 90
        2
176
     1
 40
0.6
176
     1
 40
30.0
176
     1
 62
     7
420
 16777215
176
     1
 90
        1
176
     1
 90
        2
176
     1
 62
     7
176
     1
 62
   257
176
     1
 90
        2
176
     1
 90
        1
176
     1
 40
1.0
176
     1
 90
        8
176
     1
 62
   257
176
     1
 40
1.0
176
     1
 90
        1
176
     1
 90
        6
176
     1
 90
        2
176
     1
 62
     7
176
     1
 90
        3
176
     1
 90
        0
176
     1
 90
        0
176
     1
290
     0
176
     1
 90
        5
176
     1
 40
0.0
176
     1
 90
        0
176
     1
290
     0
176
     1
290
     1
176
     1
290
     1
176
     1
290
     0
176
     1
290
     0
176
     1
290
     0
176
     1
290
     0
176
     1
290
     0
176
     1
290
     0
176
     1
 90
       50
176
     1
 40
0.0
176
     1
 40
1.0
176
     1
 90
        0
176
     1
 62
    18
176
     1
 90
       50
176
     1
 90
        3
176
     1
 62
     5
420
      255
176
     1
290
     0
176
     1
 90
       50
176
     1
 90
       50
176
     1
 90
       50
176
     1
290
     0
176
     1
 90
       50
176
     1
 62
   256
176
     0
 40
1.0
176
     0
 90
        2
176
     1
  1
strokes_ogs.tif
176
     1
290
     0
176
     1
 40
1.0
176
     1
 40
1.0
176
     1
  0
VISUALSTYLE
  5
3A
102
{ACAD_REACTORS
330
29
102
}
330
29
100
AcDbVisualStyle
  2
Shades of Gray
 70
    23
177
     3
291
     0
 70
    58
 90
        2
176
     1
 90
        2
176
     1
 90
        3
176
     1
 90
        0
176
     1
 40
0.6
176
     1
 40
30.0
176
     1
 62
     7
420
 16777215
176
     1
 90
        2
176
     1
 90
        2
176
     1
 62
     7
176
     1
 62
     7
176
     1
 90
        1
176
     1
 90
        1
176
     1
 40
40.0
176
     1
 90
        8
176
     1
 62
     7
176
     1
 40
1.0
176
     1
 90
        1
176
     1
 90
        6
176
     1
 90
        2
176
     1
 62
     7
176
     1
 90
        3
176
     1
 90
        0
176
     1
 90
        0
176
     1
290
     0
176
     1
 90
        1
176
     1
 40
0.0
176
     1
 90
        0
176
     1
290
     0
176
     1
290
     1
176
     1
290
     1
176
     1
290
     0
176
     1
290
     0
176
     1
290
     0
176
     1
290
     0
176
     1
290
     0
176
     1
290
     0
176
     1
 90
       50
176
     1
 40
0.0
176
     1
 40
1.0
176
     1
 90
        0
176
     1
 62
    18
176
     1
 90
       50
176
     1
 90
        3
176
     1
 62
     5
420
      255
176
     1
290
     0
176
     1
 90
       50
176
     1
 90
       50
176
     1
 90
       50
176
     1
290
     0
176
     1
 90
       50
176
     1
 62
   256
176
     0
 40
1.0
176
     0
 90
        2
176
     1
  1
strokes_ogs.tif
176
     1
290
     0
176
     1
 40
1.0
176
     1
 40
1.0
176
     1
  0
VISUALSTYLE
  5
3B
102
{ACAD_REACTORS
330
29
102
}
330
29
100
AcDbVisualStyle
  2
Sketchy
 70
    24
177
     3
291
     0
 70
    58
 90
        1
176
     1
 90
        2
176
     1
 90
        2
176
     1
 90
        0
176
     1
 40
0.6
176
     1
 40
30.0
176
     1
 62
     7
420
 16777215
176
     1
 90
        2
176
     1
 90
        2
176
     1
 62
     7
176
     1
 62
     7
176
     1
 90
        1
176
     1
 90
        1
176
     1
 40
40.0
176
     1
 90
       11
176
     1
 62
     7
176
     1
 40
1.0
176
     1
 90
        1
176
     1
 90
        6
176
     1
 90
        2
176
     1
 62
     7
176
     1
 90
        6
176
     1
 90
        0
176
     1
 90
        0
176
     1
290
     0
176
     1
 90
        1
176
     1
 40
0.0
176
     1
 90
        0
176
     1
290
     0
176
     1
290
     1
176
     1
290
     1
176
     1
290
     0
176
     1
290
     0
176
     1
290
     0
176
     1
290
     0
176
     1
290
     0
176
     1
290
     0
176
     1
 90
       50
176
     1
 40
0.0
176
     1
 40
1.0
176
     1
 90
        0
176
     1
 62
    18
176
     1
 90
       50
176
     1
 90
        3
176
     1
 62
     5
420
      255
176
     1
290
     0
176
     1
 90
       50
176
     1
 90
       50
176
     1
 90
       50
176
     1
290
     0
176
     1
 90
       50
176
     1
 62
   256
176
     0
 40
1.0
176
     0
 90
        2
176
     1
  1
strokes_ogs.tif
176
     1
290
     0
176
     1
 40
1.0
176
     1
 40
1.0
176
     1
  0
VISUALSTYLE
  5
36
102
{ACAD_REACTORS
330
29
102
}
330
29
100
AcDbVisualStyle
  2
Thicken
 70
    13
177
     3
291
     1
 70
    58
 90
        2
176
     1
 90
        2
176
     1
 90
        0
176
     1
 90
        0
176
     1
 40
0.6
176
     1
 40
30.0
176
     1
 62
     7
420
 16777215
176
     1
 90
        1
176
     1
 90
        4
176
     1
 62
     7
176
     1
 62
   257
176
     1
 90
        1
176
     1
 90
        1
176
     1
 40
1.0
176
     1
 90
       12
176
     1
 62
     7
176
     1
 40
1.0
176
     1
 90
        1
176
     1
 90
        6
176
     1
 90
        2
176
     1
 62
     7
176
     1
 90
        5
176
     1
 90
        0
176
     1
 90
        0
176
     1
290
     0
176
     1
 90
        1
176
     1
 40
0.0
176
     1
 90
        0
176
     1
290
     0
176
     1
290
     1
176
     1
290
     1
176
     1
290
     0
176
     1
290
     0
176
     1
290
     0
176
     1
290
     0
176
     1
290
     0
176
     1
290
     0
176
     1
 90
       50
176
     1
 40
0.0
176
     1
 40
1.0
176
     1
 90
        0
176
     1
 62
    18
176
     1
 90
       50
176
     1
 90
        3
176
     1
 62
     5
420
      255
176
     1
290
     0
176
     1
 90
       50
176
     1
 90
       50
176
     1
 90
       50
176
     1
290
     0
176
     1
 90
       50
176
     1
 62
   256
176
     0
 40
1.0
176
     0
 90
        2
176
     1
  1
strokes_ogs.tif
176
     1
290
     0
176
     1
 40
1.0
176
     1
 40
1.0
176
     1
  0
VISUALSTYLE
  5
30
102
{ACAD_REACTORS
330
29
102
}
330
29
100
AcDbVisualStyle
  2
Wireframe
 70
     5
177
     3
291
     0
 70
    58
 90
        0
176
     1
 90
        2
176
     1
 90
        0
176
     1
 90
        0
176
     1
 40
0.6
176
     1
 40
30.0
176
     1
 62
     7
420
 16777215
176
     1
 90
        1
176
     1
 90
        4
176
     1
 62
     7
176
     1
 62
   257
176
     1
 90
        1
176
     1
 90
        1
176
     1
 40
1.0
176
     1
 90
        0
176
     1
 62
   257
176
     1
 40
1.0
176
     1
 90
        1
176
     1
 90
        6
176
     1
 90
        2
176
     1
 62
     7
176
     1
 90
        3
176
     1
 90
        0
176
     1
 90
        0
176
     1
290
     0
176
     1
 90
        1
176
     1
 40
0.0
176
     1
 90
        0
176
     1
290
     0
176
     1
290
     1
176
     1
290
     1
176
     1
290
     0
176
     1
290
     0
176
     1
290
     0
176
     1
290
     0
176
     1
290
     0
176
     1
290
     0
176
     1
 90
       50
176
     1
 40
0.0
176
     1
 40
1.0
176
     1
 90
        0
176
     1
 62
    18
176
     1
 90
       50
176
     1
 90
        3
176
     1
 62
     5
420
      255
176
     1
290
     0
176
     1
 90
       50
176
     1
 90
       50
176
     1
 90
       50
176
     1
290
     0
176
     1
 90
       50
176
     1
 62
   256
176
     0
 40
1.0
176
     0
 90
        2
176
     1
  1
strokes_ogs.tif
176
     1
290
     0
176
     1
 40
1.0
176
     1
 40
1.0
176
     1
  0
VISUALSTYLE
  5
3C
102
{ACAD_REACTORS
330
29
102
}
330
29
100
AcDbVisualStyle
  2
X-Ray
 70
    25
177
     3
291
     0
 70
    58
 90
        2
176
     1
 90
        2
176
     1
 90
        1
176
     1
 90
        1
176
     1
 40
0.5
176
     1
 40
30.0
176
     1
 62
     7
420
 16777215
176
     1
 90
        1
176
     1
 90
        0
176
     1
 62
     7
176
     1
 62
   257
176
     1
 90
        1
176
     1
 90
        1
176
     1
 40
1.0
176
     1
 90
        8
176
     1
 62
     7
176
     1
 40
1.0
176
     1
 90
        1
176
     1
 90
        6
176
     1
 90
        2
176
     1
 62
     7
176
     1
 90
        3
176
     1
 90
        0
176
     1
 90
        0
176
     1
290
     0
176
     1
 90
       13
176
     1
 40
0.0
176
     1
 90
        0
176
     1
290
     0
176
     1
290
     1
176
     1
290
     1
176
     1
290
     0
176
     1
290
     0
176
     1
290
     0
176
     1
290
     0
176
     1
290
     0
176
     1
290
     0
176
     1
 90
       50
176
     1
 40
0.0
176
     1
 40
1.0
176
     1
 90
        0
176
     1
 62
    18
176
     1
 90
       50
176
     1
 90
        3
176
     1
 62
     5
420
      255
176
     1
290
     0
176
     1
 90
       50
176
     1
 90
       50
176
     1
 90
       50
176
     1
290
     0
176
     1
 90
       50
176
     1
 62
   256
176
     0
 40
1.0
176
     0
 90
        2
176
     1
  1
strokes_ogs.tif
176
     1
290
     0
176
     1
 40
1.0
176
     1
 40
1.0
176
     1
  0
DICTIONARYVAR
  5
1AC0
102
{ACAD_REACTORS
330
1ABA
102
}
330
1ABA
100
DictionaryVariables
280
     0
  1
1:1
  0
DICTIONARYVAR
  5
1ABC
102
{ACAD_REACTORS
330
1ABA
102
}
330
1ABA
100
DictionaryVariables
280
     0
  1
STANDARD
  0
DICTIONARYVAR
  5
1ABB
102
{ACAD_REACTORS
330
1ABA
102
}
330
1ABA
100
DictionaryVariables
280
     0
  1
STANDARD
  0
DICTIONARYVAR
  5
1ABD
102
{ACAD_REACTORS
330
1ABA
102
}
330
1ABA
100
DictionaryVariables
280
     0
  1
Imperial24
  0
DICTIONARYVAR
  5
1ABE
102
{ACAD_REACTORS
330
1ABA
102
}
330
1ABA
100
DictionaryVariables
280
     0
  1
Imperial24
  0
DICTIONARYVAR
  5
1AC2
102
{ACAD_REACTORS
330
1ABA
102
}
330
1ABA
100
DictionaryVariables
280
     0
  1
1
  0
DICTIONARYVAR
  5
1AC3
102
{ACAD_REACTORS
330
1ABA
102
}
330
1ABA
100
DictionaryVariables
280
     0
  1
15
  0
DICTIONARYVAR
  5
1AC1
102
{ACAD_REACTORS
330
1ABA
102
}
330
1ABA
100
DictionaryVariables
280
     0
  1
0
  0
DICTIONARYVAR
  5
1ABF
102
{ACAD_REACTORS
330
1ABA
102
}
330
1ABA
100
DictionaryVariables
280
     0
  1
0
  0
DICTIONARY
  5
1A
330
19
100
AcDbDictionary
280
     1
281
     1
  3
BUMPTILE
360
1C
  3
DIFFUSETILE
360
1B
  3
OPACITYTILE
360
1F
  3
REFLECTIONTILE
360
1E
  3
REFRACTIONTILE
360
20
  3
SPECULARTILE
360
1D
  0
DICTIONARY
  5
12
330
11
100
AcDbDictionary
280
     1
281
     1
  3
BUMPTILE
360
14
  3
DIFFUSETILE
360
13
  3
OPACITYTILE
360
17
  3
REFLECTIONTILE
360
16
  3
REFRACTIONTILE
360
18
  3
SPECULARTILE
360
15
  0
DICTIONARY
  5
22
330
21
100
AcDbDictionary
280
     1
281
     1
  3
BUMPTILE
360
24
  3
DIFFUSETILE
360
23
  3
OPACITYTILE
360
27
  3
REFLECTIONTILE
360
26
  3
REFRACTIONTILE
360
28
  3
SPECULARTILE
360
25
  0
DICTIONARY
  5
1AC5
330
64
100
AcDbDictionary
280
     1
281
     1
  3
ACAD_ROUNDTRIP_2008_TABLESTYLE_CELLSTYLEMAP
360
1B07
  0
XRECORD
  5
1C
102
{ACAD_REACTORS
330
1A
102
}
330
1A
100
AcDbXrecord
280
     1
270
     1
271
     1
  0
XRECORD
  5
1B
102
{ACAD_REACTORS
330
1A
102
}
330
1A
100
AcDbXrecord
280
     1
270
     1
271
     1
  0
XRECORD
  5
1F
102
{ACAD_REACTORS
330
1A
102
}
330
1A
100
AcDbXrecord
280
     1
270
     1
271
     1
  0
XRECORD
  5
1E
102
{ACAD_REACTORS
330
1A
102
}
330
1A
100
AcDbXrecord
280
     1
270
     1
271
     1
  0
XRECORD
  5
20
102
{ACAD_REACTORS
330
1A
102
}
330
1A
100
AcDbXrecord
280
     1
270
     1
271
     1
  0
XRECORD
  5
1D
102
{ACAD_REACTORS
330
1A
102
}
330
1A
100
AcDbXrecord
280
     1
270
     1
271
     1
  0
XRECORD
  5
14
102
{ACAD_REACTORS
330
12
102
}
330
12
100
AcDbXrecord
280
     1
270
     1
271
     1
  0
XRECORD
  5
13
102
{ACAD_REACTORS
330
12
102
}
330
12
100
AcDbXrecord
280
     1
270
     1
271
     1
  0
XRECORD
  5
17
102
{ACAD_REACTORS
330
12
102
}
330
12
100
AcDbXrecord
280
     1
270
     1
271
     1
  0
XRECORD
  5
16
102
{ACAD_REACTORS
330
12
102
}
330
12
100
AcDbXrecord
280
     1
270
     1
271
     1
  0
XRECORD
  5
18
102
{ACAD_REACTORS
330
12
102
}
330
12
100
AcDbXrecord
280
     1
270
     1
271
     1
  0
XRECORD
  5
15
102
{ACAD_REACTORS
330
12
102
}
330
12
100
AcDbXrecord
280
     1
270
     1
271
     1
  0
XRECORD
  5
24
102
{ACAD_REACTORS
330
22
102
}
330
22
100
AcDbXrecord
280
     1
270
     1
271
     1
  0
XRECORD
  5
23
102
{ACAD_REACTORS
330
22
102
}
330
22
100
AcDbXrecord
280
     1
270
     1
271
     1
  0
XRECORD
  5
27
102
{ACAD_REACTORS
330
22
102
}
330
22
100
AcDbXrecord
280
     1
270
     1
271
     1
  0
XRECORD
  5
26
102
{ACAD_REACTORS
330
22
102
}
330
22
100
AcDbXrecord
280
     1
270
     1
271
     1
  0
XRECORD
  5
28
102
{ACAD_REACTORS
330
22
102
}
330
22
100
AcDbXrecord
280
     1
270
     1
271
     1
  0
XRECORD
  5
25
102
{ACAD_REACTORS
330
22
102
}
330
22
100
AcDbXrecord
280
     1
270
     1
271
     1
  0
CELLSTYLEMAP
  5
1B07
102
{ACAD_REACTORS
330
1AC5
102
}
330
1AC5
100
AcDbCellStyleMap
 90
        3
300
CELLSTYLE
  1
TABLEFORMAT_BEGIN
 90
        5
170
     1
 91
        0
 92
    32768
 62
   257
 93
        1
300
CONTENTFORMAT
  1
CONTENTFORMAT_BEGIN
 90
        0
 91
        0
 92
      512
 93
        0
300

 40
0.0
140
1.0
 94
        5
 62
     0
340
55
144
0.25
309
CONTENTFORMAT_END
171
     1
301
MARGIN
  1
CELLMARGIN_BEGIN
 40
0.06
 40
0.06
 40
0.06
 40
0.06
 40
0.18
 40
0.18
309
CELLMARGIN_END
 94
        6
 95
        1
302
GRIDFORMAT
  1
GRIDFORMAT_BEGIN
 90
        0
 91
        1
 62
     0
 92
       -2
340
0
 93
        0
 40
0.045
309
GRIDFORMAT_END
 95
        2
302
GRIDFORMAT
  1
GRIDFORMAT_BEGIN
 90
        0
 91
        1
 62
     0
 92
       -2
340
0
 93
        0
 40
0.045
309
GRIDFORMAT_END
 95
        4
302
GRIDFORMAT
  1
GRIDFORMAT_BEGIN
 90
        0
 91
        1
 62
     0
 92
       -2
340
0
 93
        0
 40
0.045
309
GRIDFORMAT_END
 95
        8
302
GRIDFORMAT
  1
GRIDFORMAT_BEGIN
 90
        0
 91
        1
 62
     0
 92
       -2
340
0
 93
        0
 40
0.045
309
GRIDFORMAT_END
 95
       16
302
GRIDFORMAT
  1
GRIDFORMAT_BEGIN
 90
        0
 91
        1
 62
     0
 92
       -2
340
0
 93
        0
 40
0.045
309
GRIDFORMAT_END
 95
       32
302
GRIDFORMAT
  1
GRIDFORMAT_BEGIN
 90
        0
 91
        1
 62
     0
 92
       -2
340
0
 93
        0
 40
0.045
309
GRIDFORMAT_END
309
TABLEFORMAT_END
  1
CELLSTYLE_BEGIN
 90
        1
 91
        1
300
_TITLE
309
CELLSTYLE_END
300
CELLSTYLE
  1
TABLEFORMAT_BEGIN
 90
        5
170
     1
 91
        0
 92
        0
 62
   257
 93
        1
300
CONTENTFORMAT
  1
CONTENTFORMAT_BEGIN
 90
        0
 91
        0
 92
      512
 93
        0
300

 40
0.0
140
1.0
 94
        5
 62
     0
340
55
144
0.18
309
CONTENTFORMAT_END
171
     1
301
MARGIN
  1
CELLMARGIN_BEGIN
 40
0.06
 40
0.06
 40
0.06
 40
0.06
 40
0.18
 40
0.18
309
CELLMARGIN_END
 94
        6
 95
        1
302
GRIDFORMAT
  1
GRIDFORMAT_BEGIN
 90
        0
 91
        1
 62
     0
 92
       -2
340
0
 93
        0
 40
0.045
309
GRIDFORMAT_END
 95
        2
302
GRIDFORMAT
  1
GRIDFORMAT_BEGIN
 90
        0
 91
        1
 62
     0
 92
       -2
340
0
 93
        0
 40
0.045
309
GRIDFORMAT_END
 95
        4
302
GRIDFORMAT
  1
GRIDFORMAT_BEGIN
 90
        0
 91
        1
 62
     0
 92
       -2
340
0
 93
        0
 40
0.045
309
GRIDFORMAT_END
 95
        8
302
GRIDFORMAT
  1
GRIDFORMAT_BEGIN
 90
        0
 91
        1
 62
     0
 92
       -2
340
0
 93
        0
 40
0.045
309
GRIDFORMAT_END
 95
       16
302
GRIDFORMAT
  1
GRIDFORMAT_BEGIN
 90
        0
 91
        1
 62
     0
 92
       -2
340
0
 93
        0
 40
0.045
309
GRIDFORMAT_END
 95
       32
302
GRIDFORMAT
  1
GRIDFORMAT_BEGIN
 90
        0
 91
        1
 62
     0
 92
       -2
340
0
 93
        0
 40
0.045
309
GRIDFORMAT_END
309
TABLEFORMAT_END
  1
CELLSTYLE_BEGIN
 90
        2
 91
        1
300
_HEADER
309
CELLSTYLE_END
300
CELLSTYLE
  1
TABLEFORMAT_BEGIN
 90
        5
170
     1
 91
        0
 92
        0
 62
   257
 93
        1
300
CONTENTFORMAT
  1
CONTENTFORMAT_BEGIN
 90
        0
 91
        0
 92
      512
 93
        0
300

 40
0.0
140
1.0
 94
        2
 62
     0
340
55
144
0.18
309
CONTENTFORMAT_END
171
     1
301
MARGIN
  1
CELLMARGIN_BEGIN
 40
0.06
 40
0.06
 40
0.06
 40
0.06
 40
0.18
 40
0.18
309
CELLMARGIN_END
 94
        6
 95
        1
302
GRIDFORMAT
  1
GRIDFORMAT_BEGIN
 90
        0
 91
        1
 62
     0
 92
       -2
340
0
 93
        0
 40
0.045
309
GRIDFORMAT_END
 95
        2
302
GRIDFORMAT
  1
GRIDFORMAT_BEGIN
 90
        0
 91
        1
 62
     0
 92
       -2
340
0
 93
        0
 40
0.045
309
GRIDFORMAT_END
 95
        4
302
GRIDFORMAT
  1
GRIDFORMAT_BEGIN
 90
        0
 91
        1
 62
     0
 92
       -2
340
0
 93
        0
 40
0.045
309
GRIDFORMAT_END
 95
        8
302
GRIDFORMAT
  1
GRIDFORMAT_BEGIN
 90
        0
 91
        1
 62
     0
 92
       -2
340
0
 93
        0
 40
0.045
309
GRIDFORMAT_END
 95
       16
302
GRIDFORMAT
  1
GRIDFORMAT_BEGIN
 90
        0
 91
        1
 62
     0
 92
       -2
340
0
 93
        0
 40
0.045
309
GRIDFORMAT_END
 95
       32
302
GRIDFORMAT
  1
GRIDFORMAT_BEGIN
 90
        0
 91
        1
 62
     0
 92
       -2
340
0
 93
        0
 40
0.045
309
GRIDFORMAT_END
309
TABLEFORMAT_END
  1
CELLSTYLE_BEGIN
 90
        3
 91
        2
300
_DATA
309
CELLSTYLE_END
  0
ENDSEC
  0
SECTION
  2
ACDSDATA
 70
     2
 71
     8
  0
ACDSSCHEMA
 90
        0
  1
AcDb_Thumbnail_Schema
  2
AcDbDs::ID
280
    10
 91
        8
  2
Thumbnail_Data
280
    15
 91
        0
101
ACDSRECORD
 95
        0
 90
        1
  2
AcDbDs::TreatedAsObjectData
280
     1
291
     1
101
ACDSRECORD
 95
        0
 90
        2
  2
AcDbDs::Legacy
280
     1
291
     1
101
ACDSRECORD
  1
AcDbDs::ID
 90
        3
  2
AcDs:Indexable
280
     1
291
     1
101
ACDSRECORD
  1
AcDbDs::ID
 90
        4
  2
AcDbDs::HandleAttribute
280
     7
282
     1
  0
ACDSSCHEMA
 90
        1
  1
AcDbDs::TreatedAsObjectDataSchema
  2
AcDbDs::TreatedAsObjectData
280
     1
 91
        0
  0
ACDSSCHEMA
 90
        2
  1
AcDbDs::LegacySchema
  2
AcDbDs::Legacy
280
     1
 91
        0
  0
ACDSSCHEMA
 90
        3
  1
AcDbDs::IndexedPropertySchema
  2
AcDs:Indexable
280
     1
 91
        0
  0
ACDSSCHEMA
 90
        4
  1
AcDbDs::HandleAttributeSchema
  2
AcDbDs::HandleAttribute
280
     7
 91
        1
284
     1
  0
ACDSRECORD
 90
        0
  2
AcDbDs::ID
280
    10
320
72
  2
Thumbnail_Data
280
    15
 94
     1523
310
89504E470D0A1A0A0000000D4948445200000100000000990803000000F7B2146B00000300504C5445212830FFFFFF2128300000000000000000000000000000000000000000000000000000330000660000990000CC0000FF0033000033330033660033990033CC0033FF0066000066330066660066990066CC0066FF0099
310
000099330099660099990099CC0099FF00CC0000CC3300CC6600CC9900CCCC00CCFF00FF0000FF3300FF6600FF9900FFCC00FFFF3300003300333300663300993300CC3300FF3333003333333333663333993333CC3333FF3366003366333366663366993366CC3366FF3399003399333399663399993399CC3399FF33CC00
310
33CC3333CC6633CC9933CCCC33CCFF33FF0033FF3333FF6633FF9933FFCC33FFFF6600006600336600666600996600CC6600FF6633006633336633666633996633CC6633FF6666006666336666666666996666CC6666FF6699006699336699666699996699CC6699FF66CC0066CC3366CC6666CC9966CCCC66CCFF66FF0066
310
FF3366FF6666FF9966FFCC66FFFF9900009900339900669900999900CC9900FF9933009933339933669933999933CC9933FF9966009966339966669966999966CC9966FF9999009999339999669999999999CC9999FF99CC0099CC3399CC6699CC9999CCCC99CCFF99FF0099FF3399FF6699FF9999FFCC99FFFFCC0000CC00
310
33CC0066CC0099CC00CCCC00FFCC3300CC3333CC3366CC3399CC33CCCC33FFCC6600CC6633CC6666CC6699CC66CCCC66FFCC9900CC9933CC9966CC9999CC99CCCC99FFCCCC00CCCC33CCCC66CCCC99CCCCCCCCCCFFCCFF00CCFF33CCFF66CCFF99CCFFCCCCFFFFFF0000FF0033FF0066FF0099FF00CCFF00FFFF3300FF3333
310
FF3366FF3399FF33CCFF33FFFF6600FF6633FF6666FF6699FF66CCFF66FFFF9900FF9933FF9966FF9999FF99CCFF99FFFFCC00FFCC33FFCC66FFCC99FFCCCCFFCCFFFFFF00FFFF33FFFF66FFFF99FFFFCCFFFFFF0000000D0D0D1A1A1A2828283535354343435050505D5D5D6B6B6B787878868686939393A1A1A1AEAEAEBB
310
BBBBC9C9C9D6D6D6E4E4E4F1F1F1FFFFFF0000000000000000000000000000000000000000000000000000000000002E4550F1000002AE4944415478DAED9DC16EC4200C44FDFFFF3BF74A7B695545D904B03DB6C7E776E13D0C490810B36F01DB89BDFF3E1C48409080F2FCBB08282FA04D0AC02460B400642140028AF337
310
E903D305201101129005FD27ACB9005C45EB0CB861E51BC7E0C03D691038D4955147C0DBF47687404CD1A789491E869EFD822377010101F03B20F02D398ADE72A604EF7F0381F4AB2C702B39187E11063E2523817E0DE794009F4BBB3F0E68BA624ED1B0D902E86EC982CB8649C018015783346C86808BCB129C6B993A4B8A
310
877F039B2C00BE75A4176012006B2BE0F1202001C3070109501F982D60FA65C024A0B1008241A08080C6F7C28FEF86195F53866780D344760501FFFFEAA88A6C017B83C0BA8AFC17238747C11BA02FABB62AF681872A1E36319A09E8F840D8F98148026480A286982E20D1006CB8011601690668046419E011906480488051
310
2F9783043435402520C3009780040364020C12402AA06D1F2013C03B0648800448C070016D6F86A95280F9614002244002860BE83A31CA24807C0FAD04488004F412F076995633010061F510D8F811CA580500ACD5036BE3F7110070578FB6F11B0838B02EB9F065E0D0AA6CD45C2B75724DBAFB824130D3877483A315F6D8
310
8F10713B74A80C143EFCE8C05E12C7968A3AF470A31C34D9F1BBC601747A707DDD19C2F23378E682A7F153662F9E4908DE8497700EE69D848C3D8829EF31AE41CB1CCCE97371483C99336D9FC36FC9C9FB6F1377FB7CC0D3771FA7D6207FF375AA0234F87657F9C64FBB05A1A28F4E0242FA400320C50F6A185EFA88240039
310
BE79BFD8B002E1360F5903DF29090AD17B18A8457FBCC6F5F08F26414D7C73FB20CBB06E80C2FC275AAF36FE7603A23CBFA57ED6AF7A1234E15F25411FFE25984EF82B069AF11BCB37ADAA244147FE175868CABF7D7E6F0F05DFC3140A8542A15028140A8542A1888E1F3D47F70CC25B05E40000000049454E44AE426082
  0
ENDSEC
  0
EOF
