  0
SECTION
  2
HEADER
  9
$ACADVER
  1
AC1032
  9
$ACADMAINTVER
 90
       55
  9
$DWGCODEPAGE
  3
ANSI_1252
  9
$LASTSAVEDBY
  1
michs
  9
$REQUIREDVERSIONS
160
                 0
  9
$INSBASE
 10
0.0
 20
0.0
 30
0.0
  9
$EXTMIN
 10
-84.47462835559463
 20
46.70231001699924
 30
0.0
  9
$EXTMAX
 10
-84.44988874590102
 20
46.71995950506373
 30
0.0
  9
$LIMMIN
 10
0.0
 20
0.0
  9
$LIMMAX
 10
12.0
 20
9.0
  9
$ORTHOMODE
 70
     0
  9
$REGENMODE
 70
     1
  9
$FILLMODE
 70
     1
  9
$QTEXTMODE
 70
     0
  9
$MIRRTEXT
 70
     0
  9
$LTSCALE
 40
1.0
  9
$ATTMODE
 70
     1
  9
$TEXTSIZE
 40
0.006
  9
$TRACEWID
 40
0.05
  9
$TEXTSTYLE
  7
STANDARD
  9
$CLAYER
  8
0
  9
$CELTYPE
  6
ByLayer
  9
$CECOLOR
 62
   256
  9
$CELTSCALE
 40
1.0
  9
$DISPSILH
 70
     0
  9
$DIMSCALE
 40
1.0
  9
$DIMASZ
 40
0.18
  9
$DIMEXO
 40
0.0625
  9
$DIMDLI
 40
0.38
  9
$DIMRND
 40
0.0
  9
$DIMDLE
 40
0.0
  9
$DIMEXE
 40
0.18
  9
$DIMTP
 40
0.0
  9
$DIMTM
 40
0.0
  9
$DIMTXT
 40
0.18
  9
$DIMCEN
 40
0.09
  9
$DIMTSZ
 40
0.0
  9
$DIMTOL
 70
     0
  9
$DIMLIM
 70
     0
  9
$DIMTIH
 70
     1
  9
$DIMTOH
 70
     1
  9
$DIMSE1
 70
     0
  9
$DIMSE2
 70
     0
  9
$DIMTAD
 70
     0
  9
$DIMZIN
 70
     0
  9
$DIMBLK
  1

  9
$DIMASO
 70
     1
  9
$DIMSHO
 70
     1
  9
$DIMPOST
  1

  9
$DIMAPOST
  1

  9
$DIMALT
 70
     0
  9
$DIMALTD
 70
     2
  9
$DIMALTF
 40
25.4
  9
$DIMLFAC
 40
1.0
  9
$DIMTOFL
 70
     0
  9
$DIMTVP
 40
0.0
  9
$DIMTIX
 70
     0
  9
$DIMSOXD
 70
     0
  9
$DIMSAH
 70
     0
  9
$DIMBLK1
  1

  9
$DIMBLK2
  1

  9
$DIMSTYLE
  2
Standard
  9
$DIMCLRD
 70
     0
  9
$DIMCLRE
 70
     0
  9
$DIMCLRT
 70
     0
  9
$DIMTFAC
 40
1.0
  9
$DIMGAP
 40
0.09
  9
$DIMJUST
 70
     0
  9
$DIMSD1
 70
     0
  9
$DIMSD2
 70
     0
  9
$DIMTOLJ
 70
     1
  9
$DIMTZIN
 70
     0
  9
$DIMALTZ
 70
     0
  9
$DIMALTTZ
 70
     0
  9
$DIMUPT
 70
     0
  9
$DIMDEC
 70
     4
  9
$DIMTDEC
 70
     4
  9
$DIMALTU
 70
     2
  9
$DIMALTTD
 70
     2
  9
$DIMTXSTY
  7
STANDARD
  9
$DIMAUNIT
 70
     0
  9
$DIMADEC
 70
     0
  9
$DIMALTRND
 40
0.0
  9
$DIMAZIN
 70
     0
  9
$DIMDSEP
 70
    46
  9
$DIMATFIT
 70
     3
  9
$DIMFRAC
 70
     0
  9
$DIMLDRBLK
  1

  9
$DIMLUNIT
 70
     2
  9
$DIMLWD
 70
    -2
  9
$DIMLWE
 70
    -2
  9
$DIMTMOVE
 70
     0
  9
$DIMFXL
 40
1.0
  9
$DIMFXLON
 70
     0
  9
$DIMJOGANG
 40
0.7853981633974483
  9
$DIMTFILL
 70
     0
  9
$DIMTFILLCLR
 70
     0
  9
$DIMARCSYM
 70
     0
  9
$DIMLTYPE
  6

  9
$DIMLTEX1
  6

  9
$DIMLTEX2
  6

  9
$DIMTXTDIRECTION
 70
     0
  9
$LUNITS
 70
     2
  9
$LUPREC
 70
     4
  9
$SKETCHINC
 40
0.1
  9
$FILLETRAD
 40
0.0
  9
$AUNITS
 70
     0
  9
$AUPREC
 70
     0
  9
$MENU
  1
.
  9
$ELEVATION
 40
0.0
  9
$PELEVATION
 40
0.0
  9
$THICKNESS
 40
0.0
  9
$LIMCHECK
 70
     0
  9
$CHAMFERA
 40
0.0
  9
$CHAMFERB
 40
0.0
  9
$CHAMFERC
 40
0.0
  9
$CHAMFERD
 40
0.0
  9
$SKPOLY
 70
     0
  9
$TDCREATE
 40
2459141.746261574
  9
$TDUCREATE
 40
2459141.954594907
  9
$TDUPDATE
 40
2459149.598807870
  9
$TDUUPDATE
 40
2459149.807141204
  9
$TDINDWG
 40
0.0707986111
  9
$TDUSRTIMER
 40
0.0707986111
  9
$USRTIMER
 70
     1
  9
$ANGBASE
 50
0.0
  9
$ANGDIR
 70
     0
  9
$PDMODE
 70
     0
  9
$PDSIZE
 40
0.0
  9
$PLINEWID
 40
0.0
  9
$SPLFRAME
 70
     0
  9
$SPLINETYPE
 70
     6
  9
$SPLINESEGS
 70
     8
  9
$HANDSEED
  5
2322
  9
$SURFTAB1
 70
     6
  9
$SURFTAB2
 70
     6
  9
$SURFTYPE
 70
     6
  9
$SURFU
 70
     6
  9
$SURFV
 70
     6
  9
$UCSBASE
  2

  9
$UCSNAME
  2

  9
$UCSORG
 10
0.0
 20
0.0
 30
0.0
  9
$UCSXDIR
 10
1.0
 20
0.0
 30
0.0
  9
$UCSYDIR
 10
0.0
 20
1.0
 30
0.0
  9
$UCSORTHOREF
  2

  9
$UCSORTHOVIEW
 70
     0
  9
$UCSORGTOP
 10
0.0
 20
0.0
 30
0.0
  9
$UCSORGBOTTOM
 10
0.0
 20
0.0
 30
0.0
  9
$UCSORGLEFT
 10
0.0
 20
0.0
 30
0.0
  9
$UCSORGRIGHT
 10
0.0
 20
0.0
 30
0.0
  9
$UCSORGFRONT
 10
0.0
 20
0.0
 30
0.0
  9
$UCSORGBACK
 10
0.0
 20
0.0
 30
0.0
  9
$PUCSBASE
  2

  9
$PUCSNAME
  2

  9
$PUCSORG
 10
0.0
 20
0.0
 30
0.0
  9
$PUCSXDIR
 10
1.0
 20
0.0
 30
0.0
  9
$PUCSYDIR
 10
0.0
 20
1.0
 30
0.0
  9
$PUCSORTHOREF
  2

  9
$PUCSORTHOVIEW
 70
     0
  9
$PUCSORGTOP
 10
0.0
 20
0.0
 30
0.0
  9
$PUCSORGBOTTOM
 10
0.0
 20
0.0
 30
0.0
  9
$PUCSORGLEFT
 10
0.0
 20
0.0
 30
0.0
  9
$PUCSORGRIGHT
 10
0.0
 20
0.0
 30
0.0
  9
$PUCSORGFRONT
 10
0.0
 20
0.0
 30
0.0
  9
$PUCSORGBACK
 10
0.0
 20
0.0
 30
0.0
  9
$USERI1
 70
     0
  9
$USERI2
 70
     0
  9
$USERI3
 70
     0
  9
$USERI4
 70
     0
  9
$USERI5
 70
     0
  9
$USERR1
 40
0.0
  9
$USERR2
 40
0.0
  9
$USERR3
 40
0.0
  9
$USERR4
 40
0.0
  9
$USERR5
 40
0.0
  9
$WORLDVIEW
 70
     1
  9
$SHADEDGE
 70
     3
  9
$SHADEDIF
 70
    70
  9
$TILEMODE
 70
     1
  9
$MAXACTVP
 70
    64
  9
$PINSBASE
 10
0.0
 20
0.0
 30
0.0
  9
$PLIMCHECK
 70
     0
  9
$PEXTMIN
 10
1.000000000000000E+20
 20
1.000000000000000E+20
 30
1.000000000000000E+20
  9
$PEXTMAX
 10
-1.000000000000000E+20
 20
-1.000000000000000E+20
 30
-1.000000000000000E+20
  9
$PLIMMIN
 10
0.0
 20
0.0
  9
$PLIMMAX
 10
12.0
 20
9.0
  9
$UNITMODE
 70
     0
  9
$VISRETAIN
 70
     1
  9
$PLINEGEN
 70
     0
  9
$PSLTSCALE
 70
     1
  9
$TREEDEPTH
 70
  3020
  9
$CMLSTYLE
  2
Standard
  9
$CMLJUST
 70
     0
  9
$CMLSCALE
 40
1.0
  9
$PROXYGRAPHICS
 70
     1
  9
$MEASUREMENT
 70
     0
  9
$CELWEIGHT
370
    -1
  9
$ENDCAPS
280
     0
  9
$JOINSTYLE
280
     0
  9
$LWDISPLAY
290
     0
  9
$INSUNITS
 70
     0
  9
$HYPERLINKBASE
  1

  9
$STYLESHEET
  1

  9
$XEDIT
290
     1
  9
$CEPSNTYPE
380
     0
  9
$PSTYLEMODE
290
     1
  9
$FINGERPRINTGUID
  2
{7A9B734F-2F9A-504F-91C5-62DC657C6415}
  9
$VERSIONGUID
  2
{ACC87045-9CAB-9242-9671-CE485B148858}
  9
$EXTNAMES
290
     1
  9
$PSVPSCALE
 40
0.0
  9
$OLESTARTUP
290
     0
  9
$SORTENTS
280
   127
  9
$INDEXCTL
280
     0
  9
$HIDETEXT
280
     0
  9
$XCLIPFRAME
280
     2
  9
$HALOGAP
280
     0
  9
$OBSCOLOR
 70
   257
  9
$OBSLTYPE
280
     0
  9
$INTERSECTIONDISPLAY
280
     0
  9
$INTERSECTIONCOLOR
 70
   257
  9
$DIMASSOC
280
     1
  9
$PROJECTNAME
  1

  9
$CAMERADISPLAY
290
     0
  9
$LENSLENGTH
 40
50.0
  9
$CAMERAHEIGHT
 40
0.0
  9
$STEPSPERSEC
 40
2.0
  9
$STEPSIZE
 40
6.0
  9
$3DDWFPREC
 40
2.0
  9
$PSOLWIDTH
 40
0.25
  9
$PSOLHEIGHT
 40
4.0
  9
$LOFTANG1
 40
1.570796326794896
  9
$LOFTANG2
 40
1.570796326794896
  9
$LOFTMAG1
 40
0.0
  9
$LOFTMAG2
 40
0.0
  9
$LOFTPARAM
 70
     7
  9
$LOFTNORMALS
280
     1
  9
$LATITUDE
 40
37.795
  9
$LONGITUDE
 40
-122.394
  9
$NORTHDIRECTION
 40
0.0
  9
$TIMEZONE
 70
 -8000
  9
$LIGHTGLYPHDISPLAY
280
     1
  9
$TILEMODELIGHTSYNCH
280
     1
  9
$CMATERIAL
347
11
  9
$SOLIDHIST
280
     0
  9
$SHOWHIST
280
     1
  9
$DWFFRAME
280
     2
  9
$DGNFRAME
280
     0
  9
$REALWORLDSCALE
290
     1
  9
$INTERFERECOLOR
 62
     1
  9
$INTERFEREOBJVS
345
33
  9
$INTERFEREVPVS
346
30
  9
$CSHADOW
280
     0
  9
$SHADOWPLANELOCATION
 40
0.0
  0
ENDSEC
  0
SECTION
  2
CLASSES
  0
CLASS
  1
ACDBDICTIONARYWDFLT
  2
AcDbDictionaryWithDefault
  3
ObjectDBX Classes
 90
        0
 91
        1
280
     0
281
     0
  0
CLASS
  1
MATERIAL
  2
AcDbMaterial
  3
ObjectDBX Classes
 90
     1153
 91
        3
280
     0
281
     0
  0
CLASS
  1
VISUALSTYLE
  2
AcDbVisualStyle
  3
ObjectDBX Classes
 90
     4095
 91
       24
280
     0
281
     0
  0
CLASS
  1
SCALE
  2
AcDbScale
  3
ObjectDBX Classes
 90
     1153
 91
       17
280
     0
281
     0
  0
CLASS
  1
TABLESTYLE
  2
AcDbTableStyle
  3
ObjectDBX Classes
 90
     4095
 91
        1
280
     0
281
     0
  0
CLASS
  1
MLEADERSTYLE
  2
AcDbMLeaderStyle
  3
ACDB_MLEADERSTYLE_CLASS
 90
     4095
 91
        1
280
     0
281
     0
  0
CLASS
  1
ACDBSECTIONVIEWSTYLE
  2
AcDbSectionViewStyle
  3
ObjectDBX Classes
 90
     1025
 91
        2
280
     0
281
     0
  0
CLASS
  1
ACDBDETAILVIEWSTYLE
  2
AcDbDetailViewStyle
  3
ObjectDBX Classes
 90
     1025
 91
        2
280
     0
281
     0
  0
CLASS
  1
SOLID_BACKGROUND
  2
AcDbSolidBackground
  3
SCENEOE
 90
     4095
 91
        0
280
     0
281
     0
  0
CLASS
  1
NPOCOLLECTION
  2
AcDbImpNonPersistentObjectsCollection
  3
ObjectDBX Classes
 90
     1153
 91
        1
280
     0
281
     0
  0
CLASS
  1
GROUND_PLANE_BACKGROUND
  2
AcDbGroundPlaneBackground
  3
SCENEOE
 90
     4095
 91
        0
280
     0
281
     0
  0
CLASS
  1
SORTENTSTABLE
  2
AcDbSortentsTable
  3
ObjectDBX Classes
 90
        0
 91
        1
280
     0
281
     0
  0
CLASS
  1
DICTIONARYVAR
  2
AcDbDictionaryVar
  3
ObjectDBX Classes
 90
        0
 91
        9
280
     0
281
     0
  0
CLASS
  1
CELLSTYLEMAP
  2
AcDbCellStyleMap
  3
ObjectDBX Classes
 90
     1152
 91
        4
280
     0
281
     0
  0
CLASS
  1
EXACXREFPANELOBJECT
  2
ExAcXREFPanelObject
  3
EXAC_ESW
 90
     1025
 91
        1
280
     0
281
     0
  0
ENDSEC
  0
SECTION
  2
TABLES
  0
TABLE
  2
VPORT
  5
8
330
0
100
AcDbSymbolTable
 70
     1
  0
VPORT
  5
7B
330
8
100
AcDbSymbolTableRecord
100
AcDbViewportTableRecord
  2
*Active
 70
     0
 10
0.0
 20
0.0
 11
1.0
 21
1.0
 12
-0.0126619043384712
 22
-0.0056249415557082
 13
0.0
 23
0.0
 14
1.0
 24
1.0
 15
0.0
 25
0.0
 16
0.0
 26
0.0
 36
0.0631743182797237
 17
-84.46076202392578
 27
46.71208953857422
 37
0.0
 40
0.002605995869507
 41
1.738970588235294
 42
50.0
 43
0.0
 44
0.0
 50
0.0
 51
0.0
 71
     0
 72
   100
 73
     1
 74
     0
 75
     0
 76
     0
 77
     0
 78
     0
281
     0
 65
     1
110
0.0
120
0.0
130
0.0
111
1.0
121
0.0
131
0.0
112
0.0
122
1.0
132
0.0
 79
     0
146
0.0
348
2F
 60
     3
 61
     5
292
     1
282
     1
141
0.0
142
0.0
 63
   250
421
  3355443
1001
ACAD_NAV_VCDISPLAY
1070
     3
  0
ENDTAB
  0
TABLE
  2
LTYPE
  5
5
330
0
100
AcDbSymbolTable
 70
     2
  0
LTYPE
  5
5A
330
5
100
AcDbSymbolTableRecord
100
AcDbLinetypeTableRecord
  2
ByBlock
 70
     0
  3

 72
    65
 73
     0
 40
0.0
  0
LTYPE
  5
5B
330
5
100
AcDbSymbolTableRecord
100
AcDbLinetypeTableRecord
  2
ByLayer
 70
     0
  3

 72
    65
 73
     0
 40
0.0
  0
LTYPE
  5
5C
330
5
100
AcDbSymbolTableRecord
100
AcDbLinetypeTableRecord
  2
Continuous
 70
     0
  3
Solid line
 72
    65
 73
     0
 40
0.0
  0
ENDTAB
  0
TABLE
  2
LAYER
  5
2
102
{ACAD_XDICTIONARY
360
270
102
}
330
0
100
AcDbSymbolTable
 70
     4
  0
LAYER
  5
54
102
{ACAD_XDICTIONARY
360
17F8
102
}
330
2
100
AcDbSymbolTableRecord
100
AcDbLayerTableRecord
  2
0
 70
     0
 62
     7
  6
Continuous
370
    -3
390
F
347
21
348
0
  0
LAYER
  5
D33
102
{ACAD_XDICTIONARY
360
D34
102
}
330
2
100
AcDbSymbolTableRecord
100
AcDbLayerTableRecord
  2
runway
 70
     2
 62
    90
  6
Continuous
370
    -3
390
F
347
21
348
0
1001
AcAecLayerStandard
1000

1000

1001
AcCmTransparency
1071
        0
  0
LAYER
  5
D35
102
{ACAD_XDICTIONARY
360
D36
102
}
330
2
100
AcDbSymbolTableRecord
100
AcDbLayerTableRecord
  2
taxiway
 70
     2
 62
   130
  6
Continuous
370
    -3
390
F
347
21
348
0
1001
AcAecLayerStandard
1000

1000

1001
AcCmTransparency
1071
        0
  0
LAYER
  5
D37
102
{ACAD_XDICTIONARY
360
D38
102
}
330
2
100
AcDbSymbolTableRecord
100
AcDbLayerTableRecord
  2
term
 70
     2
 62
     7
  6
Continuous
370
    -3
390
F
347
21
348
0
1001
AcAecLayerStandard
1000

1000

1001
AcCmTransparency
1071
        0
  0
ENDTAB
  0
TABLE
  2
STYLE
  5
3
330
0
100
AcDbSymbolTable
 70
     2
  0
STYLE
  5
55
330
3
100
AcDbSymbolTableRecord
100
AcDbTextStyleTableRecord
  2
STANDARD
 70
     0
 40
0.006
 41
1.0
 50
0.0
 71
     0
 42
0.006
  3
arial.ttf
  4

1001
ACAD
1000
Arial
1071
       34
  0
STYLE
  5
59
330
3
100
AcDbSymbolTableRecord
100
AcDbTextStyleTableRecord
  2
Annotative
 70
     0
 40
0.0
 41
1.0
 50
0.0
 71
     0
 42
0.2
  3
txt
  4

1001
AcadAnnotative
1000
AnnotativeData
1002
{
1070
     1
1070
     1
1002
}
  0
ENDTAB
  0
TABLE
  2
VIEW
  5
6
330
0
100
AcDbSymbolTable
 70
     2
  0
ENDTAB
  0
TABLE
  2
UCS
  5
7
330
0
100
AcDbSymbolTable
 70
     0
  0
ENDTAB
  0
TABLE
  2
APPID
  5
9
330
0
100
AcDbSymbolTable
 70
     6
  0
APPID
  5
56
330
9
100
AcDbSymbolTableRecord
100
AcDbRegAppTableRecord
  2
ACAD
 70
     0
  0
APPID
  5
5D
330
9
100
AcDbSymbolTableRecord
100
AcDbRegAppTableRecord
  2
AcadAnnotative
 70
     0
  0
APPID
  5
26D
330
9
100
AcDbSymbolTableRecord
100
AcDbRegAppTableRecord
  2
AcAecLayerStandard
 70
     0
  0
APPID
  5
26E
330
9
100
AcDbSymbolTableRecord
100
AcDbRegAppTableRecord
  2
AcCmTransparency
 70
     0
  0
APPID
  5
26F
330
9
100
AcDbSymbolTableRecord
100
AcDbRegAppTableRecord
  2
ACAD_NAV_VCDISPLAY
 70
     0
  0
APPID
  5
1819
330
9
100
AcDbSymbolTableRecord
100
AcDbRegAppTableRecord
  2
ACAD_EXEMPT_FROM_CAD_STANDARDS
 70
     0
  0
ENDTAB
  0
TABLE
  2
DIMSTYLE
  5
A
330
0
100
AcDbSymbolTable
 70
     4
100
AcDbDimStyleTable
 71
     1
340
57
  0
DIMSTYLE
105
57
330
A
100
AcDbSymbolTableRecord
100
AcDbDimStyleTableRecord
  2
Standard
 70
     0
340
55
  0
DIMSTYLE
105
58
330
A
100
AcDbSymbolTableRecord
100
AcDbDimStyleTableRecord
  2
Annotative
 70
     0
340
55
1001
AcadAnnotative
1000
AnnotativeData
1002
{
1070
     1
1070
     1
1002
}
  0
DIMSTYLE
105
26C
330
A
100
AcDbSymbolTableRecord
100
AcDbDimStyleTableRecord
  2
ISO-25
 70
     0
 41
2.5
 42
0.625
 43
3.75
 44
1.25
 73
     0
 74
     0
 77
     1
 78
     8
140
2.5
141
2.5
143
0.03937007874016
147
0.625
171
     3
172
     1
271
     2
272
     2
274
     3
283
     0
284
     8
340
55
  0
ENDTAB
  0
TABLE
  2
BLOCK_RECORD
  5
1
330
0
100
AcDbSymbolTable
 70
     6
  0
BLOCK_RECORD
  5
6F
102
{ACAD_XDICTIONARY
360
22FB
102
}
330
1
100
AcDbSymbolTableRecord
100
AcDbBlockTableRecord
  2
*Model_Space
340
72
 70
     0
280
     1
281
     0
  0
BLOCK_RECORD
  5
6B
330
1
100
AcDbSymbolTableRecord
100
AcDbBlockTableRecord
  2
*Paper_Space
340
6E
 70
     0
280
     1
281
     0
  0
BLOCK_RECORD
  5
7C
330
1
100
AcDbSymbolTableRecord
100
AcDbBlockTableRecord
  2
AIRPORT
340
0
 70
     0
280
     1
281
     0
  0
BLOCK_RECORD
  5
80
330
1
100
AcDbSymbolTableRecord
100
AcDbBlockTableRecord
  2
FIX
340
0
 70
     0
280
     1
281
     0
  0
BLOCK_RECORD
  5
88
330
1
100
AcDbSymbolTableRecord
100
AcDbBlockTableRecord
  2
NDB
340
0
 70
     0
280
     1
281
     0
  0
BLOCK_RECORD
  5
8F
330
1
100
AcDbSymbolTableRecord
100
AcDbBlockTableRecord
  2
VOR
340
0
 70
     0
280
     1
281
     0
  0
ENDTAB
  0
ENDSEC
  0
SECTION
  2
BLOCKS
  0
BLOCK
  5
70
330
6F
100
AcDbEntity
  8
0
100
AcDbBlockBegin
  2
*Model_Space
 70
     0
 10
0.0
 20
0.0
 30
0.0
  3
*Model_Space
  1

  0
ENDBLK
  5
71
330
6F
100
AcDbEntity
  8
0
100
AcDbBlockEnd
  0
BLOCK
  5
6C
330
6B
100
AcDbEntity
 67
     1
  8
0
100
AcDbBlockBegin
  2
*Paper_Space
 70
     0
 10
0.0
 20
0.0
 30
0.0
  3
*Paper_Space
  1

  0
ENDBLK
  5
6D
330
6B
100
AcDbEntity
 67
     1
  8
0
100
AcDbBlockEnd
  0
BLOCK
  5
7D
330
7C
100
AcDbEntity
  8
0
100
AcDbBlockBegin
  2
AIRPORT
 70
     0
 10
0.0
 20
0.0
 30
0.0
  3
AIRPORT
  1

  0
CIRCLE
  5
7E
330
7C
100
AcDbEntity
  8
0
100
AcDbCircle
 10
0.0
 20
0.0
 30
0.0
 40
0.005
  0
ENDBLK
  5
7F
330
7C
100
AcDbEntity
  8
0
100
AcDbBlockEnd
  0
BLOCK
  5
81
330
80
100
AcDbEntity
  8
0
100
AcDbBlockBegin
  2
FIX
 70
     0
 10
0.0
 20
0.0
 30
0.0
  3
FIX
  1

  0
LWPOLYLINE
  5
82
330
80
100
AcDbEntity
  8
0
100
AcDbPolyline
 90
        3
 70
     1
 43
0.0
 10
-0.0050000000000061
 20
-0.0028867513459261
 10
0.0049999999999848
 20
-0.0028867513459474
 10
-0.0000000000000178
 20
0.0057735026919019
  0
ENDBLK
  5
87
330
80
100
AcDbEntity
  8
0
100
AcDbBlockEnd
  0
BLOCK
  5
89
330
88
100
AcDbEntity
  8
0
100
AcDbBlockBegin
  2
NDB
 70
     0
 10
0.0
 20
0.0
 30
0.0
  3
NDB
  1

  0
CIRCLE
  5
8A
330
88
100
AcDbEntity
  8
0
100
AcDbCircle
 10
0.0
 20
0.0
 30
0.0
 40
0.00065625
  0
CIRCLE
  5
8B
330
88
100
AcDbEntity
  8
0
100
AcDbCircle
 10
0.0
 20
0.0
 30
0.0
 40
0.002625
  0
CIRCLE
  5
8C
330
88
100
AcDbEntity
  8
0
100
AcDbCircle
 10
0.0
 20
0.0
 30
0.0
 40
0.00525
  0
CIRCLE
  5
8D
330
88
100
AcDbEntity
  8
0
100
AcDbCircle
 10
0.0
 20
0.0
 30
0.0
 40
0.007875
  0
ENDBLK
  5
8E
330
88
100
AcDbEntity
  8
0
100
AcDbBlockEnd
  0
BLOCK
  5
90
330
8F
100
AcDbEntity
  8
0
100
AcDbBlockBegin
  2
VOR
 70
     0
 10
0.0
 20
0.0
 30
0.0
  3
VOR
  1

  0
LWPOLYLINE
  5
91
330
8F
100
AcDbEntity
  8
0
100
AcDbPolyline
 90
        6
 70
     1
 43
0.0
 10
-0.0044997172835375
 20
0.0077937389547813
 10
-0.0089994345670776
 20
0.0
 10
-0.0044997172835393
 20
-0.0077937389547884
 10
0.0044997172835375
 20
-0.0077937389547884
 10
0.0089994345670776
 20
0.0
 10
0.0044997172835393
 20
0.0077937389547813
  0
CIRCLE
  5
99
330
8F
100
AcDbEntity
  8
0
100
AcDbCircle
 10
0.0
 20
0.0
 30
0.0
 40
0.0015111425556361
  0
ENDBLK
  5
9A
330
8F
100
AcDbEntity
  8
0
100
AcDbBlockEnd
  0
ENDSEC
  0
SECTION
  2
ENTITIES
  0
LWPOLYLINE
  5
1E12
330
6F
100
AcDbEntity
  8
taxiway
100
AcDbPolyline
 90
       50
 70
     1
 43
0.0
 10
-84.46541684284062
 20
46.71220115023958
 10
-84.46601678114609
 20
46.71253656555654
 10
-84.46654615849491
 20
46.71290706673624
 10
-84.46849682118486
 20
46.71436636203523
 10
-84.47071476141182
 20
46.71602560487801
 10
-84.47103582568818
 20
46.71634052737292
 10
-84.47134301597037
 20
46.71663257997848
 10
-84.47135011103105
 20
46.71664402782175
 10
-84.47138944878885
 20
46.71676882717816
 10
-84.4713899933343
 20
46.71678210273823
 10
-84.47139046169839
 20
46.7167952619242
 10
-84.47136179783335
 20
46.71692228430671
 10
-84.47135569771932
 20
46.71693389158457
 10
-84.47134350768283
 20
46.716957731197
 10
-84.47117056298948
 20
46.71715898814212
 10
-84.47114897378824
 20
46.71717471692331
 10
-84.47113078166418
 20
46.71718466426389
 10
-84.47093266142495
 20
46.71719346591045
 10
-84.47091330574934
 20
46.71718482410381
 10
-84.47135224707418
 20
46.71751118952477
 10
-84.47158286717153
 20
46.71720401663878
 10
-84.47169451019608
 20
46.71705711982544
 10
-84.47198023769708
 20
46.71664295242094
 10
-84.47228821067136
 20
46.71624761107512
 10
-84.47148418931174
 20
46.71565704133525
 10
-84.47140807540256
 20
46.71575627522886
 10
-84.47132502338407
 20
46.7158658362858
 10
-84.47131532350883
 20
46.71587610943454
 10
-84.47119368338917
 20
46.7159398784189
 10
-84.47117926867569
 20
46.71594193340679
 10
-84.47116563138168
 20
46.71594421095117
 10
-84.47102896256494
 20
46.71592036568662
 10
-84.47101661506641
 20
46.71591328718979
 10
-84.47101661506641
 20
46.71591328718979
 10
-84.46986241254542
 20
46.71506147431722
 10
-84.46817271077255
 20
46.71380918748067
 10
-84.46661415836947
 20
46.71265378270088
 10
-84.46661415836947
 20
46.71265378270088
 10
-84.46602004154385
 20
46.71209148988408
 10
-84.46602004154385
 20
46.71209148988408
 10
-84.46601121647805
 20
46.7120802435777
 10
-84.46595656677173
 20
46.71194119614013
 10
-84.46595506607325
 20
46.71192508862038
 10
-84.46595394628173
 20
46.71190956297087
 10
-84.4659872358701
 20
46.71176365276617
 10
-84.46599427118046
 20
46.71175093455231
 10
-84.46519012662205
 20
46.71220370164067
 10
-84.46520844168132
 20
46.71219749744266
 10
-84.46539872345651
 20
46.71219505726031
 10
-84.46541684284062
 20
46.71220115023958
  0
LWPOLYLINE
  5
1E13
330
6F
100
AcDbEntity
  8
taxiway
100
AcDbPolyline
 90
       35
 70
     0
 43
0.0
 10
-84.47438384437473
 20
46.70644812489039
 10
-84.47333008246218
 20
46.70457141052628
 10
-84.47332440834982
 20
46.70456054864247
 10
-84.47323431704896
 20
46.70448136568656
 10
-84.47322258798301
 20
46.70447690799458
 10
-84.4732112357474
 20
46.70447278215017
 10
-84.47309112300628
 20
46.7044741871751
 10
-84.47307940273148
 20
46.70447862112357
 10
-84.47302884135986
 20
46.7045083085399
 10
-84.47250208814073
 20
46.7048105260712
 10
-84.47249493046802
 20
46.70481611935827
 10
-84.47243979248698
 20
46.70489694044039
 10
-84.47243686530155
 20
46.70490686297569
 10
-84.4724339730857
 20
46.7049170319348
 10
-84.47243822173716
 20
46.70501473204488
 10
-84.47244161429354
 20
46.70502347999134
 10
-84.47250348046052
 20
46.70511991627392
 10
-84.47251091432447
 20
46.70513126202389
 10
-84.47253581482005
 20
46.70525749275102
 10
-84.47253323210727
 20
46.70527031850371
 10
-84.47253102724394
 20
46.70528353860962
 10
-84.47246501743233
 20
46.70539349406249
 10
-84.47245440866714
 20
46.70540155598956
 10
-84.47239152553192
 20
46.70543637366877
 10
-84.46571881107686
 20
46.70919983045936
 10
-84.46501639228024
 20
46.70960173200898
 10
-84.46460641898516
 20
46.70982076956112
 10
-84.46393779165342
 20
46.71015955451898
 10
-84.46367509312027
 20
46.7102408207124
 10
-84.46366602976636
 20
46.7102441936502
 10
-84.46357071941347
 20
46.71024584054181
 10
-84.46356123081903
 20
46.71024287532934
 10
-84.4632710983056
 20
46.71012681411975
 10
-84.4630040677862
 20
46.7099397384257
 10
-84.46238474888945
 20
46.70950569294422
  0
LWPOLYLINE
  5
1E14
330
6F
100
AcDbEntity
  8
taxiway
100
AcDbPolyline
 90
        1
 70
     1
 43
0.0
 10
-84.40977208492927
 20
46.71891907926794
  0
LWPOLYLINE
  5
1E15
330
6F
100
AcDbEntity
  8
taxiway
100
AcDbPolyline
 90
       37
 70
     1
 43
0.0
 10
-84.46287502970269
 20
46.70415143034318
 10
-84.4628768939188
 20
46.70416743289057
 10
-84.46285832828136
 20
46.70421825485127
 10
-84.46281320808237
 20
46.70425400920902
 10
-84.46280132538054
 20
46.70425683384507
 10
-84.46277988567421
 20
46.70425933146282
 10
-84.46256431467874
 20
46.70428444439735
 10
-84.46255195749929
 20
46.70428588394648
 10
-84.46251538941847
 20
46.70427248386327
 10
-84.4625112072134
 20
46.70426883785879
 10
-84.4625070753926
 20
46.7042656243556
 10
-84.46248524012508
 20
46.70423247214716
 10
-84.46248382936692
 20
46.70422036211129
 10
-84.46238308252119
 20
46.70335554490765
 10
-84.46237945822209
 20
46.70322552049851
 10
-84.46245610802391
 20
46.70322711208181
 10
-84.46244688771173
 20
46.70314796434746
 10
-84.46236847197907
 20
46.70313981505119
 10
-84.46236622639458
 20
46.70298614587935
 10
-84.46237908395412
 20
46.70279063765243
 10
-84.46238245536008
 20
46.7027722716983
 10
-84.46242531871263
 20
46.70269187855817
 10
-84.46249810415045
 20
46.70263718261553
 10
-84.46251614626898
 20
46.70263132333574
 10
-84.46268494343751
 20
46.70268367737438
 10
-84.46273248985724
 20
46.70273218331187
 10
-84.46275699480954
 20
46.70298070294333
 10
-84.46275691801224
 20
46.70316658110407
 10
-84.46276774507948
 20
46.70327403576081
 10
-84.46262215954268
 20
46.70328761402461
 10
-84.46263028579753
 20
46.7033573703026
 10
-84.46277480301118
 20
46.70334053477555
 10
-84.46281056860923
 20
46.70364754889893
 10
-84.46265929934352
 20
46.70366448213764
 10
-84.46266859883087
 20
46.70374430951688
 10
-84.46282547322397
 20
46.70372603444068
 10
-84.46287502970269
 20
46.70415143034318
  0
LWPOLYLINE
  5
1E16
330
6F
100
AcDbEntity
  8
taxiway
100
AcDbPolyline
 90
       35
 70
     1
 43
0.0
 10
-84.46283316878387
 20
46.70287338350504
 10
-84.46283214727756
 20
46.70286730268996
 10
-84.46284871544618
 20
46.70280901062333
 10
-84.46285296192034
 20
46.70280406959818
 10
-84.46289574393615
 20
46.7027600707088
 10
-84.46318306346709
 20
46.7028380082361
 10
-84.4631943612419
 20
46.70284145155655
 10
-84.46327925188887
 20
46.7029110952099
 10
-84.46328416826396
 20
46.70292104337588
 10
-84.46328926121109
 20
46.70297067484066
 10
-84.46320152402689
 20
46.70298196039522
 10
-84.46321370981028
 20
46.70308656391926
 10
-84.46331089902662
 20
46.70307524186536
 10
-84.4634137415143
 20
46.70409136598125
 10
-84.46341549776423
 20
46.70410644174018
 10
-84.46339939700145
 20
46.70415315646709
 10
-84.46335941222967
 20
46.70418837519789
 10
-84.46334862606843
 20
46.70419201145845
 10
-84.46332662907886
 20
46.70419563861163
 10
-84.46305279398231
 20
46.70422753902031
 10
-84.46303932465671
 20
46.70422910812887
 10
-84.46299654384409
 20
46.70421129659694
 10
-84.46296899013196
 20
46.70417367535783
 10
-84.46296739223244
 20
46.70415995888865
 10
-84.46291530214722
 20
46.70371281435031
 10
-84.46296596658298
 20
46.70370691219889
 10
-84.46295878323279
 20
46.70364524987346
 10
-84.4629074391522
 20
46.70365123120007
 10
-84.46288182237548
 20
46.70343133519179
 10
-84.46292210678047
 20
46.70342664226165
 10
-84.46290961149403
 20
46.70331938194404
 10
-84.46286494029035
 20
46.70332458591415
 10
-84.4628222576587
 20
46.70295819554352
 10
-84.46284428127084
 20
46.70293114376394
 10
-84.46283316878387
 20
46.70287338350504
  0
LWPOLYLINE
  5
1E17
330
6F
100
AcDbEntity
  8
taxiway
100
AcDbPolyline
 90
       55
 70
     1
 43
0.0
 10
-84.46175998580169
 20
46.70266436537317
 10
-84.46172544748511
 20
46.70266838891296
 10
-84.46162626531865
 20
46.70263948777419
 10
-84.46161525851048
 20
46.70263262884008
 10
-84.46160434947691
 20
46.70262607163772
 10
-84.46152549550031
 20
46.70253029923699
 10
-84.46152108303039
 20
46.70251822576344
 10
-84.46154097776759
 20
46.70248741402557
 10
-84.46162180314335
 20
46.70243453694419
 10
-84.4616360151728
 20
46.70242536638659
 10
-84.4617982211789
 20
46.70240340160885
 10
-84.46181448819622
 20
46.70240864576473
 10
-84.46226522761296
 20
46.70255083614872
 10
-84.46231611091882
 20
46.70261454683097
 10
-84.46231934188118
 20
46.70266539719797
 10
-84.46231483794594
 20
46.70268264259807
 10
-84.46228231769088
 20
46.70285827239292
 10
-84.46228034576733
 20
46.70287628744119
 10
-84.46227866837778
 20
46.70289414292895
 10
-84.4622733338546
 20
46.70307305603609
 10
-84.46227407331276
 20
46.70309069259766
 10
-84.4623970301771
 20
46.70418970529616
 10
-84.46239875043827
 20
46.70420447212561
 10
-84.4623888631068
 20
46.70424539044283
 10
-84.46238640122592
 20
46.70425006094742
 10
-84.46238427286159
 20
46.70425544409182
 10
-84.46235037845996
 20
46.70429402391107
 10
-84.46234598204325
 20
46.7042966026766
 10
-84.46205231367368
 20
46.70433081356162
 10
-84.46204156292756
 20
46.70433206596936
 10
-84.46201031620523
 20
46.70432080144824
 10
-84.46200658389075
 20
46.70431779190216
 10
-84.46200330146687
 20
46.70431541881446
 10
-84.46198465142218
 20
46.7042870307443
 10
-84.46198348538738
 20
46.70427702142895
 10
-84.46194950483024
 20
46.70398533020808
 10
-84.46203666676833
 20
46.70397179456406
 10
-84.46202916671738
 20
46.70390741365913
 10
-84.46194427289457
 20
46.70391730336164
 10
-84.46192256449371
 20
46.70373095709556
 10
-84.46202870368374
 20
46.7037169015561
 10
-84.46202170747497
 20
46.70365684566398
 10
-84.46191537394581
 20
46.70366923298423
 10
-84.46190287865938
 20
46.70356197266662
 10
-84.46199110892067
 20
46.70355169428584
 10
-84.46199010123626
 20
46.70354304426022
 10
-84.46198810746073
 20
46.7035259295667
 10
-84.46196631268692
 20
46.70333884186987
 10
-84.46187542563206
 20
46.7033494297537
 10
-84.46186332622167
 20
46.70324556766044
 10
-84.46194476003423
 20
46.70323608103169
 10
-84.46194264389701
 20
46.70321791597789
 10
-84.46190684148476
 20
46.70293370142417
 10
-84.46187391899618
 20
46.7026510927302
 10
-84.46175998580169
 20
46.70266436537317
  0
LWPOLYLINE
  5
1E18
330
6F
100
AcDbEntity
  8
taxiway
100
AcDbPolyline
 90
       45
 70
     1
 43
0.0
 10
-84.461136865275
 20
46.70773037479944
 10
-84.46113697018438
 20
46.70773718863745
 10
-84.46113072854258
 20
46.70780617635143
 10
-84.4611292198209
 20
46.70781311554494
 10
-84.4611276307139
 20
46.7078204398493
 10
-84.46110147420363
 20
46.70789318790625
 10
-84.46109755583197
 20
46.70790040781183
 10
-84.46109044191999
 20
46.70791513916314
 10
-84.46097675059469
 20
46.70803853994622
 10
-84.46096138323262
 20
46.70804746934788
 10
-84.46094658213519
 20
46.70805695902654
 10
-84.46078495717388
 20
46.70810165139648
 10
-84.46076855034267
 20
46.70810112035811
 10
-84.46076075512802
 20
46.70810140221732
 10
-84.46068421997956
 20
46.70809165610569
 10
-84.46067682369776
 20
46.70808944913973
 10
-84.46066987010876
 20
46.70808781684628
 10
-84.46060503962806
 20
46.70806242883702
 10
-84.4605992941762
 20
46.7080593406893
 10
-84.46059626609365
 20
46.70805700059653
 10
-84.45969934281135
 20
46.70738381786015
 10
-84.45966040062161
 20
46.70735541399547
 10
-84.45965225577426
 20
46.7073467812962
 10
-84.45959433887189
 20
46.70724312150917
 10
-84.45959120530638
 20
46.70723127479608
 10
-84.4595886092145
 20
46.70721974121643
 10
-84.45959241049887
 20
46.70710131401949
 10
-84.45959575604469
 20
46.70708971451297
 10
-84.45959922516228
 20
46.70707810061094
 10
-84.45966409225446
 20
46.70697854868047
 10
-84.45967297209733
 20
46.70697037504214
 10
-84.45968194971483
 20
46.70696250313551
 10
-84.45978900046547
 20
46.70691057889163
 10
-84.45980066780849
 20
46.706908593461
 10
-84.4598335379058
 20
46.7069047642603
 10
-84.46071633601569
 20
46.70680085811485
 10
-84.46077472368861
 20
46.70679405624522
 10
-84.46078405335908
 20
46.70679296938562
 10
-84.46083063992558
 20
46.70678754228542
 10
-84.46096713982262
 20
46.7068481051257
 10
-84.46097984058425
 20
46.70686090391381
 10
-84.46105072265515
 20
46.70699092118129
 10
-84.46105458064682
 20
46.70702403842221
 10
-84.46113117185817
 20
46.70768150215472
 10
-84.461136865275
 20
46.70773037479944
  0
LWPOLYLINE
  5
1E1A
330
6F
100
AcDbEntity
  8
taxiway
100
AcDbPolyline
 90
      355
 70
     1
 43
0.0
 10
-84.46247394910097
 20
46.71152608555821
 10
-84.46196423832983
 20
46.71114646726192
 10
-84.46174058966631
 20
46.71097913706202
 10
-84.46174655525451
 20
46.71098357730174
 10
-84.46179716447243
 20
46.71104224733759
 10
-84.46180078277011
 20
46.71104965387394
 10
-84.46180504771772
 20
46.7110572355764
 10
-84.46182844273458
 20
46.71114086922016
 10
-84.46182844324521
 20
46.71115001232283
 10
-84.46182882166894
 20
46.71115917402492
 10
-84.46181005475333
 20
46.71124321036462
 10
-84.46180617956818
 20
46.71125080098558
 10
-84.46180261331246
 20
46.7112583556178
 10
-84.46175405565469
 20
46.71131943493274
 10
-84.46174848708967
 20
46.711323778482
 10
-84.46153262833098
 20
46.71151575633667
 10
-84.46082260044681
 20
46.71196200563909
 10
-84.45818968132437
 20
46.71344569038974
 10
-84.4562036447801
 20
46.71456412824031
 10
-84.45543921294108
 20
46.7149524626966
 10
-84.45513413769029
 20
46.71503766357369
 10
-84.45512330834255
 20
46.71504092911887
 10
-84.45501265897092
 20
46.71503615913268
 10
-84.4550019616658
 20
46.71503195699218
 10
-84.45499164227381
 20
46.71502777345105
 10
-84.45490969938701
 20
46.71495440468101
 10
-84.4549040673783
 20
46.71494422676072
 10
-84.45476133529025
 20
46.7145990105561
 10
-84.45470282005215
 20
46.71421605303119
 10
-84.45441147402609
 20
46.71219409700212
 10
-84.45438890107034
 20
46.71202344492754
 10
-84.45431052170517
 20
46.71142374132798
 10
-84.45392685062964
 20
46.70850335968688
 10
-84.45393976645
 20
46.70811590089198
 10
-84.45394056985557
 20
46.7080964563602
 10
-84.45400325965429
 20
46.70791424337006
 10
-84.45401467399204
 20
46.70789825954803
 10
-84.45470037263605
 20
46.7069625540842
 10
-84.45505702844435
 20
46.70661214194742
 10
-84.45512001635822
 20
46.70655451678103
 10
-84.45532774574925
 20
46.70636586568387
 10
-84.45534713874966
 20
46.70636085102354
 10
-84.45554363313069
 20
46.70637572293062
 10
-84.45556222998623
 20
46.70638376426762
 10
-84.45527649540757
 20
46.70617106226934
 10
-84.45508848791048
 20
46.70603014075957
 10
-84.45485884613296
 20
46.70634302374529
 10
-84.45418727983254
 20
46.707259735904
 10
-84.45417878866795
 20
46.70727124598079
 10
-84.45405963673692
 20
46.70733917143603
 10
-84.45404513565049
 20
46.70734048499311
 10
-84.45340773201444
 20
46.70740703650333
 10
-84.45340773201444
 20
46.70740703650333
 10
-84.45335334303557
 20
46.70741268367688
 10
-84.45330039252162
 20
46.70741885214489
 10
-84.45281049392612
 20
46.70747755109665
 10
-84.45279776603127
 20
46.70747903383227
 10
-84.45275705893186
 20
46.70746235845996
 10
-84.45273147994823
 20
46.70742663640448
 10
-84.45272999001486
 20
46.70741384672374
 10
-84.45271558732583
 20
46.70729021314337
 10
-84.45244613902799
 20
46.70732160251211
 10
-84.45246057433415
 20
46.70748368367331
 10
-84.45245975430173
 20
46.7074857831837
 10
-84.45244337129505
 20
46.70750265895263
 10
-84.45244120757854
 20
46.70750397562946
 10
-84.45243932699431
 20
46.7075055724448
 10
-84.45242089734469
 20
46.70751348085076
 10
-84.45241453339725
 20
46.70751422221857
 10
-84.45231159809246
 20
46.70752621366279
 10
-84.45230393664123
 20
46.70752710618327
 10
-84.45228124452713
 20
46.70751885305485
 10
-84.45227819784516
 20
46.70751689087523
 10
-84.45227563105488
 20
46.70751474754182
 10
-84.45226271021994
 20
46.70749414634137
 10
-84.45226184649047
 20
46.70748673203369
 10
-84.4522339264351
 20
46.70724706453832
 10
-84.45213265934956
 20
46.70725886164343
 10
-84.45216578337499
 20
46.7075432003425
 10
-84.45189287506687
 20
46.70757499278501
 10
-84.45188527540151
 20
46.70757587810771
 10
-84.45186221257207
 20
46.70756766816581
 10
-84.4518595366055
 20
46.70756566279968
 10
-84.45185727874468
 20
46.70756348347755
 10
-84.45184398719433
 20
46.70754292546358
 10
-84.45184312346487
 20
46.70753551115591
 10
-84.45181661416766
 20
46.70730795369638
 10
-84.45171003349495
 20
46.70732036980761
 10
-84.45173654279214
 20
46.70754792726715
 10
-84.45173736333517
 20
46.70755497085942
 10
-84.45172987565099
 20
46.70757563244676
 10
-84.45172778391194
 20
46.70757756698257
 10
-84.45172608027752
 20
46.70758014517453
 10
-84.45170700633523
 20
46.70759219922322
 10
-84.45169996274294
 20
46.70759301976623
 10
-84.45155075101125
 20
46.7076093375662
 10
-84.45154596470615
 20
46.70760964464902
 10
-84.4514967761231
 20
46.70759596130757
 10
-84.45149245174684
 20
46.70759270761172
 10
-84.45148798519936
 20
46.70758984622448
 10
-84.4514563614523
 20
46.70754900428443
 10
-84.4514544263429
 20
46.70754421976304
 10
-84.45143978065125
 20
46.70742656380909
 10
-84.45143974408894
 20
46.70742356209728
 10
-84.45144690258642
 20
46.70738878574452
 10
-84.4514481389409
 20
46.70738488425156
 10
-84.45144946166832
 20
46.70738172418935
 10
-84.45147254468514
 20
46.70734978954021
 10
-84.45147560041151
 20
46.70734699121195
 10
-84.451478768308
 20
46.70734461818723
 10
-84.45151405658911
 20
46.7073266046639
 10
-84.45151768456776
 20
46.7073254931543
 10
-84.45152128674923
 20
46.70732469777191
 10
-84.45155693657538
 20
46.70732430221073
 10
-84.45156002466012
 20
46.70732500707919
 10
-84.45160277317734
 20
46.70733286509404
 10
-84.45158660704061
 20
46.70719409396885
 10
-84.45157506205926
 20
46.70719712975976
 10
-84.45147851478521
 20
46.70726073102759
 10
-84.45147109079661
 20
46.70727011280301
 10
-84.45144375556989
 20
46.70728006065419
 10
-84.45140178596959
 20
46.70699612617601
 10
-84.45161990884923
 20
46.7069638899004
 10
-84.45171535672864
 20
46.70700750442763
 10
-84.45186293438318
 20
46.70699651219007
 10
-84.45187491542631
 20
46.7069359364025
 10
-84.45182641451131
 20
46.7068991271726
 10
-84.45179578676755
 20
46.7066501935763
 10
-84.45135636425629
 20
46.70670244869906
 10
-84.45107778912264
 20
46.70469873161084
 10
-84.44988874590102
 20
46.70483962888078
 10
-84.44994269911125
 20
46.70523019441591
 10
-84.4506154954902
 20
46.70513684979731
 10
-84.4506807799247
 20
46.70560694340019
 10
-84.45000528356567
 20
46.70570022680646
 10
-84.45006376364732
 20
46.7061205125683
 10
-84.45008353513443
 20
46.70611820928971
 10
-84.45081469969846
 20
46.7060479995341
 10
-84.45082230057394
 20
46.70604604945564
 10
-84.45090375234938
 20
46.70603994245181
 10
-84.45091246174065
 20
46.70604105708116
 10
-84.45092100736747
 20
46.70604237866145
 10
-84.45100544130392
 20
46.7060726221483
 10
-84.45101319027527
 20
46.70607785662324
 10
-84.45102093924662
 20
46.70608309109815
 10
-84.45108276763772
 20
46.70614721759191
 10
-84.45108731272387
 20
46.70615451616206
 10
-84.45109196278236
 20
46.70616217824987
 10
-84.45111961389132
 20
46.7062388031429
 10
-84.45112046322535
 20
46.70624609387878
 10
-84.45127258137537
 20
46.70732718057405
 10
-84.45120261330599
 20
46.7073394020874
 10
-84.45118439823891
 20
46.70724163813556
 10
-84.45085647207593
 20
46.7073016331715
 10
-84.45089715373432
 20
46.7076508470627
 10
-84.45090969303267
 20
46.70773536959653
 10
-84.45095149749803
 20
46.70772974809423
 10
-84.45097863936453
 20
46.70792510554629
 10
-84.45122928742328
 20
46.70788876712925
 10
-84.45121685303433
 20
46.70781105843339
 10
-84.45121630600567
 20
46.70780636270519
 10
-84.45123525968487
 20
46.707762634721
 10
-84.45123938016697
 20
46.70775983760286
 10
-84.45124378378142
 20
46.70775732062324
 10
-84.45129094616756
 20
46.70775683639479
 10
-84.45129500601096
 20
46.70775943203902
 10
-84.45137322518004
 20
46.70780943733207
 10
-84.45144535550294
 20
46.70837592648964
 10
-84.45030215633975
 20
46.70856039281291
 10
-84.45028149709596
 20
46.7084357346065
 10
-84.4501994633873
 20
46.70844867283762
 10
-84.4503056350114
 20
46.70910632281623
 10
-84.45063030229846
 20
46.71111757102692
 10
-84.45068135429972
 20
46.71141334807723
 10
-84.4507617603163
 20
46.71210355833528
 10
-84.45097529237713
 20
46.71207868292635
 10
-84.45097087296133
 20
46.71204074638544
 10
-84.45106874182256
 20
46.71202934515635
 10
-84.45140270313091
 20
46.71197653773059
 10
-84.45143731176719
 20
46.71195860338246
 10
-84.45168773000869
 20
46.71192943091938
 10
-84.4516796397426
 20
46.71185998357088
 10
-84.45167977955653
 20
46.71185527045339
 10
-84.45169136937522
 20
46.71180638837959
 10
-84.45169388584425
 20
46.71180164889135
 10
-84.45169644549975
 20
46.71179728011849
 10
-84.45173177893993
 20
46.71176191437601
 10
-84.45173586642715
 20
46.7117593715992
 10
-84.45184603966334
 20
46.71174822783119
 10
-84.45185615395109
 20
46.71174742531403
 10
-84.45194219483145
 20
46.71178662476219
 10
-84.45194791263956
 20
46.71179485133094
 10
-84.45196873417208
 20
46.71182467729248
 10
-84.45204601259696
 20
46.71238267604792
 10
-84.45171545804674
 20
46.71242118398709
 10
-84.45171784769826
 20
46.71244169690498
 10
-84.45149220560157
 20
46.71246798307204
 10
-84.45147061236463
 20
46.71228262538033
 10
-84.45141234826353
 20
46.71228941285447
 10
-84.45143200995849
 20
46.71247324207796
 10
-84.45084932334081
 20
46.71254287561544
 10
-84.4509678033126
 20
46.71340831984843
 10
-84.45110182162247
 20
46.71438618084587
 10
-84.45110323238059
 20
46.71439829088171
 10
-84.45112406410471
 20
46.71442874189996
 10
-84.45112780361695
 20
46.71443181323194
 10
-84.45113193543775
 20
46.71443502673517
 10
-84.45116698587844
 20
46.71444722587904
 10
-84.45117804555405
 20
46.71444593748255
 10
-84.45132491063178
 20
46.71442882844117
 10
-84.45132151329584
 20
46.71439966549768
 10
-84.45162784777435
 20
46.71436397907479
 10
-84.45174783598679
 20
46.71435000105275
 10
-84.451745453533
 20
46.71432954992075
 10
-84.452042458341
 20
46.71429495035747
 10
-84.45207951953328
 20
46.71461308594235
 10
-84.45208271533237
 20
46.71464051888073
 10
-84.45229382035391
 20
46.71461523734126
 10
-84.45225775410831
 20
46.7143201568775
 10
-84.4523551711762
 20
46.71438013746974
 10
-84.45240092469909
 20
46.7147879405707
 10
-84.45239226435594
 20
46.71480122383909
 10
-84.45235286777064
 20
46.71492642793392
 10
-84.4523574815256
 20
46.71496603269404
 10
-84.45218651994794
 20
46.71498594885624
 10
-84.45218182701777
 20
46.71494566445123
 10
-84.45212683756922
 20
46.71495207044485
 10
-84.45179999017284
 20
46.7149901465193
 10
-84.45171484920644
 20
46.71500006501278
 10
-84.45171715248504
 20
46.71501983649991
 10
-84.45140741978219
 20
46.7150559187988
 10
-84.45137828257291
 20
46.71506545032788
 10
-84.45142947160382
 20
46.71551883702551
 10
-84.4515977548783
 20
46.71567483168507
 10
-84.45190415114272
 20
46.71563913806443
 10
-84.45190083298195
 20
46.71561065476581
 10
-84.45229743665635
 20
46.71556445243655
 10
-84.45270092442545
 20
46.71551068470992
 10
-84.45291922040814
 20
46.71525899237692
 10
-84.45356337456447
 20
46.71516491384703
 10
-84.45400180729128
 20
46.71511383864395
 10
-84.45405407816034
 20
46.71510774935113
 10
-84.45419124227862
 20
46.7150890775735
 10
-84.45425282542888
 20
46.71508121457848
 10
-84.45426240345307
 20
46.71507903417217
 10
-84.45428155708121
 20
46.71507680287102
 10
-84.4543335878785
 20
46.71508370479581
 10
-84.45434032311487
 20
46.71508561302387
 10
-84.45434734868133
 20
46.71508786317629
 10
-84.45440960205422
 20
46.71512338343613
 10
-84.45441486939813
 20
46.71512828076418
 10
-84.45442032509353
 20
46.71513371976979
 10
-84.45445991062461
 20
46.7151939871316
 10
-84.45446238199753
 20
46.71520014954214
 10
-84.45446487075976
 20
46.71520699879529
 10
-84.45447380927566
 20
46.71527190099468
 10
-84.45447314816721
 20
46.71527805257713
 10
-84.45447275808994
 20
46.7152951318555
 10
-84.45441992727936
 20
46.71545177280787
 10
-84.45441006720704
 20
46.71546550896067
 10
-84.45421540954489
 20
46.71564111437799
 10
-84.45338044096535
 20
46.71616473091328
 10
-84.45234174536846
 20
46.71674470793089
 10
-84.45132271335543
 20
46.71731500456107
 10
-84.45131728396781
 20
46.7173183925309
 10
-84.45126463384957
 20
46.71733842862074
 10
-84.4512465305817
 20
46.71734053756022
 10
-84.45123952297814
 20
46.71734166703271
 10
-84.45116792044689
 20
46.71733717036508
 10
-84.45116051696734
 20
46.71733490161323
 10
-84.45115353458737
 20
46.71733302217616
 10
-84.45108949840488
 20
46.71729940046341
 10
-84.45108384174618
 20
46.71729492423496
 10
-84.45107855580282
 20
46.71729040482005
 10
-84.45103625940069
 20
46.71723965904764
 10
-84.4510332679434
 20
46.71723387034629
 10
-84.45097409914394
 20
46.71712860291584
 10
-84.45096774188362
 20
46.71712026296685
 10
-84.45087255089175
 20
46.71706165128232
 10
-84.450860688636
 20
46.71705927571142
 10
-84.45084889536394
 20
46.71705695472869
 10
-84.4507393051451
 20
46.71707310315438
 10
-84.4507297276945
 20
46.71707797634302
 10
-84.45016780339717
 20
46.71740539554989
 10
-84.45016003812069
 20
46.71741131011733
 10
-84.45010673957568
 20
46.71749028868005
 10
-84.45010409049045
 20
46.7174998030717
 10
-84.4501014342075
 20
46.71750925567744
 10
-84.45010771504138
 20
46.7176040261994
 10
-84.4501111683645
 20
46.71761270444242
 10
-84.45116932176503
 20
46.71948389674216
 10
-84.45119336323603
 20
46.71952631084755
 10
-84.45152804570424
 20
46.71933777496351
 10
-84.45166828471499
 20
46.71925787406123
 10
-84.45166386969887
 20
46.71926083073989
 10
-84.45161299519247
 20
46.71927890649677
 10
-84.45160731088995
 20
46.71927956868938
 10
-84.45160165117446
 20
46.71928097951047
 10
-84.451543572494
 20
46.71928129507101
 10
-84.4515376578636
 20
46.71927998011489
 10
-84.45152620950972
 20
46.71927793207291
 10
-84.45143098310268
 20
46.71922170424123
 10
-84.45142387721388
 20
46.71921338887929
 10
-84.45121905687406
 20
46.71900071706413
 10
-84.45091744417377
 20
46.7184565777391
 10
-84.4508326315273
 20
46.71813924550369
 10
-84.45086022764279
 20
46.71801165864024
 10
-84.45110185996929
 20
46.71777052411325
 10
-84.45176451457113
 20
46.71736004114385
 10
-84.45223863104976
 20
46.71709006990168
 10
-84.45351189704707
 20
46.71636584686292
 10
-84.45430182130099
 20
46.71597109832685
 10
-84.45459669945854
 20
46.71588921458927
 10
-84.4546117488467
 20
46.71588508168427
 10
-84.45468799251797
 20
46.71588910030687
 10
-84.45475562126397
 20
46.71592399436286
 10
-84.45476645946719
 20
46.71593531927088
 10
-84.45498585452869
 20
46.7161618240552
 10
-84.45529555997138
 20
46.71670608523132
 10
-84.4553846794159
 20
46.71704533528102
 10
-84.45538509325478
 20
46.71705211313031
 10
-84.45537496871942
 20
46.71711948657669
 10
-84.45537227587417
 20
46.71712593747062
 10
-84.45537005151892
 20
46.71713264690984
 10
-84.45533289068363
 20
46.71718995620084
 10
-84.45532804494995
 20
46.7171945912903
 10
-84.45589770981078
 20
46.71687340952819
 10
-84.45603228967964
 20
46.71679761222931
 10
-84.45602783147704
 20
46.71680019819261
 10
-84.45597858920114
 20
46.71681777068085
 10
-84.45597321382809
 20
46.71681839688473
 10
-84.45596791763021
 20
46.71681970273347
 10
-84.45591196425732
 20
46.71682052219916
 10
-84.455906016632
 20
46.71681946158439
 10
-84.45589497498223
 20
46.71681767928542
 10
-84.45580152113025
 20
46.71676537817027
 10
-84.45579455620256
 20
46.71675773525547
 10
-84.455584155896
 20
46.71654984668862
 10
-84.45527416916766
 20
46.71600048308019
 10
-84.45519752812398
 20
46.71571620394256
 10
-84.45519313310631
 20
46.71569836699125
 10
-84.45519878287523
 20
46.71560978416639
 10
-84.4552408447948
 20
46.7155311126235
 10
-84.45525432322776
 20
46.7155183326867
 10
-84.45546860262338
 20
46.71531871077006
 10
-84.45614876084894
 20
46.71488376918213
 10
-84.45700026964525
 20
46.71439999626864
 10
-84.45884914870228
 20
46.71335834486486
 10
-84.46039261753686
 20
46.71248879340118
 10
-84.46127329175988
 20
46.71199304331987
 10
-84.46206980079699
 20
46.7115886976496
 10
-84.46233708760281
 20
46.71151510074171
 10
-84.46234863258416
 20
46.71151206495081
 10
-84.46246359792418
 20
46.71152109160271
 10
-84.46247394910097
 20
46.71152608555821
  0
LWPOLYLINE
  5
1E1B
330
6F
100
AcDbEntity
  8
taxiway
100
AcDbPolyline
 90
      107
 70
     1
 43
0.0
 10
-84.45282026002884
 20
46.71518522633184
 10
-84.45281457572633
 20
46.71518588852445
 10
-84.45275386789614
 20
46.71518137516701
 10
-84.45274760834751
 20
46.71517978727014
 10
-84.45274127981525
 20
46.71517814478511
 10
-84.45268178152113
 20
46.71515175985661
 10
-84.45267595689406
 20
46.71514799206404
 10
-84.45267079331237
 20
46.71514452300939
 10
-84.45262403208344
 20
46.71509899419665
 10
-84.45262004065014
 20
46.71509376035824
 10
-84.4526163179537
 20
46.71508868308658
 10
-84.45258932827483
 20
46.71503440067488
 10
-84.45258731399027
 20
46.71502893650863
 10
-84.452557796301
 20
46.71487124259376
 10
-84.45255519180127
 20
46.71486071198394
 10
-84.4525058894464
 20
46.71476487868571
 10
-84.45249884534353
 20
46.71475655612604
 10
-84.45236774575789
 20
46.71386126981532
 10
-84.45239963836085
 20
46.71382862201578
 10
-84.45249744543614
 20
46.71381722798444
 10
-84.45249635857654
 20
46.71380789831395
 10
-84.4524913633411
 20
46.71376501890128
 10
-84.45237763525083
 20
46.71378327760249
 10
-84.45233990228237
 20
46.71376525376855
 10
-84.45230363284212
 20
46.71345391463236
 10
-84.45245309292754
 20
46.71343650328565
 10
-84.45247034592382
 20
46.71358460408134
 10
-84.45271304092818
 20
46.71355633133646
 10
-84.45272076416534
 20
46.71355543161825
 10
-84.45270338880735
 20
46.71340628046232
 10
-84.45277543116354
 20
46.71339788789089
 10
-84.45274602117484
 20
46.71314543071478
 10
-84.45272896826722
 20
46.71314741729257
 10
-84.45254027413703
 20
46.71316939920775
 10
-84.45255670486961
 20
46.71330237806424
 10
-84.45228021297944
 20
46.71333458797598
 10
-84.45223733600869
 20
46.71296652938612
 10
-84.4524424651875
 20
46.7129426328706
 10
-84.45244611055546
 20
46.71294220820361
 10
-84.45245607483769
 20
46.71294549374722
 10
-84.45245683365774
 20
46.71294609421689
 10
-84.45245828231422
 20
46.71294724056806
 10
-84.45246407929749
 20
46.71295614678168
 10
-84.45246443198703
 20
46.71295917429065
 10
-84.45246961436392
 20
46.71300366013666
 10
-84.45253294490859
 20
46.71299628244738
 10
-84.45252359917795
 20
46.71292197140231
 10
-84.4525605471445
 20
46.71291766715042
 10
-84.45254446018298
 20
46.71277957567008
 10
-84.45243213342184
 20
46.71279266117166
 10
-84.45244240460484
 20
46.71288082964701
 10
-84.45222417681582
 20
46.71290625208462
 10
-84.4522080898543
 20
46.7127681606043
 10
-84.45234556347564
 20
46.71275214562025
 10
-84.45233407587362
 20
46.71265353532827
 10
-84.45219198627285
 20
46.71267346976814
 10
-84.45217264924586
 20
46.71253650839684
 10
-84.45217411535459
 20
46.71253189127028
 10
-84.45219597176084
 20
46.71248888974779
 10
-84.45219887633454
 20
46.71248479391569
 10
-84.45220215882141
 20
46.71248071668302
 10
-84.45223883352547
 20
46.71244826328558
 10
-84.45224286642451
 20
46.71244578949242
 10
-84.45268046121901
 20
46.71238698385445
 10
-84.45268247435643
 20
46.71238706245607
 10
-84.45270267885545
 20
46.71239385189592
 10
-84.45270423968208
 20
46.71239542355063
 10
-84.45270533622261
 20
46.71239623517518
 10
-84.45271226274135
 20
46.71240569867197
 10
-84.45271237070754
 20
46.71240662546042
 10
-84.45271309232877
 20
46.71240798175636
 10
-84.45271507839594
 20
46.71241589156131
 10
-84.45271538789901
 20
46.71241854835491
 10
-84.45272120030587
 20
46.71250661001124
 10
-84.45272152898194
 20
46.71251158167399
 10
-84.45270231191702
 20
46.71256003717117
 10
-84.45269837558248
 20
46.71256387745182
 10
-84.45269482735263
 20
46.7125683613886
 10
-84.45265638614408
 20
46.71259156429075
 10
-84.45264266967489
 20
46.71259316219031
 10
-84.4526574754377
 20
46.71272025578093
 10
-84.4526683335764
 20
46.71271723737933
 10
-84.45276290312818
 20
46.71265117365704
 10
-84.4527701573647
 20
46.71264087229089
 10
-84.45277749498037
 20
46.71263074908469
 10
-84.45280841537018
 20
46.71251987142075
 10
-84.45280779942084
 20
46.71250867078406
 10
-84.45279582402985
 20
46.71242038771834
 10
-84.45279457881985
 20
46.71240969875811
 10
-84.45282699214367
 20
46.71237291971134
 10
-84.45283257867158
 20
46.71237195578698
 10
-84.45411259009585
 20
46.71220342734356
 10
-84.45411259009585
 20
46.71220342734356
 10
-84.45411713524494
 20
46.71220427559336
 10
-84.45415985433466
 20
46.71221564400266
 10
-84.45416375582761
 20
46.71221688035716
 10
-84.45416445400892
 20
46.71222287358919
 10
-84.45447484887866
 20
46.71477604514897
 10
-84.45446742202905
 20
46.71483270867845
 10
-84.45442739375597
 20
46.71489980829566
 10
-84.45439044611111
 20
46.71493260661131
 10
-84.45434831577458
 20
46.7149531706828
 10
-84.45424133610609
 20
46.71497452593956
 10
-84.45417553590926
 20
46.71498381956523
 10
-84.45404284496259
 20
46.7150027217337
 10
-84.45327881775773
 20
46.71511176686
 10
-84.45282026002884
 20
46.71518522633184
  0
LWPOLYLINE
  5
1E1C
330
6F
100
AcDbEntity
  8
taxiway
100
AcDbPolyline
 90
      181
 70
     1
 43
0.0
 10
-84.45358339878378
 20
46.70770758487587
 10
-84.45399475016461
 20
46.71090911929375
 10
-84.45413136979835
 20
46.71197704425684
 10
-84.45414083069291
 20
46.71205234387627
 10
-84.45414309027443
 20
46.71206260154534
 10
-84.45414384603772
 20
46.71206908906454
 10
-84.45413738654705
 20
46.7120867501502
 10
-84.45413560373745
 20
46.71208864869728
 10
-84.45413411125793
 20
46.71209088916877
 10
-84.45411870969081
 20
46.7121011376675
 10
-84.45411296360237
 20
46.71210180705784
 10
-84.4541009153524
 20
46.71210321061826
 10
-84.45221772299204
 20
46.71234338433758
 10
-84.45220431545234
 20
46.71234494624839
 10
-84.45216467667608
 20
46.71233152813934
 10
-84.45216054485525
 20
46.71232831463615
 10
-84.45215650361129
 20
46.71232534107878
 10
-84.4521321358215
 20
46.71228227611951
 10
-84.45213120788586
 20
46.71227699852107
 10
-84.45206882853572
 20
46.71181195218879
 10
-84.45214340575768
 20
46.71169630184593
 10
-84.45228982037127
 20
46.71167586356382
 10
-84.45235664653024
 20
46.71164634798688
 10
-84.45238126438757
 20
46.71163565208078
 10
-84.45248321359434
 20
46.71155445030303
 10
-84.45255192351332
 20
46.7114438045549
 10
-84.45255976216628
 20
46.7114180921296
 10
-84.45252790837178
 20
46.71103929311111
 10
-84.4524931710576
 20
46.710965810828
 10
-84.45239343244026
 20
46.7109756763911
 10
-84.4523745924001
 20
46.71105370930721
 10
-84.45227610567989
 20
46.71106518251376
 10
-84.4522875860842
 20
46.71116373101988
 10
-84.45236796953649
 20
46.7111543667528
 10
-84.4523773518855
 20
46.71116448352372
 10
-84.45243097059343
 20
46.71128661723105
 10
-84.45243216898658
 20
46.71130012974313
 10
-84.45243373089738
 20
46.71131353728283
 10
-84.45240714252928
 20
46.71144332385153
 10
-84.45240067169986
 20
46.71145497431585
 10
-84.45239423685917
 20
46.71146693370966
 10
-84.45229687649861
 20
46.71155849755527
 10
-84.45228465964371
 20
46.71156436708957
 10
-84.45227273732282
 20
46.71157007706336
 10
-84.45214069003233
 20
46.71158859112711
 10
-84.45212712356861
 20
46.71158610096589
 10
-84.45203825970997
 20
46.71154954748319
 10
-84.45200303974845
 20
46.71132839047042
 10
-84.45211895983556
 20
46.71129991913328
 10
-84.45211176928767
 20
46.71123819502194
 10
-84.45201766866667
 20
46.71125936504698
 10
-84.45199132181853
 20
46.71122780302972
 10
-84.45196440601989
 20
46.71110212019725
 10
-84.45196358547688
 20
46.71109507660496
 10
-84.45197137788658
 20
46.71107488051381
 10
-84.45197324108146
 20
46.71107259685586
 10
-84.45197502389106
 20
46.71107069830877
 10
-84.45199297848949
 20
46.7110587120336
 10
-84.45199934243687
 20
46.71105797066581
 10
-84.45208954984691
 20
46.71104746195716
 10
-84.4520819778185
 20
46.71098246319328
 10
-84.45199530118607
 20
46.71099425144286
 10
-84.4519913210915
 20
46.71099502822582
 10
-84.45196299696871
 20
46.71097659717715
 10
-84.45196214043695
 20
46.7109692446554
 10
-84.45177340901949
 20
46.70964912743373
 10
-84.45318766157779
 20
46.70944704999682
 10
-84.45314800315335
 20
46.70917274093322
 10
-84.45190470981543
 20
46.70935058139908
 10
-84.45191159500124
 20
46.70941559755229
 10
-84.4519102518277
 20
46.70942395782141
 10
-84.45185873029354
 20
46.70948056033433
 10
-84.45185085647732
 20
46.709482855331
 10
-84.45184727168516
 20
46.709484337556
 10
-84.45180744799886
 20
46.70948653446322
 10
-84.45180334254876
 20
46.7094856976151
 10
-84.45179947704451
 20
46.70948477019009
 10
-84.45176433908374
 20
46.70946644405083
 10
-84.45176163853011
 20
46.7094636900562
 10
-84.45168334792272
 20
46.7091120313586
 10
-84.45168049041772
 20
46.70908750235741
 10
-84.45172900323122
 20
46.7090115236598
 10
-84.451738606479
 20
46.70900633434395
 10
-84.451748554645
 20
46.70900141796884
 10
-84.45184865538093
 20
46.7090118631502
 10
-84.45185659869144
 20
46.70901876584434
 10
-84.4531007828291
 20
46.70884050848282
 10
-84.45307297507667
 20
46.70864911131581
 10
-84.45256312670816
 20
46.70872309756603
 10
-84.45254159551588
 20
46.70857267706069
 10
-84.4525131985902
 20
46.70857673665222
 10
-84.45181953832456
 20
46.70867752176032
 10
-84.45183107299531
 20
46.70874750721901
 10
-84.45183197328709
 20
46.70875792323848
 10
-84.45178578005728
 20
46.70884252438084
 10
-84.45177677727917
 20
46.70884695487663
 10
-84.45176786087399
 20
46.70885212680318
 10
-84.45167137066443
 20
46.70884633358996
 10
-84.45166288867017
 20
46.70884018251814
 10
-84.45166030990462
 20
46.70883578610145
 10
-84.45164090250184
 20
46.70877993152442
 10
-84.45164011074981
 20
46.7087731350757
 10
-84.45163974009743
 20
46.70876672794183
 10
-84.4516506768309
 20
46.7087009507372
 10
-84.45165368580338
 20
46.70869452564044
 10
-84.4516566185945
 20
46.70868798416963
 10
-84.45170030287473
 20
46.70863667836518
 10
-84.45170559849904
 20
46.70863267973411
 10
-84.45171099909567
 20
46.70862904462071
 10
-84.45176593650222
 20
46.70860767745852
 10
-84.4517712069029
 20
46.70860668773699
 10
-84.45175467699671
 20
46.70849382286563
 10
-84.4516337607857
 20
46.70850897360959
 10
-84.4516305143505
 20
46.70850690945139
 10
-84.45159980828456
 20
46.7084771703734
 10
-84.45159732729367
 20
46.70847307568847
 10
-84.45159482050556
 20
46.70846929713074
 10
-84.45158092994757
 20
46.70842263189963
 10
-84.45158071044781
 20
46.7084175222696
 10
-84.45158081427303
 20
46.70841250022262
 10
-84.45159352521931
 20
46.70836517840184
 10
-84.45159587371994
 20
46.70836114734946
 10
-84.45159840757828
 20
46.70835709470384
 10
-84.45162743102267
 20
46.70832615888357
 10
-84.45163053713324
 20
46.70832379305659
 10
-84.45197343090001
 20
46.70828046594336
 10
-84.45198053564167
 20
46.70828339574067
 10
-84.45202449000856
 20
46.70833977243761
 10
-84.45202530335382
 20
46.70834675424401
 10
-84.45247030411108
 20
46.70828163752604
 10
-84.45248371165078
 20
46.70828007561524
 10
-84.45245371864471
 20
46.70802261378145
 10
-84.45235949515142
 20
46.70803359034354
 10
-84.45236690634621
 20
46.70810580964956
 10
-84.45209502986191
 20
46.70813140732315
 10
-84.45207892462269
 20
46.7080221878197
 10
-84.45189593333152
 20
46.70804957994953
 10
-84.45190999052874
 20
46.70817024780684
 10
-84.4515526214727
 20
46.70821457234992
 10
-84.45152309377391
 20
46.70797615675166
 10
-84.4515259715922
 20
46.7079476405211
 10
-84.45157884712109
 20
46.70781879959213
 10
-84.4516781301052
 20
46.70772062408195
 10
-84.45170382654021
 20
46.70770736017544
 10
-84.45174625192825
 20
46.70775652531173
 10
-84.45176881908526
 20
46.7079066998836
 10
-84.45185704877294
 20
46.7078937287205
 10
-84.45184742207151
 20
46.70778206364131
 10
-84.45184744009733
 20
46.70777899294586
 10
-84.45185263163766
 20
46.70774507197768
 10
-84.45185387518987
 20
46.70774123227062
 10
-84.45185549964906
 20
46.70773797443376
 10
-84.45187804398209
 20
46.70770679140697
 10
-84.45188117588989
 20
46.70770410945276
 10
-84.45188427480273
 20
46.70770168183989
 10
-84.45191870706272
 20
46.70768545889745
 10
-84.45192237822778
 20
46.70768471810323
 10
-84.45192635112466
 20
46.70768387953438
 10
-84.45196035012093
 20
46.70768436515493
 10
-84.45196317666654
 20
46.70768497524259
 10
-84.45196982132605
 20
46.7076866435248
 10
-84.45200966431819
 20
46.70773460651159
 10
-84.45200989279939
 20
46.70774140595411
 10
-84.45201705450022
 20
46.70787007890782
 10
-84.45211626768214
 20
46.70785570297421
 10
-84.45209428576694
 20
46.70766700884402
 10
-84.45219277248714
 20
46.70765553563748
 10
-84.45220717517617
 20
46.70777916921784
 10
-84.4525256196905
 20
46.70774207203682
 10
-84.45251152650454
 20
46.70762109525004
 10
-84.4526760161686
 20
46.70760099366718
 10
-84.45292058207623
 20
46.70757964215293
 10
-84.4532563643513
 20
46.70754891687952
 10
-84.45331543166902
 20
46.70754203583469
 10
-84.4533499081997
 20
46.70753801949262
 10
-84.45336335892589
 20
46.70753682829721
 10
-84.45348827874122
 20
46.70757055917939
 10
-84.45349898681149
 20
46.70757807915895
 10
-84.45350980705185
 20
46.70758602444203
 10
-84.45358089148509
 20
46.70769466321549
 10
-84.45358339878378
 20
46.70770758487587
  0
LWPOLYLINE
  5
1E1D
330
6F
100
AcDbEntity
  8
taxiway
100
AcDbPolyline
 90
       62
 70
     1
 43
0.0
 10
-84.45089184812781
 20
46.71174998151228
 10
-84.45088855487583
 20
46.71175074090592
 10
-84.45084897724893
 20
46.71174107313718
 10
-84.4508452521322
 20
46.711738125377
 10
-84.45084379627795
 20
46.7117369172399
 10
-84.45082965647781
 20
46.71172090437504
 10
-84.4508283757897
 20
46.71171904958799
 10
-84.45082761817975
 20
46.71171738436259
 10
-84.45082104326637
 20
46.71169911248978
 10
-84.45082047821186
 20
46.71169748745702
 10
-84.45077774928087
 20
46.71140380940649
 10
-84.45077700791307
 20
46.71139744545908
 10
-84.45079176811148
 20
46.7113376105287
 10
-84.45079529895201
 20
46.71133243974931
 10
-84.4507990841339
 20
46.7113273019648
 10
-84.45085238102803
 20
46.71129454040037
 10
-84.45085864720082
 20
46.71129349730082
 10
-84.45104688188541
 20
46.71126649633246
 10
-84.45106074556893
 20
46.7113623874714
 10
-84.45114118303578
 20
46.71135026143837
 10
-84.45112528876252
 20
46.71126005517556
 10
-84.45133403757512
 20
46.7112295997999
 10
-84.45134796189741
 20
46.71132009817646
 10
-84.45141214846319
 20
46.7113109299063
 10
-84.45139873518083
 20
46.71122481832843
 10
-84.45161520723058
 20
46.71119346323457
 10
-84.45162760735149
 20
46.71127894134786
 10
-84.45169105968428
 20
46.71126992123651
 10
-84.45167693134193
 20
46.71118627268667
 10
-84.45179796156972
 20
46.71116672495243
 10
-84.4518023483684
 20
46.71116621391251
 10
-84.45184557078968
 20
46.71117276423195
 10
-84.45184948967195
 20
46.71117468742907
 10
-84.45185387704421
 20
46.71117686917142
 10
-84.45188502459293
 20
46.71120824767764
 10
-84.4518868589339
 20
46.71121216719645
 10
-84.45192492781059
 20
46.71153895280694
 10
-84.45192668406052
 20
46.71155402856588
 10
-84.45191096184741
 20
46.71159700435418
 10
-84.45190700691345
 20
46.71160122254794
 10
-84.45190348747455
 20
46.71160595362833
 10
-84.45186398628782
 20
46.71163134661776
 10
-84.45184996088912
 20
46.71163298050601
 10
-84.45162431879243
 20
46.71165926667309
 10
-84.45159565871222
 20
46.71146001549939
 10
-84.45150682556105
 20
46.71147318221173
 10
-84.45153584138758
 20
46.71166957384484
 10
-84.45139658553022
 20
46.71169018015829
 10
-84.45139291436509
 20
46.71169092095253
 10
-84.45135514591852
 20
46.71168173129177
 10
-84.45135177291778
 20
46.71167911825822
 10
-84.45134845450517
 20
46.71167643624105
 10
-84.45132893105002
 20
46.71164915190916
 10
-84.4513277578175
 20
46.71163908080793
 10
-84.45130735603475
 20
46.7115021182265
 10
-84.45122555927813
 20
46.71151440260994
 10
-84.45125311867684
 20
46.71170689332367
 10
-84.45106165252619
 20
46.71173464648793
 10
-84.45103318372831
 20
46.711542950583
 10
-84.45097140681252
 20
46.7115518381411
 10
-84.45100133337424
 20
46.71173346956895
 10
-84.45089184812781
 20
46.71174998151228
  0
LWPOLYLINE
  5
1E1E
330
6F
100
AcDbEntity
  8
taxiway
100
AcDbPolyline
 90
       42
 70
     1
 43
0.0
 10
-84.45069886442267
 20
46.71084599779242
 10
-84.45069658993501
 20
46.7108264734489
 10
-84.45071613280815
 20
46.71076952570293
 10
-84.45072051845968
 20
46.71076362909837
 10
-84.45072526043112
 20
46.71075756573553
 10
-84.45078659611608
 20
46.71072123746774
 10
-84.45079359652188
 20
46.71072004620934
 10
-84.45122302481282
 20
46.7106588728348
 10
-84.45124300606954
 20
46.7107981388837
 10
-84.4513309082283
 20
46.71078558162249
 10
-84.45131105296361
 20
46.71064417166657
 10
-84.45150688011578
 20
46.7106162235896
 10
-84.45152775694976
 20
46.71075726404025
 10
-84.45159897991009
 20
46.71074721344118
 10
-84.45157808453968
 20
46.7106001005833
 10
-84.45169640395929
 20
46.71058362411808
 10
-84.4517963792207
 20
46.71066610197468
 10
-84.45183316689869
 20
46.71098188969547
 10
-84.45183468562303
 20
46.71099492651978
 10
-84.45182163045803
 20
46.71103176754138
 10
-84.45181837376834
 20
46.71103552864681
 10
-84.45181509847927
 20
46.71103966766539
 10
-84.45178096489419
 20
46.71106167988274
 10
-84.45176860771475
 20
46.71106311943186
 10
-84.45152529287886
 20
46.71110918708872
 10
-84.45149761111848
 20
46.71091564601474
 10
-84.45142038772836
 20
46.71092633300925
 10
-84.45144350688735
 20
46.71112478931116
 10
-84.45124362950977
 20
46.71114807401834
 10
-84.45121075652393
 20
46.71095620231072
 10
-84.45113398302442
 20
46.71096752576363
 10
-84.4511628753421
 20
46.71115748147188
 10
-84.45101665506767
 20
46.7111795879732
 10
-84.45101100675385
 20
46.7111805590953
 10
-84.45097014741762
 20
46.71115075033417
 10
-84.45096917629552
 20
46.71114510202033
 10
-84.45094647957906
 20
46.71099381530232
 10
-84.45088569123761
 20
46.71100258769648
 10
-84.45090720529934
 20
46.71118726574335
 10
-84.45078882352021
 20
46.71120105662398
 10
-84.45074475316401
 20
46.71116679985184
 10
-84.45069886442267
 20
46.71084599779242
  0
LWPOLYLINE
  5
1E1F
330
6F
100
AcDbEntity
  8
taxiway
100
AcDbPolyline
 90
       30
 70
     1
 43
0.0
 10
-84.45164799087924
 20
46.71052069028177
 10
-84.45156932902417
 20
46.7105308559818
 10
-84.45154855684089
 20
46.71036168498504
 10
-84.45147317804623
 20
46.71037046623473
 10
-84.45149238882937
 20
46.71053537279444
 10
-84.45115083638944
 20
46.71057516193235
 10
-84.45110721528724
 20
46.71054529915664
 10
-84.45109599980051
 20
46.71046945244557
 10
-84.45070816972352
 20
46.71051463269498
 10
-84.45068114938639
 20
46.71028268843674
 10
-84.45124562534356
 20
46.71021692983257
 10
-84.45124503512843
 20
46.710211863389
 10
-84.45125609480403
 20
46.71021057499252
 10
-84.45124321083936
 20
46.71009997823646
 10
-84.45131624176989
 20
46.71009147050112
 10
-84.45132819894613
 20
46.71020217522333
 10
-84.45140030308818
 20
46.71019377545419
 10
-84.45138640424136
 20
46.71007446688664
 10
-84.45157948517023
 20
46.7100519739315
 10
-84.45159919487144
 20
46.71004967785065
 10
-84.45165567533754
 20
46.71006789742274
 10
-84.451661899471
 20
46.71007186917242
 10
-84.45166860648997
 20
46.71007622303919
 10
-84.4517115896718
 20
46.71013340174266
 10
-84.45171330101453
 20
46.71014002843928
 10
-84.45174508625928
 20
46.71041287496148
 10
-84.45174360327182
 20
46.71042594834811
 10
-84.45171372298089
 20
46.71048178324841
 10
-84.45166086215539
 20
46.71051775048179
 10
-84.45164799087924
 20
46.71052069028177
  0
LWPOLYLINE
  5
1E20
330
6F
100
AcDbEntity
  8
taxiway
100
AcDbPolyline
 90
       30
 70
     1
 43
0.0
 10
-84.45089358662846
 20
46.70971191843961
 10
-84.45113441850089
 20
46.70967947903235
 10
-84.45112429713446
 20
46.70960657345729
 10
-84.45120774560255
 20
46.70950310340703
 10
-84.45130297639552
 20
46.70947873312714
 10
-84.45133830984259
 20
46.70950411305027
 10
-84.45135522454483
 20
46.70964930990876
 10
-84.45142539714494
 20
46.70963938167136
 10
-84.45140516039975
 20
46.7094946970629
 10
-84.45142688418973
 20
46.70945647044379
 10
-84.4515351942311
 20
46.70944761033374
 10
-84.4515958128273
 20
46.70949866401442
 10
-84.45167684055064
 20
46.70985607841845
 10
-84.45157947165625
 20
46.70996154587462
 10
-84.45134950454676
 20
46.70998833588389
 10
-84.45132330764113
 20
46.70995913612623
 10
-84.45131087579152
 20
46.7098056516126
 10
-84.45123134772376
 20
46.70981698283681
 10
-84.45125120349906
 20
46.70996753589539
 10
-84.45123767028903
 20
46.70999973577695
 10
-84.45104497803844
 20
46.71002556517051
 10
-84.45102062418273
 20
46.70984553902885
 10
-84.45094011473837
 20
46.7098570472029
 10
-84.45095885129569
 20
46.70999476739427
 10
-84.45057865559977
 20
46.71004688632653
 10
-84.45053868008983
 20
46.70974781494009
 10
-84.45058803115735
 20
46.70970806074113
 10
-84.45059402438941
 20
46.7097073625598
 10
-84.45088493825375
 20
46.70966670912573
 10
-84.45089358662846
 20
46.70971191843961
  0
LWPOLYLINE
  5
1E21
330
6F
100
AcDbEntity
  8
taxiway
100
AcDbPolyline
 90
       42
 70
     1
 43
0.0
 10
-84.45054931437139
 20
46.70951010637176
 10
-84.45054509433093
 20
46.70951097373158
 10
-84.45049659316412
 20
46.70949996578314
 10
-84.45049209062789
 20
46.70949679546643
 10
-84.45048767866856
 20
46.70949386509553
 10
-84.45046108537637
 20
46.70945212401085
 10
-84.45046016043457
 20
46.70944740968323
 10
-84.45040350298423
 20
46.70912448040664
 10
-84.45040232975166
 20
46.70911440930539
 10
-84.45042996575187
 20
46.7090796271539
 10
-84.45043997506722
 20
46.7090784611191
 10
-84.45067229004086
 20
46.70905139759549
 10
-84.45068197820651
 20
46.70913456141316
 10
-84.450749015905
 20
46.70912675185915
 10
-84.45073649399596
 20
46.70904291616792
 10
-84.45106933710757
 20
46.70899556208031
 10
-84.45108129459866
 20
46.70907401520072
 10
-84.45114443800193
 20
46.70906503107811
 10
-84.45113371801248
 20
46.70898806202933
 10
-84.45149772287255
 20
46.70893081531526
 10
-84.45150048763231
 20
46.70893143260065
 10
-84.45152568710804
 20
46.70894615706906
 10
-84.45152763603934
 20
46.70894837237993
 10
-84.45152967554754
 20
46.70895082763661
 10
-84.45154216502833
 20
46.70897686478592
 10
-84.45154248172917
 20
46.70897958336539
 10
-84.4515809398508
 20
46.70925165253107
 10
-84.45158197995652
 20
46.70925735543304
 10
-84.45156788443396
 20
46.70931429483411
 10
-84.45156373573444
 20
46.70931953759096
 10
-84.45156000093676
 20
46.70932510787674
 10
-84.4515094148508
 20
46.70935479817217
 10
-84.45150373054824
 20
46.70935546036477
 10
-84.45133932783072
 20
46.70937899616069
 10
-84.45131573024887
 20
46.70921460064091
 10
-84.45124487800393
 20
46.70922460805353
 10
-84.45126055081173
 20
46.70938817328639
 10
-84.45071994790955
 20
46.70948146100875
 10
-84.45069107272928
 20
46.70931799342459
 10
-84.45061563214876
 20
46.70932678187202
 10
-84.45063523161014
 20
46.70949502487018
 10
-84.45054931437139
 20
46.70951010637176
  0
LWPOLYLINE
  5
1E22
330
6F
100
AcDbEntity
  8
taxiway
100
AcDbPolyline
 90
       30
 70
     1
 43
0.0
 10
-84.45112989711542
 20
46.70859616528906
 10
-84.45111422425155
 20
46.70849979604213
 10
-84.45146167284841
 20
46.70844879913274
 10
-84.45150539086437
 20
46.70875150512201
 10
-84.45144723983556
 20
46.70885065041133
 10
-84.45130959881938
 20
46.70887006661355
 10
-84.45129306891319
 20
46.70875720174218
 10
-84.4512228963131
 20
46.70876712997958
 10
-84.45124074168601
 20
46.70888322332321
 10
-84.45103728187355
 20
46.70891231106423
 10
-84.45102013353482
 20
46.708796825388
 10
-84.45094500245733
 20
46.70880827062901
 10
-84.45096304936717
 20
46.70892609397777
 10
-84.45075967592766
 20
46.70895592314956
 10
-84.45074223967905
 20
46.70883796603745
 10
-84.4506626138367
 20
46.70884899552993
 10
-84.45067571787474
 20
46.70896739469835
 10
-84.45037812151552
 20
46.70901089321454
 10
-84.45032221568062
 20
46.70862775695614
 10
-84.45048617990925
 20
46.70860314500279
 10
-84.45049876239409
 20
46.70868803825202
 10
-84.45058327773017
 20
46.70867543716776
 10
-84.45056486698792
 20
46.7085899703932
 10
-84.45076824042741
 20
46.70856014122142
 10
-84.45078010065449
 20
46.70864743571277
 10
-84.45085016528834
 20
46.70863658068692
 10
-84.45083671907406
 20
46.70854427313
 10
-84.45105492832665
 20
46.70851277828517
 10
-84.45106836734321
 20
46.70860502405618
 10
-84.45112989711542
 20
46.70859616528906
  0
LWPOLYLINE
  5
1E23
330
6F
100
AcDbEntity
  8
taxiway
100
AcDbPolyline
 90
       25
 70
     1
 43
0.0
 10
-84.45207104774842
 20
46.7125164060161
 10
-84.45210986059519
 20
46.71276732943586
 10
-84.45206276840963
 20
46.71282754916228
 10
-84.45109053171256
 20
46.71296254050384
 10
-84.45108519952597
 20
46.7129635374231
 10
-84.451026266797
 20
46.71294792063001
 10
-84.4510207223084
 20
46.71294386970512
 10
-84.45101813691868
 20
46.71294210428484
 10
-84.45099629916796
 20
46.71291753190828
 10
-84.45099457999095
 20
46.7129146009638
 10
-84.45099322012763
 20
46.71291206653191
 10
-84.45098353801949
 20
46.71288432460108
 10
-84.45098287640044
 20
46.71288133308085
 10
-84.45095827361745
 20
46.71269970770358
 10
-84.450957805764
 20
46.71269569162027
 10
-84.45096845134195
 20
46.71265268099039
 10
-84.45097141770157
 20
46.71264857796056
 10
-84.4509746743912
 20
46.7126448168551
 10
-84.45100580626446
 20
46.71262284120007
 10
-84.45101680415419
 20
46.71262156000135
 10
-84.45202356177857
 20
46.71248185827734
 10
-84.45204018396863
 20
46.71248155011034
 10
-84.45204433980292
 20
46.71248281945973
 10
-84.45206998967984
 20
46.71250732348922
 10
-84.45207104774842
 20
46.7125164060161
  0
LWPOLYLINE
  5
1E24
330
6F
100
AcDbEntity
  8
taxiway
100
AcDbPolyline
 90
       34
 70
     1
 43
0.0
 10
-84.4518281181404
 20
46.71359523037312
 10
-84.45183878571006
 20
46.71369594017551
 10
-84.45164985405428
 20
46.71371588315607
 10
-84.45168835812602
 20
46.71364376327557
 10
-84.45168227603097
 20
46.71359155419241
 10
-84.4515046415764
 20
46.71361224771113
 10
-84.45151294605414
 20
46.71367547028963
 10
-84.4515596729521
 20
46.71373521884015
 10
-84.45137363561553
 20
46.71375689125229
 10
-84.45136234955034
 20
46.71366001096542
 10
-84.4512875886147
 20
46.71366872023763
 10
-84.45129992504011
 20
46.71376547816284
 10
-84.45117789789305
 20
46.71377969371047
 10
-84.45111015646636
 20
46.71373523124827
 10
-84.45102659561966
 20
46.71312222864878
 10
-84.45110466725267
 20
46.71304625083958
 10
-84.45111246960895
 20
46.71311322675221
 10
-84.4513441049377
 20
46.71308624240378
 10
-84.4513359067054
 20
46.71301586826683
 10
-84.45147004388832
 20
46.71300024196105
 10
-84.45148043023527
 20
46.71308939901074
 10
-84.45153937398124
 20
46.71308253236142
 10
-84.45152514735363
 20
46.71298943897716
 10
-84.45172991549803
 20
46.71295706760216
 10
-84.45174197891972
 20
46.71306062076593
 10
-84.45188884399746
 20
46.71304351172454
 10
-84.45187568651844
 20
46.71293056710439
 10
-84.4520618570448
 20
46.71290681257117
 10
-84.45212373912873
 20
46.71293968323519
 10
-84.4522199988904
 20
46.71357030691659
 10
-84.45214784851195
 20
46.7136449686855
 10
-84.45191423603452
 20
46.71367218336175
 10
-84.45190423836582
 20
46.7135863627505
 10
-84.4518281181404
 20
46.71359523037312
  0
LWPOLYLINE
  5
1E25
330
6F
100
AcDbEntity
  8
taxiway
100
AcDbPolyline
 90
       54
 70
     1
 43
0.0
 10
-84.45224896184951
 20
46.71377484588028
 10
-84.45227691617285
 20
46.71400674395824
 10
-84.45227653641305
 20
46.7140115476526
 10
-84.45225956344996
 20
46.71405830136207
 10
-84.45225633134736
 20
46.71406281109602
 10
-84.45225377169185
 20
46.71406717986889
 10
-84.45221796078023
 20
46.71410059725363
 10
-84.45221339040754
 20
46.71410275791338
 10
-84.45200604400822
 20
46.71413987597436
 10
-84.45200338721463
 20
46.71414018547744
 10
-84.45199618527194
 20
46.71413964673069
 10
-84.45199478279572
 20
46.71413943436571
 10
-84.45199412894803
 20
46.71413919741368
 10
-84.45198532961638
 20
46.71413408530042
 10
-84.45198457079632
 20
46.71413348483077
 10
-84.45198306035395
 20
46.71413234567733
 10
-84.45197407394388
 20
46.71411917681039
 10
-84.45197348372875
 20
46.71411411036681
 10
-84.45195950570672
 20
46.71399412215437
 10
-84.45189345658258
 20
46.71400181654446
 10
-84.45191050638422
 20
46.71413365866773
 10
-84.45152638346112
 20
46.71417840705237
 10
-84.45151428405068
 20
46.71407454495912
 10
-84.45131150273596
 20
46.71409816796031
 10
-84.451322041061
 20
46.71416551401472
 10
-84.45131944599038
 20
46.71417226664041
 10
-84.45127321179855
 20
46.7142129728514
 10
-84.4512564678204
 20
46.71421492344046
 10
-84.45125218599406
 20
46.71421579799804
 10
-84.45120627983488
 20
46.71420448774427
 10
-84.45120183908455
 20
46.71420131022981
 10
-84.45119779784063
 20
46.71419833667245
 10
-84.45117477844949
 20
46.71416469616447
 10
-84.45117336769133
 20
46.71415258612861
 10
-84.45114833119694
 20
46.71397207589133
 10
-84.45114820768811
 20
46.71396563996646
 10
-84.45116964974484
 20
46.713906717492
 10
-84.4511737726472
 20
46.71390179086239
 10
-84.45117830945141
 20
46.71389719176167
 10
-84.4512235633508
 20
46.71386849838548
 10
-84.45123931875457
 20
46.71386666296032
 10
-84.45143839291549
 20
46.71384347182391
 10
-84.45144268996966
 20
46.71388035800453
 10
-84.45152851058091
 20
46.71387036033585
 10
-84.45153623381806
 20
46.71386946061764
 10
-84.45153365065282
 20
46.71382417098139
 10
-84.45177572779821
 20
46.71379597021397
 10
-84.45178175231131
 20
46.71384768500995
 10
-84.45184069605726
 20
46.71384081836062
 10
-84.45183718559295
 20
46.71378649358788
 10
-84.45216470619895
 20
46.71373161837355
 10
-84.45217338202173
 20
46.71373029456193
 10
-84.4522449368477
 20
46.71376717360091
 10
-84.45224896184951
 20
46.71377484588028
  0
LWPOLYLINE
  5
1E26
330
6F
100
AcDbEntity
  8
taxiway
100
AcDbPolyline
 90
        5
 70
     1
 43
0.0
 10
-84.4630040677862
 20
46.7099397384257
 10
-84.46851128272653
 20
46.70434383423958
 10
-84.46794173299622
 20
46.70380911493757
 10
-84.46238474888945
 20
46.70950569294422
 10
-84.4630040677862
 20
46.7099397384257
  0
LWPOLYLINE
  5
1E27
330
6F
100
AcDbEntity
  8
term
100
AcDbPolyline
 90
        4
 70
     1
 43
0.0
 10
-84.46397635110278
 20
46.70300110176973
 10
-84.46375410723041
 20
46.7030269920608
 10
-84.46373340651392
 20
46.70284929582034
 10
-84.46395565038631
 20
46.70282340552929
  0
LWPOLYLINE
  5
1E28
330
6F
100
AcDbEntity
  8
term
100
AcDbPolyline
 90
        4
 70
     1
 43
0.0
 10
-84.46363791844875
 20
46.70286661951413
 10
-84.46366172859134
 20
46.70307100726219
 10
-84.46350046739954
 20
46.70308979337833
 10
-84.46347665725696
 20
46.70288540563025
  0
LWPOLYLINE
  5
1E29
330
6F
100
AcDbEntity
  8
term
100
AcDbPolyline
 90
        4
 70
     1
 43
0.0
 10
-84.46366535542971
 20
46.70312525585355
 10
-84.4636895326573
 20
46.70333279468237
 10
-84.46352722110527
 20
46.70335170316017
 10
-84.46350304387767
 20
46.70314416433135
  0
LWPOLYLINE
  5
1E2A
330
6F
100
AcDbEntity
  8
term
100
AcDbPolyline
 90
        4
 70
     1
 43
0.0
 10
-84.46321830916973
 20
46.7031260451076
 10
-84.46293001617323
 20
46.70315962978874
 10
-84.46290624201935
 20
46.70295555097016
 10
-84.46319453501587
 20
46.70292196628902
  0
LWPOLYLINE
  5
1E2B
330
6F
100
AcDbEntity
  8
term
100
AcDbPolyline
 90
        4
 70
     1
 43
0.0
 10
-84.46312539891771
 20
46.7037369356685
 10
-84.46310192706915
 20
46.7035354518576
 10
-84.46294808018505
 20
46.70355337424426
 10
-84.46297155203358
 20
46.70375485805516
  0
LWPOLYLINE
  5
1E2C
330
6F
100
AcDbEntity
  8
term
100
AcDbPolyline
 90
        4
 70
     1
 43
0.0
 10
-84.46259597196878
 20
46.70297841949493
 10
-84.46257219061719
 20
46.70277427889045
 10
-84.46241333907538
 20
46.7027927842945
 10
-84.46243712042699
 20
46.70299692489896
  0
LWPOLYLINE
  5
1E2D
330
6F
100
AcDbEntity
  8
term
100
AcDbPolyline
 90
        4
 70
     1
 43
0.0
 10
-84.4622279427927
 20
46.70289629474008
 10
-84.46219084561169
 20
46.70257785022571
 10
-84.46186974430373
 20
46.70261525690981
 10
-84.46190684148476
 20
46.70293370142417
  0
LWPOLYLINE
  5
1E2E
330
6F
100
AcDbEntity
  8
term
100
AcDbPolyline
 90
        4
 70
     1
 43
0.0
 10
-84.46212305871695
 20
46.70319689856063
 10
-84.46209788100269
 20
46.70298077149207
 10
-84.46191746618275
 20
46.70300178890935
 10
-84.46194264389701
 20
46.70321791597789
  0
LWPOLYLINE
  5
1E2F
330
6F
100
AcDbEntity
  8
term
100
AcDbPolyline
 90
        4
 70
     1
 43
0.0
 10
-84.46220110376076
 20
46.70400123501628
 10
-84.46217661703009
 20
46.70379103939386
 10
-84.4620177654883
 20
46.70380954479792
 10
-84.46204225221896
 20
46.70401974042031
  0
LWPOLYLINE
  5
1E30
330
6F
100
AcDbEntity
  8
term
100
AcDbPolyline
 90
        8
 70
     1
 43
0.0
 10
-84.46267558784189
 20
46.70380430362309
 10
-84.46259854082802
 20
46.70381327921191
 10
-84.46259252351266
 20
46.70376162620182
 10
-84.46254080871669
 20
46.7037676507149
 10
-84.46250222880008
 20
46.70343647830571
 10
-84.46256061647295
 20
46.70342967643608
 10
-84.46256741114483
 20
46.70348800232308
 10
-84.46263778528178
 20
46.70347980409079
  0
LWPOLYLINE
  5
1E31
330
6F
100
AcDbEntity
  8
term
100
AcDbPolyline
 90
       12
 70
     1
 43
0.0
 10
-84.46263438131479
 20
46.70339252647813
 10
-84.46254961106379
 20
46.70340240178515
 10
-84.46254250688884
 20
46.70334141910458
 10
-84.46247040274675
 20
46.70334981887373
 10
-84.46243619186171
 20
46.70305615050415
 10
-84.46250390920509
 20
46.70304826177493
 10
-84.46251184112076
 20
46.70311634983368
 10
-84.46259531386797
 20
46.70310662567933
 10
-84.46260319539945
 20
46.70317428123681
 10
-84.4625719935213
 20
46.70317791609837
 10
-84.4625755851964
 20
46.70320874726108
 10
-84.46261247137703
 20
46.70320445020693
  0
LWPOLYLINE
  5
1E32
330
6F
100
AcDbEntity
  8
term
100
AcDbPolyline
 90
        9
 70
     1
 43
0.0
 10
-84.46309266247945
 20
46.7033833518573
 10
-84.46308387403202
 20
46.70330791127677
 10
-84.46300509701307
 20
46.70331708840246
 10
-84.46299607104
 20
46.70323960888733
 10
-84.46290160040312
 20
46.70325061424041
 10
-84.46292542494122
 20
46.70345512556028
 10
-84.46301989557809
 20
46.70344412020718
 10
-84.46301388546048
 20
46.70339252898299
 10
-84.46309266247945
 20
46.7033833518573
  0
LWPOLYLINE
  5
1E33
330
6F
100
AcDbEntity
  8
term
100
AcDbPolyline
 90
        9
 70
     1
 43
0.0
 10
-84.46198810746073
 20
46.7035259295667
 10
-84.46196240431104
 20
46.70330529212765
 10
-84.46205687494792
 20
46.70329428677455
 10
-84.46206527471709
 20
46.70336639091665
 10
-84.46213737885916
 20
46.7033579911475
 10
-84.46214819707085
 20
46.70345085535104
 10
-84.46207609292878
 20
46.7034592551202
 10
-84.46208457187315
 20
46.70353203890715
 10
-84.46199010123626
 20
46.70354304426022
  0
LWPOLYLINE
  5
1E34
330
6F
100
AcDbEntity
  8
term
100
AcDbPolyline
 90
        7
 70
     1
 43
0.0
 10
-84.46140073591442
 20
46.70390315629978
 10
-84.46136614354886
 20
46.70360621327765
 10
-84.46097460631806
 20
46.70365182539179
 10
-84.46101580621409
 20
46.70400548786758
 10
-84.46111707329967
 20
46.70399369076247
 10
-84.46111046576916
 20
46.70393697130881
 10
-84.46111046576916
 20
46.70393697130881
  0
LWPOLYLINE
  5
1E35
330
6F
100
AcDbEntity
  8
term
100
AcDbPolyline
 90
        4
 70
     1
 43
0.0
 10
-84.4600743033882
 20
46.70390274624268
 10
-84.46004335753084
 20
46.7035500184526
 10
-84.45970103856247
 20
46.70358000223227
 10
-84.45973160230273
 20
46.70393321290784
  0
LWPOLYLINE
  5
1E36
330
6F
100
AcDbEntity
  8
term
100
AcDbPolyline
 90
        8
 70
     1
 43
0.0
 10
-84.45980620917071
 20
46.7029313612506
 10
-84.45984447958428
 20
46.70325987686624
 10
-84.46029434270206
 20
46.70320747008021
 10
-84.4602560722885
 20
46.70287895446459
 10
-84.45995974712536
 20
46.70291347485269
 10
-84.45995022450787
 20
46.70283173211065
 10
-84.45979668655324
 20
46.70284961850856
 10
-84.45980620917071
 20
46.7029313612506
  0
LWPOLYLINE
  5
1E37
330
6F
100
AcDbEntity
  8
term
100
AcDbPolyline
 90
        4
 70
     1
 43
0.0
 10
-84.4603525989717
 20
46.70547776926611
 10
-84.45987106554879
 20
46.70552710204804
 10
-84.45983490693564
 20
46.70516940794628
 10
-84.46031606843309
 20
46.70512118310656
  0
LWPOLYLINE
  5
1E38
330
6F
100
AcDbEntity
  8
term
100
AcDbPolyline
 90
       10
 70
     1
 43
0.0
 10
-84.45840862116146
 20
46.70426293235618
 10
-84.45835535784372
 20
46.70380571671661
 10
-84.45785353278635
 20
46.70386417680671
 10
-84.45788251091029
 20
46.704112926829
 10
-84.45751012730765
 20
46.70415630764199
 10
-84.45750313109884
 20
46.70409625174987
 10
-84.45744307520675
 20
46.70410324795862
 10
-84.45743268885978
 20
46.70401409090891
 10
-84.45693660989086
 20
46.70407188160865
 10
-84.4569750733075
 20
46.70441603083999
  0
LWPOLYLINE
  5
1E39
330
6F
100
AcDbEntity
  8
term
100
AcDbPolyline
 90
        6
 70
     1
 43
0.0
 10
-84.45685457341859
 20
46.70442937960136
 10
-84.45681236583817
 20
46.70406706709994
 10
-84.45661860526442
 20
46.70408963923027
 10
-84.45659603313407
 20
46.70389587865654
 10
-84.45629402366838
 20
46.70393106123722
 10
-84.45635817717526
 20
46.70448175893932
  0
LWPOLYLINE
  5
1E3A
330
6F
100
AcDbEntity
  8
term
100
AcDbPolyline
 90
        4
 70
     1
 43
0.0
 10
-84.45216945943078
 20
46.70685709756321
 10
-84.45182641451131
 20
46.7068991271726
 10
-84.45178958231085
 20
46.7065969341329
 10
-84.45213261582862
 20
46.70655534422254
  0
LWPOLYLINE
  5
1E3B
330
6F
100
AcDbEntity
  8
term
100
AcDbPolyline
 90
        4
 70
     1
 43
0.0
 10
-84.45191250588022
 20
46.70729678279513
 10
-84.45160277317734
 20
46.70733286509404
 10
-84.45157610552975
 20
46.70710394834476
 10
-84.45188583823258
 20
46.70706786604586
  0
LWPOLYLINE
  5
1E3C
330
6F
100
AcDbEntity
  8
term
100
AcDbPolyline
 90
        4
 70
     1
 43
0.0
 10
-84.4523197470464
 20
46.70723706686962
 10
-84.45201600757554
 20
46.70727245098719
 10
-84.45199094502525
 20
46.70705731249299
 10
-84.45229468449607
 20
46.70702192837541
  0
LWPOLYLINE
  5
1E3D
330
6F
100
AcDbEntity
  8
term
100
AcDbPolyline
 90
        4
 70
     1
 43
0.0
 10
-84.45271558732583
 20
46.70729021314337
 10
-84.4526812972656
 20
46.70699586512891
 10
-84.45241184896774
 20
46.70702725449767
 10
-84.45244613902799
 20
46.70732160251211
  0
LWPOLYLINE
  5
1E3E
330
6F
100
AcDbEntity
  8
term
100
AcDbPolyline
 90
        4
 70
     1
 43
0.0
 10
-84.45089715373432
 20
46.7076508470627
 10
-84.45044926776521
 20
46.70770302352083
 10
-84.45040858610687
 20
46.70735380962964
 10
-84.45085647207593
 20
46.7073016331715
  0
LWPOLYLINE
  5
1E3F
330
6F
100
AcDbEntity
  8
term
100
AcDbPolyline
 90
        4
 70
     1
 43
0.0
 10
-84.45314800315335
 20
46.70917274093322
 10
-84.45190470981543
 20
46.70935058139908
 10
-84.45185659869144
 20
46.70901876584434
 10
-84.4531007828291
 20
46.70884050848282
  0
LWPOLYLINE
  5
1E40
330
6F
100
AcDbEntity
  8
term
100
AcDbPolyline
 90
        4
 70
     1
 43
0.0
 10
-84.45255690109311
 20
46.70801059354623
 10
-84.45223845657869
 20
46.70804769072726
 10
-84.45220717517617
 20
46.70777916921784
 10
-84.4525256196905
 20
46.70774207203682
  0
LWPOLYLINE
  5
1E41
330
6F
100
AcDbEntity
  8
term
100
AcDbPolyline
 90
        4
 70
     1
 43
0.0
 10
-84.45218674164989
 20
46.70800587021552
 10
-84.45170942865209
 20
46.70807637938101
 10
-84.45168604095204
 20
46.70791916121685
 10
-84.45216297603675
 20
46.70784863345192
  0
LWPOLYLINE
  5
1E42
330
6F
100
AcDbEntity
  8
term
100
AcDbPolyline
 90
        4
 70
     1
 43
0.0
 10
-84.4510132508962
 20
46.70816361777201
 10
-84.45097863936453
 20
46.70792510554629
 10
-84.45122928742328
 20
46.70788876712925
 10
-84.45126421508218
 20
46.70812730515214
  0
LWPOLYLINE
  5
1E43
330
6F
100
AcDbEntity
  8
term
100
AcDbPolyline
 90
        4
 70
     1
 43
0.0
 10
-84.45134680646459
 20
46.7087491881051
 10
-84.45045651461995
 20
46.70887907961661
 10
-84.45043025081549
 20
46.70869771036441
 10
-84.45132053546235
 20
46.70856775706698
  0
LWPOLYLINE
  5
1E44
330
6F
100
AcDbEntity
  8
term
100
AcDbPolyline
 90
        4
 70
     1
 43
0.0
 10
-84.45247030411108
 20
46.70828163752604
 10
-84.4517389706273
 20
46.70838856485736
 10
-84.45178192689233
 20
46.70868365678578
 10
-84.4525131985902
 20
46.70857673665222
  0
LWPOLYLINE
  5
1E45
330
6F
100
AcDbEntity
  8
term
100
AcDbPolyline
 90
        4
 70
     1
 43
0.0
 10
-84.45141437595605
 20
46.70920072918604
 10
-84.4508812858986
 20
46.70927679673191
 10
-84.45085704472363
 20
46.70910633899644
 10
-84.45139000101772
 20
46.70902966078934
  0
LWPOLYLINE
  5
1E46
330
6F
100
AcDbEntity
  8
term
100
AcDbPolyline
 90
        4
 70
     1
 43
0.0
 10
-84.45082947313911
 20
46.70930187047434
 10
-84.45052752545928
 20
46.70933704585729
 10
-84.45050632090064
 20
46.70915502460402
 10
-84.45080826858045
 20
46.70911984922108
  0
LWPOLYLINE
  5
1E47
330
6F
100
AcDbEntity
  8
term
100
AcDbPolyline
 90
        4
 70
     1
 43
0.0
 10
-84.45165545043648
 20
46.71073900667508
 10
-84.45076810934587
 20
46.71086573634071
 10
-84.4507891204538
 20
46.71101653055523
 10
-84.45167638536302
 20
46.71088968451557
  0
LWPOLYLINE
  5
1E48
330
6F
100
AcDbEntity
  8
term
100
AcDbPolyline
 90
        4
 70
     1
 43
0.0
 10
-84.45230719274331
 20
46.71133203580395
 10
-84.45225497309868
 20
46.71088377911948
 10
-84.45207295184541
 20
46.71090498367814
 10
-84.45212517149004
 20
46.7113532403626
  0
LWPOLYLINE
  5
1E49
330
6F
100
AcDbEntity
  8
term
100
AcDbPolyline
 90
        4
 70
     1
 43
0.0
 10
-84.45175265223406
 20
46.71214268143583
 10
-84.45146269101831
 20
46.71217646045612
 10
-84.45143731176719
 20
46.71195860338246
 10
-84.45172727298292
 20
46.71192482436217
  0
LWPOLYLINE
  5
1E4A
330
6F
100
AcDbEntity
  8
term
100
AcDbPolyline
 90
        4
 70
     1
 43
0.0
 10
-84.4527089729298
 20
46.71297577607005
 10
-84.45238280517832
 20
46.7130137729693
 10
-84.45240280051569
 20
46.71318541419182
 10
-84.45272896826722
 20
46.71314741729257
  0
LWPOLYLINE
  5
1E4B
330
6F
100
AcDbEntity
  8
term
100
AcDbPolyline
 90
        4
 70
     1
 43
0.0
 10
-84.45266278017623
 20
46.71276579198719
 10
-84.45235137925411
 20
46.71280206862521
 10
-84.45232427974181
 20
46.7125694447221
 10
-84.45263568066387
 20
46.71253316808408
  0
LWPOLYLINE
  5
1E4C
330
6F
100
AcDbEntity
  8
term
100
AcDbPolyline
 90
        4
 70
     1
 43
0.0
 10
-84.45200420084132
 20
46.71325802604354
 10
-84.45169286170514
 20
46.71329429548381
 10
-84.45166666191099
 20
46.71306939481786
 10
-84.45197800104715
 20
46.71303312537759
  0
LWPOLYLINE
  5
1E4D
330
6F
100
AcDbEntity
  8
term
100
AcDbPolyline
 90
        4
 70
     1
 43
0.0
 10
-84.45138591701306
 20
46.71334570909308
 10
-84.45135553532869
 20
46.71308491082085
 10
-84.45109603456028
 20
46.71311514135254
 10
-84.45112641624463
 20
46.71337593962477
  0
LWPOLYLINE
  5
1E4E
330
6F
100
AcDbEntity
  8
term
100
AcDbPolyline
 90
        4
 70
     1
 43
0.0
 10
-84.45168227603097
 20
46.71359155419241
 10
-84.45165888335763
 20
46.71339075002639
 10
-84.45144769916087
 20
46.71341535192099
 10
-84.45147109183421
 20
46.71361615608701
  0
LWPOLYLINE
  5
1E4F
330
6F
100
AcDbEntity
  8
term
100
AcDbPolyline
 90
        4
 70
     1
 43
0.0
 10
-84.45161670777151
 20
46.71319213397503
 10
-84.45143468651826
 20
46.71321333853369
 10
-84.45142105398801
 20
46.71309631604432
 10
-84.4516030752413
 20
46.71307511148567
  0
LWPOLYLINE
  5
1E50
330
6F
100
AcDbEntity
  8
term
100
AcDbPolyline
 90
        4
 70
     1
 43
0.0
 10
-84.45141295220016
 20
46.71365411601172
 10
-84.45123093094691
 20
46.7136753205704
 10
-84.45121511749974
 20
46.71353957695416
 10
-84.45139713875301
 20
46.71351837239551
  0
LWPOLYLINE
  5
1E51
330
6F
100
AcDbEntity
  8
term
100
AcDbPolyline
 90
        4
 70
     1
 43
0.0
 10
-84.45273905358092
 20
46.71377962556909
 10
-84.45271304092818
 20
46.71355633133646
 10
-84.45247034592382
 20
46.71358460408134
 10
-84.45249635857654
 20
46.71380789831395
  0
LWPOLYLINE
  5
1E52
330
6F
100
AcDbEntity
  8
term
100
AcDbPolyline
 90
        4
 70
     1
 43
0.0
 10
-84.45203259842315
 20
46.71398560722128
 10
-84.45171854070752
 20
46.71402219336237
 10
-84.45169932992438
 20
46.71385728680264
 10
-84.45201338764006
 20
46.71382070066155
  0
LWPOLYLINE
  5
1E53
330
6F
100
AcDbEntity
  8
term
100
AcDbPolyline
 90
        4
 70
     1
 43
0.0
 10
-84.45207951953328
 20
46.71461308594235
 10
-84.4517825147253
 20
46.71464768550565
 10
-84.451745453533
 20
46.71432954992075
 10
-84.452042458341
 20
46.71429495035747
  0
LWPOLYLINE
  5
1E54
330
6F
100
AcDbEntity
  8
term
100
AcDbPolyline
 90
        4
 70
     1
 43
0.0
 10
-84.45166393727097
 20
46.71467377356353
 10
-84.45135760279248
 20
46.71470945998643
 10
-84.45132151329584
 20
46.71439966549768
 10
-84.45162784777435
 20
46.71436397907479
  0
LWPOLYLINE
  5
1E55
330
6F
100
AcDbEntity
  8
term
100
AcDbPolyline
 90
        4
 70
     1
 43
0.0
 10
-84.4520926698707
 20
46.71465877279067
 10
-84.4517658224743
 20
46.71469684886511
 10
-84.45179999017284
 20
46.7149901465193
 10
-84.45212683756922
 20
46.71495207044485
  0
LWPOLYLINE
  5
1E56
330
6F
100
AcDbEntity
  8
term
100
AcDbPolyline
 90
        4
 70
     1
 43
0.0
 10
-84.45171715248504
 20
46.71501983649991
 10
-84.45168224341868
 20
46.71472017489829
 10
-84.45137251071583
 20
46.7147562571972
 10
-84.45140741978219
 20
46.7150559187988
  0
LWPOLYLINE
  5
1E57
330
6F
100
AcDbEntity
  8
term
100
AcDbPolyline
 90
        7
 70
     1
 43
0.0
 10
-84.45176439764159
 20
46.71133339579219
 10
-84.45175347305847
 20
46.71126058378783
 10
-84.45085396670732
 20
46.7113925507333
 10
-84.45087909925565
 20
46.7115652843554
 10
-84.45171797682588
 20
46.7114423843381
 10
-84.45170392542735
 20
46.71134219398352
 10
-84.45176439764159
 20
46.71133339579219
  0
LWPOLYLINE
  5
1E58
330
6F
100
AcDbEntity
  8
term
100
AcDbPolyline
 90
        8
 70
     1
 43
0.0
 10
-84.45159830833841
 20
46.71397601778061
 10
-84.45158523003456
 20
46.71386375280535
 10
-84.45152851058091
 20
46.71387036033585
 10
-84.45128217020862
 20
46.71389905774772
 10
-84.45130544771801
 20
46.7140988733394
 10
-84.45155178809029
 20
46.71407017592751
 10
-84.45154158888476
 20
46.71398262531113
 10
-84.45159830833841
 20
46.71397601778061
  0
LWPOLYLINE
  5
1E59
330
6F
100
AcDbEntity
  8
term
100
AcDbPolyline
 90
        9
 70
     1
 43
0.0
 10
-84.4518682744342
 20
46.71344106792846
 10
-84.45179444028701
 20
46.71344966923451
 10
-84.45180283285843
 20
46.71352171159067
 10
-84.45172912228301
 20
46.71353029850124
 10
-84.45173791073044
 20
46.71360573908176
 10
-84.4519645414015
 20
46.71357933775073
 10
-84.45195575295407
 20
46.71350389717022
 10
-84.45187666700563
 20
46.71351311028463
 10
-84.4518682744342
 20
46.71344106792846
  0
LWPOLYLINE
  5
1E5A
330
6F
100
AcDbEntity
  8
term
100
AcDbPolyline
 90
        4
 70
     1
 43
0.0
 10
-84.45152998861189
 20
46.71227570834678
 10
-84.45132485943307
 20
46.71229960486229
 10
-84.45131568230738
 20
46.71222082784334
 10
-84.45152081148622
 20
46.71219693132781
  0
LWPOLYLINE
  5
1E5B
330
6F
100
AcDbEntity
  8
term
100
AcDbPolyline
 90
       24
 70
     1
 43
0.0
 10
-84.45142308714657
 20
46.71215151539157
 10
-84.45142413750684
 20
46.71215139302989
 10
-84.45142638759632
 20
46.71215081778382
 10
-84.45142634440982
 20
46.71215044706844
 10
-84.45142702405471
 20
46.71215036789324
 10
-84.45142801326559
 20
46.71214649519124
 10
-84.45142801326559
 20
46.71214649519124
 10
-84.45140873050503
 20
46.71198097077255
 10
-84.4514086153411
 20
46.71197998219819
 10
-84.45140692075113
 20
46.71197779988224
 10
-84.45140616193105
 20
46.71197719941257
 10
-84.45140616193105
 20
46.71197719941257
 10
-84.4514051127809
 20
46.71197625701852
 10
-84.45140443313604
 20
46.71197633619371
 10
-84.45140443313604
 20
46.71197633619371
 10
-84.45140338277578
 20
46.71197645855539
 10
-84.45140270313091
 20
46.71197653773059
 10
-84.45106874182256
 20
46.71202934515635
 10
-84.45097087296133
 20
46.71204074638544
 10
-84.45098965907744
 20
46.71220200757722
 10
-84.45100457280643
 20
46.71233002795632
 10
-84.45128446292093
 20
46.71229742216858
 10
-84.45126954919194
 20
46.7121694017895
 10
-84.45142308714657
 20
46.71215151539157
  0
LWPOLYLINE
  5
1E5C
330
6F
100
AcDbEntity
  8
term
100
AcDbPolyline
 90
        4
 70
     1
 43
0.0
 10
-84.46203631170089
 20
46.70378220924948
 10
-84.46216433207998
 20
46.7037672955205
 10
-84.46214013325914
 20
46.70355957133399
 10
-84.46201211288004
 20
46.70357448506297
  0
LWPOLYLINE
  5
1E5D
330
6F
100
AcDbEntity
  8
term
100
AcDbPolyline
 90
        9
 70
     1
 43
0.0
 10
-84.45124562534356
 20
46.71021692983257
 10
-84.45068114938639
 20
46.71028268843674
 10
-84.45070816972352
 20
46.71051463269498
 10
-84.45127264568071
 20
46.7104488740908
 10
-84.45126631886228
 20
46.71039456428712
 10
-84.45160292843047
 20
46.71035535096886
 10
-84.45158164469658
 20
46.71017265007074
 10
-84.45124503512843
 20
46.710211863389
 10
-84.45124562534356
 20
46.71021692983257
  0
LWPOLYLINE
  5
1E5E
330
6F
100
AcDbEntity
  8
term
100
AcDbPolyline
 90
        8
 70
     1
 43
0.0
 10
-84.45089358662846
 20
46.70971191843961
 10
-84.45088493825375
 20
46.70966670912573
 10
-84.45059402438941
 20
46.7097073625598
 10
-84.45060099435336
 20
46.70975214115611
 10
-84.45062158378808
 20
46.70989985327354
 10
-84.45150795484082
 20
46.70977931117906
 10
-84.45148794007854
 20
46.70963115636881
 10
-84.45089358662846
 20
46.70971191843961
  0
LWPOLYLINE
  5
1E5F
330
6F
100
AcDbEntity
  8
term
100
AcDbPolyline
 90
        4
 70
     1
 43
0.0
 10
-84.45000528356567
 20
46.70570022680646
 10
-84.4506807799247
 20
46.70560694340019
 10
-84.4506154954902
 20
46.70513684979731
 10
-84.44994269911125
 20
46.70523019441591
  0
LWPOLYLINE
  5
1EB4
330
6F
100
AcDbEntity
  8
runway
100
AcDbPolyline
 90
        5
 70
     1
 43
0.0
 10
-84.45508848791048
 20
46.70603014075957
 10
-84.47105520631872
 20
46.71790995415205
 10
-84.47135224707418
 20
46.71751118952477
 10
-84.45538542369355
 20
46.70563101261466
 10
-84.45508848791048
 20
46.70603014075957
  0
LWPOLYLINE
  5
1EB5
330
6F
100
AcDbEntity
  8
runway
100
AcDbPolyline
 90
        4
 70
     0
 43
0.0
 10
-84.47462834112361
 20
46.70688169101078
 10
-84.45143777594065
 20
46.71995950506373
 10
-84.45119336323603
 20
46.71952631084755
 10
-84.47438384409622
 20
46.70644812439655
  0
LWPOLYLINE
  5
2303
330
6F
100
AcDbEntity
  8
taxiway
100
AcDbPolyline
 90
      193
 70
     0
 43
0.0
 10
-84.46238468567619
 20
46.70950575767036
 10
-84.46183630930795
 20
46.70905380884679
 10
-84.46165302390291
 20
46.70885397129787
 10
-84.46155638989976
 20
46.7085846087433
 10
-84.46140235016116
 20
46.70764991124911
 10
-84.46132810681389
 20
46.70699217400225
 10
-84.46123886699506
 20
46.70620248067833
 10
-84.46119672967133
 20
46.70583270768896
 10
-84.46111666035408
 20
46.70512442238041
 10
-84.46111658117883
 20
46.70512374273556
 10
-84.46111500181578
 20
46.7051160986736
 10
-84.46111469231274
 20
46.70511344188001
 10
-84.46111434682093
 20
46.70511047615694
 10
-84.46111355506891
 20
46.70510367970826
 10
-84.46111328155458
 20
46.70510133184417
 10
-84.46111368851054
 20
46.70507579630572
 10
-84.46111407693008
 20
46.70504418836006
 10
-84.46115834701883
 20
46.70489631011401
 10
-84.4612537023281
 20
46.70477517063319
 10
-84.46127933583007
 20
46.70475652835981
 10
-84.46161747239761
 20
46.70468150387118
 10
-84.46186862512401
 20
46.7046263819678
 10
-84.46237308289163
 20
46.70451526118321
 10
-84.46361588557961
 20
46.70439502969768
 10
-84.46677391095324
 20
46.70408863281658
 10
-84.46722334303862
 20
46.70407015604317
 10
-84.46723089709728
 20
46.70407102951656
 10
-84.4673067692277
 20
46.7040981998248
 10
-84.46731416608308
 20
46.70410309957307
 10
-84.46732187906572
 20
46.7041080251185
 10
-84.46738324731171
 20
46.70417734041749
 10
-84.46738732569155
 20
46.70418600846896
 10
-84.46739174898956
 20
46.70419494946116
 10
-84.46740881598476
 20
46.70428608372257
 10
-84.46740785371821
 20
46.70429502586194
 10
-84.46740718178165
 20
46.70430430992571
 10
-84.46738184944477
 20
46.70438090730772
 10
-84.46737776132101
 20
46.70438720762259
 10
-84.46794173299622
 20
46.70380911493757
 10
-84.46792008175036
 20
46.70378990653237
 10
-84.46779454439086
 20
46.70372399602583
 10
-84.46765421937802
 20
46.70370370790958
 10
-84.4676253911612
 20
46.70370675312956
 10
-84.46740461397117
 20
46.70373071907639
 10
-84.46399967202781
 20
46.70409957241974
 10
-84.46393853813367
 20
46.70300550679005
 10
-84.46383560282885
 20
46.7030174982343
 10
-84.463848628705
 20
46.7036459196082
 10
-84.46390418810363
 20
46.70412284494899
 10
-84.46357468391365
 20
46.70416123052649
 10
-84.46356337709444
 20
46.70416254771393
 10
-84.46353069190715
 20
46.70415076189833
 10
-84.46352690500456
 20
46.70414782133589
 10
-84.46352320867882
 20
46.7041451207193
 10
-84.4635040553655
 20
46.70411510041863
 10
-84.46350280295776
 20
46.70410434967251
 10
-84.46341115406253
 20
46.70331762984297
 10
-84.46352175081859
 20
46.70330474587827
 10
-84.4635127320433
 20
46.70322732814903
 10
-84.46340112875002
 20
46.70323694765273
 10
-84.46337972265444
 20
46.70305319639435
 10
-84.46349464442333
 20
46.70303980858744
 10
-84.46348707959264
 20
46.70297487160945
 10
-84.46338383535836
 20
46.70298689904242
 10
-84.46336751087125
 20
46.70284676862748
 10
-84.46336634483648
 20
46.70283675931212
 10
-84.46335271142469
 20
46.70281004130784
 10
-84.46335003666822
 20
46.70280697118597
 10
-84.46334795397355
 20
46.70280414521389
 10
-84.46331787226482
 20
46.7027846038028
 10
-84.46331431569007
 20
46.70278364038905
 10
-84.46183502237873
 20
46.70231720174153
 10
-84.46181552332179
 20
46.70231001699924
 10
-84.46161542650742
 20
46.70232174175597
 10
-84.46159682048152
 20
46.70233136156762
 10
-84.46141881219871
 20
46.70242518130829
 10
-84.46143371821934
 20
46.70254399679881
 10
-84.46146918233752
 20
46.70282530741535
 10
-84.46175174022718
 20
46.7030193416648
 10
-84.46189810638477
 20
46.70427575788516
 10
-84.46189954593387
 20
46.7042881150646
 10
-84.46188724901539
 20
46.70432286377353
 10
-84.46188396652857
 20
46.70432694100623
 10
-84.46188256163212
 20
46.70432885815272
 10
-84.46186424708344
 20
46.7043442054534
 10
-84.46186204018044
 20
46.70434515141486
 10
-84.46186005462385
 20
46.70434638471256
 10
-84.46184339039449
 20
46.70435170772881
 10
-84.46183739716245
 20
46.70435240591014
 10
-84.4611491640531
 20
46.70443258159883
 10
-84.46112803327626
 20
46.70443504322784
 10
-84.46107018441308
 20
46.70442819283441
 10
-84.46106248639949
 20
46.70442608364308
 10
-84.46105513330413
 20
46.7044242473925
 10
-84.4609851135076
 20
46.70438925613546
 10
-84.46097840769875
 20
46.70438383751296
 10
-84.46097210439011
 20
46.7043791861184
 10
-84.46092156657606
 20
46.70431844115921
 10
-84.4609175949523
 20
46.70431176465194
 10
-84.46091411761569
 20
46.70430503056273
 10
-84.46089398438775
 20
46.70424832117471
 10
-84.46089167391141
 20
46.70422848790168
 10
-84.46080803610703
 20
46.70351053577577
 10
-84.46092196930157
 20
46.70349726313282
 10
-84.46094043871687
 20
46.70365580574513
 10
-84.46097460631806
 20
46.70365182539179
 10
-84.46136614354886
 20
46.70360621327765
 10
-84.46142766612332
 20
46.70359729272463
 10
-84.46136049338937
 20
46.70305884538296
 10
-84.46075264443187
 20
46.70311944894616
 10
-84.46070235946965
 20
46.70284262035677
 10
-84.4606671516998
 20
46.7028473481285
 10
-84.46056954616132
 20
46.70286047216496
 10
-84.46057612075987
 20
46.70291099563961
 10
-84.46053934974315
 20
46.70291628126812
 10
-84.46053456738326
 20
46.70288114248189
 10
-84.46025966396357
 20
46.70290978562731
 10
-84.46028995590337
 20
46.70320798112015
 10
-84.46055932623613
 20
46.70317484735081
 10
-84.46060802726044
 20
46.70354398095091
 10
-84.46004763885344
 20
46.70360074645792
 10
-84.4600743033882
 20
46.70390274624268
 10
-84.4606484243806
 20
46.70385258475488
 10
-84.46070713339109
 20
46.70429526338224
 10
-84.46079833918819
 20
46.70487712779915
 10
-84.46082450210514
 20
46.70513127835512
 10
-84.46086153839557
 20
46.70548091691332
 10
-84.46086310750414
 20
46.70549438623893
 10
-84.46084914293999
 20
46.70553202206928
 10
-84.4608456205073
 20
46.70553618987884
 10
-84.46084234521821
 20
46.70554032889742
 10
-84.46080839820098
 20
46.7055612547658
 10
-84.46079634995102
 20
46.7055626583262
 10
-84.46003517476729
 20
46.70564350334914
 10
-84.45974289199522
 20
46.70568638285922
 10
-84.4597072775498
 20
46.70538066623968
 10
-84.45858502482012
 20
46.70552023306693
 10
-84.45859560550621
 20
46.70561105833587
 10
-84.45824555043705
 20
46.70566924756997
 10
-84.45824394400373
 20
46.70566943471136
 10
-84.45738346092024
 20
46.70575846688662
 10
-84.45733493459277
 20
46.70574401752736
 10
-84.45684412049931
 20
46.70538361540756
 10
-84.4568393378246
 20
46.70538072822316
 10
-84.45683629235276
 20
46.70537770128778
 10
-84.45680904463927
 20
46.70533303046876
 10
-84.45680691818456
 20
46.70532714099897
 10
-84.45680537238995
 20
46.70532193537798
 10
-84.4568040964725
 20
46.70526152622276
 10
-84.45680568436937
 20
46.70525526667414
 10
-84.45680743182675
 20
46.70524930165952
 10
-84.45683782315763
 20
46.70519785355792
 10
-84.45684202523516
 20
46.70519360657315
 10
-84.45684633228507
 20
46.70518972310603
 10
-84.45689162994453
 20
46.70516409322755
 10
-84.45689581399626
 20
46.70516291693824
 10
-84.4575098166347
 20
46.70507235090819
 10
-84.45770774624881
 20
46.70523447345154
 10
-84.45797080543862
 20
46.70520038403977
 10
-84.45797913577647
 20
46.70525684017066
 10
-84.45805091480989
 20
46.70524672479188
 10
-84.45805956216341
 20
46.70527364790043
 10
-84.45855781325672
 20
46.70521353755399
 10
-84.45845604943722
 20
46.70443137777964
 10
-84.45796622817026
 20
46.70449557867008
 10
-84.45795694441441
 20
46.70440190946618
 10
-84.45671019431193
 20
46.70455491499514
 10
-84.45611413665391
 20
46.7046355624756
 10
-84.45603192149041
 20
46.70480176374804
 10
-84.45562077493425
 20
46.70532090884715
 10
-84.45538851356198
 20
46.70563334550968
 10
-84.45584091389497
 20
46.7059704174061
 10
-84.45583238814062
 20
46.70596120283659
 10
-84.45577643227078
 20
46.70584911080299
 10
-84.45577402274672
 20
46.70583649087434
 10
-84.45577185316848
 20
46.70582378036882
 10
-84.45578723185553
 20
46.70569937025734
 10
-84.4557923433952
 20
46.70568787814342
 10
-84.45590114968252
 20
46.70553974618573
 10
-84.45597632062405
 20
46.70543886865994
 10
-84.45599117694618
 20
46.70542555245959
 10
-84.45617529025334
 20
46.7053701617633
 10
-84.4561950011017
 20
46.70537325124706
 10
-84.45670390966363
 20
46.70564975798824
 10
-84.45699731759896
 20
46.70580952520412
 10
-84.45724117967998
 20
46.70599178497667
 10
-84.45773059066066
 20
46.70635573226953
 10
-84.45854220697386
 20
46.70696107333516
 10
-84.45854338988736
 20
46.70696262639046
 10
-84.45954911425934
 20
46.70771287511104
 10
-84.46044058248274
 20
46.70837686130376
 10
-84.4613264546232
 20
46.70903742882604
 10
-84.46218994345482
 20
46.70969618801338
  0
LWPOLYLINE
  5
2307
330
6F
100
AcDbEntity
  8
taxiway
100
AcDbPolyline
 90
        1
 70
     1
 43
0.0
 10
-84.40958220997265
 20
46.71911324595138
  0
LWPOLYLINE
  5
2308
330
6F
100
AcDbEntity
  8
taxiway
100
AcDbPolyline
 90
        2
 70
     0
 43
0.0
 10
-84.46218994372491
 20
46.70969618801558
 10
-84.46219956819176
 20
46.70970377758909
  0
LWPOLYLINE
  5
2309
330
6F
100
AcDbEntity
  8
taxiway
100
AcDbPolyline
 90
      119
 70
     0
 43
0.0
 10
-84.46219956819176
 20
46.70970377758909
 10
-84.46277582325285
 20
46.7101743033904
 10
-84.46295160721481
 20
46.71039092141682
 10
-84.46295522493894
 20
46.71039563517085
 10
-84.46298458050771
 20
46.71044657337279
 10
-84.46298660199003
 20
46.71045209932493
 10
-84.46298833912994
 20
46.71045840989431
 10
-84.46299598256223
 20
46.71052133373488
 10
-84.4629954264262
 20
46.71052784883495
 10
-84.46299480850425
 20
46.71053437113277
 10
-84.46297642032723
 20
46.71059531757275
 10
-84.46297330338852
 20
46.71060081588107
 10
-84.46297017205436
 20
46.71060619061758
 10
-84.46293334486158
 20
46.71065131190765
 10
-84.46292895863644
 20
46.71065451572989
 10
-84.4625849566264
 20
46.71085121385061
 10
-84.46257093116473
 20
46.71085929805922
 10
-84.46241498253888
 20
46.71085917896387
 10
-84.46240037596949
 20
46.71085098590066
 10
-84.46240037596949
 20
46.71085098590066
 10
-84.46307852989038
 20
46.7113546417887
 10
-84.46304606534315
 20
46.71129260550219
 10
-84.46304265941044
 20
46.71128379648965
 10
-84.46303621003456
 20
46.71118704162121
 10
-84.46303872535644
 20
46.71117691656834
 10
-84.46304170197057
 20
46.71116698827487
 10
-84.46309611087803
 20
46.71108625212614
 10
-84.46310328708653
 20
46.71108065667975
 10
-84.46344864781279
 20
46.71088110742632
 10
-84.46345739624952
 20
46.71087664393563
 10
-84.46355153884688
 20
46.71085690938173
 10
-84.46356142637416
 20
46.71085738576898
 10
-84.46357205112825
 20
46.71085827726822
 10
-84.46366332705713
 20
46.71089242052732
 10
-84.46367080308773
 20
46.71089799992047
 10
-84.46405858676698
 20
46.71118141529424
 10
-84.46449300033199
 20
46.71150761930801
 10
-84.46450216318126
 20
46.71151262644889
 10
-84.46458460099176
 20
46.71158218009892
 10
-84.46459188383036
 20
46.71159147683745
 10
-84.46459910067915
 20
46.71160128225865
 10
-84.46464692183026
 20
46.71171181697007
 10
-84.46464873929253
 20
46.71172419274894
 10
-84.46465087288201
 20
46.71173659432497
 10
-84.46464245803849
 20
46.71185681146626
 10
-84.46463869859082
 20
46.71186808344389
 10
-84.46463525527036
 20
46.71187938121867
 10
-84.46458050131875
 20
46.71197274506736
 10
-84.46457351944941
 20
46.71198000873299
 10
-84.46542386386864
 20
46.71150075517142
 10
-84.465414059084
 20
46.71150421448218
 10
-84.4653067808035
 20
46.71151333014367
 10
-84.46529568456561
 20
46.71151161682836
 10
-84.46528464291585
 20
46.71150983452938
 10
-84.46518539068154
 20
46.71146904291747
 10
-84.46517681091266
 20
46.71146259011389
 10
-84.46433352690347
 20
46.71083269457162
 10
-84.46423214725619
 20
46.71076127696421
 10
-84.46422797224892
 20
46.71075769274562
 10
-84.46418944472346
 20
46.71071295823105
 10
-84.46418611853957
 20
46.7107075216457
 10
-84.46418314447162
 20
46.71070241978696
 10
-84.46416172335778
 20
46.71064379382599
 10
-84.46416067306051
 20
46.71063746586731
 10
-84.46415959696606
 20
46.71063145403585
 10
-84.46415884954078
 20
46.71056966820159
 10
-84.46415988136456
 20
46.71056347343268
 10
-84.46416116033196
 20
46.71055724987278
 10
-84.46418123526466
 20
46.7105021815009
 10
-84.46418403187218
 20
46.71049715888034
 10
-84.46444693122208
 20
46.71024559355372
 10
-84.4651511325695
 20
46.70980684907287
 10
-84.46641237662467
 20
46.70909285656995
 10
-84.46767381444535
 20
46.70837783950395
 10
-84.46814692407189
 20
46.70813685540259
 10
-84.46856461034959
 20
46.70792274339589
 10
-84.46885297455422
 20
46.70784568908691
 10
-84.46887000949894
 20
46.70784032288419
 10
-84.46895575921697
 20
46.70784154324151
 10
-84.46903228328549
 20
46.70788022311592
 10
-84.46904466791984
 20
46.70789299610685
 10
-84.46925476038112
 20
46.70811275654741
 10
-84.46956534700557
 20
46.70865866855345
 10
-84.46964997671456
 20
46.70897389287062
 10
-84.46965295906448
 20
46.70899089240022
 10
-84.46964050991601
 20
46.70907325338592
 10
-84.46959639294558
 20
46.70914396053568
 10
-84.46958308369111
 20
46.70915496728089
 10
-84.47027208463053
 20
46.70876690322606
 10
-84.47019828405185
 20
46.70877794297309
 10
-84.47018813377537
 20
46.70877843656077
 10
-84.4700927841812
 20
46.70874426686795
 10
-84.47008484087072
 20
46.70873736417379
 10
-84.46985385655723
 20
46.70850168858001
 10
-84.46977527952952
 20
46.70836367507164
 10
-84.46954458240567
 20
46.70795844177542
 10
-84.46951875932832
 20
46.70785611579579
 10
-84.46945669931567
 20
46.70761529023272
 10
-84.46945491542189
 20
46.70760535289483
 10
-84.46948600601139
 20
46.70751098824466
 10
-84.46949326082149
 20
46.70750337966082
 10
-84.46973196456081
 20
46.70726828511972
 10
-84.47169828229101
 20
46.70611475764581
 10
-84.47206842998944
 20
46.70590311504851
 10
-84.47241463864996
 20
46.70572519768125
 10
-84.47291375918236
 20
46.70546859593637
 10
-84.47320486445155
 20
46.70539222429754
 10
-84.47322082546813
 20
46.70538629433367
 10
-84.47330158231208
 20
46.7053854034865
 10
-84.47337357925732
 20
46.7054201644157
 10
-84.47338515672575
 20
46.70543202944702
 10
-84.47359853218376
 20
46.70565078119103
 10
-84.47367493613086
 20
46.70578460152004
 10
-84.47392527849862
 20
46.70622155129264
 10
-84.47399545998722
 20
46.70651779270321
 10
-84.47399988080208
 20
46.70653531352728
 10
-84.47399041540323
 20
46.70662033289231
 10
-84.47394451562324
 20
46.70669293858916
 10
-84.47393044501605
 20
46.70670365249648
  0
LWPOLYLINE
  5
2316
330
6F
100
AcDbEntity
  8
runway
100
AcDbPolyline
 90
        2
 70
     0
 43
0.0
 10
-84.47462834112361
 20
46.70688169101078
 10
-84.47462835559463
 20
46.70688168285015
  0
LINE
  5
2318
330
6F
100
AcDbEntity
  8
runway
100
AcDbLine
 10
-84.47462835479004
 20
46.70688168298851
 30
0.0
 11
-84.47438384568497
 21
46.70644812434875
 31
0.0
  0
ENDSEC
  0
SECTION
  2
OBJECTS
  0
DICTIONARY
  5
C
330
0
100
AcDbDictionary
281
     1
  3
ACAD_BACKGROUND
350
266
  3
ACAD_CIP_PREVIOUS_PRODUCT_INFO
350
265
  3
ACAD_COLOR
350
62
  3
ACAD_DETAILVIEWSTYLE
350
69
  3
ACAD_GROUP
350
D
  3
ACAD_LAYOUT
350
61
  3
ACAD_MATERIAL
350
10
  3
ACAD_MLEADERSTYLE
350
65
  3
ACAD_MLINESTYLE
350
5E
  3
ACAD_PLOTSETTINGS
350
60
  3
ACAD_PLOTSTYLENAME
350
E
  3
ACAD_SCALELIST
350
42
  3
ACAD_SECTIONVIEWSTYLE
350
67
  3
ACAD_TABLESTYLE
350
63
  3
ACAD_VISUALSTYLE
350
29
  3
ACDB_RECOMPOSE_DATA
350
2321
  3
AcDbVariableDictionary
350
1807
  0
DICTIONARY
  5
270
330
2
100
AcDbDictionary
280
     1
281
     1
  3
ACAD_LAYERSTATES
360
271
  0
DICTIONARY
  5
17F8
330
54
100
AcDbDictionary
280
     1
281
     1
  3
ADSK_XREC_LAYER_RECONCILED
360
17F9
  0
DICTIONARY
  5
D34
330
D33
100
AcDbDictionary
280
     1
281
     1
  3
ADSK_XREC_LAYER_RECONCILED
360
17FA
  0
DICTIONARY
  5
D36
330
D35
100
AcDbDictionary
280
     1
281
     1
  3
ADSK_XREC_LAYER_RECONCILED
360
17FB
  0
DICTIONARY
  5
D38
330
D37
100
AcDbDictionary
280
     1
281
     1
  3
ADSK_XREC_LAYER_RECONCILED
360
17FC
  0
DICTIONARY
  5
22FB
330
6F
100
AcDbDictionary
280
     1
281
     1
  3
ACAD_SORTENTS
360
22FC
  0
DICTIONARY
  5
266
102
{ACAD_REACTORS
330
C
102
}
330
C
100
AcDbDictionary
281
     1
  0
XRECORD
  5
265
102
{ACAD_REACTORS
330
C
102
}
330
C
100
AcDbXrecord
280
     1
300
ACD
300
2019
300
ACD_F_S
  0
DICTIONARY
  5
62
102
{ACAD_REACTORS
330
C
102
}
330
C
100
AcDbDictionary
281
     1
  0
DICTIONARY
  5
69
102
{ACAD_REACTORS
330
C
102
}
330
C
100
AcDbDictionary
281
     1
  3
Imperial24
350
6A
  3
Metric50
350
273
  0
DICTIONARY
  5
D
102
{ACAD_REACTORS
330
C
102
}
330
C
100
AcDbDictionary
281
     1
  0
DICTIONARY
  5
61
102
{ACAD_REACTORS
330
C
102
}
330
C
100
AcDbDictionary
281
     1
  3
Layout1
350
6E
  3
Model
350
72
  0
DICTIONARY
  5
10
102
{ACAD_REACTORS
330
C
102
}
330
C
100
AcDbDictionary
281
     1
  3
ByBlock
350
19
  3
ByLayer
350
11
  3
Global
350
21
  0
DICTIONARY
  5
65
102
{ACAD_REACTORS
330
C
102
}
330
C
100
AcDbDictionary
281
     1
  3
Standard
350
66
  0
DICTIONARY
  5
5E
102
{ACAD_REACTORS
330
C
102
}
330
C
100
AcDbDictionary
281
     1
  3
Standard
350
5F
  0
DICTIONARY
  5
60
102
{ACAD_REACTORS
330
C
102
}
330
C
100
AcDbDictionary
281
     1
  0
ACDBDICTIONARYWDFLT
  5
E
102
{ACAD_REACTORS
330
C
102
}
330
C
100
AcDbDictionary
281
     1
  3
Normal
350
F
100
AcDbDictionaryWithDefault
340
F
  0
DICTIONARY
  5
42
102
{ACAD_REACTORS
330
C
102
}
330
C
100
AcDbDictionary
281
     1
  3
A0
350
43
  3
A1
350
44
  3
A2
350
45
  3
A3
350
46
  3
A4
350
47
  3
A5
350
48
  3
A6
350
49
  3
A7
350
4A
  3
A8
350
4B
  3
A9
350
4C
  3
B0
350
4D
  3
B1
350
4E
  3
B2
350
4F
  3
B3
350
50
  3
B4
350
51
  3
B5
350
52
  3
B6
350
53
  0
DICTIONARY
  5
67
102
{ACAD_REACTORS
330
C
102
}
330
C
100
AcDbDictionary
281
     1
  3
Imperial24
350
68
  3
Metric50
350
272
  0
DICTIONARY
  5
63
102
{ACAD_REACTORS
330
C
102
}
330
C
100
AcDbDictionary
281
     1
  3
Standard
350
64
  0
DICTIONARY
  5
29
102
{ACAD_REACTORS
330
C
102
}
330
C
100
AcDbDictionary
281
     1
  3
2dWireframe
350
2F
  3
Basic
350
2E
  3
Brighten
350
35
  3
ColorChange
350
39
  3
Conceptual
350
32
  3
Dim
350
34
  3
EdgeColorOff
350
41
  3
Facepattern
350
38
  3
Flat
350
2A
  3
FlatWithEdges
350
2B
  3
Gouraud
350
2C
  3
GouraudWithEdges
350
2D
  3
Hidden
350
31
  3
JitterOff
350
3F
  3
Linepattern
350
37
  3
OverhangOff
350
40
  3
Realistic
350
33
  3
Shaded
350
3E
  3
Shaded with edges
350
3D
  3
Shades of Gray
350
3A
  3
Sketchy
350
3B
  3
Thicken
350
36
  3
Wireframe
350
30
  3
X-Ray
350
3C
  0
XRECORD
  5
2321
102
{ACAD_REACTORS
330
C
102
}
330
C
100
AcDbXrecord
280
     1
 90
        1
330
64
  0
DICTIONARY
  5
1807
102
{ACAD_REACTORS
330
C
102
}
330
C
100
AcDbDictionary
281
     1
  3
CANNOSCALE
350
180D
  3
CMLEADERSTYLE
350
1809
  3
CTABLESTYLE
350
1808
  3
CVIEWDETAILSTYLE
350
180A
  3
CVIEWSECTIONSTYLE
350
180B
  3
LAYEREVAL
350
180F
  3
LAYERNOTIFY
350
1810
  3
LIGHTINGUNITS
350
180E
  3
MSLTSCALE
350
180C
  0
DICTIONARY
  5
271
102
{ACAD_REACTORS
330
270
102
}
330
270
100
AcDbDictionary
281
     1
  0
XRECORD
  5
17F9
102
{ACAD_REACTORS
330
17F8
102
}
330
17F8
100
AcDbXrecord
280
     1
290
     1
  0
XRECORD
  5
17FA
102
{ACAD_REACTORS
330
D34
102
}
330
D34
100
AcDbXrecord
280
     1
290
     1
  0
XRECORD
  5
17FB
102
{ACAD_REACTORS
330
D36
102
}
330
D36
100
AcDbXrecord
280
     1
290
     1
  0
XRECORD
  5
17FC
102
{ACAD_REACTORS
330
D38
102
}
330
D38
100
AcDbXrecord
280
     1
290
     1
  0
SORTENTSTABLE
  5
22FC
102
{ACAD_REACTORS
330
22FB
102
}
330
22FB
100
AcDbSortentsTable
330
6F
331
1E14
  5
1E20
331
1E15
  5
1E23
331
1E16
  5
1E24
331
1E17
  5
1E25
331
1E18
  5
1E26
331
1E1A
  5
1E27
331
1E1B
  5
1E28
331
1E1C
  5
1E29
331
1E1D
  5
1E2A
331
1E1E
  5
1E2B
331
1E1F
  5
1E2C
331
1E20
  5
1E2D
331
1E21
  5
1E2E
331
1E22
  5
1E2F
331
1E23
  5
1E30
331
1E24
  5
1E31
331
1E25
  5
1E32
331
1E26
  5
1E33
331
1E27
  5
1E34
331
1E28
  5
1E35
331
1E29
  5
1E36
331
1E2A
  5
1E37
331
1E2B
  5
1E38
331
1E2C
  5
1E39
331
1E2D
  5
1E3A
331
1E2E
  5
1E3B
331
1E2F
  5
1E3C
331
1E30
  5
1E3D
331
1E31
  5
1E3E
331
1E32
  5
1E3F
331
1E33
  5
1E40
331
1E34
  5
1E41
331
1E35
  5
1E42
331
1E36
  5
1E43
331
1E37
  5
1E44
331
1E38
  5
1E45
331
1E39
  5
1E46
331
1E3A
  5
1E47
331
1E3B
  5
1E48
331
1E3C
  5
1E49
331
1E3D
  5
1E4A
331
1E3E
  5
1E4B
331
1E3F
  5
1E4C
331
1E40
  5
1E4D
331
1E41
  5
1E4E
331
1E42
  5
1E4F
331
1E43
  5
1E50
331
1E44
  5
1E51
331
1E45
  5
1E52
331
1E46
  5
1E53
331
1E47
  5
1E54
331
1E48
  5
1E55
331
1E49
  5
1E56
331
1E4A
  5
1E57
331
1E4B
  5
1E58
331
1E4C
  5
1E59
331
1E4D
  5
1E5A
331
1E4E
  5
1E5B
331
1E4F
  5
1E5C
331
1E50
  5
1E5D
331
1E51
  5
1E5E
331
1E52
  5
1E5F
331
1E53
  5
1EB4
331
1E54
  5
1EB5
331
1E55
  5
22FA
331
1E56
  5
22FD
331
1E57
  5
22FE
331
1E58
  5
22FF
331
1E59
  5
2300
331
1E5A
  5
2301
331
1E5B
  5
2303
331
1E5C
  5
2304
331
1E5D
  5
2305
331
1E5E
  5
2306
331
1E5F
  5
2307
331
1EB4
  5
2308
331
1EB5
  5
2309
331
2303
  5
1E21
331
2307
  5
1E1C
331
2308
  5
1E1E
331
2309
  5
1E1F
331
2316
  5
2317
  0
ACDBDETAILVIEWSTYLE
  5
6A
102
{ACAD_REACTORS
330
69
102
}
330
69
100
AcDbModelDocViewStyle
 70
     0
  3
Imperial24
290
     0
300
Imperial24
 90
        0
100
AcDbDetailViewStyle
 70
     0
 71
     0
 90
        3
 71
     1
340
55
 62
   256
 40
0.24
340
0
 62
   256
 40
0.24
300

 40
0.36
280
     3
 71
     2
340
5C
 90
       25
 62
   256
 71
     3
340
55
 62
   256
 40
0.24
 90
        1
 40
0.75
 90
        1
300
%<\AcVar ViewType \f "%tc1">% %<\AcVar ViewDetailId>%\PSCALE %<\AcVar ViewScale \f "%sn">%
 71
     4
340
5C
 90
       25
 62
   256
340
5C
 90
       25
 62
   256
280
     0
  0
ACDBDETAILVIEWSTYLE
  5
273
102
{ACAD_REACTORS
330
69
102
}
330
69
100
AcDbModelDocViewStyle
 70
     0
  3
Metric50
290
     0
300
Metric50
 90
        0
100
AcDbDetailViewStyle
 70
     0
 71
     0
 90
        3
 71
     1
340
55
 62
   256
 40
5.0
340
0
 62
   256
 40
5.0
300

 40
0.0
280
     1
 71
     2
340
5C
 90
       25
 62
   256
 71
     3
340
55
 62
   256
 40
5.0
 90
        0
 40
15.0
 90
        1
300
%<\AcVar ViewDetailId>% (%<\AcVar ViewScale \f "%sn">%)
 71
     4
340
5C
 90
       25
 62
   256
340
5C
 90
       25
 62
   256
280
     0
  0
LAYOUT
  5
6E
102
{ACAD_REACTORS
330
61
102
}
330
61
100
AcDbPlotSettings
  1

  2
HP7CA2BA (HP OfficeJet Pro 8710)
  4

  6

 40
0.0
 41
0.0
 42
0.0
 43
0.0
 44
0.0
 45
0.0
 46
0.0
 47
0.0
 48
0.0
 49
0.0
140
0.0
141
0.0
142
1.0
143
1.0
 70
   688
 72
     0
 73
     0
 74
     5
  7

 75
    16
147
1.0
 76
     0
 77
     2
 78
   300
148
0.0
149
0.0
100
AcDbLayout
  1
Layout1
 70
     1
 71
     1
 10
0.0
 20
0.0
 11
12.0
 21
9.0
 12
0.0
 22
0.0
 32
0.0
 14
1.000000000000000E+20
 24
1.000000000000000E+20
 34
1.000000000000000E+20
 15
-1.000000000000000E+20
 25
-1.000000000000000E+20
 35
-1.000000000000000E+20
146
0.0
 13
0.0
 23
0.0
 33
0.0
 16
1.0
 26
0.0
 36
0.0
 17
0.0
 27
1.0
 37
0.0
 76
     0
330
6B
  0
LAYOUT
  5
72
102
{ACAD_REACTORS
330
61
102
}
330
61
100
AcDbPlotSettings
  1

  2
HP7CA2BA (HP OfficeJet Pro 8710)
  4

  6

 40
0.0
 41
0.0
 42
0.0
 43
0.0
 44
0.0
 45
0.0
 46
0.0
 47
0.0
 48
0.0
 49
0.0
140
0.0
141
0.0
142
1.0
143
1.0
 70
  1712
 72
     0
 73
     0
 74
     0
  7

 75
     0
147
1.0
 76
     0
 77
     2
 78
   300
148
0.0
149
0.0
100
AcDbLayout
  1
Model
 70
     1
 71
     0
 10
0.0
 20
0.0
 11
12.0
 21
9.0
 12
0.0
 22
0.0
 32
0.0
 14
0.0
 24
0.0
 34
0.0
 15
0.0
 25
0.0
 35
0.0
146
0.0
 13
0.0
 23
0.0
 33
0.0
 16
1.0
 26
0.0
 36
0.0
 17
0.0
 27
1.0
 37
0.0
 76
     0
330
6F
331
7B
  0
MATERIAL
  5
19
102
{ACAD_XDICTIONARY
360
1A
102
}
102
{ACAD_REACTORS
330
10
102
}
330
10
100
AcDbMaterial
  1
ByBlock
 72
     0
 43
0.0208333333333333
 43
0.0
 43
0.0
 43
0.0
 43
0.0
 43
0.0208333333333333
 43
0.0
 43
0.0
 43
0.0
 43
0.0
 43
1.0
 43
0.0
 43
0.0
 43
0.0
 43
0.0
 43
1.0
 77
     0
 47
0.0208333333333333
 47
0.0
 47
0.0
 47
0.0
 47
0.0
 47
0.0208333333333333
 47
0.0
 47
0.0
 47
0.0
 47
0.0
 47
1.0
 47
0.0
 47
0.0
 47
0.0
 47
0.0
 47
1.0
171
     0
 49
0.0208333333333333
 49
0.0
 49
0.0
 49
0.0
 49
0.0
 49
0.0208333333333333
 49
0.0
 49
0.0
 49
0.0
 49
0.0
 49
1.0
 49
0.0
 49
0.0
 49
0.0
 49
0.0
 49
1.0
175
     0
142
0.0208333333333333
142
0.0
142
0.0
142
0.0
142
0.0
142
0.0208333333333333
142
0.0
142
0.0
142
0.0
142
0.0
142
1.0
142
0.0
142
0.0
142
0.0
142
0.0
142
1.0
179
     0
144
0.0208333333333333
144
0.0
144
0.0
144
0.0
144
0.0
144
0.0208333333333333
144
0.0
144
0.0
144
0.0
144
0.0
144
1.0
144
0.0
144
0.0
144
0.0
144
0.0
144
1.0
147
0.0208333333333333
147
0.0
147
0.0
147
0.0
147
0.0
147
0.0208333333333333
147
0.0
147
0.0
147
0.0
147
0.0
147
1.0
147
0.0
147
0.0
147
0.0
147
0.0
147
1.0
  0
MATERIAL
  5
11
102
{ACAD_XDICTIONARY
360
12
102
}
102
{ACAD_REACTORS
330
10
102
}
330
10
100
AcDbMaterial
  1
ByLayer
 72
     0
 43
0.0208333333333333
 43
0.0
 43
0.0
 43
0.0
 43
0.0
 43
0.0208333333333333
 43
0.0
 43
0.0
 43
0.0
 43
0.0
 43
1.0
 43
0.0
 43
0.0
 43
0.0
 43
0.0
 43
1.0
 77
     0
 47
0.0208333333333333
 47
0.0
 47
0.0
 47
0.0
 47
0.0
 47
0.0208333333333333
 47
0.0
 47
0.0
 47
0.0
 47
0.0
 47
1.0
 47
0.0
 47
0.0
 47
0.0
 47
0.0
 47
1.0
171
     0
 49
0.0208333333333333
 49
0.0
 49
0.0
 49
0.0
 49
0.0
 49
0.0208333333333333
 49
0.0
 49
0.0
 49
0.0
 49
0.0
 49
1.0
 49
0.0
 49
0.0
 49
0.0
 49
0.0
 49
1.0
175
     0
142
0.0208333333333333
142
0.0
142
0.0
142
0.0
142
0.0
142
0.0208333333333333
142
0.0
142
0.0
142
0.0
142
0.0
142
1.0
142
0.0
142
0.0
142
0.0
142
0.0
142
1.0
179
     0
144
0.0208333333333333
144
0.0
144
0.0
144
0.0
144
0.0
144
0.0208333333333333
144
0.0
144
0.0
144
0.0
144
0.0
144
1.0
144
0.0
144
0.0
144
0.0
144
0.0
144
1.0
147
0.0208333333333333
147
0.0
147
0.0
147
0.0
147
0.0
147
0.0208333333333333
147
0.0
147
0.0
147
0.0
147
0.0
147
1.0
147
0.0
147
0.0
147
0.0
147
0.0
147
1.0
  0
MATERIAL
  5
21
102
{ACAD_XDICTIONARY
360
22
102
}
102
{ACAD_REACTORS
330
10
102
}
330
10
100
AcDbMaterial
  1
Global
 72
     0
 43
0.0208333333333333
 43
0.0
 43
0.0
 43
0.0
 43
0.0
 43
0.0208333333333333
 43
0.0
 43
0.0
 43
0.0
 43
0.0
 43
1.0
 43
0.0
 43
0.0
 43
0.0
 43
0.0
 43
1.0
 77
     0
 47
0.0208333333333333
 47
0.0
 47
0.0
 47
0.0
 47
0.0
 47
0.0208333333333333
 47
0.0
 47
0.0
 47
0.0
 47
0.0
 47
1.0
 47
0.0
 47
0.0
 47
0.0
 47
0.0
 47
1.0
171
     0
 49
0.0208333333333333
 49
0.0
 49
0.0
 49
0.0
 49
0.0
 49
0.0208333333333333
 49
0.0
 49
0.0
 49
0.0
 49
0.0
 49
1.0
 49
0.0
 49
0.0
 49
0.0
 49
0.0
 49
1.0
175
     0
142
0.0208333333333333
142
0.0
142
0.0
142
0.0
142
0.0
142
0.0208333333333333
142
0.0
142
0.0
142
0.0
142
0.0
142
1.0
142
0.0
142
0.0
142
0.0
142
0.0
142
1.0
179
     0
144
0.0208333333333333
144
0.0
144
0.0
144
0.0
144
0.0
144
0.0208333333333333
144
0.0
144
0.0
144
0.0
144
0.0
144
1.0
144
0.0
144
0.0
144
0.0
144
0.0
144
1.0
147
0.0208333333333333
147
0.0
147
0.0
147
0.0
147
0.0
147
0.0208333333333333
147
0.0
147
0.0
147
0.0
147
0.0
147
1.0
147
0.0
147
0.0
147
0.0
147
0.0
147
1.0
  0
MLEADERSTYLE
  5
66
102
{ACAD_REACTORS
330
65
102
}
330
65
100
AcDbMLeaderStyle
179
     2
170
     2
171
     1
172
     0
 90
        2
 40
0.0
 41
0.0
173
     1
 91
-1056964608
340
5A
 92
       -2
290
     1
 42
0.09
291
     1
 43
0.36
  3
Standard
 44
0.18
300

342
55
174
     1
178
     6
175
     1
176
     0
 93
-1056964608
 45
0.18
292
     0
297
     0
 46
0.18
 94
-1056964608
 47
1.0
 49
1.0
140
1.0
293
     1
141
0.0
294
     1
177
     0
142
1.0
295
     0
296
     0
143
0.125
271
     0
272
     9
273
     9
298
     0
  0
MLINESTYLE
  5
5F
102
{ACAD_REACTORS
330
5E
102
}
330
5E
100
AcDbMlineStyle
  2
STANDARD
 70
     0
  3

 62
   256
 51
90.0
 52
90.0
 71
     2
 49
0.5
 62
   256
  6
BYLAYER
 49
-0.5
 62
   256
  6
BYLAYER
  0
ACDBPLACEHOLDER
  5
F
102
{ACAD_REACTORS
330
E
102
}
330
E
  0
SCALE
  5
43
102
{ACAD_REACTORS
330
42
102
}
330
42
100
AcDbScale
 70
     0
300
1:1
140
1.0
141
1.0
290
     1
  0
SCALE
  5
44
102
{ACAD_REACTORS
330
42
102
}
330
42
100
AcDbScale
 70
     0
300
1/128" = 1'-0"
140
0.0078125
141
12.0
290
     0
  0
SCALE
  5
45
102
{ACAD_REACTORS
330
42
102
}
330
42
100
AcDbScale
 70
     0
300
1/64" = 1'-0"
140
0.015625
141
12.0
290
     0
  0
SCALE
  5
46
102
{ACAD_REACTORS
330
42
102
}
330
42
100
AcDbScale
 70
     0
300
1/32" = 1'-0"
140
0.03125
141
12.0
290
     0
  0
SCALE
  5
47
102
{ACAD_REACTORS
330
42
102
}
330
42
100
AcDbScale
 70
     0
300
1/16" = 1'-0"
140
0.0625
141
12.0
290
     0
  0
SCALE
  5
48
102
{ACAD_REACTORS
330
42
102
}
330
42
100
AcDbScale
 70
     0
300
3/32" = 1'-0"
140
0.09375
141
12.0
290
     0
  0
SCALE
  5
49
102
{ACAD_REACTORS
330
42
102
}
330
42
100
AcDbScale
 70
     0
300
1/8" = 1'-0"
140
0.125
141
12.0
290
     0
  0
SCALE
  5
4A
102
{ACAD_REACTORS
330
42
102
}
330
42
100
AcDbScale
 70
     0
300
3/16" = 1'-0"
140
0.1875
141
12.0
290
     0
  0
SCALE
  5
4B
102
{ACAD_REACTORS
330
42
102
}
330
42
100
AcDbScale
 70
     0
300
1/4" = 1'-0"
140
0.25
141
12.0
290
     0
  0
SCALE
  5
4C
102
{ACAD_REACTORS
330
42
102
}
330
42
100
AcDbScale
 70
     0
300
3/8" = 1'-0"
140
0.375
141
12.0
290
     0
  0
SCALE
  5
4D
102
{ACAD_REACTORS
330
42
102
}
330
42
100
AcDbScale
 70
     0
300
1/2" = 1'-0"
140
0.5
141
12.0
290
     0
  0
SCALE
  5
4E
102
{ACAD_REACTORS
330
42
102
}
330
42
100
AcDbScale
 70
     0
300
3/4" = 1'-0"
140
0.75
141
12.0
290
     0
  0
SCALE
  5
4F
102
{ACAD_REACTORS
330
42
102
}
330
42
100
AcDbScale
 70
     0
300
1" = 1'-0"
140
1.0
141
12.0
290
     0
  0
SCALE
  5
50
102
{ACAD_REACTORS
330
42
102
}
330
42
100
AcDbScale
 70
     0
300
1-1/2" = 1'-0"
140
1.5
141
12.0
290
     0
  0
SCALE
  5
51
102
{ACAD_REACTORS
330
42
102
}
330
42
100
AcDbScale
 70
     0
300
3" = 1'-0"
140
3.0
141
12.0
290
     0
  0
SCALE
  5
52
102
{ACAD_REACTORS
330
42
102
}
330
42
100
AcDbScale
 70
     0
300
6" = 1'-0"
140
6.0
141
12.0
290
     0
  0
SCALE
  5
53
102
{ACAD_REACTORS
330
42
102
}
330
42
100
AcDbScale
 70
     0
300
1'-0" = 1'-0"
140
12.0
141
12.0
290
     0
  0
ACDBSECTIONVIEWSTYLE
  5
68
102
{ACAD_REACTORS
330
67
102
}
330
67
100
AcDbModelDocViewStyle
 70
     0
  3
Imperial24
290
     0
300
Imperial24
 90
        0
100
AcDbSectionViewStyle
 70
     0
 71
     0
 90
       78
 71
     1
340
55
 62
   256
 40
0.24
340
0
340
0
 62
   256
 40
0.24
300
I, O, Q, S, X, Z
 40
0.48
 90
        3
 40
0.18
 90
        1
 71
     2
340
5C
 90
       25
 62
   256
340
5C
 90
       50
 62
   256
 40
0.24
 40
0.0
 40
0.24
 71
     3
340
55
 62
   256
 40
0.24
 90
        1
 40
0.75
 90
        1
300
%<\AcVar ViewType \f "%tc1">% %<\AcVar ViewSectionStartId>%-%<\AcVar ViewSectionEndId>%\PSCALE %<\AcVar ViewScale \f "%sn">%
 71
     4
 62
   256
 62
   257
300
ANSI31
 40
1.0
 90
        0
290
     0
290
     0
 90
        6
 40
0.0
 40
1.570796326794896
 40
0.2617993877991494
 40
1.308996938995747
 40
-0.2617993877991494
 40
1.832595714594044
  0
ACDBSECTIONVIEWSTYLE
  5
272
102
{ACAD_REACTORS
330
67
102
}
330
67
100
AcDbModelDocViewStyle
 70
     0
  3
Metric50
290
     0
300
Metric50
 90
        0
100
AcDbSectionViewStyle
 70
     0
 71
     0
 90
      102
 71
     1
340
55
 62
   256
 40
5.0
340
0
340
0
 62
   256
 40
5.0
300
I, O, Q, S, X, Z
 40
10.0
 90
        0
 40
2.5
 90
        0
 71
     2
340
5C
 90
       25
 62
   256
340
5C
 90
       50
 62
   256
 40
5.0
 40
2.5
 40
5.0
 71
     3
340
55
 62
   256
 40
5.0
 90
        0
 40
15.0
 90
        1
300
%<\AcVar ViewSectionStartId>%-%<\AcVar ViewSectionEndId>% (%<\AcVar ViewScale \f "%sn">%)
 71
     4
 62
   256
 62
   257
300
ANSI31
 40
1.0
 90
        0
290
     0
290
     0
 90
        6
 40
0.0
 40
1.570796326794896
 40
0.2617993877991494
 40
1.308996938995747
 40
-0.2617993877991494
 40
1.832595714594044
  0
TABLESTYLE
  5
64
102
{ACAD_XDICTIONARY
360
1811
102
}
102
{ACAD_REACTORS
330
63
102
}
330
63
100
AcDbTableStyle
280
     0
  3
Standard
 70
     0
 71
     0
 40
0.06
 41
0.06
280
     0
281
     0
  7
STANDARD
140
0.18
170
     2
 62
     0
 63
     7
283
     0
 90
      512
 91
        0
  1

274
    -2
284
     1
 64
     0
275
    -2
285
     1
 65
     0
276
    -2
286
     1
 66
     0
277
    -2
287
     1
 67
     0
278
    -2
288
     1
 68
     0
279
    -2
289
     1
 69
     0
  7
STANDARD
140
0.25
170
     5
 62
     0
 63
     7
283
     0
 90
      512
 91
        0
  1

274
    -2
284
     1
 64
     0
275
    -2
285
     1
 65
     0
276
    -2
286
     1
 66
     0
277
    -2
287
     1
 67
     0
278
    -2
288
     1
 68
     0
279
    -2
289
     1
 69
     0
  7
STANDARD
140
0.18
170
     5
 62
     0
 63
     7
283
     0
 90
      512
 91
        0
  1

274
    -2
284
     1
 64
     0
275
    -2
285
     1
 65
     0
276
    -2
286
     1
 66
     0
277
    -2
287
     1
 67
     0
278
    -2
288
     1
 68
     0
279
    -2
289
     1
 69
     0
  0
VISUALSTYLE
  5
2F
102
{ACAD_REACTORS
330
29
102
}
330
29
100
AcDbVisualStyle
  2
2dWireframe
 70
     4
177
     3
291
     0
 70
    58
 90
        0
176
     1
 90
        2
176
     1
 90
        0
176
     1
 90
        0
176
     1
 40
0.6
176
     1
 40
30.0
176
     1
 62
     7
420
 16777215
176
     1
 90
        1
176
     1
 90
        4
176
     1
 62
     7
176
     1
 62
   257
176
     1
 90
        1
176
     1
 90
        1
176
     1
 40
1.0
176
     1
 90
        0
176
     1
 62
   257
176
     1
 40
1.0
176
     1
 90
        1
176
     1
 90
        6
176
     1
 90
        2
176
     1
 62
     7
176
     1
 90
        5
176
     1
 90
        0
176
     1
 90
        0
176
     1
290
     0
176
     1
 90
        1
176
     1
 40
0.0
176
     1
 90
        0
176
     1
290
     1
176
     1
290
     1
176
     1
290
     0
176
     1
290
     0
176
     1
290
     0
176
     1
290
     0
176
     1
290
     0
176
     1
290
     0
176
     1
290
     0
176
     1
 90
       50
176
     1
 40
0.0
176
     1
 40
1.0
176
     1
 90
        0
176
     1
 62
    18
176
     1
 90
       50
176
     1
 90
        3
176
     1
 62
     5
420
      255
176
     1
290
     0
176
     1
 90
       50
176
     1
 90
       50
176
     1
 90
       50
176
     1
290
     0
176
     1
 90
       50
176
     1
 62
   256
176
     0
 40
1.0
176
     0
 90
        2
176
     1
  1
strokes_ogs.tif
176
     1
290
     0
176
     1
 40
1.0
176
     1
 40
1.0
176
     1
  0
VISUALSTYLE
  5
2E
102
{ACAD_REACTORS
330
29
102
}
330
29
100
AcDbVisualStyle
  2
Basic
 70
     7
177
     3
291
     1
 70
    58
 90
        1
176
     1
 90
        0
176
     1
 90
        1
176
     1
 90
        0
176
     1
 40
0.6
176
     1
 40
30.0
176
     1
 62
     7
420
 16777215
176
     1
 90
        0
176
     1
 90
        4
176
     1
 62
     7
176
     1
 62
   257
176
     1
 90
        1
176
     1
 90
        1
176
     1
 40
1.0
176
     1
 90
        8
176
     1
 62
     7
176
     1
 40
1.0
176
     1
 90
        1
176
     1
 90
        6
176
     1
 90
        2
176
     1
 62
     7
176
     1
 90
        5
176
     1
 90
        0
176
     1
 90
        0
176
     1
290
     0
176
     1
 90
        1
176
     1
 40
0.0
176
     1
 90
        0
176
     1
290
     0
176
     1
290
     1
176
     1
290
     1
176
     1
290
     0
176
     1
290
     0
176
     1
290
     0
176
     1
290
     0
176
     1
290
     0
176
     1
290
     0
176
     1
 90
       50
176
     1
 40
0.0
176
     1
 40
1.0
176
     1
 90
        0
176
     1
 62
    18
176
     1
 90
       50
176
     1
 90
        3
176
     1
 62
     5
420
      255
176
     1
290
     0
176
     1
 90
       50
176
     1
 90
       50
176
     1
 90
       50
176
     1
290
     0
176
     1
 90
       50
176
     1
 62
   256
176
     0
 40
1.0
176
     0
 90
        2
176
     1
  1
strokes_ogs.tif
176
     1
290
     0
176
     1
 40
1.0
176
     1
 40
1.0
176
     1
  0
VISUALSTYLE
  5
35
102
{ACAD_REACTORS
330
29
102
}
330
29
100
AcDbVisualStyle
  2
Brighten
 70
    12
177
     3
291
     1
 70
    58
 90
        2
176
     1
 90
        2
176
     1
 90
        0
176
     1
 90
        0
176
     1
 40
0.6
176
     1
 40
30.0
176
     1
 62
     7
420
 16777215
176
     1
 90
        1
176
     1
 90
        4
176
     1
 62
     7
176
     1
 62
   257
176
     1
 90
        1
176
     1
 90
        1
176
     1
 40
1.0
176
     1
 90
        8
176
     1
 62
     7
176
     1
 40
1.0
176
     1
 90
        1
176
     1
 90
        6
176
     1
 90
        2
176
     1
 62
     7
176
     1
 90
        5
176
     1
 90
        0
176
     1
 90
        0
176
     1
290
     0
176
     1
 90
        1
176
     1
 40
50.0
176
     1
 90
        0
176
     1
290
     0
176
     1
290
     1
176
     1
290
     1
176
     1
290
     0
176
     1
290
     0
176
     1
290
     0
176
     1
290
     0
176
     1
290
     0
176
     1
290
     0
176
     1
 90
       50
176
     1
 40
0.0
176
     1
 40
1.0
176
     1
 90
        0
176
     1
 62
    18
176
     1
 90
       50
176
     1
 90
        3
176
     1
 62
     5
420
      255
176
     1
290
     0
176
     1
 90
       50
176
     1
 90
       50
176
     1
 90
       50
176
     1
290
     0
176
     1
 90
       50
176
     1
 62
   256
176
     0
 40
1.0
176
     0
 90
        2
176
     1
  1
strokes_ogs.tif
176
     1
290
     0
176
     1
 40
1.0
176
     1
 40
1.0
176
     1
  0
VISUALSTYLE
  5
39
102
{ACAD_REACTORS
330
29
102
}
330
29
100
AcDbVisualStyle
  2
ColorChange
 70
    16
177
     3
291
     1
 70
    58
 90
        2
176
     1
 90
        2
176
     1
 90
        3
176
     1
 90
        0
176
     1
 40
0.6
176
     1
 40
30.0
176
     1
 62
     8
420
  8421504
176
     1
 90
        1
176
     1
 90
        4
176
     1
 62
     7
176
     1
 62
   257
176
     1
 90
        1
176
     1
 90
        1
176
     1
 40
1.0
176
     1
 90
        8
176
     1
 62
     8
420
  8421504
176
     1
 40
1.0
176
     1
 90
        1
176
     1
 90
        6
176
     1
 90
        2
176
     1
 62
     7
176
     1
 90
        5
176
     1
 90
        0
176
     1
 90
        0
176
     1
290
     0
176
     1
 90
        1
176
     1
 40
0.0
176
     1
 90
        0
176
     1
290
     0
176
     1
290
     1
176
     1
290
     1
176
     1
290
     0
176
     1
290
     0
176
     1
290
     0
176
     1
290
     0
176
     1
290
     0
176
     1
290
     0
176
     1
 90
       50
176
     1
 40
0.0
176
     1
 40
1.0
176
     1
 90
        0
176
     1
 62
    18
176
     1
 90
       50
176
     1
 90
        3
176
     1
 62
     5
420
      255
176
     1
290
     0
176
     1
 90
       50
176
     1
 90
       50
176
     1
 90
       50
176
     1
290
     0
176
     1
 90
       50
176
     1
 62
   256
176
     0
 40
1.0
176
     0
 90
        2
176
     1
  1
strokes_ogs.tif
176
     1
290
     0
176
     1
 40
1.0
176
     1
 40
1.0
176
     1
  0
VISUALSTYLE
  5
32
102
{ACAD_REACTORS
330
29
102
}
330
29
100
AcDbVisualStyle
  2
Conceptual
 70
     9
177
     3
291
     0
 70
    58
 90
        3
176
     1
 90
        2
176
     1
 90
        0
176
     1
 90
        0
176
     1
 40
0.6
176
     1
 40
30.0
176
     1
 62
     7
420
 16777215
176
     1
 90
        2
176
     1
 90
        2
176
     1
 62
     7
176
     1
 62
   257
176
     1
 90
        1
176
     1
 90
        1
176
     1
 40
179.0
176
     1
 90
        8
176
     1
 62
     7
176
     1
 40
1.0
176
     1
 90
        1
176
     1
 90
        6
176
     1
 90
        2
176
     1
 62
     7
176
     1
 90
        3
176
     1
 90
        0
176
     1
 90
        0
176
     1
290
     0
176
     1
 90
        1
176
     1
 40
0.0
176
     1
 90
        0
176
     1
290
     0
176
     1
290
     1
176
     1
290
     1
176
     1
290
     0
176
     1
290
     0
176
     1
290
     0
176
     1
290
     0
176
     1
290
     0
176
     1
290
     0
176
     1
 90
       50
176
     1
 40
0.0
176
     1
 40
1.0
176
     1
 90
        0
176
     1
 62
    18
176
     1
 90
       50
176
     1
 90
        3
176
     1
 62
     5
420
      255
176
     1
290
     0
176
     1
 90
       50
176
     1
 90
       50
176
     1
 90
       50
176
     1
290
     0
176
     1
 90
       50
176
     1
 62
   256
176
     0
 40
1.0
176
     0
 90
        2
176
     1
  1
strokes_ogs.tif
176
     1
290
     0
176
     1
 40
1.0
176
     1
 40
1.0
176
     1
  0
VISUALSTYLE
  5
34
102
{ACAD_REACTORS
330
29
102
}
330
29
100
AcDbVisualStyle
  2
Dim
 70
    11
177
     3
291
     1
 70
    58
 90
        2
176
     1
 90
        2
176
     1
 90
        0
176
     1
 90
        0
176
     1
 40
0.6
176
     1
 40
30.0
176
     1
 62
     7
420
 16777215
176
     1
 90
        1
176
     1
 90
        4
176
     1
 62
     7
176
     1
 62
   257
176
     1
 90
        1
176
     1
 90
        1
176
     1
 40
1.0
176
     1
 90
        8
176
     1
 62
     7
176
     1
 40
1.0
176
     1
 90
        1
176
     1
 90
        6
176
     1
 90
        2
176
     1
 62
     7
176
     1
 90
        5
176
     1
 90
        0
176
     1
 90
        0
176
     1
290
     0
176
     1
 90
        1
176
     1
 40
-50.0
176
     1
 90
        0
176
     1
290
     0
176
     1
290
     1
176
     1
290
     1
176
     1
290
     0
176
     1
290
     0
176
     1
290
     0
176
     1
290
     0
176
     1
290
     0
176
     1
290
     0
176
     1
 90
       50
176
     1
 40
0.0
176
     1
 40
1.0
176
     1
 90
        0
176
     1
 62
    18
176
     1
 90
       50
176
     1
 90
        3
176
     1
 62
     5
420
      255
176
     1
290
     0
176
     1
 90
       50
176
     1
 90
       50
176
     1
 90
       50
176
     1
290
     0
176
     1
 90
       50
176
     1
 62
   256
176
     0
 40
1.0
176
     0
 90
        2
176
     1
  1
strokes_ogs.tif
176
     1
290
     0
176
     1
 40
1.0
176
     1
 40
1.0
176
     1
  0
VISUALSTYLE
  5
41
102
{ACAD_REACTORS
330
29
102
}
330
29
100
AcDbVisualStyle
  2
EdgeColorOff
 70
    22
177
     3
291
     1
 70
    58
 90
        2
176
     0
 90
        2
176
     0
 90
        0
176
     0
 90
        0
176
     0
 40
0.6
176
     0
 40
30.0
176
     0
 62
     7
420
 16777215
176
     0
 90
        1
176
     0
 90
        4
176
     0
 62
     7
176
     0
 62
   257
176
     0
 90
        1
176
     0
 90
        1
176
     0
 40
1.0
176
     0
 90
        8
176
     2
 62
     7
176
     0
 40
1.0
176
     0
 90
        1
176
     0
 90
        6
176
     0
 90
        2
176
     0
 62
     7
176
     0
 90
        5
176
     0
 90
        0
176
     0
 90
        0
176
     0
290
     0
176
     0
 90
        1
176
     0
 40
0.0
176
     0
 90
        0
176
     0
290
     0
176
     1
290
     1
176
     1
290
     1
176
     1
290
     0
176
     1
290
     0
176
     1
290
     0
176
     1
290
     0
176
     1
290
     0
176
     1
290
     0
176
     1
 90
       50
176
     0
 40
0.0
176
     0
 40
1.0
176
     0
 90
        0
176
     0
 62
    18
176
     0
 90
       50
176
     0
 90
        3
176
     0
 62
     5
420
      255
176
     0
290
     0
176
     1
 90
       50
176
     0
 90
       50
176
     0
 90
       50
176
     0
290
     0
176
     1
 90
       50
176
     0
 62
   256
176
     0
 40
1.0
176
     0
 90
        2
176
     0
  1
strokes_ogs.tif
176
     0
290
     0
176
     1
 40
1.0
176
     0
 40
1.0
176
     0
  0
VISUALSTYLE
  5
38
102
{ACAD_REACTORS
330
29
102
}
330
29
100
AcDbVisualStyle
  2
Facepattern
 70
    15
177
     3
291
     1
 70
    58
 90
        2
176
     1
 90
        2
176
     1
 90
        0
176
     1
 90
        0
176
     1
 40
0.6
176
     1
 40
30.0
176
     1
 62
     7
420
 16777215
176
     1
 90
        1
176
     1
 90
        4
176
     1
 62
     7
176
     1
 62
   257
176
     1
 90
        1
176
     1
 90
        1
176
     1
 40
1.0
176
     1
 90
        8
176
     1
 62
     7
176
     1
 40
1.0
176
     1
 90
        1
176
     1
 90
        6
176
     1
 90
        2
176
     1
 62
     7
176
     1
 90
        5
176
     1
 90
        0
176
     1
 90
        0
176
     1
290
     0
176
     1
 90
        1
176
     1
 40
0.0
176
     1
 90
        0
176
     1
290
     0
176
     1
290
     1
176
     1
290
     1
176
     1
290
     0
176
     1
290
     0
176
     1
290
     0
176
     1
290
     0
176
     1
290
     0
176
     1
290
     0
176
     1
 90
       50
176
     1
 40
0.0
176
     1
 40
1.0
176
     1
 90
        0
176
     1
 62
    18
176
     1
 90
       50
176
     1
 90
        3
176
     1
 62
     5
420
      255
176
     1
290
     0
176
     1
 90
       50
176
     1
 90
       50
176
     1
 90
       50
176
     1
290
     0
176
     1
 90
       50
176
     1
 62
   256
176
     0
 40
1.0
176
     0
 90
        2
176
     1
  1
strokes_ogs.tif
176
     1
290
     0
176
     1
 40
1.0
176
     1
 40
1.0
176
     1
  0
VISUALSTYLE
  5
2A
102
{ACAD_REACTORS
330
29
102
}
330
29
100
AcDbVisualStyle
  2
Flat
 70
     0
177
     3
291
     1
 70
    58
 90
        2
176
     1
 90
        1
176
     1
 90
        1
176
     1
 90
        2
176
     1
 40
0.6
176
     1
 40
30.0
176
     1
 62
     7
420
 16777215
176
     1
 90
        0
176
     1
 90
        0
176
     1
 62
     7
176
     1
 62
   257
176
     1
 90
        1
176
     1
 90
        1
176
     1
 40
1.0
176
     1
 90
        8
176
     1
 62
     7
176
     1
 40
1.0
176
     1
 90
        1
176
     1
 90
        6
176
     1
 90
        2
176
     1
 62
     7
176
     1
 90
        5
176
     1
 90
        0
176
     1
 90
        0
176
     1
290
     0
176
     1
 90
       13
176
     1
 40
0.0
176
     1
 90
        0
176
     1
290
     0
176
     1
290
     1
176
     1
290
     1
176
     1
290
     0
176
     1
290
     0
176
     1
290
     0
176
     1
290
     0
176
     1
290
     0
176
     1
290
     0
176
     1
 90
       50
176
     1
 40
0.0
176
     1
 40
1.0
176
     1
 90
        0
176
     1
 62
    18
176
     1
 90
       50
176
     1
 90
        3
176
     1
 62
     5
420
      255
176
     1
290
     0
176
     1
 90
       50
176
     1
 90
       50
176
     1
 90
       50
176
     1
290
     0
176
     1
 90
       50
176
     1
 62
   256
176
     0
 40
1.0
176
     0
 90
        2
176
     1
  1
strokes_ogs.tif
176
     1
290
     0
176
     1
 40
1.0
176
     1
 40
1.0
176
     1
  0
VISUALSTYLE
  5
2B
102
{ACAD_REACTORS
330
29
102
}
330
29
100
AcDbVisualStyle
  2
FlatWithEdges
 70
     1
177
     3
291
     1
 70
    58
 90
        2
176
     1
 90
        1
176
     1
 90
        1
176
     1
 90
        2
176
     1
 40
0.6
176
     1
 40
30.0
176
     1
 62
     7
420
 16777215
176
     1
 90
        1
176
     1
 90
        0
176
     1
 62
     7
176
     1
 62
   257
176
     1
 90
        1
176
     1
 90
        1
176
     1
 40
1.0
176
     1
 90
        0
176
     1
 62
   257
176
     1
 40
1.0
176
     1
 90
        1
176
     1
 90
        6
176
     1
 90
        2
176
     1
 62
     7
176
     1
 90
        5
176
     1
 90
        0
176
     1
 90
        0
176
     1
290
     0
176
     1
 90
       13
176
     1
 40
0.0
176
     1
 90
        0
176
     1
290
     0
176
     1
290
     1
176
     1
290
     1
176
     1
290
     0
176
     1
290
     0
176
     1
290
     0
176
     1
290
     0
176
     1
290
     0
176
     1
290
     0
176
     1
 90
       50
176
     1
 40
0.0
176
     1
 40
1.0
176
     1
 90
        0
176
     1
 62
    18
176
     1
 90
       50
176
     1
 90
        3
176
     1
 62
     5
420
      255
176
     1
290
     0
176
     1
 90
       50
176
     1
 90
       50
176
     1
 90
       50
176
     1
290
     0
176
     1
 90
       50
176
     1
 62
   256
176
     0
 40
1.0
176
     0
 90
        2
176
     1
  1
strokes_ogs.tif
176
     1
290
     0
176
     1
 40
1.0
176
     1
 40
1.0
176
     1
  0
VISUALSTYLE
  5
2C
102
{ACAD_REACTORS
330
29
102
}
330
29
100
AcDbVisualStyle
  2
Gouraud
 70
     2
177
     3
291
     1
 70
    58
 90
        2
176
     1
 90
        2
176
     1
 90
        1
176
     1
 90
        2
176
     1
 40
0.6
176
     1
 40
30.0
176
     1
 62
     7
420
 16777215
176
     1
 90
        0
176
     1
 90
        0
176
     1
 62
     7
176
     1
 62
   257
176
     1
 90
        1
176
     1
 90
        1
176
     1
 40
1.0
176
     1
 90
        0
176
     1
 62
     7
176
     1
 40
1.0
176
     1
 90
        1
176
     1
 90
        6
176
     1
 90
        2
176
     1
 62
     7
176
     1
 90
        5
176
     1
 90
        0
176
     1
 90
        0
176
     1
290
     0
176
     1
 90
       13
176
     1
 40
0.0
176
     1
 90
        0
176
     1
290
     0
176
     1
290
     1
176
     1
290
     1
176
     1
290
     0
176
     1
290
     0
176
     1
290
     0
176
     1
290
     0
176
     1
290
     0
176
     1
290
     0
176
     1
 90
       50
176
     1
 40
0.0
176
     1
 40
1.0
176
     1
 90
        0
176
     1
 62
    18
176
     1
 90
       50
176
     1
 90
        3
176
     1
 62
     5
420
      255
176
     1
290
     0
176
     1
 90
       50
176
     1
 90
       50
176
     1
 90
       50
176
     1
290
     0
176
     1
 90
       50
176
     1
 62
   256
176
     0
 40
1.0
176
     0
 90
        2
176
     1
  1
strokes_ogs.tif
176
     1
290
     0
176
     1
 40
1.0
176
     1
 40
1.0
176
     1
  0
VISUALSTYLE
  5
2D
102
{ACAD_REACTORS
330
29
102
}
330
29
100
AcDbVisualStyle
  2
GouraudWithEdges
 70
     3
177
     3
291
     1
 70
    58
 90
        2
176
     1
 90
        2
176
     1
 90
        1
176
     1
 90
        2
176
     1
 40
0.6
176
     1
 40
30.0
176
     1
 62
     7
420
 16777215
176
     1
 90
        1
176
     1
 90
        0
176
     1
 62
     7
176
     1
 62
   257
176
     1
 90
        1
176
     1
 90
        1
176
     1
 40
1.0
176
     1
 90
        0
176
     1
 62
   257
176
     1
 40
1.0
176
     1
 90
        1
176
     1
 90
        6
176
     1
 90
        2
176
     1
 62
     7
176
     1
 90
        5
176
     1
 90
        0
176
     1
 90
        0
176
     1
290
     0
176
     1
 90
       13
176
     1
 40
0.0
176
     1
 90
        0
176
     1
290
     0
176
     1
290
     1
176
     1
290
     1
176
     1
290
     0
176
     1
290
     0
176
     1
290
     0
176
     1
290
     0
176
     1
290
     0
176
     1
290
     0
176
     1
 90
       50
176
     1
 40
0.0
176
     1
 40
1.0
176
     1
 90
        0
176
     1
 62
    18
176
     1
 90
       50
176
     1
 90
        3
176
     1
 62
     5
420
      255
176
     1
290
     0
176
     1
 90
       50
176
     1
 90
       50
176
     1
 90
       50
176
     1
290
     0
176
     1
 90
       50
176
     1
 62
   256
176
     0
 40
1.0
176
     0
 90
        2
176
     1
  1
strokes_ogs.tif
176
     1
290
     0
176
     1
 40
1.0
176
     1
 40
1.0
176
     1
  0
VISUALSTYLE
  5
31
102
{ACAD_REACTORS
330
29
102
}
330
29
100
AcDbVisualStyle
  2
Hidden
 70
     6
177
     3
291
     0
 70
    58
 90
        1
176
     1
 90
        2
176
     1
 90
        2
176
     1
 90
        0
176
     1
 40
0.6
176
     1
 40
30.0
176
     1
 62
     7
420
 16777215
176
     1
 90
        2
176
     1
 90
        2
176
     1
 62
     7
176
     1
 62
   257
176
     1
 90
        2
176
     1
 90
        1
176
     1
 40
40.0
176
     1
 90
        0
176
     1
 62
   257
176
     1
 40
1.0
176
     1
 90
        1
176
     1
 90
        6
176
     1
 90
        2
176
     1
 62
     7
176
     1
 90
        3
176
     1
 90
        0
176
     1
 90
        0
176
     1
290
     0
176
     1
 90
        1
176
     1
 40
0.0
176
     1
 90
        0
176
     1
290
     0
176
     1
290
     1
176
     1
290
     1
176
     1
290
     0
176
     1
290
     0
176
     1
290
     0
176
     1
290
     0
176
     1
290
     0
176
     1
290
     0
176
     1
 90
       50
176
     1
 40
0.0
176
     1
 40
1.0
176
     1
 90
        0
176
     1
 62
    18
176
     1
 90
       50
176
     1
 90
        3
176
     1
 62
     5
420
      255
176
     1
290
     0
176
     1
 90
       50
176
     1
 90
       50
176
     1
 90
       50
176
     1
290
     0
176
     1
 90
       50
176
     1
 62
   256
176
     0
 40
1.0
176
     0
 90
        2
176
     1
  1
strokes_ogs.tif
176
     1
290
     0
176
     1
 40
1.0
176
     1
 40
1.0
176
     1
  0
VISUALSTYLE
  5
3F
102
{ACAD_REACTORS
330
29
102
}
330
29
100
AcDbVisualStyle
  2
JitterOff
 70
    20
177
     3
291
     1
 70
    58
 90
        2
176
     0
 90
        2
176
     0
 90
        0
176
     0
 90
        0
176
     0
 40
0.6
176
     0
 40
30.0
176
     0
 62
     7
420
 16777215
176
     0
 90
        1
176
     0
 90
        4
176
     0
 62
     7
176
     0
 62
   257
176
     0
 90
        1
176
     0
 90
        1
176
     0
 40
1.0
176
     0
 90
       10
176
     2
 62
     7
176
     0
 40
1.0
176
     0
 90
        1
176
     0
 90
        6
176
     0
 90
        2
176
     0
 62
     7
176
     0
 90
        5
176
     0
 90
        0
176
     0
 90
        0
176
     0
290
     0
176
     0
 90
        1
176
     0
 40
0.0
176
     0
 90
        0
176
     0
290
     0
176
     1
290
     1
176
     1
290
     1
176
     1
290
     0
176
     1
290
     0
176
     1
290
     0
176
     1
290
     0
176
     1
290
     0
176
     1
290
     0
176
     1
 90
       50
176
     0
 40
0.0
176
     0
 40
1.0
176
     0
 90
        0
176
     0
 62
    18
176
     0
 90
       50
176
     0
 90
        3
176
     0
 62
     5
420
      255
176
     0
290
     0
176
     1
 90
       50
176
     0
 90
       50
176
     0
 90
       50
176
     0
290
     0
176
     1
 90
       50
176
     0
 62
   256
176
     0
 40
1.0
176
     0
 90
        2
176
     0
  1
strokes_ogs.tif
176
     0
290
     0
176
     1
 40
1.0
176
     0
 40
1.0
176
     0
  0
VISUALSTYLE
  5
37
102
{ACAD_REACTORS
330
29
102
}
330
29
100
AcDbVisualStyle
  2
Linepattern
 70
    14
177
     3
291
     1
 70
    58
 90
        2
176
     1
 90
        2
176
     1
 90
        0
176
     1
 90
        0
176
     1
 40
0.6
176
     1
 40
30.0
176
     1
 62
     7
420
 16777215
176
     1
 90
        1
176
     1
 90
        4
176
     1
 62
     7
176
     1
 62
   257
176
     1
 90
        7
176
     1
 90
        7
176
     1
 40
1.0
176
     1
 90
        8
176
     1
 62
     7
176
     1
 40
1.0
176
     1
 90
        1
176
     1
 90
        6
176
     1
 90
        2
176
     1
 62
     7
176
     1
 90
        5
176
     1
 90
        0
176
     1
 90
        0
176
     1
290
     0
176
     1
 90
        1
176
     1
 40
0.0
176
     1
 90
        0
176
     1
290
     0
176
     1
290
     1
176
     1
290
     1
176
     1
290
     0
176
     1
290
     0
176
     1
290
     0
176
     1
290
     0
176
     1
290
     0
176
     1
290
     0
176
     1
 90
       50
176
     1
 40
0.0
176
     1
 40
1.0
176
     1
 90
        0
176
     1
 62
    18
176
     1
 90
       50
176
     1
 90
        3
176
     1
 62
     5
420
      255
176
     1
290
     0
176
     1
 90
       50
176
     1
 90
       50
176
     1
 90
       50
176
     1
290
     0
176
     1
 90
       50
176
     1
 62
   256
176
     0
 40
1.0
176
     0
 90
        2
176
     1
  1
strokes_ogs.tif
176
     1
290
     0
176
     1
 40
1.0
176
     1
 40
1.0
176
     1
  0
VISUALSTYLE
  5
40
102
{ACAD_REACTORS
330
29
102
}
330
29
100
AcDbVisualStyle
  2
OverhangOff
 70
    21
177
     3
291
     1
 70
    58
 90
        2
176
     0
 90
        2
176
     0
 90
        0
176
     0
 90
        0
176
     0
 40
0.6
176
     0
 40
30.0
176
     0
 62
     7
420
 16777215
176
     0
 90
        1
176
     0
 90
        4
176
     0
 62
     7
176
     0
 62
   257
176
     0
 90
        1
176
     0
 90
        1
176
     0
 40
1.0
176
     0
 90
        9
176
     2
 62
     7
176
     0
 40
1.0
176
     0
 90
        1
176
     0
 90
        6
176
     0
 90
        2
176
     0
 62
     7
176
     0
 90
        5
176
     0
 90
        0
176
     0
 90
        0
176
     0
290
     0
176
     0
 90
        1
176
     0
 40
0.0
176
     0
 90
        0
176
     0
290
     0
176
     1
290
     1
176
     1
290
     1
176
     1
290
     0
176
     1
290
     0
176
     1
290
     0
176
     1
290
     0
176
     1
290
     0
176
     1
290
     0
176
     1
 90
       50
176
     0
 40
0.0
176
     0
 40
1.0
176
     0
 90
        0
176
     0
 62
    18
176
     0
 90
       50
176
     0
 90
        3
176
     0
 62
     5
420
      255
176
     0
290
     0
176
     1
 90
       50
176
     0
 90
       50
176
     0
 90
       50
176
     0
290
     0
176
     1
 90
       50
176
     0
 62
   256
176
     0
 40
1.0
176
     0
 90
        2
176
     0
  1
strokes_ogs.tif
176
     0
290
     0
176
     1
 40
1.0
176
     0
 40
1.0
176
     0
  0
VISUALSTYLE
  5
33
102
{ACAD_REACTORS
330
29
102
}
330
29
100
AcDbVisualStyle
  2
Realistic
 70
     8
177
     3
291
     0
 70
    58
 90
        2
176
     1
 90
        3
176
     1
 90
        0
176
     1
 90
        2
176
     1
 40
0.6
176
     1
 40
30.0
176
     1
 62
     7
420
 16777215
176
     1
 90
        0
176
     1
 90
        0
176
     1
 62
     7
176
     1
 62
   257
176
     1
 90
        1
176
     1
 90
        1
176
     1
 40
1.0
176
     1
 90
        8
176
     1
 62
   257
176
     1
 40
1.0
176
     1
 90
        1
176
     1
 90
        6
176
     1
 90
        2
176
     1
 62
     7
176
     1
 90
        3
176
     1
 90
        0
176
     1
 90
        0
176
     1
290
     0
176
     1
 90
       13
176
     1
 40
0.0
176
     1
 90
        0
176
     1
290
     0
176
     1
290
     1
176
     1
290
     1
176
     1
290
     0
176
     1
290
     0
176
     1
290
     0
176
     1
290
     0
176
     1
290
     0
176
     1
290
     0
176
     1
 90
       50
176
     1
 40
0.0
176
     1
 40
1.0
176
     1
 90
        0
176
     1
 62
    18
176
     1
 90
       50
176
     1
 90
        3
176
     1
 62
     5
420
      255
176
     1
290
     0
176
     1
 90
       50
176
     1
 90
       50
176
     1
 90
       50
176
     1
290
     0
176
     1
 90
       50
176
     1
 62
   256
176
     0
 40
1.0
176
     0
 90
        2
176
     1
  1
strokes_ogs.tif
176
     1
290
     0
176
     1
 40
1.0
176
     1
 40
1.0
176
     1
  0
VISUALSTYLE
  5
3E
102
{ACAD_REACTORS
330
29
102
}
330
29
100
AcDbVisualStyle
  2
Shaded
 70
    27
177
     3
291
     0
 70
    58
 90
        2
176
     1
 90
        2
176
     1
 90
        1
176
     1
 90
        2
176
     1
 40
0.6
176
     1
 40
30.0
176
     1
 62
     7
420
 16777215
176
     1
 90
        0
176
     1
 90
        4
176
     1
 62
     7
176
     1
 62
   257
176
     1
 90
        1
176
     1
 90
        1
176
     1
 40
1.0
176
     1
 90
        8
176
     1
 62
   257
176
     1
 40
1.0
176
     1
 90
        1
176
     1
 90
        6
176
     1
 90
        2
176
     1
 62
     8
420
  7895160
176
     1
 90
        3
176
     1
 90
        0
176
     1
 90
        0
176
     1
290
     0
176
     1
 90
        5
176
     1
 40
0.0
176
     1
 90
        0
176
     1
290
     0
176
     1
290
     1
176
     1
290
     1
176
     1
290
     0
176
     1
290
     0
176
     1
290
     0
176
     1
290
     0
176
     1
290
     0
176
     1
290
     0
176
     1
 90
       50
176
     1
 40
0.0
176
     1
 40
1.0
176
     1
 90
        0
176
     1
 62
    18
176
     1
 90
       50
176
     1
 90
        3
176
     1
 62
     5
420
      255
176
     1
290
     0
176
     1
 90
       50
176
     1
 90
       50
176
     1
 90
       50
176
     1
290
     0
176
     1
 90
       50
176
     1
 62
   256
176
     0
 40
1.0
176
     0
 90
        2
176
     1
  1
strokes_ogs.tif
176
     1
290
     0
176
     1
 40
1.0
176
     1
 40
1.0
176
     1
  0
VISUALSTYLE
  5
3D
102
{ACAD_REACTORS
330
29
102
}
330
29
100
AcDbVisualStyle
  2
Shaded with edges
 70
    26
177
     3
291
     0
 70
    58
 90
        2
176
     1
 90
        2
176
     1
 90
        1
176
     1
 90
        2
176
     1
 40
0.6
176
     1
 40
30.0
176
     1
 62
     7
420
 16777215
176
     1
 90
        1
176
     1
 90
        2
176
     1
 62
     7
176
     1
 62
   257
176
     1
 90
        2
176
     1
 90
        1
176
     1
 40
1.0
176
     1
 90
        8
176
     1
 62
   257
176
     1
 40
1.0
176
     1
 90
        1
176
     1
 90
        6
176
     1
 90
        2
176
     1
 62
     7
176
     1
 90
        3
176
     1
 90
        0
176
     1
 90
        0
176
     1
290
     0
176
     1
 90
        5
176
     1
 40
0.0
176
     1
 90
        0
176
     1
290
     0
176
     1
290
     1
176
     1
290
     1
176
     1
290
     0
176
     1
290
     0
176
     1
290
     0
176
     1
290
     0
176
     1
290
     0
176
     1
290
     0
176
     1
 90
       50
176
     1
 40
0.0
176
     1
 40
1.0
176
     1
 90
        0
176
     1
 62
    18
176
     1
 90
       50
176
     1
 90
        3
176
     1
 62
     5
420
      255
176
     1
290
     0
176
     1
 90
       50
176
     1
 90
       50
176
     1
 90
       50
176
     1
290
     0
176
     1
 90
       50
176
     1
 62
   256
176
     0
 40
1.0
176
     0
 90
        2
176
     1
  1
strokes_ogs.tif
176
     1
290
     0
176
     1
 40
1.0
176
     1
 40
1.0
176
     1
  0
VISUALSTYLE
  5
3A
102
{ACAD_REACTORS
330
29
102
}
330
29
100
AcDbVisualStyle
  2
Shades of Gray
 70
    23
177
     3
291
     0
 70
    58
 90
        2
176
     1
 90
        2
176
     1
 90
        3
176
     1
 90
        0
176
     1
 40
0.6
176
     1
 40
30.0
176
     1
 62
     7
420
 16777215
176
     1
 90
        2
176
     1
 90
        2
176
     1
 62
     7
176
     1
 62
     7
176
     1
 90
        1
176
     1
 90
        1
176
     1
 40
40.0
176
     1
 90
        8
176
     1
 62
     7
176
     1
 40
1.0
176
     1
 90
        1
176
     1
 90
        6
176
     1
 90
        2
176
     1
 62
     7
176
     1
 90
        3
176
     1
 90
        0
176
     1
 90
        0
176
     1
290
     0
176
     1
 90
        1
176
     1
 40
0.0
176
     1
 90
        0
176
     1
290
     0
176
     1
290
     1
176
     1
290
     1
176
     1
290
     0
176
     1
290
     0
176
     1
290
     0
176
     1
290
     0
176
     1
290
     0
176
     1
290
     0
176
     1
 90
       50
176
     1
 40
0.0
176
     1
 40
1.0
176
     1
 90
        0
176
     1
 62
    18
176
     1
 90
       50
176
     1
 90
        3
176
     1
 62
     5
420
      255
176
     1
290
     0
176
     1
 90
       50
176
     1
 90
       50
176
     1
 90
       50
176
     1
290
     0
176
     1
 90
       50
176
     1
 62
   256
176
     0
 40
1.0
176
     0
 90
        2
176
     1
  1
strokes_ogs.tif
176
     1
290
     0
176
     1
 40
1.0
176
     1
 40
1.0
176
     1
  0
VISUALSTYLE
  5
3B
102
{ACAD_REACTORS
330
29
102
}
330
29
100
AcDbVisualStyle
  2
Sketchy
 70
    24
177
     3
291
     0
 70
    58
 90
        1
176
     1
 90
        2
176
     1
 90
        2
176
     1
 90
        0
176
     1
 40
0.6
176
     1
 40
30.0
176
     1
 62
     7
420
 16777215
176
     1
 90
        2
176
     1
 90
        2
176
     1
 62
     7
176
     1
 62
     7
176
     1
 90
        1
176
     1
 90
        1
176
     1
 40
40.0
176
     1
 90
       11
176
     1
 62
     7
176
     1
 40
1.0
176
     1
 90
        1
176
     1
 90
        6
176
     1
 90
        2
176
     1
 62
     7
176
     1
 90
        6
176
     1
 90
        0
176
     1
 90
        0
176
     1
290
     0
176
     1
 90
        1
176
     1
 40
0.0
176
     1
 90
        0
176
     1
290
     0
176
     1
290
     1
176
     1
290
     1
176
     1
290
     0
176
     1
290
     0
176
     1
290
     0
176
     1
290
     0
176
     1
290
     0
176
     1
290
     0
176
     1
 90
       50
176
     1
 40
0.0
176
     1
 40
1.0
176
     1
 90
        0
176
     1
 62
    18
176
     1
 90
       50
176
     1
 90
        3
176
     1
 62
     5
420
      255
176
     1
290
     0
176
     1
 90
       50
176
     1
 90
       50
176
     1
 90
       50
176
     1
290
     0
176
     1
 90
       50
176
     1
 62
   256
176
     0
 40
1.0
176
     0
 90
        2
176
     1
  1
strokes_ogs.tif
176
     1
290
     0
176
     1
 40
1.0
176
     1
 40
1.0
176
     1
  0
VISUALSTYLE
  5
36
102
{ACAD_REACTORS
330
29
102
}
330
29
100
AcDbVisualStyle
  2
Thicken
 70
    13
177
     3
291
     1
 70
    58
 90
        2
176
     1
 90
        2
176
     1
 90
        0
176
     1
 90
        0
176
     1
 40
0.6
176
     1
 40
30.0
176
     1
 62
     7
420
 16777215
176
     1
 90
        1
176
     1
 90
        4
176
     1
 62
     7
176
     1
 62
   257
176
     1
 90
        1
176
     1
 90
        1
176
     1
 40
1.0
176
     1
 90
       12
176
     1
 62
     7
176
     1
 40
1.0
176
     1
 90
        1
176
     1
 90
        6
176
     1
 90
        2
176
     1
 62
     7
176
     1
 90
        5
176
     1
 90
        0
176
     1
 90
        0
176
     1
290
     0
176
     1
 90
        1
176
     1
 40
0.0
176
     1
 90
        0
176
     1
290
     0
176
     1
290
     1
176
     1
290
     1
176
     1
290
     0
176
     1
290
     0
176
     1
290
     0
176
     1
290
     0
176
     1
290
     0
176
     1
290
     0
176
     1
 90
       50
176
     1
 40
0.0
176
     1
 40
1.0
176
     1
 90
        0
176
     1
 62
    18
176
     1
 90
       50
176
     1
 90
        3
176
     1
 62
     5
420
      255
176
     1
290
     0
176
     1
 90
       50
176
     1
 90
       50
176
     1
 90
       50
176
     1
290
     0
176
     1
 90
       50
176
     1
 62
   256
176
     0
 40
1.0
176
     0
 90
        2
176
     1
  1
strokes_ogs.tif
176
     1
290
     0
176
     1
 40
1.0
176
     1
 40
1.0
176
     1
  0
VISUALSTYLE
  5
30
102
{ACAD_REACTORS
330
29
102
}
330
29
100
AcDbVisualStyle
  2
Wireframe
 70
     5
177
     3
291
     0
 70
    58
 90
        0
176
     1
 90
        2
176
     1
 90
        0
176
     1
 90
        0
176
     1
 40
0.6
176
     1
 40
30.0
176
     1
 62
     7
420
 16777215
176
     1
 90
        1
176
     1
 90
        4
176
     1
 62
     7
176
     1
 62
   257
176
     1
 90
        1
176
     1
 90
        1
176
     1
 40
1.0
176
     1
 90
        0
176
     1
 62
   257
176
     1
 40
1.0
176
     1
 90
        1
176
     1
 90
        6
176
     1
 90
        2
176
     1
 62
     7
176
     1
 90
        3
176
     1
 90
        0
176
     1
 90
        0
176
     1
290
     0
176
     1
 90
        1
176
     1
 40
0.0
176
     1
 90
        0
176
     1
290
     0
176
     1
290
     1
176
     1
290
     1
176
     1
290
     0
176
     1
290
     0
176
     1
290
     0
176
     1
290
     0
176
     1
290
     0
176
     1
290
     0
176
     1
 90
       50
176
     1
 40
0.0
176
     1
 40
1.0
176
     1
 90
        0
176
     1
 62
    18
176
     1
 90
       50
176
     1
 90
        3
176
     1
 62
     5
420
      255
176
     1
290
     0
176
     1
 90
       50
176
     1
 90
       50
176
     1
 90
       50
176
     1
290
     0
176
     1
 90
       50
176
     1
 62
   256
176
     0
 40
1.0
176
     0
 90
        2
176
     1
  1
strokes_ogs.tif
176
     1
290
     0
176
     1
 40
1.0
176
     1
 40
1.0
176
     1
  0
VISUALSTYLE
  5
3C
102
{ACAD_REACTORS
330
29
102
}
330
29
100
AcDbVisualStyle
  2
X-Ray
 70
    25
177
     3
291
     0
 70
    58
 90
        2
176
     1
 90
        2
176
     1
 90
        1
176
     1
 90
        1
176
     1
 40
0.5
176
     1
 40
30.0
176
     1
 62
     7
420
 16777215
176
     1
 90
        1
176
     1
 90
        0
176
     1
 62
     7
176
     1
 62
   257
176
     1
 90
        1
176
     1
 90
        1
176
     1
 40
1.0
176
     1
 90
        8
176
     1
 62
     7
176
     1
 40
1.0
176
     1
 90
        1
176
     1
 90
        6
176
     1
 90
        2
176
     1
 62
     7
176
     1
 90
        3
176
     1
 90
        0
176
     1
 90
        0
176
     1
290
     0
176
     1
 90
       13
176
     1
 40
0.0
176
     1
 90
        0
176
     1
290
     0
176
     1
290
     1
176
     1
290
     1
176
     1
290
     0
176
     1
290
     0
176
     1
290
     0
176
     1
290
     0
176
     1
290
     0
176
     1
290
     0
176
     1
 90
       50
176
     1
 40
0.0
176
     1
 40
1.0
176
     1
 90
        0
176
     1
 62
    18
176
     1
 90
       50
176
     1
 90
        3
176
     1
 62
     5
420
      255
176
     1
290
     0
176
     1
 90
       50
176
     1
 90
       50
176
     1
 90
       50
176
     1
290
     0
176
     1
 90
       50
176
     1
 62
   256
176
     0
 40
1.0
176
     0
 90
        2
176
     1
  1
strokes_ogs.tif
176
     1
290
     0
176
     1
 40
1.0
176
     1
 40
1.0
176
     1
  0
DICTIONARYVAR
  5
180D
102
{ACAD_REACTORS
330
1807
102
}
330
1807
100
DictionaryVariables
280
     0
  1
1:1
  0
DICTIONARYVAR
  5
1809
102
{ACAD_REACTORS
330
1807
102
}
330
1807
100
DictionaryVariables
280
     0
  1
STANDARD
  0
DICTIONARYVAR
  5
1808
102
{ACAD_REACTORS
330
1807
102
}
330
1807
100
DictionaryVariables
280
     0
  1
STANDARD
  0
DICTIONARYVAR
  5
180A
102
{ACAD_REACTORS
330
1807
102
}
330
1807
100
DictionaryVariables
280
     0
  1
Imperial24
  0
DICTIONARYVAR
  5
180B
102
{ACAD_REACTORS
330
1807
102
}
330
1807
100
DictionaryVariables
280
     0
  1
Imperial24
  0
DICTIONARYVAR
  5
180F
102
{ACAD_REACTORS
330
1807
102
}
330
1807
100
DictionaryVariables
280
     0
  1
1
  0
DICTIONARYVAR
  5
1810
102
{ACAD_REACTORS
330
1807
102
}
330
1807
100
DictionaryVariables
280
     0
  1
15
  0
DICTIONARYVAR
  5
180E
102
{ACAD_REACTORS
330
1807
102
}
330
1807
100
DictionaryVariables
280
     0
  1
0
  0
DICTIONARYVAR
  5
180C
102
{ACAD_REACTORS
330
1807
102
}
330
1807
100
DictionaryVariables
280
     0
  1
0
  0
DICTIONARY
  5
1A
330
19
100
AcDbDictionary
280
     1
281
     1
  3
BUMPTILE
360
1C
  3
DIFFUSETILE
360
1B
  3
OPACITYTILE
360
1F
  3
REFLECTIONTILE
360
1E
  3
REFRACTIONTILE
360
20
  3
SPECULARTILE
360
1D
  0
DICTIONARY
  5
12
330
11
100
AcDbDictionary
280
     1
281
     1
  3
BUMPTILE
360
14
  3
DIFFUSETILE
360
13
  3
OPACITYTILE
360
17
  3
REFLECTIONTILE
360
16
  3
REFRACTIONTILE
360
18
  3
SPECULARTILE
360
15
  0
DICTIONARY
  5
22
330
21
100
AcDbDictionary
280
     1
281
     1
  3
BUMPTILE
360
24
  3
DIFFUSETILE
360
23
  3
OPACITYTILE
360
27
  3
REFLECTIONTILE
360
26
  3
REFRACTIONTILE
360
28
  3
SPECULARTILE
360
25
  0
DICTIONARY
  5
1811
330
64
100
AcDbDictionary
280
     1
281
     1
  3
ACAD_ROUNDTRIP_2008_TABLESTYLE_CELLSTYLEMAP
360
2320
  0
XRECORD
  5
1C
102
{ACAD_REACTORS
330
1A
102
}
330
1A
100
AcDbXrecord
280
     1
270
     1
271
     1
  0
XRECORD
  5
1B
102
{ACAD_REACTORS
330
1A
102
}
330
1A
100
AcDbXrecord
280
     1
270
     1
271
     1
  0
XRECORD
  5
1F
102
{ACAD_REACTORS
330
1A
102
}
330
1A
100
AcDbXrecord
280
     1
270
     1
271
     1
  0
XRECORD
  5
1E
102
{ACAD_REACTORS
330
1A
102
}
330
1A
100
AcDbXrecord
280
     1
270
     1
271
     1
  0
XRECORD
  5
20
102
{ACAD_REACTORS
330
1A
102
}
330
1A
100
AcDbXrecord
280
     1
270
     1
271
     1
  0
XRECORD
  5
1D
102
{ACAD_REACTORS
330
1A
102
}
330
1A
100
AcDbXrecord
280
     1
270
     1
271
     1
  0
XRECORD
  5
14
102
{ACAD_REACTORS
330
12
102
}
330
12
100
AcDbXrecord
280
     1
270
     1
271
     1
  0
XRECORD
  5
13
102
{ACAD_REACTORS
330
12
102
}
330
12
100
AcDbXrecord
280
     1
270
     1
271
     1
  0
XRECORD
  5
17
102
{ACAD_REACTORS
330
12
102
}
330
12
100
AcDbXrecord
280
     1
270
     1
271
     1
  0
XRECORD
  5
16
102
{ACAD_REACTORS
330
12
102
}
330
12
100
AcDbXrecord
280
     1
270
     1
271
     1
  0
XRECORD
  5
18
102
{ACAD_REACTORS
330
12
102
}
330
12
100
AcDbXrecord
280
     1
270
     1
271
     1
  0
XRECORD
  5
15
102
{ACAD_REACTORS
330
12
102
}
330
12
100
AcDbXrecord
280
     1
270
     1
271
     1
  0
XRECORD
  5
24
102
{ACAD_REACTORS
330
22
102
}
330
22
100
AcDbXrecord
280
     1
270
     1
271
     1
  0
XRECORD
  5
23
102
{ACAD_REACTORS
330
22
102
}
330
22
100
AcDbXrecord
280
     1
270
     1
271
     1
  0
XRECORD
  5
27
102
{ACAD_REACTORS
330
22
102
}
330
22
100
AcDbXrecord
280
     1
270
     1
271
     1
  0
XRECORD
  5
26
102
{ACAD_REACTORS
330
22
102
}
330
22
100
AcDbXrecord
280
     1
270
     1
271
     1
  0
XRECORD
  5
28
102
{ACAD_REACTORS
330
22
102
}
330
22
100
AcDbXrecord
280
     1
270
     1
271
     1
  0
XRECORD
  5
25
102
{ACAD_REACTORS
330
22
102
}
330
22
100
AcDbXrecord
280
     1
270
     1
271
     1
  0
CELLSTYLEMAP
  5
2320
102
{ACAD_REACTORS
330
1811
102
}
330
1811
100
AcDbCellStyleMap
 90
        3
300
CELLSTYLE
  1
TABLEFORMAT_BEGIN
 90
        5
170
     1
 91
        0
 92
    32768
 62
   257
 93
        1
300
CONTENTFORMAT
  1
CONTENTFORMAT_BEGIN
 90
        0
 91
        0
 92
      512
 93
        0
300

 40
0.0
140
1.0
 94
        5
 62
     0
340
55
144
0.25
309
CONTENTFORMAT_END
171
     1
301
MARGIN
  1
CELLMARGIN_BEGIN
 40
0.06
 40
0.06
 40
0.06
 40
0.06
 40
0.18
 40
0.18
309
CELLMARGIN_END
 94
        6
 95
        1
302
GRIDFORMAT
  1
GRIDFORMAT_BEGIN
 90
        0
 91
        1
 62
     0
 92
       -2
340
0
 93
        0
 40
0.045
309
GRIDFORMAT_END
 95
        2
302
GRIDFORMAT
  1
GRIDFORMAT_BEGIN
 90
        0
 91
        1
 62
     0
 92
       -2
340
0
 93
        0
 40
0.045
309
GRIDFORMAT_END
 95
        4
302
GRIDFORMAT
  1
GRIDFORMAT_BEGIN
 90
        0
 91
        1
 62
     0
 92
       -2
340
0
 93
        0
 40
0.045
309
GRIDFORMAT_END
 95
        8
302
GRIDFORMAT
  1
GRIDFORMAT_BEGIN
 90
        0
 91
        1
 62
     0
 92
       -2
340
0
 93
        0
 40
0.045
309
GRIDFORMAT_END
 95
       16
302
GRIDFORMAT
  1
GRIDFORMAT_BEGIN
 90
        0
 91
        1
 62
     0
 92
       -2
340
0
 93
        0
 40
0.045
309
GRIDFORMAT_END
 95
       32
302
GRIDFORMAT
  1
GRIDFORMAT_BEGIN
 90
        0
 91
        1
 62
     0
 92
       -2
340
0
 93
        0
 40
0.045
309
GRIDFORMAT_END
309
TABLEFORMAT_END
  1
CELLSTYLE_BEGIN
 90
        1
 91
        1
300
_TITLE
309
CELLSTYLE_END
300
CELLSTYLE
  1
TABLEFORMAT_BEGIN
 90
        5
170
     1
 91
        0
 92
        0
 62
   257
 93
        1
300
CONTENTFORMAT
  1
CONTENTFORMAT_BEGIN
 90
        0
 91
        0
 92
      512
 93
        0
300

 40
0.0
140
1.0
 94
        5
 62
     0
340
55
144
0.18
309
CONTENTFORMAT_END
171
     1
301
MARGIN
  1
CELLMARGIN_BEGIN
 40
0.06
 40
0.06
 40
0.06
 40
0.06
 40
0.18
 40
0.18
309
CELLMARGIN_END
 94
        6
 95
        1
302
GRIDFORMAT
  1
GRIDFORMAT_BEGIN
 90
        0
 91
        1
 62
     0
 92
       -2
340
0
 93
        0
 40
0.045
309
GRIDFORMAT_END
 95
        2
302
GRIDFORMAT
  1
GRIDFORMAT_BEGIN
 90
        0
 91
        1
 62
     0
 92
       -2
340
0
 93
        0
 40
0.045
309
GRIDFORMAT_END
 95
        4
302
GRIDFORMAT
  1
GRIDFORMAT_BEGIN
 90
        0
 91
        1
 62
     0
 92
       -2
340
0
 93
        0
 40
0.045
309
GRIDFORMAT_END
 95
        8
302
GRIDFORMAT
  1
GRIDFORMAT_BEGIN
 90
        0
 91
        1
 62
     0
 92
       -2
340
0
 93
        0
 40
0.045
309
GRIDFORMAT_END
 95
       16
302
GRIDFORMAT
  1
GRIDFORMAT_BEGIN
 90
        0
 91
        1
 62
     0
 92
       -2
340
0
 93
        0
 40
0.045
309
GRIDFORMAT_END
 95
       32
302
GRIDFORMAT
  1
GRIDFORMAT_BEGIN
 90
        0
 91
        1
 62
     0
 92
       -2
340
0
 93
        0
 40
0.045
309
GRIDFORMAT_END
309
TABLEFORMAT_END
  1
CELLSTYLE_BEGIN
 90
        2
 91
        1
300
_HEADER
309
CELLSTYLE_END
300
CELLSTYLE
  1
TABLEFORMAT_BEGIN
 90
        5
170
     1
 91
        0
 92
        0
 62
   257
 93
        1
300
CONTENTFORMAT
  1
CONTENTFORMAT_BEGIN
 90
        0
 91
        0
 92
      512
 93
        0
300

 40
0.0
140
1.0
 94
        2
 62
     0
340
55
144
0.18
309
CONTENTFORMAT_END
171
     1
301
MARGIN
  1
CELLMARGIN_BEGIN
 40
0.06
 40
0.06
 40
0.06
 40
0.06
 40
0.18
 40
0.18
309
CELLMARGIN_END
 94
        6
 95
        1
302
GRIDFORMAT
  1
GRIDFORMAT_BEGIN
 90
        0
 91
        1
 62
     0
 92
       -2
340
0
 93
        0
 40
0.045
309
GRIDFORMAT_END
 95
        2
302
GRIDFORMAT
  1
GRIDFORMAT_BEGIN
 90
        0
 91
        1
 62
     0
 92
       -2
340
0
 93
        0
 40
0.045
309
GRIDFORMAT_END
 95
        4
302
GRIDFORMAT
  1
GRIDFORMAT_BEGIN
 90
        0
 91
        1
 62
     0
 92
       -2
340
0
 93
        0
 40
0.045
309
GRIDFORMAT_END
 95
        8
302
GRIDFORMAT
  1
GRIDFORMAT_BEGIN
 90
        0
 91
        1
 62
     0
 92
       -2
340
0
 93
        0
 40
0.045
309
GRIDFORMAT_END
 95
       16
302
GRIDFORMAT
  1
GRIDFORMAT_BEGIN
 90
        0
 91
        1
 62
     0
 92
       -2
340
0
 93
        0
 40
0.045
309
GRIDFORMAT_END
 95
       32
302
GRIDFORMAT
  1
GRIDFORMAT_BEGIN
 90
        0
 91
        1
 62
     0
 92
       -2
340
0
 93
        0
 40
0.045
309
GRIDFORMAT_END
309
TABLEFORMAT_END
  1
CELLSTYLE_BEGIN
 90
        3
 91
        2
300
_DATA
309
CELLSTYLE_END
  0
ENDSEC
  0
SECTION
  2
ACDSDATA
 70
     2
 71
     8
  0
ACDSSCHEMA
 90
        0
  1
AcDb_Thumbnail_Schema
  2
AcDbDs::ID
280
    10
 91
        8
  2
Thumbnail_Data
280
    15
 91
        0
101
ACDSRECORD
 95
        0
 90
        1
  2
AcDbDs::TreatedAsObjectData
280
     1
291
     1
101
ACDSRECORD
 95
        0
 90
        2
  2
AcDbDs::Legacy
280
     1
291
     1
101
ACDSRECORD
  1
AcDbDs::ID
 90
        3
  2
AcDs:Indexable
280
     1
291
     1
101
ACDSRECORD
  1
AcDbDs::ID
 90
        4
  2
AcDbDs::HandleAttribute
280
     7
282
     1
  0
ACDSSCHEMA
 90
        1
  1
AcDbDs::TreatedAsObjectDataSchema
  2
AcDbDs::TreatedAsObjectData
280
     1
 91
        0
  0
ACDSSCHEMA
 90
        2
  1
AcDbDs::LegacySchema
  2
AcDbDs::Legacy
280
     1
 91
        0
  0
ACDSSCHEMA
 90
        3
  1
AcDbDs::IndexedPropertySchema
  2
AcDs:Indexable
280
     1
 91
        0
  0
ACDSSCHEMA
 90
        4
  1
AcDbDs::HandleAttributeSchema
  2
AcDbDs::HandleAttribute
280
     7
 91
        1
284
     1
  0
ACDSRECORD
 90
        0
  2
AcDbDs::ID
280
    10
320
72
  2
Thumbnail_Data
280
    15
 94
     2286
310
89504E470D0A1A0A0000000D49484452000001000000009308030000005629370D00000300504C5445212830FFFFFF2128300000000000000000000000000000000000000000000000000000330000660000990000CC0000FF0033000033330033660033990033CC0033FF0066000066330066660066990066CC0066FF0099
310
000099330099660099990099CC0099FF00CC0000CC3300CC6600CC9900CCCC00CCFF00FF0000FF3300FF6600FF9900FFCC00FFFF3300003300333300663300993300CC3300FF3333003333333333663333993333CC3333FF3366003366333366663366993366CC3366FF3399003399333399663399993399CC3399FF33CC00
310
33CC3333CC6633CC9933CCCC33CCFF33FF0033FF3333FF6633FF9933FFCC33FFFF6600006600336600666600996600CC6600FF6633006633336633666633996633CC6633FF6666006666336666666666996666CC6666FF6699006699336699666699996699CC6699FF66CC0066CC3366CC6666CC9966CCCC66CCFF66FF0066
310
FF3366FF6666FF9966FFCC66FFFF9900009900339900669900999900CC9900FF9933009933339933669933999933CC9933FF9966009966339966669966999966CC9966FF9999009999339999669999999999CC9999FF99CC0099CC3399CC6699CC9999CCCC99CCFF99FF0099FF3399FF6699FF9999FFCC99FFFFCC0000CC00
310
33CC0066CC0099CC00CCCC00FFCC3300CC3333CC3366CC3399CC33CCCC33FFCC6600CC6633CC6666CC6699CC66CCCC66FFCC9900CC9933CC9966CC9999CC99CCCC99FFCCCC00CCCC33CCCC66CCCC99CCCCCCCCCCFFCCFF00CCFF33CCFF66CCFF99CCFFCCCCFFFFFF0000FF0033FF0066FF0099FF00CCFF00FFFF3300FF3333
310
FF3366FF3399FF33CCFF33FFFF6600FF6633FF6666FF6699FF66CCFF66FFFF9900FF9933FF9966FF9999FF99CCFF99FFFFCC00FFCC33FFCC66FFCC99FFCCCCFFCCFFFFFF00FFFF33FFFF66FFFF99FFFFCCFFFFFF0000000D0D0D1A1A1A2828283535354343435050505D5D5D6B6B6B787878868686939393A1A1A1AEAEAEBB
310
BBBBC9C9C9D6D6D6E4E4E4F1F1F1FFFFFF0000000000000000000000000000000000000000000000000000000000002E4550F1000002654944415478DAED9C5B7283301443598E7FB4FFEDB593749A3405DB80EDFB90F8EC4C09E758BA38CF6DF378948BFF56B614C7550E76FC22FC0CFC2ABFF035FB34FB34FB547E955FE5
310
17BE669F669F669FCAAFF2ABFC2ABFCA2F7CCD3ECD3ECD3EE1ABFC2ABFD22F7CE16BF669F629FDC257F9332FBF669FCA2F7CCD3E955FE917BECAAF8D8F669FCA2F7CCDBECC06F2E05F622999F8CF1B48867F56403AFC730632E29F119012BF9FAB64E5EF139017BFCB406AFC0E0105DB466CA0A4E7AF0AF84E7F7AFE8A8147
310
F909041C1878CE3E06FE7D013F7FA410B063E0F7D6C729E075E7E7E0FF30F0BEF16114F047068B8017F5C7BE974DC0BF6D3F8D8087819D673D4C02F69FF47145805AC0012A225E348D00803B02E0EE00B0C62868F04309C0C2D38264F90F61C1831F4300569F1D34CB1F20028045C040927EF702002BCB20C2DFC50513BECF
310
08C0F8D1C0B3FC0E2350C5477E03308886230135C489CDF062C020FD9EE6202CD2EF270296F80E22608C6F1D01737C5B0375C2655761F5D00DFC7539B431E006DF660E7AC23788400370FD4E64AD8116BEC54E6CA10087F82B0DF8C45F26C02BFE22032D3EDB57A3A6DF0A9BF8D6AFC6CD5D11EFF8930D04C09F29A089E7E4
310
0DA95906B00558FEA30B0547FAE7452012FE0403C1F0470B8832FB26194098D937650EC6C41F67202AFEA0CF4F462CFF400388BBFC230C44C7BFF949FAF8F8B70CA4C03F44C56DFC30DFCABA6400030439175031804CF8670DA0833E16FE09035DF0F1F02B02DE503AE123E2B7EAFE3C466D8CA209B03B534C0361BF904D2F
310
60D09547FE463E24809B7FC8D5B30B88FE9B1C900019201770FFAD510918797C0152B5655F2F9CE74D0000000049454E44AE426082584203B5EDDE50164CCF0DB807848658BB0BD4079DF14A3FF8C0F62E012B68A03AE804A90CDC8C13F03BC2A401FDC7DF48666FEC14212B8B747B406FBFD1A17E5334E80208C321B504C8
310
B39EC375E7A7C85C03A117C03AE23FE1675A189701E0D6A805B7C6A9E6A3AED92972190555060141FC7CB63FBD5304B0D3D749C010FCB3189CDB2902B9078A71449B04C42D873C9FF1B5AA0119205DAE854E58611E14B61CAAF8592C1C9001BD0852D80EA5D887EA7D581DFF5C363808881E80D412EAF37E88F0F39D37F2DB
310
5D19500F08B5B01A17A0F021C12F77FEC82F7B3248BDA44F2EA0663842C50F8EAE98F3BB7640E8C9E05C1073FE2A82A0E4F8B7EA6E77F1D6A1EC6A38365106E9A3430E809225A1A2EE03D9EDEEE24FD970480617013E0E48755E79A402A5B2E651F15938B8EE32C5495592408C013A0B1F94957B1B3F731851065735117623
310
C2BDB0D712FBF26F0A37869F5D914832006F02118B02AF48FCCDD02FE1A7415394C17991E06215146B617D571EF5CCD4C2CF0968CB80EF07F82313AABDF199C19F13D09001DF12BB7D456A16BE80FF74EDECB290CB201FA105D7BF958119F84E7AE38166C177C9A09055CC03B726000CC377F21B9766C0BC645060F5EEF67F
310
3F0390AE3C26F00B2133C9009DE0710F017C5C2F3C6AEBBD7182C46F9401A42BB2DB5D407ED3D77DE3252B43E80DC09A88FB5C407ED2D87FE356756FF6DE607BF7A37FED0270DDF7CC035F32E6C154D301EC83F7417AFBB36F7D3B0476501F1C52286FD325075A8D7295805B7BC1FE85CC989306CCCC03301A3DFD9DEF0731
310
A8EE911DD00B0698107A9F7FEF801443F96D7007B415133B04DF3A1C6A34FE73FA2F4A5A8CE2573019C3FBF98F6FBEE659C1A51D10FDCFA266F15FAD1FBFDCE14D45EC78DD4AEBD0728EA050C9CF6BD7873E2577EF9626E0DA86A1BD7E1A6BC7730E093023205EFBAEEE01E464390F8980FDF11BD2031872C9EDE9CF9C5B9D
310
8232521FAE7F0C36115F001EBA58FEB8A7FC821090FE8D9CFFE0B8871938D14702CE9AEE9904A45EF03104784F09484FA11EA480B8E1B4BF7E73FEACA71F4400C90F670C78A62DF6F8F1CFBB293333333333333333333333333333333333333333333333333333B36FD83F65DE844DB39772380000000049454E44AE426082
  0
ENDSEC
  0
EOF
